<svg version="1.1" id="Layer_1" xmlns="http://www.w3.org/2000/svg" xmlns:xlink="http://www.w3.org/1999/xlink" x="0px" y="0px"
	 width="900px" height="400px" viewBox="0 0 3520.012 1863.407" style="enable-background:new 0 0 3520.012 1863.407;"
	 xml:space="preserve">




	
	<path class="st3" d="M1613.726,973.78h5.663v0.858h-0.796c0.279,0.177,0.503,0.414,0.671,0.71c0.171,0.293,0.257,0.631,0.257,1.007
		c0,0.419-0.091,0.763-0.265,1.031c-0.172,0.268-0.418,0.458-0.73,0.569c0.659,0.449,0.995,1.029,0.995,1.749
		c0,0.561-0.159,0.993-0.472,1.297c-0.307,0.304-0.786,0.453-1.436,0.453h-3.888v-0.954h3.567c0.387,0,0.66-0.032,0.829-0.092
		c0.172-0.066,0.304-0.175,0.408-0.339c0.105-0.165,0.157-0.361,0.157-0.577c0-0.402-0.133-0.731-0.401-0.993
		c-0.266-0.265-0.687-0.396-1.267-0.396h-3.294v-0.959h3.679c0.43,0,0.748-0.08,0.959-0.235c0.215-0.158,0.324-0.415,0.324-0.77
		c0-0.271-0.075-0.522-0.212-0.751c-0.147-0.228-0.354-0.393-0.628-0.496c-0.272-0.103-0.667-0.153-1.185-0.153h-2.938V973.78z"/>


	<path class="st3" d="M1619.361,990.965h-0.674v-3.758c0.168-0.005,0.332,0.021,0.488,0.082c0.254,0.094,0.508,0.248,0.755,0.459
		c0.253,0.211,0.537,0.514,0.861,0.911c0.506,0.619,0.91,1.035,1.204,1.255c0.294,0.217,0.575,0.325,0.842,0.325
		c0.273,0,0.511-0.098,0.7-0.297c0.188-0.196,0.284-0.454,0.284-0.773c0-0.335-0.103-0.609-0.305-0.809
		c-0.201-0.201-0.478-0.304-0.836-0.304l0.072-0.721c0.536,0.052,0.943,0.237,1.223,0.557c0.282,0.319,0.423,0.75,0.423,1.292
		c0,0.546-0.151,0.979-0.456,1.292c-0.3,0.318-0.675,0.478-1.123,0.478c-0.23,0-0.451-0.046-0.67-0.138
		c-0.22-0.092-0.448-0.247-0.699-0.464c-0.237-0.215-0.573-0.577-0.996-1.075c-0.351-0.417-0.592-0.692-0.717-0.809
		c-0.122-0.12-0.25-0.215-0.377-0.294V990.965z"/>

</svg>
