<?xml version="1.0" encoding="utf-8"?>
<!-- Generator: Adobe Illustrator 16.0.0, SVG Export Plug-In . SVG Version: 6.00 Build 0)  -->
<!DOCTYPE svg PUBLIC "-//W3C//DTD SVG 1.1//EN" "http://www.w3.org/Graphics/SVG/1.1/DTD/svg11.dtd">
<svg version="1.1" xmlns="http://www.w3.org/2000/svg" xmlns:xlink="http://www.w3.org/1999/xlink" x="0px" y="0px" width="800px"
	 height="600px" viewBox="0 0 800 600" enable-background="new 0 0 800 600" xml:space="preserve">
<g id="_x30_">
	<g id="MTEXT">
		<text transform="matrix(1 0 0 1 371.0869 478.2715)" font-family="'Arial-BoldMT'" font-size="16.9517">2do. NIVEL - BAZAR </text>
	</g>
	<g id="MTEXT_54_">
		<text transform="matrix(1 0 0 1 413.4961 501.8301)" font-family="'Arial-BoldMT'" font-size="16.9517">Arquitectónico</text>
	</g>
</g>
<g id="AREA__x28_POLILINEA_x29_">
	<g id="MTEXT_1_">
		<text transform="matrix(1 0 0 1 224.1074 123.1133)" fill="#0000FF" font-family="'ArialMT'" font-size="4.2137">Local 203</text>
	</g>
	<g id="MTEXT_2_">
		<text transform="matrix(1 0 0 1 224.748 161.1113)" fill="#0000FF" font-family="'ArialMT'" font-size="4.2137">Local 205</text>
	</g>
	<g id="MTEXT_3_">
		<text transform="matrix(1 0 0 1 224.1455 196.0947)" fill="#0000FF" font-family="'ArialMT'" font-size="4.2137">Local 207</text>
	</g>
	<g id="MTEXT_4_">
		<text transform="matrix(1 0 0 1 224.1265 237.4648)" fill="#0000FF" font-family="'ArialMT'" font-size="4.2137">Local 208</text>
	</g>
	<g id="MTEXT_5_">
		<text transform="matrix(1 0 0 1 433.3838 41.208)" fill="#0000FF" font-family="'ArialMT'" font-size="4.2137">Local 266</text>
	</g>
	<g id="MTEXT_6_">
		<text transform="matrix(1 0 0 1 525.4063 247.8018)" fill="#0000FF" font-family="'ArialMT'" font-size="4.2137">Local 259</text>
	</g>
	<g id="MTEXT_7_">
		<text transform="matrix(1 0 0 1 525.2988 281.9502)" fill="#0000FF" font-family="'ArialMT'" font-size="4.2137">Local 257</text>
	</g>
	<g id="MTEXT_8_">
		<text transform="matrix(1 0 0 1 222.0566 346.1064)" fill="#0000FF" font-family="'ArialMT'" font-size="4.2137">Local 212</text>
	</g>
	<g id="MTEXT_9_">
		<text transform="matrix(1 0 0 1 220.6094 391.4814)" fill="#0000FF" font-family="'ArialMT'" font-size="4.2137">Local 214</text>
	</g>
	<g id="MTEXT_10_">
		<text transform="matrix(1 0 0 1 532.126 392.6904)" fill="#0000FF" font-family="'ArialMT'" font-size="4.2137">Local 252</text>
	</g>
	<g id="MTEXT_11_">
		<text transform="matrix(1 0 0 1 532.0254 357.9326)" fill="#0000FF" font-family="'ArialMT'" font-size="4.2137">Local 253</text>
	</g>
	<g id="MTEXT_12_">
		<text transform="matrix(1 0 0 1 529.8672 320.0508)" fill="#0000FF" font-family="'ArialMT'" font-size="4.2137">Local 255</text>
	</g>
	<g id="MTEXT_13_">
		<text transform="matrix(1 0 0 1 236.7275 427.0186)" fill="#0000FF" font-family="'ArialMT'" font-size="4.2137">Local 215</text>
	</g>
	<g id="MTEXT_14_">
		<text transform="matrix(1 0 0 1 283.9868 425.2539)" fill="#0000FF" font-family="'ArialMT'" font-size="4.2137">Local 216</text>
	</g>
	<g id="MTEXT_15_">
		<text transform="matrix(1 0 0 1 333.0337 429.3906)" fill="#0000FF" font-family="'ArialMT'" font-size="4.2137">Local 218</text>
	</g>
	<g id="MTEXT_16_">
		<text transform="matrix(1 0 0 1 377.104 429.0381)" fill="#0000FF" font-family="'ArialMT'" font-size="4.2137">Local 219</text>
	</g>
	<g id="MTEXT_17_">
		<text transform="matrix(1 0 0 1 422.251 429.1318)" fill="#0000FF" font-family="'ArialMT'" font-size="4.2137">Local 249</text>
	</g>
	<g id="MTEXT_18_">
		<text transform="matrix(1 0 0 1 469.6582 427.7461)" fill="#0000FF" font-family="'ArialMT'" font-size="4.2137">Local 250</text>
	</g>
	<g id="MTEXT_19_">
		<text transform="matrix(1 0 0 1 514.7803 427.3896)" fill="#0000FF" font-family="'ArialMT'" font-size="4.2137">Local 251</text>
	</g>
	<g id="MTEXT_20_">
		<text transform="matrix(1 0 0 1 315.6167 41.2715)" fill="#0000FF" font-family="'ArialMT'" font-size="4.2137">Local 233</text>
	</g>
	<g id="MTEXT_21_">
		<text transform="matrix(1 0 0 1 353.3657 41.1865)" fill="#0000FF" font-family="'ArialMT'" font-size="4.2137">Local 234</text>
	</g>
	<g id="MTEXT_22_">
		<text transform="matrix(1 0 0 1 392.2173 41.2656)" fill="#0000FF" font-family="'ArialMT'" font-size="4.2137">Local 235</text>
	</g>
	<g id="MTEXT_23_">
		<text transform="matrix(1 0 0 1 443.0234 75.0635)" fill="#0000FF" font-family="'ArialMT'" font-size="4.2137">Local 265</text>
	</g>
	<g id="MTEXT_24_">
		<text transform="matrix(1 0 0 1 442.668 123.1914)" fill="#0000FF" font-family="'ArialMT'" font-size="4.2137">Local 264</text>
	</g>
	<g id="MTEXT_25_">
		<text transform="matrix(1 0 0 1 443.0957 170.4834)" fill="#0000FF" font-family="'ArialMT'" font-size="4.2137">Local 263</text>
	</g>
	<g id="MTEXT_26_">
		<text transform="matrix(1 0 0 1 275.0928 236.4443)" fill="#0000FF" font-family="'ArialMT'" font-size="4.2137">Local 209</text>
	</g>
	<g id="MTEXT_27_">
		<text transform="matrix(1 0 0 1 275.916 275.9297)" fill="#0000FF" font-family="'ArialMT'" font-size="4.2137">Local 210</text>
	</g>
	<g id="MTEXT_28_">
		<text transform="matrix(1 0 0 1 274.8999 311.9844)" fill="#0000FF" font-family="'ArialMT'" font-size="4.2137">Local 211</text>
	</g>
	<g id="MTEXT_29_">
		<text transform="matrix(1 0 0 1 275.7822 347.0703)" fill="#0000FF" font-family="'ArialMT'" font-size="4.2137">Local 213</text>
	</g>
	<g id="MTEXT_30_">
		<text transform="matrix(1 0 0 1 283.9746 376.9922)" fill="#0000FF" font-family="'ArialMT'" font-size="4.2137">Local 217</text>
	</g>
	<g id="MTEXT_31_">
		<text transform="matrix(1 0 0 1 360.9185 377.0791)" fill="#0000FF" font-family="'ArialMT'" font-size="4.2137">Local 220</text>
	</g>
	<g id="MTEXT_32_">
		<text transform="matrix(1 0 0 1 301.1304 347.2607)" fill="#0000FF" font-family="'ArialMT'" font-size="4.2137">Local 222</text>
	</g>
	<g id="MTEXT_33_">
		<text transform="matrix(1 0 0 1 349.8672 347.332)" fill="#0000FF" font-family="'ArialMT'" font-size="4.2137">Local 221</text>
	</g>
	<g id="MTEXT_34_">
		<text transform="matrix(1 0 0 1 301.9404 311.7617)" fill="#0000FF" font-family="'ArialMT'" font-size="4.2137">Local 224</text>
	</g>
	<g id="MTEXT_35_">
		<text transform="matrix(1 0 0 1 349.1504 311.7578)" fill="#0000FF" font-family="'ArialMT'" font-size="4.2137">Local 223</text>
	</g>
	<g id="MTEXT_36_">
		<text transform="matrix(1 0 0 1 301.395 275.8613)" fill="#0000FF" font-family="'ArialMT'" font-size="4.2137">Local 226</text>
	</g>
	<g id="MTEXT_37_">
		<text transform="matrix(1 0 0 1 349.3398 275.4346)" fill="#0000FF" font-family="'ArialMT'" font-size="4.2137">Local 225</text>
	</g>
	<g id="MTEXT_38_">
		<text transform="matrix(1 0 0 1 300.8052 236.1514)" fill="#0000FF" font-family="'ArialMT'" font-size="4.2137">Local 228</text>
	</g>
	<g id="MTEXT_39_">
		<text transform="matrix(1 0 0 1 349.1787 236.3994)" fill="#0000FF" font-family="'ArialMT'" font-size="4.2137">Local 227</text>
	</g>
	<g id="MTEXT_40_">
		<text transform="matrix(1 0 0 1 371.8647 236.0791)" fill="#0000FF" font-family="'ArialMT'" font-size="4.2137">Local 240</text>
	</g>
	<g id="MTEXT_41_">
		<text transform="matrix(1 0 0 1 418.3252 236.207)" fill="#0000FF" font-family="'ArialMT'" font-size="4.2137">Local 241</text>
	</g>
	<g id="MTEXT_42_">
		<text transform="matrix(1 0 0 1 372.3765 275.71)" fill="#0000FF" font-family="'ArialMT'" font-size="4.2137">Local 242</text>
	</g>
	<g id="MTEXT_43_">
		<text transform="matrix(1 0 0 1 418.3359 275.5938)" fill="#0000FF" font-family="'ArialMT'" font-size="4.2137">Local 243</text>
	</g>
	<g id="MTEXT_44_">
		<text transform="matrix(1 0 0 1 372.5117 311.8135)" fill="#0000FF" font-family="'ArialMT'" font-size="4.2137">Local 244</text>
	</g>
	<g id="MTEXT_45_">
		<text transform="matrix(1 0 0 1 418.375 311.8389)" fill="#0000FF" font-family="'ArialMT'" font-size="4.2137">Local 245</text>
	</g>
	<g id="MTEXT_46_">
		<text transform="matrix(1 0 0 1 372.3462 347.1074)" fill="#0000FF" font-family="'ArialMT'" font-size="4.2137">Local 246</text>
	</g>
	<g id="MTEXT_47_">
		<text transform="matrix(1 0 0 1 418.4375 347.3008)" fill="#0000FF" font-family="'ArialMT'" font-size="4.2137">Local 247</text>
	</g>
	<g id="MTEXT_48_">
		<text transform="matrix(1 0 0 1 426.9844 376.9658)" fill="#0000FF" font-family="'ArialMT'" font-size="4.2137">Local 248</text>
	</g>
	<g id="MTEXT_49_">
		<text transform="matrix(1 0 0 1 441.5313 347.0713)" fill="#0000FF" font-family="'ArialMT'" font-size="4.2137">Local 254</text>
	</g>
	<g id="MTEXT_50_">
		<text transform="matrix(1 0 0 1 441.0801 311.6973)" fill="#0000FF" font-family="'ArialMT'" font-size="4.2137">Local 256</text>
	</g>
	<g id="MTEXT_51_">
		<text transform="matrix(1 0 0 1 441.4834 275.7061)" fill="#0000FF" font-family="'ArialMT'" font-size="4.2137">Local 258</text>
	</g>
	<g id="MTEXT_52_">
		<text transform="matrix(1 0 0 1 441.1924 236.2188)" fill="#0000FF" font-family="'ArialMT'" font-size="4.2137">Local 260</text>
	</g>
	<g id="MTEXT_53_">
		<text transform="matrix(1 0 0 1 512.1953 173.2656)" fill="#0000FF" font-family="'ArialMT'" font-size="4.2137">Local 261</text>
	</g>
	<g id="MTEXT_55_">
		<text transform="matrix(1 0 0 1 289.3252 171.7031)" fill="#0000FF" font-family="'ArialMT'" font-size="4.2137">Local 230</text>
	</g>
	<g id="LWPOLYLINE">
		
			<rect x="303.05" y="31.03" fill="none" stroke="#0000FF" stroke-width="0" stroke-linecap="round" stroke-linejoin="round" stroke-miterlimit="10" width="37.833" height="22.705"/>
	</g>
	<g id="LWPOLYLINE_1_">
		
			<rect x="340.882" y="31.03" fill="none" stroke="#0000FF" stroke-width="0" stroke-linecap="round" stroke-linejoin="round" stroke-miterlimit="10" width="38.583" height="22.705"/>
	</g>
	<g id="LWPOLYLINE_2_">
		
			<rect x="379.466" y="31.03" fill="none" stroke="#0000FF" stroke-width="0" stroke-linecap="round" stroke-linejoin="round" stroke-miterlimit="10" width="38.583" height="22.704"/>
	</g>
	<g id="LWPOLYLINE_3_">
		
			<polygon fill="none" stroke="#0000FF" stroke-width="0" stroke-linecap="round" stroke-linejoin="round" stroke-miterlimit="10" points="
			418.049,31.03 462.604,31.03 462.604,54.492 440.754,54.492 440.754,53.735 418.049,53.735 		"/>
	</g>
	<g id="LWPOLYLINE_4_">
		
			<rect x="440.754" y="54.492" fill="none" stroke="#0000FF" stroke-width="0" stroke-linecap="round" stroke-linejoin="round" stroke-miterlimit="10" width="21.851" height="46.641"/>
	</g>
	<g id="LWPOLYLINE_5_">
		
			<polygon fill="none" stroke="#0000FF" stroke-width="0" stroke-linecap="round" stroke-linejoin="round" stroke-miterlimit="10" points="
			440.754,101.132 462.604,101.132 462.604,149.346 461.363,149.346 461.363,150.563 440.754,150.563 		"/>
	</g>
	<g id="LWPOLYLINE_6_">
		
			<polygon fill="none" stroke="#0000FF" stroke-width="0" stroke-linecap="round" stroke-linejoin="round" stroke-miterlimit="10" points="
			440.754,150.563 440.754,193.939 462.604,193.939 462.604,159.185 461.363,159.185 461.363,150.563 		"/>
	</g>
	<g id="LWPOLYLINE_7_">
		
			<polygon fill="none" stroke="#0000FF" stroke-width="0" stroke-linecap="round" stroke-linejoin="round" stroke-miterlimit="10" points="
			482.402,159.185 482.402,178.862 518.73,192.234 552.03,192.234 552.03,159.185 		"/>
	</g>
	<g id="LWPOLYLINE_8_">
		
			<polygon fill="none" stroke="#0000FF" stroke-width="0" stroke-linecap="round" stroke-linejoin="round" stroke-miterlimit="10" points="
			545.976,228.05 522.212,228.05 522.212,231.84 514.644,231.84 514.644,264.835 552.03,264.829 552.03,234.616 545.976,234.616 		
			"/>
	</g>
	<g id="LWPOLYLINE_9_">
		
			<polygon fill="none" stroke="#0000FF" stroke-width="0" stroke-linecap="round" stroke-linejoin="round" stroke-miterlimit="10" points="
			514.644,264.835 514.679,298.854 522.254,298.854 522.254,302.632 546.018,302.632 545.976,297.433 552.03,297.433 
			552.03,264.835 		"/>
	</g>
	<g id="LWPOLYLINE_10_">
		
			<polygon fill="none" stroke="#0000FF" stroke-width="0" stroke-linecap="round" stroke-linejoin="round" stroke-miterlimit="10" points="
			522.254,306.422 514.686,306.422 529.548,339.973 529.548,340.409 552.03,340.409 552.03,305.001 545.976,305.001 
			545.979,302.632 522.254,302.638 		"/>
	</g>
	<g id="LWPOLYLINE_11_">
		
			<polygon fill="none" stroke="#0000FF" stroke-width="0" stroke-linecap="round" stroke-linejoin="round" stroke-miterlimit="10" points="
			529.548,340.409 529.548,378.197 552.03,378.197 552.03,374.629 545.976,374.629 545.976,367.061 552.03,367.061 552.03,340.409 
					"/>
	</g>
	<g id="LWPOLYLINE_12_">
		
			<polygon fill="none" stroke="#0000FF" stroke-width="0" stroke-linecap="round" stroke-linejoin="round" stroke-miterlimit="10" points="
			529.548,378.197 529.548,413.654 547.489,413.654 547.489,412.215 552.03,412.215 552.03,378.197 		"/>
	</g>
	<g id="LWPOLYLINE_13_">
		
			<polygon fill="none" stroke="#0000FF" stroke-width="0" stroke-linecap="round" stroke-linejoin="round" stroke-miterlimit="10" points="
			547.489,413.654 529.548,413.654 529.548,412.897 497.13,412.897 497.13,439.158 547.489,439.158 547.489,434.162 
			548.246,434.162 548.246,420.54 547.489,420.54 		"/>
	</g>
	<g id="LWPOLYLINE_14_">
		
			<polygon fill="none" stroke="#0000FF" stroke-width="0" stroke-linecap="round" stroke-linejoin="round" stroke-miterlimit="10" points="
			497.13,412.897 458.132,412.897 458.132,422.887 451.744,422.887 451.744,436.056 457.678,436.056 457.678,439.158 
			497.13,439.158 		"/>
	</g>
	<g id="LWPOLYLINE_15_">
		
			<polygon fill="none" stroke="#0000FF" stroke-width="0" stroke-linecap="round" stroke-linejoin="round" stroke-miterlimit="10" points="
			448.142,421.886 407.396,421.886 407.396,436.813 448.596,436.813 448.596,436.056 451.744,435.753 451.744,422.887 
			448.142,422.887 		"/>
	</g>
	<g id="LWPOLYLINE_16_">
		
			<rect x="363.049" y="421.886" fill="none" stroke="#0000FF" stroke-width="0" stroke-linecap="round" stroke-linejoin="round" stroke-miterlimit="10" width="44.347" height="14.927"/>
	</g>
	<g id="LWPOLYLINE_17_">
		
			<polygon fill="none" stroke="#0000FF" stroke-width="0" stroke-linecap="round" stroke-linejoin="round" stroke-miterlimit="10" points="
			363.049,421.886 324.174,421.886 324.174,422.887 318.702,422.887 318.702,436.056 323.72,436.056 323.72,436.813 
			363.049,436.813 		"/>
	</g>
	<g id="LWPOLYLINE_18_">
		
			<polygon fill="none" stroke="#0000FF" stroke-width="0" stroke-linecap="round" stroke-linejoin="round" stroke-miterlimit="10" points="
			318.702,422.887 314.184,422.887 314.184,412.897 269.253,412.897 269.253,439.158 314.638,439.158 314.638,436.056 
			318.702,435.753 		"/>
	</g>
	<g id="LWPOLYLINE_19_">
		
			<polygon fill="none" stroke="#0000FF" stroke-width="0" stroke-linecap="round" stroke-linejoin="round" stroke-miterlimit="10" points="
			269.253,412.897 269.253,439.158 219.805,439.158 219.805,434.164 219.048,434.164 219.048,420.541 219.805,420.541 
			219.805,413.654 240.996,413.654 240.996,412.856 		"/>
	</g>
	<g id="LWPOLYLINE_20_">
		
			<polygon fill="none" stroke="#0000FF" stroke-width="0" stroke-linecap="round" stroke-linejoin="round" stroke-miterlimit="10" points="
			219.805,413.654 240.996,413.654 240.996,370.636 221.319,370.636 221.319,374.629 217.535,374.629 217.535,412.216 
			219.805,412.216 		"/>
	</g>
	<g id="LWPOLYLINE_21_">
		
			<polygon fill="none" stroke="#0000FF" stroke-width="0" stroke-linecap="round" stroke-linejoin="round" stroke-miterlimit="10" points="
			221.319,370.636 240.994,370.636 240.994,325.286 220.562,325.286 220.562,367.061 221.319,367.061 		"/>
	</g>
	<g id="LWPOLYLINE_22_">
		
			<polygon fill="none" stroke="#0000FF" stroke-width="0" stroke-linecap="round" stroke-linejoin="round" stroke-miterlimit="10" points="
			244.094,257.592 244.094,217.309 220.562,217.309 220.562,227.048 221.319,227.048 221.319,234.616 220.562,234.616 
			220.562,257.592 		"/>
	</g>
	<g id="LWPOLYLINE_23_">
		
			<polygon fill="none" stroke="#0000FF" stroke-width="0" stroke-linecap="round" stroke-linejoin="round" stroke-miterlimit="10" points="
			244.094,217.309 244.023,180.053 220.562,180.053 220.562,217.309 		"/>
	</g>
	<g id="LWPOLYLINE_24_">
		
			<polygon fill="none" stroke="#0000FF" stroke-width="0" stroke-linecap="round" stroke-linejoin="round" stroke-miterlimit="10" points="
			244.023,180.053 244.023,142.796 220.562,142.796 220.562,152.879 221.319,152.879 221.319,160.447 220.562,160.447 
			220.562,180.053 		"/>
	</g>
	<g id="LWPOLYLINE_25_">
		
			<rect x="220.562" y="105.541" fill="none" stroke="#0000FF" stroke-width="0" stroke-linecap="round" stroke-linejoin="round" stroke-miterlimit="10" width="23.532" height="37.256"/>
	</g>
	<g id="LWPOLYLINE_26_">
		
			<polygon fill="none" stroke="#0000FF" stroke-width="0" stroke-linecap="round" stroke-linejoin="round" stroke-miterlimit="10" points="
			244.094,105.541 244.094,71.142 220.562,71.142 220.562,75.683 221.319,75.683 221.319,83.251 220.562,83.251 220.562,105.541 		
			"/>
	</g>
	<g id="LINE">
		
			<line fill="none" stroke="#0000FF" stroke-width="0" stroke-linecap="round" stroke-linejoin="round" stroke-miterlimit="10" x1="296.395" y1="257.079" x2="297.291" y2="256.171"/>
	</g>
	<g id="LWPOLYLINE_27_">
		
			<rect x="270.469" y="216.646" fill="none" stroke="#0000FF" stroke-width="0" stroke-linecap="round" stroke-linejoin="round" stroke-miterlimit="10" width="26.373" height="39.979"/>
	</g>
	<g id="LWPOLYLINE_28_">
		
			<rect x="270.467" y="256.625" fill="none" stroke="#0000FF" stroke-width="0" stroke-linecap="round" stroke-linejoin="round" stroke-miterlimit="10" width="26.375" height="37.501"/>
	</g>
	<g id="LWPOLYLINE_29_">
		
			<rect x="296.842" y="216.644" fill="none" stroke="#0000FF" stroke-width="0" stroke-linecap="round" stroke-linejoin="round" stroke-miterlimit="10" width="26.377" height="39.981"/>
	</g>
	<g id="LWPOLYLINE_30_">
		
			<polygon fill="none" stroke="#0000FF" stroke-width="0" stroke-linecap="round" stroke-linejoin="round" stroke-miterlimit="10" points="
			287.124,149.952 287.124,193.939 309.059,193.939 309.059,156.158 302.265,156.007 302.265,149.952 		"/>
	</g>
	<g id="LWPOLYLINE_31_">
		
			<rect x="296.842" y="256.625" fill="none" stroke="#0000FF" stroke-width="0" stroke-linecap="round" stroke-linejoin="round" stroke-miterlimit="10" width="26.377" height="37.501"/>
	</g>
	<g id="LWPOLYLINE_32_">
		
			<rect x="270.467" y="294.126" fill="none" stroke="#0000FF" stroke-width="0" stroke-linecap="round" stroke-linejoin="round" stroke-miterlimit="10" width="26.375" height="36.407"/>
	</g>
	<g id="LWPOLYLINE_33_">
		
			<rect x="270.469" y="330.533" fill="none" stroke="#0000FF" stroke-width="0" stroke-linecap="round" stroke-linejoin="round" stroke-miterlimit="10" width="26.373" height="36.954"/>
	</g>
	<g id="LWPOLYLINE_34_">
		
			<polygon fill="none" stroke="#0000FF" stroke-width="0" stroke-linecap="round" stroke-linejoin="round" stroke-miterlimit="10" points="
			323.22,367.356 314.184,367.356 314.184,367.492 296.842,367.492 296.842,330.533 323.22,330.533 		"/>
	</g>
	<g id="LWPOLYLINE_35_">
		
			<polygon fill="none" stroke="#0000FF" stroke-width="0" stroke-linecap="round" stroke-linejoin="round" stroke-miterlimit="10" points="
			296.842,294.126 296.842,330.533 323.22,330.533 323.22,303.162 314.184,303.162 314.184,294.126 		"/>
	</g>
	<g id="LWPOLYLINE_36_">
		
			<polygon fill="none" stroke="#0000FF" stroke-width="0" stroke-linecap="round" stroke-linejoin="round" stroke-miterlimit="10" points="
			270.469,367.487 270.469,390.192 323.22,390.192 323.22,376.393 314.184,376.393 314.184,367.492 		"/>
	</g>
	<g id="LWPOLYLINE_37_">
		
			<polygon fill="none" stroke="#0000FF" stroke-width="0" stroke-linecap="round" stroke-linejoin="round" stroke-miterlimit="10" points="
			369.268,256.628 346.244,256.624 346.244,216.645 369.268,216.646 		"/>
	</g>
	<g id="LWPOLYLINE_38_">
		
			<polygon fill="none" stroke="#0000FF" stroke-width="0" stroke-linecap="round" stroke-linejoin="round" stroke-miterlimit="10" points="
			369.268,256.628 392.291,256.624 392.291,216.645 369.268,216.646 		"/>
	</g>
	<g id="LWPOLYLINE_39_">
		
			<rect x="346.243" y="256.627" fill="none" stroke="#0000FF" stroke-width="0" stroke-linecap="round" stroke-linejoin="round" stroke-miterlimit="10" width="23.024" height="36.954"/>
	</g>
	<g id="LINE_1_">
		
			<line fill="none" stroke="#0000FF" stroke-width="0" stroke-linecap="round" stroke-linejoin="round" stroke-miterlimit="10" x1="368.819" y1="294.037" x2="369.715" y2="293.129"/>
	</g>
	<g id="LWPOLYLINE_40_">
		
			<rect x="369.268" y="256.624" fill="none" stroke="#0000FF" stroke-width="0" stroke-linecap="round" stroke-linejoin="round" stroke-miterlimit="10" width="23.023" height="36.959"/>
	</g>
	<g id="LWPOLYLINE_41_">
		
			<rect x="346.244" y="293.583" fill="none" stroke="#0000FF" stroke-width="0" stroke-linecap="round" stroke-linejoin="round" stroke-miterlimit="10" width="23.024" height="36.957"/>
	</g>
	<g id="LWPOLYLINE_42_">
		
			<rect x="369.268" y="293.583" fill="none" stroke="#0000FF" stroke-width="0" stroke-linecap="round" stroke-linejoin="round" stroke-miterlimit="10" width="23.023" height="36.957"/>
	</g>
	<g id="LWPOLYLINE_43_">
		
			<rect x="346.244" y="330.539" fill="none" stroke="#0000FF" stroke-width="0" stroke-linecap="round" stroke-linejoin="round" stroke-miterlimit="10" width="23.024" height="36.954"/>
	</g>
	<g id="LWPOLYLINE_44_">
		
			<rect x="369.268" y="330.539" fill="none" stroke="#0000FF" stroke-width="0" stroke-linecap="round" stroke-linejoin="round" stroke-miterlimit="10" width="23.023" height="36.954"/>
	</g>
	<g id="LWPOLYLINE_45_">
		
			<rect x="346.244" y="367.493" fill="none" stroke="#0000FF" stroke-width="0" stroke-linecap="round" stroke-linejoin="round" stroke-miterlimit="10" width="46.044" height="22.702"/>
	</g>
	<g id="LWPOLYLINE_46_">
		
			<rect x="415.315" y="216.648" fill="none" stroke="#0000FF" stroke-width="0" stroke-linecap="round" stroke-linejoin="round" stroke-miterlimit="10" width="23.023" height="39.98"/>
	</g>
	<g id="LWPOLYLINE_47_">
		
			<rect x="438.339" y="216.647" fill="none" stroke="#0000FF" stroke-width="0" stroke-linecap="round" stroke-linejoin="round" stroke-miterlimit="10" width="23.024" height="39.981"/>
	</g>
	<g id="LWPOLYLINE_48_">
		
			<rect x="415.315" y="256.628" fill="none" stroke="#0000FF" stroke-width="0" stroke-linecap="round" stroke-linejoin="round" stroke-miterlimit="10" width="23.023" height="37.501"/>
	</g>
	<g id="LWPOLYLINE_49_">
		
			<rect x="415.315" y="294.13" fill="none" stroke="#0000FF" stroke-width="0" stroke-linecap="round" stroke-linejoin="round" stroke-miterlimit="10" width="23.023" height="36.407"/>
	</g>
	<g id="LWPOLYLINE_50_">
		
			<rect x="415.315" y="330.537" fill="none" stroke="#0000FF" stroke-width="0" stroke-linecap="round" stroke-linejoin="round" stroke-miterlimit="10" width="23.023" height="36.954"/>
	</g>
	<g id="LWPOLYLINE_51_">
		
			<rect x="438.339" y="256.625" fill="none" stroke="#0000FF" stroke-width="0" stroke-linecap="round" stroke-linejoin="round" stroke-miterlimit="10" width="23.024" height="37.505"/>
	</g>
	<g id="LWPOLYLINE_52_">
		
			<polygon fill="none" stroke="#0000FF" stroke-width="0" stroke-linecap="round" stroke-linejoin="round" stroke-miterlimit="10" points="
			438.339,330.537 438.339,367.491 447.226,367.496 447.227,367.08 461.363,367.08 461.363,330.542 		"/>
	</g>
	<g id="LWPOLYLINE_53_">
		
			<polygon fill="none" stroke="#0000FF" stroke-width="0" stroke-linecap="round" stroke-linejoin="round" stroke-miterlimit="10" points="
			438.339,294.13 438.339,330.537 461.363,330.542 461.363,294.13 456.262,294.13 456.262,303.162 447.227,303.162 447.227,294.135 
					"/>
	</g>
	<g id="LWPOLYLINE_54_">
		
			<polygon fill="none" stroke="#0000FF" stroke-width="0" stroke-linecap="round" stroke-linejoin="round" stroke-miterlimit="10" points="
			415.315,367.491 415.312,390.195 461.363,390.193 461.363,367.08 456.262,367.08 456.262,376.116 447.227,376.116 
			447.226,367.496 		"/>
	</g>
	<g id="MTEXT_56_">
		<text transform="matrix(1 0 0 1 313.9873 45.9668)" fill="#0000FF" font-family="'ArialMT'" font-size="3.3389">Área= 3.75 m²</text>
	</g>
	<g id="MTEXT_57_">
		<text transform="matrix(1 0 0 1 352.939 45.7314)" fill="#0000FF" font-family="'ArialMT'" font-size="3.3389">Área= 3.82 m²</text>
	</g>
	<g id="MTEXT_58_">
		<text transform="matrix(1 0 0 1 390.8442 45.6699)" fill="#0000FF" font-family="'ArialMT'" font-size="3.3389">Área= 3.82 m²</text>
	</g>
	<g id="MTEXT_59_">
		<text transform="matrix(1 0 0 1 431.7461 45.7021)" fill="#0000FF" font-family="'ArialMT'" font-size="3.3389">Área= 4.48 m²</text>
	</g>
	<g id="MTEXT_60_">
		<text transform="matrix(1 0 0 1 441.4121 79.2148)" fill="#0000FF" font-family="'ArialMT'" font-size="3.3389">Área= 4.48 m²</text>
	</g>
	<g id="MTEXT_61_">
		<text transform="matrix(1 0 0 1 441.5205 127.4961)" fill="#0000FF" font-family="'ArialMT'" font-size="3.3389">Área= 4.70 m²</text>
	</g>
	<g id="MTEXT_62_">
		<text transform="matrix(1 0 0 1 441.2969 174.8945)" fill="#0000FF" font-family="'ArialMT'" font-size="3.3389">Área= 4.09 m²</text>
	</g>
	<g id="MTEXT_63_">
		<text transform="matrix(1 0 0 1 510.7393 177.8018)" fill="#0000FF" font-family="'ArialMT'" font-size="3.3389">Área= 8.98 m²</text>
	</g>
	<g id="MTEXT_64_">
		<text transform="matrix(1 0 0 1 523.6172 251.8838)" fill="#0000FF" font-family="'ArialMT'" font-size="3.3389">Área= 5.70 m²</text>
	</g>
	<g id="MTEXT_65_">
		<text transform="matrix(1 0 0 1 523.6211 286.5576)" fill="#0000FF" font-family="'ArialMT'" font-size="3.3389">Área= 5.90 m²</text>
	</g>
	<g id="MTEXT_66_">
		<text transform="matrix(1 0 0 1 528.5859 324.0986)" fill="#0000FF" font-family="'ArialMT'" font-size="3.3389">Área= 4.85 m²</text>
	</g>
	<g id="MTEXT_67_">
		<text transform="matrix(1 0 0 1 530.6719 362.0645)" fill="#0000FF" font-family="'ArialMT'" font-size="3.3389">Área= 3.50 m²</text>
	</g>
	<g id="MTEXT_68_">
		<text transform="matrix(1 0 0 1 530.6172 397.3574)" fill="#0000FF" font-family="'ArialMT'" font-size="3.3389">Área= 3.45 m²</text>
	</g>
	<g id="MTEXT_69_">
		<text transform="matrix(1 0 0 1 513.5547 431.498)" fill="#0000FF" font-family="'ArialMT'" font-size="3.3389">Área= 5.75 m²</text>
	</g>
	<g id="MTEXT_70_">
		<text transform="matrix(1 0 0 1 468.707 431.8184)" fill="#0000FF" font-family="'ArialMT'" font-size="3.3389">Área= 4.84 m²</text>
	</g>
	<g id="MTEXT_71_">
		<text transform="matrix(1 0 0 1 420.6758 432.6904)" fill="#0000FF" font-family="'ArialMT'" font-size="3.3389">Área= 2.86 m²</text>
	</g>
	<g id="MTEXT_72_">
		<text transform="matrix(1 0 0 1 375.4004 432.7197)" fill="#0000FF" font-family="'ArialMT'" font-size="3.3389">Área= 2.89 m²</text>
	</g>
	<g id="MTEXT_73_">
		<text transform="matrix(1 0 0 1 331.3989 433.1533)" fill="#0000FF" font-family="'ArialMT'" font-size="3.3389">Área= 2.85 m²</text>
	</g>
	<g id="MTEXT_74_">
		<text transform="matrix(1 0 0 1 282.3462 429.3125)" fill="#0000FF" font-family="'ArialMT'" font-size="3.3389">Área= 5.41 m²</text>
	</g>
	<g id="MTEXT_75_">
		<text transform="matrix(1 0 0 1 235.2471 430.4541)" fill="#0000FF" font-family="'ArialMT'" font-size="3.3389">Área= 5.64 m²</text>
	</g>
	<g id="MTEXT_76_">
		<text transform="matrix(1 0 0 1 218.8335 395.0908)" fill="#0000FF" font-family="'ArialMT'" font-size="3.3389">Área= 4.32 m²</text>
	</g>
	<g id="MTEXT_77_">
		<text transform="matrix(1 0 0 1 220.7388 350.2129)" fill="#0000FF" font-family="'ArialMT'" font-size="3.3389">Área= 4.03 m²</text>
	</g>
	<g id="MTEXT_78_">
		<text transform="matrix(1 0 0 1 222.6113 241.4492)" fill="#0000FF" font-family="'ArialMT'" font-size="3.3389">Área= 4.11 m²</text>
	</g>
	<g id="MTEXT_79_">
		<text transform="matrix(1 0 0 1 222.4336 200.0537)" fill="#0000FF" font-family="'ArialMT'" font-size="3.3389">Área= 3.82 m²</text>
	</g>
	<g id="MTEXT_80_">
		<text transform="matrix(1 0 0 1 222.5771 165.084)" fill="#0000FF" font-family="'ArialMT'" font-size="3.3389">Área= 3.79 m²</text>
	</g>
	<g id="MTEXT_81_">
		<text transform="matrix(1 0 0 1 222.3618 127.0596)" fill="#0000FF" font-family="'ArialMT'" font-size="3.3389">Área= 3.82 m²</text>
	</g>
	<g id="MTEXT_82_">
		<text transform="matrix(1 0 0 1 222.8726 94.2061)" fill="#0000FF" font-family="'ArialMT'" font-size="3.3389">Área= 3.50 m²</text>
	</g>
	<g id="MTEXT_83_">
		<text transform="matrix(1 0 0 1 287.8477 175.9746)" fill="#0000FF" font-family="'ArialMT'" font-size="3.3389">Área= 4.03 m²</text>
	</g>
	<g id="MTEXT_84_">
		<text transform="matrix(1 0 0 1 273.6021 240.4473)" fill="#0000FF" font-family="'ArialMT'" font-size="3.3389">Área= 4.60 m²</text>
	</g>
	<g id="MTEXT_85_">
		<text transform="matrix(1 0 0 1 299.666 240.5098)" fill="#0000FF" font-family="'ArialMT'" font-size="3.3389">Área= 4.60 m²</text>
	</g>
	<g id="MTEXT_86_">
		<text transform="matrix(1 0 0 1 300.1543 279.707)" fill="#0000FF" font-family="'ArialMT'" font-size="3.3389">Área= 4.31 m²</text>
	</g>
	<g id="MTEXT_87_">
		<text transform="matrix(1 0 0 1 274.0303 280.1436)" fill="#0000FF" font-family="'ArialMT'" font-size="3.3389">Área= 4.31 m²</text>
	</g>
	<g id="MTEXT_88_">
		<text transform="matrix(1 0 0 1 273.4814 316.1357)" fill="#0000FF" font-family="'ArialMT'" font-size="3.3389">Área= 4.19 m²</text>
	</g>
	<g id="MTEXT_89_">
		<text transform="matrix(1 0 0 1 300.459 316.2178)" fill="#0000FF" font-family="'ArialMT'" font-size="3.3389">Área= 3.83 m²</text>
	</g>
	<g id="MTEXT_90_">
		<text transform="matrix(1 0 0 1 347.7505 279.8018)" fill="#0000FF" font-family="'ArialMT'" font-size="3.3389">Área= 3.71 m²</text>
	</g>
	<g id="MTEXT_91_">
		<text transform="matrix(1 0 0 1 347.3955 240.1973)" fill="#0000FF" font-family="'ArialMT'" font-size="3.3389">Área= 4.02 m²</text>
	</g>
	<g id="MTEXT_92_">
		<text transform="matrix(1 0 0 1 370.2349 240.0518)" fill="#0000FF" font-family="'ArialMT'" font-size="3.3389">Área= 4.02 m²</text>
	</g>
	<g id="MTEXT_93_">
		<text transform="matrix(1 0 0 1 370.8076 279.6875)" fill="#0000FF" font-family="'ArialMT'" font-size="3.3389">Área= 3.71 m²</text>
	</g>
	<g id="MTEXT_94_">
		<text transform="matrix(1 0 0 1 347.6265 315.584)" fill="#0000FF" font-family="'ArialMT'" font-size="3.3389">Área= 3.71 m²</text>
	</g>
	<g id="MTEXT_95_">
		<text transform="matrix(1 0 0 1 370.4702 315.5225)" fill="#0000FF" font-family="'ArialMT'" font-size="3.3389">Área= 3.71 m²</text>
	</g>
	<g id="MTEXT_96_">
		<text transform="matrix(1 0 0 1 370.7813 351.0244)" fill="#0000FF" font-family="'ArialMT'" font-size="3.3389">Área= 3.71 m²</text>
	</g>
	<g id="MTEXT_97_">
		<text transform="matrix(1 0 0 1 347.751 351.1982)" fill="#0000FF" font-family="'ArialMT'" font-size="3.3389">Área= 3.71 m²</text>
	</g>
	<g id="MTEXT_98_">
		<text transform="matrix(1 0 0 1 299.5474 351.2314)" fill="#0000FF" font-family="'ArialMT'" font-size="3.3389">Área= 4.25 m²</text>
	</g>
	<g id="MTEXT_99_">
		<text transform="matrix(1 0 0 1 273.9194 350.9111)" fill="#0000FF" font-family="'ArialMT'" font-size="3.3389">Área= 4.25 m²</text>
	</g>
	<g id="MTEXT_100_">
		<text transform="matrix(1 0 0 1 282.4658 381.1152)" fill="#0000FF" font-family="'ArialMT'" font-size="3.3389">Área= 4.87 m²</text>
	</g>
	<g id="MTEXT_101_">
		<text transform="matrix(1 0 0 1 359.7344 381.1416)" fill="#0000FF" font-family="'ArialMT'" font-size="3.3389">Área= 4.56 m²</text>
	</g>
	<g id="MTEXT_102_">
		<text transform="matrix(1 0 0 1 416.584 240.3486)" fill="#0000FF" font-family="'ArialMT'" font-size="3.3389">Área= 4.02 m²</text>
	</g>
	<g id="MTEXT_103_">
		<text transform="matrix(1 0 0 1 439.4209 240.249)" fill="#0000FF" font-family="'ArialMT'" font-size="3.3389">Área= 4.02 m²</text>
	</g>
	<g id="MTEXT_104_">
		<text transform="matrix(1 0 0 1 416.6299 279.7871)" fill="#0000FF" font-family="'ArialMT'" font-size="3.3389">Área= 3.77 m²</text>
	</g>
	<g id="MTEXT_105_">
		<text transform="matrix(1 0 0 1 439.6348 279.7588)" fill="#0000FF" font-family="'ArialMT'" font-size="3.3389">Área= 3.77 m²</text>
	</g>
	<g id="MTEXT_106_">
		<text transform="matrix(1 0 0 1 416.7861 316.1055)" fill="#0000FF" font-family="'ArialMT'" font-size="3.3389">Área= 3.66 m²</text>
	</g>
	<g id="MTEXT_107_">
		<text transform="matrix(1 0 0 1 439.5459 316.166)" fill="#0000FF" font-family="'ArialMT'" font-size="3.3389">Área= 3.30 m²</text>
	</g>
	<g id="MTEXT_108_">
		<text transform="matrix(1 0 0 1 416.915 350.9268)" fill="#0000FF" font-family="'ArialMT'" font-size="3.3389">Área= 3.71 m²</text>
	</g>
	<g id="MTEXT_109_">
		<text transform="matrix(1 0 0 1 439.709 351.1758)" fill="#0000FF" font-family="'ArialMT'" font-size="3.3389">Área= 3.69 m²</text>
	</g>
	<g id="MTEXT_110_">
		<text transform="matrix(1 0 0 1 425.7588 381.2627)" fill="#0000FF" font-family="'ArialMT'" font-size="3.3389">Área= 4.23 m²</text>
	</g>
	<g id="MTEXT_111_">
		<text transform="matrix(1 0 0 1 224.1753 90.3877)" fill="#0000FF" font-family="'ArialMT'" font-size="4.2137">Local 202</text>
	</g>
</g>
<g id="AREAS_COMUNES">
	<g id="LWPOLYLINE_56_">
		
			<polygon fill="none" stroke="#7FFF00" stroke-width="0" stroke-linecap="round" stroke-linejoin="round" stroke-miterlimit="10" points="
			221.319,71.898 221.319,9.082 302.299,9.082 302.293,72.682 261.833,72.682 261.833,71.898 		"/>
	</g>
	<g id="MTEXT_112_">
		<text transform="matrix(1 0 0 1 251.2744 43.1719)" fill="#7FFF00" font-family="'CenturyGothic'" font-size="6.6779">Escalera</text>
	</g>
	<g id="LWPOLYLINE_57_">
		
			<rect x="312.895" y="9.082" fill="none" stroke="#7FFF00" stroke-width="0" stroke-linecap="round" stroke-linejoin="round" stroke-miterlimit="10" width="149.71" height="21.479"/>
	</g>
	<g id="LWPOLYLINE_58_">
		
			<polygon fill="none" stroke="#7FFF00" stroke-width="0" stroke-linecap="round" stroke-linejoin="round" stroke-miterlimit="10" points="
			547.489,140.156 462.605,140.156 462.605,9.082 471.688,9.082 471.828,3.027 545.976,3.027 545.976,9.082 550.517,9.082 
			550.517,76.439 545.976,76.439 545.976,84.008 547.489,84.008 		"/>
	</g>
	<g id="LWPOLYLINE_59_">
		
			<polygon fill="none" stroke="#7FFF00" stroke-width="0" stroke-linecap="round" stroke-linejoin="round" stroke-miterlimit="10" points="
			244.023,216.644 439.997,216.644 439.997,53.732 302.293,53.733 302.293,72.682 244.023,72.682 		"/>
	</g>
	<g id="LWPOLYLINE_60_">
		
			<polygon fill="none" stroke="#7FFF00" stroke-width="0" stroke-linecap="round" stroke-linejoin="round" stroke-miterlimit="10" points="
			461.293,224.914 468.861,224.914 468.861,234.753 461.294,234.753 461.294,413.539 529.478,413.539 529.478,340.615 
			514.573,307.064 514.573,217.286 461.293,217.286 		"/>
	</g>
	<g id="MTEXT_113_">
		<text transform="matrix(1 0 0 1 323.7837 114.5986)" fill="#7FFF00" font-family="'CenturyGothic'" font-size="6.6779">Área de mesas</text>
		<text transform="matrix(1 0 0 1 327.3506 122.5576)" fill="#7FFF00" font-family="'CenturyGothic'" font-size="6.6779">y circulación</text>
	</g>
	<g id="MTEXT_114_">
		<text transform="matrix(1 0 0 1 502.126 66.4971)" fill="#7FFF00" font-family="'CenturyGothic'" font-size="6.6779">Baños</text>
	</g>
	<g id="MTEXT_115_">
		<text transform="matrix(1 0 0 1 468.834 324.2178)" fill="#7FFF00" font-family="'CenturyGothic'" font-size="6.6779">Área de mesas</text>
		<text transform="matrix(1 0 0 1 472.4014 332.1768)" fill="#7FFF00" font-family="'CenturyGothic'" font-size="6.6779">y circulación</text>
	</g>
	<g id="LWPOLYLINE_61_">
		
			<rect x="221.249" y="218.063" fill="none" stroke="#7FFF00" stroke-width="0" stroke-linecap="round" stroke-linejoin="round" stroke-miterlimit="10" width="22.775" height="84.668"/>
	</g>
	<g id="MTEXT_116_">
		<text transform="matrix(1 0 0 1 219.5845 279.9932)" fill="#7FFF00" font-family="'CenturyGothic'" font-size="6.6779">Escalera</text>
	</g>
	<g id="LWPOLYLINE_62_">
		
			<rect x="524.973" y="195.115" fill="none" stroke="#7FFF00" stroke-width="0.3784" stroke-linecap="round" stroke-linejoin="round" stroke-miterlimit="10" width="21.797" height="31.333"/>
	</g>
	<g id="MTEXT_117_">
		<text transform="matrix(1 0 0 1 523.9658 210.8027)" fill="#7FFF00" font-family="'Arial-BoldMT'" font-size="4.6308">ELEVADOR</text>
	</g>
</g>
</svg>
