<?xml version="1.0" encoding="utf-8"?>
<!-- Generator: Adobe Illustrator 16.0.0, SVG Export Plug-In . SVG Version: 6.00 Build 0)  -->
<!DOCTYPE svg PUBLIC "-//W3C//DTD SVG 1.1//EN" "http://www.w3.org/Graphics/SVG/1.1/DTD/svg11.dtd">
<svg version="1.1" xmlns="http://www.w3.org/2000/svg" xmlns:xlink="http://www.w3.org/1999/xlink" x="0px" y="0px" width="800px"
	 height="600px" viewBox="0 0 800 600" enable-background="new 0 0 800 600" xml:space="preserve">
<g id="_x30_">
	<g id="MTEXT">
		<text transform="matrix(1 0 0 1 310.4004 469.0254)" font-family="'Arial-BoldMT'" font-size="18.5409">PLANTA DE SOTANO - BAZAR</text>
	</g>
	<g id="MTEXT_1_">
		<text transform="matrix(1 0 0 1 446.8125 493.5332)" font-family="'Arial-BoldMT'" font-size="18.5409">Arquitectónico</text>
	</g>
</g>
<g id="AREAS_COMUNES">
	<g id="MTEXT_2_">
		<text transform="matrix(1 0 0 1 533.2168 106.5547)" fill="#7FFF00" font-family="'ArialMT'" font-size="4.4894">Sanitarios </text>
		<text transform="matrix(1 0 0 1 540.3457 111.6426)" fill="#7FFF00" font-family="'ArialMT'" font-size="4.4894">de </text>
		<text transform="matrix(1 0 0 1 535.7256 116.7305)" fill="#7FFF00" font-family="'ArialMT'" font-size="4.4894">Mujeres</text>
	</g>
	<g id="MTEXT_3_">
		<text transform="matrix(1 0 0 1 419.7715 22.1426)" fill="#7FFF00" font-family="'ArialMT'" font-size="4.4894">Cisterna</text>
	</g>
	<g id="MTEXT_4_">
		<text transform="matrix(1 0 0 1 494.4805 376.8232)" fill="#7FFF00" font-family="'ArialMT'" font-size="4.4894">Subestación </text>
		<text transform="matrix(1 0 0 1 498.6475 381.9268)" fill="#7FFF00" font-family="'ArialMT'" font-size="4.4894">Eléctrica</text>
	</g>
	<g id="MTEXT_5_">
		<text transform="matrix(1 0 0 1 500.1973 267.4717)" fill="#7FFF00" font-family="'ArialMT'" font-size="4.4894">Concentración de </text>
		<text transform="matrix(1 0 0 1 507.5723 272.5596)" fill="#7FFF00" font-family="'ArialMT'" font-size="4.4894">Medidores</text>
	</g>
	<g id="MTEXT_6_">
		<text transform="matrix(1 0 0 1 526.8418 50.7979)" fill="#7FFF00" font-family="'ArialMT'" font-size="4.4894">Sanitarios </text>
		<text transform="matrix(1 0 0 1 533.9707 55.8857)" fill="#7FFF00" font-family="'ArialMT'" font-size="4.4894">de </text>
		<text transform="matrix(1 0 0 1 527.5986 60.9736)" fill="#7FFF00" font-family="'ArialMT'" font-size="4.4894">Hombres </text>
	</g>
	<g id="MTEXT_7_">
		<text transform="matrix(1 0 0 1 501.1211 308.8594)" fill="#7FFF00" font-family="'ArialMT'" font-size="4.4894">Cuarto de </text>
		<text transform="matrix(1 0 0 1 502.585 313.9473)" fill="#7FFF00" font-family="'ArialMT'" font-size="4.4894">Limpieza</text>
	</g>
	<g id="MTEXT_8_">
		<text transform="matrix(1 0 0 1 360.4624 331.9131)" fill="#7FFF00" font-family="'ArialMT'" font-size="4.4894">Cisterna</text>
	</g>
	<g id="MTEXT_9_">
		
			<text transform="matrix(-1.836970e-016 1 -1 -1.836970e-016 487.8125 193.9268)" fill="#7FFF00" font-family="'ArialMT'" font-size="4.4894">Concentración de </text>
		
			<text transform="matrix(-1.836970e-016 1 -1 -1.836970e-016 482.7266 201.3008)" fill="#7FFF00" font-family="'ArialMT'" font-size="4.4894">Medidores</text>
	</g>
	<g id="MTEXT_10_">
		<text transform="matrix(1 0 0 1 357.3311 401.6328)" fill="#7FFF00" font-family="'ArialMT'" font-size="4.4894">Equipo RCI</text>
	</g>
	<g id="MTEXT_11_">
		<text transform="matrix(1 0 0 1 325.8232 16.9121)" fill="#7FFF00" font-family="'ArialMT'" font-size="4.4894">Cárcamo</text>
	</g>
	<g id="MTEXT_12_">
		<text transform="matrix(1 0 0 1 348.7124 23.4131)" fill="#7FFF00" font-family="'ArialMT'" font-size="4.4894">Lavaderos</text>
	</g>
	<g id="MTEXT_13_">
		<text transform="matrix(1 0 0 1 497.0381 160.6309)" fill="#7FFF00" font-family="'ArialMT'" font-size="2.2447">Tableros Eléctricos</text>
	</g>
	<g id="MTEXT_14_">
		<text transform="matrix(1 0 0 1 553.293 211.2275)" fill="#7FFF00" font-family="'ArialMT'" font-size="4.4894">Cubo </text>
		<text transform="matrix(1 0 0 1 550.4795 216.3154)" fill="#7FFF00" font-family="'ArialMT'" font-size="4.4894">Elevador</text>
	</g>
	<g id="MTEXT_38_">
		<text transform="matrix(1 0 0 1 514.4775 210.9531)" fill="#7FFF00" font-family="'ArialMT'" font-size="4.4894">Cuarto de </text>
	</g>
	<g id="MTEXT_39_">
		<text transform="matrix(1 0 0 1 517.7168 215.3545)" fill="#7FFF00" font-family="'ArialMT'" font-size="4.4894">Basura</text>
	</g>
	<g id="MTEXT_40_">
		<text transform="matrix(1 0 0 1 391.4956 140.501)" fill="#7FFF00" font-family="'CenturyGothic'" font-size="4.4894">Escalera</text>
	</g>
	<g id="MTEXT_41_">
		<text transform="matrix(1 0 0 1 405.416 335.918)" fill="#7FFF00" font-family="'ArialMT'" font-size="4.4894">Administración</text>
	</g>
	<g id="MTEXT_43_">
		<text transform="matrix(1 0 0 1 400.3916 379.5225)" fill="#7FFF00" font-family="'ArialMT'" font-size="4.4894">Archivo</text>
	</g>
	<g id="MTEXT_44_">
		
			<text transform="matrix(-1.836970e-016 1 -1 -1.836970e-016 413.9434 340.5977)" fill="#7FFF00" font-family="'ArialMT'" font-size="4.4894">Gerencia</text>
	</g>
	<g id="MTEXT_46_">
		<text transform="matrix(1 0 0 1 513.4795 175.0693)" fill="#7FFF00" font-family="'ArialMT'" font-size="4.4894">Bodega de </text>
	</g>
	<g id="MTEXT_47_">
		<text transform="matrix(1 0 0 1 519.1289 179.917)" fill="#7FFF00" font-family="'ArialMT'" font-size="4.4894">Plaza</text>
	</g>
	<g id="LWPOLYLINE_26_">
		
			<polygon fill="none" stroke="#7FFF00" stroke-width="0" stroke-linecap="round" stroke-linejoin="round" stroke-miterlimit="10" points="
			399.628,106.154 399.628,124.471 387.265,124.471 387.265,157.126 411.992,157.126 411.992,106.154 		"/>
	</g>
	<g id="LWPOLYLINE_27_">
		
			<rect x="494.879" y="15.372" fill="none" stroke="#7FFF00" stroke-width="0" stroke-linecap="round" stroke-linejoin="round" stroke-miterlimit="10" width="78.984" height="141.082"/>
	</g>
	<g id="LWPOLYLINE_29_">
		
			<rect x="462.963" y="324.074" fill="none" stroke="#7FFF00" stroke-width="0" stroke-linecap="round" stroke-linejoin="round" stroke-miterlimit="10" width="80.135" height="100.03"/>
	</g>
	<g id="LWPOLYLINE_30_">
		
			<polygon fill="none" stroke="#7FFF00" stroke-width="0" stroke-linecap="round" stroke-linejoin="round" stroke-miterlimit="10" points="
			466.092,189.576 502.828,189.576 502.828,241.626 486.938,241.626 486.938,237.962 476.624,237.962 476.624,229.491 
			466.092,229.491 		"/>
	</g>
	<g id="LWPOLYLINE_31_">
		
			<rect x="502.828" y="192.324" fill="none" stroke="#7FFF00" stroke-width="0" stroke-linecap="round" stroke-linejoin="round" stroke-miterlimit="10" width="37.347" height="49.302"/>
	</g>
	<g id="LWPOLYLINE_32_">
		
			<rect x="540.175" y="192.629" fill="none" stroke="#7FFF00" stroke-width="0" stroke-linecap="round" stroke-linejoin="round" stroke-miterlimit="10" width="33.069" height="48.997"/>
	</g>
	<g id="LWPOLYLINE_33_">
		
			<polygon fill="none" stroke="#7FFF00" stroke-width="0" stroke-linecap="round" stroke-linejoin="round" stroke-miterlimit="10" points="
			237.274,25.669 237.274,3.079 301.47,3.079 301.47,38.491 282.696,38.491 282.696,21.396 255.591,21.396 255.591,25.669 		"/>
	</g>
	<g id="MTEXT_62_">
		<text transform="matrix(1 0 0 1 260.3994 13.5723)" fill="#7FFF00" font-family="'CenturyGothic'" font-size="4.4894">Escalera</text>
	</g>
	<g id="LWPOLYLINE_34_">
		
			<rect x="302.773" y="0.446" fill="none" stroke="#7FFF00" stroke-width="0" stroke-linecap="round" stroke-linejoin="round" stroke-miterlimit="10" width="81.468" height="44.887"/>
	</g>
	<g id="LWPOLYLINE_35_">
		
			<polygon fill="none" stroke="#7FFF00" stroke-width="0" stroke-linecap="round" stroke-linejoin="round" stroke-miterlimit="10" points="
			436.786,300.479 389.086,300.479 389.086,387.093 452.354,387.093 452.354,326.874 436.787,326.874 		"/>
	</g>
	<g id="LWPOLYLINE_36_">
		
			<polygon fill="none" stroke="#7FFF00" stroke-width="0" stroke-linecap="round" stroke-linejoin="round" stroke-miterlimit="10" points="
			449.95,229.491 450.523,299.17 573.244,299.17 573.244,241.626 486.938,241.626 486.938,237.962 476.624,237.962 476.624,229.491 
					"/>
	</g>
</g>
<g id="AREA__x28_POLILINEA_x29_">
	<g id="MTEXT_15_">
		<text transform="matrix(1 0 0 1 437.4766 169.0068)" fill="#0000FF" font-family="'ArialMT'" font-size="3.367">LOCAL 15 1/2  ALTURA</text>
	</g>
	<g id="MTEXT_16_">
		<text transform="matrix(1 0 0 1 350.1309 164.6201)" fill="#0000FF" font-family="'ArialMT'" font-size="3.367">LOCAL  11 </text>
		<text transform="matrix(1 0 0 1 349.0063 168.4727)" fill="#0000FF" font-family="'ArialMT'" font-size="3.367">1/2  ALTURA</text>
	</g>
	<g id="MTEXT_17_">
		<text transform="matrix(1 0 0 1 292.0991 170.0215)" fill="#0000FF" font-family="'ArialMT'" font-size="3.367">LOCAL 9 1/2  ALTURA</text>
	</g>
	<g id="MTEXT_18_">
		<text transform="matrix(1 0 0 1 234.3774 140.1152)" fill="#0000FF" font-family="'ArialMT'" font-size="3.367">LOCAL 17</text>
		<text transform="matrix(1 0 0 1 230.9146 144.5078)" fill="#0000FF" font-family="'ArialMT'" font-size="3.367">Área= 3.92 m2 </text>
	</g>
	<g id="MTEXT_19_">
		<text transform="matrix(1 0 0 1 236.0796 179.5498)" fill="#0000FF" font-family="'ArialMT'" font-size="3.367">LOCAL 18</text>
		<text transform="matrix(1 0 0 1 232.6201 183.9424)" fill="#0000FF" font-family="'ArialMT'" font-size="3.367">Área= 3.61 m2 </text>
	</g>
	<g id="MTEXT_20_">
		<text transform="matrix(1 0 0 1 234.4502 213.8301)" fill="#0000FF" font-family="'ArialMT'" font-size="3.367">LOCAL 19</text>
		<text transform="matrix(1 0 0 1 230.9907 218.2227)" fill="#0000FF" font-family="'ArialMT'" font-size="3.367">Área= 3.62 m2 </text>
	</g>
	<g id="MTEXT_21_">
		<text transform="matrix(1 0 0 1 234.2383 255.999)" fill="#0000FF" font-family="'ArialMT'" font-size="3.367">LOCAL 20</text>
		<text transform="matrix(1 0 0 1 230.7715 260.3916)" fill="#0000FF" font-family="'ArialMT'" font-size="3.367">Área= 3.58 m2 </text>
	</g>
	<g id="MTEXT_22_">
		<text transform="matrix(1 0 0 1 235.5596 291.0615)" fill="#0000FF" font-family="'ArialMT'" font-size="3.367">LOCAL 22</text>
		<text transform="matrix(1 0 0 1 232.0854 295.4551)" fill="#0000FF" font-family="'ArialMT'" font-size="3.367">Área= 3.58 m2 </text>
	</g>
	<g id="MTEXT_23_">
		<text transform="matrix(1 0 0 1 233.3203 338.8672)" fill="#0000FF" font-family="'ArialMT'" font-size="3.367">LOCAL 24</text>
		<text transform="matrix(1 0 0 1 230.2979 343.2598)" fill="#0000FF" font-family="'ArialMT'" font-size="3.367">Área= 3.54m2 </text>
	</g>
	<g id="MTEXT_24_">
		<text transform="matrix(1 0 0 1 233.5986 383.9531)" fill="#0000FF" font-family="'ArialMT'" font-size="3.367">LOCAL 26</text>
		<text transform="matrix(1 0 0 1 230.1367 388.3457)" fill="#0000FF" font-family="'ArialMT'" font-size="3.367">Área= 4.38 m2 </text>
	</g>
	<g id="MTEXT_25_">
		<text transform="matrix(1 0 0 1 269.2505 405.6367)" fill="#0000FF" font-family="'ArialMT'" font-size="3.367">LOCAL 28</text>
		<text transform="matrix(1 0 0 1 265.791 410.0303)" fill="#0000FF" font-family="'ArialMT'" font-size="3.367">Área= 3.82 m2 </text>
	</g>
	<g id="MTEXT_26_">
		<text transform="matrix(1 0 0 1 319.4893 397.6514)" fill="#0000FF" font-family="'ArialMT'" font-size="3.367">LOCAL 29</text>
		<text transform="matrix(1 0 0 1 316.0298 402.0449)" fill="#0000FF" font-family="'ArialMT'" font-size="3.367">Área= 7.25 m2 </text>
	</g>
	<g id="MTEXT_27_">
		<text transform="matrix(1 0 0 1 322.5068 352.584)" fill="#0000FF" font-family="'ArialMT'" font-size="3.367">LOCAL 27</text>
		<text transform="matrix(1 0 0 1 319.0439 356.9766)" fill="#0000FF" font-family="'ArialMT'" font-size="3.367">Área= 4.46 m2 </text>
	</g>
	<g id="MTEXT_28_">
		<text transform="matrix(1 0 0 1 322.168 318.4902)" fill="#0000FF" font-family="'ArialMT'" font-size="3.367">LOCAL 25</text>
		<text transform="matrix(1 0 0 1 318.7144 322.8828)" fill="#0000FF" font-family="'ArialMT'" font-size="3.367">Área= 4.46 m2 </text>
	</g>
	<g id="MTEXT_29_">
		<text transform="matrix(1 0 0 1 321.0757 281.5547)" fill="#0000FF" font-family="'ArialMT'" font-size="3.367">LOCAL 23</text>
		<text transform="matrix(1 0 0 1 317.6138 285.9482)" fill="#0000FF" font-family="'ArialMT'" font-size="3.367">Área= 4.05 m2 </text>
	</g>
	<g id="MTEXT_30_">
		<text transform="matrix(1 0 0 1 322.3828 250.957)" fill="#0000FF" font-family="'ArialMT'" font-size="3.367">LOCAL 21</text>
		<text transform="matrix(1 0 0 1 318.7002 255.3496)" fill="#0000FF" font-family="'ArialMT'" font-size="3.367">Área= 4.95 m2 </text>
	</g>
	<g id="MTEXT_31_">
		<text transform="matrix(1 0 0 1 353.355 250.6289)" fill="#0000FF" font-family="'ArialMT'" font-size="3.367">LOCAL 10</text>
		<text transform="matrix(1 0 0 1 349.8887 255.0215)" fill="#0000FF" font-family="'ArialMT'" font-size="3.367">Área= 6.53 m2 </text>
	</g>
	<g id="MTEXT_32_">
		<text transform="matrix(1 0 0 1 369.2559 63.4043)" fill="#0000FF" font-family="'ArialMT'" font-size="3.367">Site </text>
	</g>
	<g id="MTEXT_33_">
		<text transform="matrix(1 0 0 1 364.5244 65.7119)" fill="#0000FF" font-family="'ArialMT'" font-size="2.2447">ubicación actual </text>
	</g>
	<g id="MTEXT_34_">
		<text transform="matrix(1 0 0 1 431.5957 144.335)" fill="#0000FF" font-family="'ArialMT'" font-size="3.367">LOCAL 7 1/2  </text>
		<text transform="matrix(1 0 0 1 435.5342 148.1504)" fill="#0000FF" font-family="'ArialMT'" font-size="3.367">ALTURA</text>
	</g>
	<g id="MTEXT_35_">
		<text transform="matrix(1 0 0 1 352.5161 143.4961)" fill="#0000FF" font-family="'ArialMT'" font-size="3.367">LOCAL 5</text>
		<text transform="matrix(1 0 0 1 349.5513 147.3486)" fill="#0000FF" font-family="'ArialMT'" font-size="3.367">1/2  ALTURA</text>
	</g>
	<g id="MTEXT_36_">
		<text transform="matrix(1 0 0 1 303.4873 143.2637)" fill="#0000FF" font-family="'ArialMT'" font-size="3.367">LOCAL 3</text>
		<text transform="matrix(1 0 0 1 300.5146 147.1162)" fill="#0000FF" font-family="'ArialMT'" font-size="3.367">1/2  ALTURA</text>
	</g>
	<g id="MTEXT_37_">
		<text transform="matrix(1 0 0 1 329.813 379.3115)" fill="#0000FF" font-family="'ArialMT'" font-size="2.2447">Dado</text>
	</g>
	<g id="MTEXT_42_">
		<text transform="matrix(1 0 0 1 383.6841 250.6289)" fill="#0000FF" font-family="'ArialMT'" font-size="3.367">LOCAL 12</text>
		<text transform="matrix(1 0 0 1 380.21 255.0215)" fill="#0000FF" font-family="'ArialMT'" font-size="3.367">Área= 7.90 m2 </text>
	</g>
	<g id="MTEXT_45_">
		<text transform="matrix(1 0 0 1 411.665 250.6289)" fill="#0000FF" font-family="'ArialMT'" font-size="3.367">LOCAL 14</text>
		<text transform="matrix(1 0 0 1 408.1982 255.0215)" fill="#0000FF" font-family="'ArialMT'" font-size="3.367">Área= 9.13 m2 </text>
	</g>
	<g id="LWPOLYLINE">
		
			<polyline fill="none" stroke="#0000FF" stroke-width="0" stroke-linecap="round" stroke-linejoin="round" stroke-miterlimit="10" points="
			346.042,227.965 373.45,227.965 373.45,231.018 374.976,231.018 374.972,278.717 344.481,278.717 344.514,231.018 
			346.042,231.018 346.042,227.965 		"/>
	</g>
	<g id="LWPOLYLINE_1_">
		
			<polygon fill="none" stroke="#0000FF" stroke-width="0" stroke-linecap="round" stroke-linejoin="round" stroke-miterlimit="10" points="
			282.927,81.661 285.979,81.661 285.979,84.714 305.059,84.714 305.059,81.661 305.822,81.661 305.822,45.333 285.979,45.333 
			285.979,47.623 282.927,47.623 		"/>
	</g>
	<g id="LWPOLYLINE_2_">
		
			<polyline fill="none" stroke="#0000FF" stroke-width="0" stroke-linecap="round" stroke-linejoin="round" stroke-miterlimit="10" points="
			305.822,45.333 305.822,81.661 308.112,81.661 308.112,83.951 314.065,83.951 314.065,76.625 324.139,76.625 324.139,81.661 
			327.192,81.661 327.192,84.714 358.253,84.714 358.252,45.331 305.822,45.333 		"/>
	</g>
	<g id="LWPOLYLINE_3_">
		
			<polygon fill="none" stroke="#0000FF" stroke-width="0" stroke-linecap="round" stroke-linejoin="round" stroke-miterlimit="10" points="
			385.347,45.333 385.347,81.661 387.636,81.661 387.636,84.714 430.375,84.706 430.375,81.653 431.901,81.653 431.901,45.333 		"/>
	</g>
	<g id="LWPOLYLINE_4_">
		
			<polygon fill="none" stroke="#0000FF" stroke-width="0" stroke-linecap="round" stroke-linejoin="round" stroke-miterlimit="10" points="
			431.901,45.333 431.901,81.653 433.428,81.653 433.428,84.706 472.809,84.706 472.809,81.653 475.861,81.661 475.861,76.625 
			478.456,76.625 478.456,45.333 		"/>
	</g>
	<g id="LWPOLYLINE_5_">
		
			<polygon fill="none" stroke="#0000FF" stroke-width="0" stroke-linecap="round" stroke-linejoin="round" stroke-miterlimit="10" points="
			225.229,120.584 253.315,120.584 253.315,122.11 256.368,122.11 256.368,159.23 253.315,159.23 253.315,160.756 232.853,160.756 
			232.861,155.691 225.229,155.691 		"/>
	</g>
	<g id="LWPOLYLINE_6_">
		
			<polygon fill="none" stroke="#0000FF" stroke-width="0" stroke-linecap="round" stroke-linejoin="round" stroke-miterlimit="10" points="
			232.853,160.756 253.315,160.756 253.315,162.283 256.368,162.283 256.368,199.402 253.315,199.402 253.315,200.928 
			225.229,200.928 225.229,163.323 232.861,163.323 		"/>
	</g>
	<g id="LWPOLYLINE_7_">
		
			<polygon fill="none" stroke="#0000FF" stroke-width="0" stroke-linecap="round" stroke-linejoin="round" stroke-miterlimit="10" points="
			225.229,200.928 253.315,200.928 253.315,202.455 256.368,202.455 256.368,239.574 253.315,239.574 253.315,241.101 
			225.229,241.1 225.229,235.063 232.861,235.063 232.861,227.431 225.229,227.431 		"/>
	</g>
	<g id="LWPOLYLINE_8_">
		
			<polygon fill="none" stroke="#0000FF" stroke-width="0" stroke-linecap="round" stroke-linejoin="round" stroke-miterlimit="10" points="
			225.229,241.1 253.315,241.101 253.315,242.627 256.368,242.627 256.368,279.746 253.315,279.746 253.315,281.272 
			225.229,281.272 		"/>
	</g>
	<g id="LWPOLYLINE_9_">
		
			<polygon fill="none" stroke="#0000FF" stroke-width="0" stroke-linecap="round" stroke-linejoin="round" stroke-miterlimit="10" points="
			225.229,281.272 253.315,281.272 253.315,282.799 256.368,282.799 256.368,319.918 253.315,319.918 253.315,321.445 
			225.229,321.445 225.229,306.039 232.861,306.039 232.861,298.407 225.229,298.407 		"/>
	</g>
	<g id="LWPOLYLINE_10_">
		
			<polygon fill="none" stroke="#0000FF" stroke-width="0" stroke-linecap="round" stroke-linejoin="round" stroke-miterlimit="10" points="
			225.229,321.445 253.315,321.445 253.315,322.971 256.368,322.971 256.368,360.091 253.315,360.091 253.315,361.617 
			225.229,361.617 		"/>
	</g>
	<g id="LWPOLYLINE_11_">
		
			<polygon fill="none" stroke="#0000FF" stroke-width="0" stroke-linecap="round" stroke-linejoin="round" stroke-miterlimit="10" points="
			225.229,361.617 253.315,361.617 253.315,363.144 256.368,363.144 256.368,392.908 253.315,392.908 253.315,395.961 
			255.604,395.961 255.604,417.397 232.861,417.532 232.861,413.648 225.229,413.648 225.229,376.253 232.861,376.253 
			232.861,368.621 225.229,368.621 		"/>
	</g>
	<g id="LWPOLYLINE_12_">
		
			<polygon fill="none" stroke="#0000FF" stroke-width="0" stroke-linecap="round" stroke-linejoin="round" stroke-miterlimit="10" points="
			255.604,415.804 294.527,415.804 294.527,395.961 293.001,395.961 293.001,392.908 256.368,392.908 256.368,395.961 
			255.604,395.961 		"/>
	</g>
	<g id="LWPOLYLINE_13_">
		
			<polygon fill="none" stroke="#0000FF" stroke-width="0" stroke-linecap="round" stroke-linejoin="round" stroke-miterlimit="10" points="
			296.054,392.908 296.054,395.961 294.527,395.961 294.527,417.397 327.421,417.397 327.421,413.802 337.495,413.802 
			337.495,417.397 344.516,417.397 344.516,372.437 337.495,372.437 337.495,377.626 327.421,377.626 327.421,372.437 
			317.118,372.437 317.118,373.963 314.065,373.963 314.065,392.908 		"/>
	</g>
	<g id="LWPOLYLINE_14_">
		
			<polygon fill="none" stroke="#0000FF" stroke-width="0" stroke-linecap="round" stroke-linejoin="round" stroke-miterlimit="10" points="
			314.065,370.91 317.118,370.91 317.118,372.437 327.421,372.437 327.421,367.553 337.495,367.553 337.495,372.437 
			344.516,372.437 344.516,302.224 338.716,302.224 338.716,307.261 328.642,307.261 328.642,302.224 317.118,302.224 
			317.118,303.75 314.065,303.75 		"/>
	</g>
	<g id="LWPOLYLINE_15_">
		
			<polygon fill="none" stroke="#0000FF" stroke-width="0" stroke-linecap="round" stroke-linejoin="round" stroke-miterlimit="10" points="
			314.065,300.697 317.118,300.697 317.118,302.224 328.642,302.224 328.642,297.186 338.716,297.186 338.716,302.224 
			344.516,302.224 344.516,231.018 342.99,231.018 342.99,227.965 324.139,227.965 324.139,236.284 317.118,236.284 
			317.118,239.336 314.065,239.336 314.065,267.727 317.118,267.727 317.118,270.78 314.065,270.78 		"/>
	</g>
	<g id="LWPOLYLINE_16_">
		
			<polygon fill="none" stroke="#0000FF" stroke-width="0" stroke-linecap="round" stroke-linejoin="round" stroke-miterlimit="10" points="
			376.502,227.965 376.502,231.018 374.976,231.018 374.976,278.717 388.628,278.717 388.628,298.863 405.437,298.863 
			405.437,231.018 403.91,231.018 403.91,227.965 		"/>
	</g>
	<g id="LWPOLYLINE_17_">
		
			<polygon fill="none" stroke="#0000FF" stroke-width="0" stroke-linecap="round" stroke-linejoin="round" stroke-miterlimit="10" points="
			406.963,227.965 406.963,231.018 405.437,231.018 405.437,298.863 436.022,298.88 436.022,231.014 434.37,231.014 434.37,227.961 
					"/>
	</g>
	<g id="LWPOLYLINE_18_">
		
			<polygon fill="none" stroke="#0000FF" stroke-width="0" stroke-linecap="round" stroke-linejoin="round" stroke-miterlimit="10" points="
			334.71,134.474 282.927,134.474 282.927,157.37 314.372,157.37 314.37,154.47 324.444,154.47 324.444,157.369 334.71,157.369 		
			"/>
	</g>
	<g id="LWPOLYLINE_19_">
		
			<polygon fill="none" stroke="#0000FF" stroke-width="0" stroke-linecap="round" stroke-linejoin="round" stroke-miterlimit="10" points="
			282.927,157.37 282.927,177.594 332.369,177.594 332.369,157.369 324.444,157.369 324.444,164.544 314.37,164.544 314.372,157.37 
					"/>
	</g>
	<g id="LWPOLYLINE_20_">
		
			<rect x="334.71" y="134.474" fill="none" stroke="#0000FF" stroke-width="0" stroke-linecap="round" stroke-linejoin="round" stroke-miterlimit="10" width="51.784" height="22.895"/>
	</g>
	<g id="LWPOLYLINE_21_">
		
			<rect x="332.369" y="157.369" fill="none" stroke="#0000FF" stroke-width="0" stroke-linecap="round" stroke-linejoin="round" stroke-miterlimit="10" width="49.442" height="20.225"/>
	</g>
	<g id="LWPOLYLINE_22_">
		
			<rect x="381.811" y="157.369" fill="none" stroke="#0000FF" stroke-width="0" stroke-linecap="round" stroke-linejoin="round" stroke-miterlimit="10" width="49.441" height="20.225"/>
	</g>
	<g id="LWPOLYLINE_23_">
		
			<polygon fill="none" stroke="#0000FF" stroke-width="0" stroke-linecap="round" stroke-linejoin="round" stroke-miterlimit="10" points="
			431.252,177.594 480.694,177.594 480.694,164.849 476.166,164.849 476.166,157.372 431.252,157.369 		"/>
	</g>
	<g id="LWPOLYLINE_24_">
		
			<rect x="412.748" y="134.474" fill="none" stroke="#0000FF" stroke-width="0" stroke-linecap="round" stroke-linejoin="round" stroke-miterlimit="10" width="60.979" height="22.895"/>
	</g>
	<g id="MTEXT_48_">
		<text transform="matrix(1 0 0 1 322.1768 68.7793)" fill="#0000FF" font-family="'ArialMT'" font-size="3.367">Área= 8.42 m²</text>
	</g>
	<g id="MTEXT_49_">
		<text transform="matrix(1 0 0 1 399.4629 68.1211)" fill="#0000FF" font-family="'ArialMT'" font-size="3.367">Área=7.81 m²</text>
	</g>
	<g id="MTEXT_50_">
		<text transform="matrix(1 0 0 1 445.3018 67.9824)" fill="#0000FF" font-family="'ArialMT'" font-size="3.367">Área= 7.71 m²</text>
	</g>
	<g id="MTEXT_51_">
		<text transform="matrix(1 0 0 1 433.9746 151.3848)" fill="#0000FF" font-family="'ArialMT'" font-size="3.367">Área= 6.00 m²</text>
	</g>
	<g id="MTEXT_52_">
		<text transform="matrix(1 0 0 1 350.1563 151.293)" fill="#0000FF" font-family="'ArialMT'" font-size="3.367">Área= 5.08 m²</text>
	</g>
	<g id="MTEXT_53_">
		<text transform="matrix(1 0 0 1 299.6953 151.2949)" fill="#0000FF" font-family="'ArialMT'" font-size="3.367">Área= 4.96 m²</text>
	</g>
	<g id="MTEXT_54_">
		<text transform="matrix(1 0 0 1 296.7241 174.4375)" fill="#0000FF" font-family="'ArialMT'" font-size="3.367">Área= 3.98 m²</text>
	</g>
	<g id="MTEXT_55_">
		<text transform="matrix(1 0 0 1 350.8394 173.5391)" fill="#0000FF" font-family="'ArialMT'" font-size="3.367">Área= 4.29 m²</text>
	</g>
	<g id="MTEXT_56_">
		<text transform="matrix(1 0 0 1 445.9199 174.2109)" fill="#0000FF" font-family="'ArialMT'" font-size="3.367">Área= 4.14 m²</text>
	</g>
	<g id="MTEXT_57_">
		<text transform="matrix(1 0 0 1 289.8369 62.1602)" fill="#0000FF" font-family="'ArialMT'" font-size="3.367">LOCAL 2 </text>
	</g>
	<g id="MTEXT_58_">
		<text transform="matrix(1 0 0 1 326.9316 62.6025)" fill="#0000FF" font-family="'ArialMT'" font-size="3.367">LOCAL 4</text>
	</g>
	<g id="MTEXT_59_">
		<text transform="matrix(1 0 0 1 403.5586 61.457)" fill="#0000FF" font-family="'ArialMT'" font-size="3.367">LOCAL  6</text>
	</g>
	<g id="MTEXT_60_">
		<text transform="matrix(1 0 0 1 448.4717 61.0703)" fill="#0000FF" font-family="'ArialMT'" font-size="3.367">LOCAL  8</text>
	</g>
	<g id="MTEXT_61_">
		<text transform="matrix(1 0 0 1 283.4434 68.7793)" fill="#0000FF" font-family="'ArialMT'" font-size="3.367">Área= 3.79 m²</text>
	</g>
	<g id="MTEXT_63_">
		<text transform="matrix(1 0 0 1 396.2109 164.6387)" fill="#0000FF" font-family="'ArialMT'" font-size="3.367">LOCAL 13 1/2  </text>
		<text transform="matrix(1 0 0 1 401.0371 168.4551)" fill="#0000FF" font-family="'ArialMT'" font-size="3.367">ALTURA</text>
	</g>
	<g id="MTEXT_64_">
		<text transform="matrix(1 0 0 1 399.7393 172.3057)" fill="#0000FF" font-family="'ArialMT'" font-size="3.367">Área= 4.29 m²</text>
	</g>
	<g id="MTEXT_65_">
		
			<text transform="matrix(-1.836970e-016 1 -1 -1.836970e-016 230.0488 60.1582)" fill="#0000FF" font-family="'ArialMT'" font-size="3.367">Vitrina 1</text>
		
			<text transform="matrix(-1.836970e-016 1 -1 -1.836970e-016 226.2344 65.2891)" fill="#0000FF" font-family="'ArialMT'" font-size="3.367"> </text>
	</g>
	<g id="LWPOLYLINE_37_">
		
			<rect x="228.004" y="46.883" fill="none" stroke="#0000FF" stroke-width="0" stroke-linecap="round" stroke-linejoin="round" stroke-miterlimit="10" width="6.105" height="39.152"/>
	</g>
	<g id="MTEXT_66_">
		
			<text transform="matrix(-1.836970e-016 1 -1 -1.836970e-016 224.4531 56.6719)" fill="#0000FF" font-family="'ArialMT'" font-size="3.367">Área= 1.03 m²</text>
	</g>
	<g id="LWPOLYLINE_38_">
		
			<polyline fill="none" stroke="#0000FF" stroke-width="0" stroke-linecap="round" stroke-linejoin="round" stroke-miterlimit="10" points="
			225.229,120.584 225.229,88.06 253.315,88.06 253.315,120.584 		"/>
	</g>
	<g id="MTEXT_67_">
		<text transform="matrix(1 0 0 1 232.4619 101.0059)" fill="#0000FF" font-family="'ArialMT'" font-size="3.367">LOCAL 16</text>
		<text transform="matrix(1 0 0 1 229 105.3984)" fill="#0000FF" font-family="'ArialMT'" font-size="3.367">Área= 3.92 m2 </text>
	</g>
	<g id="LWPOLYLINE_39_">
		
			<line fill="none" stroke="#0000FF" stroke-width="0" stroke-linecap="round" stroke-linejoin="round" stroke-miterlimit="10" x1="317.118" y1="269.253" x2="344.488" y2="269.272"/>
	</g>
</g>
</svg>
