<?xml version="1.0" encoding="utf-8"?>
<!-- Generator: Adobe Illustrator 16.0.0, SVG Export Plug-In . SVG Version: 6.00 Build 0)  -->
<!DOCTYPE svg PUBLIC "-//W3C//DTD SVG 1.1//EN" "http://www.w3.org/Graphics/SVG/1.1/DTD/svg11.dtd">
<svg version="1.1" xmlns="http://www.w3.org/2000/svg" xmlns:xlink="http://www.w3.org/1999/xlink" x="0px" y="0px" width="800px"
	 height="600px" viewBox="0 0 800 600" enable-background="new 0 0 800 600" xml:space="preserve">
<g id="_x30_">
	<g id="MTEXT">
		<text transform="matrix(1 0 0 1 432.3867 562.4521)" font-family="'Arial-BoldMT'" font-size="20.4441">3er. NIVEL - BAZAR  </text>
	</g>
	<g id="MTEXT_6_">
		<text transform="matrix(1 0 0 1 476.2246 594.5977)" font-family="'Arial-BoldMT'" font-size="20.4441">Arquitectónico</text>
	</g>
</g>
<g id="AREA__x28_POLILINEA_x29_">
	<g id="MTEXT_1_">
		<text transform="matrix(1 0 0 1 610.2832 295.8687)" fill="#0000FF" font-family="'ArialMT'" font-size="5.0064">Local 308</text>
	</g>
	<g id="MTEXT_2_">
		<text transform="matrix(1 0 0 1 609.8975 341.3848)" fill="#0000FF" font-family="'ArialMT'" font-size="5.0064">Local 310</text>
	</g>
	<g id="MTEXT_3_">
		<text transform="matrix(1 0 0 1 607.6074 20.1211)" fill="#0000FF" font-family="'ArialMT'" font-size="5.0064">Local 301</text>
	</g>
	<g id="MTEXT_4_">
		<text transform="matrix(1 0 0 1 603.918 109.6753)" fill="#0000FF" font-family="'ArialMT'" font-size="5.0064">Local 303</text>
	</g>
	<g id="MTEXT_5_">
		<text transform="matrix(1 0 0 1 603.7061 156.812)" fill="#0000FF" font-family="'ArialMT'" font-size="5.0064">Local 305</text>
	</g>
	<g id="MTEXT_7_">
		<text transform="matrix(1 0 0 1 276.0283 20.2051)" fill="#0000FF" font-family="'ArialMT'" font-size="5.0064">Local 364</text>
	</g>
	<g id="MTEXT_8_">
		<text transform="matrix(1 0 0 1 324.3955 20.3154)" fill="#0000FF" font-family="'ArialMT'" font-size="5.0064">Local 363</text>
	</g>
	<g id="MTEXT_9_">
		<text transform="matrix(1 0 0 1 372.8564 20.25)" fill="#0000FF" font-family="'ArialMT'" font-size="5.0064">Local 336</text>
	</g>
	<g id="MTEXT_10_">
		<text transform="matrix(1 0 0 1 419.1641 20.0571)" fill="#0000FF" font-family="'ArialMT'" font-size="5.0064">Local 335</text>
	</g>
	<g id="MTEXT_11_">
		<text transform="matrix(1 0 0 1 235.7778 40.8071)" fill="#0000FF" font-family="'ArialMT'" font-size="5.0064">Local 365</text>
	</g>
	<g id="MTEXT_12_">
		<text transform="matrix(1 0 0 1 236.458 92.5186)" fill="#0000FF" font-family="'ArialMT'" font-size="5.0064">Local 366</text>
	</g>
	<g id="MTEXT_13_">
		<text transform="matrix(1 0 0 1 235.2363 149.6445)" fill="#0000FF" font-family="'ArialMT'" font-size="5.0064">Local 368</text>
	</g>
	<g id="MTEXT_14_">
		<text transform="matrix(1 0 0 1 236.2373 204.6787)" fill="#0000FF" font-family="'ArialMT'" font-size="5.0064">Local 370</text>
	</g>
	<g id="MTEXT_15_">
		<text transform="matrix(1 0 0 1 288.2383 204.4624)" fill="#0000FF" font-family="'ArialMT'" font-size="5.0064">Local 371</text>
	</g>
	<g id="MTEXT_16_">
		<text transform="matrix(1 0 0 1 314.7256 204.5254)" fill="#0000FF" font-family="'ArialMT'" font-size="5.0064">Local 357</text>
	</g>
	<g id="MTEXT_17_">
		<text transform="matrix(1 0 0 1 288.6758 156.688)" fill="#0000FF" font-family="'ArialMT'" font-size="5.0064">Local 369</text>
	</g>
	<g id="MTEXT_18_">
		<text transform="matrix(1 0 0 1 314.75 156.8638)" fill="#0000FF" font-family="'ArialMT'" font-size="5.0064">Local 359</text>
	</g>
	<g id="MTEXT_19_">
		<text transform="matrix(1 0 0 1 288.6143 109.582)" fill="#0000FF" font-family="'ArialMT'" font-size="5.0064">Local 367</text>
	</g>
	<g id="MTEXT_20_">
		<text transform="matrix(1 0 0 1 315.0352 109.6636)" fill="#0000FF" font-family="'ArialMT'" font-size="5.0064">Local 361</text>
	</g>
	<g id="MTEXT_21_">
		<text transform="matrix(1 0 0 1 367.3477 109.4971)" fill="#0000FF" font-family="'ArialMT'" font-size="5.0064">Local 362</text>
	</g>
	<g id="MTEXT_22_">
		<text transform="matrix(1 0 0 1 393.416 109.4741)" fill="#0000FF" font-family="'ArialMT'" font-size="5.0064">Local 339</text>
	</g>
	<g id="MTEXT_23_">
		<text transform="matrix(1 0 0 1 366.98 156.6953)" fill="#0000FF" font-family="'ArialMT'" font-size="5.0064">Local 360</text>
	</g>
	<g id="MTEXT_24_">
		<text transform="matrix(1 0 0 1 393.5728 156.6216)" fill="#0000FF" font-family="'ArialMT'" font-size="5.0064">Local 341</text>
	</g>
	<g id="MTEXT_25_">
		<text transform="matrix(1 0 0 1 367.1294 204.6357)" fill="#0000FF" font-family="'ArialMT'" font-size="5.0064">Local 358</text>
	</g>
	<g id="MTEXT_26_">
		<text transform="matrix(1 0 0 1 393.5195 204.6357)" fill="#0000FF" font-family="'ArialMT'" font-size="5.0064">Local 343</text>
	</g>
	<g id="MTEXT_27_">
		<text transform="matrix(1 0 0 1 294.9141 281.7231)" fill="#0000FF" font-family="'ArialMT'" font-size="5.0064">Local 372</text>
	</g>
	<g id="MTEXT_28_">
		<text transform="matrix(1 0 0 1 294.4922 324.5)" fill="#0000FF" font-family="'ArialMT'" font-size="5.0064">Local 373</text>
	</g>
	<g id="MTEXT_29_">
		<text transform="matrix(1 0 0 1 294.4561 367.8027)" fill="#0000FF" font-family="'ArialMT'" font-size="5.0064">Local 374</text>
	</g>
	<g id="MTEXT_30_">
		<text transform="matrix(1 0 0 1 294.0776 412.165)" fill="#0000FF" font-family="'ArialMT'" font-size="5.0064">Local 376</text>
	</g>
	<g id="MTEXT_31_">
		<text transform="matrix(1 0 0 1 308.6211 447.1465)" fill="#0000FF" font-family="'ArialMT'" font-size="5.0064">Local 351</text>
	</g>
	<g id="MTEXT_32_">
		<text transform="matrix(1 0 0 1 324.5049 412.334)" fill="#0000FF" font-family="'ArialMT'" font-size="5.0064">Local 352</text>
	</g>
	<g id="MTEXT_33_">
		<text transform="matrix(1 0 0 1 325.6084 368.4717)" fill="#0000FF" font-family="'ArialMT'" font-size="5.0064">Local 353</text>
	</g>
	<g id="MTEXT_34_">
		<text transform="matrix(1 0 0 1 325.0127 281.7129)" fill="#0000FF" font-family="'ArialMT'" font-size="5.0064">Local 355</text>
	</g>
	<g id="MTEXT_35_">
		<text transform="matrix(1 0 0 1 326.5996 324.6143)" fill="#0000FF" font-family="'ArialMT'" font-size="5.0064">Local 354</text>
	</g>
	<g id="MTEXT_36_">
		<text transform="matrix(1 0 0 1 381.9971 281.9746)" fill="#0000FF" font-family="'ArialMT'" font-size="5.0064">Local 344</text>
	</g>
	<g id="MTEXT_37_">
		<text transform="matrix(1 0 0 1 381.9409 334.8945)" fill="#0000FF" font-family="'ArialMT'" font-size="5.0064">Local 345</text>
	</g>
	<g id="MTEXT_38_">
		<text transform="matrix(1 0 0 1 380.9023 385.1641)" fill="#0000FF" font-family="'ArialMT'" font-size="5.0064">Local 346</text>
	</g>
	<g id="MTEXT_39_">
		<text transform="matrix(1 0 0 1 381.5127 434.5918)" fill="#0000FF" font-family="'ArialMT'" font-size="5.0064">Local 347</text>
	</g>
	<g id="MTEXT_40_">
		<text transform="matrix(1 0 0 1 502.8184 449.7715)" fill="#0000FF" font-family="'ArialMT'" font-size="5.0064">Local 318</text>
	</g>
	<g id="MTEXT_41_">
		<text transform="matrix(1 0 0 1 490.3535 413.252)" fill="#0000FF" font-family="'ArialMT'" font-size="5.0064">Local 321</text>
	</g>
	<g id="MTEXT_42_">
		<text transform="matrix(1 0 0 1 515.9551 413.252)" fill="#0000FF" font-family="'ArialMT'" font-size="5.0064">Local 314</text>
	</g>
	<g id="MTEXT_43_">
		<text transform="matrix(1 0 0 1 489.4082 369.7705)" fill="#0000FF" font-family="'ArialMT'" font-size="5.0064">Local 323</text>
	</g>
	<g id="MTEXT_44_">
		<text transform="matrix(1 0 0 1 517.3057 370.1074)" fill="#0000FF" font-family="'ArialMT'" font-size="5.0064">Local 312</text>
	</g>
	<g id="MTEXT_45_">
		<text transform="matrix(1 0 0 1 488.7764 324.9746)" fill="#0000FF" font-family="'ArialMT'" font-size="5.0064">Local 325</text>
	</g>
	<g id="MTEXT_46_">
		<text transform="matrix(1 0 0 1 517.4043 324.3076)" fill="#0000FF" font-family="'ArialMT'" font-size="5.0064">Local 311</text>
	</g>
	<g id="MTEXT_47_">
		<text transform="matrix(1 0 0 1 489.6133 281.5933)" fill="#0000FF" font-family="'ArialMT'" font-size="5.0064">Local 327</text>
	</g>
	<g id="MTEXT_48_">
		<text transform="matrix(1 0 0 1 516.5215 281.7876)" fill="#0000FF" font-family="'ArialMT'" font-size="5.0064">Local 309</text>
	</g>
	<g id="MTEXT_49_">
		<text transform="matrix(1 0 0 1 251.3682 502.1787)" fill="#0000FF" font-family="'ArialMT'" font-size="5.0064">Local 379</text>
	</g>
	<g id="MTEXT_50_">
		<text transform="matrix(1 0 0 1 234.8618 462.6025)" fill="#0000FF" font-family="'ArialMT'" font-size="5.0064">Local 378</text>
	</g>
	<g id="MTEXT_51_">
		<text transform="matrix(1 0 0 1 235.7832 419.9668)" fill="#0000FF" font-family="'ArialMT'" font-size="5.0064">Local 377</text>
	</g>
	<g id="MTEXT_52_">
		<text transform="matrix(1 0 0 1 235.8701 375.1484)" fill="#0000FF" font-family="'ArialMT'" font-size="5.0064">Local 375</text>
	</g>
	<g id="MTEXT_53_">
		<text transform="matrix(1 0 0 1 309.1748 501.9531)" fill="#0000FF" font-family="'ArialMT'" font-size="5.0064">Local 350</text>
	</g>
	<g id="MTEXT_54_">
		<text transform="matrix(1 0 0 1 366.9194 501.8477)" fill="#0000FF" font-family="'ArialMT'" font-size="5.0064">Local 349</text>
	</g>
	<g id="MTEXT_55_">
		<text transform="matrix(1 0 0 1 418.9941 501.7832)" fill="#0000FF" font-family="'ArialMT'" font-size="5.0064">Local 348</text>
	</g>
	<g id="MTEXT_56_">
		<text transform="matrix(1 0 0 1 469.8789 501.9199)" fill="#0000FF" font-family="'ArialMT'" font-size="5.0064">Local 319</text>
	</g>
	<g id="MTEXT_57_">
		<text transform="matrix(1 0 0 1 524.6064 501.9238)" fill="#0000FF" font-family="'ArialMT'" font-size="5.0064">Local 317</text>
	</g>
	<g id="MTEXT_58_">
		<text transform="matrix(1 0 0 1 611.0293 458.8672)" fill="#0000FF" font-family="'ArialMT'" font-size="5.0064">Local 315</text>
	</g>
	<g id="MTEXT_59_">
		<text transform="matrix(1 0 0 1 609.918 204.334)" fill="#0000FF" font-family="'ArialMT'" font-size="5.0064">Local 307</text>
	</g>
	<g id="LWPOLYLINE">
		
			<polyline fill="none" stroke="#0000FF" stroke-width="0" stroke-linecap="round" stroke-linejoin="round" stroke-miterlimit="10" points="
			261.72,306.006 269.093,306.006 269.093,260.326 261.72,260.326 261.72,306.006 		"/>
	</g>
	<g id="MTEXT_60_">
		<text transform="matrix(1 0 0 1 262.7568 281.7314)" fill="#0000FF" font-family="'ArialMT'" font-size="5.0064">Local 381</text>
	</g>
	<g id="LWPOLYLINE_1_">
		
			<polyline fill="none" stroke="#0000FF" stroke-width="0" stroke-linecap="round" stroke-linejoin="round" stroke-miterlimit="10" points="
			540.209,436.174 540.209,461.333 486.417,461.333 486.422,436.174 501.627,436.174 501.627,441.929 512.363,441.929 
			512.363,436.174 540.205,436.174 		"/>
	</g>
	<g id="LWPOLYLINE_2_">
		
			<polygon fill="none" stroke="#0000FF" stroke-width="0" stroke-linecap="round" stroke-linejoin="round" stroke-miterlimit="10" points="
			603.107,7.666 603.107,32.464 631.568,32.464 631.567,8.546 627.071,8.546 627.071,7.646 		"/>
	</g>
	<g id="LWPOLYLINE_3_">
		
			<rect x="603.107" y="32.464" fill="none" stroke="#0000FF" stroke-width="0" stroke-linecap="round" stroke-linejoin="round" stroke-miterlimit="10" width="28.461" height="24.896"/>
	</g>
	<g id="LWPOLYLINE_4_">
		
			<polygon fill="none" stroke="#0000FF" stroke-width="0" stroke-linecap="round" stroke-linejoin="round" stroke-miterlimit="10" points="
			600.514,93.07 600.514,141.178 627.971,141.178 627.971,97.566 627.071,97.566 627.071,93.07 		"/>
	</g>
	<g id="LWPOLYLINE_5_">
		
			<polygon fill="none" stroke="#0000FF" stroke-width="0" stroke-linecap="round" stroke-linejoin="round" stroke-miterlimit="10" points="
			600.514,141.178 600.514,181.192 627.071,181.192 627.071,180.293 627.971,180.293 627.971,141.178 		"/>
	</g>
	<g id="LWPOLYLINE_6_">
		
			<rect x="603.692" y="189.285" fill="none" stroke="#0000FF" stroke-width="0" stroke-linecap="round" stroke-linejoin="round" stroke-miterlimit="10" width="32.371" height="37.766"/>
	</g>
	<g id="LWPOLYLINE_7_">
		
			<polygon fill="none" stroke="#0000FF" stroke-width="0" stroke-linecap="round" stroke-linejoin="round" stroke-miterlimit="10" points="
			627.071,264.818 603.692,264.818 603.692,330.459 636.063,330.459 636.063,273.81 627.071,273.81 		"/>
	</g>
	<g id="LWPOLYLINE_8_">
		
			<polygon fill="none" stroke="#0000FF" stroke-width="0" stroke-linecap="round" stroke-linejoin="round" stroke-miterlimit="10" points="
			603.692,330.459 603.696,358.275 627.079,358.335 627.071,348.443 636.063,348.443 636.063,330.459 		"/>
	</g>
	<g id="LWPOLYLINE_9_">
		
			<polygon fill="none" stroke="#0000FF" stroke-width="0" stroke-linecap="round" stroke-linejoin="round" stroke-miterlimit="10" points="
			607.289,434.018 607.289,489.208 628.869,489.208 628.869,488.416 636.063,488.416 636.063,440.162 627.071,440.162 
			627.071,434.018 		"/>
	</g>
	<g id="LWPOLYLINE_10_">
		
			<polygon fill="none" stroke="#0000FF" stroke-width="0" stroke-linecap="round" stroke-linejoin="round" stroke-miterlimit="10" points="
			557.142,488.31 512.363,488.31 512.363,495.808 506.995,495.808 506.995,517.622 557.142,517.622 		"/>
	</g>
	<g id="LWPOLYLINE_11_">
		
			<polygon fill="none" stroke="#0000FF" stroke-width="0" stroke-linecap="round" stroke-linejoin="round" stroke-miterlimit="10" points="
			501.627,488.31 454.306,488.31 454.306,517.622 506.995,517.622 506.995,495.808 501.627,495.808 		"/>
	</g>
	<g id="LWPOLYLINE_12_">
		
			<rect x="401.614" y="488.31" fill="none" stroke="#0000FF" stroke-width="0" stroke-linecap="round" stroke-linejoin="round" stroke-miterlimit="10" width="52.691" height="29.313"/>
	</g>
	<g id="LWPOLYLINE_13_">
		
			<polygon fill="none" stroke="#0000FF" stroke-width="0" stroke-linecap="round" stroke-linejoin="round" stroke-miterlimit="10" points="
			401.614,488.31 354.292,488.31 354.292,495.752 348.924,495.752 348.924,517.622 401.614,517.622 		"/>
	</g>
	<g id="LWPOLYLINE_14_">
		
			<polygon fill="none" stroke="#0000FF" stroke-width="0" stroke-linecap="round" stroke-linejoin="round" stroke-miterlimit="10" points="
			343.556,488.31 295.029,488.31 295.029,517.622 348.924,517.622 348.924,495.752 343.556,495.752 		"/>
	</g>
	<g id="LWPOLYLINE_15_">
		
			<polygon fill="none" stroke="#0000FF" stroke-width="0" stroke-linecap="round" stroke-linejoin="round" stroke-miterlimit="10" points="
			295.029,488.31 260.197,488.31 260.197,489.208 231.423,489.208 231.423,498.309 230.523,498.309 230.523,514.494 
			231.423,514.494 231.423,517.622 295.029,517.622 		"/>
	</g>
	<g id="LWPOLYLINE_16_">
		
			<polygon fill="none" stroke="#0000FF" stroke-width="0" stroke-linecap="round" stroke-linejoin="round" stroke-miterlimit="10" points="
			260.197,442.846 228.725,442.846 228.725,488.417 231.423,488.417 231.423,489.208 260.197,489.208 		"/>
	</g>
	<g id="LWPOLYLINE_17_">
		
			<polygon fill="none" stroke="#0000FF" stroke-width="0" stroke-linecap="round" stroke-linejoin="round" stroke-miterlimit="10" points="
			260.197,442.846 260.197,397.226 232.322,397.226 232.322,431.17 233.221,431.17 233.221,440.162 228.725,440.162 
			228.725,442.846 		"/>
	</g>
	<g id="LWPOLYLINE_18_">
		
			<polygon fill="none" stroke="#0000FF" stroke-width="0" stroke-linecap="round" stroke-linejoin="round" stroke-miterlimit="10" points="
			260.197,397.226 260.197,351.686 233.221,351.686 233.221,357.436 232.322,357.436 232.322,397.226 		"/>
	</g>
	<g id="LWPOLYLINE_19_">
		
			<polygon fill="none" stroke="#0000FF" stroke-width="0" stroke-linecap="round" stroke-linejoin="round" stroke-miterlimit="10" points="
			232.322,189.285 232.322,233.35 259.457,233.35 259.457,179.397 233.221,179.397 233.221,189.285 		"/>
	</g>
	<g id="LWPOLYLINE_20_">
		
			<rect x="232.322" y="125.446" fill="none" stroke="#0000FF" stroke-width="0" stroke-linecap="round" stroke-linejoin="round" stroke-miterlimit="10" width="27.134" height="53.952"/>
	</g>
	<g id="LWPOLYLINE_21_">
		
			<polygon fill="none" stroke="#0000FF" stroke-width="0" stroke-linecap="round" stroke-linejoin="round" stroke-miterlimit="10" points="
			259.457,71.493 232.322,71.493 232.322,88.574 233.221,88.574 233.221,97.566 232.322,97.566 232.322,125.446 259.457,125.446 		
			"/>
	</g>
	<g id="LWPOLYLINE_22_">
		
			<polygon fill="none" stroke="#0000FF" stroke-width="0" stroke-linecap="round" stroke-linejoin="round" stroke-miterlimit="10" points="
			259.457,71.493 259.457,7.646 233.221,7.646 233.221,8.546 232.322,8.546 232.322,71.493 		"/>
	</g>
	<g id="LWPOLYLINE_23_">
		
			<rect x="259.457" y="7.646" fill="none" stroke="#0000FF" stroke-width="0" stroke-linecap="round" stroke-linejoin="round" stroke-miterlimit="10" width="49.067" height="27.875"/>
	</g>
	<g id="LWPOLYLINE_24_">
		
			<polygon fill="none" stroke="#0000FF" stroke-width="0" stroke-linecap="round" stroke-linejoin="round" stroke-miterlimit="10" points="
			308.523,7.646 308.523,35.521 357.074,35.521 357.074,7.646 340.227,7.646 340.227,8.546 329.436,8.546 329.436,7.646 		"/>
	</g>
	<g id="LWPOLYLINE_25_">
		
			<rect x="357.074" y="7.646" fill="none" stroke="#0000FF" stroke-width="0" stroke-linecap="round" stroke-linejoin="round" stroke-miterlimit="10" width="48.551" height="27.875"/>
	</g>
	<g id="LWPOLYLINE_26_">
		
			<rect x="405.625" y="7.646" fill="none" stroke="#0000FF" stroke-width="0" stroke-linecap="round" stroke-linejoin="round" stroke-miterlimit="10" width="48.552" height="27.875"/>
	</g>
	<g id="LWPOLYLINE_27_">
		
			<rect x="285.691" y="88.574" fill="none" stroke="#0000FF" stroke-width="0" stroke-linecap="round" stroke-linejoin="round" stroke-miterlimit="10" width="26.235" height="48.258"/>
	</g>
	<g id="LWPOLYLINE_28_">
		
			<rect x="285.691" y="136.833" fill="none" stroke="#0000FF" stroke-width="0" stroke-linecap="round" stroke-linejoin="round" stroke-miterlimit="10" width="26.235" height="48.258"/>
	</g>
	<g id="LWPOLYLINE_29_">
		
			<rect x="285.691" y="185.091" fill="none" stroke="#0000FF" stroke-width="0" stroke-linecap="round" stroke-linejoin="round" stroke-miterlimit="10" width="26.235" height="48.259"/>
	</g>
	<g id="LWPOLYLINE_30_">
		
			<polygon fill="none" stroke="#0000FF" stroke-width="0" stroke-linecap="round" stroke-linejoin="round" stroke-miterlimit="10" points="
			311.927,88.574 311.927,136.833 338.162,136.833 338.159,97.568 329.436,97.568 329.436,88.574 		"/>
	</g>
	<g id="LWPOLYLINE_31_">
		
			<polygon fill="none" stroke="#0000FF" stroke-width="0" stroke-linecap="round" stroke-linejoin="round" stroke-miterlimit="10" points="
			311.927,136.833 311.927,185.091 329.397,185.091 329.397,177.333 338.157,177.333 338.162,136.833 		"/>
	</g>
	<g id="LWPOLYLINE_32_">
		
			<polygon fill="none" stroke="#0000FF" stroke-width="0" stroke-linecap="round" stroke-linejoin="round" stroke-miterlimit="10" points="
			311.927,185.091 311.922,233.35 338.159,233.35 338.162,189.024 329.397,189.024 329.397,185.091 		"/>
	</g>
	<g id="LWPOLYLINE_33_">
		
			<rect x="364.393" y="88.574" fill="none" stroke="#0000FF" stroke-width="0" stroke-linecap="round" stroke-linejoin="round" stroke-miterlimit="10" width="26.239" height="48.258"/>
	</g>
	<g id="LWPOLYLINE_34_">
		
			<rect x="390.632" y="88.574" fill="none" stroke="#0000FF" stroke-width="0" stroke-linecap="round" stroke-linejoin="round" stroke-miterlimit="10" width="26.235" height="48.258"/>
	</g>
	<g id="LWPOLYLINE_35_">
		
			<rect x="364.397" y="136.833" fill="none" stroke="#0000FF" stroke-width="0" stroke-linecap="round" stroke-linejoin="round" stroke-miterlimit="10" width="26.235" height="48.258"/>
	</g>
	<g id="LWPOLYLINE_36_">
		
			<rect x="390.632" y="136.833" fill="none" stroke="#0000FF" stroke-width="0" stroke-linecap="round" stroke-linejoin="round" stroke-miterlimit="10" width="26.235" height="48.258"/>
	</g>
	<g id="LWPOLYLINE_37_">
		
			<rect x="364.393" y="185.091" fill="none" stroke="#0000FF" stroke-width="0" stroke-linecap="round" stroke-linejoin="round" stroke-miterlimit="10" width="26.239" height="48.259"/>
	</g>
	<g id="LWPOLYLINE_38_">
		
			<rect x="390.632" y="185.091" fill="none" stroke="#0000FF" stroke-width="0" stroke-linecap="round" stroke-linejoin="round" stroke-miterlimit="10" width="26.235" height="48.259"/>
	</g>
	<g id="LWPOLYLINE_39_">
		
			<rect x="288.612" y="261.52" fill="none" stroke="#0000FF" stroke-width="0" stroke-linecap="round" stroke-linejoin="round" stroke-miterlimit="10" width="31.041" height="43.207"/>
	</g>
	<g id="LWPOLYLINE_40_">
		
			<rect x="288.612" y="304.727" fill="none" stroke="#0000FF" stroke-width="0" stroke-linecap="round" stroke-linejoin="round" stroke-miterlimit="10" width="31.041" height="43.206"/>
	</g>
	<g id="LWPOLYLINE_41_">
		
			<rect x="288.612" y="347.933" fill="none" stroke="#0000FF" stroke-width="0" stroke-linecap="round" stroke-linejoin="round" stroke-miterlimit="10" width="31.041" height="43.206"/>
	</g>
	<g id="LWPOLYLINE_42_">
		
			<rect x="288.612" y="391.139" fill="none" stroke="#0000FF" stroke-width="0" stroke-linecap="round" stroke-linejoin="round" stroke-miterlimit="10" width="31.041" height="43.206"/>
	</g>
	<g id="LWPOLYLINE_43_">
		
			<polygon fill="none" stroke="#0000FF" stroke-width="0" stroke-linecap="round" stroke-linejoin="round" stroke-miterlimit="10" points="
			319.653,304.727 350.701,304.727 350.701,261.52 338.389,261.52 338.389,273.209 329.397,273.209 329.397,261.52 319.653,261.52 
					"/>
	</g>
	<g id="LWPOLYLINE_44_">
		
			<polygon fill="none" stroke="#0000FF" stroke-width="0" stroke-linecap="round" stroke-linejoin="round" stroke-miterlimit="10" points="
			319.653,347.933 343.556,347.933 343.556,344.516 350.701,344.516 350.701,304.727 319.653,304.727 		"/>
	</g>
	<g id="LWPOLYLINE_45_">
		
			<polygon fill="none" stroke="#0000FF" stroke-width="0" stroke-linecap="round" stroke-linejoin="round" stroke-miterlimit="10" points="
			319.653,347.933 343.556,347.933 343.556,355.251 350.701,355.251 350.696,391.139 319.653,391.139 		"/>
	</g>
	<g id="LWPOLYLINE_46_">
		
			<polygon fill="none" stroke="#0000FF" stroke-width="0" stroke-linecap="round" stroke-linejoin="round" stroke-miterlimit="10" points="
			319.653,391.139 350.701,391.139 350.701,431.521 343.556,431.521 343.556,434.345 319.653,434.345 		"/>
	</g>
	<g id="LWPOLYLINE_47_">
		
			<polygon fill="none" stroke="#0000FF" stroke-width="0" stroke-linecap="round" stroke-linejoin="round" stroke-miterlimit="10" points="
			350.701,461.333 288.612,461.333 288.612,434.345 343.556,434.345 343.556,442.258 350.696,442.258 		"/>
	</g>
	<g id="LWPOLYLINE_48_">
		
			<rect x="378.566" y="261.52" fill="none" stroke="#0000FF" stroke-width="0" stroke-linecap="round" stroke-linejoin="round" stroke-miterlimit="10" width="26.996" height="49.954"/>
	</g>
	<g id="LWPOLYLINE_49_">
		
			<rect x="378.571" y="311.474" fill="none" stroke="#0000FF" stroke-width="0" stroke-linecap="round" stroke-linejoin="round" stroke-miterlimit="10" width="26.991" height="49.952"/>
	</g>
	<g id="LWPOLYLINE_50_">
		
			<rect x="378.566" y="361.426" fill="none" stroke="#0000FF" stroke-width="0" stroke-linecap="round" stroke-linejoin="round" stroke-miterlimit="10" width="26.996" height="49.954"/>
	</g>
	<g id="LWPOLYLINE_51_">
		
			<rect x="378.566" y="411.38" fill="none" stroke="#0000FF" stroke-width="0" stroke-linecap="round" stroke-linejoin="round" stroke-miterlimit="10" width="26.996" height="49.953"/>
	</g>
	<g id="LWPOLYLINE_52_">
		
			<rect x="486.422" y="261.52" fill="none" stroke="#0000FF" stroke-width="0" stroke-linecap="round" stroke-linejoin="round" stroke-miterlimit="10" width="26.893" height="44.182"/>
	</g>
	<g id="LWPOLYLINE_53_">
		
			<polygon fill="none" stroke="#0000FF" stroke-width="0" stroke-linecap="round" stroke-linejoin="round" stroke-miterlimit="10" points="
			513.314,305.702 540.209,305.702 540.209,261.52 527.416,261.52 527.416,273.209 518.423,273.209 518.423,261.52 513.313,261.52 
					"/>
	</g>
	<g id="LWPOLYLINE_54_">
		
			<polygon fill="none" stroke="#0000FF" stroke-width="0" stroke-linecap="round" stroke-linejoin="round" stroke-miterlimit="10" points="
			486.422,305.702 486.422,349.883 501.627,349.883 501.627,344.516 513.317,344.516 513.314,305.702 		"/>
	</g>
	<g id="LWPOLYLINE_55_">
		
			<rect x="513.314" y="305.702" fill="none" stroke="#0000FF" stroke-width="0" stroke-linecap="round" stroke-linejoin="round" stroke-miterlimit="10" width="26.895" height="44.181"/>
	</g>
	<g id="LWPOLYLINE_56_">
		
			<polygon fill="none" stroke="#0000FF" stroke-width="0" stroke-linecap="round" stroke-linejoin="round" stroke-miterlimit="10" points="
			486.422,349.883 501.627,349.883 501.627,355.251 513.314,355.251 513.314,393.042 486.422,393.042 		"/>
	</g>
	<g id="LWPOLYLINE_57_">
		
			<rect x="513.314" y="349.883" fill="none" stroke="#0000FF" stroke-width="0" stroke-linecap="round" stroke-linejoin="round" stroke-miterlimit="10" width="26.895" height="43.159"/>
	</g>
	<g id="LWPOLYLINE_58_">
		
			<rect x="513.314" y="393.042" fill="none" stroke="#0000FF" stroke-width="0" stroke-linecap="round" stroke-linejoin="round" stroke-miterlimit="10" width="26.895" height="43.132"/>
	</g>
	<g id="LWPOLYLINE_59_">
		
			<polygon fill="none" stroke="#0000FF" stroke-width="0" stroke-linecap="round" stroke-linejoin="round" stroke-miterlimit="10" points="
			513.314,393.042 486.422,393.042 486.422,436.174 501.627,436.174 501.627,431.193 513.314,431.193 		"/>
	</g>
	<g id="MTEXT_61_">
		<text transform="matrix(1 0 0 1 234.2754 45.417)" fill="#0000FF" font-family="'ArialMT'" font-size="3.9671">Área= 5.35 m²</text>
	</g>
	<g id="MTEXT_62_">
		<text transform="matrix(1 0 0 1 274.4927 26.3447)" fill="#0000FF" font-family="'ArialMT'" font-size="3.9671">Área= 4.23 m²</text>
	</g>
	<g id="MTEXT_63_">
		<text transform="matrix(1 0 0 1 322.9731 26.3721)" fill="#0000FF" font-family="'ArialMT'" font-size="3.9671">Área= 4.15 m²</text>
	</g>
	<g id="MTEXT_64_">
		<text transform="matrix(1 0 0 1 371.6152 26.5645)" fill="#0000FF" font-family="'ArialMT'" font-size="3.9671">Área= 4.18 m²</text>
	</g>
	<g id="MTEXT_65_">
		<text transform="matrix(1 0 0 1 417.6035 26.332)" fill="#0000FF" font-family="'ArialMT'" font-size="3.9671">Área= 4.18 m²</text>
	</g>
	<g id="MTEXT_66_">
		<text transform="matrix(1 0 0 1 606.1494 26.4561)" fill="#0000FF" font-family="'ArialMT'" font-size="3.9671">Área= 2.17 m²</text>
	</g>
	<g id="MTEXT_67_">
		<text transform="matrix(1 0 0 1 602.5625 115.9434)" fill="#0000FF" font-family="'ArialMT'" font-size="3.9671">Área= 4.07 m²</text>
	</g>
	<g id="MTEXT_68_">
		<text transform="matrix(1 0 0 1 602.2324 163.1411)" fill="#0000FF" font-family="'ArialMT'" font-size="3.9671">Área= 3.39 m²</text>
	</g>
	<g id="MTEXT_69_">
		<text transform="matrix(1 0 0 1 608.5107 210.8662)" fill="#0000FF" font-family="'ArialMT'" font-size="3.9671">Área= 3.78 m²</text>
	</g>
	<g id="MTEXT_70_">
		<text transform="matrix(1 0 0 1 609.2783 301.6504)" fill="#0000FF" font-family="'ArialMT'" font-size="3.9671">Área= 6.32 m²</text>
	</g>
	<g id="MTEXT_71_">
		<text transform="matrix(1 0 0 1 608.7979 346.2051)" fill="#0000FF" font-family="'ArialMT'" font-size="3.9671">Área= 2.51 m²</text>
	</g>
	<g id="MTEXT_72_">
		<text transform="matrix(1 0 0 1 610.3008 463.3408)" fill="#0000FF" font-family="'ArialMT'" font-size="3.9671">Área= 4.72 m²</text>
	</g>
	<g id="MTEXT_73_">
		<text transform="matrix(1 0 0 1 523.5342 507.9922)" fill="#0000FF" font-family="'ArialMT'" font-size="3.9671">Área= 4.42 m²</text>
	</g>
	<g id="MTEXT_74_">
		<text transform="matrix(1 0 0 1 469.1641 508.0195)" fill="#0000FF" font-family="'ArialMT'" font-size="3.9671">Área= 4.65 m²</text>
	</g>
	<g id="MTEXT_75_">
		<text transform="matrix(1 0 0 1 418.2432 507.9453)" fill="#0000FF" font-family="'ArialMT'" font-size="3.9671">Área= 4.77 m²</text>
	</g>
	<g id="MTEXT_76_">
		<text transform="matrix(1 0 0 1 366.2305 507.9453)" fill="#0000FF" font-family="'ArialMT'" font-size="3.9671">Área= 4.65 m²</text>
	</g>
	<g id="MTEXT_77_">
		<text transform="matrix(1 0 0 1 307.8677 508.25)" fill="#0000FF" font-family="'ArialMT'" font-size="3.9671">Área= 4.76 m²</text>
	</g>
	<g id="MTEXT_78_">
		<text transform="matrix(1 0 0 1 250.6709 508.0439)" fill="#0000FF" font-family="'ArialMT'" font-size="3.9671">Área= 5.73 m²</text>
	</g>
	<g id="MTEXT_79_">
		<text transform="matrix(1 0 0 1 232.8726 467.0469)" fill="#0000FF" font-family="'ArialMT'" font-size="3.9671">Área= 4.50 m²</text>
	</g>
	<g id="MTEXT_80_">
		<text transform="matrix(1 0 0 1 234.5625 424.6855)" fill="#0000FF" font-family="'ArialMT'" font-size="3.9671">Área= 3.93 m²</text>
	</g>
	<g id="MTEXT_81_">
		<text transform="matrix(1 0 0 1 234.6167 380.7285)" fill="#0000FF" font-family="'ArialMT'" font-size="3.9671">Área= 3.90 m²</text>
	</g>
	<g id="MTEXT_82_">
		<text transform="matrix(1 0 0 1 261.6069 288.5059)" fill="#0000FF" font-family="'ArialMT'" font-size="3.9671">Área= 1.04 m²</text>
	</g>
	<g id="MTEXT_83_">
		<text transform="matrix(1 0 0 1 234.4067 210.8721)" fill="#0000FF" font-family="'ArialMT'" font-size="3.9671">Área= 4.50 m²</text>
	</g>
	<g id="MTEXT_84_">
		<text transform="matrix(1 0 0 1 234.1206 153.9272)" fill="#0000FF" font-family="'ArialMT'" font-size="3.9671">Área= 4.52 m²</text>
	</g>
	<g id="MTEXT_85_">
		<text transform="matrix(1 0 0 1 234.7183 97.2202)" fill="#0000FF" font-family="'ArialMT'" font-size="3.9671">Área= 4.50 m²</text>
	</g>
	<g id="MTEXT_86_">
		<text transform="matrix(1 0 0 1 286.9209 115.8311)" fill="#0000FF" font-family="'ArialMT'" font-size="3.9671">Área= 3.91 m²</text>
	</g>
	<g id="MTEXT_87_">
		<text transform="matrix(1 0 0 1 313.0352 115.8604)" fill="#0000FF" font-family="'ArialMT'" font-size="3.9671">Área= 4.67 m²</text>
	</g>
	<g id="MTEXT_88_">
		<text transform="matrix(1 0 0 1 365.5962 115.9951)" fill="#0000FF" font-family="'ArialMT'" font-size="3.9671">Área= 3.91 m²</text>
	</g>
	<g id="MTEXT_89_">
		<text transform="matrix(1 0 0 1 391.752 115.6919)" fill="#0000FF" font-family="'ArialMT'" font-size="3.9671">Área= 3.91 m²</text>
	</g>
	<g id="MTEXT_90_">
		<text transform="matrix(1 0 0 1 286.96 163.0493)" fill="#0000FF" font-family="'ArialMT'" font-size="3.9671">Área= 3.91 m²</text>
	</g>
	<g id="MTEXT_91_">
		<text transform="matrix(1 0 0 1 313.167 163.2046)" fill="#0000FF" font-family="'ArialMT'" font-size="3.9671">Área= 3.70 m²</text>
	</g>
	<g id="MTEXT_92_">
		<text transform="matrix(1 0 0 1 286.6611 210.8433)" fill="#0000FF" font-family="'ArialMT'" font-size="3.9671">Área= 3.91 m²</text>
	</g>
	<g id="MTEXT_93_">
		<text transform="matrix(1 0 0 1 312.9595 210.8008)" fill="#0000FF" font-family="'ArialMT'" font-size="3.9671">Área= 3.80 m²</text>
	</g>
	<g id="MTEXT_94_">
		<text transform="matrix(1 0 0 1 365.3223 210.8374)" fill="#0000FF" font-family="'ArialMT'" font-size="3.9671">Área= 3.91 m²</text>
	</g>
	<g id="MTEXT_95_">
		<text transform="matrix(1 0 0 1 293.3071 288.0835)" fill="#0000FF" font-family="'ArialMT'" font-size="3.9671">Área= 4.14 m²</text>
	</g>
	<g id="MTEXT_96_">
		<text transform="matrix(1 0 0 1 323.3975 288.4277)" fill="#0000FF" font-family="'ArialMT'" font-size="3.9671">Área= 3.82 m²</text>
	</g>
	<g id="MTEXT_97_">
		<text transform="matrix(1 0 0 1 380.252 288.3291)" fill="#0000FF" font-family="'ArialMT'" font-size="3.9671">Área= 4.17 m²</text>
	</g>
	<g id="MTEXT_98_">
		<text transform="matrix(1 0 0 1 293.373 329.5186)" fill="#0000FF" font-family="'ArialMT'" font-size="3.9671">Área= 4.14 m²</text>
	</g>
	<g id="MTEXT_99_">
		<text transform="matrix(1 0 0 1 323.9512 329.6338)" fill="#0000FF" font-family="'ArialMT'" font-size="3.9671">Área= 4.07 m²</text>
	</g>
	<g id="MTEXT_100_">
		<text transform="matrix(1 0 0 1 379.9941 339.3223)" fill="#0000FF" font-family="'ArialMT'" font-size="3.9671">Área= 4.17 m²</text>
	</g>
	<g id="MTEXT_101_">
		<text transform="matrix(1 0 0 1 379.1587 389.7061)" fill="#0000FF" font-family="'ArialMT'" font-size="3.9671">Área= 4.17 m²</text>
	</g>
	<g id="MTEXT_102_">
		<text transform="matrix(1 0 0 1 324.0801 374.75)" fill="#0000FF" font-family="'ArialMT'" font-size="3.9671">Área= 3.98 m²</text>
	</g>
	<g id="MTEXT_103_">
		<text transform="matrix(1 0 0 1 292.2241 374.6797)" fill="#0000FF" font-family="'ArialMT'" font-size="3.9671">Área= 4.14 m²</text>
	</g>
	<g id="MTEXT_104_">
		<text transform="matrix(1 0 0 1 324.0288 417.5176)" fill="#0000FF" font-family="'ArialMT'" font-size="3.9671">Área= 4.08 m²</text>
	</g>
	<g id="MTEXT_105_">
		<text transform="matrix(1 0 0 1 380.2627 440.9961)" fill="#0000FF" font-family="'ArialMT'" font-size="3.9671">Área= 4.17 m²</text>
	</g>
	<g id="MTEXT_106_">
		<text transform="matrix(1 0 0 1 306.8472 452.1563)" fill="#0000FF" font-family="'ArialMT'" font-size="3.9671">Área= 5.00 m²</text>
	</g>
	<g id="MTEXT_107_">
		<text transform="matrix(1 0 0 1 487.7578 287.5859)" fill="#0000FF" font-family="'ArialMT'" font-size="3.9671">Área= 3.67 m²</text>
	</g>
	<g id="MTEXT_108_">
		<text transform="matrix(1 0 0 1 514.5303 287.98)" fill="#0000FF" font-family="'ArialMT'" font-size="3.9671">Área= 3.35 m²</text>
	</g>
	<g id="MTEXT_109_">
		<text transform="matrix(1 0 0 1 487.7158 329.7275)" fill="#0000FF" font-family="'ArialMT'" font-size="3.9671">Área= 3.48 m²</text>
	</g>
	<g id="MTEXT_110_">
		<text transform="matrix(1 0 0 1 514.8037 329.7705)" fill="#0000FF" font-family="'ArialMT'" font-size="3.9671">Área= 3.67 m²</text>
	</g>
	<g id="MTEXT_111_">
		<text transform="matrix(1 0 0 1 487.7949 375.0127)" fill="#0000FF" font-family="'ArialMT'" font-size="3.9671">Área= 3.39 m²</text>
	</g>
	<g id="MTEXT_112_">
		<text transform="matrix(1 0 0 1 514.6445 375.3135)" fill="#0000FF" font-family="'ArialMT'" font-size="3.9671">Área= 3.59 m²</text>
	</g>
	<g id="MTEXT_113_">
		<text transform="matrix(1 0 0 1 488.1543 418.4922)" fill="#0000FF" font-family="'ArialMT'" font-size="3.9671">Área= 3.40 m²</text>
	</g>
	<g id="MTEXT_114_">
		<text transform="matrix(1 0 0 1 514.9971 418.957)" fill="#0000FF" font-family="'ArialMT'" font-size="3.9671">Área= 3.58 m²</text>
	</g>
	<g id="MTEXT_115_">
		<text transform="matrix(1 0 0 1 501.8418 454.5234)" fill="#0000FF" font-family="'ArialMT'" font-size="3.9671">Área= 3.99 m²</text>
	</g>
	<g id="MTEXT_116_">
		<text transform="matrix(1 0 0 1 613.8252 40.5049)" fill="#0000FF" font-family="'ArialMT'" font-size="5.0064">Local 302</text>
	</g>
	<g id="MTEXT_117_">
		<text transform="matrix(1 0 0 1 611.376 51.498)" fill="#0000FF" font-family="'ArialMT'" font-size="3.9671">Área= 2.19 m²</text>
	</g>
	<g id="MTEXT_118_">
		<text transform="matrix(1 0 0 1 365.6318 163.1802)" fill="#0000FF" font-family="'ArialMT'" font-size="3.9671">Área= 3.91 m²</text>
	</g>
	<g id="MTEXT_119_">
		<text transform="matrix(1 0 0 1 391.6602 163.2813)" fill="#0000FF" font-family="'ArialMT'" font-size="3.9671">Área= 3.91 m²</text>
	</g>
	<g id="MTEXT_120_">
		<text transform="matrix(1 0 0 1 391.8711 210.7354)" fill="#0000FF" font-family="'ArialMT'" font-size="3.9671">Área= 3.91 m²</text>
	</g>
	<g id="MTEXT_121_">
		<text transform="matrix(1 0 0 1 293.3594 417.3457)" fill="#0000FF" font-family="'ArialMT'" font-size="3.9671">Área= 4.14 m²</text>
	</g>
	<g id="LWPOLYLINE_67_">
		
			<rect x="565.387" y="358.276" fill="none" stroke="#0000FF" stroke-width="0" stroke-linecap="round" stroke-linejoin="round" stroke-miterlimit="10" width="68.878" height="36.026"/>
	</g>
	<g id="MTEXT_128_">
		<text transform="matrix(1 0 0 1 591.9531 373.834)" fill="#0000FF" font-family="'ArialMT'" font-size="5.0064">Local 313</text>
	</g>
	<g id="MTEXT_129_">
		<text transform="matrix(1 0 0 1 590.8535 378.6533)" fill="#0000FF" font-family="'ArialMT'" font-size="3.9671">Área= 7.67 m²</text>
	</g>
	<g id="MTEXT_130_">
		<text transform="matrix(1 0 0 1 445.8857 109.4741)" fill="#0000FF" font-family="'ArialMT'" font-size="5.0064">Local 338</text>
	</g>
	<g id="MTEXT_131_">
		<text transform="matrix(1 0 0 1 446.043 156.6216)" fill="#0000FF" font-family="'ArialMT'" font-size="5.0064">Local 340</text>
	</g>
	<g id="MTEXT_132_">
		<text transform="matrix(1 0 0 1 445.9902 204.6357)" fill="#0000FF" font-family="'ArialMT'" font-size="5.0064">Local 342</text>
	</g>
	<g id="LWPOLYLINE_68_">
		
			<rect x="443.103" y="88.574" fill="none" stroke="#0000FF" stroke-width="0" stroke-linecap="round" stroke-linejoin="round" stroke-miterlimit="10" width="26.234" height="48.258"/>
	</g>
	<g id="LWPOLYLINE_69_">
		
			<rect x="443.103" y="136.833" fill="none" stroke="#0000FF" stroke-width="0" stroke-linecap="round" stroke-linejoin="round" stroke-miterlimit="10" width="26.234" height="48.258"/>
	</g>
	<g id="LWPOLYLINE_70_">
		
			<rect x="443.103" y="185.091" fill="none" stroke="#0000FF" stroke-width="0" stroke-linecap="round" stroke-linejoin="round" stroke-miterlimit="10" width="26.234" height="48.259"/>
	</g>
	<g id="MTEXT_133_">
		<text transform="matrix(1 0 0 1 444.2227 115.6919)" fill="#0000FF" font-family="'ArialMT'" font-size="3.9671">Área= 3.91 m²</text>
	</g>
	<g id="MTEXT_134_">
		<text transform="matrix(1 0 0 1 444.1299 163.2813)" fill="#0000FF" font-family="'ArialMT'" font-size="3.9671">Área= 3.91 m²</text>
	</g>
	<g id="MTEXT_135_">
		<text transform="matrix(1 0 0 1 444.3418 210.7354)" fill="#0000FF" font-family="'ArialMT'" font-size="3.9671">Área= 3.91 m²</text>
	</g>
</g>
<g id="AREAS_COMUNES">
	<g id="LWPOLYLINE_61_">
		
			<rect x="570.063" y="394.303" fill="none" stroke="#7FFF00" stroke-width="0" stroke-linecap="round" stroke-linejoin="round" stroke-miterlimit="10" width="64.202" height="36.867"/>
	</g>
	<g id="LWPOLYLINE_62_">
		
			<rect x="469.337" y="35.521" fill="none" stroke="#7FFF00" stroke-width="0" stroke-linecap="round" stroke-linejoin="round" stroke-miterlimit="10" width="129.434" height="225.999"/>
	</g>
	<g id="LWPOLYLINE_63_">
		
			<rect x="405.562" y="261.52" fill="none" stroke="#7FFF00" stroke-width="0" stroke-linecap="round" stroke-linejoin="round" stroke-miterlimit="10" width="80.161" height="226.79"/>
	</g>
	<g id="MTEXT_122_">
		<text transform="matrix(1 0 0 1 511.5918 125.3057)" fill="#7FFF00" font-family="'CenturyGothic'" font-size="7.9341">Área de mesas</text>
		<text transform="matrix(1 0 0 1 515.8291 134.7617)" fill="#7FFF00" font-family="'CenturyGothic'" font-size="7.9341">y circulación</text>
	</g>
	<g id="MTEXT_123_">
		<text transform="matrix(1 0 0 1 419.7871 372.2686)" fill="#7FFF00" font-family="'CenturyGothic'" font-size="7.9341">Área de mesas</text>
		<text transform="matrix(1 0 0 1 424.0244 381.7246)" fill="#7FFF00" font-family="'CenturyGothic'" font-size="7.9341">y circulación</text>
	</g>
	<g id="MTEXT_124_">
		<text transform="matrix(1 0 0 1 586.5674 421.3252)" fill="#7FFF00" font-family="'CenturyGothic'" font-size="7.9341">Escalera</text>
	</g>
	<g id="LWPOLYLINE_64_">
		
			<rect x="232.396" y="250.425" fill="none" stroke="#7FFF00" stroke-width="0" stroke-linecap="round" stroke-linejoin="round" stroke-miterlimit="10" width="27.06" height="100.596"/>
	</g>
	<g id="MTEXT_125_">
		<text transform="matrix(1 0 0 1 230.4194 308.6162)" fill="#7FFF00" font-family="'CenturyGothic'" font-size="7.9341">Escalera</text>
	</g>
	<g id="LWPOLYLINE_65_">
		
			<rect x="454.177" y="8.546" fill="none" stroke="#7FFF00" stroke-width="0" stroke-linecap="round" stroke-linejoin="round" stroke-miterlimit="10" width="120.471" height="26.976"/>
	</g>
	<g id="MTEXT_126_">
		<text transform="matrix(1 0 0 1 493.3867 22.9023)" fill="#7FFF00" font-family="'CenturyGothic'" font-size="7.9341">Escalera</text>
	</g>
	<g id="LWPOLYLINE_66_">
		
			<rect x="607.335" y="226.884" fill="none" stroke="#7FFF00" stroke-width="0.3823" stroke-linecap="round" stroke-linejoin="round" stroke-miterlimit="10" width="25.896" height="37.227"/>
	</g>
	<g id="MTEXT_127_">
		<text transform="matrix(1 0 0 1 607.2012 246.3154)" fill="#7FFF00" font-family="'Arial-BoldMT'" font-size="5.502">ELEVADOR</text>
	</g>
</g>
</svg>
