<?xml version="1.0" encoding="utf-8"?>
<!-- Generator: Adobe Illustrator 16.0.0, SVG Export Plug-In . SVG Version: 6.00 Build 0)  -->
<!DOCTYPE svg PUBLIC "-//W3C//DTD SVG 1.1//EN" "http://www.w3.org/Graphics/SVG/1.1/DTD/svg11.dtd">
<svg version="1.1" xmlns="http://www.w3.org/2000/svg" xmlns:xlink="http://www.w3.org/1999/xlink" x="0px" y="0px" width="800px"
	 height="600px" viewBox="0 0 800 600" enable-background="new 0 0 800 600" xml:space="preserve">
<g id="_x30_">
	<g id="MTEXT">
		<text transform="matrix(1 0 0 1 438.8721 544.6094)" font-family="'Arial-BoldMT'" font-size="20.047">1ER. NIVEL - BAZAR</text>
	</g>
	<g id="MTEXT_1_">
		<text transform="matrix(1 0 0 1 496.6758 574.124)" font-family="'Arial-BoldMT'" font-size="20.047">Arquitectónico</text>
	</g>
</g>
<g id="AREA__x28_POLILINEA_x29_">
	<g id="MTEXT_2_">
		<text transform="matrix(1 0 0 1 297.7598 413.8252)" fill="#0000FF" font-family="'ArialMT'" font-size="4.9831">LOCAL 42</text>
	</g>
	<g id="MTEXT_3_">
		<text transform="matrix(1 0 0 1 329.083 413.4805)" fill="#0000FF" font-family="'ArialMT'" font-size="4.9831">LOCAL 43</text>
	</g>
	<g id="MTEXT_4_">
		<text transform="matrix(1 0 0 1 503.334 412.9639)" fill="#0000FF" font-family="'ArialMT'" font-size="4.9831">LOCAL 44</text>
	</g>
	<g id="MTEXT_5_">
		<text transform="matrix(1 0 0 1 531.0303 413.0889)" fill="#0000FF" font-family="'ArialMT'" font-size="4.9831">LOCAL 45</text>
	</g>
	<g id="MTEXT_6_">
		<text transform="matrix(1 0 0 1 596.7354 460.2773)" fill="#0000FF" font-family="'ArialMT'" font-size="4.9831">LOCAL 52</text>
	</g>
	<g id="MTEXT_7_">
		<text transform="matrix(1 0 0 1 524.3965 470.0596)" fill="#0000FF" font-family="'ArialMT'" font-size="4.9831">LOCAL 51</text>
	</g>
	<g id="MTEXT_8_">
		<text transform="matrix(1 0 0 1 468.7246 471.0605)" fill="#0000FF" font-family="'ArialMT'" font-size="4.9831">LOCAL 50</text>
	</g>
	<g id="MTEXT_9_">
		<text transform="matrix(1 0 0 1 410.6152 471.0059)" fill="#0000FF" font-family="'ArialMT'" font-size="4.9831">LOCAL 49</text>
	</g>
	<g id="MTEXT_10_">
		<text transform="matrix(1 0 0 1 355.4478 470.6855)" fill="#0000FF" font-family="'ArialMT'" font-size="4.9831">LOCAL48</text>
	</g>
	<g id="MTEXT_11_">
		<text transform="matrix(1 0 0 1 298.7563 470.1123)" fill="#0000FF" font-family="'ArialMT'" font-size="4.9831">LOCAL 47</text>
	</g>
	<g id="MTEXT_12_">
		<text transform="matrix(1 0 0 1 234.6426 455.7588)" fill="#0000FF" font-family="'ArialMT'" font-size="4.9831">LOCAL 46</text>
	</g>
	<g id="MTEXT_13_">
		<text transform="matrix(1 0 0 1 299.0508 368.2627)" fill="#0000FF" font-family="'ArialMT'" font-size="4.9831">LOCAL 2</text>
	</g>
	<g id="MTEXT_14_">
		<text transform="matrix(1 0 0 1 313.8379 327.541)" fill="#0000FF" font-family="'ArialMT'" font-size="4.9831">LOCAL 10</text>
	</g>
	<g id="MTEXT_15_">
		<text transform="matrix(1 0 0 1 302.3643 235.9727)" fill="#0000FF" font-family="'ArialMT'" font-size="4.9831">LOCAL17</text>
	</g>
	<g id="MTEXT_16_">
		<text transform="matrix(1 0 0 1 300.4331 170.4053)" fill="#0000FF" font-family="'ArialMT'" font-size="4.9831">LOCAL 24</text>
	</g>
	<g id="MTEXT_17_">
		<text transform="matrix(1 0 0 1 332.3916 369)" fill="#0000FF" font-family="'ArialMT'" font-size="4.9831">LOCAL 3</text>
	</g>
	<g id="MTEXT_18_">
		<text transform="matrix(1 0 0 1 331.2573 170.7139)" fill="#0000FF" font-family="'ArialMT'" font-size="4.9831">LOCAL 25</text>
	</g>
	<g id="MTEXT_19_">
		<text transform="matrix(1 0 0 1 331.2002 236.0576)" fill="#0000FF" font-family="'ArialMT'" font-size="4.9831">LOCAL 18</text>
	</g>
	<g id="MTEXT_20_">
		<text transform="matrix(1 0 0 1 386.083 169.3838)" fill="#0000FF" font-family="'ArialMT'" font-size="4.9831">LOCAL 26</text>
	</g>
	<g id="MTEXT_21_">
		<text transform="matrix(1 0 0 1 387.3247 235.0068)" fill="#0000FF" font-family="'ArialMT'" font-size="4.9831">LOCAL19</text>
	</g>
	<g id="MTEXT_22_">
		<text transform="matrix(1 0 0 1 419.6465 255.6055)" fill="#0000FF" font-family="'ArialMT'" font-size="4.9831">LOCAL 41</text>
	</g>
	<g id="MTEXT_23_">
		<text transform="matrix(1 0 0 1 452.5234 233.1763)" fill="#0000FF" font-family="'ArialMT'" font-size="4.9831">LOCAL20</text>
	</g>
	<g id="MTEXT_24_">
		<text transform="matrix(1 0 0 1 451.2764 171.0127)" fill="#0000FF" font-family="'ArialMT'" font-size="4.9831">LOCAL 27</text>
	</g>
	<g id="MTEXT_25_">
		<text transform="matrix(1 0 0 1 505.9727 235.3643)" fill="#0000FF" font-family="'ArialMT'" font-size="4.9831">LOCAL 21</text>
	</g>
	<g id="MTEXT_26_">
		<text transform="matrix(1 0 0 1 506.0342 167.291)" fill="#0000FF" font-family="'ArialMT'" font-size="4.9831">LOCAL 28</text>
	</g>
	<g id="MTEXT_27_">
		<text transform="matrix(1 0 0 1 534.3613 167.2651)" fill="#0000FF" font-family="'ArialMT'" font-size="4.9831">LOCAL 29</text>
	</g>
	<g id="MTEXT_28_">
		<text transform="matrix(1 0 0 1 533.6729 235.5273)" fill="#0000FF" font-family="'ArialMT'" font-size="4.9831">LOCAL 22</text>
	</g>
	<g id="MTEXT_29_">
		<text transform="matrix(1 0 0 1 519.1729 326.5391)" fill="#0000FF" font-family="'ArialMT'" font-size="4.9831">LOCAL 13</text>
	</g>
	<g id="MTEXT_30_">
		<text transform="matrix(1 0 0 1 449.5635 342.2559)" fill="#0000FF" font-family="'ArialMT'" font-size="4.9831">LOCAL 12</text>
	</g>
	<g id="MTEXT_31_">
		<text transform="matrix(1 0 0 1 388.0591 341.1855)" fill="#0000FF" font-family="'ArialMT'" font-size="4.9831">LOCAL11</text>
	</g>
	<g id="MTEXT_32_">
		<text transform="matrix(1 0 0 1 388.0195 400.7598)" fill="#0000FF" font-family="'ArialMT'" font-size="4.9831">LOCAL 4</text>
	</g>
	<g id="MTEXT_33_">
		<text transform="matrix(1 0 0 1 451.2119 398.9727)" fill="#0000FF" font-family="'ArialMT'" font-size="4.9831">LOCAL 5</text>
	</g>
	<g id="MTEXT_34_">
		<text transform="matrix(1 0 0 1 419.7305 425.4238)" fill="#0000FF" font-family="'ArialMT'" font-size="4.9831">LOCAL 57</text>
	</g>
	<g id="MTEXT_35_">
		<text transform="matrix(1 0 0 1 593.5859 408.627)" fill="#0000FF" font-family="'ArialMT'" font-size="4.9831">LOCAL 53</text>
	</g>
	<g id="MTEXT_36_">
		<text transform="matrix(1 0 0 1 593.2432 369.9268)" fill="#0000FF" font-family="'ArialMT'" font-size="4.9831">LOCAL 8</text>
	</g>
	<g id="MTEXT_37_">
		<text transform="matrix(1 0 0 1 532.5205 370.7852)" fill="#0000FF" font-family="'ArialMT'" font-size="4.9831">LOCAL 7</text>
	</g>
	<g id="MTEXT_38_">
		<text transform="matrix(1 0 0 1 504.4893 370.9092)" fill="#0000FF" font-family="'ArialMT'" font-size="4.9831">LOCAL 6</text>
	</g>
	<g id="MTEXT_39_">
		<text transform="matrix(1 0 0 1 596.0137 310.9668)" fill="#0000FF" font-family="'ArialMT'" font-size="4.9831">LOCAL 14</text>
	</g>
	<g id="MTEXT_40_">
		<text transform="matrix(1 0 0 1 595.9824 242.2422)" fill="#0000FF" font-family="'ArialMT'" font-size="4.9831">LOCAL 40</text>
	</g>
	<g id="MTEXT_41_">
		<text transform="matrix(1 0 0 1 596.2715 204.6553)" fill="#0000FF" font-family="'ArialMT'" font-size="4.9831">LOCAL 39</text>
	</g>
	<g id="MTEXT_42_">
		<text transform="matrix(1 0 0 1 593.9189 135.9609)" fill="#0000FF" font-family="'ArialMT'" font-size="4.9831">LOCAL 30</text>
	</g>
	<g id="MTEXT_43_">
		<text transform="matrix(1 0 0 1 596.7793 63.6909)" fill="#0000FF" font-family="'ArialMT'" font-size="4.9831">LOCAL 34</text>
	</g>
	<g id="MTEXT_44_">
		<text transform="matrix(1 0 0 1 569.2324 21.105)" fill="#0000FF" font-family="'ArialMT'" font-size="4.9831">LOCAL 38</text>
	</g>
	<g id="MTEXT_45_">
		<text transform="matrix(1 0 0 1 492.29 21.4277)" fill="#0000FF" font-family="'ArialMT'" font-size="4.9831">LOCAL 37</text>
	</g>
	<g id="MTEXT_46_">
		<text transform="matrix(1 0 0 1 449.6113 28.249)" fill="#0000FF" font-family="'ArialMT'" font-size="4.9831">LOCAL 36</text>
	</g>
	<g id="MTEXT_47_">
		<text transform="matrix(1 0 0 1 236.5063 168.8438)" fill="#0000FF" font-family="'ArialMT'" font-size="4.9831">LOCAL 23</text>
	</g>
	<g id="MTEXT_48_">
		<text transform="matrix(1 0 0 1 237.0654 228.0117)" fill="#0000FF" font-family="'ArialMT'" font-size="4.9831">LOCAL16</text>
	</g>
	<g id="MTEXT_49_">
		<text transform="matrix(1 0 0 1 235.0293 288.6792)" fill="#0000FF" font-family="'ArialMT'" font-size="4.9831">LOCAL 15</text>
	</g>
	<g id="MTEXT_50_">
		<text transform="matrix(1 0 0 1 237.1055 337.0215)" fill="#0000FF" font-family="'ArialMT'" font-size="4.9831">LOCAL 9</text>
	</g>
	<g id="MTEXT_51_">
		<text transform="matrix(1 0 0 1 237.4097 399.9912)" fill="#0000FF" font-family="'ArialMT'" font-size="4.9831">LOCAL1</text>
	</g>
	<g id="MTEXT_52_">
		<text transform="matrix(1 0 0 1 450.0684 435.1504)" fill="#0000FF" font-family="'ArialMT'" font-size="4.9831">LOCAL 55</text>
	</g>
	<g id="MTEXT_53_">
		<text transform="matrix(1 0 0 1 386.6914 435.542)" fill="#0000FF" font-family="'ArialMT'" font-size="4.9831">LOCAL 54</text>
	</g>
	<g id="MTEXT_54_">
		<text transform="matrix(1 0 0 1 331.5864 54.4497)" fill="#0000FF" font-family="'ArialMT'" font-size="4.9831">LOCAL 61</text>
		<text transform="matrix(1 0 0 1 331.417 60.1514)" fill="#0000FF" font-family="'ArialMT'" font-size="4.9831">1/2 ALTURA</text>
	</g>
	<g id="MTEXT_55_">
		<text transform="matrix(1 0 0 1 375.0454 34.0293)" fill="#0000FF" font-family="'ArialMT'" font-size="4.9831">LOCAL 62</text>
		<text transform="matrix(1 0 0 1 375.3975 39.7314)" fill="#0000FF" font-family="'ArialMT'" font-size="4.9831">A 1/2 </text>
		<text transform="matrix(1 0 0 1 375.3975 45.3794)" fill="#0000FF" font-family="'ArialMT'" font-size="4.9831">ALTURA</text>
	</g>
	<g id="MTEXT_56_">
		<text transform="matrix(1 0 0 1 416.8252 35.9473)" fill="#0000FF" font-family="'ArialMT'" font-size="4.9831">LOCAL 31 </text>
		<text transform="matrix(1 0 0 1 414.0684 41.6489)" fill="#0000FF" font-family="'ArialMT'" font-size="4.9831">1/2 ALTURA</text>
	</g>
	<g id="MTEXT_57_">
		<text transform="matrix(1 0 0 1 533.7334 89.6494)" fill="#0000FF" font-family="'ArialMT'" font-size="4.9831">LOCAL 33</text>
	</g>
	<g id="MTEXT_58_">
		<text transform="matrix(1 0 0 1 505.959 76.0571)" fill="#0000FF" font-family="'ArialMT'" font-size="4.9831">LOCAL 32</text>
	</g>
	<g id="LWPOLYLINE">
		
			<rect x="363.036" y="7.636" fill="none" stroke="#0000FF" stroke-width="0" stroke-linecap="round" stroke-linejoin="round" stroke-miterlimit="10" width="42.961" height="59.608"/>
	</g>
	<g id="LWPOLYLINE_1_">
		
			<rect x="405.997" y="7.636" fill="none" stroke="#0000FF" stroke-width="0" stroke-linecap="round" stroke-linejoin="round" stroke-miterlimit="10" width="41.351" height="59.608"/>
	</g>
	<g id="LWPOLYLINE_2_">
		
			<polygon fill="none" stroke="#0000FF" stroke-width="0" stroke-linecap="round" stroke-linejoin="round" stroke-miterlimit="10" points="
			473.322,35.381 472.428,35.381 472.401,7.636 447.348,7.636 447.348,67.244 463.458,67.244 		"/>
	</g>
	<g id="LWPOLYLINE_3_">
		
			<polygon fill="none" stroke="#0000FF" stroke-width="0" stroke-linecap="round" stroke-linejoin="round" stroke-miterlimit="10" points="
			472.401,7.636 472.401,35.381 527.909,35.381 527.909,8.531 518.782,8.531 518.782,7.636 		"/>
	</g>
	<g id="LWPOLYLINE_4_">
		
			<polygon fill="none" stroke="#0000FF" stroke-width="0" stroke-linecap="round" stroke-linejoin="round" stroke-miterlimit="10" points="
			527.909,8.531 527.909,35.381 629.931,35.381 629.931,8.531 625.456,8.531 625.456,7.636 529.522,7.636 529.522,8.531 		"/>
	</g>
	<g id="LWPOLYLINE_5_">
		
			<polygon fill="none" stroke="#0000FF" stroke-width="0" stroke-linecap="round" stroke-linejoin="round" stroke-miterlimit="10" points="
			582.494,35.381 582.494,107.789 626.352,107.789 626.352,97.138 625.456,97.138 625.456,88.188 629.931,88.188 629.931,35.381 		
			"/>
	</g>
	<g id="LWPOLYLINE_6_">
		
			<rect x="582.495" y="107.789" fill="none" stroke="#0000FF" stroke-width="0" stroke-linecap="round" stroke-linejoin="round" stroke-miterlimit="10" width="43.855" height="63.636"/>
	</g>
	<g id="LWPOLYLINE_7_">
		
			<polyline fill="none" stroke="#0000FF" stroke-width="0" stroke-linecap="round" stroke-linejoin="round" stroke-miterlimit="10" points="
			582.494,188.43 582.494,226.021 632.616,226.021 632.616,188.43 625.456,188.43 625.456,187.535 582.494,187.535 		"/>
	</g>
	<g id="LWPOLYLINE_8_">
		
			<polyline fill="none" stroke="#0000FF" stroke-width="0" stroke-linecap="round" stroke-linejoin="round" stroke-miterlimit="10" points="
			582.494,187.535 582.494,226.021 632.616,226.021 632.616,188.43 625.456,188.43 625.456,187.535 582.494,187.535 		"/>
	</g>
	<g id="LWPOLYLINE_9_">
		
			<polygon fill="none" stroke="#0000FF" stroke-width="0" stroke-linecap="round" stroke-linejoin="round" stroke-miterlimit="10" points="
			582.494,226.021 582.494,264.506 625.456,264.506 625.456,263.611 632.616,263.611 632.616,226.021 		"/>
	</g>
	<g id="LWPOLYLINE_10_">
		
			<polygon fill="none" stroke="#0000FF" stroke-width="0" stroke-linecap="round" stroke-linejoin="round" stroke-miterlimit="10" points="
			582.494,271.666 582.494,351.323 603.081,351.323 603.081,347.743 626.352,347.743 626.352,272.561 625.456,272.561 
			625.456,269.876 590.55,269.876 590.55,271.666 		"/>
	</g>
	<g id="LWPOLYLINE_11_">
		
			<polygon fill="none" stroke="#0000FF" stroke-width="0" stroke-linecap="round" stroke-linejoin="round" stroke-miterlimit="10" points="
			603.081,351.323 582.494,351.323 582.494,388.511 626.352,388.511 626.352,355.798 625.456,355.798 625.456,354.903 
			603.081,354.903 		"/>
	</g>
	<g id="LWPOLYLINE_12_">
		
			<polygon fill="none" stroke="#0000FF" stroke-width="0" stroke-linecap="round" stroke-linejoin="round" stroke-miterlimit="10" points="
			582.494,388.511 582.494,434.609 625.456,434.609 625.457,429.189 626.352,429.189 626.352,388.511 		"/>
	</g>
	<g id="LWPOLYLINE_13_">
		
			<polygon fill="none" stroke="#0000FF" stroke-width="0" stroke-linecap="round" stroke-linejoin="round" stroke-miterlimit="10" points="
			582.494,434.609 582.496,460.067 560.657,460.067 560.657,482.443 627.246,482.443 627.246,481.548 632.616,481.548 
			632.616,438.14 625.456,438.14 625.456,434.609 		"/>
	</g>
	<g id="LWPOLYLINE_14_">
		
			<rect x="505.215" y="460.067" fill="none" stroke="#0000FF" stroke-width="0" stroke-linecap="round" stroke-linejoin="round" stroke-miterlimit="10" width="55.442" height="22.376"/>
	</g>
	<g id="LWPOLYLINE_15_">
		
			<rect x="449.773" y="460.067" fill="none" stroke="#0000FF" stroke-width="0" stroke-linecap="round" stroke-linejoin="round" stroke-miterlimit="10" width="55.441" height="22.376"/>
	</g>
	<g id="LWPOLYLINE_16_">
		
			<rect x="392.751" y="460.067" fill="none" stroke="#0000FF" stroke-width="0" stroke-linecap="round" stroke-linejoin="round" stroke-miterlimit="10" width="57.022" height="22.376"/>
	</g>
	<g id="LWPOLYLINE_17_">
		
			<rect x="335.47" y="460.067" fill="none" stroke="#0000FF" stroke-width="0" stroke-linecap="round" stroke-linejoin="round" stroke-miterlimit="10" width="57.282" height="22.376"/>
	</g>
	<g id="LWPOLYLINE_18_">
		
			<rect x="279.104" y="460.067" fill="none" stroke="#0000FF" stroke-width="0" stroke-linecap="round" stroke-linejoin="round" stroke-miterlimit="10" width="56.366" height="22.376"/>
	</g>
	<g id="LWPOLYLINE_19_">
		
			<polygon fill="none" stroke="#0000FF" stroke-width="0" stroke-linecap="round" stroke-linejoin="round" stroke-miterlimit="10" points="
			279.104,460.067 260.401,460.067 260.288,433.299 233.438,433.299 233.438,438.14 228.962,438.14 228.962,481.547 
			231.647,481.547 231.647,482.443 279.104,482.443 		"/>
	</g>
	<g id="LWPOLYLINE_20_">
		
			<polygon fill="none" stroke="#0000FF" stroke-width="0" stroke-linecap="round" stroke-linejoin="round" stroke-miterlimit="10" points="
			260.288,433.299 260.288,373.337 232.542,373.337 232.542,429.189 233.438,429.189 233.438,433.299 		"/>
	</g>
	<g id="LWPOLYLINE_21_">
		
			<polygon fill="none" stroke="#0000FF" stroke-width="0" stroke-linecap="round" stroke-linejoin="round" stroke-miterlimit="10" points="
			260.288,373.337 260.288,315.161 232.542,315.161 232.542,346.848 233.438,346.848 233.438,347.743 236.123,347.743 
			236.123,354.903 233.438,354.903 233.438,355.798 232.542,355.798 232.542,373.337 		"/>
	</g>
	<g id="LWPOLYLINE_22_">
		
			<polygon fill="none" stroke="#0000FF" stroke-width="0" stroke-linecap="round" stroke-linejoin="round" stroke-miterlimit="10" points="
			260.288,315.161 260.288,256.986 232.542,256.986 232.542,263.611 233.438,263.611 233.438,264.506 236.123,264.506 
			236.123,271.666 233.438,271.666 233.438,272.561 232.542,272.561 232.542,315.161 		"/>
	</g>
	<g id="LWPOLYLINE_23_">
		
			<polyline fill="none" stroke="#0000FF" stroke-width="0" stroke-linecap="round" stroke-linejoin="round" stroke-miterlimit="10" points="
			232.542,256.986 260.288,256.986 260.288,198.778 232.542,198.761 232.542,256.986 		"/>
	</g>
	<g id="LWPOLYLINE_24_">
		
			<polygon fill="none" stroke="#0000FF" stroke-width="0" stroke-linecap="round" stroke-linejoin="round" stroke-miterlimit="10" points="
			232.542,198.761 260.288,198.761 260.288,139.193 232.542,139.193 232.542,179.479 233.438,179.479 233.438,188.43 
			232.542,188.43 		"/>
	</g>
	<g id="LWPOLYLINE_25_">
		
			<polygon fill="none" stroke="#0000FF" stroke-width="0" stroke-linecap="round" stroke-linejoin="round" stroke-miterlimit="10" points="
			502.839,62.232 502.839,115.933 530.584,115.933 530.584,97.138 518.949,97.138 518.949,88.188 530.584,88.188 530.584,62.232 		
			"/>
	</g>
	<g id="LWPOLYLINE_26_">
		
			<rect x="530.584" y="62.232" fill="none" stroke="#0000FF" stroke-width="0" stroke-linecap="round" stroke-linejoin="round" stroke-miterlimit="10" width="27.746" height="53.701"/>
	</g>
	<g id="LWPOLYLINE_27_">
		
			<polygon fill="none" stroke="#0000FF" stroke-width="0" stroke-linecap="round" stroke-linejoin="round" stroke-miterlimit="10" points="
			502.839,142.834 502.839,207.773 530.584,207.773 530.584,188.43 518.949,188.43 518.949,179.479 530.584,179.479 
			530.584,142.834 		"/>
	</g>
	<g id="LWPOLYLINE_28_">
		
			<rect x="530.584" y="142.834" fill="none" stroke="#0000FF" stroke-width="0" stroke-linecap="round" stroke-linejoin="round" stroke-miterlimit="10" width="27.746" height="64.939"/>
	</g>
	<g id="LWPOLYLINE_29_">
		
			<rect x="295.194" y="143.249" fill="none" stroke="#0000FF" stroke-width="0" stroke-linecap="round" stroke-linejoin="round" stroke-miterlimit="10" width="33.116" height="64.656"/>
	</g>
	<g id="LWPOLYLINE_30_">
		
			<polygon fill="none" stroke="#0000FF" stroke-width="0" stroke-linecap="round" stroke-linejoin="round" stroke-miterlimit="10" points="
			328.31,143.249 328.31,179.479 339.945,179.479 339.945,188.43 328.31,188.43 328.31,207.905 356.055,207.896 356.055,143.249 		
			"/>
	</g>
	<g id="LWPOLYLINE_31_">
		
			<polygon fill="none" stroke="#0000FF" stroke-width="0" stroke-linecap="round" stroke-linejoin="round" stroke-miterlimit="10" points="
			295.194,207.905 295.194,272.561 327.235,272.74 327.235,259.853 328.31,259.853 328.31,207.905 		"/>
	</g>
	<g id="LWPOLYLINE_32_">
		
			<polygon fill="none" stroke="#0000FF" stroke-width="0" stroke-linecap="round" stroke-linejoin="round" stroke-miterlimit="10" points="
			356.055,207.905 328.31,207.905 328.31,259.853 340.124,259.853 340.124,272.74 356.055,272.74 		"/>
	</g>
	<g id="LWPOLYLINE_33_">
		
			<rect x="382.906" y="142.323" fill="none" stroke="#0000FF" stroke-width="0" stroke-linecap="round" stroke-linejoin="round" stroke-miterlimit="10" width="28.448" height="63.112"/>
	</g>
	<g id="LWPOLYLINE_34_">
		
			<rect x="382.906" y="205.435" fill="none" stroke="#0000FF" stroke-width="0" stroke-linecap="round" stroke-linejoin="round" stroke-miterlimit="10" width="28.448" height="63.547"/>
	</g>
	<g id="LWPOLYLINE_35_">
		
			<rect x="448.242" y="142.74" fill="none" stroke="#0000FF" stroke-width="0" stroke-linecap="round" stroke-linejoin="round" stroke-miterlimit="10" width="27.745" height="62.694"/>
	</g>
	<g id="LWPOLYLINE_36_">
		
			<rect x="448.242" y="205.435" fill="none" stroke="#0000FF" stroke-width="0" stroke-linecap="round" stroke-linejoin="round" stroke-miterlimit="10" width="27.745" height="63.547"/>
	</g>
	<g id="LWPOLYLINE_37_">
		
			<polygon fill="none" stroke="#0000FF" stroke-width="0" stroke-linecap="round" stroke-linejoin="round" stroke-miterlimit="10" points="
			530.584,207.773 502.839,207.773 502.839,272.561 516.979,272.561 516.979,259.853 530.584,259.853 		"/>
	</g>
	<g id="LWPOLYLINE_38_">
		
			<polygon fill="none" stroke="#0000FF" stroke-width="0" stroke-linecap="round" stroke-linejoin="round" stroke-miterlimit="10" points="
			530.584,207.773 530.584,272.74 558.33,272.561 558.33,207.773 		"/>
	</g>
	<g id="LWPOLYLINE_39_">
		
			<polygon fill="none" stroke="#0000FF" stroke-width="0" stroke-linecap="round" stroke-linejoin="round" stroke-miterlimit="10" points="
			292.957,313.275 292.957,341.836 341.377,341.836 341.377,340.94 356.413,340.94 356.413,313.275 		"/>
	</g>
	<g id="LWPOLYLINE_40_">
		
			<rect x="292.957" y="341.836" fill="none" stroke="#0000FF" stroke-width="0" stroke-linecap="round" stroke-linejoin="round" stroke-miterlimit="10" width="31.281" height="54.596"/>
	</g>
	<g id="LWPOLYLINE_41_">
		
			<polygon fill="none" stroke="#0000FF" stroke-width="0" stroke-linecap="round" stroke-linejoin="round" stroke-miterlimit="10" points="
			341.377,341.836 324.237,341.836 324.237,396.432 356.413,396.432 356.413,355.978 341.377,355.978 		"/>
	</g>
	<g id="LWPOLYLINE_42_">
		
			<rect x="292.957" y="396.432" fill="none" stroke="#0000FF" stroke-width="0" stroke-linecap="round" stroke-linejoin="round" stroke-miterlimit="10" width="31.281" height="42.111"/>
	</g>
	<g id="LWPOLYLINE_43_">
		
			<polygon fill="none" stroke="#0000FF" stroke-width="0" stroke-linecap="round" stroke-linejoin="round" stroke-miterlimit="10" points="
			324.237,396.432 324.237,438.543 343.167,438.543 343.167,423.508 358.204,423.508 356.413,397.327 356.413,396.432 		"/>
	</g>
	<g id="LWPOLYLINE_44_">
		
			<rect x="385.501" y="315.901" fill="none" stroke="#0000FF" stroke-width="0" stroke-linecap="round" stroke-linejoin="round" stroke-miterlimit="10" width="25.15" height="57.28"/>
	</g>
	<g id="LWPOLYLINE_45_">
		
			<rect x="385.501" y="373.182" fill="none" stroke="#0000FF" stroke-width="0" stroke-linecap="round" stroke-linejoin="round" stroke-miterlimit="10" width="25.15" height="57.282"/>
	</g>
	<g id="LWPOLYLINE_46_">
		
			<rect x="448.242" y="315.901" fill="none" stroke="#0000FF" stroke-width="0" stroke-linecap="round" stroke-linejoin="round" stroke-miterlimit="10" width="24.971" height="57.335"/>
	</g>
	<g id="LWPOLYLINE_47_">
		
			<polygon fill="none" stroke="#0000FF" stroke-width="0" stroke-linecap="round" stroke-linejoin="round" stroke-miterlimit="10" points="
			448.242,373.182 448.242,429.568 473.327,429.568 473.213,373.236 		"/>
	</g>
	<g id="LWPOLYLINE_48_">
		
			<rect x="385.569" y="431.358" fill="none" stroke="#0000FF" stroke-width="0" stroke-linecap="round" stroke-linejoin="round" stroke-miterlimit="10" width="24.188" height="8.999"/>
	</g>
	<g id="LWPOLYLINE_49_">
		
			<rect x="449.138" y="430.464" fill="none" stroke="#0000FF" stroke-width="0" stroke-linecap="round" stroke-linejoin="round" stroke-miterlimit="10" width="24.187" height="9.894"/>
	</g>
	<g id="LWPOLYLINE_50_">
		
			<polygon fill="none" stroke="#0000FF" stroke-width="0" stroke-linecap="round" stroke-linejoin="round" stroke-miterlimit="10" points="
			500.242,313.178 500.242,340.94 515.465,340.94 515.465,341.836 555.734,341.836 555.734,313.178 		"/>
	</g>
	<g id="LWPOLYLINE_51_">
		
			<polygon fill="none" stroke="#0000FF" stroke-width="0" stroke-linecap="round" stroke-linejoin="round" stroke-miterlimit="10" points="
			500.242,355.978 500.242,396.432 527.989,396.432 527.989,341.836 515.465,341.836 515.465,355.978 		"/>
	</g>
	<g id="LWPOLYLINE_52_">
		
			<rect x="527.989" y="341.836" fill="none" stroke="#0000FF" stroke-width="0" stroke-linecap="round" stroke-linejoin="round" stroke-miterlimit="10" width="27.745" height="54.596"/>
	</g>
	<g id="LWPOLYLINE_53_">
		
			<rect x="527.989" y="396.432" fill="none" stroke="#0000FF" stroke-width="0" stroke-linecap="round" stroke-linejoin="round" stroke-miterlimit="10" width="27.745" height="42.12"/>
	</g>
	<g id="LWPOLYLINE_54_">
		
			<polygon fill="none" stroke="#0000FF" stroke-width="0" stroke-linecap="round" stroke-linejoin="round" stroke-miterlimit="10" points="
			500.242,396.432 500.242,423.516 515.465,423.516 515.465,438.552 527.989,438.552 527.989,396.432 		"/>
	</g>
	<g id="LWPOLYLINE_55_">
		
			<polygon fill="none" stroke="#0000FF" stroke-width="0" stroke-linecap="round" stroke-linejoin="round" stroke-miterlimit="10" points="
			329.233,7.636 320.73,7.636 320.73,42.184 317.15,42.184 317.15,91.41 342.988,91.41 342.988,86.755 354.981,86.755 
			362.141,67.244 363.036,67.244 363.036,7.636 339.945,7.636 339.945,8.531 329.233,8.531 		"/>
	</g>
	<g id="LWPOLYLINE_56_">
		
			<rect x="411.354" y="243.921" fill="none" stroke="#0000FF" stroke-width="0" stroke-linecap="round" stroke-linejoin="round" stroke-miterlimit="10" width="36.889" height="25.061"/>
	</g>
	<g id="LWPOLYLINE_57_">
		
			<rect x="410.651" y="414.89" fill="none" stroke="#0000FF" stroke-width="0" stroke-linecap="round" stroke-linejoin="round" stroke-miterlimit="10" width="37.591" height="25.468"/>
	</g>
	<g id="MTEXT_59_">
		<text transform="matrix(1 0 0 1 448.1943 33.9023)" fill="#0000FF" font-family="'ArialMT'" font-size="3.9486">Área= 4.26 m²</text>
	</g>
	<g id="MTEXT_60_">
		<text transform="matrix(1 0 0 1 491.2754 27.0103)" fill="#0000FF" font-family="'ArialMT'" font-size="3.9486">Área= 4.78 m²</text>
	</g>
	<g id="MTEXT_61_">
		<text transform="matrix(1 0 0 1 568.1475 26.5469)" fill="#0000FF" font-family="'ArialMT'" font-size="3.9486">Área= 8.81 m²</text>
	</g>
	<g id="MTEXT_62_">
		<text transform="matrix(1 0 0 1 505.2598 81.0479)" fill="#0000FF" font-family="'ArialMT'" font-size="3.9486">Área= 4.32 m²</text>
	</g>
	<g id="MTEXT_63_">
		<text transform="matrix(1 0 0 1 533.0195 95.3105)" fill="#0000FF" font-family="'ArialMT'" font-size="3.9486">Área= 4.65 m²</text>
	</g>
	<g id="MTEXT_64_">
		<text transform="matrix(1 0 0 1 594.4951 69.3638)" fill="#0000FF" font-family="'ArialMT'" font-size="3.9486">Área= 10.47 m²</text>
	</g>
	<g id="MTEXT_65_">
		<text transform="matrix(1 0 0 1 592.6826 140.6978)" fill="#0000FF" font-family="'ArialMT'" font-size="3.9486">Área= 8.71 m²</text>
	</g>
	<g id="MTEXT_66_">
		<text transform="matrix(1 0 0 1 235.7949 173.8242)" fill="#0000FF" font-family="'ArialMT'" font-size="3.9486">Área= 5.13 m²</text>
	</g>
	<g id="MTEXT_67_">
		<text transform="matrix(1 0 0 1 299.6245 175.8799)" fill="#0000FF" font-family="'ArialMT'" font-size="3.9486">Área= 6.68 m²</text>
	</g>
	<g id="MTEXT_68_">
		<text transform="matrix(1 0 0 1 330.5283 175.8936)" fill="#0000FF" font-family="'ArialMT'" font-size="3.9486">Área= 5.27 m²</text>
	</g>
	<g id="MTEXT_69_">
		<text transform="matrix(1 0 0 1 385.6665 174.8896)" fill="#0000FF" font-family="'ArialMT'" font-size="3.9486">Área= 5.60 m²</text>
	</g>
	<g id="MTEXT_70_">
		<text transform="matrix(1 0 0 1 449.8525 176.5483)" fill="#0000FF" font-family="'ArialMT'" font-size="3.9486">Área= 5.43 m²</text>
	</g>
	<g id="MTEXT_71_">
		<text transform="matrix(1 0 0 1 504.7021 171.876)" fill="#0000FF" font-family="'ArialMT'" font-size="3.9486">Área= 5.30 m²</text>
	</g>
	<g id="MTEXT_72_">
		<text transform="matrix(1 0 0 1 533.1387 171.8735)" fill="#0000FF" font-family="'ArialMT'" font-size="3.9486">Área= 5.62 m²</text>
	</g>
	<g id="MTEXT_73_">
		<text transform="matrix(1 0 0 1 595.4219 209.1743)" fill="#0000FF" font-family="'ArialMT'" font-size="3.9486">Área= 6.00 m²</text>
	</g>
	<g id="MTEXT_74_">
		<text transform="matrix(1 0 0 1 235.25 233.062)" fill="#0000FF" font-family="'ArialMT'" font-size="3.9486">Área= 5.04 m²</text>
	</g>
	<g id="MTEXT_75_">
		<text transform="matrix(1 0 0 1 300.3379 241.2441)" fill="#0000FF" font-family="'ArialMT'" font-size="3.9486">Área= 6.65 m²</text>
	</g>
	<g id="MTEXT_76_">
		<text transform="matrix(1 0 0 1 330.6826 241.5566)" fill="#0000FF" font-family="'ArialMT'" font-size="3.9486">Área= 5.14 m²</text>
	</g>
	<g id="MTEXT_77_">
		<text transform="matrix(1 0 0 1 385.4121 240.3628)" fill="#0000FF" font-family="'ArialMT'" font-size="3.9486">Área= 5.64 m²</text>
	</g>
	<g id="MTEXT_78_">
		<text transform="matrix(1 0 0 1 418.0234 260.9717)" fill="#0000FF" font-family="'ArialMT'" font-size="3.9486">Área= 2.88 m²</text>
	</g>
	<g id="MTEXT_79_">
		<text transform="matrix(1 0 0 1 450.5459 238.0713)" fill="#0000FF" font-family="'ArialMT'" font-size="3.9486">Área= 5.50 m²</text>
	</g>
	<g id="MTEXT_80_">
		<text transform="matrix(1 0 0 1 504.8027 240.1924)" fill="#0000FF" font-family="'ArialMT'" font-size="3.9486">Área= 5.07 m²</text>
	</g>
	<g id="MTEXT_81_">
		<text transform="matrix(1 0 0 1 532.8027 240.3242)" fill="#0000FF" font-family="'ArialMT'" font-size="3.9486">Área= 5.62 m²</text>
	</g>
	<g id="MTEXT_82_">
		<text transform="matrix(1 0 0 1 594.6377 247.3877)" fill="#0000FF" font-family="'ArialMT'" font-size="3.9486">Área= 6.00 m²</text>
	</g>
	<g id="MTEXT_83_">
		<text transform="matrix(1 0 0 1 593.5273 315.5342)" fill="#0000FF" font-family="'ArialMT'" font-size="3.9486">Área= 10.83 m²</text>
	</g>
	<g id="MTEXT_84_">
		<text transform="matrix(1 0 0 1 518.208 331.54)" fill="#0000FF" font-family="'ArialMT'" font-size="3.9486">Área= 4.92 m²</text>
	</g>
	<g id="MTEXT_85_">
		<text transform="matrix(1 0 0 1 448.7246 346.9922)" fill="#0000FF" font-family="'ArialMT'" font-size="3.9486">Área= 4.46 m²</text>
	</g>
	<g id="MTEXT_86_">
		<text transform="matrix(1 0 0 1 385.9561 346.1924)" fill="#0000FF" font-family="'ArialMT'" font-size="3.9486">Área= 4.49 m²</text>
	</g>
	<g id="MTEXT_87_">
		<text transform="matrix(1 0 0 1 329.8145 374.4775)" fill="#0000FF" font-family="'ArialMT'" font-size="3.9486">Área= 4.82 m²</text>
	</g>
	<g id="MTEXT_88_">
		<text transform="matrix(1 0 0 1 312.8062 331.9521)" fill="#0000FF" font-family="'ArialMT'" font-size="3.9486">Área= 5.61 m²</text>
	</g>
	<g id="MTEXT_89_">
		<text transform="matrix(1 0 0 1 234.6445 341.5537)" fill="#0000FF" font-family="'ArialMT'" font-size="3.9486">Área= 4.95 m²</text>
	</g>
	<g id="MTEXT_90_">
		<text transform="matrix(1 0 0 1 234.5493 404.915)" fill="#0000FF" font-family="'ArialMT'" font-size="3.9486">Área= 5.18 m²</text>
	</g>
	<g id="MTEXT_91_">
		<text transform="matrix(1 0 0 1 297.332 419.3691)" fill="#0000FF" font-family="'ArialMT'" font-size="3.9486">Área= 4.11 m²</text>
	</g>
	<g id="MTEXT_92_">
		<text transform="matrix(1 0 0 1 328.168 419.3721)" fill="#0000FF" font-family="'ArialMT'" font-size="3.9486">Área= 3.68 m²</text>
	</g>
	<g id="MTEXT_93_">
		<text transform="matrix(1 0 0 1 297.3408 373.8105)" fill="#0000FF" font-family="'ArialMT'" font-size="3.9486">Área= 5.33 m²</text>
	</g>
	<g id="MTEXT_94_">
		<text transform="matrix(1 0 0 1 386.125 405.834)" fill="#0000FF" font-family="'ArialMT'" font-size="3.9486">Área= 4.49 m²</text>
	</g>
	<g id="MTEXT_95_">
		<text transform="matrix(1 0 0 1 448.8184 403.7305)" fill="#0000FF" font-family="'ArialMT'" font-size="3.9486">Área= 4.40 m²</text>
	</g>
	<g id="MTEXT_96_">
		<text transform="matrix(1 0 0 1 502.8447 376.3242)" fill="#0000FF" font-family="'ArialMT'" font-size="3.9486">Área= 4.05 m²</text>
	</g>
	<g id="MTEXT_97_">
		<text transform="matrix(1 0 0 1 529.6982 376.1211)" fill="#0000FF" font-family="'ArialMT'" font-size="3.9486">Área= 4.72 m²</text>
	</g>
	<g id="MTEXT_98_">
		<text transform="matrix(1 0 0 1 502.0088 417.6738)" fill="#0000FF" font-family="'ArialMT'" font-size="3.9486">Área= 2.93 m²</text>
	</g>
	<g id="MTEXT_99_">
		<text transform="matrix(1 0 0 1 529.7754 418.0742)" fill="#0000FF" font-family="'ArialMT'" font-size="3.9486">Área= 3.64 m²</text>
	</g>
	<g id="MTEXT_100_">
		<text transform="matrix(1 0 0 1 593.4043 375.1504)" fill="#0000FF" font-family="'ArialMT'" font-size="3.9486">Área= 4.82 m²</text>
	</g>
	<g id="MTEXT_101_">
		<text transform="matrix(1 0 0 1 593.834 414.2246)" fill="#0000FF" font-family="'ArialMT'" font-size="3.9486">Área= 6.29 m²</text>
	</g>
	<g id="MTEXT_102_">
		<text transform="matrix(1 0 0 1 595.5107 465.5391)" fill="#0000FF" font-family="'ArialMT'" font-size="3.9486">Área= 8.91 m²</text>
	</g>
	<g id="MTEXT_103_">
		<text transform="matrix(1 0 0 1 522.8887 474.6816)" fill="#0000FF" font-family="'ArialMT'" font-size="3.9486">Área= 3.87 m²</text>
	</g>
	<g id="MTEXT_104_">
		<text transform="matrix(1 0 0 1 467.7744 475.3965)" fill="#0000FF" font-family="'ArialMT'" font-size="3.9486">Área= 3.87 m²</text>
	</g>
	<g id="MTEXT_105_">
		<text transform="matrix(1 0 0 1 410.1689 475.3467)" fill="#0000FF" font-family="'ArialMT'" font-size="3.9486">Área= 3.98 m²</text>
	</g>
	<g id="MTEXT_106_">
		<text transform="matrix(1 0 0 1 353.9199 475.4482)" fill="#0000FF" font-family="'ArialMT'" font-size="3.9486">Área= 4.00 m²</text>
	</g>
	<g id="MTEXT_107_">
		<text transform="matrix(1 0 0 1 298.2827 475.626)" fill="#0000FF" font-family="'ArialMT'" font-size="3.9486">Área= 3.93 m²</text>
	</g>
	<g id="MTEXT_108_">
		<text transform="matrix(1 0 0 1 233.5439 461.5088)" fill="#0000FF" font-family="'ArialMT'" font-size="3.9486">Área= 6.05 m²</text>
	</g>
	<g id="MTEXT_109_">
		<text transform="matrix(1 0 0 1 234.6475 294.6143)" fill="#0000FF" font-family="'ArialMT'" font-size="3.9486">Área= 4.95 m²</text>
	</g>
	<g id="MTEXT_110_">
		<text transform="matrix(1 0 0 1 418.4619 430.5732)" fill="#0000FF" font-family="'ArialMT'" font-size="3.9486">Área= 2.98 m²</text>
	</g>
	<g id="MTEXT_111_">
		<text transform="matrix(1 0 0 1 389.7295 439.0732)" fill="#0000FF" font-family="'ArialMT'" font-size="3.9486">0.68 m²</text>
	</g>
	<g id="MTEXT_112_">
		<text transform="matrix(1 0 0 1 454.7266 439.4258)" fill="#0000FF" font-family="'ArialMT'" font-size="3.9486">0.75 m²</text>
	</g>
	<g id="MTEXT_113_">
		<text transform="matrix(1 0 0 1 374.4951 51.5264)" fill="#0000FF" font-family="'ArialMT'" font-size="3.9486">Área= 8.00 m²</text>
	</g>
	<g id="MTEXT_114_">
		<text transform="matrix(1 0 0 1 415.4238 47.2197)" fill="#0000FF" font-family="'ArialMT'" font-size="3.9486">Área= 7.69 m²</text>
	</g>
	<g id="MTEXT_115_">
		<text transform="matrix(1 0 0 1 331.0176 66.9609)" fill="#0000FF" font-family="'ArialMT'" font-size="3.9486">Área= 11.01 m²</text>
	</g>
	<g id="LWPOLYLINE_62_">
		
			<polygon fill="none" stroke="#0000FF" stroke-width="0" stroke-linecap="round" stroke-linejoin="round" stroke-miterlimit="10" points="
			232.542,139.193 260.288,139.193 233.466,85.536 232.542,85.536 		"/>
	</g>
	<g id="MTEXT_119_">
		<text transform="matrix(1 0 0 1 238.8774 119.8359)" fill="#0000FF" font-family="'ArialMT'" font-size="4.9831">LOCAL 56</text>
	</g>
	<g id="MTEXT_120_">
		<text transform="matrix(1 0 0 1 238.165 124.8164)" fill="#0000FF" font-family="'ArialMT'" font-size="3.9486">Área= 2.4 m²</text>
	</g>
</g>
<g id="AREAS_COMUNES">
	<g id="LWPOLYLINE_58_">
		
			<polyline fill="none" stroke="#7FFF00" stroke-width="0" stroke-linecap="round" stroke-linejoin="round" stroke-miterlimit="10" points="
			442.872,414.89 442.872,316.796 416.021,316.796 416.021,414.89 		"/>
	</g>
	<g id="LWPOLYLINE_59_">
		
			<polygon fill="none" stroke="#7FFF00" stroke-width="0" stroke-linecap="round" stroke-linejoin="round" stroke-miterlimit="10" points="
			233.466,85.536 233.466,9.425 317.15,9.425 317.15,86.163 281.349,86.163 281.349,85.536 		"/>
	</g>
	<g id="LWPOLYLINE_60_">
		
			<rect x="412.249" y="133.833" fill="none" stroke="#7FFF00" stroke-width="0" stroke-linecap="round" stroke-linejoin="round" stroke-miterlimit="10" width="35.099" height="110.087"/>
	</g>
	<g id="MTEXT_116_">
		<text transform="matrix(1 0 0 1 238.1196 74.2368)" fill="#7FFF00" font-family="'CenturyGothic'" font-size="7.8972">Escalera</text>
	</g>
	<g id="MTEXT_117_">
		<text transform="matrix(1 0 0 1 415.7637 177.999)" fill="#7FFF00" font-family="'CenturyGothic'" font-size="7.8972">Escalera</text>
	</g>
	<g id="MTEXT_118_">
		<text transform="matrix(1 0 0 1 417.8682 361.9219)" fill="#7FFF00" font-family="'CenturyGothic'" font-size="5.9229">Escalera</text>
	</g>
</g>
</svg>
