<?xml version="1.0" encoding="utf-8"?>
<!-- Generator: Adobe Illustrator 16.0.0, SVG Export Plug-In . SVG Version: 6.00 Build 0)  -->
<!DOCTYPE svg PUBLIC "-//W3C//DTD SVG 1.1//EN" "http://www.w3.org/Graphics/SVG/1.1/DTD/svg11.dtd">
<svg version="1.1" xmlns="http://www.w3.org/2000/svg" xmlns:xlink="http://www.w3.org/1999/xlink" x="0px" y="0px" width="800px"
	 height="600px" viewBox="0 0 800 600" enable-background="new 0 0 800 600" xml:space="preserve">
<g id="_x30_">
	<g id="MTEXT">
		<text transform="matrix(1 0 0 1 369.4531 512.5654)" font-family="'Arial-BoldMT'" font-size="18.4647">PLANTA BAJA BAZAR</text>
	</g>
	<g id="MTEXT_1_">
		<text transform="matrix(1 0 0 1 437.7402 537.5469)" font-family="'Arial-BoldMT'" font-size="18.4647">Arquitectónico</text>
	</g>
</g>
<g id="AREA__x28_POLILINEA_x29_">
	<g id="MTEXT_2_">
		<text transform="matrix(1 0 0 1 240.4966 386.0137)" fill="#0000FF" font-family="'ArialMT'" font-size="3.3532">07</text>
	</g>
	<g id="MTEXT_3_">
		<text transform="matrix(1 0 0 1 523.0586 20.335)" fill="#0000FF" font-family="'ArialMT'" font-size="3.3532">LOCAL052</text>
	</g>
	<g id="MTEXT_4_">
		<text transform="matrix(1 0 0 1 235.3149 429.6484)" fill="#0000FF" font-family="'ArialMT'" font-size="3.3532">LOCAL 01</text>
	</g>
	<g id="MTEXT_5_">
		<text transform="matrix(1 0 0 1 237.771 382.3145)" fill="#0000FF" font-family="'ArialMT'" font-size="3.3532">LOCAL</text>
	</g>
	<g id="MTEXT_6_">
		<text transform="matrix(1 0 0 1 234.2031 336.8848)" fill="#0000FF" font-family="'ArialMT'" font-size="3.3532">LOCAL 013</text>
	</g>
	<g id="MTEXT_7_">
		<text transform="matrix(1 0 0 1 234.6831 286.2949)" fill="#0000FF" font-family="'ArialMT'" font-size="3.3532">LOCAL 019</text>
	</g>
	<g id="MTEXT_8_">
		<text transform="matrix(1 0 0 1 234.9077 246.9746)" fill="#0000FF" font-family="'ArialMT'" font-size="3.3532">LOCAL 021</text>
	</g>
	<g id="MTEXT_9_">
		<text transform="matrix(1 0 0 1 234.4443 198.3984)" fill="#0000FF" font-family="'ArialMT'" font-size="3.3532">LOCAL 026</text>
	</g>
	<g id="MTEXT_10_">
		<text transform="matrix(1 0 0 1 235.4097 148.9326)" fill="#0000FF" font-family="'ArialMT'" font-size="3.3532">LOCAL 033</text>
	</g>
	<g id="MTEXT_11_">
		<text transform="matrix(1 0 0 1 234.6816 102.2559)" fill="#0000FF" font-family="'ArialMT'" font-size="3.3532">LOCAL 039</text>
	</g>
	<g id="MTEXT_12_">
		<text transform="matrix(1 0 0 1 318.9004 20.8838)" fill="#0000FF" font-family="'ArialMT'" font-size="3.3532">LOCAL 048</text>
	</g>
	<g id="MTEXT_13_">
		<text transform="matrix(1 0 0 1 368.7251 19.6475)" fill="#0000FF" font-family="'ArialMT'" font-size="3.3532">LOCAL 049</text>
	</g>
	<g id="MTEXT_14_">
		<text transform="matrix(1 0 0 1 415.0732 20.2393)" fill="#0000FF" font-family="'ArialMT'" font-size="3.3532">LOCAL 050</text>
	</g>
	<g id="MTEXT_15_">
		<text transform="matrix(1 0 0 1 465.082 19.9932)" fill="#0000FF" font-family="'ArialMT'" font-size="3.3532">LOCAL 051</text>
	</g>
	<g id="MTEXT_16_">
		<text transform="matrix(1 0 0 1 550.5664 67.2129)" fill="#0000FF" font-family="'ArialMT'" font-size="3.3532">LOCAL 045</text>
	</g>
	<g id="MTEXT_17_">
		<text transform="matrix(1 0 0 1 550.7637 125.333)" fill="#0000FF" font-family="'ArialMT'" font-size="3.3532">LOCAL 038</text>
	</g>
	<g id="MTEXT_18_">
		<text transform="matrix(1 0 0 1 549.459 192.8779)" fill="#0000FF" font-family="'ArialMT'" font-size="3.3532">LOCAL 032</text>
	</g>
	<g id="MTEXT_19_">
		<text transform="matrix(1 0 0 1 549.4756 264.2021)" fill="#0000FF" font-family="'ArialMT'" font-size="3.3532">LOCAL 020</text>
	</g>
	<g id="MTEXT_20_">
		<text transform="matrix(1 0 0 1 549.1074 326.791)" fill="#0000FF" font-family="'ArialMT'" font-size="3.3532">LOCAL 018</text>
	</g>
	<g id="MTEXT_21_">
		<text transform="matrix(1 0 0 1 548.1064 377.0684)" fill="#0000FF" font-family="'ArialMT'" font-size="3.3532">LOCAL 012</text>
	</g>
	<g id="MTEXT_22_">
		<text transform="matrix(1 0 0 1 547.9014 425.2354)" fill="#0000FF" font-family="'ArialMT'" font-size="3.3532">LOCAL 06</text>
	</g>
	<g id="MTEXT_23_">
		<text transform="matrix(1 0 0 1 473.7188 421.9766)" fill="#0000FF" font-family="'ArialMT'" font-size="3.3532">LOCAL 05</text>
	</g>
	<g id="MTEXT_24_">
		<text transform="matrix(1 0 0 1 443.8184 421.8232)" fill="#0000FF" font-family="'ArialMT'" font-size="3.3532">LOCAL 04</text>
	</g>
	<g id="MTEXT_25_">
		<text transform="matrix(1 0 0 1 443.2246 375.4033)" fill="#0000FF" font-family="'ArialMT'" font-size="3.3532">LOCAL 010</text>
	</g>
	<g id="MTEXT_26_">
		<text transform="matrix(1 0 0 1 475.0332 374.6084)" fill="#0000FF" font-family="'ArialMT'" font-size="3.3532">LOCAL 011</text>
	</g>
	<g id="MTEXT_27_">
		<text transform="matrix(1 0 0 1 471.0371 320.6084)" fill="#0000FF" font-family="'ArialMT'" font-size="3.3532">LOCAL 017</text>
	</g>
	<g id="MTEXT_28_">
		<text transform="matrix(1 0 0 1 446.8145 320.8779)" fill="#0000FF" font-family="'ArialMT'" font-size="3.3532">LOCAL 016</text>
	</g>
	<g id="MTEXT_29_">
		<text transform="matrix(1 0 0 1 390.9971 330.335)" fill="#0000FF" font-family="'ArialMT'" font-size="3.3532">LOCAL 053</text>
	</g>
	<g id="MTEXT_30_">
		<text transform="matrix(1 0 0 1 332.562 317.8682)" fill="#0000FF" font-family="'ArialMT'" font-size="3.3532">LOCAL 015</text>
	</g>
	<g id="MTEXT_31_">
		<text transform="matrix(1 0 0 1 299.8237 317.417)" fill="#0000FF" font-family="'ArialMT'" font-size="3.3532">LOCAL 014</text>
	</g>
	<g id="MTEXT_32_">
		<text transform="matrix(1 0 0 1 300.8589 367.4258)" fill="#0000FF" font-family="'ArialMT'" font-size="3.3532">LOCAL 08</text>
	</g>
	<g id="MTEXT_33_">
		<text transform="matrix(1 0 0 1 337.2051 380.8174)" fill="#0000FF" font-family="'ArialMT'" font-size="3.3532">LOCAL 09</text>
	</g>
	<g id="MTEXT_34_">
		<text transform="matrix(1 0 0 1 302.9028 424.3018)" fill="#0000FF" font-family="'ArialMT'" font-size="3.3532">LOCAL 02</text>
	</g>
	<g id="MTEXT_35_">
		<text transform="matrix(1 0 0 1 340.4272 424.3018)" fill="#0000FF" font-family="'ArialMT'" font-size="3.3532">LOCAL 03</text>
	</g>
	<g id="MTEXT_36_">
		<text transform="matrix(1 0 0 1 326.2471 238.498)" fill="#0000FF" font-family="'ArialMT'" font-size="3.3532">LOCAL 023</text>
	</g>
	<g id="MTEXT_37_">
		<text transform="matrix(1 0 0 1 296.0518 239.0977)" fill="#0000FF" font-family="'ArialMT'" font-size="3.3532">LOCAL 022</text>
	</g>
	<g id="MTEXT_38_">
		<text transform="matrix(1 0 0 1 326.5098 189.1699)" fill="#0000FF" font-family="'ArialMT'" font-size="3.3532">LOCAL 028</text>
	</g>
	<g id="MTEXT_39_">
		<text transform="matrix(1 0 0 1 296.5859 189.1699)" fill="#0000FF" font-family="'ArialMT'" font-size="3.3532">LOCAL 027</text>
	</g>
	<g id="MTEXT_40_">
		<text transform="matrix(1 0 0 1 295.2236 135.8203)" fill="#0000FF" font-family="'ArialMT'" font-size="3.3532">LOCAL 034</text>
	</g>
	<g id="MTEXT_41_">
		<text transform="matrix(1 0 0 1 326.4736 135.2432)" fill="#0000FF" font-family="'ArialMT'" font-size="3.3532">LOCAL 035</text>
	</g>
	<g id="MTEXT_42_">
		<text transform="matrix(1 0 0 1 326.8101 92.4561)" fill="#0000FF" font-family="'ArialMT'" font-size="3.3532">LOCAL 041</text>
	</g>
	<g id="MTEXT_43_">
		<text transform="matrix(1 0 0 1 295.9834 92.8057)" fill="#0000FF" font-family="'ArialMT'" font-size="3.3532">LOCAL 040</text>
	</g>
	<g id="MTEXT_44_">
		<text transform="matrix(1 0 0 1 455.2949 92.626)" fill="#0000FF" font-family="'ArialMT'" font-size="3.3532">LOCAL 043</text>
	</g>
	<g id="MTEXT_45_">
		<text transform="matrix(1 0 0 1 487.5898 92.75)" fill="#0000FF" font-family="'ArialMT'" font-size="3.3532">LOCAL 044</text>
	</g>
	<g id="MTEXT_46_">
		<text transform="matrix(1 0 0 1 455.4385 137.6953)" fill="#0000FF" font-family="'ArialMT'" font-size="3.3532">LOCAL036</text>
	</g>
	<g id="MTEXT_47_">
		<text transform="matrix(1 0 0 1 488.1836 137.8662)" fill="#0000FF" font-family="'ArialMT'" font-size="3.3532">LOCAL 037</text>
	</g>
	<g id="MTEXT_48_">
		<text transform="matrix(1 0 0 1 455.623 189.0068)" fill="#0000FF" font-family="'ArialMT'" font-size="3.3532">LOCAL 030</text>
	</g>
	<g id="MTEXT_49_">
		<text transform="matrix(1 0 0 1 488.6992 189.0068)" fill="#0000FF" font-family="'ArialMT'" font-size="3.3532">LOCAL 031</text>
	</g>
	<g id="MTEXT_50_">
		<text transform="matrix(1 0 0 1 454.1328 239.959)" fill="#0000FF" font-family="'ArialMT'" font-size="3.3532">LOCAL 024</text>
	</g>
	<g id="MTEXT_51_">
		<text transform="matrix(1 0 0 1 488.5039 239.0635)" fill="#0000FF" font-family="'ArialMT'" font-size="3.3532">LOCAL 025</text>
	</g>
	<g id="MTEXT_53_">
		<text transform="matrix(1 0 0 1 391.085 169.0752)" fill="#0000FF" font-family="'ArialMT'" font-size="3.3532">LOCAL 029</text>
	</g>
	<g id="LWPOLYLINE">
		
			<line fill="none" stroke="#0000FF" stroke-width="0" stroke-linecap="round" stroke-linejoin="round" stroke-miterlimit="10" x1="412.162" y1="114.315" x2="412.162" y2="112.8"/>
	</g>
	<g id="MTEXT_54_">
		<text transform="matrix(1 0 0 1 414.9609 147.1553)" fill="#0000FF" font-family="'ArialMT'" font-size="3.3532">060</text>
	</g>
	<g id="MTEXT_56_">
		<text transform="matrix(1 0 0 1 231.6206 60.6426)" fill="#0000FF" font-family="'ArialMT'" font-size="3.3532">LOCAL 046</text>
	</g>
	<g id="LWPOLYLINE_1_">
		
			<polygon fill="none" stroke="#0000FF" stroke-width="0" stroke-linecap="round" stroke-linejoin="round" stroke-miterlimit="10" points="
			254.83,43.323 225.948,43.323 225.948,75.778 232.028,75.778 232.028,83.035 254.83,83.035 		"/>
	</g>
	<g id="LWPOLYLINE_2_">
		
			<rect x="231.269" y="83.035" fill="none" stroke="#0000FF" stroke-width="0" stroke-linecap="round" stroke-linejoin="round" stroke-miterlimit="10" width="23.562" height="45.983"/>
	</g>
	<g id="LWPOLYLINE_3_">
		
			<polygon fill="none" stroke="#0000FF" stroke-width="0" stroke-linecap="round" stroke-linejoin="round" stroke-miterlimit="10" points="
			254.83,129.019 231.269,129.019 231.269,155.051 232.028,155.051 232.028,162.652 231.269,162.652 231.269,175.002 
			254.83,175.002 		"/>
	</g>
	<g id="LWPOLYLINE_4_">
		
			<rect x="231.269" y="175.002" fill="none" stroke="#0000FF" stroke-width="0" stroke-linecap="round" stroke-linejoin="round" stroke-miterlimit="10" width="23.562" height="45.907"/>
	</g>
	<g id="LWPOLYLINE_5_">
		
			<polygon fill="none" stroke="#0000FF" stroke-width="0" stroke-linecap="round" stroke-linejoin="round" stroke-miterlimit="10" points="
			254.83,220.909 231.269,220.909 231.269,227.409 237.349,227.409 237.349,232.729 231.269,232.729 231.269,266.893 
			254.83,266.893 		"/>
	</g>
	<g id="LWPOLYLINE_6_">
		
			<polygon fill="none" stroke="#0000FF" stroke-width="0" stroke-linecap="round" stroke-linejoin="round" stroke-miterlimit="10" points="
			254.83,266.893 231.269,266.893 231.269,294.37 235.069,294.37 235.069,299.69 231.269,299.69 231.269,312.876 254.83,312.876 		
			"/>
	</g>
	<g id="LWPOLYLINE_7_">
		
			<rect x="231.269" y="312.876" fill="none" stroke="#0000FF" stroke-width="0" stroke-linecap="round" stroke-linejoin="round" stroke-miterlimit="10" width="23.562" height="45.68"/>
	</g>
	<g id="LWPOLYLINE_8_">
		
			<polyline fill="none" stroke="#0000FF" stroke-width="0" stroke-linecap="round" stroke-linejoin="round" stroke-miterlimit="10" points="
			254.83,358.556 231.269,358.556 231.269,364.827 232.028,364.827 232.028,372.428 231.269,372.428 231.269,404.539 
			254.83,404.539 254.83,358.556 		"/>
	</g>
	<g id="LWPOLYLINE_9_">
		
			<polygon fill="none" stroke="#0000FF" stroke-width="0" stroke-linecap="round" stroke-linejoin="round" stroke-miterlimit="10" points="
			254.83,404.539 231.269,404.539 231.269,410.05 232.028,410.05 232.028,418.411 231.269,418.411 231.269,432.092 232.028,432.092 
			232.028,441.593 231.269,441.593 231.269,450.805 254.83,450.804 		"/>
	</g>
	<g id="LWPOLYLINE_10_">
		
			<polygon fill="none" stroke="#0000FF" stroke-width="0" stroke-linecap="round" stroke-linejoin="round" stroke-miterlimit="10" points="
			315.331,4.567 302.649,4.567 302.649,35.952 350.563,35.953 350.563,6.087 324.451,6.087 324.451,6.847 315.331,6.847 		"/>
	</g>
	<g id="LWPOLYLINE_11_">
		
			<rect x="350.563" y="6.085" fill="none" stroke="#0000FF" stroke-width="0" stroke-linecap="round" stroke-linejoin="round" stroke-miterlimit="10" width="47.951" height="29.866"/>
	</g>
	<g id="LWPOLYLINE_12_">
		
			<polyline fill="none" stroke="#0000FF" stroke-width="0" stroke-linecap="round" stroke-linejoin="round" stroke-miterlimit="10" points="
			398.514,35.95 446.395,35.951 446.395,6.087 398.514,6.087 		"/>
	</g>
	<g id="LWPOLYLINE_13_">
		
			<rect x="446.395" y="6.087" fill="none" stroke="#0000FF" stroke-width="0" stroke-linecap="round" stroke-linejoin="round" stroke-miterlimit="10" width="48.214" height="29.864"/>
	</g>
	<g id="LWPOLYLINE_14_">
		
			<polygon fill="none" stroke="#0000FF" stroke-width="0" stroke-linecap="round" stroke-linejoin="round" stroke-miterlimit="10" points="
			494.608,6.087 494.608,35.95 545.336,35.972 545.336,35.212 574.054,35.212 574.054,6.087 		"/>
	</g>
	<g id="LWPOLYLINE_15_">
		
			<polygon fill="none" stroke="#0000FF" stroke-width="0" stroke-linecap="round" stroke-linejoin="round" stroke-miterlimit="10" points="
			545.336,35.284 545.278,95.047 570.647,95.047 570.647,83.377 567.972,83.377 567.972,75.776 570.052,75.776 570.914,35.212 		"/>
	</g>
	<g id="LWPOLYLINE_16_">
		
			<polyline fill="none" stroke="#0000FF" stroke-width="0" stroke-linecap="round" stroke-linejoin="round" stroke-miterlimit="10" points="
			570.609,95.047 545.278,95.047 545.217,154.99 567.974,154.99 567.973,154.226 570.415,154.226 570.609,95.047 		"/>
	</g>
	<g id="LWPOLYLINE_17_">
		
			<polygon fill="none" stroke="#0000FF" stroke-width="0" stroke-linecap="round" stroke-linejoin="round" stroke-miterlimit="10" points="
			567.978,158.178 545.219,158.178 545.156,223.6 569.655,223.6 569.655,158.938 567.973,158.938 		"/>
	</g>
	<g id="LWPOLYLINE_18_">
		
			<polygon fill="none" stroke="#0000FF" stroke-width="0" stroke-linecap="round" stroke-linejoin="round" stroke-miterlimit="10" points="
			286.752,63.389 318.371,63.389 318.371,73.726 314.418,73.726 314.418,84.67 318.371,84.67 318.371,113.556 286.752,113.556 		"/>
	</g>
	<g id="LWPOLYLINE_19_">
		
			<polygon fill="none" stroke="#0000FF" stroke-width="0" stroke-linecap="round" stroke-linejoin="round" stroke-miterlimit="10" points="
			352.877,63.389 318.371,63.389 318.371,73.726 325.363,73.726 325.363,84.67 318.371,84.67 318.371,113.556 352.877,113.556 		"/>
	</g>
	<g id="LWPOLYLINE_20_">
		
			<polygon fill="none" stroke="#0000FF" stroke-width="0" stroke-linecap="round" stroke-linejoin="round" stroke-miterlimit="10" points="
			286.752,162.962 313.354,162.956 313.354,151.251 318.675,151.251 318.675,113.556 286.752,113.556 		"/>
	</g>
	<g id="LWPOLYLINE_21_">
		
			<polygon fill="none" stroke="#0000FF" stroke-width="0" stroke-linecap="round" stroke-linejoin="round" stroke-miterlimit="10" points="
			352.877,162.956 324.299,162.954 324.299,151.251 318.675,151.251 318.675,113.556 352.877,113.556 		"/>
	</g>
	<g id="LWPOLYLINE_22_">
		
			<rect x="286.752" y="162.956" fill="none" stroke="#0000FF" stroke-width="0" stroke-linecap="round" stroke-linejoin="round" stroke-miterlimit="10" width="31.922" height="50.164"/>
	</g>
	<g id="LWPOLYLINE_23_">
		
			<rect x="318.675" y="162.956" fill="none" stroke="#0000FF" stroke-width="0" stroke-linecap="round" stroke-linejoin="round" stroke-miterlimit="10" width="34.203" height="50.164"/>
	</g>
	<g id="LWPOLYLINE_24_">
		
			<polygon fill="none" stroke="#0000FF" stroke-width="0" stroke-linecap="round" stroke-linejoin="round" stroke-miterlimit="10" points="
			318.675,213.12 286.752,213.12 286.752,263.283 318.675,263.283 318.675,232.729 313.203,232.729 313.203,221.784 
			318.675,221.784 		"/>
	</g>
	<g id="LWPOLYLINE_25_">
		
			<polygon fill="none" stroke="#0000FF" stroke-width="0" stroke-linecap="round" stroke-linejoin="round" stroke-miterlimit="10" points="
			318.675,213.12 352.877,213.12 352.877,263.283 318.675,263.283 318.675,232.729 324.147,232.729 324.147,221.784 
			318.675,221.784 		"/>
	</g>
	<g id="LWPOLYLINE_26_">
		
			<rect x="384.8" y="63.389" fill="none" stroke="#0000FF" stroke-width="0" stroke-linecap="round" stroke-linejoin="round" stroke-miterlimit="10" width="27.362" height="50.169"/>
	</g>
	<g id="LWPOLYLINE_27_">
		
			<polygon fill="none" stroke="#0000FF" stroke-width="0" stroke-linecap="round" stroke-linejoin="round" stroke-miterlimit="10" points="
			478.918,63.389 444.107,63.389 444.107,112.792 478.918,112.792 478.918,84.67 474.054,84.67 474.054,73.726 478.918,73.726 		"/>
	</g>
	<g id="LWPOLYLINE_28_">
		
			<polygon fill="none" stroke="#0000FF" stroke-width="0" stroke-linecap="round" stroke-linejoin="round" stroke-miterlimit="10" points="
			478.918,63.389 513.12,63.389 513.12,112.792 478.918,112.792 478.918,84.67 484.998,84.67 484.998,73.726 478.918,73.726 		"/>
	</g>
	<g id="LWPOLYLINE_29_">
		
			<polygon fill="none" stroke="#0000FF" stroke-width="0" stroke-linecap="round" stroke-linejoin="round" stroke-miterlimit="10" points="
			444.107,112.792 444.107,162.956 474.054,162.956 474.054,151.251 479.678,151.251 479.678,112.792 		"/>
	</g>
	<g id="LWPOLYLINE_30_">
		
			<polygon fill="none" stroke="#0000FF" stroke-width="0" stroke-linecap="round" stroke-linejoin="round" stroke-miterlimit="10" points="
			513.12,112.792 513.12,162.956 485.302,162.956 485.302,151.251 479.678,151.251 479.678,112.792 		"/>
	</g>
	<g id="LWPOLYLINE_31_">
		
			<rect x="444.107" y="162.956" fill="none" stroke="#0000FF" stroke-width="0" stroke-linecap="round" stroke-linejoin="round" stroke-miterlimit="10" width="34.811" height="50.164"/>
	</g>
	<g id="LWPOLYLINE_32_">
		
			<rect x="478.918" y="162.956" fill="none" stroke="#0000FF" stroke-width="0" stroke-linecap="round" stroke-linejoin="round" stroke-miterlimit="10" width="34.202" height="50.164"/>
	</g>
	<g id="LWPOLYLINE_33_">
		
			<polygon fill="none" stroke="#0000FF" stroke-width="0" stroke-linecap="round" stroke-linejoin="round" stroke-miterlimit="10" points="
			478.918,213.12 444.107,213.12 444.107,263.283 478.918,263.283 478.918,232.729 474.054,232.729 474.054,221.784 
			478.918,221.784 		"/>
	</g>
	<g id="LWPOLYLINE_34_">
		
			<polygon fill="none" stroke="#0000FF" stroke-width="0" stroke-linecap="round" stroke-linejoin="round" stroke-miterlimit="10" points="
			478.918,213.12 513.12,213.12 513.12,263.283 478.918,263.283 478.918,232.729 484.998,232.729 484.998,221.784 478.918,221.784 
					"/>
	</g>
	<g id="LWPOLYLINE_35_">
		
			<polygon fill="none" stroke="#0000FF" stroke-width="0" stroke-linecap="round" stroke-linejoin="round" stroke-miterlimit="10" points="
			325.211,290.646 291.313,290.646 291.313,344.306 325.971,344.306 325.971,303.414 325.211,303.414 		"/>
	</g>
	<g id="LWPOLYLINE_36_">
		
			<polygon fill="none" stroke="#0000FF" stroke-width="0" stroke-linecap="round" stroke-linejoin="round" stroke-miterlimit="10" points="
			325.971,303.414 325.971,344.306 356.83,344.306 356.83,290.646 337.98,290.646 337.98,303.414 		"/>
	</g>
	<g id="LWPOLYLINE_37_">
		
			<rect x="291.313" y="344.306" fill="none" stroke="#0000FF" stroke-width="0" stroke-linecap="round" stroke-linejoin="round" stroke-miterlimit="10" width="34.658" height="52.443"/>
	</g>
	<g id="LWPOLYLINE_38_">
		
			<polygon fill="none" stroke="#0000FF" stroke-width="0" stroke-linecap="round" stroke-linejoin="round" stroke-miterlimit="10" points="
			325.971,396.749 356.83,396.749 356.83,344.306 325.971,344.306 325.971,362.242 339.5,362.242 339.5,375.012 325.971,375.012 		
			"/>
	</g>
	<g id="LWPOLYLINE_39_">
		
			<polygon fill="none" stroke="#0000FF" stroke-width="0" stroke-linecap="round" stroke-linejoin="round" stroke-miterlimit="10" points="
			325.971,396.749 291.313,396.749 291.313,449.953 328.479,449.953 328.479,410.278 325.971,410.278 		"/>
	</g>
	<g id="LWPOLYLINE_40_">
		
			<polygon fill="none" stroke="#0000FF" stroke-width="0" stroke-linecap="round" stroke-linejoin="round" stroke-miterlimit="10" points="
			325.971,396.749 325.971,410.278 339.12,410.278 339.12,449.953 356.83,449.953 356.83,396.749 		"/>
	</g>
	<g id="LWPOLYLINE_41_">
		
			<polygon fill="none" stroke="#0000FF" stroke-width="0" stroke-linecap="round" stroke-linejoin="round" stroke-miterlimit="10" points="
			460.279,290.646 441.278,290.646 441.278,343.089 467.038,343.089 467.038,303.414 460.279,303.414 		"/>
	</g>
	<g id="LWPOLYLINE_42_">
		
			<polygon fill="none" stroke="#0000FF" stroke-width="0" stroke-linecap="round" stroke-linejoin="round" stroke-miterlimit="10" points="
			441.278,343.089 441.278,395.533 467.038,395.533 467.038,375.012 460.279,375.012 460.279,362.242 467.038,362.242 
			467.038,343.089 		"/>
	</g>
	<g id="LWPOLYLINE_43_">
		
			<polygon fill="none" stroke="#0000FF" stroke-width="0" stroke-linecap="round" stroke-linejoin="round" stroke-miterlimit="10" points="
			467.038,395.533 441.278,395.533 441.278,449.952 460.129,449.952 460.129,408.701 467.038,408.701 		"/>
	</g>
	<g id="LWPOLYLINE_44_">
		
			<polygon fill="none" stroke="#0000FF" stroke-width="0" stroke-linecap="round" stroke-linejoin="round" stroke-miterlimit="10" points="
			473.048,290.646 492.05,290.646 492.05,343.089 467.038,343.089 467.038,303.414 473.048,303.414 		"/>
	</g>
	<g id="LWPOLYLINE_45_">
		
			<polygon fill="none" stroke="#0000FF" stroke-width="0" stroke-linecap="round" stroke-linejoin="round" stroke-miterlimit="10" points="
			492.05,343.089 492.05,395.533 467.038,395.533 467.038,375.012 473.048,375.012 473.048,362.242 467.038,362.242 
			467.038,343.089 		"/>
	</g>
	<g id="LWPOLYLINE_46_">
		
			<polygon fill="none" stroke="#0000FF" stroke-width="0" stroke-linecap="round" stroke-linejoin="round" stroke-miterlimit="10" points="
			467.038,395.533 467.038,408.701 471.53,408.701 471.53,446.718 492.05,446.718 492.05,395.533 		"/>
	</g>
	<g id="LWPOLYLINE_47_">
		
			<rect x="388.752" y="290.646" fill="none" stroke="#0000FF" stroke-width="0" stroke-linecap="round" stroke-linejoin="round" stroke-miterlimit="10" width="20.604" height="76.766"/>
	</g>
	<g id="LWPOLYLINE_48_">
		
			<polygon fill="none" stroke="#0000FF" stroke-width="0" stroke-linecap="round" stroke-linejoin="round" stroke-miterlimit="10" points="
			545.147,230.284 544.842,295.662 568.815,295.662 568.815,230.284 		"/>
	</g>
	<g id="LWPOLYLINE_49_">
		
			<polygon fill="none" stroke="#0000FF" stroke-width="0" stroke-linecap="round" stroke-linejoin="round" stroke-miterlimit="10" points="
			544.851,300.982 544.852,301.742 542.464,351.146 542.427,351.906 568.815,351.906 568.815,300.982 		"/>
	</g>
	<g id="LWPOLYLINE_50_">
		
			<polygon fill="none" stroke="#0000FF" stroke-width="0" stroke-linecap="round" stroke-linejoin="round" stroke-miterlimit="10" points="
			568.815,351.906 542.427,351.906 542.392,352.666 540.111,399.789 540.076,400.55 568.815,400.55 		"/>
	</g>
	<g id="LWPOLYLINE_51_">
		
			<polygon fill="none" stroke="#0000FF" stroke-width="0" stroke-linecap="round" stroke-linejoin="round" stroke-miterlimit="10" points="
			568.815,400.55 540.076,400.55 540.04,401.31 537.727,449.193 537.689,449.953 568.733,449.953 		"/>
	</g>
	<g id="MTEXT_58_">
		<text transform="matrix(1 0 0 1 318.8667 24.417)" fill="#0000FF" font-family="'ArialMT'" font-size="3.3532">Área= 6.25 m²</text>
	</g>
	<g id="MTEXT_59_">
		<text transform="matrix(1 0 0 1 367.3979 24.417)" fill="#0000FF" font-family="'ArialMT'" font-size="3.3532">Área= 6.20 m²</text>
	</g>
	<g id="MTEXT_60_">
		<text transform="matrix(1 0 0 1 414.2109 24.417)" fill="#0000FF" font-family="'ArialMT'" font-size="3.3532">Área= 6.18 m²</text>
	</g>
	<g id="MTEXT_61_">
		<text transform="matrix(1 0 0 1 463.2998 24.417)" fill="#0000FF" font-family="'ArialMT'" font-size="3.3532">Área= 6.23 m²</text>
	</g>
	<g id="MTEXT_62_">
		<text transform="matrix(1 0 0 1 521.3232 25.5635)" fill="#0000FF" font-family="'ArialMT'" font-size="3.3532">Área= 10,17 m²</text>
	</g>
	<g id="MTEXT_63_">
		<text transform="matrix(1 0 0 1 230.7471 65.6719)" fill="#0000FF" font-family="'ArialMT'" font-size="3.3532">Área= 4.77 m²</text>
	</g>
	<g id="MTEXT_64_">
		<text transform="matrix(1 0 0 1 233.5171 106.6787)" fill="#0000FF" font-family="'ArialMT'" font-size="3.3532">Área= 4.69 m²</text>
	</g>
	<g id="MTEXT_65_">
		<text transform="matrix(1 0 0 1 233.8394 152.9658)" fill="#0000FF" font-family="'ArialMT'" font-size="3.3532">Área= 4.66 m²</text>
	</g>
	<g id="MTEXT_66_">
		<text transform="matrix(1 0 0 1 233.0161 202.5645)" fill="#0000FF" font-family="'ArialMT'" font-size="3.3532">Área= 4.68 m²</text>
	</g>
	<g id="MTEXT_67_">
		<text transform="matrix(1 0 0 1 233.1436 251.165)" fill="#0000FF" font-family="'ArialMT'" font-size="3.3532">Área= 4.65 m²</text>
	</g>
	<g id="MTEXT_68_">
		<text transform="matrix(1 0 0 1 233.1978 291.9199)" fill="#0000FF" font-family="'ArialMT'" font-size="3.3532">Área= 4.60 m²</text>
	</g>
	<g id="MTEXT_69_">
		<text transform="matrix(1 0 0 1 232.6011 342.2822)" fill="#0000FF" font-family="'ArialMT'" font-size="3.3532">Área= 4.65 m²</text>
	</g>
	<g id="MTEXT_70_">
		<text transform="matrix(1 0 0 1 237.853 390.8516)" fill="#0000FF" font-family="'ArialMT'" font-size="3.3532">4.66 m²</text>
	</g>
	<g id="MTEXT_71_">
		<text transform="matrix(1 0 0 1 234.3984 435.1201)" fill="#0000FF" font-family="'ArialMT'" font-size="3.3532">Área= 4.66 m²</text>
	</g>
	<g id="MTEXT_72_">
		<text transform="matrix(1 0 0 1 294.0049 97.3008)" fill="#0000FF" font-family="'ArialMT'" font-size="3.3532">Área= 6.67 m²</text>
	</g>
	<g id="MTEXT_73_">
		<text transform="matrix(1 0 0 1 324.9189 96.6904)" fill="#0000FF" font-family="'ArialMT'" font-size="3.3532">Área= 7.16 m²</text>
	</g>
	<g id="MTEXT_74_">
		<text transform="matrix(1 0 0 1 293.9482 139.6367)" fill="#0000FF" font-family="'ArialMT'" font-size="3.3532">Área= 6.55 m²</text>
	</g>
	<g id="MTEXT_75_">
		<text transform="matrix(1 0 0 1 324.708 139.1943)" fill="#0000FF" font-family="'ArialMT'" font-size="3.3532">Área= 7.02 m²</text>
	</g>
	<g id="MTEXT_76_">
		<text transform="matrix(1 0 0 1 294.5264 193.375)" fill="#0000FF" font-family="'ArialMT'" font-size="3.3532">Área= 6.93 m²</text>
	</g>
	<g id="MTEXT_77_">
		<text transform="matrix(1 0 0 1 324.9487 193.4941)" fill="#0000FF" font-family="'ArialMT'" font-size="3.3532">Área= 7.42 m²</text>
	</g>
	<g id="MTEXT_78_">
		<text transform="matrix(1 0 0 1 293.9419 243.8525)" fill="#0000FF" font-family="'ArialMT'" font-size="3.3532">Área= 6.67 m²</text>
	</g>
	<g id="MTEXT_79_">
		<text transform="matrix(1 0 0 1 325.2236 243.25)" fill="#0000FF" font-family="'ArialMT'" font-size="3.3532">Área= 7.16 m²</text>
	</g>
	<g id="MTEXT_80_">
		<text transform="matrix(1 0 0 1 390.5376 87.5352)" fill="#0000FF" font-family="'ArialMT'" font-size="3.3532">LOCAL 042</text>
	</g>
	<g id="MTEXT_81_">
		<text transform="matrix(1 0 0 1 388.854 91.6035)" fill="#0000FF" font-family="'ArialMT'" font-size="3.3532">Área= 5.94 m²</text>
	</g>
	<g id="MTEXT_82_">
		<text transform="matrix(1 0 0 1 453.2754 96.9316)" fill="#0000FF" font-family="'ArialMT'" font-size="3.3532">Área= 7.21 m²</text>
	</g>
	<g id="MTEXT_83_">
		<text transform="matrix(1 0 0 1 485.8721 97.3076)" fill="#0000FF" font-family="'ArialMT'" font-size="3.3532">Área= 7.02 m²</text>
	</g>
	<g id="MTEXT_84_">
		<text transform="matrix(1 0 0 1 453.6973 141.4883)" fill="#0000FF" font-family="'ArialMT'" font-size="3.3532">Área= 7.43 m²</text>
	</g>
	<g id="MTEXT_85_">
		<text transform="matrix(1 0 0 1 486.0938 142.1074)" fill="#0000FF" font-family="'ArialMT'" font-size="3.3532">Área= 6.97 m²</text>
	</g>
	<g id="MTEXT_86_">
		<text transform="matrix(1 0 0 1 453.7168 193.6719)" fill="#0000FF" font-family="'ArialMT'" font-size="3.3532">Área= 7.55 m²</text>
	</g>
	<g id="MTEXT_87_">
		<text transform="matrix(1 0 0 1 486.7109 193.543)" fill="#0000FF" font-family="'ArialMT'" font-size="3.3532">Área= 7.42 m²</text>
	</g>
	<g id="MTEXT_88_">
		<text transform="matrix(1 0 0 1 453.0273 243.9014)" fill="#0000FF" font-family="'ArialMT'" font-size="3.3532">Área= 7.32 m²</text>
	</g>
	<g id="MTEXT_89_">
		<text transform="matrix(1 0 0 1 486.7236 243.5186)" fill="#0000FF" font-family="'ArialMT'" font-size="3.3532">Área= 7.13 m²</text>
	</g>
	<g id="MTEXT_90_">
		<text transform="matrix(1 0 0 1 548.2432 71.5352)" fill="#0000FF" font-family="'ArialMT'" font-size="3.3532">Área= 6.44 m²</text>
	</g>
	<g id="MTEXT_91_">
		<text transform="matrix(1 0 0 1 548.9092 129.1553)" fill="#0000FF" font-family="'ArialMT'" font-size="3.3532">Área= 6.54 m²</text>
	</g>
	<g id="MTEXT_92_">
		<text transform="matrix(1 0 0 1 547.2109 330.9512)" fill="#0000FF" font-family="'ArialMT'" font-size="3.3532">Área= 5.54 m²</text>
	</g>
	<g id="MTEXT_93_">
		<text transform="matrix(1 0 0 1 547.373 268.249)" fill="#0000FF" font-family="'ArialMT'" font-size="3.3532">Área= 6.74 m²</text>
	</g>
	<g id="MTEXT_94_">
		<text transform="matrix(1 0 0 1 547.8408 196.7354)" fill="#0000FF" font-family="'ArialMT'" font-size="3.3532">Área= 6.92 m²</text>
	</g>
	<g id="MTEXT_95_">
		<text transform="matrix(1 0 0 1 545.5781 380.7764)" fill="#0000FF" font-family="'ArialMT'" font-size="3.3532">Área= 5.80 m²</text>
	</g>
	<g id="MTEXT_96_">
		<text transform="matrix(1 0 0 1 545.918 429.2285)" fill="#0000FF" font-family="'ArialMT'" font-size="3.3532">Área= 6.39 m²</text>
	</g>
	<g id="MTEXT_97_">
		<text transform="matrix(1 0 0 1 298.5122 322.874)" fill="#0000FF" font-family="'ArialMT'" font-size="3.3532">Área= 8.00 m²</text>
	</g>
	<g id="MTEXT_98_">
		<text transform="matrix(1 0 0 1 331.1782 322.3027)" fill="#0000FF" font-family="'ArialMT'" font-size="3.3532">Área= 6.50 m²</text>
	</g>
	<g id="MTEXT_99_">
		<text transform="matrix(1 0 0 1 298.2871 371.8672)" fill="#0000FF" font-family="'ArialMT'" font-size="3.3532">Área= 7.86 m²</text>
	</g>
	<g id="MTEXT_100_">
		<text transform="matrix(1 0 0 1 334.6514 386.0391)" fill="#0000FF" font-family="'ArialMT'" font-size="3.3532">Área= 6.25 m²</text>
	</g>
	<g id="MTEXT_101_">
		<text transform="matrix(1 0 0 1 299.8647 428.7197)" fill="#0000FF" font-family="'ArialMT'" font-size="3.3532">Área= 8.41 m²</text>
	</g>
	<g id="MTEXT_102_">
		<text transform="matrix(1 0 0 1 339.1318 428.9619)" fill="#0000FF" font-family="'ArialMT'" font-size="3.3532">Área= 4.84 m²</text>
	</g>
	<g id="LWPOLYLINE_52_">
		
			<rect x="384.8" y="161.443" fill="none" stroke="#0000FF" stroke-width="0" stroke-linecap="round" stroke-linejoin="round" stroke-miterlimit="10" width="27.362" height="32.523"/>
	</g>
	<g id="MTEXT_103_">
		<text transform="matrix(1 0 0 1 389.3926 173.3262)" fill="#0000FF" font-family="'ArialMT'" font-size="3.3532">Área= 3.85 m²</text>
	</g>
	<g id="MTEXT_104_">
		<text transform="matrix(1 0 0 1 388.5044 334.4932)" fill="#0000FF" font-family="'ArialMT'" font-size="3.3532">Área= 6.84 m²</text>
	</g>
	<g id="MTEXT_105_">
		<text transform="matrix(1 0 0 1 444.7402 324.9658)" fill="#0000FF" font-family="'ArialMT'" font-size="3.3532">Área= 5.47 m²</text>
	</g>
	<g id="MTEXT_106_">
		<text transform="matrix(1 0 0 1 469.416 324.8018)" fill="#0000FF" font-family="'ArialMT'" font-size="3.3532">Área= 5.34 m²</text>
	</g>
	<g id="MTEXT_107_">
		<text transform="matrix(1 0 0 1 442.4678 379.2861)" fill="#0000FF" font-family="'ArialMT'" font-size="3.3532">Área= 5.47 m²</text>
	</g>
	<g id="MTEXT_108_">
		<text transform="matrix(1 0 0 1 472.2188 378.9014)" fill="#0000FF" font-family="'ArialMT'" font-size="3.3532">Área= 5.34 m²</text>
	</g>
	<g id="MTEXT_109_">
		<text transform="matrix(1 0 0 1 441.9229 426.335)" fill="#0000FF" font-family="'ArialMT'" font-size="3.3532">Área= 4.83 m²</text>
	</g>
	<g id="MTEXT_110_">
		<text transform="matrix(1 0 0 1 471.7422 426.6846)" fill="#0000FF" font-family="'ArialMT'" font-size="3.3532">Área= 4.80 m²</text>
	</g>
	<g id="LWPOLYLINE_53_">
		
			<rect x="380.239" y="188.475" fill="none" stroke="#0000FF" stroke-width="0" stroke-linecap="round" stroke-linejoin="round" stroke-miterlimit="10" width="4.561" height="36.483"/>
	</g>
	<g id="LWPOLYLINE_54_">
		
			<rect x="412.162" y="188.475" fill="none" stroke="#0000FF" stroke-width="0" stroke-linecap="round" stroke-linejoin="round" stroke-miterlimit="10" width="4.56" height="36.483"/>
	</g>
	<g id="MTEXT_111_">
		
			<text transform="matrix(-1.836970e-016 1 -1 -1.836970e-016 380.7617 198.7061)" fill="#0000FF" font-family="'ArialMT'" font-size="3.3532">Vitrina 058 </text>
	</g>
	<g id="MTEXT_112_">
		
			<text transform="matrix(-1.836970e-016 1 -1 -1.836970e-016 412.6914 197.0996)" fill="#0000FF" font-family="'ArialMT'" font-size="3.3532">Vitrina 059 </text>
	</g>
	<g id="LWPOLYLINE_55_">
		
			<rect x="412.973" y="141.412" fill="none" stroke="#0000FF" stroke-width="0" stroke-linecap="round" stroke-linejoin="round" stroke-miterlimit="10" width="9.057" height="9.15"/>
	</g>
	<g id="MTEXT_116_">
		<text transform="matrix(1 0 0 1 413.9297 144.5234)" fill="#0000FF" font-family="'ArialMT'" font-size="3.3532">LOCAL</text>
	</g>
	<g id="MTEXT_117_">
		<text transform="matrix(1 0 0 1 412.9639 150.4785)" fill="#0000FF" font-family="'ArialMT'" font-size="3.3532">Área= .36 m²</text>
	</g>
	<g id="MTEXT_118_">
		
			<text transform="matrix(-1.836970e-016 1 -1 -1.836970e-016 376.5742 197.1152)" fill="#0000FF" font-family="'ArialMT'" font-size="3.3532">Área= 0.72 m²</text>
	</g>
	<g id="MTEXT_119_">
		
			<text transform="matrix(-1.836970e-016 1 -1 -1.836970e-016 417.5566 196.8604)" fill="#0000FF" font-family="'ArialMT'" font-size="3.3532">Área= 0.72 m²</text>
	</g>
	<g id="LWPOLYLINE_62_">
		
			<rect x="380.239" y="388.799" fill="none" stroke="#0000FF" stroke-width="0" stroke-linecap="round" stroke-linejoin="round" stroke-miterlimit="10" width="4.561" height="36.482"/>
	</g>
	<g id="LWPOLYLINE_63_">
		
			<rect x="412.162" y="388.799" fill="none" stroke="#0000FF" stroke-width="0" stroke-linecap="round" stroke-linejoin="round" stroke-miterlimit="10" width="4.56" height="36.482"/>
	</g>
	<g id="MTEXT_120_">
		
			<text transform="matrix(-1.836970e-016 1 -1 -1.836970e-016 381.2207 399.0293)" fill="#0000FF" font-family="'ArialMT'" font-size="3.3532">Vitrina 062 </text>
	</g>
	<g id="MTEXT_121_">
		
			<text transform="matrix(-1.836970e-016 1 -1 -1.836970e-016 412.9922 397.5645)" fill="#0000FF" font-family="'ArialMT'" font-size="3.3532">Vitrina 063 </text>
	</g>
	<g id="MTEXT_122_">
		
			<text transform="matrix(-1.836970e-016 1 -1 -1.836970e-016 376.5742 397.4385)" fill="#0000FF" font-family="'ArialMT'" font-size="3.3532">Área= 0.72 m²</text>
	</g>
	<g id="MTEXT_123_">
		
			<text transform="matrix(-1.836970e-016 1 -1 -1.836970e-016 417.5566 397.1836)" fill="#0000FF" font-family="'ArialMT'" font-size="3.3532">Área= 0.72 m²</text>
	</g>
	<g id="LWPOLYLINE_64_">
		
			<rect x="380.239" y="346.22" fill="none" stroke="#0000FF" stroke-width="0" stroke-linecap="round" stroke-linejoin="round" stroke-miterlimit="10" width="4.561" height="36.482"/>
	</g>
	<g id="LWPOLYLINE_65_">
		
			<rect x="412.162" y="346.22" fill="none" stroke="#0000FF" stroke-width="0" stroke-linecap="round" stroke-linejoin="round" stroke-miterlimit="10" width="4.56" height="36.482"/>
	</g>
	<g id="MTEXT_124_">
		
			<text transform="matrix(-1.836970e-016 1 -1 -1.836970e-016 381.2207 356.9648)" fill="#0000FF" font-family="'ArialMT'" font-size="3.3532">Vitrina 056</text>
	</g>
	<g id="MTEXT_125_">
		
			<text transform="matrix(-1.836970e-016 1 -1 -1.836970e-016 412.9922 355.502)" fill="#0000FF" font-family="'ArialMT'" font-size="3.3532">Vitrina 057</text>
	</g>
	<g id="MTEXT_126_">
		
			<text transform="matrix(-1.836970e-016 1 -1 -1.836970e-016 376.5742 354.8594)" fill="#0000FF" font-family="'ArialMT'" font-size="3.3532">Área= 0.72 m²</text>
	</g>
	<g id="MTEXT_127_">
		
			<text transform="matrix(-1.836970e-016 1 -1 -1.836970e-016 417.5566 354.6055)" fill="#0000FF" font-family="'ArialMT'" font-size="3.3532">Área= 0.72 m²</text>
	</g>
	<g id="LWPOLYLINE_66_">
		
			<rect x="517.86" y="307.749" fill="none" stroke="#0000FF" stroke-width="0" stroke-linecap="round" stroke-linejoin="round" stroke-miterlimit="10" width="9.057" height="9.149"/>
	</g>
	<g id="MTEXT_128_">
		<text transform="matrix(1 0 0 1 516.8408 310.8604)" fill="#0000FF" font-family="'ArialMT'" font-size="3.3532">LOCAL 61</text>
	</g>
	<g id="MTEXT_129_">
		<text transform="matrix(1 0 0 1 517.8516 316.8154)" fill="#0000FF" font-family="'ArialMT'" font-size="3.3532">Área= .36 m²</text>
	</g>
</g>
<g id="AREAS_COMUNES">
	<g id="MTEXT_52_">
		<text transform="matrix(1 0 0 1 390.9219 388.7783)" fill="#7FFF00" font-family="'ArialMT'" font-size="4.4709">Escalera</text>
		<text transform="matrix(1 0 0 1 391.3657 393.8604)" fill="#7FFF00" font-family="'ArialMT'" font-size="4.4709">eléctrica</text>
	</g>
	<g id="MTEXT_55_">
		<text transform="matrix(1 0 0 1 390.2549 126.6943)" fill="#7FFF00" font-family="'ArialMT'" font-size="2.2355">baja</text>
	</g>
	<g id="MTEXT_57_">
		<text transform="matrix(1 0 0 1 246.3306 20.6143)" fill="#7FFF00" font-family="'CenturyGothic'" font-size="6.7064">Escalera</text>
	</g>
	<g id="LWPOLYLINE_57_">
		
			<polygon fill="none" stroke="#7FFF00" stroke-width="0" stroke-linecap="round" stroke-linejoin="round" stroke-miterlimit="10" points="
			273.527,43.323 227.468,43.323 227.468,6.841 301.889,6.841 301.954,72.013 283.256,72.013 283.256,25.31 273.527,25.31 		"/>
	</g>
	<g id="LWPOLYLINE_58_">
		
			<rect x="384.8" y="132.561" fill="none" stroke="#7FFF00" stroke-width="0" stroke-linecap="round" stroke-linejoin="round" stroke-miterlimit="10" width="27.362" height="28.882"/>
	</g>
	<g id="LWPOLYLINE_59_">
		
			<rect x="384.8" y="181.045" fill="none" stroke="#7FFF00" stroke-width="0" stroke-linecap="round" stroke-linejoin="round" stroke-miterlimit="10" width="27.362" height="45.603"/>
	</g>
	<g id="LWPOLYLINE_60_">
		
			<rect x="388.928" y="291.405" fill="none" stroke="#7FFF00" stroke-width="0" stroke-linecap="round" stroke-linejoin="round" stroke-miterlimit="10" width="19.752" height="135.213"/>
	</g>
	<g id="LWPOLYLINE_61_">
		
			<polygon fill="none" stroke="#7FFF00" stroke-width="0" stroke-linecap="round" stroke-linejoin="round" stroke-miterlimit="10" points="
			438.794,466.673 571.773,466.673 571.773,442.352 513.279,442.352 513.279,454.512 438.794,454.512 		"/>
	</g>
	<g id="MTEXT_113_">
		<text transform="matrix(1 0 0 1 385.5259 149.2549)" fill="#7FFF00" font-family="'CenturyGothic'" font-size="6.7064">Escalera</text>
	</g>
	<g id="MTEXT_114_">
		<text transform="matrix(1 0 0 1 385.4326 210.666)" fill="#7FFF00" font-family="'CenturyGothic'" font-size="6.7064">Escalera</text>
	</g>
	<g id="MTEXT_115_">
		<text transform="matrix(1 0 0 1 522.5723 460.085)" fill="#7FFF00" font-family="'CenturyGothic'" font-size="6.7064">Escalera</text>
	</g>
</g>
</svg>
