<?xml version="1.0" encoding="utf-8"?>
<!-- Generator: Adobe Illustrator 16.0.0, SVG Export Plug-In . SVG Version: 6.00 Build 0)  -->
<!DOCTYPE svg PUBLIC "-//W3C//DTD SVG 1.1//EN" "http://www.w3.org/Graphics/SVG/1.1/DTD/svg11.dtd">
<svg version="1.1" xmlns="http://www.w3.org/2000/svg" xmlns:xlink="http://www.w3.org/1999/xlink" x="0px" y="0px" width="800px"
	 height="600px" viewBox="0 0 800 600" enable-background="new 0 0 800 600" xml:space="preserve">
<g id="_x30_">
	<g id="MTEXT">
		<text transform="matrix(1 0 0 1 450.3008 562.5557)" font-family="'Arial-BoldMT'" font-size="20.4695">4o. NIVEL - BAZAR</text>
	</g>
	<g id="MTEXT_25_">
		<text transform="matrix(1 0 0 1 490.5801 590.6172)" font-family="'Arial-BoldMT'" font-size="20.4695">Arquitectónico</text>
	</g>
</g>
<g id="AREAS_COMUNES">
	<g id="MTEXT_1_">
		<text transform="matrix(1 0 0 1 603.8682 252.0039)" fill="#7FFF00" font-family="'Arial-BoldMT'" font-size="5.5089">ELEVADOR</text>
	</g>
	<g id="MTEXT_2_">
		<text transform="matrix(1 0 0 1 567.6455 75.1943)" fill="#7FFF00" font-family="'Arial-BoldMT'" font-size="5.5089">BODEGA</text>
	</g>
	<g id="LWPOLYLINE_22_">
		
			<polygon fill="none" stroke="#7FFF00" stroke-width="0" stroke-linecap="round" stroke-linejoin="round" stroke-miterlimit="10" points="
			311.391,62.992 524.406,62.992 524.406,90.091 516.677,90.091 516.677,99.094 525.307,99.094 525.307,178.592 513.229,178.592 
			513.229,190.296 517.577,190.296 517.577,195.211 518.464,195.211 597.822,231.685 634.799,231.685 634.799,268.978 
			517.577,268.956 517.577,277.99 526.581,277.99 526.581,272.579 573.216,272.579 573.217,360.752 631.018,360.752 
			631.018,436.018 557.19,436.018 557.19,438.044 570.638,438.044 570.638,480.381 513.536,480.379 513.526,460.212 495.52,460.212 
			495.52,463.273 273.321,463.411 281.861,407.633 281.882,120.432 281.874,118.631 278.083,62.993 		"/>
	</g>
	<g id="LWPOLYLINE_24_">
		
			<polygon fill="none" stroke="#7FFF00" stroke-width="0" stroke-linecap="round" stroke-linejoin="round" stroke-miterlimit="10" points="
			552.609,360.733 552.609,397.646 557.291,397.646 557.291,436 631.117,436 631.117,360.733 		"/>
	</g>
	<g id="MTEXT_48_">
		<text transform="matrix(1 0 0 1 585.5625 399.1504)" fill="#7FFF00" font-family="'CenturyGothic'" font-size="7.944">Escalera</text>
	</g>
	<g id="LWPOLYLINE_25_">
		
			<rect x="606.139" y="231.522" fill="none" stroke="#7FFF00" stroke-width="0.3857" stroke-linecap="round" stroke-linejoin="round" stroke-miterlimit="10" width="25.93" height="37.273"/>
	</g>
</g>
<g id="AREA__x28_POLILINEA_x29_">
	<g id="MTEXT_3_">
		<text transform="matrix(1 0 0 1 596.8789 292.9106)" fill="#0000FF" font-family="'ArialMT'" font-size="5.0126">Local 401</text>
	</g>
	<g id="MTEXT_4_">
		<text transform="matrix(1 0 0 1 593.0986 334.793)" fill="#0000FF" font-family="'ArialMT'" font-size="5.0126">Local 402</text>
	</g>
	<g id="MTEXT_5_">
		<text transform="matrix(1 0 0 1 532.1104 500.5459)" fill="#0000FF" font-family="'ArialMT'" font-size="5.0126">Local 404</text>
	</g>
	<g id="MTEXT_6_">
		<text transform="matrix(1 0 0 1 472.6494 492.7139)" fill="#0000FF" font-family="'ArialMT'" font-size="5.0126">Local 405</text>
	</g>
	<g id="MTEXT_7_">
		<text transform="matrix(1 0 0 1 425.54 491.9199)" fill="#0000FF" font-family="'ArialMT'" font-size="5.0126">Local 406</text>
	</g>
	<g id="MTEXT_8_">
		<text transform="matrix(1 0 0 1 371.6709 492.0352)" fill="#0000FF" font-family="'ArialMT'" font-size="5.0126">Local 407</text>
	</g>
	<g id="MTEXT_9_">
		<text transform="matrix(1 0 0 1 319.0059 492.2813)" fill="#0000FF" font-family="'ArialMT'" font-size="5.0126">Local 408</text>
	</g>
	<g id="MTEXT_10_">
		<text transform="matrix(1 0 0 1 257.5488 493.71)" fill="#0000FF" font-family="'ArialMT'" font-size="5.0126">Local 409</text>
	</g>
	<g id="MTEXT_11_">
		<text transform="matrix(1 0 0 1 243.1011 430.2148)" fill="#0000FF" font-family="'ArialMT'" font-size="5.0126">Local 410</text>
	</g>
	<g id="MTEXT_12_">
		<text transform="matrix(1 0 0 1 243.7061 379.6758)" fill="#0000FF" font-family="'ArialMT'" font-size="5.0126">Local 411</text>
	</g>
	<g id="MTEXT_13_">
		<text transform="matrix(1 0 0 1 243.7061 320.0576)" fill="#0000FF" font-family="'ArialMT'" font-size="5.0126">Local 412</text>
	</g>
	<g id="MTEXT_14_">
		<text transform="matrix(1 0 0 1 244.6318 261.5186)" fill="#0000FF" font-family="'ArialMT'" font-size="5.0126">Local 413</text>
	</g>
	<g id="MTEXT_15_">
		<text transform="matrix(1 0 0 1 244.2563 205.1968)" fill="#0000FF" font-family="'ArialMT'" font-size="5.0126">Local 414</text>
	</g>
	<g id="MTEXT_16_">
		<text transform="matrix(1 0 0 1 244.3467 145.2866)" fill="#0000FF" font-family="'ArialMT'" font-size="5.0126">Local 415</text>
	</g>
	<g id="MTEXT_17_">
		<text transform="matrix(1 0 0 1 244.3467 93.0503)" fill="#0000FF" font-family="'ArialMT'" font-size="5.0126">Local 416</text>
	</g>
	<g id="MTEXT_18_">
		<text transform="matrix(1 0 0 1 260.3569 34.647)" fill="#0000FF" font-family="'ArialMT'" font-size="5.0126">Local 417</text>
	</g>
	<g id="MTEXT_19_">
		<text transform="matrix(1 0 0 1 329.0947 34.2358)" fill="#0000FF" font-family="'ArialMT'" font-size="5.0126">Local 418</text>
	</g>
	<g id="MTEXT_20_">
		<text transform="matrix(1 0 0 1 383.6479 34.3394)" fill="#0000FF" font-family="'ArialMT'" font-size="5.0126">Local 419</text>
	</g>
	<g id="MTEXT_21_">
		<text transform="matrix(1 0 0 1 435.4297 34.2148)" fill="#0000FF" font-family="'ArialMT'" font-size="5.0126">Local 420</text>
	</g>
	<g id="MTEXT_22_">
		<text transform="matrix(1 0 0 1 488.8047 33.978)" fill="#0000FF" font-family="'ArialMT'" font-size="5.0126">Local 421</text>
	</g>
	<g id="MTEXT_23_">
		<text transform="matrix(1 0 0 1 535.2139 141.668)" fill="#0000FF" font-family="'ArialMT'" font-size="5.0126">Local 423</text>
	</g>
	<g id="MTEXT_24_">
		<text transform="matrix(1 0 0 1 590.6729 206.5386)" fill="#0000FF" font-family="'ArialMT'" font-size="5.0126">Local 424</text>
	</g>
	<g id="LWPOLYLINE">
		
			<polyline fill="none" stroke="#0000FF" stroke-width="0" stroke-linecap="round" stroke-linejoin="round" stroke-miterlimit="10" points="
			527.48,91.622 563.925,91.622 563.925,186.696 562.967,186.696 562.967,187.596 526.581,187.633 526.581,177.692 525.307,177.692 
			525.307,98.194 527.48,98.194 527.48,91.622 		"/>
	</g>
	<g id="LWPOLYLINE_1_">
		
			<polygon fill="none" stroke="#0000FF" stroke-width="0" stroke-linecap="round" stroke-linejoin="round" stroke-miterlimit="10" points="
			229.655,8.613 311.391,8.613 311.391,62.092 278.079,62.092 278.079,61.191 229.655,61.191 		"/>
	</g>
	<g id="LWPOLYLINE_2_">
		
			<polygon fill="none" stroke="#0000FF" stroke-width="0" stroke-linecap="round" stroke-linejoin="round" stroke-miterlimit="10" points="
			311.391,8.613 311.391,62.092 364.87,62.092 364.87,5.02 337.693,5.02 337.693,17.616 326.89,17.616 326.89,8.613 		"/>
	</g>
	<g id="LWPOLYLINE_3_">
		
			<rect x="364.87" y="5.02" fill="none" stroke="#0000FF" stroke-width="0" stroke-linecap="round" stroke-linejoin="round" stroke-miterlimit="10" width="53.479" height="57.072"/>
	</g>
	<g id="LWPOLYLINE_4_">
		
			<rect x="418.349" y="5.02" fill="none" stroke="#0000FF" stroke-width="0" stroke-linecap="round" stroke-linejoin="round" stroke-miterlimit="10" width="53.479" height="57.072"/>
	</g>
	<g id="LWPOLYLINE_5_">
		
			<polygon fill="none" stroke="#0000FF" stroke-width="0" stroke-linecap="round" stroke-linejoin="round" stroke-miterlimit="10" points="
			471.827,5.02 516.677,5.011 516.677,10.413 525.307,10.413 525.307,62.092 471.827,62.092 		"/>
	</g>
	<g id="LWPOLYLINE_6_">
		
			<polygon fill="none" stroke="#0000FF" stroke-width="0" stroke-linecap="round" stroke-linejoin="round" stroke-miterlimit="10" points="
			636.6,188.496 628.856,188.496 628.856,186.696 562.967,186.696 562.967,187.596 526.581,187.633 526.581,189.396 
			517.577,189.396 517.577,194.311 518.464,194.311 597.822,230.733 597.822,228.983 636.652,228.983 		"/>
	</g>
	<g id="LWPOLYLINE_7_">
		
			<polygon fill="none" stroke="#0000FF" stroke-width="0" stroke-linecap="round" stroke-linejoin="round" stroke-miterlimit="10" points="
			573.216,269.698 573.217,313.28 636.6,313.28 636.6,277.087 627.596,277.081 627.596,269.882 		"/>
	</g>
	<g id="LWPOLYLINE_8_">
		
			<polygon fill="none" stroke="#0000FF" stroke-width="0" stroke-linecap="round" stroke-linejoin="round" stroke-miterlimit="10" points="
			573.217,313.28 573.217,357.723 624.896,357.72 624.896,349.383 636.6,349.383 636.6,313.28 		"/>
	</g>
	<g id="LWPOLYLINE_9_">
		
			<rect x="512.636" y="479.479" fill="none" stroke="#0000FF" stroke-width="0" stroke-linecap="round" stroke-linejoin="round" stroke-miterlimit="10" width="58.962" height="42.102"/>
	</g>
	<g id="LWPOLYLINE_10_">
		
			<polyline fill="none" stroke="#0000FF" stroke-width="0" stroke-linecap="round" stroke-linejoin="round" stroke-miterlimit="10" points="
			496.42,462.373 460.228,462.373 460.228,528.244 501.372,528.244 501.372,517.891 512.636,517.891 512.625,500.916 
			500.921,500.916 500.921,491.913 512.636,491.913 512.636,479.118 496.42,479.118 496.42,462.373 		"/>
	</g>
	<g id="LWPOLYLINE_11_">
		
			<rect x="408.008" y="462.373" fill="none" stroke="#0000FF" stroke-width="0" stroke-linecap="round" stroke-linejoin="round" stroke-miterlimit="10" width="52.22" height="65.871"/>
	</g>
	<g id="LWPOLYLINE_12_">
		
			<rect x="355.79" y="462.373" fill="none" stroke="#0000FF" stroke-width="0" stroke-linecap="round" stroke-linejoin="round" stroke-miterlimit="10" width="52.219" height="65.871"/>
	</g>
	<g id="LWPOLYLINE_13_">
		
			<polygon fill="none" stroke="#0000FF" stroke-width="0" stroke-linecap="round" stroke-linejoin="round" stroke-miterlimit="10" points="
			355.79,462.373 306.633,462.373 306.633,522.932 344.059,522.932 344.059,517.891 355.79,517.891 355.79,502.652 344.086,502.652 
			344.086,491.903 355.79,491.903 		"/>
	</g>
	<g id="LWPOLYLINE_14_">
		
			<polygon fill="none" stroke="#0000FF" stroke-width="0" stroke-linecap="round" stroke-linejoin="round" stroke-miterlimit="10" points="
			306.633,462.373 273.342,462.373 273.342,463.273 223.43,463.273 223.43,491.903 229.476,491.903 229.476,500.907 
			223.437,500.907 223.44,515.64 228.755,515.64 228.755,522.932 306.633,522.932 		"/>
	</g>
	<g id="LWPOLYLINE_15_">
		
			<polygon fill="none" stroke="#0000FF" stroke-width="0" stroke-linecap="round" stroke-linejoin="round" stroke-miterlimit="10" points="
			281.861,407.008 281.874,406.733 281.874,405.833 228.575,405.833 228.575,435.117 229.476,435.117 229.476,444.121 
			223.43,444.121 223.43,463.273 273.342,463.273 273.342,462.373 		"/>
	</g>
	<g id="LWPOLYLINE_16_">
		
			<polygon fill="none" stroke="#0000FF" stroke-width="0" stroke-linecap="round" stroke-linejoin="round" stroke-miterlimit="10" points="
			281.874,348.393 230.556,348.393 230.556,358.387 228.575,358.387 228.575,405.833 281.874,405.833 		"/>
	</g>
	<g id="LWPOLYLINE_17_">
		
			<rect x="229.655" y="290.952" fill="none" stroke="#0000FF" stroke-width="0" stroke-linecap="round" stroke-linejoin="round" stroke-miterlimit="10" width="52.219" height="57.44"/>
	</g>
	<g id="LWPOLYLINE_18_">
		
			<rect x="229.655" y="233.512" fill="none" stroke="#0000FF" stroke-width="0" stroke-linecap="round" stroke-linejoin="round" stroke-miterlimit="10" width="52.219" height="57.44"/>
	</g>
	<g id="LWPOLYLINE_19_">
		
			<rect x="229.655" y="176.072" fill="none" stroke="#0000FF" stroke-width="0" stroke-linecap="round" stroke-linejoin="round" stroke-miterlimit="10" width="52.219" height="57.44"/>
	</g>
	<g id="LWPOLYLINE_20_">
		
			<rect x="229.655" y="118.632" fill="none" stroke="#0000FF" stroke-width="0" stroke-linecap="round" stroke-linejoin="round" stroke-miterlimit="10" width="52.219" height="57.44"/>
	</g>
	<g id="LWPOLYLINE_21_">
		
			<polygon fill="none" stroke="#0000FF" stroke-width="0" stroke-linecap="round" stroke-linejoin="round" stroke-miterlimit="10" points="
			229.655,61.191 229.655,118.632 281.874,118.632 281.874,117.731 278.083,62.092 278.079,61.191 		"/>
	</g>
	<g id="MTEXT_26_">
		<text transform="matrix(1 0 0 1 258.0288 39.4756)" fill="#0000FF" font-family="'ArialMT'" font-size="3.972">Área= 13.35 m²</text>
	</g>
	<g id="MTEXT_27_">
		<text transform="matrix(1 0 0 1 327.771 39.6582)" fill="#0000FF" font-family="'ArialMT'" font-size="3.972">Área= 8.82 m²</text>
	</g>
	<g id="MTEXT_28_">
		<text transform="matrix(1 0 0 1 382.0386 39.6167)" fill="#0000FF" font-family="'ArialMT'" font-size="3.972">Área= 9.41 m²</text>
	</g>
	<g id="MTEXT_29_">
		<text transform="matrix(1 0 0 1 434.5518 39.7432)" fill="#0000FF" font-family="'ArialMT'" font-size="3.972">Área= 9.41m²</text>
	</g>
	<g id="MTEXT_30_">
		<text transform="matrix(1 0 0 1 487.0967 39.5073)" fill="#0000FF" font-family="'ArialMT'" font-size="3.972">Área= 9.27 m²</text>
	</g>
	<g id="MTEXT_31_">
		<text transform="matrix(1 0 0 1 538.0332 149.1294)" fill="#0000FF" font-family="'ArialMT'" font-size="3.972">11.35 m²</text>
	</g>
	<g id="MTEXT_32_">
		<text transform="matrix(1 0 0 1 242.8398 97.9736)" fill="#0000FF" font-family="'ArialMT'" font-size="3.972">Área= 8.91m²</text>
	</g>
	<g id="MTEXT_33_">
		<text transform="matrix(1 0 0 1 243.002 150.2461)" fill="#0000FF" font-family="'ArialMT'" font-size="3.972">Área= 9.25 m²</text>
	</g>
	<g id="MTEXT_34_">
		<text transform="matrix(1 0 0 1 243.084 210.4927)" fill="#0000FF" font-family="'ArialMT'" font-size="3.972">Área= 9.25 m²</text>
	</g>
	<g id="MTEXT_35_">
		<text transform="matrix(1 0 0 1 589.6133 211.4937)" fill="#0000FF" font-family="'ArialMT'" font-size="3.972">Área= 11.18 m²</text>
	</g>
	<g id="MTEXT_36_">
		<text transform="matrix(1 0 0 1 595.3271 297.9282)" fill="#0000FF" font-family="'ArialMT'" font-size="3.972">Área= 8.30 m²</text>
	</g>
	<g id="MTEXT_37_">
		<text transform="matrix(1 0 0 1 591.4824 340.1123)" fill="#0000FF" font-family="'ArialMT'" font-size="3.972">Área= 8.38 m²</text>
	</g>
	<g id="MTEXT_38_">
		<text transform="matrix(1 0 0 1 530.7471 506.0635)" fill="#0000FF" font-family="'ArialMT'" font-size="3.972">Área= 7.65 m²</text>
	</g>
	<g id="MTEXT_39_">
		<text transform="matrix(1 0 0 1 470.4395 497.7314)" fill="#0000FF" font-family="'ArialMT'" font-size="3.972">Área= 9.12 m²</text>
	</g>
	<g id="MTEXT_40_">
		<text transform="matrix(1 0 0 1 422.7734 498.2031)" fill="#0000FF" font-family="'ArialMT'" font-size="3.972">Área= 10.60 m²</text>
	</g>
	<g id="MTEXT_41_">
		<text transform="matrix(1 0 0 1 368.6953 498.0225)" fill="#0000FF" font-family="'ArialMT'" font-size="3.972">Área= 10.60 m²</text>
	</g>
	<g id="MTEXT_42_">
		<text transform="matrix(1 0 0 1 317.3872 497.8545)" fill="#0000FF" font-family="'ArialMT'" font-size="3.972">Área= 8.61 m²</text>
	</g>
	<g id="MTEXT_43_">
		<text transform="matrix(1 0 0 1 256.1582 498.7656)" fill="#0000FF" font-family="'ArialMT'" font-size="3.972">Área= 15.11 m²</text>
	</g>
	<g id="MTEXT_44_">
		<text transform="matrix(1 0 0 1 242.2114 436.1162)" fill="#0000FF" font-family="'ArialMT'" font-size="3.972">Área= 8.97m²</text>
	</g>
	<g id="MTEXT_45_">
		<text transform="matrix(1 0 0 1 241.8135 383.7783)" fill="#0000FF" font-family="'ArialMT'" font-size="3.972">Área= 9.38 m²</text>
	</g>
	<g id="MTEXT_46_">
		<text transform="matrix(1 0 0 1 241.9316 325.5488)" fill="#0000FF" font-family="'ArialMT'" font-size="3.972">Área= 9.25 m²</text>
	</g>
	<g id="MTEXT_47_">
		<text transform="matrix(1 0 0 1 243.647 266.5205)" fill="#0000FF" font-family="'ArialMT'" font-size="3.972">Área= 9.25m²</text>
	</g>
</g>
</svg>
