<?xml version="1.0" encoding="utf-8"?>
<!-- Generator: Adobe Illustrator 16.0.0, SVG Export Plug-In . SVG Version: 6.00 Build 0)  -->
<!DOCTYPE svg PUBLIC "-//W3C//DTD SVG 1.1//EN" "http://www.w3.org/Graphics/SVG/1.1/DTD/svg11.dtd">
<svg version="1.1" xmlns="http://www.w3.org/2000/svg" xmlns:xlink="http://www.w3.org/1999/xlink" x="0px" y="0px" width="800px"
	 height="600px" viewBox="0 0 800 600" enable-background="new 0 0 800 600" xml:space="preserve">
<g id="ÁREAS">
	<g id="LWPOLYLINE">
		
			<polyline fill="none" stroke="#003FFF" stroke-width="1.1339" stroke-linecap="round" stroke-linejoin="round" stroke-miterlimit="10" points="
			369.456,9.602 369.456,11.383 378.633,11.383 378.633,58.13 374.494,58.13 374.494,64.361 378.633,64.361 378.633,124.268 
			373.693,124.268 373.693,128.38 299.224,128.38 299.224,125.069 297.613,125.069 295.833,125.069 295.833,64.361 299.224,64.361 
			299.224,58.13 297.613,58.13 295.833,58.13 295.833,13.098 300.669,13.098 300.669,11.333 330.167,10.591 330.167,12.363 
			339.958,12.118 339.958,10.344 369.456,9.602 369.456,11.383 		"/>
	</g>
	<g id="LWPOLYLINE_1_">
		
			<polyline fill="none" stroke="#003FFF" stroke-width="1.1339" stroke-linecap="round" stroke-linejoin="round" stroke-miterlimit="10" points="
			414.186,102.922 378.633,102.922 378.633,64.361 380.725,64.361 380.725,58.13 378.633,58.13 378.633,11.383 385.479,11.383 
			385.479,9.602 416.555,8.674 416.555,10.455 419.972,10.353 421.449,10.309 421.449,82.449 414.186,82.449 414.186,102.922 		"/>
	</g>
	<g id="LWPOLYLINE_2_">
		
			<polyline fill="none" stroke="#003FFF" stroke-width="1.1339" stroke-linecap="round" stroke-linejoin="round" stroke-miterlimit="10" points="
			428.428,102.922 428.428,82.449 421.449,82.449 421.449,10.309 426.345,10.162 426.345,8.381 457.42,7.453 457.42,9.234 
			461.701,9.234 461.701,102.922 428.428,102.922 		"/>
	</g>
	<g id="LWPOLYLINE_3_">
		
			<polyline fill="none" stroke="#003FFF" stroke-width="1.1339" stroke-linecap="round" stroke-linejoin="round" stroke-miterlimit="10" points="
			406.566,126.369 406.566,219.245 381.526,219.245 381.526,214.154 373.693,214.154 373.693,219.245 297.088,219.245 
			297.088,213.353 293.705,213.353 291.925,213.353 291.925,173.296 299.224,173.296 299.224,167.065 297.444,167.065 
			297.444,131.3 299.224,131.3 299.224,130.392 299.224,128.38 373.693,128.38 373.693,132.101 381.526,132.101 381.526,128.38 
			381.526,126.369 406.566,126.369 		"/>
	</g>
	<g id="MTEXT">
		<text transform="matrix(1 0 0 1 324.624 62.2773)" fill="#003FFF" font-family="'ArialMT'" font-size="4.7319">Bodega 304</text>
	</g>
	<g id="MTEXT_1_">
		<text transform="matrix(1 0 0 1 387.8818 37.5688)" fill="#003FFF" font-family="'ArialMT'" font-size="4.7319">Bodega 302</text>
	</g>
	<g id="MTEXT_2_">
		<text transform="matrix(1 0 0 1 429.498 37.6328)" fill="#003FFF" font-family="'ArialMT'" font-size="4.7319">Bodega 303</text>
	</g>
	<g id="MTEXT_7_">
		<text transform="matrix(1 0 0 1 335.5298 170.7832)" fill="#003FFF" font-family="'ArialMT'" font-size="4.7319">Bodega 305</text>
	</g>
	<g id="MTEXT_8_">
		<text transform="matrix(1 0 0 1 364.6475 260.4395)" fill="#003FFF" font-family="'ArialMT'" font-size="4.7319">Bodega 301</text>
	</g>
	<g id="MTEXT_9_">
		<text transform="matrix(1 0 0 1 352.9619 348.3252)" fill="#003FFF" font-family="'ArialMT'" font-size="4.7319">BODEGA NUEVA</text>
	</g>
	<g id="MTEXT_10_">
		<text transform="matrix(1 0 0 1 397.1401 516.0996)" fill="#003FFF" font-family="'ArialMT'" font-size="7.8542">Bodega 306</text>
	</g>
	<g id="MTEXT_11_">
		<text transform="matrix(1 0 0 1 453.9824 278.6973)" fill="#003FFF" font-family="'ArialMT'" font-size="4.7319">Bodega 312</text>
	</g>
	<g id="MTEXT_12_">
		<text transform="matrix(1 0 0 1 304.7378 302.251)" fill="#003FFF" font-family="'ArialMT'" font-size="4.7319">Bodega 301</text>
	</g>
	<g id="MTEXT_13_">
		<text transform="matrix(1 0 0 1 513.7666 302.7441)" fill="#003FFF" font-family="'ArialMT'" font-size="4.7319">Bodega 311</text>
	</g>
	<g id="LWPOLYLINE_4_">
		
			<rect x="290.323" y="344.363" fill="none" stroke="#003FFF" stroke-width="1.1339" stroke-linecap="round" stroke-linejoin="round" stroke-miterlimit="10" width="44.329" height="47.195"/>
	</g>
	<g id="LWPOLYLINE_5_">
		
			<polyline fill="none" stroke="#003FFF" stroke-width="1.1339" stroke-linecap="round" stroke-linejoin="round" stroke-miterlimit="10" points="
			293.545,566.311 544.956,566.311 545.774,485.415 544.528,485.415 544.528,477.581 545.774,477.594 546.585,397.113 
			545.444,397.113 545.444,394.229 465.886,394.229 465.886,397.113 458.407,397.113 458.407,394.229 435.192,394.229 
			432.522,394.229 432.522,454.687 460.882,454.687 460.882,477.581 465.886,477.581 465.886,485.415 458.407,485.415 
			458.407,479.719 411.328,479.719 411.328,500.512 378.874,500.512 373.871,477.581 378.874,477.581 378.874,454.687 
			406.566,454.687 406.566,391.559 381.348,391.559 381.348,397.113 373.871,397.113 373.871,394.229 300.34,394.229 
			300.34,432.077 293.545,432.077 293.545,475.089 298.323,475.089 298.323,487.907 294.773,487.907 293.545,487.907 
			293.545,566.311 		"/>
	</g>
	<g id="MTEXT_14_">
		<text transform="matrix(1 0 0 1 524.6455 239.5444)" fill="#003FFF" font-family="'ArialMT'" font-size="4.7319">Bodega 313</text>
	</g>
	<g id="MTEXT_15_">
		<text transform="matrix(1 0 0 1 448.3164 351.0625)" fill="#003FFF" font-family="'ArialMT'" font-size="4.7319">BODEGA NUEVA</text>
	</g>
	<g id="LWPOLYLINE_7_">
		
			<polygon fill="none" stroke="#003FFF" stroke-width="1.1339" stroke-linecap="round" stroke-linejoin="round" stroke-miterlimit="10" points="
			406.566,219.245 381.526,219.245 381.526,221.987 373.693,221.987 373.693,219.245 336.254,219.245 336.254,304.191 
			373.693,304.191 373.693,300.897 381.526,300.897 381.526,304.191 406.566,304.191 		"/>
	</g>
	<g id="LINE">
		
			<line fill="none" stroke="#003FFF" stroke-width="1.1339" stroke-linecap="round" stroke-linejoin="round" stroke-miterlimit="10" x1="337.856" y1="305.526" x2="337.856" y2="302.856"/>
	</g>
	<g id="LWPOLYLINE_8_">
		
			<polygon fill="none" stroke="#003FFF" stroke-width="1.1339" stroke-linecap="round" stroke-linejoin="round" stroke-miterlimit="10" points="
			336.254,267.349 292.103,267.349 291.934,298.806 297.444,298.806 297.444,310.823 291.888,310.823 291.765,343.028 
			336.254,343.028 		"/>
	</g>
	<g id="LWPOLYLINE_9_">
		
			<polygon fill="none" stroke="#003FFF" stroke-width="1.1339" stroke-linecap="round" stroke-linejoin="round" stroke-miterlimit="10" points="
			406.566,304.191 381.526,304.191 381.526,308.731 373.693,308.731 373.693,304.191 336.254,304.191 336.254,392.895 
			373.871,392.895 373.871,389.279 381.348,389.279 381.348,392.895 406.566,392.895 		"/>
	</g>
	<g id="LWPOLYLINE_10_">
		
			<polygon fill="none" stroke="#003FFF" stroke-width="1.1339" stroke-linecap="round" stroke-linejoin="round" stroke-miterlimit="10" points="
			432.522,220.207 432.522,304.191 458.308,304.191 458.308,300.897 466.14,300.897 466.14,304.191 501.953,304.191 
			502.043,264.928 465.395,264.928 465.307,220.207 		"/>
	</g>
	<g id="LWPOLYLINE_11_">
		
			<polygon fill="none" stroke="#003FFF" stroke-width="1.1339" stroke-linecap="round" stroke-linejoin="round" stroke-miterlimit="10" points="
			432.522,304.191 458.308,304.191 458.308,308.731 466.14,308.731 466.14,304.191 501.953,304.191 501.775,392.895 
			465.886,392.895 465.886,389.279 458.407,389.279 458.407,392.895 432.522,392.895 		"/>
	</g>
	<g id="LWPOLYLINE_12_">
		
			<rect x="520.134" y="224.988" fill="none" stroke="#003FFF" stroke-width="1.1339" stroke-linecap="round" stroke-linejoin="round" stroke-miterlimit="10" width="31.845" height="35.71"/>
	</g>
	<g id="LWPOLYLINE_13_">
		
			<polygon fill="none" stroke="#003FFF" stroke-width="1.1339" stroke-linecap="round" stroke-linejoin="round" stroke-miterlimit="10" points="
			502.043,264.928 518.059,264.928 518.059,260.698 548.613,260.698 548.351,304.146 545.151,304.146 545.151,310.912 
			548.338,310.912 548.279,343.028 501.953,343.028 		"/>
	</g>
	<g id="MTEXT_16_">
		<text transform="matrix(1 0 0 1 323.377 70.3486)" fill="#003FFF" font-family="'ArialMT'" font-size="4.0221">Área= 30.43 m²</text>
	</g>
	<g id="MTEXT_17_">
		<text transform="matrix(1 0 0 1 386.481 45.2471)" fill="#003FFF" font-family="'ArialMT'" font-size="4.0221">Área= 12.09 m²</text>
	</g>
	<g id="MTEXT_18_">
		<text transform="matrix(1 0 0 1 428.334 45.6914)" fill="#003FFF" font-family="'ArialMT'" font-size="4.0221">Área= 11.56 m²</text>
	</g>
	<g id="MTEXT_19_">
		<text transform="matrix(1 0 0 1 334.6514 178.2729)" fill="#003FFF" font-family="'ArialMT'" font-size="4.0221">Área= 31.88 m²</text>
	</g>
	<g id="MTEXT_20_">
		<text transform="matrix(1 0 0 1 362.6797 269.2378)" fill="#003FFF" font-family="'ArialMT'" font-size="4.0221">Área= 18.70 m²</text>
	</g>
	<g id="MTEXT_21_">
		<text transform="matrix(1 0 0 1 303.7715 310.4238)" fill="#003FFF" font-family="'ArialMT'" font-size="4.0221">Área= 10.37m²</text>
	</g>
	<g id="MTEXT_22_">
		<text transform="matrix(1 0 0 1 357.541 357.0918)" fill="#003FFF" font-family="'ArialMT'" font-size="4.0221">Área= 19.48 m²</text>
	</g>
	<g id="MTEXT_23_">
		<text transform="matrix(1 0 0 1 452.5977 287.4766)" fill="#003FFF" font-family="'ArialMT'" font-size="4.0221">Área= 13.15 m²</text>
	</g>
	<g id="MTEXT_24_">
		<text transform="matrix(1 0 0 1 523.1787 246.9834)" fill="#003FFF" font-family="'ArialMT'" font-size="4.0221">Área= 3.59 m²</text>
	</g>
	<g id="MTEXT_25_">
		<text transform="matrix(1 0 0 1 512.1299 310.1484)" fill="#003FFF" font-family="'ArialMT'" font-size="4.0221">Área= 11.77 m²</text>
	</g>
	<g id="MTEXT_26_">
		<text transform="matrix(1 0 0 1 454.2031 361.7217)" fill="#003FFF" font-family="'ArialMT'" font-size="4.0221">Área= 19.21 m²</text>
	</g>
	<g id="MTEXT_27_">
		<text transform="matrix(1 0 0 1 396.5479 526.9746)" fill="#003FFF" font-family="'ArialMT'" font-size="6.0332">Área= 107.08 m²</text>
	</g>
</g>
<g id="ÁREAS_COMUNES">
	<g id="MTEXT_3_">
		<text transform="matrix(1 0 0 1 475.374 86.5654)" fill="#00FF3F" font-family="'ArialMT'" font-size="4.7319">Administración</text>
	</g>
	<g id="MTEXT_4_">
		<text transform="matrix(1 0 0 1 470.0127 30.5649)" fill="#00FF3F" font-family="'ArialMT'" font-size="4.7319">Oficina Gerente</text>
	</g>
	<g id="MTEXT_5_">
		<text transform="matrix(1 0 0 1 517.9268 54.5864)" fill="#00FF3F" font-family="'ArialMT'" font-size="4.7319">Bodega</text>
		<text transform="matrix(1 0 0 1 518.1035 59.9492)" fill="#00FF3F" font-family="'ArialMT'" font-size="4.7319">de Limpieza</text>
	</g>
	<g id="MTEXT_6_">
		<text transform="matrix(1 0 0 1 506.8594 103.5313)" fill="#00FF3F" font-family="'ArialMT'" font-size="4.7319">Circuito Cerrado</text>
	</g>
	<g id="LWPOLYLINE_6_">
		
			<polyline fill="none" stroke="#00FF3F" stroke-width="1.1339" stroke-linecap="round" stroke-linejoin="round" stroke-miterlimit="10" points="
			464.46,9.234 465.803,131.242 548.279,130.392 547.393,6.999 464.46,9.234 		"/>
	</g>
	<g id="LWPOLYLINE_15_">
		
			<polygon fill="none" stroke="#00FF3F" stroke-width="1.1339" stroke-linecap="round" stroke-linejoin="round" stroke-miterlimit="10" points="
			547.746,178.216 521.268,178.216 521.268,183.322 547.688,183.322 		"/>
	</g>
	<g id="LWPOLYLINE_16_">
		
			<polygon fill="none" stroke="#00FF3F" stroke-width="1.1339" stroke-linecap="round" stroke-linejoin="round" stroke-miterlimit="10" points="
			547.807,173.109 521.268,173.109 521.268,178.216 547.746,178.216 		"/>
	</g>
	<g id="LWPOLYLINE_17_">
		
			<polygon fill="none" stroke="#00FF3F" stroke-width="1.1339" stroke-linecap="round" stroke-linejoin="round" stroke-miterlimit="10" points="
			547.862,167.974 521.268,167.974 521.268,173.109 547.807,173.109 		"/>
	</g>
	<g id="LWPOLYLINE_18_">
		
			<polygon fill="none" stroke="#00FF3F" stroke-width="1.1339" stroke-linecap="round" stroke-linejoin="round" stroke-miterlimit="10" points="
			547.918,162.896 521.268,162.896 521.268,167.974 547.862,167.974 		"/>
	</g>
	<g id="LWPOLYLINE_19_">
		
			<rect x="515.918" y="130.392" fill="none" stroke="#00FF3F" stroke-width="1.1339" stroke-linecap="round" stroke-linejoin="round" stroke-miterlimit="10" width="5.35" height="27.398"/>
	</g>
	<g id="LWPOLYLINE_20_">
		
			<rect x="510.578" y="130.392" fill="none" stroke="#00FF3F" stroke-width="1.1339" stroke-linecap="round" stroke-linejoin="round" stroke-miterlimit="10" width="5.34" height="27.398"/>
	</g>
	<g id="LWPOLYLINE_21_">
		
			<rect x="505.237" y="130.392" fill="none" stroke="#00FF3F" stroke-width="1.1339" stroke-linecap="round" stroke-linejoin="round" stroke-miterlimit="10" width="5.341" height="27.398"/>
	</g>
	<g id="LWPOLYLINE_22_">
		
			<rect x="499.896" y="130.392" fill="none" stroke="#00FF3F" stroke-width="1.1339" stroke-linecap="round" stroke-linejoin="round" stroke-miterlimit="10" width="5.342" height="27.398"/>
	</g>
	<g id="LWPOLYLINE_23_">
		
			<rect x="510.578" y="188.429" fill="none" stroke="#00FF3F" stroke-width="1.1339" stroke-linecap="round" stroke-linejoin="round" stroke-miterlimit="10" width="5.34" height="26.704"/>
	</g>
	<g id="LWPOLYLINE_24_">
		
			<rect x="499.896" y="188.429" fill="none" stroke="#00FF3F" stroke-width="1.1339" stroke-linecap="round" stroke-linejoin="round" stroke-miterlimit="10" width="5.342" height="26.704"/>
	</g>
	<g id="LWPOLYLINE_25_">
		
			<rect x="505.237" y="188.429" fill="none" stroke="#00FF3F" stroke-width="1.1339" stroke-linecap="round" stroke-linejoin="round" stroke-miterlimit="10" width="5.341" height="26.704"/>
	</g>
	<g id="LWPOLYLINE_26_">
		
			<polygon fill="none" stroke="#00FF3F" stroke-width="1.1339" stroke-linecap="round" stroke-linejoin="round" stroke-miterlimit="10" points="
			547.979,157.79 521.268,157.79 521.268,162.896 547.918,162.896 		"/>
	</g>
	<g id="LWPOLYLINE_27_">
		
			<polygon fill="none" stroke="#00FF3F" stroke-width="1.1339" stroke-linecap="round" stroke-linejoin="round" stroke-miterlimit="10" points="
			521.26,196.6 521.26,194.678 521.268,188.429 515.918,188.429 515.918,215.133 521.26,215.133 		"/>
	</g>
	<g id="LWPOLYLINE_28_">
		
			<polygon fill="none" stroke="#00FF3F" stroke-width="1.1339" stroke-linecap="round" stroke-linejoin="round" stroke-miterlimit="10" points="
			547.688,183.322 521.268,183.322 521.268,188.429 547.641,188.429 		"/>
	</g>
	<g id="MTEXT_28_">
		<text transform="matrix(1 0 0 1 504.1172 132.1348)" fill="#00FF3F" font-family="'ArialMT'" font-size="1.9635">1</text>
	</g>
	<g id="MTEXT_29_">
		<text transform="matrix(1 0 0 1 509.2148 132.1348)" fill="#00FF3F" font-family="'ArialMT'" font-size="1.9635">2</text>
	</g>
	<g id="MTEXT_30_">
		<text transform="matrix(1 0 0 1 514.541 132.1348)" fill="#00FF3F" font-family="'ArialMT'" font-size="1.9635">3</text>
	</g>
	<g id="MTEXT_31_">
		<text transform="matrix(1 0 0 1 519.8945 132.1289)" fill="#00FF3F" font-family="'ArialMT'" font-size="1.9635">4</text>
	</g>
	<g id="MTEXT_32_">
		<text transform="matrix(1 0 0 1 546.875 132.8545)" fill="#00FF3F" font-family="'ArialMT'" font-size="1.9635">5</text>
	</g>
	<g id="MTEXT_33_">
		<text transform="matrix(1 0 0 1 546.167 159.5332)" fill="#00FF3F" font-family="'ArialMT'" font-size="1.9635">6</text>
	</g>
	<g id="MTEXT_34_">
		<text transform="matrix(1 0 0 1 546.1689 164.8691)" fill="#00FF3F" font-family="'ArialMT'" font-size="1.9635">7</text>
	</g>
	<g id="MTEXT_35_">
		<text transform="matrix(1 0 0 1 546.4824 169.7168)" fill="#00FF3F" font-family="'ArialMT'" font-size="1.9635">8</text>
	</g>
	<g id="MTEXT_36_">
		<text transform="matrix(1 0 0 1 546.4248 175.0566)" fill="#00FF3F" font-family="'ArialMT'" font-size="1.9635">9</text>
	</g>
	<g id="MTEXT_37_">
		<text transform="matrix(1 0 0 1 545.3389 180.3975)" fill="#00FF3F" font-family="'ArialMT'" font-size="1.9635">10</text>
	</g>
	<g id="MTEXT_38_">
		<text transform="matrix(1 0 0 1 545.5332 185.7378)" fill="#00FF3F" font-family="'ArialMT'" font-size="1.9635">11</text>
	</g>
	<g id="MTEXT_39_">
		<text transform="matrix(1 0 0 1 545.2324 191.0781)" fill="#00FF3F" font-family="'ArialMT'" font-size="1.9635">12</text>
	</g>
	<g id="MTEXT_40_">
		<text transform="matrix(1 0 0 1 518.5596 190.4102)" fill="#00FF3F" font-family="'ArialMT'" font-size="1.9635">13</text>
	</g>
	<g id="MTEXT_41_">
		<text transform="matrix(1 0 0 1 513.5088 190.3223)" fill="#00FF3F" font-family="'ArialMT'" font-size="1.9635">14</text>
	</g>
	<g id="MTEXT_42_">
		<text transform="matrix(1 0 0 1 508.1543 190.1494)" fill="#00FF3F" font-family="'ArialMT'" font-size="1.9635">15</text>
	</g>
	<g id="MTEXT_43_">
		<text transform="matrix(1 0 0 1 502.8232 190.1719)" fill="#00FF3F" font-family="'ArialMT'" font-size="1.9635">16</text>
	</g>
	<g id="MTEXT_44_">
		<text transform="matrix(1 0 0 1 497.4834 190.1719)" fill="#00FF3F" font-family="'ArialMT'" font-size="1.9635">17</text>
	</g>
	<g id="CIRCLE">
		
			<path fill="none" stroke="#00FF3F" stroke-width="1.1339" stroke-linecap="round" stroke-linejoin="round" stroke-miterlimit="10" d="
			M497.908,144.438c0-0.192-0.155-0.347-0.347-0.347s-0.347,0.155-0.347,0.347c0,0.191,0.155,0.346,0.347,0.346
			S497.908,144.629,497.908,144.438L497.908,144.438z"/>
	</g>
	<g id="TEXT">
		<text transform="matrix(1.2 0 0 1 483.2998 141.332)" fill="#00FF3F" font-family="'MyriadPro-Regular'" font-size="5.1605">sube</text>
	</g>
	<g id="LINE_1_">
		
			<line fill="none" stroke="#00FF3F" stroke-width="1.1339" stroke-linecap="round" stroke-linejoin="round" stroke-miterlimit="10" x1="534.623" y1="185.911" x2="532.4" y2="184.628"/>
	</g>
	<g id="LINE_2_">
		
			<line fill="none" stroke="#00FF3F" stroke-width="1.1339" stroke-linecap="round" stroke-linejoin="round" stroke-miterlimit="10" x1="532.4" y1="184.628" x2="533.34" y2="184.628"/>
	</g>
	<g id="LINE_3_">
		
			<line fill="none" stroke="#00FF3F" stroke-width="1.1339" stroke-linecap="round" stroke-linejoin="round" stroke-miterlimit="10" x1="534.623" y1="185.911" x2="533.34" y2="184.628"/>
	</g>
	<g id="LINE_4_">
		
			<line fill="none" stroke="#00FF3F" stroke-width="1.1339" stroke-linecap="round" stroke-linejoin="round" stroke-miterlimit="10" x1="534.623" y1="185.911" x2="535.905" y2="184.628"/>
	</g>
	<g id="LINE_5_">
		
			<line fill="none" stroke="#00FF3F" stroke-width="1.1339" stroke-linecap="round" stroke-linejoin="round" stroke-miterlimit="10" x1="534.623" y1="185.911" x2="536.844" y2="184.628"/>
	</g>
	<g id="LINE_6_">
		
			<line fill="none" stroke="#00FF3F" stroke-width="1.1339" stroke-linecap="round" stroke-linejoin="round" stroke-miterlimit="10" x1="495.938" y1="144.438" x2="540.019" y2="144.438"/>
	</g>
	<g id="LINE_7_">
		
			<line fill="none" stroke="#00FF3F" stroke-width="1.1339" stroke-linecap="round" stroke-linejoin="round" stroke-miterlimit="10" x1="534.623" y1="185.911" x2="534.623" y2="139.903"/>
	</g>
	<g id="LINE_8_">
		
			<line fill="none" stroke="#00FF3F" stroke-width="1.1339" stroke-linecap="round" stroke-linejoin="round" stroke-miterlimit="10" x1="532.483" y1="139.85" x2="539.7" y2="146.263"/>
	</g>
	<g id="LWPOLYLINE_29_">
		
			<rect x="521.84" y="130.392" fill="none" stroke="#00FF3F" stroke-width="1.1339" stroke-linecap="round" stroke-linejoin="round" stroke-miterlimit="10" width="26.139" height="27.398"/>
	</g>
	<g id="LWPOLYLINE_30_">
		
			<rect x="521.26" y="188.429" fill="none" stroke="#00FF3F" stroke-width="1.1339" stroke-linecap="round" stroke-linejoin="round" stroke-miterlimit="10" width="26.381" height="26.704"/>
	</g>
</g>
<g id="_x30_">
</g>
</svg>
