<?xml version="1.0" encoding="utf-8"?>
<!-- Generator: Adobe Illustrator 16.0.0, SVG Export Plug-In . SVG Version: 6.00 Build 0)  -->
<!DOCTYPE svg PUBLIC "-//W3C//DTD SVG 1.1//EN" "http://www.w3.org/Graphics/SVG/1.1/DTD/svg11.dtd">
<svg version="1.1" xmlns="http://www.w3.org/2000/svg" xmlns:xlink="http://www.w3.org/1999/xlink" x="0px" y="0px" width="800px"
	 height="600px" viewBox="0 0 800 600" enable-background="new 0 0 800 600" xml:space="preserve">
<g id="_x30_">
	<g id="TEXT">
		<text transform="matrix(1.5 0 0 1 0.0269 465.6191)" font-family="'ArialMT'" font-size="13.2098">Arquitectónico</text>
	</g>
	<g id="TEXT_1_">
		<text transform="matrix(1.5 0 0 1 0.0269 476.8477)" font-family="'ArialMT'" font-size="13.2098">Planta  de  azoteas.</text>
	</g>
	<g id="LINE">
		
			<line fill="none" stroke="#000000" stroke-width="0.7087" stroke-linecap="round" stroke-linejoin="round" stroke-miterlimit="10" x1="800" y1="130.495" x2="800" y2="123.009"/>
	</g>
	<g id="LINE_1_">
		
			<line fill="none" stroke="#000000" stroke-width="0.7087" stroke-linecap="round" stroke-linejoin="round" stroke-miterlimit="10" x1="785.029" y1="130.495" x2="800" y2="130.495"/>
	</g>
	<g id="TEXT_2_">
		<text transform="matrix(1 0 0 1 769.4063 127.5645)" font-family="'ArialMT'" font-size="3.9629">c o l i n d a n c i a</text>
	</g>
</g>
<g id="Areas_x5F_comunes">
	<g id="LWPOLYLINE">
		
			<rect x="65.768" y="144.805" fill="none" stroke="#0000FF" stroke-width="1.1339" stroke-linecap="round" stroke-linejoin="round" stroke-miterlimit="10" width="27.204" height="37.723"/>
	</g>
	<g id="LWPOLYLINE_1_">
		
			<rect x="65.768" y="188.627" fill="none" stroke="#0000FF" stroke-width="1.1339" stroke-linecap="round" stroke-linejoin="round" stroke-miterlimit="10" width="27.204" height="37.723"/>
	</g>
	<g id="LWPOLYLINE_2_">
		
			<rect x="57.432" y="360.134" fill="none" stroke="#0000FF" stroke-width="1.1339" stroke-linecap="round" stroke-linejoin="round" stroke-miterlimit="10" width="27.204" height="37.723"/>
	</g>
	<g id="LWPOLYLINE_3_">
		
			<rect x="272.499" y="360.134" fill="none" stroke="#0000FF" stroke-width="1.1339" stroke-linecap="round" stroke-linejoin="round" stroke-miterlimit="10" width="27.204" height="37.723"/>
	</g>
	<g id="LWPOLYLINE_4_">
		
			<polyline fill="none" stroke="#0000FF" stroke-width="1.1339" stroke-linecap="round" stroke-linejoin="round" stroke-miterlimit="10" points="
			800,408.848 800,133.529 118.815,133.529 118.815,135.326 45.76,135.326 45.76,408.848 800,408.848 		"/>
	</g>
	<g id="LWPOLYLINE_5_">
		
			<rect x="107.886" y="291.325" fill="none" stroke="#0000FF" stroke-width="1.1339" stroke-linecap="round" stroke-linejoin="round" stroke-miterlimit="10" width="107.829" height="32.936"/>
	</g>
	<g id="LWPOLYLINE_6_">
		
			<rect x="325.791" y="297.762" fill="none" stroke="#0000FF" stroke-width="1.1339" stroke-linecap="round" stroke-linejoin="round" stroke-miterlimit="10" width="49.405" height="26.499"/>
	</g>
	<g id="LWPOLYLINE_7_">
		
			<polygon fill="none" stroke="#0000FF" stroke-width="1.1339" stroke-linecap="round" stroke-linejoin="round" stroke-miterlimit="10" points="
			215.715,230.841 215.715,324.261 325.791,324.261 325.791,297.762 375.195,297.762 375.195,230.841 		"/>
	</g>
	<g id="LWPOLYLINE_8_">
		
			<polygon fill="none" stroke="#0000FF" stroke-width="1.1339" stroke-linecap="round" stroke-linejoin="round" stroke-miterlimit="10" points="
			217.961,230.841 217.961,138.021 302.548,138.021 302.548,158.231 350.493,158.231 350.493,138.021 372.949,138.021 
			372.949,230.841 		"/>
	</g>
	<g id="LWPOLYLINE_9_">
		
			<rect x="304.793" y="138.021" fill="none" stroke="#0000FF" stroke-width="1.1339" stroke-linecap="round" stroke-linejoin="round" stroke-miterlimit="10" width="43.454" height="17.965"/>
	</g>
	<g id="LWPOLYLINE_10_">
		
			<polygon fill="none" stroke="#0000FF" stroke-width="0.2551" stroke-linecap="round" stroke-linejoin="round" stroke-miterlimit="10" points="
			348.247,155.986 304.793,138.021 304.793,155.986 348.247,138.021 		"/>
	</g>
	<g id="LWPOLYLINE_11_">
		
			<rect x="375.195" y="138.021" fill="none" stroke="#0000FF" stroke-width="1.1339" stroke-linecap="round" stroke-linejoin="round" stroke-miterlimit="10" width="231.678" height="142.525"/>
	</g>
	<g id="LWPOLYLINE_12_">
		
			<rect x="609.118" y="236.613" fill="none" stroke="#0000FF" stroke-width="1.1339" stroke-linecap="round" stroke-linejoin="round" stroke-miterlimit="10" width="60.334" height="33.535"/>
	</g>
	<g id="LWPOLYLINE_13_">
		
			<rect x="609.118" y="150.03" fill="none" stroke="#0000FF" stroke-width="1.1339" stroke-linecap="round" stroke-linejoin="round" stroke-miterlimit="10" width="40.07" height="41.138"/>
	</g>
	<g id="LWPOLYLINE_14_">
		
			<rect x="765.172" y="133.529" fill="none" stroke="#0000FF" stroke-width="1.1339" stroke-linecap="round" stroke-linejoin="round" stroke-miterlimit="10" width="30.337" height="22.614"/>
	</g>
	<g id="LWPOLYLINE_15_">
		
			<polygon fill="none" stroke="#0000FF" stroke-width="1.1339" stroke-linecap="round" stroke-linejoin="round" stroke-miterlimit="10" points="
			793.263,406.602 707.18,406.602 707.18,402.11 702.688,402.11 702.688,406.602 613.609,406.602 613.609,402.11 609.118,402.11 
			609.118,406.602 520.04,406.602 520.04,402.11 515.549,402.11 515.549,406.602 425.723,406.602 425.723,402.11 421.231,402.11 
			421.231,406.602 331.405,406.602 331.405,402.11 326.913,402.11 326.913,406.602 239.333,406.602 239.333,402.11 234.841,402.11 
			234.841,406.602 148.009,406.602 148.009,402.11 143.518,402.11 143.518,406.602 52.497,406.602 52.497,402.11 48.005,402.11 
			48.005,322.016 52.497,322.016 52.497,317.523 48.005,317.523 48.005,228.596 52.497,228.596 52.497,224.104 48.005,224.104 
			48.005,137.571 121.061,137.571 121.061,135.775 143.518,135.775 143.518,140.266 148.009,140.266 148.009,135.775 
			215.715,135.775 215.715,291.325 107.886,291.325 107.886,324.261 375.195,324.261 375.195,282.791 609.118,282.791 
			609.118,270.148 669.452,270.148 669.452,236.613 609.118,236.613 609.118,191.168 649.188,191.168 649.188,150.03 
			609.118,150.03 609.118,140.266 613.609,140.266 613.609,136.523 702.688,136.523 702.688,140.266 707.18,140.266 707.18,136.523 
			765.172,136.523 765.172,156.144 793.263,156.144 		"/>
	</g>
	<g id="LWPOLYLINE_16_">
		
			<rect x="385.409" y="203.933" fill="none" stroke="#0000FF" stroke-width="1.1339" stroke-linecap="round" stroke-linejoin="round" stroke-miterlimit="10" width="91.932" height="28.445"/>
	</g>
</g>
<g id="TEXTOS">
	<g id="MTEXT">
		<text transform="matrix(0.75 0 0 1 72.8354 162.2969)" fill="#FF0000" font-family="'MyriadPro-Regular'" font-size="3.0107">Vertical</text>
		<text transform="matrix(0.75 0 0 1 68.1099 165.9727)" fill="#FF0000" font-family="'MyriadPro-Regular'" font-size="3.0107">Área: 4.57m</text>
		<text transform="matrix(0.75 0 0 1 79.7588 164.71)" fill="#FF0000" font-family="'MyriadPro-Regular'" font-size="2.1075">2</text>
	</g>
	<g id="MTEXT_1_">
		<text transform="matrix(0.75 0 0 1 149.8979 307.1064)" fill="#FF0000" font-family="'MyriadPro-Regular'" font-size="3.0107">Cubierta de </text>
		<text transform="matrix(0.75 0 0 1 138.7217 310.5186)" fill="#FF0000" font-family="'MyriadPro-Regular'" font-size="3.0107">Policarbonato</text>
		<text transform="matrix(0.75 0 0 1 156.0581 314.1943)" fill="#FF0000" font-family="'MyriadPro-Regular'" font-size="3.0107">Área: </text>
		<text transform="matrix(0.75 0 0 1 138.6494 317.875)" fill="#FF0000" font-family="'MyriadPro-Regular'" font-size="3.0107">15.84m</text>
		<text transform="matrix(0.75 0 0 1 145.7642 316.6123)" fill="#FF0000" font-family="'MyriadPro-Regular'" font-size="2.1075">2</text>
	</g>
	<g id="MTEXT_2_">
		<text transform="matrix(0.75 0 0 1 72.8354 206.1201)" fill="#FF0000" font-family="'MyriadPro-Regular'" font-size="3.0107">Vertical</text>
		<text transform="matrix(0.75 0 0 1 68.1099 209.7949)" fill="#FF0000" font-family="'MyriadPro-Regular'" font-size="3.0107">Área: 4.57m</text>
		<text transform="matrix(0.75 0 0 1 79.7588 208.5332)" fill="#FF0000" font-family="'MyriadPro-Regular'" font-size="2.1075">2</text>
	</g>
	<g id="MTEXT_3_">
		<text transform="matrix(0.75 0 0 1 64.499 377.626)" fill="#FF0000" font-family="'MyriadPro-Regular'" font-size="3.0107">Vertical</text>
		<text transform="matrix(0.75 0 0 1 59.7734 381.3018)" fill="#FF0000" font-family="'MyriadPro-Regular'" font-size="3.0107">Área: 4.57m</text>
		<text transform="matrix(0.75 0 0 1 71.4224 380.0391)" fill="#FF0000" font-family="'MyriadPro-Regular'" font-size="2.1075">2</text>
	</g>
	<g id="MTEXT_4_">
		<text transform="matrix(0.75 0 0 1 279.5664 377.626)" fill="#FF0000" font-family="'MyriadPro-Regular'" font-size="3.0107">Vertical</text>
		<text transform="matrix(0.75 0 0 1 274.8408 381.3018)" fill="#FF0000" font-family="'MyriadPro-Regular'" font-size="3.0107">Área: 4.57m</text>
		<text transform="matrix(0.75 0 0 1 286.4897 380.0391)" fill="#FF0000" font-family="'MyriadPro-Regular'" font-size="2.1075">2</text>
	</g>
	<g id="MTEXT_5_">
		<text transform="matrix(0.75 0 0 1 278.5884 275.001)" fill="#FF0000" font-family="'MyriadPro-Regular'" font-size="3.0107">Cubierta de </text>
		<text transform="matrix(0.75 0 0 1 270.3066 278.4131)" fill="#FF0000" font-family="'MyriadPro-Regular'" font-size="3.0107">lamina galvanizada</text>
		<text transform="matrix(0.75 0 0 1 287.6196 282.0889)" fill="#FF0000" font-family="'MyriadPro-Regular'" font-size="3.0107">Área: </text>
		<text transform="matrix(0.75 0 0 1 270.3589 285.7695)" fill="#FF0000" font-family="'MyriadPro-Regular'" font-size="3.0107">60.63m</text>
		<text transform="matrix(0.75 0 0 1 277.4736 284.5068)" fill="#FF0000" font-family="'MyriadPro-Regular'" font-size="2.1075">2</text>
	</g>
	<g id="MTEXT_6_">
		<text transform="matrix(0.75 0 0 1 344.978 309.3574)" fill="#FF0000" font-family="'MyriadPro-Regular'" font-size="3.0107">Área: </text>
		<text transform="matrix(0.75 0 0 1 327.0625 313.0381)" fill="#FF0000" font-family="'MyriadPro-Regular'" font-size="3.0107">5.84m</text>
		<text transform="matrix(0.75 0 0 1 332.9829 311.7754)" fill="#FF0000" font-family="'MyriadPro-Regular'" font-size="2.1075">2</text>
	</g>
	<g id="MTEXT_7_">
		<text transform="matrix(0.75 0 0 1 292.7358 185.5273)" fill="#FF0000" font-family="'MyriadPro-Regular'" font-size="3.0107">Losa de </text>
		<text transform="matrix(0.75 0 0 1 277.0869 188.9395)" fill="#FF0000" font-family="'MyriadPro-Regular'" font-size="3.0107">concreto</text>
		<text transform="matrix(0.75 0 0 1 294.3423 192.6152)" fill="#FF0000" font-family="'MyriadPro-Regular'" font-size="3.0107">Área: </text>
		<text transform="matrix(0.75 0 0 1 277.0811 196.2949)" fill="#FF0000" font-family="'MyriadPro-Regular'" font-size="3.0107">59.86m</text>
		<text transform="matrix(0.75 0 0 1 284.1958 195.0332)" fill="#FF0000" font-family="'MyriadPro-Regular'" font-size="2.1075">2</text>
	</g>
	<g id="MTEXT_8_">
		<text transform="matrix(0.75 0 0 1 320.8403 145.1865)" fill="#FF0000" font-family="'MyriadPro-Regular'" font-size="3.0107">Área: </text>
		<text transform="matrix(0.75 0 0 1 302.9219 148.8672)" fill="#FF0000" font-family="'MyriadPro-Regular'" font-size="3.0107">3.48m</text>
		<text transform="matrix(0.75 0 0 1 308.8423 147.6045)" fill="#FF0000" font-family="'MyriadPro-Regular'" font-size="2.1075">2</text>
	</g>
	<g id="MTEXT_9_">
		<text transform="matrix(0.75 0 0 1 522.4287 210.9668)" fill="#FF0000" font-family="'MyriadPro-Regular'" font-size="3.0107">Losa de </text>
		<text transform="matrix(0.75 0 0 1 506.7793 214.3789)" fill="#FF0000" font-family="'MyriadPro-Regular'" font-size="3.0107">concreto</text>
		<text transform="matrix(0.75 0 0 1 523.3809 218.0547)" fill="#FF0000" font-family="'MyriadPro-Regular'" font-size="3.0107">Área: </text>
		<text transform="matrix(0.75 0 0 1 506.626 221.7354)" fill="#FF0000" font-family="'MyriadPro-Regular'" font-size="3.0107">135.66m</text>
		<text transform="matrix(0.75 0 0 1 514.9355 220.4727)" fill="#FF0000" font-family="'MyriadPro-Regular'" font-size="2.1075">2</text>
	</g>
	<g id="MTEXT_10_">
		<text transform="matrix(0.75 0 0 1 624.1318 169.4053)" fill="#FF0000" font-family="'MyriadPro-Regular'" font-size="3.0107">Área: </text>
		<text transform="matrix(0.75 0 0 1 606.2041 173.0859)" fill="#FF0000" font-family="'MyriadPro-Regular'" font-size="3.0107">7.35m</text>
		<text transform="matrix(0.75 0 0 1 612.125 171.8232)" fill="#FF0000" font-family="'MyriadPro-Regular'" font-size="2.1075">2</text>
	</g>
	<g id="MTEXT_11_">
		<text transform="matrix(0.75 0 0 1 635.2539 251.8389)" fill="#FF0000" font-family="'MyriadPro-Regular'" font-size="3.0107">Área: </text>
		<text transform="matrix(0.75 0 0 1 617.3379 255.5195)" fill="#FF0000" font-family="'MyriadPro-Regular'" font-size="3.0107">9.02m</text>
		<text transform="matrix(0.75 0 0 1 623.2578 254.2568)" fill="#FF0000" font-family="'MyriadPro-Regular'" font-size="2.1075">2</text>
	</g>
	<g id="MTEXT_12_">
		<text transform="matrix(0.75 0 0 1 773.6621 143.5674)" fill="#FF0000" font-family="'MyriadPro-Regular'" font-size="3.0107">Área: </text>
		<text transform="matrix(0.75 0 0 1 755.7432 147.248)" fill="#FF0000" font-family="'MyriadPro-Regular'" font-size="3.0107">3.06m</text>
		<text transform="matrix(0.75 0 0 1 761.6641 145.9854)" fill="#FF0000" font-family="'MyriadPro-Regular'" font-size="2.1075">2</text>
	</g>
	<g id="MTEXT_13_">
		<text transform="matrix(0.75 0 0 1 429.4951 217.2891)" fill="#FF0000" font-family="'MyriadPro-Regular'" font-size="3.0107">Tinacos</text>
		<text transform="matrix(0.75 0 0 1 426.1387 220.9639)" fill="#FF0000" font-family="'MyriadPro-Regular'" font-size="3.0107">Área: </text>
		<text transform="matrix(0.75 0 0 1 408.7305 224.6445)" fill="#FF0000" font-family="'MyriadPro-Regular'" font-size="3.0107">11.66m</text>
		<text transform="matrix(0.75 0 0 1 415.8447 223.3828)" fill="#FF0000" font-family="'MyriadPro-Regular'" font-size="2.1075">2</text>
	</g>
	<g id="MTEXT_14_">
		<text transform="matrix(0.75 0 0 1 107.5195 243.3008)" fill="#FF0000" font-family="'MyriadPro-Regular'" font-size="3.0107">Losa de </text>
		<text transform="matrix(0.75 0 0 1 91.8706 246.7129)" fill="#FF0000" font-family="'MyriadPro-Regular'" font-size="3.0107">concreto</text>
		<text transform="matrix(0.75 0 0 1 108.4717 250.3887)" fill="#FF0000" font-family="'MyriadPro-Regular'" font-size="3.0107">Área: </text>
		<text transform="matrix(0.75 0 0 1 91.8647 254.0684)" fill="#FF0000" font-family="'MyriadPro-Regular'" font-size="3.0107">557.65m</text>
		<text transform="matrix(0.75 0 0 1 100.1738 252.8066)" fill="#FF0000" font-family="'MyriadPro-Regular'" font-size="2.1075">2</text>
	</g>
	<g id="MTEXT_15_">
		<text transform="matrix(0.75 0 0 1 117.085 366.8926)" fill="#FF0000" font-family="'MyriadPro-Regular'" font-size="3.0107">Losa de </text>
		<text transform="matrix(0.75 0 0 1 101.436 370.3047)" fill="#FF0000" font-family="'MyriadPro-Regular'" font-size="3.0107">concreto</text>
		<text transform="matrix(0.75 0 0 1 118.0366 373.9795)" fill="#FF0000" font-family="'MyriadPro-Regular'" font-size="3.0107">Área: </text>
		<text transform="matrix(0.75 0 0 1 101.4297 377.6602)" fill="#FF0000" font-family="'MyriadPro-Regular'" font-size="3.0107">557.65m</text>
		<text transform="matrix(0.75 0 0 1 109.7388 376.3984)" fill="#FF0000" font-family="'MyriadPro-Regular'" font-size="2.1075">2</text>
	</g>
	<g id="MTEXT_16_">
		<text transform="matrix(0.75 0 0 1 345.9404 368.5762)" fill="#FF0000" font-family="'MyriadPro-Regular'" font-size="3.0107">Losa de </text>
		<text transform="matrix(0.75 0 0 1 330.2915 371.9883)" fill="#FF0000" font-family="'MyriadPro-Regular'" font-size="3.0107">concreto</text>
		<text transform="matrix(0.75 0 0 1 346.8921 375.6641)" fill="#FF0000" font-family="'MyriadPro-Regular'" font-size="3.0107">Área: </text>
		<text transform="matrix(0.75 0 0 1 330.2856 379.3447)" fill="#FF0000" font-family="'MyriadPro-Regular'" font-size="3.0107">557.65m</text>
		<text transform="matrix(0.75 0 0 1 338.5942 378.082)" fill="#FF0000" font-family="'MyriadPro-Regular'" font-size="2.1075">2</text>
	</g>
	<g id="MTEXT_17_">
		<text transform="matrix(0.75 0 0 1 666.7744 364.915)" fill="#FF0000" font-family="'MyriadPro-Regular'" font-size="3.0107">Losa de </text>
		<text transform="matrix(0.75 0 0 1 651.126 368.3271)" fill="#FF0000" font-family="'MyriadPro-Regular'" font-size="3.0107">concreto</text>
		<text transform="matrix(0.75 0 0 1 667.7266 372.0029)" fill="#FF0000" font-family="'MyriadPro-Regular'" font-size="3.0107">Área: </text>
		<text transform="matrix(0.75 0 0 1 651.1191 375.6836)" fill="#FF0000" font-family="'MyriadPro-Regular'" font-size="3.0107">557.65m</text>
		<text transform="matrix(0.75 0 0 1 659.4287 374.4209)" fill="#FF0000" font-family="'MyriadPro-Regular'" font-size="2.1075">2</text>
	</g>
	<g id="MTEXT_18_">
		<text transform="matrix(0.75 0 0 1 719.5547 184.8486)" fill="#FF0000" font-family="'MyriadPro-Regular'" font-size="3.0107">Losa de </text>
		<text transform="matrix(0.75 0 0 1 703.9053 188.2607)" fill="#FF0000" font-family="'MyriadPro-Regular'" font-size="3.0107">concreto</text>
		<text transform="matrix(0.75 0 0 1 720.5059 191.9365)" fill="#FF0000" font-family="'MyriadPro-Regular'" font-size="3.0107">Área: </text>
		<text transform="matrix(0.75 0 0 1 703.8994 195.6172)" fill="#FF0000" font-family="'MyriadPro-Regular'" font-size="3.0107">557.65m</text>
		<text transform="matrix(0.75 0 0 1 712.209 194.3545)" fill="#FF0000" font-family="'MyriadPro-Regular'" font-size="2.1075">2</text>
	</g>
</g>
</svg>
