<?xml version="1.0" encoding="utf-8"?>
<!-- Generator: Adobe Illustrator 16.0.0, SVG Export Plug-In . SVG Version: 6.00 Build 0)  -->
<!DOCTYPE svg PUBLIC "-//W3C//DTD SVG 1.1//EN" "http://www.w3.org/Graphics/SVG/1.1/DTD/svg11.dtd">
<svg version="1.1" xmlns="http://www.w3.org/2000/svg" xmlns:xlink="http://www.w3.org/1999/xlink" x="0px" y="0px" width="800px"
	 height="600px" viewBox="0 0 800 600" enable-background="new 0 0 800 600" xml:space="preserve">
<g id="_x30_">
	<g id="LWPOLYLINE">
		<polygon fill="#0000FF" points="409.585,549.124 409.582,548.981 426.506,548.68 		"/>
		<polygon fill="#0000FF" points="409.585,549.124 426.506,548.68 426.508,548.821 		"/>
		<polygon fill="#0000FF" points="426.508,548.821 427.134,548.749 427.109,548.623 426.506,548.68 		"/>
		<polygon fill="#0000FF" points="427.134,548.749 427.737,548.568 427.696,548.462 427.109,548.623 		"/>
		<polygon fill="#0000FF" points="427.737,548.568 428.298,548.286 428.247,548.201 427.696,548.462 		"/>
		<polygon fill="#0000FF" points="428.298,548.286 428.801,547.912 428.745,547.848 428.247,548.201 		"/>
		<polygon fill="#0000FF" points="428.801,547.912 429.23,547.457 429.175,547.412 428.745,547.848 		"/>
		<polygon fill="#0000FF" points="429.23,547.457 429.573,546.936 429.523,546.908 429.175,547.412 		"/>
		<polygon fill="#0000FF" points="429.573,546.936 429.82,546.363 429.779,546.35 429.523,546.908 		"/>
		<polygon fill="#0000FF" points="429.82,546.363 429.963,545.758 429.936,545.754 429.779,546.35 		"/>
		<polygon fill="#0000FF" points="429.963,545.758 429.999,545.139 429.985,545.139 429.936,545.754 		"/>
		
			<line fill="none" stroke="#0000FF" stroke-width="0.7087" stroke-linecap="round" stroke-linejoin="round" stroke-miterlimit="10" x1="429.992" y1="545.139" x2="429.932" y2="541.726"/>
	</g>
	<g id="LWPOLYLINE_1_">
		
			<line fill="none" stroke="#0000FF" stroke-width="0.7087" stroke-linecap="round" stroke-linejoin="round" stroke-miterlimit="10" x1="433.771" y1="541.678" x2="433.832" y2="545.07"/>
		<polygon fill="#0000FF" points="433.832,545.07 433.891,545.687 433.904,545.685 433.832,545.07 		"/>
		<polygon fill="#0000FF" points="433.891,545.687 434.055,546.285 434.081,546.275 433.904,545.685 		"/>
		<polygon fill="#0000FF" points="434.055,546.285 434.321,546.847 434.357,546.825 434.081,546.275 		"/>
		<polygon fill="#0000FF" points="434.321,546.847 434.682,547.355 434.725,547.317 434.357,546.825 		"/>
		<polygon fill="#0000FF" points="434.682,547.355 435.126,547.794 435.171,547.738 434.725,547.317 		"/>
		<polygon fill="#0000FF" points="435.126,547.794 435.641,548.149 435.682,548.074 435.171,547.738 		"/>
		<polygon fill="#0000FF" points="435.641,548.149 436.211,548.41 436.243,548.316 435.682,548.074 		"/>
		<polygon fill="#0000FF" points="436.211,548.41 436.818,548.568 436.836,548.457 436.243,548.316 		"/>
		<polygon fill="#0000FF" points="436.818,548.568 437.445,548.619 437.443,548.492 436.836,548.457 		"/>
		<polygon fill="#0000FF" points="437.445,548.627 437.443,548.484 465.596,547.982 		"/>
		<polygon fill="#0000FF" points="437.445,548.627 465.596,547.982 465.599,548.124 		"/>
		<polygon fill="#0000FF" points="465.599,548.124 466.302,548.034 466.275,547.911 465.596,547.982 		"/>
		<polygon fill="#0000FF" points="466.302,548.034 466.973,547.81 466.929,547.708 466.275,547.911 		"/>
		<polygon fill="#0000FF" points="466.973,547.81 467.585,547.459 467.531,547.381 466.929,547.708 		"/>
		<polygon fill="#0000FF" points="467.585,547.459 468.116,546.996 468.06,546.941 467.531,547.381 		"/>
		<polygon fill="#0000FF" points="468.116,546.996 468.546,546.44 468.493,546.406 468.06,546.941 		"/>
		<polygon fill="#0000FF" points="468.546,546.44 468.858,545.813 468.814,545.795 468.493,546.406 		"/>
		<polygon fill="#0000FF" points="468.858,545.813 469.042,545.138 469.012,545.132 468.814,545.795 		"/>
		<polygon fill="#0000FF" points="469.042,545.138 469.091,544.441 469.075,544.441 469.012,545.132 		"/>
		
			<line fill="none" stroke="#0000FF" stroke-width="0.7087" stroke-linecap="round" stroke-linejoin="round" stroke-miterlimit="10" x1="469.083" y1="544.441" x2="469.025" y2="541.247"/>
	</g>
	<g id="LWPOLYLINE_2_">
		
			<line fill="none" stroke="#0000FF" stroke-width="0.7087" stroke-linecap="round" stroke-linejoin="round" stroke-miterlimit="10" x1="472.878" y1="541.179" x2="472.935" y2="544.372"/>
		<polygon fill="#0000FF" points="472.935,544.372 472.993,544.989 473.007,544.986 472.935,544.372 		"/>
		<polygon fill="#0000FF" points="472.993,544.989 473.157,545.587 473.184,545.577 473.007,544.986 		"/>
		<polygon fill="#0000FF" points="473.157,545.587 473.424,546.149 473.46,546.127 473.184,545.577 		"/>
		<polygon fill="#0000FF" points="473.424,546.149 473.784,546.657 473.827,546.62 473.46,546.127 		"/>
		<polygon fill="#0000FF" points="473.784,546.657 474.229,547.096 474.273,547.041 473.827,546.62 		"/>
		<polygon fill="#0000FF" points="474.229,547.096 474.743,547.451 474.785,547.377 474.273,547.041 		"/>
		<polygon fill="#0000FF" points="474.743,547.451 475.313,547.712 475.346,547.618 474.785,547.377 		"/>
		<polygon fill="#0000FF" points="475.313,547.712 475.921,547.871 475.938,547.759 475.346,547.618 		"/>
		<polygon fill="#0000FF" points="475.921,547.871 476.548,547.922 476.546,547.794 475.938,547.759 		"/>
		<polygon fill="#0000FF" points="476.548,547.929 476.546,547.787 507.301,547.238 		"/>
		<polygon fill="#0000FF" points="476.548,547.929 507.301,547.238 507.304,547.38 		"/>
	</g>
	<g id="LWPOLYLINE_3_">
		
			<line fill="none" stroke="#0000FF" stroke-width="0.7087" stroke-linecap="round" stroke-linejoin="round" stroke-miterlimit="10" x1="472.945" y1="544.964" x2="469.093" y2="545.032"/>
	</g>
	<g id="LWPOLYLINE_4_">
		
			<line fill="none" stroke="#0000FF" stroke-width="0.7087" stroke-linecap="round" stroke-linejoin="round" stroke-miterlimit="10" x1="430.003" y1="545.73" x2="433.843" y2="545.662"/>
	</g>
	<g id="LWPOLYLINE_5_">
		<polygon fill="#0000FF" points="419.154,548.879 419.155,549.021 399.208,549.161 		"/>
		<polygon fill="#0000FF" points="419.154,548.879 399.208,549.161 399.207,549.02 		"/>
		<polygon fill="#0000FF" points="399.208,549.161 398.502,549.089 398.526,548.965 399.207,549.02 		"/>
		<polygon fill="#0000FF" points="398.502,549.089 397.826,548.881 397.868,548.778 398.526,548.965 		"/>
		<polygon fill="#0000FF" points="397.826,548.881 397.205,548.546 397.257,548.467 397.868,548.778 		"/>
		<polygon fill="#0000FF" points="397.205,548.546 396.663,548.097 396.718,548.04 397.257,548.467 		"/>
		<polygon fill="#0000FF" points="396.663,548.097 396.219,547.551 396.271,547.516 396.718,548.04 		"/>
		<polygon fill="#0000FF" points="396.219,547.551 395.891,546.932 395.935,546.913 396.271,547.516 		"/>
		<polygon fill="#0000FF" points="395.891,546.932 395.691,546.261 395.722,546.255 395.935,546.913 		"/>
		<polygon fill="#0000FF" points="395.691,546.261 395.625,545.566 395.641,545.565 395.722,546.255 		"/>
		
			<line fill="none" stroke="#0000FF" stroke-width="0.7087" stroke-linecap="round" stroke-linejoin="round" stroke-miterlimit="10" x1="395.633" y1="545.566" x2="395.611" y2="542.372"/>
	</g>
	<g id="LWPOLYLINE_6_">
		<polygon fill="#0000FF" points="479.15,547.882 479.148,547.74 507.301,547.238 		"/>
		<polygon fill="#0000FF" points="479.15,547.882 507.301,547.238 507.304,547.38 		"/>
		<polygon fill="#0000FF" points="507.304,547.38 508.007,547.29 507.98,547.167 507.301,547.238 		"/>
		<polygon fill="#0000FF" points="508.007,547.29 508.678,547.065 508.634,546.964 507.98,547.167 		"/>
		<polygon fill="#0000FF" points="508.678,547.065 509.29,546.715 509.236,546.637 508.634,546.964 		"/>
		<polygon fill="#0000FF" points="509.29,546.715 509.821,546.252 509.765,546.197 509.236,546.637 		"/>
		<polygon fill="#0000FF" points="509.821,546.252 510.251,545.696 510.198,545.662 509.765,546.197 		"/>
		<polygon fill="#0000FF" points="510.251,545.696 510.563,545.068 510.52,545.051 510.198,545.662 		"/>
		<polygon fill="#0000FF" points="510.563,545.068 510.747,544.394 510.717,544.388 510.52,545.051 		"/>
		<polygon fill="#0000FF" points="510.747,544.394 510.796,543.696 510.78,543.697 510.717,544.388 		"/>
		
			<line fill="none" stroke="#0000FF" stroke-width="0.7087" stroke-linecap="round" stroke-linejoin="round" stroke-miterlimit="10" x1="510.788" y1="543.697" x2="510.73" y2="540.503"/>
	</g>
</g>
<g id="Areas_x5F_comunes">
	<g id="MTEXT_48_">
		<text transform="matrix(1 0 0 1 307.6753 278.0459)" fill="#7FFF9F" font-family="'ArialMT'" font-size="1.5662">14</text>
	</g>
	<g id="MTEXT_27_">
		<text transform="matrix(1 0 0 1 311.2246 278.0459)" fill="#7FFF9F" font-family="'ArialMT'" font-size="1.5662">15</text>
	</g>
	<g id="MTEXT_26_">
		<text transform="matrix(1 0 0 1 314.7739 278.0459)" fill="#7FFF9F" font-family="'ArialMT'" font-size="1.5662">16</text>
	</g>
	<g id="MTEXT_25_">
		<text transform="matrix(1 0 0 1 318.3232 278.0459)" fill="#7FFF9F" font-family="'ArialMT'" font-size="1.5662">17</text>
	</g>
	<g id="MTEXT_24_">
		<text transform="matrix(1 0 0 1 321.8726 278.0459)" fill="#7FFF9F" font-family="'ArialMT'" font-size="1.5662">18</text>
	</g>
	<g id="MTEXT_23_">
		<text transform="matrix(1 0 0 1 325.4219 278.0459)" fill="#7FFF9F" font-family="'ArialMT'" font-size="1.5662">19</text>
	</g>
	<g id="MTEXT_22_">
		<text transform="matrix(1 0 0 1 329.0894 278.0459)" fill="#7FFF9F" font-family="'ArialMT'" font-size="1.5662">20</text>
	</g>
	<g id="MTEXT_21_">
		<text transform="matrix(1 0 0 1 328.6094 296.7021)" fill="#7FFF9F" font-family="'ArialMT'" font-size="1.5662">7</text>
	</g>
	<g id="MTEXT_17_">
		<text transform="matrix(1 0 0 1 325.0698 296.7061)" fill="#7FFF9F" font-family="'ArialMT'" font-size="1.5662">8</text>
	</g>
	<g id="MTEXT_15_">
		<text transform="matrix(1 0 0 1 321.5195 296.7061)" fill="#7FFF9F" font-family="'ArialMT'" font-size="1.5662">9</text>
	</g>
	<g id="MTEXT_14_">
		<text transform="matrix(1 0 0 1 317.0854 296.7061)" fill="#7FFF9F" font-family="'ArialMT'" font-size="1.5662">10</text>
	</g>
	<g id="MTEXT_13_">
		<text transform="matrix(1 0 0 1 314.7739 296.6465)" fill="#7FFF9F" font-family="'ArialMT'" font-size="1.5662">11</text>
	</g>
	<g id="MTEXT_12_">
		<text transform="matrix(1 0 0 1 311.2246 296.6465)" fill="#7FFF9F" font-family="'ArialMT'" font-size="1.5662">12</text>
	</g>
	<g id="MTEXT_11_">
		<text transform="matrix(1 0 0 1 307.6753 296.6465)" fill="#7FFF9F" font-family="'ArialMT'" font-size="1.5662">13</text>
	</g>
	<g id="MTEXT_10_">
		<text transform="matrix(1 0 0 1 331.8745 139.0693)" fill="#7FFF9F" font-family="'MyriadPro-Regular'" font-size="4.3496">CUBIERTA DE LAMINA</text>
		<text transform="matrix(1 0 0 1 338.4771 143.999)" fill="#7FFF9F" font-family="'MyriadPro-Regular'" font-size="4.3496">Área: 241.46m</text>
		<text transform="matrix(1 0 0 1 371.8428 142.1748)" fill="#7FFF9F" font-family="'MyriadPro-Regular'" font-size="3.0447">2</text>
	</g>
	<g id="MTEXT_9_">
		<text transform="matrix(1 0 0 1 422.1992 477.1855)" fill="#7FFF9F" font-family="'MyriadPro-Regular'" font-size="4.3496">A  Z  O  T  E  A</text>
		<text transform="matrix(1 0 0 1 428.5195 482.1143)" fill="#7FFF9F" font-family="'MyriadPro-Regular'" font-size="4.3496">Área: 234.75m</text>
		<text transform="matrix(1 0 0 1 461.8857 480.291)" fill="#7FFF9F" font-family="'MyriadPro-Regular'" font-size="3.0447">2</text>
	</g>
	<g id="MTEXT_8_">
		<text transform="matrix(1 0 0 1 372.2192 281.9775)" fill="#7FFF9F" font-family="'ArialMT'" font-size="2.5157">Cuarto de </text>
		<text transform="matrix(1 0 0 1 373.6553 284.8291)" fill="#7FFF9F" font-family="'ArialMT'" font-size="2.5157">Basura</text>
		<text transform="matrix(1 0 0 1 370.5752 287.8955)" fill="#7FFF9F" font-family="'ArialMT'" font-size="2.5157">Área: 5.40m</text>
		<text transform="matrix(1 0 0 1 383.5361 286.8408)" fill="#7FFF9F" font-family="'ArialMT'" font-size="1.761">2</text>
	</g>
	<g id="MTEXT_7_">
		<text transform="matrix(1 0 0 1 343.7949 285.707)" fill="#7FFF9F" font-family="'ArialMT'" font-size="2.5157">Área de </text>
		<text transform="matrix(1 0 0 1 342.3062 288.5576)" fill="#7FFF9F" font-family="'ArialMT'" font-size="2.5157">Lavaderos</text>
		<text transform="matrix(1 0 0 1 341.0249 291.624)" fill="#7FFF9F" font-family="'ArialMT'" font-size="2.5157">Área: 4.34m</text>
		<text transform="matrix(1 0 0 1 353.9854 290.5693)" fill="#7FFF9F" font-family="'ArialMT'" font-size="1.761">2</text>
	</g>
	<g id="LWPOLYLINE_21_">
		
			<line fill="none" stroke="#7FFF9F" stroke-width="1.1339" stroke-linecap="round" stroke-linejoin="round" stroke-miterlimit="10" x1="335.042" y1="270.707" x2="318.188" y2="270.707"/>
	</g>
	<g id="CIRCLE_1_">
		
			<path fill="none" stroke="#7FFF9F" stroke-width="1.1339" stroke-linecap="round" stroke-linejoin="round" stroke-miterlimit="10" d="
			M331.81,270.707c0-0.335-0.271-0.607-0.607-0.607s-0.607,0.272-0.607,0.607s0.272,0.607,0.607,0.607
			S331.81,271.042,331.81,270.707L331.81,270.707z"/>
	</g>
	<g id="MTEXT_6_">
		<text transform="matrix(1 0 0 1 332.7974 269.8311)" fill="#7FFF9F" font-family="'ArialMT'" font-size="2.5157">b</text>
	</g>
	<g id="LWPOLYLINE_20_">
		
			<line fill="none" stroke="#7FFF9F" stroke-width="1.1339" stroke-linecap="round" stroke-linejoin="round" stroke-miterlimit="10" x1="318.188" y1="270.707" x2="319.495" y2="272.971"/>
	</g>
	<g id="LWPOLYLINE_19_">
		
			<line fill="none" stroke="#7FFF9F" stroke-width="1.1339" stroke-linecap="round" stroke-linejoin="round" stroke-miterlimit="10" x1="318.188" y1="270.707" x2="319.495" y2="268.442"/>
	</g>
	<g id="MTEXT_5_">
		<text transform="matrix(1 0 0 1 309.1602 253.7012)" fill="#7FFF9F" font-family="'ArialMT'" font-size="2.5157">Máquina de </text>
		<text transform="matrix(1 0 0 1 309.8545 256.5605)" fill="#7FFF9F" font-family="'ArialMT'" font-size="2.5157">Extracción</text>
		<text transform="matrix(1 0 0 1 308.5425 259.6279)" fill="#7FFF9F" font-family="'ArialMT'" font-size="2.5157">Área: 3.91m</text>
		<text transform="matrix(1 0 0 1 321.5029 258.5723)" fill="#7FFF9F" font-family="'ArialMT'" font-size="1.761">2</text>
	</g>
	<g id="LWPOLYLINE_18_">
		
			<line fill="none" stroke="#0000FF" stroke-width="0.2551" stroke-linecap="round" stroke-linejoin="round" stroke-miterlimit="10" x1="300.455" y1="262.352" x2="288.624" y2="250.521"/>
	</g>
	<g id="LWPOLYLINE_16_">
		
			<path fill="none" stroke="#0000FF" stroke-width="1.1339" stroke-linecap="round" stroke-linejoin="round" stroke-miterlimit="10" d="
			M516.304,540.403l-5.573,0.1l0.05,3.501c0.001,0.086-0.001,0.172-0.007,0.258c-0.117,1.8-1.671,3.164-3.471,3.047l-30.756,0.549
			c-1.741,0.031-3.257-1.187-3.602-2.894l-0.055-3.936l-3.867,0.068l0.069,3.936l3.853-0.054l-3.853,0.054
			c-0.305,1.707-1.763,2.967-3.495,3.021l-28.153,0.503c-1.741,0.031-3.257-1.187-3.602-2.894l-0.058-4.085l-3.855,0.069
			l0.073,4.084l3.84-0.068l-3.841,0.034c-0.284,1.723-1.749,3.003-3.495,3.055l-27.3,0.339c-0.013,0.001-0.025,0.001-0.038,0.001
			c-1.95,0.003-3.533-1.575-3.536-3.524l-0.022-3.194l-27.896,0.127l-1.297-72.105l15.549-0.888l0.363-71.897l10.101,0.052
			l-1.394-94.706l-0.18-2.578l-105.507,7.345l-2.063-60.908l0.18-0.006l-3.983-128.809l43.488-0.134l-0.13-71.125L514.555,37
			l0.371,62.864l4.54,6.634l4.824,158.491l-6.186,0.132l-1.707,2.481L516.304,540.403z"/>
	</g>
	<g id="LWPOLYLINE_15_">
		
			<polygon fill="none" stroke="#0000FF" stroke-width="1.1339" stroke-linecap="round" stroke-linejoin="round" stroke-miterlimit="10" points="
			379.218,267.697 379.794,268.802 362.665,278.256 362.665,297.756 391.093,296.524 389.981,261.676 		"/>
	</g>
	<g id="LWPOLYLINE_14_">
		
			<polygon fill="none" stroke="#0000FF" stroke-width="1.1339" stroke-linecap="round" stroke-linejoin="round" stroke-miterlimit="10" points="
			332.386,299.349 343.836,298.573 348.949,298.372 361.459,297.809 361.459,277.573 332.386,277.573 		"/>
	</g>
	<g id="LWPOLYLINE_13_">
		
			<polyline fill="none" stroke="#0000FF" stroke-width="0.2551" stroke-linecap="round" stroke-linejoin="round" stroke-miterlimit="10" points="
			331.203,262.879 331.203,280.626 327.654,280.626 327.654,262.879 324.104,262.879 324.104,280.626 320.555,280.626 
			320.555,262.879 317.006,262.88 317.006,280.626 313.457,280.626 313.454,262.881 309.907,262.879 309.907,280.626 
			288.063,280.626 288.612,298.372 309.907,298.372 309.907,280.626 313.457,280.626 313.457,298.372 317.006,298.372 
			317.006,280.626 320.555,280.626 320.555,298.372 324.104,298.372 324.104,280.626 327.654,280.626 327.654,298.372 
			331.203,298.372 331.203,281.336 309.265,281.336 309.265,280.981 331.203,280.981 331.203,299.968 331.794,299.968 
			331.794,280.626 331.203,280.626 331.203,298.372 288.612,298.372 287.515,262.885 331.203,262.885 		"/>
	</g>
	<g id="MTEXT_4_">
		<text transform="matrix(1 0 0 1 294.2505 282.6777)" fill="#7FFF9F" font-family="'ArialMT'" font-size="2.5157">Escaleras</text>
		<text transform="matrix(1 0 0 1 291.9775 285.7441)" fill="#7FFF9F" font-family="'ArialMT'" font-size="2.5157">Área: 10.93m</text>
		<text transform="matrix(1 0 0 1 306.2656 284.6895)" fill="#7FFF9F" font-family="'ArialMT'" font-size="1.761">2</text>
	</g>
	<g id="LWPOLYLINE_12_">
		
			<polygon fill="none" stroke="#0000FF" stroke-width="1.1339" stroke-linecap="round" stroke-linejoin="round" stroke-miterlimit="10" points="
			332.386,261.696 287.609,261.696 287.226,250.28 332.386,248.764 		"/>
	</g>
	<g id="LWPOLYLINE_11_">
		
			<polyline fill="none" stroke="#0000FF" stroke-width="0.2551" stroke-linecap="round" stroke-linejoin="round" stroke-miterlimit="10" points="
			288.624,250.521 300.455,262.352 300.455,250.521 288.624,262.352 300.455,262.352 300.455,250.521 288.624,250.521 
			288.624,262.352 		"/>
	</g>
	<g id="LWPOLYLINE_10_">
		
			<polygon fill="none" stroke="#0000FF" stroke-width="1.1339" stroke-linecap="round" stroke-linejoin="round" stroke-miterlimit="10" points="
			461.482,115.892 516.235,117.039 520.634,261.517 516.21,261.611 512.851,266.498 512.462,533.372 371.146,535.915 
			370.027,473.742 385.5,472.859 386.625,414.028 457.614,414.348 		"/>
	</g>
	<g id="LWPOLYLINE_9_">
		
			<polygon fill="none" stroke="#0000FF" stroke-width="1.1339" stroke-linecap="round" stroke-linejoin="round" stroke-miterlimit="10" points="
			287.014,246.687 451.469,241.117 454.245,108.64 516.001,109.317 515.95,107.644 511.383,100.972 511.027,40.733 326.399,50.112 
			326.555,108.561 332.94,108.302 333.471,121.403 283.145,121.538 		"/>
	</g>
	<g id="LWPOLYLINE_8_">
		
			<polygon fill="none" stroke="#0000FF" stroke-width="1.1339" stroke-linecap="round" stroke-linejoin="round" stroke-miterlimit="10" points="
			385.813,401.183 385.779,409.099 453.962,409.099 455.417,300.343 402.015,300.842 402.393,305.613 394.782,306.229 
			396.032,401.228 		"/>
	</g>
	<g id="MTEXT_3_">
		<text transform="matrix(1 0 0 1 411.8516 357.4111)" fill="#7FFF9F" font-family="'MyriadPro-Regular'" font-size="4.3496">PENDIENTE</text>
		<text transform="matrix(1 0 0 1 407.2881 362.3408)" fill="#7FFF9F" font-family="'MyriadPro-Regular'" font-size="4.3496">Área: 46.23m</text>
		<text transform="matrix(1 0 0 1 437.8379 360.5166)" fill="#7FFF9F" font-family="'MyriadPro-Regular'" font-size="3.0447">2</text>
	</g>
	<g id="MTEXT_2_">
		<text transform="matrix(1 0 0 1 348.4565 260.7168)" fill="#7FFF9F" font-family="'ArialMT'" font-size="2.5157">CIRCULACIÓN</text>
		<text transform="matrix(1 0 0 1 349.0845 263.7832)" fill="#7FFF9F" font-family="'ArialMT'" font-size="2.5157">Área: 11.00m</text>
		<text transform="matrix(1 0 0 1 363.3726 262.7285)" fill="#7FFF9F" font-family="'ArialMT'" font-size="1.761">2</text>
	</g>
</g>
<g id="A_x5F_Areas">
	<g id="MTEXT_16_">
		<text transform="matrix(1 0 0 1 419.7383 268.3896)" fill="#FF0000" font-family="'ArialMT'" font-size="2.7947">Bodega de </text>
		<text transform="matrix(1 0 0 1 422.5273 271.5566)" fill="#FF0000" font-family="'ArialMT'" font-size="2.7947">Plaza, </text>
		<text transform="matrix(1 0 0 1 417.4453 274.7236)" fill="#FF0000" font-family="'ArialMT'" font-size="2.7947">Mantenimiento </text>
		<text transform="matrix(1 0 0 1 420.5518 277.9004)" fill="#FF0000" font-family="'ArialMT'" font-size="2.7947">y Policías</text>
		<text transform="matrix(1 0 0 1 417.7949 281.3076)" fill="#FF0000" font-family="'ArialMT'" font-size="2.7947">Área: 22.58m</text>
		<text transform="matrix(1 0 0 1 433.668 280.1357)" fill="#FF0000" font-family="'ArialMT'" font-size="1.9563">2</text>
	</g>
	<g id="LWPOLYLINE_17_">
		
			<polygon fill="none" stroke="#9FFF7F" stroke-width="0.9921" stroke-linecap="round" stroke-linejoin="round" stroke-miterlimit="10" points="
			394.628,296.371 456.62,296.607 456.19,244.78 393.604,246.708 		"/>
	</g>
</g>
</svg>
