<?xml version="1.0" encoding="utf-8"?>
<!-- Generator: Adobe Illustrator 16.0.0, SVG Export Plug-In . SVG Version: 6.00 Build 0)  -->
<!DOCTYPE svg PUBLIC "-//W3C//DTD SVG 1.1//EN" "http://www.w3.org/Graphics/SVG/1.1/DTD/svg11.dtd">
<svg version="1.1" xmlns="http://www.w3.org/2000/svg" xmlns:xlink="http://www.w3.org/1999/xlink" x="0px" y="0px" width="612px"
	 height="792px" viewBox="0 0 612 792" enable-background="new 0 0 612 792" xml:space="preserve">
<g id="AREAS_COMUNES">
	<g id="LWPOLYLINE">
		
			<polyline fill="none" stroke="#00FF7F" stroke-width="1.1339" stroke-linecap="round" stroke-linejoin="round" stroke-miterlimit="10" points="
			457.228,522.748 527.771,522.748 539.222,626.035 		"/>
	</g>
	<g id="LINE">
		
			<line fill="none" stroke="#00FF7F" stroke-width="1.1339" stroke-linecap="round" stroke-linejoin="round" stroke-miterlimit="10" stroke-dasharray="5.0885,2.5443" x1="489.244" y1="461.044" x2="489.244" y2="522.825"/>
	</g>
	<g id="LINE_1_">
		
			<line fill="none" stroke="#00FF7F" stroke-width="1.1339" stroke-linecap="round" stroke-linejoin="round" stroke-miterlimit="10" stroke-dasharray="5.0885,2.5443" x1="501.265" y1="461.044" x2="501.265" y2="522.825"/>
	</g>
	<g id="LINE_2_">
		
			<line fill="none" stroke="#00FF7F" stroke-width="1.1339" stroke-linecap="round" stroke-linejoin="round" stroke-miterlimit="10" stroke-dasharray="5.0885,2.5443" x1="513.285" y1="461.044" x2="513.285" y2="522.825"/>
	</g>
	<g id="LINE_3_">
		
			<line fill="none" stroke="#00FF7F" stroke-width="1.1339" stroke-linecap="round" stroke-linejoin="round" stroke-miterlimit="10" x1="525.305" y1="461.044" x2="525.305" y2="522.825"/>
	</g>
	<g id="LINE_4_">
		
			<line fill="none" stroke="#00FF7F" stroke-width="1.1339" stroke-linecap="round" stroke-linejoin="round" stroke-miterlimit="10" x1="537.987" y1="614.898" x2="610.55" y2="614.898"/>
	</g>
	<g id="LINE_5_">
		
			<line fill="none" stroke="#00FF7F" stroke-width="1.1339" stroke-linecap="round" stroke-linejoin="round" stroke-miterlimit="10" x1="536.654" y1="602.878" x2="609.217" y2="602.878"/>
	</g>
	<g id="LINE_6_">
		
			<line fill="none" stroke="#00FF7F" stroke-width="1.1339" stroke-linecap="round" stroke-linejoin="round" stroke-miterlimit="10" x1="535.322" y1="590.857" x2="607.885" y2="590.857"/>
	</g>
	<g id="LINE_7_">
		
			<line fill="none" stroke="#00FF7F" stroke-width="1.1339" stroke-linecap="round" stroke-linejoin="round" stroke-miterlimit="10" x1="533.989" y1="578.838" x2="606.552" y2="578.838"/>
	</g>
	<g id="LINE_8_">
		
			<line fill="none" stroke="#00FF7F" stroke-width="1.1339" stroke-linecap="round" stroke-linejoin="round" stroke-miterlimit="10" x1="532.657" y1="566.817" x2="605.22" y2="566.817"/>
	</g>
	<g id="LINE_9_">
		
			<line fill="none" stroke="#00FF7F" stroke-width="1.1339" stroke-linecap="round" stroke-linejoin="round" stroke-miterlimit="10" x1="531.258" y1="554.798" x2="603.887" y2="554.798"/>
	</g>
	<g id="LINE_10_">
		
			<line fill="none" stroke="#00FF7F" stroke-width="1.1339" stroke-linecap="round" stroke-linejoin="round" stroke-miterlimit="10" x1="529.992" y1="542.777" x2="602.555" y2="542.777"/>
	</g>
	<g id="LINE_11_">
		
			<line fill="none" stroke="#00FF7F" stroke-width="1.1339" stroke-linecap="round" stroke-linejoin="round" stroke-miterlimit="10" x1="528.659" y1="530.757" x2="601.222" y2="530.757"/>
	</g>
	<g id="LINE_12_">
		
			<line fill="none" stroke="#00FF7F" stroke-width="1.1339" stroke-linecap="round" stroke-linejoin="round" stroke-miterlimit="10" stroke-dasharray="5.0885,2.5443" x1="477.225" y1="461.122" x2="477.225" y2="522.903"/>
	</g>
	<g id="LINE_13_">
		
			<line fill="none" stroke="#00FF7F" stroke-width="1.1339" stroke-linecap="round" stroke-linejoin="round" stroke-miterlimit="10" stroke-dasharray="5.0885,2.5443" x1="465.204" y1="461.2" x2="465.204" y2="522.98"/>
	</g>
	<g id="LINE_14_">
		
			<line fill="none" stroke="#00FF7F" stroke-width="1.1339" stroke-linecap="round" stroke-linejoin="round" stroke-miterlimit="10" stroke-dasharray="5.0885,2.5443" x1="453.184" y1="461.277" x2="453.184" y2="523.059"/>
	</g>
	<g id="LINE_15_">
		
			<line fill="none" stroke="#00FF7F" stroke-width="1.1339" stroke-linecap="round" stroke-linejoin="round" stroke-miterlimit="10" stroke-dasharray="5.0885,2.5443" x1="441.164" y1="461.277" x2="441.164" y2="523.059"/>
	</g>
	<g id="LWPOLYLINE_1_">
		
			<polyline fill="none" stroke="#00FF7F" stroke-width="0.8013" stroke-linecap="round" stroke-linejoin="round" stroke-miterlimit="10" points="
			535.099,449.104 517.614,491.314 540.493,500.791 536.103,502.609 495.631,485.846 495.631,488.979 516.141,497.475 
			500.254,535.83 		"/>
	</g>
	<g id="LWPOLYLINE_2_">
		
			<polyline fill="none" stroke="#00FF7F" stroke-width="1.1339" stroke-linecap="round" stroke-linejoin="round" stroke-miterlimit="10" points="
			379.528,382.194 379.528,276.016 376.815,283.468 		"/>
	</g>
	<g id="LWPOLYLINE_3_">
		
			<polyline fill="none" stroke="#00FF7F" stroke-width="1.1339" stroke-linecap="round" stroke-linejoin="round" stroke-miterlimit="10" points="
			123.119,400.148 123.119,293.97 120.407,301.422 		"/>
	</g>
	<g id="MTEXT_13_">
		<text transform="matrix(5.053215e-016 -1 1 5.053215e-016 121.2373 397.3301)"><tspan x="0" y="0" fill="#00FF7F" font-family="'ArialMT'" font-size="9.4645">RAM</tspan><tspan x="21.032" y="0" fill="#00FF7F" font-family="'ArialMT'" font-size="9.4645">P</tspan><tspan x="26.642" y="0" fill="#00FF7F" font-family="'ArialMT'" font-size="9.4645">A</tspan></text>
	</g>
	<g id="MTEXT_14_">
		<text transform="matrix(5.053215e-016 -1 1 5.053215e-016 377.6465 379.375)"><tspan x="0" y="0" fill="#00FF7F" font-family="'ArialMT'" font-size="9.4645">RAM</tspan><tspan x="21.032" y="0" fill="#00FF7F" font-family="'ArialMT'" font-size="9.4645">P</tspan><tspan x="26.642" y="0" fill="#00FF7F" font-family="'ArialMT'" font-size="9.4645">A</tspan></text>
	</g>
	<g id="LWPOLYLINE_4_">
		
			<polyline fill="none" stroke="#00FF7F" stroke-width="1.1339" stroke-linecap="round" stroke-linejoin="round" stroke-miterlimit="10" points="
			531.258,626.918 611.883,626.918 592.827,455.034 430.74,455.034 430.74,531.242 520.65,531.242 531.258,626.918 		"/>
	</g>
	<g id="LWPOLYLINE_5_">
		
			<polygon fill="none" stroke="#00FF7F" stroke-width="1.1339" stroke-linecap="round" stroke-linejoin="round" stroke-miterlimit="10" points="
			88.753,436.239 160.88,436.239 160.88,172.794 88.755,165.082 		"/>
	</g>
	<g id="LWPOLYLINE_6_">
		
			<polygon fill="none" stroke="#00FF7F" stroke-width="1.1339" stroke-linecap="round" stroke-linejoin="round" stroke-miterlimit="10" points="
			338.377,191.056 422.62,199.5 422.62,400.921 338.371,404.444 		"/>
	</g>
</g>
<g id="AREA_x28_POLILINEA_x29_">
	<g id="TEXT">
		<text transform="matrix(1 0 0 1 60.8872 480.332)" fill="#007FFF" font-family="'ArialMT'" font-size="8.8383">39</text>
	</g>
	<g id="TEXT_1_">
		<text transform="matrix(1 0 0 1 212.7373 494.3506)" fill="#007FFF" font-family="'ArialMT'" font-size="8.8383">41</text>
	</g>
	<g id="TEXT_2_">
		<text transform="matrix(1 0 0 1 306.0566 489.3467)" fill="#007FFF" font-family="'ArialMT'" font-size="8.8383">42</text>
	</g>
	<g id="MTEXT">
		<text transform="matrix(1 0 0 1 280.5815 489.0752)" fill="#007FFF" font-family="'ArialMT'" font-size="9.4645">Local </text>
	</g>
	<g id="MTEXT_1_">
		<text transform="matrix(1 0 0 1 188.4229 495.5732)" fill="#007FFF" font-family="'ArialMT'" font-size="9.4645">Local </text>
	</g>
	<g id="MTEXT_2_">
		<text transform="matrix(1 0 0 1 34.9346 479.4297)" fill="#007FFF" font-family="'ArialMT'" font-size="9.4645">Local </text>
	</g>
	<g id="TEXT_3_">
		<text transform="matrix(1 0 0 1 285.5518 504.5859)" fill="#007FFF" font-family="'ArialMT'" font-size="8.8383">5.50m2</text>
	</g>
	<g id="TEXT_4_">
		<text transform="matrix(1 0 0 1 35.9575 493.2236)" fill="#007FFF" font-family="'ArialMT'" font-size="8.8383">4.74m2</text>
	</g>
	<g id="TEXT_5_">
		<text transform="matrix(1 0 0 1 192.6035 506.0527)" fill="#007FFF" font-family="'ArialMT'" font-size="8.8383">4.60m2</text>
	</g>
	<g id="TEXT_6_">
		<text transform="matrix(1 0 0 1 302.686 353.4541)" fill="#007FFF" font-family="'ArialMT'" font-size="8.8383">46</text>
	</g>
	<g id="MTEXT_3_">
		<text transform="matrix(1 0 0 1 277.9194 353.583)" fill="#007FFF" font-family="'ArialMT'" font-size="9.4645">Local </text>
	</g>
	<g id="TEXT_7_">
		<text transform="matrix(1 0 0 1 226.8931 385.9082)" fill="#007FFF" font-family="'ArialMT'" font-size="8.8383">47</text>
	</g>
	<g id="MTEXT_4_">
		<text transform="matrix(1 0 0 1 199.5039 385.126)" fill="#007FFF" font-family="'ArialMT'" font-size="9.4645">Local </text>
	</g>
	<g id="TEXT_8_">
		<text transform="matrix(1 0 0 1 228.8022 308.9404)" fill="#007FFF" font-family="'ArialMT'" font-size="8.8383">40</text>
	</g>
	<g id="MTEXT_6_">
		<text transform="matrix(1 0 0 1 201.4136 308.1973)" fill="#007FFF" font-family="'ArialMT'" font-size="9.4645">Local </text>
	</g>
	<g id="MTEXT_8_">
		<text transform="matrix(1 0 0 1 38.2515 391.7891)" fill="#007FFF" font-family="'ArialMT'" font-size="9.4645">Local </text>
	</g>
	<g id="TEXT_10_">
		<text transform="matrix(1 0 0 1 45.0308 301.6934)" fill="#007FFF" font-family="'ArialMT'" font-size="8.8383">51</text>
	</g>
	<g id="MTEXT_9_">
		<text transform="matrix(1 0 0 1 17.6421 299.2969)" fill="#007FFF" font-family="'ArialMT'" font-size="9.4645">Local </text>
	</g>
	<g id="TEXT_11_">
		<text transform="matrix(1 0 0 1 474.8867 344.9014)" fill="#007FFF" font-family="'ArialMT'" font-size="8.8383">54</text>
	</g>
	<g id="MTEXT_11_">
		<text transform="matrix(1 0 0 1 447.4971 344.1699)" fill="#007FFF" font-family="'ArialMT'" font-size="9.4645">Local </text>
	</g>
	<g id="TEXT_12_">
		<text transform="matrix(1 0 0 1 474.8633 266.2031)" fill="#007FFF" font-family="'ArialMT'" font-size="8.8383">56</text>
	</g>
	<g id="MTEXT_12_">
		<text transform="matrix(1 0 0 1 447.4746 265.459)" fill="#007FFF" font-family="'ArialMT'" font-size="9.4645">Local </text>
	</g>
	<g id="LWPOLYLINE_8_">
		
			<polyline fill="none" stroke="#007FFF" stroke-width="1.1339" stroke-linecap="round" stroke-linejoin="round" stroke-miterlimit="10" points="
			88.755,342.517 88.753,432.232 8.12,431.065 8.12,423.053 0.118,423.053 4.465,342.515 88.755,342.517 		"/>
	</g>
	<g id="LWPOLYLINE_9_">
		
			<polygon fill="none" stroke="#007FFF" stroke-width="1.1339" stroke-linecap="round" stroke-linejoin="round" stroke-miterlimit="10" points="
			88.749,342.517 4.465,342.517 9.081,252.97 88.749,252.97 		"/>
	</g>
	<g id="LWPOLYLINE_11_">
		
			<rect x="160.878" y="271.985" fill="none" stroke="#007FFF" stroke-width="1.1339" stroke-linecap="round" stroke-linejoin="round" stroke-miterlimit="10" width="88.937" height="80.306"/>
	</g>
	<g id="LWPOLYLINE_12_">
		
			<polygon fill="none" stroke="#007FFF" stroke-width="1.1339" stroke-linecap="round" stroke-linejoin="round" stroke-miterlimit="10" points="
			160.876,352.289 249.815,352.291 249.815,434.568 160.875,433.276 		"/>
	</g>
	<g id="LWPOLYLINE_13_">
		
			<rect x="249.815" y="299.328" fill="none" stroke="#007FFF" stroke-width="1.1339" stroke-linecap="round" stroke-linejoin="round" stroke-miterlimit="10" width="88.556" height="105.261"/>
	</g>
	<g id="LWPOLYLINE_15_">
		
			<polyline fill="none" stroke="#007FFF" stroke-width="1.1339" stroke-linecap="round" stroke-linejoin="round" stroke-miterlimit="10" points="
			422.622,304.164 502.758,304.164 502.758,215.684 461.657,211.172 461.657,219.186 445.63,219.186 445.63,209.518 
			422.624,207.172 422.622,304.163 		"/>
	</g>
	<g id="LWPOLYLINE_16_">
		
			<polyline fill="none" stroke="#007FFF" stroke-width="1.1339" stroke-linecap="round" stroke-linejoin="round" stroke-miterlimit="10" points="
			422.622,304.164 422.62,400.921 445.63,399.819 445.63,391.354 461.657,391.354 461.657,398.513 502.758,396.507 502.758,304.164 
			422.622,304.164 		"/>
	</g>
	<g id="LWPOLYLINE_17_">
		
			<polyline fill="none" stroke="#007FFF" stroke-width="1.1339" stroke-linecap="round" stroke-linejoin="round" stroke-miterlimit="10" points="
			10.364,543.948 88.753,543.948 88.753,449.024 22.967,449.024 22.967,469.058 10.947,468.964 10.364,543.948 		"/>
	</g>
	<g id="LWPOLYLINE_18_">
		
			<polyline fill="none" stroke="#007FFF" stroke-width="1.1339" stroke-linecap="round" stroke-linejoin="round" stroke-miterlimit="10" points="
			160.875,543.948 160.875,449.024 238.126,449.024 238.126,469.058 254.179,469.058 254.179,543.948 160.875,543.948 		"/>
	</g>
	<g id="LWPOLYLINE_19_">
		
			<polyline fill="none" stroke="#007FFF" stroke-width="1.1339" stroke-linecap="round" stroke-linejoin="round" stroke-miterlimit="10" points="
			254.179,543.948 338.372,543.948 338.378,422.855 284.204,422.855 284.204,451.027 262.167,451.027 262.167,469.058 
			254.179,469.058 254.179,543.948 		"/>
	</g>
	<g>
		<g id="MTEXT_5_">
			<text transform="matrix(1 0 0 1 297.5327 240.7969)" fill="#007FFF" font-family="'ArialMT'" font-size="9.4645">Local </text>
		</g>
		<g id="LWPOLYLINE_14_">
			
				<polyline fill="none" stroke="#007FFF" stroke-width="1.1339" stroke-linecap="round" stroke-linejoin="round" stroke-miterlimit="10" points="
				249.815,189.556 249.815,299.328 338.371,299.328 338.371,198.583 275.794,192.204 275.794,199.711 259.768,199.711 
				259.768,190.57 249.815,189.556 			"/>
		</g>
		<g id="TEXT_13_">
			<text transform="matrix(1 0 0 1 275.3604 263.5762)" fill="#007FFF" font-family="'ArialMT'" font-size="8.8383">5.72 m2</text>
		</g>
	</g>
	<g id="TEXT_14_">
		<text transform="matrix(1 0 0 1 446.0088 370)" fill="#007FFF" font-family="'ArialMT'" font-size="8.8383">4.64 m2</text>
	</g>
	<g id="TEXT_15_">
		<text transform="matrix(1 0 0 1 447.9307 276.6387)" fill="#007FFF" font-family="'ArialMT'" font-size="8.8383">4.54 m2</text>
	</g>
	<g id="TEXT_16_">
		<text transform="matrix(1 0 0 1 279.2036 385.3682)" fill="#007FFF" font-family="'ArialMT'" font-size="8.8383">5.81 m2</text>
	</g>
	<g id="TEXT_17_">
		<text transform="matrix(1 0 0 1 185.0396 414.9521)" fill="#007FFF" font-family="'ArialMT'" font-size="8.8383">4.52 m2</text>
	</g>
	<g id="TEXT_18_">
		<text transform="matrix(1 0 0 1 186.5503 336.1904)" fill="#007FFF" font-family="'ArialMT'" font-size="8.8383">4. 45 m2 </text>
	</g>
	<g>
		<g id="TEXT_9_">
			<text transform="matrix(1 0 0 1 228.2339 225.8633)" fill="#007FFF" font-family="'ArialMT'" font-size="8.8383">49</text>
		</g>
		<g id="MTEXT_7_">
			<text transform="matrix(1 0 0 1 200.8452 225.1191)" fill="#007FFF" font-family="'ArialMT'" font-size="9.4645">Local </text>
		</g>
		<g id="LWPOLYLINE_10_">
			
				<polygon fill="none" stroke="#007FFF" stroke-width="1.1339" stroke-linecap="round" stroke-linejoin="round" stroke-miterlimit="10" points="
				160.878,271.985 249.815,271.985 249.815,189.556 160.878,180.165 			"/>
		</g>
		<g id="TEXT_19_">
			<text transform="matrix(1 0 0 1 190.4204 257.8105)" fill="#007FFF" font-family="'ArialMT'" font-size="8.8383">4.83 m2</text>
		</g>
	</g>
	<g id="TEXT_20_">
		<text transform="matrix(1 0 0 1 32.8398 322.3594)" fill="#007FFF" font-family="'ArialMT'" font-size="8.8383">4.57 m2</text>
	</g>
	<g>
		<g id="MTEXT_10_">
			<text transform="matrix(1 0 0 1 48.2866 205.9053)" fill="#007FFF" font-family="'ArialMT'" font-size="9.4645">Local </text>
		</g>
		<g id="LWPOLYLINE_7_">
			
				<polyline fill="none" stroke="#007FFF" stroke-width="1.1339" stroke-linecap="round" stroke-linejoin="round" stroke-miterlimit="10" points="
				88.755,173.137 88.751,252.97 8.983,252.97 13.271,173.444 21.273,173.444 21.274,166.258 88.755,173.156 			"/>
		</g>
		<g id="TEXT_21_">
			<text transform="matrix(1 0 0 1 35.9146 232.8398)" fill="#007FFF" font-family="'ArialMT'" font-size="8.8383">4.00 m2</text>
		</g>
	</g>
	<g id="TEXT_22_">
		<text transform="matrix(1 0 0 1 30.5337 414.6172)" fill="#007FFF" font-family="'ArialMT'" font-size="8.8383">4.77 m2</text>
	</g>
</g>
</svg>
