<?xml version="1.0" encoding="utf-8"?>
<!-- Generator: Adobe Illustrator 16.0.0, SVG Export Plug-In . SVG Version: 6.00 Build 0)  -->
<!DOCTYPE svg PUBLIC "-//W3C//DTD SVG 1.1//EN" "http://www.w3.org/Graphics/SVG/1.1/DTD/svg11.dtd">
<svg version="1.1" xmlns="http://www.w3.org/2000/svg" xmlns:xlink="http://www.w3.org/1999/xlink" x="0px" y="0px" width="800px"
	 height="600px" viewBox="0 0 800 600" enable-background="new 0 0 800 600" xml:space="preserve">
<g id="ÁREAS__x28_POLILINEA_x29_">
	<g id="LINE">
		
			<line fill="none" stroke="#0099CC" stroke-width="1.1339" stroke-linecap="round" stroke-linejoin="round" stroke-miterlimit="10" x1="248.308" y1="474.878" x2="248.308" y2="370.123"/>
	</g>
	<g id="LINE_1_">
		
			<line fill="none" stroke="#0099CC" stroke-width="1.1339" stroke-linecap="round" stroke-linejoin="round" stroke-miterlimit="10" x1="334.875" y1="544.891" x2="271.73" y2="544.891"/>
	</g>
	<g id="MTEXT_1_">
		<text transform="matrix(1 0 0 1 500.0488 469.3086)" fill="#0099CC" font-family="'ArialMT'" font-size="4.5021">Bodega 019</text>
	</g>
	<g id="MTEXT_2_">
		<text transform="matrix(1 0 0 1 500.0488 422.6504)" fill="#0099CC" font-family="'ArialMT'" font-size="4.5021">Bodega 020</text>
	</g>
	<g id="MTEXT_3_">
		<text transform="matrix(1 0 0 1 500.0488 380.1377)" fill="#0099CC" font-family="'ArialMT'" font-size="4.5021">Bodega 021</text>
	</g>
	<g id="MTEXT_4_">
		<text transform="matrix(1 0 0 1 500.0488 331.7686)" fill="#0099CC" font-family="'ArialMT'" font-size="4.5021">Bodega 022</text>
	</g>
	<g id="MTEXT_5_">
		<text transform="matrix(1 0 0 1 500.0488 277.5308)" fill="#0099CC" font-family="'ArialMT'" font-size="4.5021">Bodega 023</text>
	</g>
	<g id="MTEXT_6_">
		<text transform="matrix(1 0 0 1 500.0488 228.4644)" fill="#0099CC" font-family="'ArialMT'" font-size="4.5021">Bodega 024</text>
	</g>
	<g id="MTEXT_7_">
		<text transform="matrix(1 0 0 1 407.5703 469.3086)" fill="#0099CC" font-family="'ArialMT'" font-size="4.5021">Bodega 013</text>
	</g>
	<g id="MTEXT_8_">
		<text transform="matrix(1 0 0 1 410.6982 394.6016)" fill="#0099CC" font-family="'ArialMT'" font-size="4.5021">Bodega 014</text>
	</g>
	<g id="MTEXT_9_">
		<text transform="matrix(1 0 0 1 408.0908 333.5625)" fill="#0099CC" font-family="'ArialMT'" font-size="4.5021">Bodega 015</text>
	</g>
	<g id="MTEXT_10_">
		<text transform="matrix(1 0 0 1 411.5078 281.2866)" fill="#0099CC" font-family="'ArialMT'" font-size="4.5021">Bodega 016</text>
	</g>
	<g id="MTEXT_11_">
		<text transform="matrix(1 0 0 1 412.5586 227.1787)" fill="#0099CC" font-family="'ArialMT'" font-size="4.5021">Bodega 017</text>
	</g>
	<g id="MTEXT_12_">
		<text transform="matrix(1 0 0 1 362.0645 469.5703)" fill="#0099CC" font-family="'ArialMT'" font-size="4.5021">Bodega 008</text>
	</g>
	<g id="MTEXT_13_">
		<text transform="matrix(1 0 0 1 361.7837 393.2842)" fill="#0099CC" font-family="'ArialMT'" font-size="4.5021">Bodega 009</text>
	</g>
	<g id="MTEXT_14_">
		<text transform="matrix(1 0 0 1 361.7769 333.3301)" fill="#0099CC" font-family="'ArialMT'" font-size="4.5021">Bodega 010</text>
	</g>
	<g id="MTEXT_15_">
		<text transform="matrix(1 0 0 1 360.957 280.1528)" fill="#0099CC" font-family="'ArialMT'" font-size="4.5021">Bodega 011</text>
	</g>
	<g id="MTEXT_16_">
		<text transform="matrix(1 0 0 1 357.3516 225.8721)" fill="#0099CC" font-family="'ArialMT'" font-size="4.5021">Bodega 012</text>
	</g>
	<g id="MTEXT_17_">
		<text transform="matrix(1 0 0 1 262.8037 489.5352)" fill="#0099CC" font-family="'ArialMT'" font-size="4.5021">Bodega 002</text>
	</g>
	<g id="MTEXT_18_">
		<text transform="matrix(1 0 0 1 292.6094 528.7578)" fill="#0099CC" font-family="'ArialMT'" font-size="4.5021">Bodega 001</text>
	</g>
	<g id="MTEXT_19_">
		<text transform="matrix(1 0 0 1 262.8037 452.9512)" fill="#0099CC" font-family="'ArialMT'" font-size="4.5021">Bodega 003</text>
	</g>
	<g id="MTEXT_20_">
		<text transform="matrix(1 0 0 1 262.8037 422.0469)" fill="#0099CC" font-family="'ArialMT'" font-size="4.5021">Bodega 004</text>
	</g>
	<g id="MTEXT_21_">
		<text transform="matrix(1 0 0 1 262.8037 378.6709)" fill="#0099CC" font-family="'ArialMT'" font-size="4.5021">Bodega 005</text>
	</g>
	<g id="MTEXT_22_">
		<text transform="matrix(1 0 0 1 262.8037 328.0381)" fill="#0099CC" font-family="'ArialMT'" font-size="4.5021">Bodega 006</text>
	</g>
	<g id="MTEXT_23_">
		<text transform="matrix(1 0 0 1 262.8037 282.6963)" fill="#0099CC" font-family="'ArialMT'" font-size="4.5021">Bodega 007</text>
	</g>
	<g id="LWPOLYLINE_3_">
		
			<rect x="248.308" y="258.697" fill="none" stroke="#0099CC" stroke-width="1.1339" stroke-linecap="round" stroke-linejoin="round" stroke-miterlimit="10" width="65.143" height="48.763"/>
	</g>
	<g id="LWPOLYLINE_4_">
		
			<rect x="248.308" y="439.549" fill="none" stroke="#0099CC" stroke-width="1.1339" stroke-linecap="round" stroke-linejoin="round" stroke-miterlimit="10" width="65.06" height="31.623"/>
	</g>
	<g id="LWPOLYLINE_5_">
		
			<polygon fill="none" stroke="#0099CC" stroke-width="1.1339" stroke-linecap="round" stroke-linejoin="round" stroke-miterlimit="10" points="
			313.368,471.172 248.308,471.172 248.308,474.878 253.249,474.878 253.249,482.784 248.308,482.784 248.308,506.173 
			253.249,506.173 253.249,512.071 313.368,512.071 		"/>
	</g>
	<g id="LWPOLYLINE_6_">
		
			<rect x="248.308" y="407.1" fill="none" stroke="#0099CC" stroke-width="1.1339" stroke-linecap="round" stroke-linejoin="round" stroke-miterlimit="10" width="65.06" height="32.449"/>
	</g>
	<g id="LWPOLYLINE_7_">
		
			<polygon fill="none" stroke="#0099CC" stroke-width="1.1339" stroke-linecap="round" stroke-linejoin="round" stroke-miterlimit="10" points="
			313.368,407.1 248.308,407.1 248.308,370.123 253.249,370.123 253.249,356.946 313.368,356.946 		"/>
	</g>
	<g id="LWPOLYLINE_8_">
		
			<rect x="248.308" y="307.46" fill="none" stroke="#0099CC" stroke-width="1.1339" stroke-linecap="round" stroke-linejoin="round" stroke-miterlimit="10" width="65.06" height="49.486"/>
	</g>
	<g id="LWPOLYLINE_9_">
		
			<polygon fill="none" stroke="#0099CC" stroke-width="1.1339" stroke-linecap="round" stroke-linejoin="round" stroke-miterlimit="10" points="
			271.73,544.891 336.427,544.891 336.427,510.298 313.368,510.343 313.368,512.071 271.73,512.071 		"/>
	</g>
	<g id="LWPOLYLINE_10_">
		
			<polygon fill="none" stroke="#0099CC" stroke-width="1.1339" stroke-linecap="round" stroke-linejoin="round" stroke-miterlimit="10" points="
			346.31,436.831 399.264,436.831 399.264,464.995 399.264,467.467 399.264,510.128 395.722,510.138 395.722,544.738 
			336.427,544.891 336.427,510.298 346.31,510.294 		"/>
	</g>
	<g id="LWPOLYLINE_11_">
		
			<polygon fill="none" stroke="#0099CC" stroke-width="1.1339" stroke-linecap="round" stroke-linejoin="round" stroke-miterlimit="10" points="
			346.31,363.535 393.087,363.535 393.087,369.299 399.264,369.299 399.264,436.831 346.31,436.831 		"/>
	</g>
	<g id="LWPOLYLINE_12_">
		
			<polygon fill="none" stroke="#0099CC" stroke-width="1.1339" stroke-linecap="round" stroke-linejoin="round" stroke-miterlimit="10" points="
			399.264,357.771 393.087,357.771 393.087,363.535 346.31,363.535 346.31,310.087 399.264,310.087 		"/>
	</g>
	<g id="LWPOLYLINE_13_">
		
			<polygon fill="none" stroke="#0099CC" stroke-width="1.1339" stroke-linecap="round" stroke-linejoin="round" stroke-miterlimit="10" points="
			399.266,357.771 405.443,357.771 405.443,363.535 444.971,363.535 444.971,310.087 399.266,310.087 		"/>
	</g>
	<g id="LWPOLYLINE_14_">
		
			<polygon fill="none" stroke="#0099CC" stroke-width="1.1339" stroke-linecap="round" stroke-linejoin="round" stroke-miterlimit="10" points="
			444.971,363.535 405.441,363.535 405.441,369.299 399.264,369.299 399.264,436.831 444.971,436.831 		"/>
	</g>
	<g id="LINE_3_">
		
			<line fill="none" stroke="#0099CC" stroke-width="1.1339" stroke-linecap="round" stroke-linejoin="round" stroke-miterlimit="10" x1="398.523" y1="258.697" x2="400.008" y2="258.697"/>
	</g>
	<g id="LWPOLYLINE_15_">
		
			<rect x="346.31" y="259.521" fill="none" stroke="#0099CC" stroke-width="1.1339" stroke-linecap="round" stroke-linejoin="round" stroke-miterlimit="10" width="52.955" height="50.566"/>
	</g>
	<g id="LWPOLYLINE_16_">
		
			<rect x="399.265" y="259.521" fill="none" stroke="#0099CC" stroke-width="1.1339" stroke-linecap="round" stroke-linejoin="round" stroke-miterlimit="10" width="45.706" height="50.566"/>
	</g>
	<g id="LWPOLYLINE_17_">
		
			<polygon fill="none" stroke="#0099CC" stroke-width="1.1339" stroke-linecap="round" stroke-linejoin="round" stroke-miterlimit="10" points="
			346.31,259.521 399.264,259.521 399.264,213.814 393.087,213.814 393.087,202.295 346.31,202.285 		"/>
	</g>
	<g id="LWPOLYLINE_18_">
		
			<polygon fill="none" stroke="#0099CC" stroke-width="1.1339" stroke-linecap="round" stroke-linejoin="round" stroke-miterlimit="10" points="
			444.971,259.521 399.264,259.521 399.264,213.814 405.441,213.814 405.441,202.295 444.971,202.285 		"/>
	</g>
	<g id="LWPOLYLINE_19_">
		
			<polygon fill="none" stroke="#0099CC" stroke-width="1.1339" stroke-linecap="round" stroke-linejoin="round" stroke-miterlimit="10" points="
			444.971,436.831 399.264,436.831 399.264,464.995 399.264,467.467 399.264,510.128 421.296,510.138 421.296,544.738 
			444.229,544.607 444.247,500.922 444.971,500.922 		"/>
	</g>
	<g id="LWPOLYLINE_20_">
		
			<rect x="472.972" y="445.078" fill="none" stroke="#0099CC" stroke-width="1.1339" stroke-linecap="round" stroke-linejoin="round" stroke-miterlimit="10" width="107.061" height="56.813"/>
	</g>
	<g id="LWPOLYLINE_21_">
		
			<rect x="472.972" y="402.994" fill="none" stroke="#0099CC" stroke-width="1.1339" stroke-linecap="round" stroke-linejoin="round" stroke-miterlimit="10" width="107.061" height="42.084"/>
	</g>
	<g id="LWPOLYLINE_22_">
		
			<polygon fill="none" stroke="#0099CC" stroke-width="1.1339" stroke-linecap="round" stroke-linejoin="round" stroke-miterlimit="10" points="
			472.972,402.994 580.032,402.994 580.032,361.735 504.102,361.735 504.102,364.288 500.808,364.288 500.808,361.735 
			477.913,361.735 477.913,365.936 472.972,365.936 		"/>
	</g>
	<g id="LWPOLYLINE_23_">
		
			<rect x="472.972" y="309.922" fill="none" stroke="#0099CC" stroke-width="1.1339" stroke-linecap="round" stroke-linejoin="round" stroke-miterlimit="10" width="107.061" height="51.813"/>
	</g>
	<g id="LWPOLYLINE_24_">
		
			<rect x="472.972" y="259.439" fill="none" stroke="#0099CC" stroke-width="1.1339" stroke-linecap="round" stroke-linejoin="round" stroke-miterlimit="10" width="107.061" height="50.483"/>
	</g>
	<g id="LWPOLYLINE_25_">
		
			<polygon fill="none" stroke="#0099CC" stroke-width="1.1339" stroke-linecap="round" stroke-linejoin="round" stroke-miterlimit="10" points="
			472.972,259.439 580.032,259.439 580.032,207.967 563.562,208.05 563.562,213.814 552.031,213.814 552.031,202.943 
			472.972,202.943 		"/>
	</g>
	<g id="MTEXT_25_">
		<text transform="matrix(1 0 0 1 263.5586 291.3584)" fill="#0099CC" font-family="'ArialMT'" font-size="4.5021">Área= 11.71 m²</text>
	</g>
	<g id="MTEXT_26_">
		<text transform="matrix(1 0 0 1 265.1699 336.832)" fill="#0099CC" font-family="'ArialMT'" font-size="4.5021">Área= 11.87 m²</text>
	</g>
	<g id="MTEXT_27_">
		<text transform="matrix(1 0 0 1 262.373 388.0576)" fill="#0099CC" font-family="'ArialMT'" font-size="4.5021">Área= 11.79 m²</text>
	</g>
	<g id="MTEXT_28_">
		<text transform="matrix(1 0 0 1 262.373 429.165)" fill="#0099CC" font-family="'ArialMT'" font-size="4.5021">Área= 7.78 m²</text>
	</g>
	<g id="MTEXT_29_">
		<text transform="matrix(1 0 0 1 262.3018 496.0322)" fill="#0099CC" font-family="'ArialMT'" font-size="4.5021">Área= 9.55 m²</text>
	</g>
	<g id="MTEXT_30_">
		<text transform="matrix(1 0 0 1 288.1587 536.3916)" fill="#0099CC" font-family="'ArialMT'" font-size="4.5021">Área= 7.98 m²</text>
	</g>
	<g id="MTEXT_31_">
		<text transform="matrix(1 0 0 1 262.0488 460.877)" fill="#0099CC" font-family="'ArialMT'" font-size="4.5021">Área= 7.58 m²</text>
	</g>
	<g id="MTEXT_32_">
		<text transform="matrix(1 0 0 1 354.2759 236.3184)" fill="#0099CC" font-family="'ArialMT'" font-size="4.5021">Área= 10.91 m²</text>
	</g>
	<g id="MTEXT_33_">
		<text transform="matrix(1 0 0 1 408.7002 234.9043)" fill="#0099CC" font-family="'ArialMT'" font-size="4.5021">Área=  9.38 m²</text>
	</g>
	<g id="MTEXT_34_">
		<text transform="matrix(1 0 0 1 357.8813 288.7344)" fill="#0099CC" font-family="'ArialMT'" font-size="4.5021">Área= 9.87 m²</text>
	</g>
	<g id="MTEXT_35_">
		<text transform="matrix(1 0 0 1 409.8955 289.2139)" fill="#0099CC" font-family="'ArialMT'" font-size="4.5021">Área= 8.52 m²</text>
	</g>
	<g id="MTEXT_36_">
		<text transform="matrix(1 0 0 1 358.9233 343.2246)" fill="#0099CC" font-family="'ArialMT'" font-size="4.5021">Área= 10.30 m²</text>
	</g>
	<g id="MTEXT_37_">
		<text transform="matrix(1 0 0 1 405.957 342.9248)" fill="#0099CC" font-family="'ArialMT'" font-size="4.5021">Área= 8.87 m²</text>
	</g>
	<g id="MTEXT_38_">
		<text transform="matrix(1 0 0 1 359.1846 403.498)" fill="#0099CC" font-family="'ArialMT'" font-size="4.5021">Área= 14.17 m²</text>
	</g>
	<g id="MTEXT_39_">
		<text transform="matrix(1 0 0 1 408.5645 403.9795)" fill="#0099CC" font-family="'ArialMT'" font-size="4.5021">Área= 12.22 m²</text>
	</g>
	<g id="MTEXT_40_">
		<text transform="matrix(1 0 0 1 357.8813 479.5654)" fill="#0099CC" font-family="'ArialMT'" font-size="4.5021">Área= 21.88 m²</text>
	</g>
	<g id="MTEXT_41_">
		<text transform="matrix(1 0 0 1 405.957 480.3076)" fill="#0099CC" font-family="'ArialMT'" font-size="4.5021">Área= 15.24 m²</text>
	</g>
	<g id="MTEXT_42_">
		<text transform="matrix(1 0 0 1 497.4424 238.8389)" fill="#0099CC" font-family="'ArialMT'" font-size="4.5021">Área=  21.52 m²</text>
	</g>
	<g id="MTEXT_43_">
		<text transform="matrix(1 0 0 1 498.4922 286.5732)" fill="#0099CC" font-family="'ArialMT'" font-size="4.5021">Área= 1 9.92 m²</text>
	</g>
	<g id="MTEXT_44_">
		<text transform="matrix(1 0 0 1 497.4385 342.3633)" fill="#0099CC" font-family="'ArialMT'" font-size="4.5021">Área= 20.45 m²</text>
	</g>
	<g id="MTEXT_45_">
		<text transform="matrix(1 0 0 1 497.4922 388.9443)" fill="#0099CC" font-family="'ArialMT'" font-size="4.5021">Área= 16.17 m²</text>
	</g>
	<g id="MTEXT_46_">
		<text transform="matrix(1 0 0 1 497.7568 430.2168)" fill="#0099CC" font-family="'ArialMT'" font-size="4.5021">Área= 16.60 m²</text>
	</g>
	<g id="MTEXT_47_">
		<text transform="matrix(1 0 0 1 496.8125 479.0918)" fill="#0099CC" font-family="'ArialMT'" font-size="4.5021">Área= 22.42 m²</text>
	</g>
</g>
<g id="ÁREAS_COMUNES">
	<g id="TEXT_35_">
		<text transform="matrix(1 0 0 1 518.8213 167.3047)" fill="#00FF3F" font-family="'ArialMT'" font-size="4.5021">CONTENEDOR DE BASURA</text>
	</g>
	<g id="TEXT_34_">
		<text transform="matrix(1 0 0 1 528.8828 161.6025)" fill="#00FF3F" font-family="'ArialMT'" font-size="4.5021">AREA PARA </text>
	</g>
	<g id="TEXT_33_">
		<text transform="matrix(1 0 0 1 257.7275 217.3853)" fill="#00FF3F" font-family="'ArialNarrow'" font-size="3.6333">TRANSFORMADOR E INTERRUP.</text>
	</g>
	<g id="TEXT_32_">
		<text transform="matrix(1 0 0 1 301.2124 103.8633)" fill="#00FF3F" font-family="'ArialNarrow'" font-size="3.6333">s u b e</text>
	</g>
	<g id="TEXT_31_">
		<text transform="matrix(1 0 0 1 214.7202 141.4932)" fill="#00FF3F" font-family="'ArialNarrow'" font-size="3.6333">EQUIPO  RED</text>
	</g>
	<g id="TEXT_30_">
		<text transform="matrix(1 0 0 1 214.7202 149.8735)" fill="#00FF3F" font-family="'ArialNarrow'" font-size="3.6333">CONTRA INCENDIO</text>
	</g>
	<g id="TEXT_29_">
		<text transform="matrix(1 0 0 1 188.9238 67.7183)" fill="#00FF3F" font-family="'ArialNarrow'" font-size="3.6333">CONCENTRACION </text>
	</g>
	<g id="TEXT_28_">
		<text transform="matrix(1 0 0 1 188.9238 76.0986)" fill="#00FF3F" font-family="'ArialNarrow'" font-size="3.6333">DE  MEDIDORES</text>
	</g>
	<g id="TEXT_27_">
		<text transform="matrix(1 0 0 1 167.7217 182.2095)" fill="#00FF3F" font-family="'ArialNarrow'" font-size="3.6333">CONCENTRACION </text>
	</g>
	<g id="TEXT_26_">
		<text transform="matrix(1 0 0 1 167.7217 190.5903)" fill="#00FF3F" font-family="'ArialNarrow'" font-size="3.6333">DE  MEDIDORES</text>
	</g>
	<g id="LINE_62_">
		
			<line fill="none" stroke="#00FF3F" stroke-width="1.1339" stroke-linecap="round" stroke-linejoin="round" stroke-miterlimit="10" x1="268.487" y1="97.694" x2="294.507" y2="97.694"/>
	</g>
	<g id="MTEXT_51_">
		<text transform="matrix(1 0 0 1 487.8242 515.8164)" fill="#00FF3F" font-family="'ArialMT'" font-size="4.5021">Bodega </text>
		<text transform="matrix(1 0 0 1 487.9932 520.918)" fill="#00FF3F" font-family="'ArialMT'" font-size="4.5021">de </text>
		<text transform="matrix(1 0 0 1 487.8184 526.0215)" fill="#00FF3F" font-family="'ArialMT'" font-size="4.5021">Mantenimiento</text>
	</g>
	<g id="TEXT_25_">
		<text transform="matrix(1.1 0 0 1 294 173.4814)" fill="#00FF3F" font-family="'CenturyGothic'" font-size="6.7821">elevador</text>
	</g>
	<g id="TEXT_24_">
		<text transform="matrix(1.1 0 0 1 294.355 165.8652)" fill="#00FF3F" font-family="'CenturyGothic'" font-size="6.7821">cubo de</text>
	</g>
	<g id="MTEXT_50_">
		<text transform="matrix(1 0 0 1 268.9917 83.0098)" fill="#00FF3F" font-family="'ArialMT'" font-size="4.5021">Montacargas</text>
	</g>
	<g id="TEXT_23_">
		<text transform="matrix(1 0 0 1 209.731 191.4854)" fill="#00FF3F" font-family="'ArialNarrow'" font-size="3.6333">CONCENTRACION </text>
	</g>
	<g id="TEXT_22_">
		<text transform="matrix(1 0 0 1 209.731 199.8662)" fill="#00FF3F" font-family="'ArialNarrow'" font-size="3.6333">DE  MEDIDORES</text>
	</g>
	<g id="LWPOLYLINE_86_">
		
			<rect x="269.311" y="70.055" fill="none" stroke="#00FF3F" stroke-width="1.1339" stroke-linecap="round" stroke-linejoin="round" stroke-miterlimit="10" width="24.373" height="26.98"/>
	</g>
	<g id="TEXT_21_">
		<text transform="matrix(1.1 0 0 1 323.6055 76.9917)" fill="#00FF3F" font-family="'CenturyGothic'" font-size="6.7821">elevador</text>
	</g>
	<g id="TEXT_20_">
		<text transform="matrix(1.1 0 0 1 323.9604 69.375)" fill="#00FF3F" font-family="'CenturyGothic'" font-size="6.7821">cubo de</text>
	</g>
	<g id="LWPOLYLINE_85_">
		
			<rect x="284.171" y="150.38" fill="none" stroke="#00FF3F" stroke-width="1.1339" stroke-linecap="round" stroke-linejoin="round" stroke-miterlimit="10" width="49.471" height="37.093"/>
	</g>
	<g id="LWPOLYLINE_84_">
		
			<polygon fill="none" stroke="#00FF3F" stroke-width="0.3031" stroke-linecap="round" stroke-linejoin="round" stroke-miterlimit="10" points="
			319.135,91.796 319.135,49.795 320.7,49.795 320.7,47.707 352.488,47.707 352.488,49.795 357.512,49.795 357.512,91.796 
			352.488,91.796 352.488,94.103 320.7,94.103 320.7,91.796 		"/>
	</g>
	<g id="LINE_61_">
		
			<line fill="none" stroke="#00FF3F" stroke-width="1.1339" stroke-linecap="round" stroke-linejoin="round" stroke-miterlimit="10" x1="304.847" y1="101.063" x2="304.847" y2="80.549"/>
	</g>
	<g id="LINE_60_">
		
			<line fill="none" stroke="#00FF3F" stroke-width="1.1339" stroke-linecap="round" stroke-linejoin="round" stroke-miterlimit="10" x1="304.847" y1="80.549" x2="299.994" y2="83.906"/>
	</g>
	<g id="LINE_59_">
		
			<line fill="none" stroke="#00FF3F" stroke-width="1.1339" stroke-linecap="round" stroke-linejoin="round" stroke-miterlimit="10" x1="304.847" y1="80.549" x2="309.7" y2="83.906"/>
	</g>
	<g id="LINE_58_">
		
			<line fill="none" stroke="#00FF3F" stroke-width="1.1339" stroke-linecap="round" stroke-linejoin="round" stroke-miterlimit="10" x1="294.507" y1="96.871" x2="313.453" y2="96.871"/>
	</g>
	<g id="LINE_57_">
		
			<line fill="none" stroke="#00FF3F" stroke-width="1.1339" stroke-linecap="round" stroke-linejoin="round" stroke-miterlimit="10" x1="294.507" y1="91.501" x2="313.453" y2="91.501"/>
	</g>
	<g id="LINE_56_">
		
			<line fill="none" stroke="#00FF3F" stroke-width="1.1339" stroke-linecap="round" stroke-linejoin="round" stroke-miterlimit="10" x1="294.507" y1="86.131" x2="314.272" y2="86.131"/>
	</g>
	<g id="LINE_55_">
		
			<line fill="none" stroke="#00FF3F" stroke-width="1.1339" stroke-linecap="round" stroke-linejoin="round" stroke-miterlimit="10" x1="294.507" y1="80.762" x2="314.272" y2="80.762"/>
	</g>
	<g id="LINE_54_">
		
			<line fill="none" stroke="#00FF3F" stroke-width="1.1339" stroke-linecap="round" stroke-linejoin="round" stroke-miterlimit="10" x1="257.826" y1="101.063" x2="257.826" y2="80.549"/>
	</g>
	<g id="LINE_53_">
		
			<line fill="none" stroke="#00FF3F" stroke-width="1.1339" stroke-linecap="round" stroke-linejoin="round" stroke-miterlimit="10" x1="257.826" y1="80.549" x2="252.973" y2="83.906"/>
	</g>
	<g id="LINE_52_">
		
			<line fill="none" stroke="#00FF3F" stroke-width="1.1339" stroke-linecap="round" stroke-linejoin="round" stroke-miterlimit="10" x1="257.826" y1="80.549" x2="262.679" y2="83.906"/>
	</g>
	<g id="LINE_51_">
		
			<line fill="none" stroke="#00FF3F" stroke-width="1.1339" stroke-linecap="round" stroke-linejoin="round" stroke-miterlimit="10" x1="249.381" y1="96.871" x2="268.487" y2="96.871"/>
	</g>
	<g id="LINE_50_">
		
			<line fill="none" stroke="#00FF3F" stroke-width="1.1339" stroke-linecap="round" stroke-linejoin="round" stroke-miterlimit="10" x1="249.381" y1="91.501" x2="268.487" y2="91.501"/>
	</g>
	<g id="LINE_49_">
		
			<line fill="none" stroke="#00FF3F" stroke-width="1.1339" stroke-linecap="round" stroke-linejoin="round" stroke-miterlimit="10" x1="249.381" y1="86.131" x2="268.487" y2="86.131"/>
	</g>
	<g id="LINE_48_">
		
			<line fill="none" stroke="#00FF3F" stroke-width="1.1339" stroke-linecap="round" stroke-linejoin="round" stroke-miterlimit="10" x1="249.381" y1="80.762" x2="268.487" y2="80.762"/>
	</g>
	<g id="LINE_47_">
		
			<line fill="none" stroke="#00FF3F" stroke-width="1.1339" stroke-linecap="round" stroke-linejoin="round" stroke-miterlimit="10" x1="294.507" y1="75.393" x2="314.272" y2="75.393"/>
	</g>
	<g id="LINE_46_">
		
			<line fill="none" stroke="#00FF3F" stroke-width="1.1339" stroke-linecap="round" stroke-linejoin="round" stroke-miterlimit="10" x1="314.272" y1="69.89" x2="294.507" y2="69.89"/>
	</g>
	<g id="LINE_45_">
		
			<line fill="none" stroke="#00FF3F" stroke-width="1.1339" stroke-linecap="round" stroke-linejoin="round" stroke-miterlimit="10" x1="314.272" y1="69.89" x2="294.507" y2="69.89"/>
	</g>
	<g id="LINE_44_">
		
			<line fill="none" stroke="#00FF3F" stroke-width="1.1339" stroke-linecap="round" stroke-linejoin="round" stroke-miterlimit="10" x1="249.381" y1="75.393" x2="268.487" y2="75.393"/>
	</g>
	<g id="LINE_43_">
		
			<line fill="none" stroke="#00FF3F" stroke-width="1.1339" stroke-linecap="round" stroke-linejoin="round" stroke-miterlimit="10" x1="268.487" y1="69.89" x2="249.381" y2="69.89"/>
	</g>
	<g id="LINE_42_">
		
			<line fill="none" stroke="#00FF3F" stroke-width="1.1339" stroke-linecap="round" stroke-linejoin="round" stroke-miterlimit="10" x1="269.311" y1="69.066" x2="269.311" y2="49.63"/>
	</g>
	<g id="LINE_41_">
		
			<line fill="none" stroke="#00FF3F" stroke-width="1.1339" stroke-linecap="round" stroke-linejoin="round" stroke-miterlimit="10" x1="293.684" y1="49.63" x2="293.684" y2="69.066"/>
	</g>
	<g id="LINE_40_">
		
			<line fill="none" stroke="#00FF3F" stroke-width="1.1339" stroke-linecap="round" stroke-linejoin="round" stroke-miterlimit="10" x1="288.841" y1="49.63" x2="288.841" y2="69.066"/>
	</g>
	<g id="LINE_39_">
		
			<line fill="none" stroke="#00FF3F" stroke-width="1.1339" stroke-linecap="round" stroke-linejoin="round" stroke-miterlimit="10" x1="283.999" y1="49.63" x2="283.999" y2="69.066"/>
	</g>
	<g id="LINE_38_">
		
			<line fill="none" stroke="#00FF3F" stroke-width="1.1339" stroke-linecap="round" stroke-linejoin="round" stroke-miterlimit="10" x1="279.156" y1="49.63" x2="279.156" y2="69.066"/>
	</g>
	<g id="LINE_37_">
		
			<line fill="none" stroke="#00FF3F" stroke-width="1.1339" stroke-linecap="round" stroke-linejoin="round" stroke-miterlimit="10" x1="274.313" y1="49.63" x2="274.313" y2="69.066"/>
	</g>
	<g id="LINE_36_">
		
			<line fill="none" stroke="#00FF3F" stroke-width="1.1339" stroke-linecap="round" stroke-linejoin="round" stroke-miterlimit="10" x1="293.684" y1="49.63" x2="293.684" y2="69.066"/>
	</g>
	<g id="LINE_35_">
		
			<line fill="none" stroke="#00FF3F" stroke-width="1.1339" stroke-linecap="round" stroke-linejoin="round" stroke-miterlimit="10" x1="269.311" y1="69.066" x2="269.311" y2="49.63"/>
	</g>
	<g id="HATCH_1_">
		<polygon fill-rule="evenodd" clip-rule="evenodd" fill="#00FF3F" points="268.483,97.861 268.483,69.23 294.508,69.23 
			294.508,97.861 292.869,97.861 292.869,97.033 293.688,97.033 293.688,70.051 269.303,70.051 269.303,97.033 270.127,97.033 
			270.127,97.861 268.483,97.861 		"/>
	</g>
	<g id="LWPOLYLINE_83_">
		
			<polyline fill="none" stroke="#00FF3F" stroke-width="1.1339" stroke-linecap="round" stroke-linejoin="round" stroke-miterlimit="10" points="
			268.487,97.859 268.487,69.231 294.507,69.231 294.507,97.859 292.86,97.859 292.86,97.035 293.684,97.035 293.684,70.055 
			269.311,70.055 269.311,97.035 270.134,97.035 270.134,97.859 268.487,97.859 		"/>
	</g>
	<g id="LWPOLYLINE_82_">
		
			<polyline fill="none" stroke="#00FF3F" stroke-width="1.1339" stroke-linecap="round" stroke-linejoin="round" stroke-miterlimit="10" points="
			357.924,99.043 357.924,151.225 580.032,151.225 580.032,543.232 559.694,544.326 559.607,509.737 545.771,509.771 
			545.858,544.361 421.339,544.665 421.252,510.076 395.722,510.138 395.722,544.738 268.429,544.882 268.358,548.185 
			583.326,547.561 583.326,147.93 361.219,147.93 361.219,99.043 357.924,99.043 		"/>
	</g>
	<g id="LWPOLYLINE_81_">
		
			<polyline fill="none" stroke="#00FF3F" stroke-width="1.1339" stroke-linecap="round" stroke-linejoin="round" stroke-miterlimit="10" points="
			249.216,105.93 245.922,105.93 245.922,26.706 164.597,26.706 164.391,220.073 180.777,220.073 180.777,223.367 164.391,223.367 
			164.391,257.957 248.308,257.957 248.308,357.771 245.014,357.771 245.014,261.25 161.032,261.25 161.307,23.408 249.216,23.413 
			249.216,105.93 		"/>
	</g>
	<g id="LWPOLYLINE_80_">
		
			<rect x="164.536" y="82.868" fill="none" stroke="#00FF3F" stroke-width="1.1339" stroke-linecap="round" stroke-linejoin="round" stroke-miterlimit="10" width="55.902" height="2.471"/>
	</g>
	<g id="LINE_34_">
		
			<line fill="none" stroke="#00FF3F" stroke-width="1.1339" stroke-linecap="round" stroke-linejoin="round" stroke-miterlimit="10" stroke-dasharray="5.7732,0.9622,0.9622,0.9622" x1="331.162" y1="152.835" x2="286.626" y2="185.018"/>
	</g>
	<g id="LWPOLYLINE_79_">
		
			<path fill="none" stroke="#00FF3F" stroke-width="1.1339" stroke-linecap="round" stroke-linejoin="round" stroke-miterlimit="10" d="
			M284.336,187.473h2.174c0.091,0,0.165-0.074,0.165-0.165v-2.174c0-0.09-0.074-0.164-0.165-0.164h-2.174
			c-0.091,0-0.165,0.074-0.165,0.164v2.174C284.171,187.399,284.245,187.473,284.336,187.473z"/>
	</g>
	<g id="LWPOLYLINE_78_">
		
			<path fill="none" stroke="#00FF3F" stroke-width="1.1339" stroke-linecap="round" stroke-linejoin="round" stroke-miterlimit="10" d="
			M284.336,187.374h2.174c0.037,0,0.066-0.029,0.066-0.066v-2.174c0-0.037-0.03-0.065-0.066-0.065h-2.174
			c-0.037,0-0.066,0.029-0.066,0.065v2.174C284.27,187.345,284.299,187.374,284.336,187.374z"/>
	</g>
	<g id="LWPOLYLINE_77_">
		
			<path fill="none" stroke="#00FF3F" stroke-width="1.1339" stroke-linecap="round" stroke-linejoin="round" stroke-miterlimit="10" d="
			M331.278,187.473h2.174c0.091,0,0.165-0.074,0.165-0.165v-2.174c0-0.09-0.074-0.164-0.165-0.164h-2.174
			c-0.091,0-0.165,0.074-0.165,0.164v2.174C331.113,187.399,331.187,187.473,331.278,187.473z"/>
	</g>
	<g id="LWPOLYLINE_76_">
		
			<path fill="none" stroke="#00FF3F" stroke-width="1.1339" stroke-linecap="round" stroke-linejoin="round" stroke-miterlimit="10" d="
			M331.278,187.374h2.174c0.036,0,0.066-0.029,0.066-0.066v-2.174c0-0.037-0.03-0.065-0.066-0.065h-2.174
			c-0.036,0-0.066,0.029-0.066,0.065v2.174C331.212,187.345,331.242,187.374,331.278,187.374z"/>
	</g>
	<g id="LWPOLYLINE_75_">
		
			<path fill="none" stroke="#00FF3F" stroke-width="1.1339" stroke-linecap="round" stroke-linejoin="round" stroke-miterlimit="10" d="
			M284.336,152.884h2.174c0.091,0,0.165-0.074,0.165-0.165v-2.174c0-0.091-0.074-0.165-0.165-0.165h-2.174
			c-0.091,0-0.165,0.074-0.165,0.165v2.174C284.171,152.81,284.245,152.884,284.336,152.884z"/>
	</g>
	<g id="LWPOLYLINE_74_">
		
			<path fill="none" stroke="#00FF3F" stroke-width="1.1339" stroke-linecap="round" stroke-linejoin="round" stroke-miterlimit="10" d="
			M284.336,152.785h2.174c0.037,0,0.066-0.03,0.066-0.066v-2.174c0-0.036-0.03-0.066-0.066-0.066h-2.174
			c-0.037,0-0.066,0.03-0.066,0.066v2.174C284.27,152.755,284.299,152.785,284.336,152.785z"/>
	</g>
	<g id="LWPOLYLINE_73_">
		
			<path fill="none" stroke="#00FF3F" stroke-width="1.1339" stroke-linecap="round" stroke-linejoin="round" stroke-miterlimit="10" d="
			M331.278,152.884h2.174c0.091,0,0.165-0.074,0.165-0.165v-2.174c0-0.091-0.074-0.165-0.165-0.165h-2.174
			c-0.091,0-0.165,0.074-0.165,0.165v2.174C331.113,152.81,331.187,152.884,331.278,152.884z"/>
	</g>
	<g id="LWPOLYLINE_72_">
		
			<path fill="none" stroke="#00FF3F" stroke-width="1.1339" stroke-linecap="round" stroke-linejoin="round" stroke-miterlimit="10" d="
			M331.278,152.785h2.174c0.036,0,0.066-0.03,0.066-0.066v-2.174c0-0.036-0.03-0.066-0.066-0.066h-2.174
			c-0.036,0-0.066,0.03-0.066,0.066v2.174C331.212,152.755,331.242,152.785,331.278,152.785z"/>
	</g>
	<g id="LWPOLYLINE_71_">
		
			<rect x="284.583" y="152.884" fill="none" stroke="#00FF3F" stroke-width="1.1339" stroke-linecap="round" stroke-linejoin="round" stroke-miterlimit="10" width="1.68" height="32.086"/>
	</g>
	<g id="LWPOLYLINE_70_">
		
			<rect x="331.525" y="152.884" fill="none" stroke="#00FF3F" stroke-width="1.1339" stroke-linecap="round" stroke-linejoin="round" stroke-miterlimit="10" width="1.68" height="32.086"/>
	</g>
	<g id="LWPOLYLINE_69_">
		
			<rect x="286.675" y="150.792" fill="none" stroke="#00FF3F" stroke-width="1.1339" stroke-linecap="round" stroke-linejoin="round" stroke-miterlimit="10" width="44.438" height="1.68"/>
	</g>
	<g id="LWPOLYLINE_68_">
		
			<rect x="286.675" y="185.381" fill="none" stroke="#00FF3F" stroke-width="1.1339" stroke-linecap="round" stroke-linejoin="round" stroke-miterlimit="10" width="44.438" height="1.68"/>
	</g>
	<g id="LINE_33_">
		
			<line fill="none" stroke="#00FF3F" stroke-width="1.1339" stroke-linecap="round" stroke-linejoin="round" stroke-miterlimit="10" stroke-dasharray="5.7732,0.9622,0.9622,0.9622" x1="331.162" y1="185.018" x2="286.626" y2="152.835"/>
	</g>
	<g id="LWPOLYLINE_67_">
		
			<rect x="516.619" y="151.225" fill="none" stroke="#00FF3F" stroke-width="1.1339" stroke-linecap="round" stroke-linejoin="round" stroke-miterlimit="10" width="39.53" height="23.883"/>
	</g>
	<g id="MTEXT_49_">
		<text transform="matrix(1 0 0 1 268.9917 83.0098)" fill="#00FF3F" font-family="'ArialMT'" font-size="4.5021">Montacargas</text>
	</g>
	<g id="LWPOLYLINE_66_">
		
			<rect x="164.464" y="151.224" fill="none" stroke="#00FF3F" stroke-width="1.1339" stroke-linecap="round" stroke-linejoin="round" stroke-miterlimit="10" width="8.236" height="8.236"/>
	</g>
	<g id="LWPOLYLINE_65_">
		
			<rect x="172.7" y="151.224" fill="none" stroke="#00FF3F" stroke-width="1.1339" stroke-linecap="round" stroke-linejoin="round" stroke-miterlimit="10" width="13.177" height="2.471"/>
	</g>
	<g id="LWPOLYLINE_64_">
		
			<rect x="240.072" y="151.224" fill="none" stroke="#00FF3F" stroke-width="1.1339" stroke-linecap="round" stroke-linejoin="round" stroke-miterlimit="10" width="8.236" height="8.236"/>
	</g>
	<g id="LWPOLYLINE_63_">
		
			<rect x="245.014" y="135.578" fill="none" stroke="#00FF3F" stroke-width="1.1339" stroke-linecap="round" stroke-linejoin="round" stroke-miterlimit="10" width="3.294" height="40.354"/>
	</g>
	<g id="LWPOLYLINE_62_">
		
			<polygon fill="none" stroke="#00FF3F" stroke-width="1.1339" stroke-linecap="round" stroke-linejoin="round" stroke-miterlimit="10" points="
			240.072,207.226 199.719,207.226 199.719,182.52 235.131,182.52 235.131,180.049 197.248,180.049 197.248,209.696 
			240.072,209.696 		"/>
	</g>
	<g id="LWPOLYLINE_61_">
		
			<rect x="269.311" y="70.055" fill="none" stroke="#00FF3F" stroke-width="1.1339" stroke-linecap="round" stroke-linejoin="round" stroke-miterlimit="10" width="24.373" height="26.98"/>
	</g>
	<g id="LWPOLYLINE_60_">
		
			<polygon fill="none" stroke="#00FF3F" stroke-width="0.3031" stroke-linecap="round" stroke-linejoin="round" stroke-miterlimit="10" points="
			319.135,91.796 319.135,49.795 320.7,49.795 320.7,47.707 352.488,47.707 352.488,49.795 357.512,49.795 357.512,91.796 
			352.488,91.796 352.488,94.103 320.7,94.103 320.7,91.796 		"/>
	</g>
	<g id="LWPOLYLINE_59_">
		
			<polyline fill="none" stroke="#00FF3F" stroke-width="1.1339" stroke-linecap="round" stroke-linejoin="round" stroke-miterlimit="10" points="
			338.02,548.185 268.358,548.185 268.358,513.801 245.014,513.801 245.014,357.771 		"/>
	</g>
	<g id="LWPOLYLINE_58_">
		
			<polyline fill="none" stroke="#00FF3F" stroke-width="1.1339" stroke-linecap="round" stroke-linejoin="round" stroke-miterlimit="10" points="
			284.171,189.944 310.897,189.944 311.756,257.957 248.308,257.957 		"/>
	</g>
	<g id="LWPOLYLINE_57_">
		
			<polyline fill="none" stroke="#00FF3F" stroke-width="1.1339" stroke-linecap="round" stroke-linejoin="round" stroke-miterlimit="10" points="
			249.381,44.577 313.453,44.577 313.453,42.548 320.7,42.548 320.7,44.742 352.488,44.742 352.488,42.548 361.219,42.548 
			361.219,49.795 360.477,49.795 361.219,99.043 		"/>
	</g>
	<g id="TEXT_19_">
		<text transform="matrix(1 0 0 1 254.7544 105.8057)" fill="#00FF3F" font-family="'ArialNarrow'" font-size="3.6333">Baja</text>
	</g>
	<g id="LWPOLYLINE_56_">
		
			<polygon fill="none" stroke="#00FF3F" stroke-width="1.1339" stroke-linecap="round" stroke-linejoin="round" stroke-miterlimit="10" points="
			314.686,97.694 314.272,49.63 249.216,49.63 249.216,97.694 		"/>
	</g>
	<g id="LWPOLYLINE_55_">
		
			<rect x="472.972" y="501.891" fill="none" stroke="#00FF3F" stroke-width="1.1339" stroke-linecap="round" stroke-linejoin="round" stroke-miterlimit="10" width="72.887" height="42.471"/>
	</g>
	<g id="TEXT_18_">
		<text transform="matrix(1 0 0 1 335.2627 579.415)" fill="#00FF3F" font-family="'ArialMT'" font-size="16.7593">Bodegas</text>
	</g>
</g>
<g id="_x30_">
</g>
</svg>
