<?xml version="1.0" encoding="utf-8"?>
<!-- Generator: Adobe Illustrator 16.0.0, SVG Export Plug-In . SVG Version: 6.00 Build 0)  -->
<!DOCTYPE svg PUBLIC "-//W3C//DTD SVG 1.1//EN" "http://www.w3.org/Graphics/SVG/1.1/DTD/svg11.dtd">
<svg version="1.1" xmlns="http://www.w3.org/2000/svg" xmlns:xlink="http://www.w3.org/1999/xlink" x="0px" y="0px" width="800px"
	 height="600px" viewBox="0 0 800 600" enable-background="new 0 0 800 600" xml:space="preserve">
<g id="A_x5F_Areas">
	<g id="MTEXT">
		
			<text transform="matrix(0.9917 -0.1283 0.1283 0.9917 133.5283 227.939)" fill="#FF0000" font-family="'ArialMT'" font-size="4.5769">Bodega 202</text>
		
			<text transform="matrix(0.9917 -0.1283 0.1283 0.9917 132.2646 233.7285)" fill="#FF0000" font-family="'ArialMT'" font-size="4.5769">Área: 32.52m</text>
		
			<text transform="matrix(0.9917 -0.1283 0.1283 0.9917 157.7979 228.4893)" fill="#FF0000" font-family="'ArialMT'" font-size="3.2038">2</text>
	</g>
	<g id="MTEXT_1_">
		
			<text transform="matrix(0.9917 -0.1283 0.1283 0.9917 121.332 317.877)" fill="#FF0000" font-family="'ArialMT'" font-size="4.5769">Bodega 203</text>
		
			<text transform="matrix(0.9917 -0.1283 0.1283 0.9917 120.084 323.6641)" fill="#FF0000" font-family="'ArialMT'" font-size="4.5769">Área: 16.71m</text>
		
			<text transform="matrix(0.9917 -0.1283 0.1283 0.9917 145.6182 318.4258)" fill="#FF0000" font-family="'ArialMT'" font-size="3.2038">2</text>
	</g>
	<g id="MTEXT_2_">
		
			<text transform="matrix(0.9917 -0.1283 0.1283 0.9917 125.6543 367.5313)" fill="#FF0000" font-family="'ArialMT'" font-size="4.5769">Bodega 203</text>
		
			<text transform="matrix(0.9917 -0.1283 0.1283 0.9917 124.4063 373.3184)" fill="#FF0000" font-family="'ArialMT'" font-size="4.5769">Área: 11.60m</text>
		
			<text transform="matrix(0.9917 -0.1283 0.1283 0.9917 149.9395 368.0791)" fill="#FF0000" font-family="'ArialMT'" font-size="3.2038">2</text>
	</g>
	<g id="MTEXT_3_">
		
			<text transform="matrix(0.9917 -0.1283 0.1283 0.9917 195.2139 358.7363)" fill="#FF0000" font-family="'ArialMT'" font-size="4.5769">Bodega 204</text>
		
			<text transform="matrix(0.9917 -0.1283 0.1283 0.9917 195.1582 364.3691)" fill="#FF0000" font-family="'ArialMT'" font-size="4.5769">Área: 8.84m</text>
		
			<text transform="matrix(0.9917 -0.1283 0.1283 0.9917 218.2969 359.4395)" fill="#FF0000" font-family="'ArialMT'" font-size="3.2038">2</text>
	</g>
	<g id="MTEXT_4_">
		
			<text transform="matrix(0.9917 -0.1283 0.1283 0.9917 162.9287 440.3105)" fill="#FF0000" font-family="'ArialMT'" font-size="4.5769">Bodega 208</text>
		
			<text transform="matrix(0.9917 -0.1283 0.1283 0.9917 161.6836 446.0977)" fill="#FF0000" font-family="'ArialMT'" font-size="4.5769">Área: 53.74m</text>
		
			<text transform="matrix(0.9917 -0.1283 0.1283 0.9917 187.2168 440.8574)" fill="#FF0000" font-family="'ArialMT'" font-size="3.2038">2</text>
	</g>
	<g id="MTEXT_5_">
		
			<text transform="matrix(0.9917 -0.1283 0.1283 0.9917 52.7764 446.0957)" fill="#FF0000" font-family="'ArialMT'" font-size="4.5769">Bodega 207</text>
		
			<text transform="matrix(0.9917 -0.1283 0.1283 0.9917 51.5273 451.8828)" fill="#FF0000" font-family="'ArialMT'" font-size="4.5769">Área: 45.30m</text>
		
			<text transform="matrix(0.9917 -0.1283 0.1283 0.9917 77.0615 446.6436)" fill="#FF0000" font-family="'ArialMT'" font-size="3.2038">2</text>
	</g>
	<g id="MTEXT_6_">
		
			<text transform="matrix(0.9917 -0.1283 0.1283 0.9917 251.1104 434.9512)" fill="#FF0000" font-family="'ArialMT'" font-size="4.5769">Bodega 209</text>
		
			<text transform="matrix(0.9917 -0.1283 0.1283 0.9917 249.8652 440.7383)" fill="#FF0000" font-family="'ArialMT'" font-size="4.5769">Área: 15.02m</text>
		
			<text transform="matrix(0.9917 -0.1283 0.1283 0.9917 275.3984 435.499)" fill="#FF0000" font-family="'ArialMT'" font-size="3.2038">2</text>
	</g>
	<g id="MTEXT_8_">
		
			<text transform="matrix(0.9917 -0.1283 0.1283 0.9917 385.8027 312.8438)" fill="#FF0000" font-family="'ArialMT'" font-size="4.5769">Bodega 210</text>
		
			<text transform="matrix(0.9917 -0.1283 0.1283 0.9917 384.5498 318.6309)" fill="#FF0000" font-family="'ArialMT'" font-size="4.5769">Área: 18.90m</text>
		
			<text transform="matrix(0.9917 -0.1283 0.1283 0.9917 410.084 313.3926)" fill="#FF0000" font-family="'ArialMT'" font-size="3.2038">2</text>
	</g>
	<g id="MTEXT_13_">
		
			<text transform="matrix(0.9917 -0.1283 0.1283 0.9917 597.7871 380.4385)" fill="#FF0000" font-family="'CenturyGothic'" font-size="4.5769">Bodega 225</text>
		
			<text transform="matrix(0.9917 -0.1283 0.1283 0.9917 597.5361 386.0967)" fill="#FF0000" font-family="'ArialMT'" font-size="4.5769">Área: 13.28m</text>
		
			<text transform="matrix(0.9917 -0.1283 0.1283 0.9917 623.0703 380.8574)" fill="#FF0000" font-family="'ArialMT'" font-size="3.2038">2</text>
	</g>
	<g id="MTEXT_14_">
		
			<text transform="matrix(0.9917 -0.1283 0.1283 0.9917 505.749 302.7012)" fill="#FF0000" font-family="'CenturyGothic'" font-size="4.5769">Bodega 220</text>
		
			<text transform="matrix(0.9917 -0.1283 0.1283 0.9917 506.7227 308.2012)" fill="#FF0000" font-family="'ArialMT'" font-size="4.5769">Área: 9.44m</text>
		
			<text transform="matrix(0.9917 -0.1283 0.1283 0.9917 529.8613 303.2725)" fill="#FF0000" font-family="'ArialMT'" font-size="3.2038">2</text>
	</g>
	<g id="MTEXT_15_">
		
			<text transform="matrix(0.9917 -0.1283 0.1283 0.9917 546.002 293.2104)" fill="#FF0000" font-family="'CenturyGothic'" font-size="4.5769">Bodega 222</text>
		
			<text transform="matrix(0.9917 -0.1283 0.1283 0.9917 546.9668 298.7114)" fill="#FF0000" font-family="'ArialMT'" font-size="4.5769">Área: 9.44m</text>
		
			<text transform="matrix(0.9917 -0.1283 0.1283 0.9917 570.1045 293.7822)" fill="#FF0000" font-family="'ArialMT'" font-size="3.2038">2</text>
	</g>
	<g id="MTEXT_16_">
		
			<text transform="matrix(0.9917 -0.1283 0.1283 0.9917 589.623 290.436)" fill="#FF0000" font-family="'CenturyGothic'" font-size="4.5769">Bodega 224</text>
		
			<text transform="matrix(0.9917 -0.1283 0.1283 0.9917 590.6084 295.9346)" fill="#FF0000" font-family="'ArialMT'" font-size="4.5769">Área: 9.44m</text>
		
			<text transform="matrix(0.9917 -0.1283 0.1283 0.9917 613.7471 291.0054)" fill="#FF0000" font-family="'ArialMT'" font-size="3.2038">2</text>
	</g>
	<g id="MTEXT_17_">
		
			<text transform="matrix(0.9917 -0.1283 0.1283 0.9917 590.8057 255.6528)" fill="#FF0000" font-family="'CenturyGothic'" font-size="4.5769">Bodega 234</text>
		
			<text transform="matrix(0.9917 -0.1283 0.1283 0.9917 591.791 261.1509)" fill="#FF0000" font-family="'ArialMT'" font-size="4.5769">Área: 9.92m</text>
		
			<text transform="matrix(0.9917 -0.1283 0.1283 0.9917 614.9297 256.2217)" fill="#FF0000" font-family="'ArialMT'" font-size="3.2038">2</text>
	</g>
	<g id="MTEXT_18_">
		
			<text transform="matrix(0.9917 -0.1283 0.1283 0.9917 537.0352 262.5474)" fill="#FF0000" font-family="'CenturyGothic'" font-size="4.5769">Bodega 236</text>
		
			<text transform="matrix(0.9917 -0.1283 0.1283 0.9917 537.9834 268.0508)" fill="#FF0000" font-family="'ArialMT'" font-size="4.5769">Área: 9.92m</text>
		
			<text transform="matrix(0.9917 -0.1283 0.1283 0.9917 561.1221 263.1211)" fill="#FF0000" font-family="'ArialMT'" font-size="3.2038">2</text>
	</g>
	<g id="MTEXT_19_">
		
			<text transform="matrix(0.9917 -0.1283 0.1283 0.9917 502.5254 267.6426)" fill="#FF0000" font-family="'CenturyGothic'" font-size="4.5769">Bodega 238</text>
		
			<text transform="matrix(0.9917 -0.1283 0.1283 0.9917 503.4951 273.1431)" fill="#FF0000" font-family="'ArialMT'" font-size="4.5769">Área: 8.47m</text>
		
			<text transform="matrix(0.9917 -0.1283 0.1283 0.9917 526.6338 268.2139)" fill="#FF0000" font-family="'ArialMT'" font-size="3.2038">2</text>
	</g>
	<g id="MTEXT_20_">
		
			<text transform="matrix(0.9917 -0.1283 0.1283 0.9917 631.1934 250.9824)" fill="#FF0000" font-family="'CenturyGothic'" font-size="4.5769">Bodega 231</text>
		
			<text transform="matrix(0.9917 -0.1283 0.1283 0.9917 631.7461 256.5366)" fill="#FF0000" font-family="'ArialMT'" font-size="4.5769">Área: 9.92m</text>
		
			<text transform="matrix(0.9917 -0.1283 0.1283 0.9917 654.8848 251.6074)" fill="#FF0000" font-family="'ArialMT'" font-size="3.2038">2</text>
	</g>
	<g id="MTEXT_21_">
		
			<text transform="matrix(0.9917 -0.1283 0.1283 0.9917 630.752 284.7686)" fill="#FF0000" font-family="'CenturyGothic'" font-size="4.5769">Bodega 226</text>
		
			<text transform="matrix(0.9917 -0.1283 0.1283 0.9917 631.7002 290.272)" fill="#FF0000" font-family="'ArialMT'" font-size="4.5769">Área: 9.92m</text>
		
			<text transform="matrix(0.9917 -0.1283 0.1283 0.9917 654.8389 285.3428)" fill="#FF0000" font-family="'ArialMT'" font-size="3.2038">2</text>
	</g>
	<g id="MTEXT_22_">
		
			<text transform="matrix(0.9917 -0.1283 0.1283 0.9917 577.3525 180.916)" fill="#FF0000" font-family="'CenturyGothic'" font-size="4.5769">Bodega 235</text>
		
			<text transform="matrix(0.9917 -0.1283 0.1283 0.9917 577.1016 186.5742)" fill="#FF0000" font-family="'ArialMT'" font-size="4.5769">Área: 16.90m</text>
		
			<text transform="matrix(0.9917 -0.1283 0.1283 0.9917 602.6357 181.335)" fill="#FF0000" font-family="'ArialMT'" font-size="3.2038">2</text>
	</g>
	<g id="MTEXT_23_">
		
			<text transform="matrix(0.9917 -0.1283 0.1283 0.9917 512.2236 189.5044)" fill="#FF0000" font-family="'CenturyGothic'" font-size="4.5769">Bodega 239</text>
		
			<text transform="matrix(0.9917 -0.1283 0.1283 0.9917 511.9316 195.168)" fill="#FF0000" font-family="'ArialMT'" font-size="4.5769">Área: 14.64m</text>
		
			<text transform="matrix(0.9917 -0.1283 0.1283 0.9917 537.4658 189.9287)" fill="#FF0000" font-family="'ArialMT'" font-size="3.2038">2</text>
	</g>
	<g id="MTEXT_24_">
		
			<text transform="matrix(0.9917 -0.1283 0.1283 0.9917 440.6152 201.9092)" fill="#FF0000" font-family="'CenturyGothic'" font-size="4.5769">Bodega 241</text>
		
			<text transform="matrix(0.9917 -0.1283 0.1283 0.9917 439.9697 207.6187)" fill="#FF0000" font-family="'ArialMT'" font-size="4.5769">Área: 17.46m</text>
		
			<text transform="matrix(0.9917 -0.1283 0.1283 0.9917 465.5029 202.3794)" fill="#FF0000" font-family="'ArialMT'" font-size="3.2038">2</text>
	</g>
	<g id="MTEXT_25_">
		
			<text transform="matrix(0.9917 -0.1283 0.1283 0.9917 670.9307 369.7344)" fill="#FF0000" font-family="'CenturyGothic'" font-size="4.5769">Bodega 228</text>
		
			<text transform="matrix(0.9917 -0.1283 0.1283 0.9917 670.7012 375.3896)" fill="#FF0000" font-family="'ArialMT'" font-size="4.5769">Área: 15.36m</text>
		
			<text transform="matrix(0.9917 -0.1283 0.1283 0.9917 696.2344 370.1504)" fill="#FF0000" font-family="'ArialMT'" font-size="3.2038">2</text>
	</g>
	<g id="MTEXT_26_">
		
			<text transform="matrix(0.9917 -0.1283 0.1283 0.9917 190.6914 308.2402)" fill="#FF0000" font-family="'CenturyGothic'" font-size="4.5769">Bodega</text>
		
			<text transform="matrix(0.9917 -0.1283 0.1283 0.9917 186.2012 314.4473)" fill="#FF0000" font-family="'ArialMT'" font-size="4.5769">Área: 13.26m</text>
		
			<text transform="matrix(0.9917 -0.1283 0.1283 0.9917 211.7354 309.207)" fill="#FF0000" font-family="'ArialMT'" font-size="3.2038">2</text>
	</g>
	<g id="MTEXT_27_">
		
			<text transform="matrix(0.9917 -0.1283 0.1283 0.9917 632.2129 375.1953)" fill="#FF0000" font-family="'CenturyGothic'" font-size="4.5769">Bodega 227</text>
		
			<text transform="matrix(0.9917 -0.1283 0.1283 0.9917 631.999 380.8486)" fill="#FF0000" font-family="'ArialMT'" font-size="4.5769">Área: 13.23m</text>
		
			<text transform="matrix(0.9917 -0.1283 0.1283 0.9917 657.5332 375.6094)" fill="#FF0000" font-family="'ArialMT'" font-size="3.2038">2</text>
	</g>
	<g id="MTEXT_28_">
		
			<text transform="matrix(0.9917 -0.1283 0.1283 0.9917 710.4912 356.9688)" fill="#FF0000" font-family="'CenturyGothic'" font-size="4.5769">Bodega 229</text>
		
			<text transform="matrix(0.9917 -0.1283 0.1283 0.9917 710.1992 362.6328)" fill="#FF0000" font-family="'ArialMT'" font-size="4.5769">Área: 14.12m</text>
		
			<text transform="matrix(0.9917 -0.1283 0.1283 0.9917 735.7334 357.3926)" fill="#FF0000" font-family="'ArialMT'" font-size="3.2038">2</text>
	</g>
	<g id="MTEXT_29_">
		
			<text transform="matrix(0.9917 -0.1283 0.1283 0.9917 477.542 196.1323)" fill="#FF0000" font-family="'CenturyGothic'" font-size="4.5769">Bodega 240</text>
		
			<text transform="matrix(0.9917 -0.1283 0.1283 0.9917 477.3164 201.7876)" fill="#FF0000" font-family="'ArialMT'" font-size="4.5769">Área: 17.81m</text>
		
			<text transform="matrix(0.9917 -0.1283 0.1283 0.9917 502.8506 196.5483)" fill="#FF0000" font-family="'ArialMT'" font-size="3.2038">2</text>
	</g>
	<g id="MTEXT_30_">
		
			<text transform="matrix(0.9917 -0.1283 0.1283 0.9917 613.3691 175.7144)" fill="#FF0000" font-family="'CenturyGothic'" font-size="4.5769">Bodega 233</text>
		
			<text transform="matrix(0.9917 -0.1283 0.1283 0.9917 613.1299 181.3711)" fill="#FF0000" font-family="'ArialMT'" font-size="4.5769">Área: 16.35m</text>
		
			<text transform="matrix(0.9917 -0.1283 0.1283 0.9917 638.6641 176.1318)" fill="#FF0000" font-family="'ArialMT'" font-size="3.2038">2</text>
	</g>
	<g id="MTEXT_31_">
		
			<text transform="matrix(0.9917 -0.1283 0.1283 0.9917 705.1533 240.3848)" fill="#FF0000" font-family="'CenturyGothic'" font-size="4.5769">Bodega 230</text>
		
			<text transform="matrix(0.9917 -0.1283 0.1283 0.9917 706.127 245.8843)" fill="#FF0000" font-family="'ArialMT'" font-size="4.5769">Área: 9.38m</text>
		
			<text transform="matrix(0.9917 -0.1283 0.1283 0.9917 729.2656 240.9551)" fill="#FF0000" font-family="'ArialMT'" font-size="3.2038">2</text>
	</g>
	<g id="MTEXT_32_">
		
			<text transform="matrix(0.9917 -0.1283 0.1283 0.9917 701.2451 207.3262)" fill="#FF0000" font-family="'CenturyGothic'" font-size="4.5769">Bodega 232</text>
		
			<text transform="matrix(0.9917 -0.1283 0.1283 0.9917 701.0098 212.9824)" fill="#FF0000" font-family="'ArialMT'" font-size="4.5769">Área: 10.25m</text>
		
			<text transform="matrix(0.9917 -0.1283 0.1283 0.9917 726.5439 207.7432)" fill="#FF0000" font-family="'ArialMT'" font-size="3.2038">2</text>
	</g>
	<g id="MTEXT_34_">
		
			<text transform="matrix(0.9917 -0.1283 0.1283 0.9917 437.9414 317.1074)" fill="#FF0000" font-family="'CenturyGothic'" font-size="4.5769">Bodega 216</text>
		
			<text transform="matrix(0.9917 -0.1283 0.1283 0.9917 437.6904 322.7656)" fill="#FF0000" font-family="'ArialMT'" font-size="4.5769">Área: 10.09m</text>
		
			<text transform="matrix(0.9917 -0.1283 0.1283 0.9917 463.2246 317.5273)" fill="#FF0000" font-family="'ArialMT'" font-size="3.2038">2</text>
	</g>
	<g id="MTEXT_35_">
		
			<text transform="matrix(0.9917 -0.1283 0.1283 0.9917 431.9326 284.5229)" fill="#FF0000" font-family="'CenturyGothic'" font-size="4.5769">Bodega 242</text>
		
			<text transform="matrix(0.9917 -0.1283 0.1283 0.9917 432.8965 290.0239)" fill="#FF0000" font-family="'ArialMT'" font-size="4.5769">Área: 9.71m</text>
		
			<text transform="matrix(0.9917 -0.1283 0.1283 0.9917 456.0352 285.0947)" fill="#FF0000" font-family="'ArialMT'" font-size="3.2038">2</text>
	</g>
	<g id="MTEXT_36_">
		
			<text transform="matrix(0.9917 -0.1283 0.1283 0.9917 564.6973 385.3887)" fill="#FF0000" font-family="'CenturyGothic'" font-size="4.5769">Bodega 223</text>
		
			<text transform="matrix(0.9917 -0.1283 0.1283 0.9917 564.458 391.0459)" fill="#FF0000" font-family="'ArialMT'" font-size="4.5769">Área: 11.67m</text>
		
			<text transform="matrix(0.9917 -0.1283 0.1283 0.9917 589.9922 385.8066)" fill="#FF0000" font-family="'ArialMT'" font-size="3.2038">2</text>
	</g>
	<g id="MTEXT_37_">
		
			<text transform="matrix(0.9917 -0.1283 0.1283 0.9917 535.5332 390.2578)" fill="#FF0000" font-family="'CenturyGothic'" font-size="4.5769">Bodega 221</text>
		
			<text transform="matrix(0.9917 -0.1283 0.1283 0.9917 534.8867 395.9668)" fill="#FF0000" font-family="'ArialMT'" font-size="4.5769">Área: 11.56m</text>
		
			<text transform="matrix(0.9917 -0.1283 0.1283 0.9917 560.4209 390.7275)" fill="#FF0000" font-family="'ArialMT'" font-size="3.2038">2</text>
	</g>
	<g id="MTEXT_38_">
		
			<text transform="matrix(0.9917 -0.1283 0.1283 0.9917 503.1416 395.5508)" fill="#FF0000" font-family="'CenturyGothic'" font-size="4.5769">Bodega 219</text>
		
			<text transform="matrix(0.9917 -0.1283 0.1283 0.9917 502.8496 401.2139)" fill="#FF0000" font-family="'ArialMT'" font-size="4.5769">Área: 12.07m</text>
		
			<text transform="matrix(0.9917 -0.1283 0.1283 0.9917 528.3838 395.9746)" fill="#FF0000" font-family="'ArialMT'" font-size="3.2038">2</text>
	</g>
	<g id="MTEXT_39_">
		
			<text transform="matrix(0.9917 -0.1283 0.1283 0.9917 471.7236 399.5918)" fill="#FF0000" font-family="'CenturyGothic'" font-size="4.5769">Bodega 218</text>
		
			<text transform="matrix(0.9917 -0.1283 0.1283 0.9917 471.4941 405.2471)" fill="#FF0000" font-family="'ArialMT'" font-size="4.5769">Área: 12.07m</text>
		
			<text transform="matrix(0.9917 -0.1283 0.1283 0.9917 497.0273 400.0078)" fill="#FF0000" font-family="'ArialMT'" font-size="3.2038">2</text>
	</g>
	<g id="MTEXT_40_">
		
			<text transform="matrix(0.9917 -0.1283 0.1283 0.9917 439.5098 403.9102)" fill="#FF0000" font-family="'CenturyGothic'" font-size="4.5769">Bodega 217</text>
		
			<text transform="matrix(0.9917 -0.1283 0.1283 0.9917 439.2959 409.5645)" fill="#FF0000" font-family="'ArialMT'" font-size="4.5769">Área: 12.01m</text>
		
			<text transform="matrix(0.9917 -0.1283 0.1283 0.9917 464.8291 404.3242)" fill="#FF0000" font-family="'ArialMT'" font-size="3.2038">2</text>
	</g>
	<g id="MTEXT_41_">
		
			<text transform="matrix(0.9917 -0.1283 0.1283 0.9917 406.8174 407.6777)" fill="#FF0000" font-family="'CenturyGothic'" font-size="4.5769">Bodega 215</text>
		
			<text transform="matrix(0.9917 -0.1283 0.1283 0.9917 406.5674 413.3359)" fill="#FF0000" font-family="'ArialMT'" font-size="4.5769">Área: 12.69m</text>
		
			<text transform="matrix(0.9917 -0.1283 0.1283 0.9917 432.1006 408.0967)" fill="#FF0000" font-family="'ArialMT'" font-size="3.2038">2</text>
	</g>
	<g id="MTEXT_42_">
		
			<text transform="matrix(0.9917 -0.1283 0.1283 0.9917 373.4043 412.7813)" fill="#FF0000" font-family="'CenturyGothic'" font-size="4.5769">Bodega 214</text>
		
			<text transform="matrix(0.9917 -0.1283 0.1283 0.9917 373.1914 418.4355)" fill="#FF0000" font-family="'ArialMT'" font-size="4.5769">Área: 12.71m</text>
		
			<text transform="matrix(0.9917 -0.1283 0.1283 0.9917 398.7246 413.1963)" fill="#FF0000" font-family="'ArialMT'" font-size="3.2038">2</text>
	</g>
	<g id="MTEXT_43_">
		
			<text transform="matrix(0.9917 -0.1283 0.1283 0.9917 340.751 417.8496)" fill="#FF0000" font-family="'CenturyGothic'" font-size="4.5769">Bodega 213</text>
		
			<text transform="matrix(0.9917 -0.1283 0.1283 0.9917 340.5117 423.5059)" fill="#FF0000" font-family="'ArialMT'" font-size="4.5769">Área: 12.70m</text>
		
			<text transform="matrix(0.9917 -0.1283 0.1283 0.9917 366.0449 418.2666)" fill="#FF0000" font-family="'ArialMT'" font-size="3.2038">2</text>
	</g>
	<g id="MTEXT_44_">
		
			<text transform="matrix(0.9917 -0.1283 0.1283 0.9917 299.5693 424.832)" fill="#FF0000" font-family="'CenturyGothic'" font-size="4.5769">Bodega 212</text>
		
			<text transform="matrix(0.9917 -0.1283 0.1283 0.9917 299.335 430.4883)" fill="#FF0000" font-family="'ArialMT'" font-size="4.5769">Área: 19.70m</text>
		
			<text transform="matrix(0.9917 -0.1283 0.1283 0.9917 324.8682 425.248)" fill="#FF0000" font-family="'ArialMT'" font-size="3.2038">2</text>
	</g>
	<g id="MTEXT_45_">
		
			<text transform="matrix(0.9917 -0.1283 0.1283 0.9917 671.4961 173.8389)" fill="#FF0000" font-family="'CenturyGothic'" font-size="4.5769">Bodega</text>
		
			<text transform="matrix(0.9917 -0.1283 0.1283 0.9917 671.4639 179.1519)" fill="#FF0000" font-family="'CenturyGothic'" font-size="4.5769">de plaza</text>
		
			<text transform="matrix(0.9917 -0.1283 0.1283 0.9917 668.8809 185.1118)" fill="#FF0000" font-family="'ArialMT'" font-size="4.5769">Área: 7.67m</text>
		
			<text transform="matrix(0.9917 -0.1283 0.1283 0.9917 692.0195 180.1826)" fill="#FF0000" font-family="'ArialMT'" font-size="3.2038">2</text>
	</g>
	<g id="MTEXT_46_">
		
			<text transform="matrix(0.9917 -0.1283 0.1283 0.9917 543.2305 186.3301)" fill="#FF0000" font-family="'CenturyGothic'" font-size="4.5769">Bodega 237</text>
		
			<text transform="matrix(0.9917 -0.1283 0.1283 0.9917 543.0166 191.9839)" fill="#FF0000" font-family="'ArialMT'" font-size="4.5769">Área: 14.69m</text>
		
			<text transform="matrix(0.9917 -0.1283 0.1283 0.9917 568.5508 186.7446)" fill="#FF0000" font-family="'ArialMT'" font-size="3.2038">2</text>
	</g>
	<g id="LWPOLYLINE">
		
			<polygon fill="none" stroke="#DFFF7F" stroke-width="1.1339" stroke-linecap="round" stroke-linejoin="round" stroke-miterlimit="10" points="
			656.207,163.637 700.252,157.127 704.857,188.288 680.068,191.946 680.226,192.985 660.966,195.832 		"/>
	</g>
	<g id="LWPOLYLINE_1_">
		
			<polygon fill="none" stroke="#DFFF7F" stroke-width="1.1339" stroke-linecap="round" stroke-linejoin="round" stroke-miterlimit="10" points="
			438.421,231.45 429.31,169.808 429.224,169.222 428.55,169.321 425.165,146.421 462.883,140.846 475.466,225.98 		"/>
	</g>
	<g id="LWPOLYLINE_2_">
		
			<polygon fill="none" stroke="#DFFF7F" stroke-width="1.1339" stroke-linecap="round" stroke-linejoin="round" stroke-miterlimit="10" points="
			475.466,225.98 462.883,140.846 498.58,135.57 498.979,138.264 501.336,137.916 513.521,220.356 		"/>
	</g>
	<g id="LWPOLYLINE_3_">
		
			<polygon fill="none" stroke="#DFFF7F" stroke-width="1.1339" stroke-linecap="round" stroke-linejoin="round" stroke-miterlimit="10" points="
			513.52,220.352 501.336,137.916 504.366,137.468 503.969,134.773 532.257,130.593 544.837,215.724 		"/>
	</g>
	<g id="LWPOLYLINE_4_">
		
			<rect x="511.177" y="155.017" transform="matrix(0.1462 0.9893 -0.9893 0.1462 642.1902 -402.3844)" fill="none" stroke="#DFFF7F" stroke-width="1.1339" stroke-linecap="round" stroke-linejoin="round" stroke-miterlimit="10" width="86.063" height="31.66"/>
	</g>
	<g id="LWPOLYLINE_5_">
		
			<rect x="544.855" y="147.655" transform="matrix(0.1462 0.9893 -0.9893 0.1462 666.0128 -439.9507)" fill="none" stroke="#DFFF7F" stroke-width="1.1339" stroke-linecap="round" stroke-linejoin="round" stroke-miterlimit="10" width="86.059" height="36.425"/>
	</g>
	<g id="LWPOLYLINE_6_">
		
			<polygon fill="none" stroke="#DFFF7F" stroke-width="1.1339" stroke-linecap="round" stroke-linejoin="round" stroke-miterlimit="10" points="
			612.19,205.771 600.006,123.332 605.127,122.575 604.729,119.881 634.634,115.461 647.217,200.595 		"/>
	</g>
	<g id="LWPOLYLINE_7_">
		
			<polygon fill="none" stroke="#DFFF7F" stroke-width="1.1339" stroke-linecap="round" stroke-linejoin="round" stroke-miterlimit="10" points="
			689.555,256.142 740.816,248.565 740.911,216.111 684.864,224.396 		"/>
	</g>
	<g id="LWPOLYLINE_8_">
		
			<polygon fill="none" stroke="#DFFF7F" stroke-width="1.1339" stroke-linecap="round" stroke-linejoin="round" stroke-miterlimit="10" points="
			684.864,224.395 740.911,216.111 740.994,184.003 705.684,189.222 705.56,188.179 680.068,191.947 		"/>
	</g>
	<g id="LWPOLYLINE_9_">
		
			<polygon fill="none" stroke="#DFFF7F" stroke-width="1.1339" stroke-linecap="round" stroke-linejoin="round" stroke-miterlimit="10" points="
			666.194,265.73 623.58,272.031 617.336,229.788 659.96,223.49 		"/>
	</g>
	<g id="LWPOLYLINE_10_">
		
			<rect x="577.798" y="232.519" transform="matrix(-0.1462 -0.9893 0.9893 -0.1462 435.4299 883.9178)" fill="none" stroke="#DFFF7F" stroke-width="1.1339" stroke-linecap="round" stroke-linejoin="round" stroke-miterlimit="10" width="42.703" height="43.08"/>
	</g>
	<g id="LWPOLYLINE_11_">
		
			<rect x="535.181" y="238.817" transform="matrix(-0.1462 -0.9893 0.9893 -0.1462 380.3258 848.9695)" fill="none" stroke="#DFFF7F" stroke-width="1.1339" stroke-linecap="round" stroke-linejoin="round" stroke-miterlimit="10" width="42.702" height="43.079"/>
	</g>
	<g id="LWPOLYLINE_12_">
		
			<polygon fill="none" stroke="#DFFF7F" stroke-width="1.1339" stroke-linecap="round" stroke-linejoin="round" stroke-miterlimit="10" points="
			531.428,242.484 532.102,242.384 538.341,284.629 495.729,290.923 491.342,261.223 		"/>
	</g>
	<g id="LWPOLYLINE_13_">
		
			<rect x="499.683" y="286.346" transform="matrix(0.1461 0.9893 -0.9893 0.1461 748.6032 -251.5349)" fill="none" stroke="#DFFF7F" stroke-width="1.1339" stroke-linecap="round" stroke-linejoin="round" stroke-miterlimit="10" width="40.654" height="43.072"/>
	</g>
	<g id="LWPOLYLINE_14_">
		
			<polygon fill="none" stroke="#DFFF7F" stroke-width="1.1339" stroke-linecap="round" stroke-linejoin="round" stroke-miterlimit="10" points="
			544.288,324.842 538.349,284.628 580.962,278.331 586.907,318.551 		"/>
	</g>
	<g id="LWPOLYLINE_15_">
		
			<polygon fill="none" stroke="#DFFF7F" stroke-width="1.1339" stroke-linecap="round" stroke-linejoin="round" stroke-miterlimit="10" points="
			586.907,318.551 580.962,278.331 623.562,272.034 629.513,312.245 		"/>
	</g>
	<g id="LWPOLYLINE_16_">
		
			<polygon fill="none" stroke="#DFFF7F" stroke-width="1.1339" stroke-linecap="round" stroke-linejoin="round" stroke-miterlimit="10" points="
			629.804,314.267 623.56,272.034 666.197,265.731 672.44,307.97 		"/>
	</g>
	<g id="LWPOLYLINE_17_">
		
			<polygon fill="none" stroke="#DFFF7F" stroke-width="1.1339" stroke-linecap="round" stroke-linejoin="round" stroke-miterlimit="10" points="
			366.32,285.473 376.454,354.034 422.254,347.265 421.937,345.121 426.314,344.474 416.498,278.057 		"/>
	</g>
	<g id="LWPOLYLINE_18_">
		
			<polygon fill="none" stroke="#DFFF7F" stroke-width="1.1339" stroke-linecap="round" stroke-linejoin="round" stroke-miterlimit="10" points="
			427.841,347.815 426.831,347.965 421.564,312.337 472.991,304.736 478.257,340.363 		"/>
	</g>
	<g id="LWPOLYLINE_19_">
		
			<rect x="418.752" y="274.07" transform="matrix(0.9893 -0.1462 0.1462 0.9893 -37.8252 68.1572)" fill="none" stroke="#DFFF7F" stroke-width="1.1339" stroke-linecap="round" stroke-linejoin="round" stroke-miterlimit="10" width="51.991" height="34.653"/>
	</g>
	<g id="LWPOLYLINE_20_">
		
			<polygon fill="none" stroke="#DFFF7F" stroke-width="1.1339" stroke-linecap="round" stroke-linejoin="round" stroke-miterlimit="10" points="
			183.414,182.152 186.998,206.399 165.444,209.585 173.866,266.566 103.377,276.984 102.293,258.181 101.358,241.962 
			100.61,216.842 101.059,197.078 104.254,196.605 103.856,193.911 		"/>
	</g>
	<g id="LWPOLYLINE_21_">
		
			<polygon fill="none" stroke="#DFFF7F" stroke-width="1.1339" stroke-linecap="round" stroke-linejoin="round" stroke-miterlimit="10" points="
			104.258,292.271 112.703,291.023 113.321,295.199 118.709,294.402 118.092,290.227 151.9,285.229 160.869,345.911 
			107.809,353.753 		"/>
	</g>
	<g id="LWPOLYLINE_22_">
		
			<polygon fill="none" stroke="#DFFF7F" stroke-width="1.1339" stroke-linecap="round" stroke-linejoin="round" stroke-miterlimit="10" points="
			160.869,345.911 166.549,384.508 131.329,389.69 131.096,388.108 125.707,388.904 125.94,390.483 109.988,392.842 
			107.809,353.753 		"/>
	</g>
	<g id="LWPOLYLINE_23_">
		
			<polygon fill="none" stroke="#DFFF7F" stroke-width="1.1339" stroke-linecap="round" stroke-linejoin="round" stroke-miterlimit="10" points="
			181.918,342.111 173.231,283.339 214.182,277.287 222.872,336.075 		"/>
	</g>
	<g id="LWPOLYLINE_24_">
		
			<polygon fill="none" stroke="#DFFF7F" stroke-width="1.1339" stroke-linecap="round" stroke-linejoin="round" stroke-miterlimit="10" points="
			222.737,336.095 228.538,375.346 187.587,381.398 181.918,342.111 		"/>
	</g>
	<g id="LWPOLYLINE_25_">
		
			<polygon fill="none" stroke="#DFFF7F" stroke-width="1.1339" stroke-linecap="round" stroke-linejoin="round" stroke-miterlimit="10" points="
			114.501,487.732 109.087,395.068 108.964,392.975 19.593,406.88 24.375,467.656 24.912,472.504 28.513,500.417 		"/>
	</g>
	<g id="LWPOLYLINE_26_">
		
			<polygon fill="none" stroke="#DFFF7F" stroke-width="1.1339" stroke-linecap="round" stroke-linejoin="round" stroke-miterlimit="10" points="
			242.577,466.142 233.982,407.989 233.383,408.078 230.81,390.564 109.862,408.334 114.5,487.732 139.762,483.999 139.364,481.305 
			144.752,480.509 145.151,483.203 238.18,469.453 237.782,466.759 		"/>
	</g>
	<g id="LWPOLYLINE_27_">
		
			<rect x="231.542" y="412.46" transform="matrix(0.1462 0.9893 -0.9893 0.1462 654.2917 113.2412)" fill="none" stroke="#DFFF7F" stroke-width="1.1339" stroke-linecap="round" stroke-linejoin="round" stroke-miterlimit="10" width="59.999" height="46.43"/>
	</g>
	<g id="LWPOLYLINE_28_">
		
			<polygon fill="none" stroke="#DFFF7F" stroke-width="1.1339" stroke-linecap="round" stroke-linejoin="round" stroke-miterlimit="10" points="
			740.602,324.717 740.402,395.223 719.22,398.354 687.447,332.573 		"/>
	</g>
	<g id="LWPOLYLINE_29_">
		
			<polygon fill="none" stroke="#DFFF7F" stroke-width="1.1339" stroke-linecap="round" stroke-linejoin="round" stroke-miterlimit="10" points="
			687.447,332.573 719.22,398.354 667.998,405.925 657.805,336.955 		"/>
	</g>
	<g id="LWPOLYLINE_30_">
		
			<polygon fill="none" stroke="#DFFF7F" stroke-width="1.1339" stroke-linecap="round" stroke-linejoin="round" stroke-miterlimit="10" points="
			657.805,336.955 667.998,405.925 647.455,408.961 647.058,406.267 641.669,407.063 642.067,409.757 632.975,411.101 
			622.78,342.132 		"/>
	</g>
	<g id="LWPOLYLINE_31_">
		
			<rect x="575.536" y="361.528" transform="matrix(-0.1462 -0.9893 0.9893 -0.1462 324.5238 1038.4821)" fill="none" stroke="#DFFF7F" stroke-width="1.1339" stroke-linecap="round" stroke-linejoin="round" stroke-miterlimit="10" width="69.718" height="35.345"/>
	</g>
	<g id="LWPOLYLINE_32_">
		
			<rect x="542.701" y="368.533" transform="matrix(-0.1462 -0.9893 0.9893 -0.1462 282.0861 1011.5615)" fill="none" stroke="#DFFF7F" stroke-width="1.1339" stroke-linecap="round" stroke-linejoin="round" stroke-miterlimit="10" width="69.719" height="31.039"/>
	</g>
	<g id="LWPOLYLINE_33_">
		
			<polygon fill="none" stroke="#DFFF7F" stroke-width="1.1339" stroke-linecap="round" stroke-linejoin="round" stroke-miterlimit="10" points="
			526.466,356.367 557.111,351.838 567.305,420.807 546.695,423.854 546.297,421.159 540.908,421.956 541.307,424.649 
			536.665,425.336 		"/>
	</g>
	<g id="LWPOLYLINE_34_">
		
			<polygon fill="none" stroke="#DFFF7F" stroke-width="1.1339" stroke-linecap="round" stroke-linejoin="round" stroke-miterlimit="10" points="
			536.665,425.336 504.899,430.031 494.706,361.062 526.465,356.364 		"/>
	</g>
	<g id="LWPOLYLINE_35_">
		
			<rect x="467.87" y="363.032" transform="matrix(0.9892 -0.1463 0.1463 0.9892 -52.9991 75.0698)" fill="none" stroke="#DFFF7F" stroke-width="1.1339" stroke-linecap="round" stroke-linejoin="round" stroke-miterlimit="10" width="32.104" height="69.719"/>
	</g>
	<g id="LWPOLYLINE_36_">
		
			<polygon fill="none" stroke="#DFFF7F" stroke-width="1.1339" stroke-linecap="round" stroke-linejoin="round" stroke-miterlimit="10" points="
			473.14,434.725 444.074,439.021 443.676,436.327 441.025,436.719 431.23,370.443 462.946,365.755 		"/>
	</g>
	<g id="LWPOLYLINE_37_">
		
			<polygon fill="none" stroke="#DFFF7F" stroke-width="1.1339" stroke-linecap="round" stroke-linejoin="round" stroke-miterlimit="10" points="
			441.025,436.719 438.288,437.123 438.687,439.817 407.928,444.363 397.734,375.394 431.23,370.443 		"/>
	</g>
	<g id="LWPOLYLINE_38_">
		
			<rect x="369.197" y="377.491" transform="matrix(0.9893 -0.1462 0.1462 0.9893 -56.143 60.8868)" fill="none" stroke="#DFFF7F" stroke-width="1.1339" stroke-linecap="round" stroke-linejoin="round" stroke-miterlimit="10" width="33.815" height="69.719"/>
	</g>
	<g id="LWPOLYLINE_39_">
		
			<polygon fill="none" stroke="#DFFF7F" stroke-width="1.1339" stroke-linecap="round" stroke-linejoin="round" stroke-miterlimit="10" points="
			374.476,449.308 341.698,454.152 341.299,451.458 340.626,451.558 330.83,385.282 364.282,380.338 		"/>
	</g>
	<g id="LWPOLYLINE_40_">
		
			<polygon fill="none" stroke="#DFFF7F" stroke-width="1.1339" stroke-linecap="round" stroke-linejoin="round" stroke-miterlimit="10" points="
			340.626,451.558 335.911,452.255 336.309,454.949 288.893,461.957 280.12,402.604 280.785,402.448 279.372,392.888 
			330.83,385.282 		"/>
	</g>
</g>
<g id="Areas_x5F_comunes">
	<g id="MTEXT_7_">
		
			<text transform="matrix(0.9903 -0.1391 0.1391 0.9903 265.707 321.8965)" fill="#7FFF9F" font-family="'ArialMT'" font-size="2.8957">ADMINISTRACIÓN</text>
		
			<text transform="matrix(0.9903 -0.1391 0.1391 0.9903 267.9736 325.1426)" fill="#7FFF9F" font-family="'ArialMT'" font-size="2.8957">Área: 18.89m</text>
		
			<text transform="matrix(0.9903 -0.1391 0.1391 0.9903 284.0918 321.6523)" fill="#7FFF9F" font-family="'ArialMT'" font-size="2.027">2</text>
	</g>
	<g id="MTEXT_9_">
		
			<text transform="matrix(0.9903 -0.1391 0.1391 0.9903 372.0332 217.6294)" fill="#7FFF9F" font-family="'ArialMT'" font-size="2.8957">Baño Hombres</text>
		
			<text transform="matrix(0.9903 -0.1391 0.1391 0.9903 373.0303 221.0542)" fill="#7FFF9F" font-family="'ArialMT'" font-size="2.8957">Área: 14.86m</text>
		
			<text transform="matrix(0.9903 -0.1391 0.1391 0.9903 389.1475 217.564)" fill="#7FFF9F" font-family="'ArialMT'" font-size="2.027">2</text>
	</g>
	<g id="MTEXT_10_">
		
			<text transform="matrix(0.9903 -0.1391 0.1391 0.9903 238.1064 188.5483)" fill="#7FFF9F" font-family="'ArialMT'" font-size="2.8957">Bodega Limpieza</text>
		
			<text transform="matrix(0.9903 -0.1391 0.1391 0.9903 238.8008 192.0156)" fill="#7FFF9F" font-family="'ArialMT'" font-size="2.8957">Área: 4.11m</text>
		
			<text transform="matrix(0.9903 -0.1391 0.1391 0.9903 253.4053 188.7383)" fill="#7FFF9F" font-family="'ArialMT'" font-size="2.027">2</text>
	</g>
	<g id="MTEXT_11_">
		
			<text transform="matrix(0.9903 -0.1391 0.1391 0.9903 221.5283 219.9634)" fill="#7FFF9F" font-family="'ArialMT'" font-size="2.8957">Sanitario Mujeres</text>
		
			<text transform="matrix(0.9903 -0.1391 0.1391 0.9903 222.1475 223.4409)" fill="#7FFF9F" font-family="'ArialMT'" font-size="2.8957">Área: 16.79m</text>
		
			<text transform="matrix(0.9903 -0.1391 0.1391 0.9903 238.2646 219.9512)" fill="#7FFF9F" font-family="'ArialMT'" font-size="2.027">2</text>
	</g>
	<g id="MTEXT_12_">
		
			<text transform="matrix(0.9903 -0.1391 0.1391 0.9903 335.9063 199.2217)" fill="#7FFF9F" font-family="'ArialMT'" font-size="2.8957">Sanitario</text>
		
			<text transform="matrix(0.9903 -0.1391 0.1391 0.9903 336.2695 202.4844)" fill="#7FFF9F" font-family="'ArialMT'" font-size="2.8957">Hombres</text>
		
			<text transform="matrix(0.9903 -0.1391 0.1391 0.9903 336.9824 205.9487)" fill="#7FFF9F" font-family="'ArialMT'" font-size="2.8957">Área: 18.98m</text>
		
			<text transform="matrix(0.9903 -0.1391 0.1391 0.9903 353.0996 202.459)" fill="#7FFF9F" font-family="'ArialMT'" font-size="2.027">2</text>
	</g>
	<g id="MTEXT_33_">
		
			<text transform="matrix(0.9903 -0.1391 0.1391 0.9903 260.8604 344.085)" fill="#7FFF9F" font-family="'ArialMT'" font-size="2.8957">GERENTE</text>
		
			<text transform="matrix(0.9903 -0.1391 0.1391 0.9903 259.3086 347.8672)" fill="#7FFF9F" font-family="'ArialMT'" font-size="2.8957">Área: 13.98m</text>
		
			<text transform="matrix(0.9903 -0.1391 0.1391 0.9903 275.4258 344.377)" fill="#7FFF9F" font-family="'ArialMT'" font-size="2.027">2</text>
	</g>
	<g id="LWPOLYLINE_41_">
		
			<polygon fill="none" stroke="#26264C" stroke-width="1.1339" stroke-linecap="round" stroke-linejoin="round" stroke-miterlimit="10" points="
			19.547,404.806 107.846,391.083 98.39,225.965 98.866,197.402 98.468,194.708 2.412,208.917 12.59,277.72 14.536,337.62 		"/>
	</g>
	<g id="LWPOLYLINE_42_">
		
			<polygon fill="none" stroke="#26264C" stroke-width="1.1339" stroke-linecap="round" stroke-linejoin="round" stroke-miterlimit="10" points="
			187.196,207.747 193.568,250.853 173.397,254.08 166.991,210.733 		"/>
	</g>
	<g id="LWPOLYLINE_43_">
		
			<polygon fill="none" stroke="#26264C" stroke-width="1.1339" stroke-linecap="round" stroke-linejoin="round" stroke-miterlimit="10" points="
			245.568,336.9 319.581,325.961 324.541,359.517 319.152,360.313 319.27,361.107 250.645,371.25 		"/>
	</g>
	<g id="LWPOLYLINE_44_">
		
			<polygon fill="none" stroke="#26264C" stroke-width="1.1339" stroke-linecap="round" stroke-linejoin="round" stroke-miterlimit="10" points="
			243.098,278.767 237.106,279.652 245.568,336.9 319.581,325.961 314.399,292.321 		"/>
	</g>
	<g id="LWPOLYLINE_45_">
		
			<polygon fill="none" stroke="#26264C" stroke-width="1.1339" stroke-linecap="round" stroke-linejoin="round" stroke-miterlimit="10" points="
			364.191,285.044 316.645,292.126 320.962,321.336 368.513,314.28 		"/>
	</g>
	<g id="LWPOLYLINE_46_">
		
			<polygon fill="none" stroke="#26264C" stroke-width="1.1339" stroke-linecap="round" stroke-linejoin="round" stroke-miterlimit="10" points="
			368.513,314.28 374.433,354.333 326.878,361.361 320.962,321.336 		"/>
	</g>
	<g id="LWPOLYLINE_47_">
		
			<polygon fill="none" stroke="#26264C" stroke-width="1.1339" stroke-linecap="round" stroke-linejoin="round" stroke-miterlimit="10" points="
			703.018,305.082 735.347,300.304 734.152,292.222 732.36,280.098 731.166,272.016 730.568,267.975 728.179,251.81 695.85,256.588 
					"/>
	</g>
	<g id="LWPOLYLINE_48_">
		
			<polygon fill="none" stroke="#26264C" stroke-width="1.1339" stroke-linecap="round" stroke-linejoin="round" stroke-miterlimit="10" points="
			643.785,163.408 640.039,138.063 639.365,138.162 635.98,115.262 741.235,99.705 741.004,181.937 706.059,187.102 701.3,154.907 
					"/>
	</g>
	<g id="LINE">
		
			<line fill="none" stroke="#26264C" stroke-width="1.1339" stroke-linecap="round" stroke-linejoin="round" stroke-miterlimit="10" x1="409.928" y1="252.875" x2="411.949" y2="252.576"/>
	</g>
	<g id="LWPOLYLINE_49_">
		
			<polygon fill="none" stroke="#26264C" stroke-width="1.1339" stroke-linecap="round" stroke-linejoin="round" stroke-miterlimit="10" points="
			438.89,248.594 410.938,252.725 396.357,153.432 399.052,153.036 398.656,150.339 423.818,146.62 		"/>
	</g>
	<g id="LWPOLYLINE_50_">
		
			<polygon fill="none" stroke="#26264C" stroke-width="1.1339" stroke-linecap="round" stroke-linejoin="round" stroke-miterlimit="10" points="
			400.192,188.091 356.365,194.697 351.152,159.425 395.155,152.921 		"/>
	</g>
	<g id="LWPOLYLINE_51_">
		
			<polygon fill="none" stroke="#26264C" stroke-width="1.1339" stroke-linecap="round" stroke-linejoin="round" stroke-miterlimit="10" points="
			400.667,190.214 356.664,196.718 358.643,210.108 359.99,209.909 367.292,259.313 409.948,253.009 		"/>
	</g>
	<g id="LWPOLYLINE_52_">
		
			<rect x="311.716" y="230.604" transform="matrix(-0.9893 0.1462 -0.1462 -0.9893 679.0161 441.4044)" fill="none" stroke="#26264C" stroke-width="1.1339" stroke-linecap="round" stroke-linejoin="round" stroke-miterlimit="10" width="23.148" height="30.093"/>
	</g>
	<g id="LWPOLYLINE_53_">
		
			<polygon fill="none" stroke="#26264C" stroke-width="1.1339" stroke-linecap="round" stroke-linejoin="round" stroke-miterlimit="10" points="
			335.668,235.924 361.212,232.148 358.168,211.555 339.31,214.342 339.111,212.995 356.622,210.407 348.833,157.703 
			299.666,164.97 309.342,230.438 334.266,226.78 		"/>
	</g>
	<g id="LWPOLYLINE_54_">
		
			<rect x="259.452" y="189.422" transform="matrix(-0.1462 -0.9893 0.9893 -0.1462 137.9872 518.0347)" fill="none" stroke="#26264C" stroke-width="1.1339" stroke-linecap="round" stroke-linejoin="round" stroke-miterlimit="10" width="66.179" height="20.099"/>
	</g>
	<g id="LWPOLYLINE_55_">
		
			<polygon fill="none" stroke="#26264C" stroke-width="1.1339" stroke-linecap="round" stroke-linejoin="round" stroke-miterlimit="10" points="
			248.8,172.488 275.741,168.506 285.955,237.61 258.34,241.692 		"/>
	</g>
	<g id="LWPOLYLINE_56_">
		
			<rect x="221.025" y="180.923" transform="matrix(-0.1462 -0.9893 0.9893 -0.1462 83.7901 455.8666)" fill="none" stroke="#26264C" stroke-width="1.1339" stroke-linecap="round" stroke-linejoin="round" stroke-miterlimit="10" width="35.181" height="21.705"/>
	</g>
	<g id="LWPOLYLINE_57_">
		
			<polygon fill="none" stroke="#26264C" stroke-width="1.1339" stroke-linecap="round" stroke-linejoin="round" stroke-miterlimit="10" points="
			195.793,249.147 229.793,244.122 227.186,226.481 228.533,226.282 229.937,235.779 255.529,231.987 252.125,208.954 
			229.307,212.327 223.96,176.16 185.838,181.794 		"/>
	</g>
	<g id="MTEXT_47_">
		
			<text transform="matrix(0.9912 -0.1326 0.1326 0.9912 52.6631 301.1855)" fill="#7FFF9F" font-family="'ArialMT'" font-size="2.8957">AZOTEA</text>
		
			<text transform="matrix(0.9912 -0.1326 0.1326 0.9912 53.1338 304.7012)" fill="#7FFF9F" font-family="'ArialMT'" font-size="2.8957">Área: 95.96m</text>
		
			<text transform="matrix(0.9912 -0.1326 0.1326 0.9912 69.2734 301.3154)" fill="#7FFF9F" font-family="'ArialMT'" font-size="2.027">2</text>
	</g>
	<g id="MTEXT_48_">
		
			<text transform="matrix(0.9903 -0.1391 0.1391 0.9903 171.0273 231.5728)" fill="#7FFF9F" font-family="'ArialMT'" font-size="2.8957">ESCALERAS</text>
		
			<text transform="matrix(0.9903 -0.1391 0.1391 0.9903 171.7373 235.0376)" fill="#7FFF9F" font-family="'ArialMT'" font-size="2.8957">Área: 4.81m</text>
		
			<text transform="matrix(0.9903 -0.1391 0.1391 0.9903 186.3418 231.7603)" fill="#7FFF9F" font-family="'ArialMT'" font-size="2.027">2</text>
	</g>
	<g id="MTEXT_49_">
		
			<text transform="matrix(0.9903 -0.1391 0.1391 0.9903 266.5293 194.043)" fill="#7FFF9F" font-family="'ArialMT'" font-size="2.8957">ESCALERAS</text>
		
			<text transform="matrix(0.9903 -0.1391 0.1391 0.9903 267.2412 197.5244)" fill="#7FFF9F" font-family="'ArialMT'" font-size="2.8957">Área: 10.38m</text>
		
			<text transform="matrix(0.9903 -0.1391 0.1391 0.9903 283.3584 194.0347)" fill="#7FFF9F" font-family="'ArialMT'" font-size="2.027">2</text>
	</g>
	<g id="MTEXT_50_">
		
			<text transform="matrix(0.9903 -0.1391 0.1391 0.9903 293.0898 200.6201)" fill="#7FFF9F" font-family="'ArialMT'" font-size="2.8957">VACIO</text>
		
			<text transform="matrix(0.9903 -0.1391 0.1391 0.9903 293.5967 204.1138)" fill="#7FFF9F" font-family="'ArialMT'" font-size="2.8957">Área: 7.17m</text>
		
			<text transform="matrix(0.9903 -0.1391 0.1391 0.9903 308.2012 200.8364)" fill="#7FFF9F" font-family="'ArialMT'" font-size="2.027">2</text>
	</g>
	<g id="MTEXT_51_">
		
			<text transform="matrix(0.9903 -0.1391 0.1391 0.9903 716.1553 282.1738)" fill="#7FFF9F" font-family="'ArialMT'" font-size="2.8957">Área: 8.64m</text>
		
			<text transform="matrix(0.9903 -0.1391 0.1391 0.9903 730.7598 278.8965)" fill="#7FFF9F" font-family="'ArialMT'" font-size="2.027">2</text>
	</g>
	<g id="MTEXT_52_">
		
			<text transform="matrix(0.9903 -0.1391 0.1391 0.9903 315.7432 246.8076)" fill="#7FFF9F" font-family="'ArialMT'" font-size="2.8957">ELEVADOR</text>
		
			<text transform="matrix(0.9903 -0.1391 0.1391 0.9903 316.4531 250.2729)" fill="#7FFF9F" font-family="'ArialMT'" font-size="2.8957">Área: 3.75m</text>
		
			<text transform="matrix(0.9903 -0.1391 0.1391 0.9903 331.0576 246.9951)" fill="#7FFF9F" font-family="'ArialMT'" font-size="2.027">2</text>
	</g>
	<g id="MTEXT_53_">
		
			<text transform="matrix(0.9903 -0.1391 0.1391 0.9903 368.1025 172.1753)" fill="#7FFF9F" font-family="'ArialMT'" font-size="2.8957">MONTACARGAS</text>
		
			<text transform="matrix(0.9903 -0.1391 0.1391 0.9903 368.8008 175.6421)" fill="#7FFF9F" font-family="'ArialMT'" font-size="2.8957">Área: 8.52m</text>
		
			<text transform="matrix(0.9903 -0.1391 0.1391 0.9903 383.4053 172.3643)" fill="#7FFF9F" font-family="'ArialMT'" font-size="2.027">2</text>
	</g>
	<g id="MTEXT_54_">
		
			<text transform="matrix(0.9903 -0.1391 0.1391 0.9903 696.9805 130.5303)" fill="#7FFF9F" font-family="'ArialMT'" font-size="2.8957">CUARTO DE </text>
		
			<text transform="matrix(0.9903 -0.1391 0.1391 0.9903 697.582 133.7935)" fill="#7FFF9F" font-family="'ArialMT'" font-size="2.8957">AIRES LAVADOS</text>
		
			<text transform="matrix(0.9903 -0.1391 0.1391 0.9903 698.0732 137.2891)" fill="#7FFF9F" font-family="'ArialMT'" font-size="2.8957">Área: 33.55m</text>
		
			<text transform="matrix(0.9903 -0.1391 0.1391 0.9903 714.1904 133.7993)" fill="#7FFF9F" font-family="'ArialMT'" font-size="2.027">2</text>
	</g>
	<g id="MTEXT_55_">
		
			<text transform="matrix(0.9903 -0.1391 0.1391 0.9903 339.3242 302.9727)" fill="#7FFF9F" font-family="'ArialMT'" font-size="2.8957">SOPORTE TÉCNICO</text>
		
			<text transform="matrix(0.9903 -0.1391 0.1391 0.9903 339.9443 306.4492)" fill="#7FFF9F" font-family="'ArialMT'" font-size="2.8957">Área: 7.65m</text>
		
			<text transform="matrix(0.9903 -0.1391 0.1391 0.9903 354.5488 303.1719)" fill="#7FFF9F" font-family="'ArialMT'" font-size="2.027">2</text>
	</g>
	<g id="MTEXT_56_">
		
			<text transform="matrix(0.9903 -0.1391 0.1391 0.9903 345.708 332.5332)" fill="#7FFF9F" font-family="'ArialMT'" font-size="2.8957">COMEDOR</text>
		
			<text transform="matrix(0.9903 -0.1391 0.1391 0.9903 346.3389 336.0098)" fill="#7FFF9F" font-family="'ArialMT'" font-size="2.8957">Área: 10.49m</text>
		
			<text transform="matrix(0.9903 -0.1391 0.1391 0.9903 362.4561 332.5195)" fill="#7FFF9F" font-family="'ArialMT'" font-size="2.027">2</text>
	</g>
	<g id="MTEXT_57_">
		
			<text transform="matrix(0.9903 -0.1391 0.1391 0.9903 418.417 195.5112)" fill="#7FFF9F" font-family="'ArialMT'" font-size="2.8957">Área: 15.64m</text>
		
			<text transform="matrix(0.9903 -0.1391 0.1391 0.9903 434.5352 192.0215)" fill="#7FFF9F" font-family="'ArialMT'" font-size="2.027">2</text>
	</g>
	<g id="MTEXT_58_">
		
			<text transform="matrix(0.9903 -0.139 0.139 0.9903 460.8408 354.4219)" fill="#7FFF9F" font-family="'ArialMT'" font-size="2.8957">CIRCULACIÓN</text>
		
			<text transform="matrix(0.9903 -0.139 0.139 0.9903 461.5068 358.1426)" fill="#7FFF9F" font-family="'ArialMT'" font-size="2.8957">Área: 215.42m</text>
		
			<text transform="matrix(0.9903 -0.139 0.139 0.9903 479.1377 354.4414)" fill="#7FFF9F" font-family="'ArialMT'" font-size="2.027">2</text>
	</g>
	<g id="MTEXT_59_">
		
			<text transform="matrix(0.9903 -0.139 0.139 0.9903 595.6152 217.9092)" fill="#7FFF9F" font-family="'ArialMT'" font-size="2.8957">CIRCULACIÓN</text>
		
			<text transform="matrix(0.9903 -0.139 0.139 0.9903 596.2813 221.6309)" fill="#7FFF9F" font-family="'ArialMT'" font-size="2.8957">Área: 215.42m</text>
		
			<text transform="matrix(0.9903 -0.139 0.139 0.9903 613.9121 217.9297)" fill="#7FFF9F" font-family="'ArialMT'" font-size="2.027">2</text>
	</g>
	<g id="MTEXT_60_">
		
			<text transform="matrix(0.9903 -0.139 0.139 0.9903 227.2295 264.4341)" fill="#7FFF9F" font-family="'ArialMT'" font-size="2.8957">CIRCULACIÓN</text>
		
			<text transform="matrix(0.9903 -0.139 0.139 0.9903 227.8945 268.1558)" fill="#7FFF9F" font-family="'ArialMT'" font-size="2.8957">Área: 215.42m</text>
		
			<text transform="matrix(0.9903 -0.139 0.139 0.9903 245.5254 264.4546)" fill="#7FFF9F" font-family="'ArialMT'" font-size="2.027">2</text>
	</g>
</g>
<g id="_x30_">
</g>
</svg>
