<?xml version="1.0" encoding="utf-8"?>
<!-- Generator: Adobe Illustrator 16.0.0, SVG Export Plug-In . SVG Version: 6.00 Build 0)  -->
<!DOCTYPE svg PUBLIC "-//W3C//DTD SVG 1.1//EN" "http://www.w3.org/Graphics/SVG/1.1/DTD/svg11.dtd">
<svg version="1.1" xmlns="http://www.w3.org/2000/svg" xmlns:xlink="http://www.w3.org/1999/xlink" x="0px" y="0px" width="800px"
	 height="600px" viewBox="0 0 800 600" enable-background="new 0 0 800 600" xml:space="preserve">
<g id="ÁREAS_COMUNES">
	<g id="LWPOLYLINE">
		
			<path fill="none" stroke="#00FF3F" stroke-width="1.1339" stroke-linecap="round" stroke-linejoin="round" stroke-miterlimit="10" d="
			M693.23,378.274l-0.321-21.146l-1.454-95.935l-9.566-0.347l-0.091,2.344l1.224,0.047l-0.011,0.28l-2.727-0.105l0.011-0.28
			l1.224,0.047l0.091-2.343l-78.044-2.83l-0.092,2.384l1.225,0.047l-0.012,0.279l-2.726-0.105l0.01-0.279l1.224,0.047l0.092-2.384
			l-118.54-4.298l-0.091,2.384l1.223,0.047l-0.01,0.279l-2.727-0.104l0.011-0.28l1.224,0.047l0.091-2.383l-13.095-0.475
			l-0.111,1.395l-19.04-1.517l-1.442,18.105l-9.964-0.794c-0.877,6.424-6.485,11.134-12.964,10.884l-0.005,0.057l-0.518-0.041
			l0.952-11.898l-11.563-0.921l-0.282,3.532l-178.22-14.196l-1.066,13.393l-0.55-0.044l0.005-0.061
			c-7.004-0.85-12.146-6.99-11.752-14.035l-7.807-0.437l-98.695-5.517l-3.154-0.177l-78.96,314.826l22.539,19.897h622.323
			l15.035-15.949l-0.986-65.054l-0.327-21.606L693.23,378.274z"/>
	</g>
	<g id="LWPOLYLINE_39_">
		
			<rect x="285.837" y="106.327" transform="matrix(0.9968 0.0794 -0.0794 0.9968 9.998 -22.4636)" fill="none" stroke="#00FF3F" stroke-width="1.1339" stroke-linecap="round" stroke-linejoin="round" stroke-miterlimit="10" width="3.358" height="16.367"/>
	</g>
	<g id="LWPOLYLINE_40_">
		
			<rect x="282.49" y="106.06" transform="matrix(0.9968 0.0794 -0.0794 0.9968 9.9662 -22.1987)" fill="none" stroke="#00FF3F" stroke-width="1.1339" stroke-linecap="round" stroke-linejoin="round" stroke-miterlimit="10" width="3.358" height="16.365"/>
	</g>
	<g id="LWPOLYLINE_41_">
		
			<rect x="279.142" y="105.793" transform="matrix(0.9968 0.0795 -0.0795 0.9968 9.9557 -21.9762)" fill="none" stroke="#00FF3F" stroke-width="1.1339" stroke-linecap="round" stroke-linejoin="round" stroke-miterlimit="10" width="3.358" height="16.363"/>
	</g>
	<g id="LWPOLYLINE_42_">
		
			<rect x="275.795" y="105.527" transform="matrix(0.9969 0.0792 -0.0792 0.9969 9.883 -21.6301)" fill="none" stroke="#00FF3F" stroke-width="1.1339" stroke-linecap="round" stroke-linejoin="round" stroke-miterlimit="10" width="3.358" height="16.361"/>
	</g>
	<g id="LWPOLYLINE_43_">
		
			<rect x="272.447" y="105.26" transform="matrix(0.9968 0.0795 -0.0795 0.9968 9.8888 -21.4393)" fill="none" stroke="#00FF3F" stroke-width="1.1339" stroke-linecap="round" stroke-linejoin="round" stroke-miterlimit="10" width="3.359" height="16.359"/>
	</g>
	<g id="LWPOLYLINE_44_">
		
			<rect x="269.099" y="104.993" transform="matrix(0.9969 0.0792 -0.0792 0.9969 9.8195 -21.1013)" fill="none" stroke="#00FF3F" stroke-width="1.1339" stroke-linecap="round" stroke-linejoin="round" stroke-miterlimit="10" width="3.358" height="16.357"/>
	</g>
	<g id="LWPOLYLINE_45_">
		
			<rect x="265.752" y="104.727" transform="matrix(0.9968 0.0795 -0.0795 0.9968 9.8266 -20.9115)" fill="none" stroke="#00FF3F" stroke-width="1.1339" stroke-linecap="round" stroke-linejoin="round" stroke-miterlimit="10" width="3.358" height="16.355"/>
	</g>
	<g id="LWPOLYLINE_46_">
		
			<rect x="262.404" y="104.46" transform="matrix(0.9968 0.0794 -0.0794 0.9968 9.7753 -20.6093)" fill="none" stroke="#00FF3F" stroke-width="1.1339" stroke-linecap="round" stroke-linejoin="round" stroke-miterlimit="10" width="3.358" height="16.353"/>
	</g>
	<g id="LWPOLYLINE_47_">
		
			<rect x="259.057" y="104.193" transform="matrix(0.9968 0.0794 -0.0794 0.9968 9.7451 -20.3472)" fill="none" stroke="#00FF3F" stroke-width="1.1339" stroke-linecap="round" stroke-linejoin="round" stroke-miterlimit="10" width="3.358" height="16.351"/>
	</g>
	<g id="LWPOLYLINE_48_">
		
			<rect x="255.709" y="103.927" transform="matrix(0.9968 0.0794 -0.0794 0.9968 9.7117 -20.0795)" fill="none" stroke="#00FF3F" stroke-width="1.1339" stroke-linecap="round" stroke-linejoin="round" stroke-miterlimit="10" width="3.358" height="16.35"/>
	</g>
	<g id="LWPOLYLINE_49_">
		
			<rect x="252.361" y="103.66" transform="matrix(0.9968 0.0794 -0.0794 0.9968 9.6799 -19.8145)" fill="none" stroke="#00FF3F" stroke-width="1.1339" stroke-linecap="round" stroke-linejoin="round" stroke-miterlimit="10" width="3.358" height="16.348"/>
	</g>
	<g id="LWPOLYLINE_50_">
		
			<rect x="254.382" y="120.225" transform="matrix(0.9968 0.08 -0.08 0.9968 11.1159 -20.0636)" fill="none" stroke="#00FF3F" stroke-width="1.1339" stroke-linecap="round" stroke-linejoin="round" stroke-miterlimit="10" width="3.358" height="17.062"/>
	</g>
	<g id="LWPOLYLINE_51_">
		
			<rect x="257.73" y="120.493" transform="matrix(0.9968 0.08 -0.08 0.9968 11.1481 -20.3304)" fill="none" stroke="#00FF3F" stroke-width="1.1339" stroke-linecap="round" stroke-linejoin="round" stroke-miterlimit="10" width="3.358" height="17.062"/>
	</g>
	<g id="LWPOLYLINE_52_">
		
			<rect x="261.078" y="120.762" transform="matrix(0.9968 0.08 -0.08 0.9968 11.1803 -20.5973)" fill="none" stroke="#00FF3F" stroke-width="1.1339" stroke-linecap="round" stroke-linejoin="round" stroke-miterlimit="10" width="3.358" height="17.062"/>
	</g>
	<g id="LWPOLYLINE_53_">
		
			<rect x="264.425" y="121.03" transform="matrix(0.9968 0.08 -0.08 0.9968 11.2142 -20.867)" fill="none" stroke="#00FF3F" stroke-width="1.1339" stroke-linecap="round" stroke-linejoin="round" stroke-miterlimit="10" width="3.358" height="17.062"/>
	</g>
	<g id="LWPOLYLINE_54_">
		
			<rect x="267.772" y="121.299" transform="matrix(0.9968 0.08 -0.08 0.9968 11.2447 -21.1309)" fill="none" stroke="#00FF3F" stroke-width="1.1339" stroke-linecap="round" stroke-linejoin="round" stroke-miterlimit="10" width="3.358" height="17.062"/>
	</g>
	<g id="LWPOLYLINE_55_">
		
			<rect x="271.12" y="121.567" transform="matrix(0.9968 0.08 -0.08 0.9968 11.2786 -21.4007)" fill="none" stroke="#00FF3F" stroke-width="1.1339" stroke-linecap="round" stroke-linejoin="round" stroke-miterlimit="10" width="3.358" height="17.062"/>
	</g>
	<g id="LWPOLYLINE_56_">
		
			<rect x="274.467" y="121.836" transform="matrix(0.9968 0.08 -0.08 0.9968 11.3091 -21.6645)" fill="none" stroke="#00FF3F" stroke-width="1.1339" stroke-linecap="round" stroke-linejoin="round" stroke-miterlimit="10" width="3.358" height="17.062"/>
	</g>
	<g id="LWPOLYLINE_57_">
		
			<rect x="277.815" y="122.104" transform="matrix(0.9968 0.08 -0.08 0.9968 11.3412 -21.9314)" fill="none" stroke="#00FF3F" stroke-width="1.1339" stroke-linecap="round" stroke-linejoin="round" stroke-miterlimit="10" width="3.358" height="17.062"/>
	</g>
	<g id="LWPOLYLINE_58_">
		
			<rect x="281.162" y="122.373" transform="matrix(0.9968 0.08 -0.08 0.9968 11.3735 -22.1982)" fill="none" stroke="#00FF3F" stroke-width="1.1339" stroke-linecap="round" stroke-linejoin="round" stroke-miterlimit="10" width="3.358" height="17.062"/>
	</g>
	<g id="LWPOLYLINE_59_">
		
			<rect x="284.51" y="122.642" transform="matrix(0.9968 0.0801 -0.0801 0.9968 11.4279 -22.5049)" fill="none" stroke="#00FF3F" stroke-width="1.1339" stroke-linecap="round" stroke-linejoin="round" stroke-miterlimit="10" width="3.358" height="17.062"/>
	</g>
	<g id="LWPOLYLINE_60_">
		
			<rect x="287.858" y="122.91" transform="matrix(0.9968 0.0797 -0.0797 0.9968 11.3949 -22.6544)" fill="none" stroke="#00FF3F" stroke-width="1.1339" stroke-linecap="round" stroke-linejoin="round" stroke-miterlimit="10" width="3.358" height="17.061"/>
	</g>
	<g id="LWPOLYLINE_61_">
		
			<polygon fill="none" stroke="#00FF3F" stroke-width="1.1339" stroke-linecap="round" stroke-linejoin="round" stroke-miterlimit="10" points="
			312.233,108.27 289.84,106.486 288.541,122.803 291.888,123.071 290.533,140.079 309.375,141.591 		"/>
	</g>
	<g id="INSERT_1_">
		<g id="LINE">
			
				<line fill="none" stroke="#00FF3F" stroke-width="1.1339" stroke-linecap="round" stroke-linejoin="round" stroke-miterlimit="10" x1="105.477" y1="226.412" x2="115.689" y2="185.695"/>
		</g>
		<g id="LINE_1_">
			
				<line fill="none" stroke="#FFFF00" stroke-width="1.1339" stroke-linecap="round" stroke-linejoin="round" stroke-miterlimit="10" x1="94.619" y1="223.688" x2="105.477" y2="226.412"/>
		</g>
		<g id="LWPOLYLINE_62_">
			
				<polyline fill="none" stroke="#00FF3F" stroke-width="1.1339" stroke-linecap="round" stroke-linejoin="round" stroke-miterlimit="10" points="
				101.583,197.651 95.027,223.791 94.619,223.688 101.241,197.286 			"/>
		</g>
		<g id="LWPOLYLINE_63_">
			
				<polyline fill="none" stroke="#00FF3F" stroke-width="1.1339" stroke-linecap="round" stroke-linejoin="round" stroke-miterlimit="10" points="
				101.26,197.212 103.81,187.043 104.217,187.146 101.621,197.496 			"/>
		</g>
		<g id="LWPOLYLINE_64_">
			
				<polyline fill="none" stroke="#00FF3F" stroke-width="1.1339" stroke-linecap="round" stroke-linejoin="round" stroke-miterlimit="10" points="
				110.808,203.431 114.261,189.664 114.668,189.766 105.477,226.412 105.07,226.31 110.77,203.581 			"/>
		</g>
		<g id="LWPOLYLINE_65_">
			
				<polyline fill="none" stroke="#00FF3F" stroke-width="1.1339" stroke-linecap="round" stroke-linejoin="round" stroke-miterlimit="10" points="
				111.399,202.8 115.689,185.695 116.096,185.797 112.108,201.696 			"/>
		</g>
		<g id="LWPOLYLINE_66_">
			
				<polyline fill="none" stroke="#00FF3F" stroke-width="1.1339" stroke-linecap="round" stroke-linejoin="round" stroke-miterlimit="10" points="
				112.108,201.696 106.905,222.442 106.498,222.34 111.359,202.96 			"/>
		</g>
		<g id="LWPOLYLINE_67_">
			
				<line fill="none" stroke="#00FF3F" stroke-width="1.1339" stroke-linecap="round" stroke-linejoin="round" stroke-miterlimit="10" x1="126.547" y1="188.418" x2="119.894" y2="214.942"/>
		</g>
		<g id="LWPOLYLINE_68_">
			
				<polyline fill="none" stroke="#00FF3F" stroke-width="1.1339" stroke-linecap="round" stroke-linejoin="round" stroke-miterlimit="10" points="
				119.894,214.942 117.356,225.063 116.949,224.961 119.532,214.663 			"/>
		</g>
		<g id="LWPOLYLINE_69_">
			
				<polyline fill="none" stroke="#00FF3F" stroke-width="1.1339" stroke-linecap="round" stroke-linejoin="round" stroke-miterlimit="10" points="
				119.554,214.577 126.14,188.316 126.547,188.418 			"/>
		</g>
		<g id="LWPOLYLINE_70_">
			
				<rect x="106.63" y="185.263" transform="matrix(0.2435 -0.9699 0.9699 0.2435 -102.4536 249.5318)" fill="none" stroke="#00FF3F" stroke-width="1.1339" stroke-linecap="round" stroke-linejoin="round" stroke-miterlimit="10" width="4.198" height="10.356"/>
		</g>
		<g id="LWPOLYLINE_71_">
			
				<rect x="105.608" y="189.335" transform="matrix(0.2431 -0.97 0.97 0.2431 -107.1528 251.7058)" fill="none" stroke="#00FF3F" stroke-width="1.1339" stroke-linecap="round" stroke-linejoin="round" stroke-miterlimit="10" width="4.198" height="10.354"/>
		</g>
		<g id="LWPOLYLINE_72_">
			
				<rect x="104.587" y="193.407" transform="matrix(0.2432 -0.97 0.97 0.2432 -111.8848 253.7606)" fill="none" stroke="#00FF3F" stroke-width="1.1339" stroke-linecap="round" stroke-linejoin="round" stroke-miterlimit="10" width="4.197" height="10.354"/>
		</g>
		<g id="LWPOLYLINE_73_">
			
				<rect x="103.566" y="197.478" transform="matrix(0.2434 -0.9699 0.9699 0.2434 -116.617 255.8078)" fill="none" stroke="#00FF3F" stroke-width="1.1339" stroke-linecap="round" stroke-linejoin="round" stroke-miterlimit="10" width="4.198" height="10.355"/>
		</g>
		<g id="LWPOLYLINE_74_">
			
				<rect x="102.544" y="201.55" transform="matrix(0.2431 -0.97 0.97 0.2431 -121.322 257.9738)" fill="none" stroke="#00FF3F" stroke-width="1.1339" stroke-linecap="round" stroke-linejoin="round" stroke-miterlimit="10" width="4.198" height="10.355"/>
		</g>
		<g id="LWPOLYLINE_75_">
			
				<rect x="101.523" y="205.622" transform="matrix(0.2432 -0.97 0.97 0.2432 -126.0497 260.0392)" fill="none" stroke="#00FF3F" stroke-width="1.1339" stroke-linecap="round" stroke-linejoin="round" stroke-miterlimit="10" width="4.198" height="10.354"/>
		</g>
		<g id="LWPOLYLINE_76_">
			
				<rect x="100.503" y="209.693" transform="matrix(0.2435 -0.9699 0.9699 0.2435 -130.7837 262.0713)" fill="none" stroke="#00FF3F" stroke-width="1.1339" stroke-linecap="round" stroke-linejoin="round" stroke-miterlimit="10" width="4.198" height="10.355"/>
		</g>
		<g id="LWPOLYLINE_77_">
			
				<rect x="99.481" y="213.765" transform="matrix(0.2432 -0.97 0.97 0.2432 -135.4946 264.2207)" fill="none" stroke="#00FF3F" stroke-width="1.1339" stroke-linecap="round" stroke-linejoin="round" stroke-miterlimit="10" width="4.198" height="10.355"/>
		</g>
		<g id="LWPOLYLINE_78_">
			
				<rect x="98.46" y="217.837" transform="matrix(0.2431 -0.97 0.97 0.2431 -140.2104 266.3456)" fill="none" stroke="#00FF3F" stroke-width="1.1339" stroke-linecap="round" stroke-linejoin="round" stroke-miterlimit="10" width="4.198" height="10.354"/>
		</g>
		<g id="LWPOLYLINE_79_">
			
				<rect x="110.339" y="216.489" transform="matrix(0.2433 -0.9699 0.9699 0.2433 -129.925 276.7863)" fill="none" stroke="#00FF3F" stroke-width="1.1339" stroke-linecap="round" stroke-linejoin="round" stroke-miterlimit="10" width="4.198" height="10.354"/>
		</g>
		<g id="LWPOLYLINE_80_">
			
				<rect x="111.36" y="212.417" transform="matrix(0.2432 -0.97 0.97 0.2432 -125.1966 274.723)" fill="none" stroke="#00FF3F" stroke-width="1.1339" stroke-linecap="round" stroke-linejoin="round" stroke-miterlimit="10" width="4.198" height="10.355"/>
		</g>
		<g id="LWPOLYLINE_81_">
			
				<polyline fill="none" stroke="#00FF3F" stroke-width="1.1339" stroke-linecap="round" stroke-linejoin="round" stroke-miterlimit="10" points="
				119.565,214.532 120.012,212.746 109.969,210.227 108.948,214.299 118.991,216.818 119.532,214.663 			"/>
		</g>
		<g id="LWPOLYLINE_82_">
			
				<rect x="113.402" y="204.274" transform="matrix(0.2434 -0.9699 0.9699 0.2434 -115.761 270.5085)" fill="none" stroke="#00FF3F" stroke-width="1.1339" stroke-linecap="round" stroke-linejoin="round" stroke-miterlimit="10" width="4.197" height="10.355"/>
		</g>
		<g id="LWPOLYLINE_83_">
			
				<rect x="114.424" y="200.202" transform="matrix(0.2433 -0.9699 0.9699 0.2433 -111.0367 268.4251)" fill="none" stroke="#00FF3F" stroke-width="1.1339" stroke-linecap="round" stroke-linejoin="round" stroke-miterlimit="10" width="4.198" height="10.355"/>
		</g>
		<g id="LWPOLYLINE_84_">
			
				<rect x="115.445" y="196.131" transform="matrix(0.2431 -0.97 0.97 0.2431 -106.3007 266.3846)" fill="none" stroke="#00FF3F" stroke-width="1.1339" stroke-linecap="round" stroke-linejoin="round" stroke-miterlimit="10" width="4.198" height="10.354"/>
		</g>
		<g id="LWPOLYLINE_85_">
			
				<rect x="116.466" y="192.059" transform="matrix(0.2433 -0.9699 0.9699 0.2433 -101.5932 264.2437)" fill="none" stroke="#00FF3F" stroke-width="1.1339" stroke-linecap="round" stroke-linejoin="round" stroke-miterlimit="10" width="4.198" height="10.355"/>
		</g>
		<g id="LWPOLYLINE_86_">
			
				<rect x="117.488" y="187.987" transform="matrix(0.2434 -0.9699 0.9699 0.2434 -96.8727 262.1476)" fill="none" stroke="#00FF3F" stroke-width="1.1339" stroke-linecap="round" stroke-linejoin="round" stroke-miterlimit="10" width="4.197" height="10.355"/>
		</g>
		<g id="LWPOLYLINE_87_">
			
				<rect x="118.508" y="183.915" transform="matrix(0.2432 -0.97 0.97 0.2432 -92.1389 260.0928)" fill="none" stroke="#00FF3F" stroke-width="1.1339" stroke-linecap="round" stroke-linejoin="round" stroke-miterlimit="10" width="4.198" height="10.354"/>
		</g>
		<g id="LWPOLYLINE_88_">
			
				<polygon fill="none" stroke="#00FF3F" stroke-width="1.1339" stroke-linecap="round" stroke-linejoin="round" stroke-miterlimit="10" points="
				106.905,222.442 106.498,222.34 105.477,226.412 105.07,226.31 94.619,223.688 90.194,241.333 111.91,246.779 117.356,225.063 
							"/>
		</g>
		<g id="LWPOLYLINE_89_">
			
				<polygon fill="none" stroke="#00FF3F" stroke-width="1.1339" stroke-linecap="round" stroke-linejoin="round" stroke-miterlimit="10" points="
				108.235,169.399 103.81,187.043 114.261,189.664 114.668,189.766 115.689,185.695 116.096,185.797 126.547,188.418 
				129.951,174.846 			"/>
		</g>
		<g id="INSERT">
			<g id="LINE_2_">
				
					<line fill="none" stroke="#00FF3F" stroke-width="1.1339" stroke-linecap="round" stroke-linejoin="round" stroke-miterlimit="10" x1="110.906" y1="206.488" x2="120.555" y2="215.632"/>
			</g>
			<g id="LINE_3_">
				
					<line fill="none" stroke="#00FF3F" stroke-width="1.1339" stroke-linecap="round" stroke-linejoin="round" stroke-miterlimit="10" x1="106.121" y1="212.556" x2="111.896" y2="206.462"/>
			</g>
			<g id="LINE_4_">
				
					<line fill="none" stroke="#00FF3F" stroke-width="1.1339" stroke-linecap="round" stroke-linejoin="round" stroke-miterlimit="10" x1="105.079" y1="210.604" x2="107.109" y2="212.529"/>
			</g>
			<g id="LINE_5_">
				
					<line fill="none" stroke="#00FF3F" stroke-width="1.1339" stroke-linecap="round" stroke-linejoin="round" stroke-miterlimit="10" x1="115.693" y1="200.422" x2="105.105" y2="211.593"/>
			</g>
			<g id="LINE_6_">
				
					<line fill="none" stroke="#00FF3F" stroke-width="1.1339" stroke-linecap="round" stroke-linejoin="round" stroke-miterlimit="10" x1="113.688" y1="199.485" x2="115.719" y2="201.411"/>
			</g>
			<g id="LINE_7_">
				
					<line fill="none" stroke="#00FF3F" stroke-width="1.1339" stroke-linecap="round" stroke-linejoin="round" stroke-miterlimit="10" x1="108.902" y1="205.552" x2="114.677" y2="199.459"/>
			</g>
			<g id="LINE_8_">
				
					<line fill="none" stroke="#00FF3F" stroke-width="1.1339" stroke-linecap="round" stroke-linejoin="round" stroke-miterlimit="10" x1="100.243" y1="196.382" x2="109.891" y2="205.526"/>
			</g>
		</g>
		<g id="MTEXT">
			<text transform="matrix(0.2433 -0.97 0.97 0.2433 100.186 242.501)" fill="#00FF3F" font-family="'ArialMT'" font-size="3.1283">Escalera de </text>
			
				<text transform="matrix(0.2433 -0.97 0.97 0.2433 103.624 243.3643)" fill="#00FF3F" font-family="'ArialMT'" font-size="3.1283">Emergencia </text>
		</g>
		<g id="LINE_9_">
			
				<line fill="none" stroke="#00FF3F" stroke-width="1.1339" stroke-linecap="round" stroke-linejoin="round" stroke-miterlimit="10" x1="110.415" y1="229.733" x2="122.214" y2="182.685"/>
		</g>
		<g id="LINE_10_">
			
				<line fill="none" stroke="#00FF3F" stroke-width="1.1339" stroke-linecap="round" stroke-linejoin="round" stroke-miterlimit="10" x1="107.604" y1="182.294" x2="123.736" y2="186.34"/>
		</g>
		<g id="LINE_11_">
			
				<line fill="none" stroke="#00FF3F" stroke-width="1.1339" stroke-linecap="round" stroke-linejoin="round" stroke-miterlimit="10" x1="107.263" y1="195.421" x2="105.72" y2="193.926"/>
		</g>
		<g id="LINE_12_">
			
				<line fill="none" stroke="#00FF3F" stroke-width="1.1339" stroke-linecap="round" stroke-linejoin="round" stroke-miterlimit="10" x1="105.72" y1="193.926" x2="106.482" y2="194.117"/>
		</g>
		<g id="LINE_13_">
			
				<line fill="none" stroke="#00FF3F" stroke-width="1.1339" stroke-linecap="round" stroke-linejoin="round" stroke-miterlimit="10" x1="107.263" y1="195.421" x2="106.482" y2="194.117"/>
		</g>
		<g id="LINE_14_">
			
				<line fill="none" stroke="#00FF3F" stroke-width="1.1339" stroke-linecap="round" stroke-linejoin="round" stroke-miterlimit="10" x1="107.263" y1="195.421" x2="108.566" y2="194.641"/>
		</g>
		<g id="LINE_15_">
			
				<line fill="none" stroke="#00FF3F" stroke-width="1.1339" stroke-linecap="round" stroke-linejoin="round" stroke-miterlimit="10" x1="109.329" y1="194.832" x2="108.566" y2="194.641"/>
		</g>
		<g id="LINE_16_">
			
				<line fill="none" stroke="#00FF3F" stroke-width="1.1339" stroke-linecap="round" stroke-linejoin="round" stroke-miterlimit="10" x1="107.263" y1="195.421" x2="109.329" y2="194.832"/>
		</g>
		<g id="CIRCLE">
			
				<path fill="none" stroke="#00FF3F" stroke-width="1.1339" stroke-linecap="round" stroke-linejoin="round" stroke-miterlimit="10" d="
				M110.829,229.237c0-0.16-0.129-0.29-0.29-0.29c-0.16,0-0.29,0.129-0.29,0.29s0.13,0.29,0.29,0.29
				C110.699,229.527,110.829,229.397,110.829,229.237L110.829,229.237z"/>
		</g>
		<g id="LINE_17_">
			
				<line fill="none" stroke="#00FF3F" stroke-width="1.1339" stroke-linecap="round" stroke-linejoin="round" stroke-miterlimit="10" x1="107.263" y1="195.421" x2="111.152" y2="179.911"/>
		</g>
	</g>
	<g id="MTEXT_1_">
		<text transform="matrix(1 0 0 1 341.7266 416.0625)" fill="#00FF3F" font-family="'ArialMT'" font-size="12.6931">BANORTE</text>
	</g>
	<g id="LWPOLYLINE_90_">
		
			<polygon fill="none" stroke="#00FF3F" stroke-width="1.1339" stroke-linecap="round" stroke-linejoin="round" stroke-miterlimit="10" points="
			285.996,143.926 257.562,141.646 256.206,158.663 284.553,160.937 		"/>
	</g>
	<g id="LINE_18_">
		
			<line fill="none" stroke="#00FF3F" stroke-width="1.1339" stroke-linecap="round" stroke-linejoin="round" stroke-miterlimit="10" stroke-dasharray="2.9812,1.4906" x1="257.562" y1="141.646" x2="284.553" y2="160.937"/>
	</g>
	<g id="LINE_19_">
		
			<line fill="none" stroke="#00FF3F" stroke-width="1.1339" stroke-linecap="round" stroke-linejoin="round" stroke-miterlimit="10" stroke-dasharray="2.9812,1.4906" x1="256.206" y1="158.663" x2="285.996" y2="143.926"/>
	</g>
	<g id="MTEXT_2_">
		
			<text transform="matrix(0.9999 -0.0151 0.0151 0.9999 262.7051 153.7271)" fill="#00FF3F" font-family="'ArialMT'" font-size="3.1283">Montacargas</text>
	</g>
	<g id="LWPOLYLINE_91_">
		
			<polygon fill="none" stroke="#00FF3F" stroke-width="1.1339" stroke-linecap="round" stroke-linejoin="round" stroke-miterlimit="10" points="
			689.44,11.011 630.095,9.043 628.393,55.307 687.612,57.25 		"/>
	</g>
	<g id="LWPOLYLINE_92_">
		
			<polyline fill="none" stroke="#00FF3F" stroke-width="1.1339" stroke-linecap="round" stroke-linejoin="round" stroke-miterlimit="10" points="
			304.874,224.903 301.848,262.888 359.142,267.452 362.167,229.466 304.874,224.903 		"/>
	</g>
	<g id="LWPOLYLINE_93_">
		
			<polyline fill="none" stroke="#00FF3F" stroke-width="1.1339" stroke-linecap="round" stroke-linejoin="round" stroke-miterlimit="10" points="
			283.958,223.237 280.932,261.222 301.848,262.888 304.874,224.903 283.958,223.237 		"/>
	</g>
	<g id="MTEXT_3_">
		<text transform="matrix(1 0 0 1 108.1143 235.9365)" fill="#00FF3F" font-family="'ArialMT'" font-size="4.1155">BAJA</text>
	</g>
</g>
<g id="ÁREAS__x28_POLILINEA_x29_">
	<g id="LWPOLYLINE_1_">
		
			<polygon fill="none" stroke="#00BFFF" stroke-width="0.9921" stroke-linecap="round" stroke-linejoin="round" stroke-miterlimit="10" points="
			484.561,123.578 444.365,120.376 442.154,155.592 482.122,158.201 		"/>
	</g>
	<g id="LWPOLYLINE_2_">
		
			<polygon fill="none" stroke="#00BFFF" stroke-width="0.9921" stroke-linecap="round" stroke-linejoin="round" stroke-miterlimit="10" points="
			444.365,120.376 404.169,117.175 401.921,152.964 442.154,155.592 		"/>
	</g>
	<g id="LWPOLYLINE_3_">
		
			<polygon fill="none" stroke="#00BFFF" stroke-width="0.9921" stroke-linecap="round" stroke-linejoin="round" stroke-miterlimit="10" points="
			404.169,117.175 363.731,113.954 361.667,150.336 401.921,152.964 		"/>
	</g>
	<g id="LWPOLYLINE_4_">
		
			<polygon fill="none" stroke="#00BFFF" stroke-width="0.9921" stroke-linecap="round" stroke-linejoin="round" stroke-miterlimit="10" points="
			314.8,110.056 313.091,147.165 361.667,150.336 363.731,113.954 		"/>
	</g>
	<g id="LWPOLYLINE_5_">
		
			<polygon fill="none" stroke="#00BFFF" stroke-width="0.9921" stroke-linecap="round" stroke-linejoin="round" stroke-miterlimit="10" points="
			646.775,238.858 603.465,237.145 602.646,257.865 645.96,259.494 		"/>
	</g>
	<g id="LWPOLYLINE_6_">
		
			<polygon fill="none" stroke="#00BFFF" stroke-width="0.9921" stroke-linecap="round" stroke-linejoin="round" stroke-miterlimit="10" points="
			603.465,237.145 560.154,235.432 559.332,256.236 602.646,257.865 		"/>
	</g>
	<g id="LWPOLYLINE_7_">
		
			<polygon fill="none" stroke="#00BFFF" stroke-width="0.9921" stroke-linecap="round" stroke-linejoin="round" stroke-miterlimit="10" points="
			560.154,235.432 516.845,233.719 516.019,254.607 559.332,256.236 		"/>
	</g>
	<g id="LWPOLYLINE_8_">
		
			<polygon fill="none" stroke="#00BFFF" stroke-width="0.9921" stroke-linecap="round" stroke-linejoin="round" stroke-miterlimit="10" points="
			651.818,184.366 613.752,182.898 612.688,216.647 651.8,218.226 		"/>
	</g>
	<g id="LWPOLYLINE_9_">
		
			<polygon fill="none" stroke="#00BFFF" stroke-width="0.9921" stroke-linecap="round" stroke-linejoin="round" stroke-miterlimit="10" points="
			613.752,182.898 575.162,181.41 573.703,215.073 612.688,216.647 		"/>
	</g>
	<g id="LWPOLYLINE_10_">
		
			<polygon fill="none" stroke="#00BFFF" stroke-width="0.9921" stroke-linecap="round" stroke-linejoin="round" stroke-miterlimit="10" points="
			575.162,181.41 536.479,179.918 534.586,213.494 573.703,215.073 		"/>
	</g>
	<g id="LWPOLYLINE_11_">
		
			<polygon fill="none" stroke="#00BFFF" stroke-width="0.9921" stroke-linecap="round" stroke-linejoin="round" stroke-miterlimit="10" points="
			536.479,179.918 498.189,178.441 495.71,211.925 534.586,213.494 		"/>
	</g>
	<g id="LWPOLYLINE_12_">
		
			<polygon fill="none" stroke="#00BFFF" stroke-width="0.9921" stroke-linecap="round" stroke-linejoin="round" stroke-miterlimit="10" points="
			654.953,81.271 621.107,79.922 619.331,121.874 654.268,123.256 		"/>
	</g>
	<g id="LWPOLYLINE_13_">
		
			<polygon fill="none" stroke="#00BFFF" stroke-width="0.9921" stroke-linecap="round" stroke-linejoin="round" stroke-miterlimit="10" points="
			654.268,123.256 619.331,121.874 617.497,165.194 653.561,166.616 		"/>
	</g>
	<g id="LWPOLYLINE_14_">
		
			<polygon fill="none" stroke="#00BFFF" stroke-width="0.9921" stroke-linecap="round" stroke-linejoin="round" stroke-miterlimit="10" points="
			619.331,121.874 583.96,120.472 581.066,163.707 617.497,165.194 		"/>
	</g>
	<g id="LWPOLYLINE_15_">
		
			<polygon fill="none" stroke="#00BFFF" stroke-width="0.9921" stroke-linecap="round" stroke-linejoin="round" stroke-miterlimit="10" points="
			621.107,79.922 586.749,78.575 583.96,120.472 619.331,121.874 		"/>
	</g>
	<g id="LWPOLYLINE_16_">
		
			<polygon fill="none" stroke="#00BFFF" stroke-width="0.9921" stroke-linecap="round" stroke-linejoin="round" stroke-miterlimit="10" points="
			586.749,78.575 553.195,77.382 548.982,118.97 583.96,120.472 		"/>
	</g>
	<g id="LWPOLYLINE_17_">
		
			<polygon fill="none" stroke="#00BFFF" stroke-width="0.9921" stroke-linecap="round" stroke-linejoin="round" stroke-miterlimit="10" points="
			583.96,120.472 548.982,118.97 544.588,162.337 581.066,163.707 		"/>
	</g>
	<g id="LWPOLYLINE_18_">
		
			<polygon fill="none" stroke="#00BFFF" stroke-width="0.9921" stroke-linecap="round" stroke-linejoin="round" stroke-miterlimit="10" points="
			527.535,123.148 484.796,121.214 483.431,141.565 482.122,158.201 523.853,161.196 		"/>
	</g>
	<g id="LWPOLYLINE_19_">
		
			<polygon fill="none" stroke="#00BFFF" stroke-width="0.9921" stroke-linecap="round" stroke-linejoin="round" stroke-miterlimit="10" points="
			531.473,84.72 488.593,82.928 484.796,121.214 527.535,123.148 		"/>
	</g>
	<g id="TEXT">
		
			<text transform="matrix(0.9992 0.0395 -0.0395 0.9992 326.9404 126.6309)" fill="#00BFFF" font-family="'ArialMT'" font-size="3.9355">Bodega 401</text>
	</g>
	<g id="TEXT_1_">
		
			<text transform="matrix(0.9992 0.0395 -0.0395 0.9992 373.2153 129.9717)" fill="#00BFFF" font-family="'ArialMT'" font-size="3.9355">Bodega 402</text>
	</g>
	<g id="TEXT_2_">
		
			<text transform="matrix(0.9992 0.0395 -0.0395 0.9992 412.7803 133.7056)" fill="#00BFFF" font-family="'ArialMT'" font-size="3.9355">Bodega 403</text>
	</g>
	<g id="TEXT_3_">
		
			<text transform="matrix(0.9992 0.0395 -0.0395 0.9992 451.709 136.894)" fill="#00BFFF" font-family="'ArialMT'" font-size="3.9355">Bodega 404</text>
	</g>
	<g id="LWPOLYLINE_20_">
		
			<polygon fill="none" stroke="#00BFFF" stroke-width="0.9921" stroke-linecap="round" stroke-linejoin="round" stroke-miterlimit="10" points="
			536.603,5.272 583.369,7.1 581.67,53.363 542.183,51.807 534.861,51.611 		"/>
	</g>
	<g id="LWPOLYLINE_21_">
		
			<polygon fill="none" stroke="#00BFFF" stroke-width="0.9921" stroke-linecap="round" stroke-linejoin="round" stroke-miterlimit="10" points="
			630.222,9.067 583.369,7.1 581.67,53.363 628.393,55.307 		"/>
	</g>
	<g id="LWPOLYLINE_22_">
		
			<polyline fill="none" stroke="#00BFFF" stroke-width="0.9921" stroke-linecap="round" stroke-linejoin="round" stroke-miterlimit="10" points="
			534.861,51.611 536.673,5.275 496.553,3.706 488.627,82.929 531.473,84.72 534.861,51.611 		"/>
	</g>
	<g id="LWPOLYLINE_23_">
		
			<line fill="none" stroke="#00BFFF" stroke-width="0.9921" stroke-linecap="round" stroke-linejoin="round" stroke-miterlimit="10" x1="534.861" y1="51.611" x2="536.603" y2="5.272"/>
	</g>
	<g id="TEXT_4_">
		
			<text transform="matrix(0.9992 0.0395 -0.0395 0.9992 495.1426 135.499)" fill="#00BFFF" font-family="'ArialMT'" font-size="3.9355">Bodega 405</text>
	</g>
	<g id="TEXT_5_">
		
			<text transform="matrix(0.9992 0.0395 -0.0395 0.9992 497.6553 98.5449)" fill="#00BFFF" font-family="'ArialMT'" font-size="3.9355">Bodega 406</text>
	</g>
	<g id="TEXT_6_">
		
			<text transform="matrix(0.9992 0.0395 -0.0395 0.9992 498.0557 42.7065)" fill="#00BFFF" font-family="'ArialMT'" font-size="3.9355">Bodega 407</text>
	</g>
	<g id="TEXT_7_">
		
			<text transform="matrix(0.9992 0.0395 -0.0395 0.9992 547.6797 27.686)" fill="#00BFFF" font-family="'ArialMT'" font-size="3.9355">Bodega 408</text>
	</g>
	<g id="TEXT_8_">
		
			<text transform="matrix(0.9992 0.0395 -0.0395 0.9992 592.9443 28.6548)" fill="#00BFFF" font-family="'ArialMT'" font-size="3.9355">Bodega 409</text>
	</g>
	<g id="TEXT_9_">
		
			<text transform="matrix(0.9992 0.0395 -0.0395 0.9992 557.8633 96.8911)" fill="#00BFFF" font-family="'ArialMT'" font-size="3.9355">Bodega 413</text>
	</g>
	<g id="TEXT_10_">
		
			<text transform="matrix(0.9992 0.0395 -0.0395 0.9992 590.8271 97.9336)" fill="#00BFFF" font-family="'ArialMT'" font-size="3.9355">Bodega 412</text>
	</g>
	<g id="TEXT_11_">
		
			<text transform="matrix(0.9992 0.0395 -0.0395 0.9992 629.7422 99.3423)" fill="#00BFFF" font-family="'ArialMT'" font-size="3.9355">Bodega 411</text>
	</g>
	<g id="TEXT_12_">
		
			<text transform="matrix(0.9992 0.0395 -0.0395 0.9992 555.8604 135.999)" fill="#00BFFF" font-family="'ArialMT'" font-size="3.9355">Bodega 414</text>
	</g>
	<g id="TEXT_13_">
		
			<text transform="matrix(0.9992 0.0395 -0.0395 0.9992 591.4141 139.2109)" fill="#00BFFF" font-family="'ArialMT'" font-size="3.9355">Bodega 415</text>
	</g>
	<g id="TEXT_14_">
		
			<text transform="matrix(0.9992 0.0395 -0.0395 0.9992 626.4561 141.6558)" fill="#00BFFF" font-family="'ArialMT'" font-size="3.9355">Bodega 416</text>
	</g>
	<g id="TEXT_15_">
		
			<text transform="matrix(0.9992 0.0395 -0.0395 0.9992 663.0322 143.417)" fill="#00BFFF" font-family="'ArialMT'" font-size="3.9355">Bodega 417</text>
	</g>
	<g id="TEXT_16_">
		
			<text transform="matrix(0.9992 0.0395 -0.0395 0.9992 661.5508 101.2607)" fill="#00BFFF" font-family="'ArialMT'" font-size="3.9355">Bodega 410</text>
	</g>
	<g id="TEXT_17_">
		
			<text transform="matrix(0.9992 0.0395 -0.0395 0.9992 504.5156 193.7886)" fill="#00BFFF" font-family="'ArialMT'" font-size="3.9355">Bodega 426</text>
	</g>
	<g id="TEXT_18_">
		
			<text transform="matrix(0.9992 0.0395 -0.0395 0.9992 545.124 195.9902)" fill="#00BFFF" font-family="'ArialMT'" font-size="3.9355">Bodega 424</text>
	</g>
	<g id="TEXT_19_">
		
			<text transform="matrix(0.9992 0.0395 -0.0395 0.9992 584.1396 197.0879)" fill="#00BFFF" font-family="'ArialMT'" font-size="3.9355">Bodega 422</text>
	</g>
	<g id="TEXT_20_">
		
			<text transform="matrix(0.9992 0.0395 -0.0395 0.9992 623.8105 198.2827)" fill="#00BFFF" font-family="'ArialMT'" font-size="3.9355">Bodega 420</text>
	</g>
	<g id="TEXT_21_">
		
			<text transform="matrix(0.9992 0.0395 -0.0395 0.9992 663.333 199.8457)" fill="#00BFFF" font-family="'ArialMT'" font-size="3.9355">Bodega 418</text>
	</g>
	<g id="TEXT_22_">
		
			<text transform="matrix(0.9992 0.0395 -0.0395 0.9992 529.5898 243.3652)" fill="#00BFFF" font-family="'ArialMT'" font-size="3.9355">Bodega 425</text>
	</g>
	<g id="TEXT_23_">
		
			<text transform="matrix(0.9992 0.0395 -0.0395 0.9992 572.375 244.166)" fill="#00BFFF" font-family="'ArialMT'" font-size="3.9355">Bodega 423</text>
	</g>
	<g id="TEXT_24_">
		
			<text transform="matrix(0.9992 0.0395 -0.0395 0.9992 615.8145 246.168)" fill="#00BFFF" font-family="'ArialMT'" font-size="3.9355">Bodega 421</text>
	</g>
	<g id="TEXT_25_">
		
			<text transform="matrix(0.9992 0.0395 -0.0395 0.9992 659.1006 247.6694)" fill="#00BFFF" font-family="'ArialMT'" font-size="3.9355">Bodega 419</text>
	</g>
	<g id="LWPOLYLINE_24_">
		
			<polygon fill="none" stroke="#00BFFF" stroke-width="0.9921" stroke-linecap="round" stroke-linejoin="round" stroke-miterlimit="10" points="
			473.204,238.08 495.268,232.865 516.845,233.719 516.019,254.607 472.398,253.015 		"/>
	</g>
	<g id="TEXT_26_">
		
			<text transform="matrix(0.9992 0.0395 -0.0395 0.9992 485.957 241.5786)" fill="#00BFFF" font-family="'ArialMT'" font-size="3.9355">Bodega 427</text>
	</g>
	<g id="LWPOLYLINE_25_">
		
			<polygon fill="none" stroke="#00BFFF" stroke-width="0.9921" stroke-linecap="round" stroke-linejoin="round" stroke-miterlimit="10" points="
			690.086,240.571 646.775,238.858 645.96,259.494 691.455,261.193 		"/>
	</g>
	<g id="LWPOLYLINE_26_">
		
			<polygon fill="none" stroke="#00BFFF" stroke-width="0.9921" stroke-linecap="round" stroke-linejoin="round" stroke-miterlimit="10" points="
			689.412,124.646 654.268,123.256 653.561,166.616 690.041,167.77 689.585,136.643 		"/>
	</g>
	<g id="LWPOLYLINE_27_">
		
			<polygon fill="none" stroke="#00BFFF" stroke-width="0.9921" stroke-linecap="round" stroke-linejoin="round" stroke-miterlimit="10" points="
			688.749,82.609 654.953,81.271 654.268,123.256 689.412,124.646 		"/>
	</g>
	<g id="LWPOLYLINE_28_">
		
			<polygon fill="none" stroke="#00BFFF" stroke-width="0.9921" stroke-linecap="round" stroke-linejoin="round" stroke-miterlimit="10" points="
			690.278,185.85 651.818,184.366 651.8,218.226 690.737,219.797 690.722,212.784 		"/>
	</g>
	<g id="TEXT_27_">
		
			<text transform="matrix(0.9992 0.0395 -0.0395 0.9992 438.9053 195.208)" fill="#00BFFF" font-family="'ArialMT'" font-size="3.9355">Bodega 428</text>
	</g>
	<g id="TEXT_28_">
		
			<text transform="matrix(0.9992 0.0395 -0.0395 0.9992 389.7813 190.1538)" fill="#00BFFF" font-family="'ArialMT'" font-size="3.9355">Bodega 430</text>
	</g>
	<g id="TEXT_29_">
		
			<text transform="matrix(0.9992 0.0395 -0.0395 0.9992 348.5469 185.6323)" fill="#00BFFF" font-family="'ArialMT'" font-size="3.9355">Bodega 431</text>
	</g>
	<g id="TEXT_30_">
		
			<text transform="matrix(0.9992 0.0395 -0.0395 0.9992 312.2817 183.7871)" fill="#00BFFF" font-family="'ArialMT'" font-size="3.9355">Bodega 432</text>
	</g>
	<g id="TEXT_31_">
		
			<text transform="matrix(0.9992 0.0395 -0.0395 0.9992 379.2529 246.8091)" fill="#00BFFF" font-family="'ArialMT'" font-size="3.9355">Bodega 429</text>
	</g>
	<g id="TEXT_32_">
		
			<text transform="matrix(0.9992 0.0395 -0.0395 0.9992 251.0503 236.3145)" fill="#00BFFF" font-family="'ArialMT'" font-size="3.9355">Bodega 434</text>
	</g>
	<g id="TEXT_33_">
		
			<text transform="matrix(0.9992 0.0395 -0.0395 0.9992 256.4766 178.165)" fill="#00BFFF" font-family="'ArialMT'" font-size="3.9355">Bodega 433</text>
	</g>
	<g id="LWPOLYLINE_29_">
		
			<polyline fill="none" stroke="#00BFFF" stroke-width="0.9921" stroke-linecap="round" stroke-linejoin="round" stroke-miterlimit="10" points="
			473.989,220.336 420.183,216.162 423.479,174.79 477.276,179.076 473.989,220.336 		"/>
	</g>
	<g id="LWPOLYLINE_30_">
		
			<polyline fill="none" stroke="#00BFFF" stroke-width="0.9921" stroke-linecap="round" stroke-linejoin="round" stroke-miterlimit="10" points="
			420.183,216.162 377.485,212.754 380.782,171.381 423.479,174.79 420.183,216.162 		"/>
	</g>
	<g id="LWPOLYLINE_31_">
		
			<polyline fill="none" stroke="#00BFFF" stroke-width="0.9921" stroke-linecap="round" stroke-linejoin="round" stroke-miterlimit="10" points="
			377.485,212.761 339.163,209.709 342.458,168.336 380.782,171.388 377.485,212.761 		"/>
	</g>
	<g id="LWPOLYLINE_32_">
		
			<polyline fill="none" stroke="#00BFFF" stroke-width="0.9921" stroke-linecap="round" stroke-linejoin="round" stroke-miterlimit="10" points="
			339.163,209.707 299.987,206.588 303.282,165.215 342.458,168.335 339.163,209.707 		"/>
	</g>
	<g id="LWPOLYLINE_33_">
		
			<polyline fill="none" stroke="#00BFFF" stroke-width="0.9921" stroke-linecap="round" stroke-linejoin="round" stroke-miterlimit="10" points="
			248.615,201.093 285.31,204.037 288.404,165.457 251.688,162.511 248.593,201.091 		"/>
	</g>
	<g id="LWPOLYLINE_34_">
		
			<polyline fill="none" stroke="#00BFFF" stroke-width="0.9921" stroke-linecap="round" stroke-linejoin="round" stroke-miterlimit="10" points="
			283.958,223.237 280.932,261.222 238.214,257.819 241.268,219.486 283.958,223.237 		"/>
	</g>
	<g id="LWPOLYLINE_35_">
		
			<polyline fill="none" stroke="#00BFFF" stroke-width="0.9921" stroke-linecap="round" stroke-linejoin="round" stroke-miterlimit="10" points="
			362.167,229.466 359.142,267.452 416.435,272.015 419.461,234.03 362.167,229.466 		"/>
	</g>
	<g id="TEXT_34_">
		
			<text transform="matrix(0.9992 0.0395 -0.0395 0.9992 323.3003 246.8105)" fill="#00BFFF" font-family="'ArialMT'" font-size="3.9355">oficina</text>
	</g>
	<g id="TEXT_35_">
		
			<text transform="matrix(0.9992 0.0395 -0.0395 0.9992 284.1597 245.6328)" fill="#00BFFF" font-family="'ArialMT'" font-size="3.9355">SITE</text>
	</g>
	<g id="TEXT_36_">
		
			<text transform="matrix(0.9992 0.0395 -0.0395 0.9992 175.2373 167.0645)" fill="#00BFFF" font-family="'ArialMT'" font-size="3.9355">Bodega </text>
	</g>
	<g id="TEXT_37_">
		
			<text transform="matrix(0.9992 0.0395 -0.0395 0.9992 171.1265 174.7759)" fill="#00BFFF" font-family="'ArialMT'" font-size="3.9355">Área= 63.22 m²</text>
	</g>
	<g id="LWPOLYLINE_36_">
		
			<polygon fill="none" stroke="#00BFFF" stroke-width="0.9921" stroke-linecap="round" stroke-linejoin="round" stroke-miterlimit="10" points="
			223.565,246.196 237.69,107.822 229.957,107.206 230.786,99.002 161.154,93.304 160.27,100.725 156.099,100.211 138.737,169.82 
			141.724,170.569 139.188,180.68 136.201,179.931 123.153,231.958 		"/>
	</g>
	<g id="TEXT_38_">
		
			<text transform="matrix(0.9992 0.0395 -0.0395 0.9992 291.75 117.8594)" fill="#00BFFF" font-family="'ArialMT'" font-size="3.9355">VITRINA 437</text>
	</g>
	<g id="LWPOLYLINE_37_">
		
			<polyline fill="none" stroke="#00BFFF" stroke-width="0.9921" stroke-linecap="round" stroke-linejoin="round" stroke-miterlimit="10" points="
			306.297,111.975 311.874,112.453 309.375,141.591 303.799,141.112 306.297,111.975 		"/>
	</g>
	<g id="TEXT_39_">
		
			<text transform="matrix(0.9992 0.0395 -0.0395 0.9992 495.5469 51.3887)" fill="#00BFFF" font-family="'ArialMT'" font-size="3.9355">Área= 17.11 m²</text>
	</g>
	<g id="TEXT_40_">
		
			<text transform="matrix(0.9992 0.0395 -0.0395 0.9992 543.0283 36.4473)" fill="#00BFFF" font-family="'ArialMT'" font-size="3.9355">Área= 11.07 m²</text>
	</g>
	<g id="TEXT_41_">
		
			<text transform="matrix(0.9992 0.0395 -0.0395 0.9992 589.5596 36.9219)" fill="#00BFFF" font-family="'ArialMT'" font-size="3.9355">Área= 11.07 m²</text>
	</g>
	<g id="TEXT_42_">
		
			<text transform="matrix(0.9992 0.0395 -0.0395 0.9992 495.4658 105.4048)" fill="#00BFFF" font-family="'ArialMT'" font-size="3.9355">Área= 8.42 m²</text>
	</g>
	<g id="TEXT_43_">
		
			<text transform="matrix(0.9992 0.0395 -0.0395 0.9992 555.3477 103.998)" fill="#00BFFF" font-family="'ArialMT'" font-size="3.9355">Área= 7.33 m²</text>
	</g>
	<g id="TEXT_44_">
		
			<text transform="matrix(0.9992 0.0395 -0.0395 0.9992 591.3887 105.9453)" fill="#00BFFF" font-family="'ArialMT'" font-size="3.9355">Área= 7.48 m²</text>
	</g>
	<g id="TEXT_45_">
		
			<text transform="matrix(0.9992 0.0395 -0.0395 0.9992 626.2119 108.8633)" fill="#00BFFF" font-family="'ArialMT'" font-size="3.9355">Área= 7.38 m²</text>
	</g>
	<g id="TEXT_46_">
		
			<text transform="matrix(0.9992 0.0395 -0.0395 0.9992 660.793 109.8364)" fill="#00BFFF" font-family="'ArialMT'" font-size="3.9355">Área= 7.39 m²</text>
	</g>
	<g id="TEXT_47_">
		
			<text transform="matrix(0.9992 0.0395 -0.0395 0.9992 325.0088 133.4238)" fill="#00BFFF" font-family="'ArialMT'" font-size="3.9355">Área= 9.18 m²</text>
	</g>
	<g id="TEXT_48_">
		
			<text transform="matrix(0.9992 0.0395 -0.0395 0.9992 288.9312 123.498)" fill="#00BFFF" font-family="'ArialMT'" font-size="3.9355">Área= 0.836 m²</text>
	</g>
	<g id="TEXT_49_">
		
			<text transform="matrix(0.9992 0.0395 -0.0395 0.9992 371.1582 137.1016)" fill="#00BFFF" font-family="'ArialMT'" font-size="3.9355">Área= 7.47 m²</text>
	</g>
	<g id="TEXT_50_">
		
			<text transform="matrix(0.9992 0.0395 -0.0395 0.9992 410.4355 139.7993)" fill="#00BFFF" font-family="'ArialMT'" font-size="3.9355">Área= 7.32 m²</text>
	</g>
	<g id="TEXT_51_">
		
			<text transform="matrix(0.9992 0.0395 -0.0395 0.9992 449.4639 143.478)" fill="#00BFFF" font-family="'ArialMT'" font-size="3.9355">Área= 7.18 m²</text>
	</g>
	<g id="TEXT_52_">
		
			<text transform="matrix(0.9992 0.0395 -0.0395 0.9992 492.1787 142.9878)" fill="#00BFFF" font-family="'ArialMT'" font-size="3.9355">Área= 8.12 m²</text>
	</g>
	<g id="TEXT_53_">
		
			<text transform="matrix(0.9992 0.0395 -0.0395 0.9992 553.7705 143.2354)" fill="#00BFFF" font-family="'ArialMT'" font-size="3.9355">Área= 7.93 m²</text>
	</g>
	<g id="TEXT_54_">
		
			<text transform="matrix(0.9992 0.0395 -0.0395 0.9992 588.6641 146.1621)" fill="#00BFFF" font-family="'ArialMT'" font-size="3.9355">Área= 7.95 m²</text>
	</g>
	<g id="TEXT_55_">
		
			<text transform="matrix(0.9992 0.0395 -0.0395 0.9992 624.4795 148.145)" fill="#00BFFF" font-family="'ArialMT'" font-size="3.9355">Área= 7.86 m²</text>
	</g>
	<g id="TEXT_56_">
		
			<text transform="matrix(0.9992 0.0395 -0.0395 0.9992 660.9434 149.8721)" fill="#00BFFF" font-family="'ArialMT'" font-size="3.9355">Área= 7.91 m²</text>
	</g>
	<g id="TEXT_57_">
		
			<text transform="matrix(0.9992 0.0395 -0.0395 0.9992 255.5503 184.8892)" fill="#00BFFF" font-family="'ArialMT'" font-size="3.9355">Área= 7.28 m²</text>
	</g>
	<g id="TEXT_58_">
		
			<text transform="matrix(0.9992 0.0395 -0.0395 0.9992 310.2773 190.5444)" fill="#00BFFF" font-family="'ArialMT'" font-size="3.9355">Área= 8.33 m²</text>
	</g>
	<g id="TEXT_59_">
		
			<text transform="matrix(0.9992 0.0395 -0.0395 0.9992 346.1323 192.7446)" fill="#00BFFF" font-family="'ArialMT'" font-size="3.9355">Área= 8.15 m²</text>
	</g>
	<g id="TEXT_60_">
		
			<text transform="matrix(0.9992 0.0395 -0.0395 0.9992 388.0264 197.3066)" fill="#00BFFF" font-family="'ArialMT'" font-size="3.9355">Área= 9.08 m²</text>
	</g>
	<g id="TEXT_61_">
		
			<text transform="matrix(0.9992 0.0395 -0.0395 0.9992 436.8477 201.2402)" fill="#00BFFF" font-family="'ArialMT'" font-size="3.9355">Área= 11.42 m²</text>
	</g>
	<g id="TEXT_62_">
		
			<text transform="matrix(0.9992 0.0395 -0.0395 0.9992 502.3662 200.2407)" fill="#00BFFF" font-family="'ArialMT'" font-size="3.9355">Área= 6.62 m²</text>
	</g>
	<g id="TEXT_63_">
		
			<text transform="matrix(0.9992 0.0395 -0.0395 0.9992 542.832 202.2949)" fill="#00BFFF" font-family="'ArialMT'" font-size="3.9355">Área= 6.69 m²</text>
	</g>
	<g id="TEXT_64_">
		
			<text transform="matrix(0.9992 0.0395 -0.0395 0.9992 581.083 203.7158)" fill="#00BFFF" font-family="'ArialMT'" font-size="3.9355">Área= 6.68 m²</text>
	</g>
	<g id="TEXT_65_">
		
			<text transform="matrix(0.9992 0.0395 -0.0395 0.9992 620.7588 204.6631)" fill="#00BFFF" font-family="'ArialMT'" font-size="3.9355">Área= 6.66 m²</text>
	</g>
	<g id="TEXT_66_">
		
			<text transform="matrix(0.9992 0.0395 -0.0395 0.9992 660.9941 205.7705)" fill="#00BFFF" font-family="'ArialMT'" font-size="3.9355">Área= 6.70 m²</text>
	</g>
	<g id="TEXT_67_">
		
			<text transform="matrix(0.9992 0.0395 -0.0395 0.9992 248.9092 242.3198)" fill="#00BFFF" font-family="'ArialMT'" font-size="3.9355">Área= 8.38 m²</text>
	</g>
	<g id="TEXT_68_">
		
			<text transform="matrix(0.9992 0.0395 -0.0395 0.9992 377.0562 253.2622)" fill="#00BFFF" font-family="'ArialMT'" font-size="3.9355">Área= 11.18 m²</text>
	</g>
	<g id="TEXT_69_">
		
			<text transform="matrix(0.9992 0.0395 -0.0395 0.9992 483.3467 247.4253)" fill="#00BFFF" font-family="'ArialMT'" font-size="3.9355">Área= 4.32 m²</text>
	</g>
	<g id="TEXT_70_">
		
			<text transform="matrix(0.9992 0.0395 -0.0395 0.9992 527.7412 249.3545)" fill="#00BFFF" font-family="'ArialMT'" font-size="3.9355">Área= 4.62 m²</text>
	</g>
	<g id="TEXT_71_">
		
			<text transform="matrix(0.9992 0.0395 -0.0395 0.9992 570.3652 250.1533)" fill="#00BFFF" font-family="'ArialMT'" font-size="3.9355">Área= 4.60 m²</text>
	</g>
	<g id="TEXT_72_">
		
			<text transform="matrix(0.9992 0.0395 -0.0395 0.9992 614.6025 252.2432)" fill="#00BFFF" font-family="'ArialMT'" font-size="3.9355">Área= 4.58 m²</text>
	</g>
	<g id="TEXT_73_">
		
			<text transform="matrix(0.9992 0.0395 -0.0395 0.9992 657.2402 253.1523)" fill="#00BFFF" font-family="'ArialMT'" font-size="3.9355">Área= 4.67 m²</text>
	</g>
</g>
<g id="_x30_">
</g>
</svg>
