<?xml version="1.0" encoding="utf-8"?>
<!-- Generator: Adobe Illustrator 16.0.0, SVG Export Plug-In . SVG Version: 6.00 Build 0)  -->
<!DOCTYPE svg PUBLIC "-//W3C//DTD SVG 1.1//EN" "http://www.w3.org/Graphics/SVG/1.1/DTD/svg11.dtd">
<svg version="1.1" xmlns="http://www.w3.org/2000/svg" xmlns:xlink="http://www.w3.org/1999/xlink" x="0px" y="0px" width="800px"
	 height="600px" viewBox="0 0 800 600" enable-background="new 0 0 800 600" xml:space="preserve">
<g id="Areas_x5F_comunes">
	<g id="LWPOLYLINE_42_">
		
			<polygon fill="none" stroke="#00FFFF" stroke-width="0" stroke-linecap="round" stroke-linejoin="round" stroke-miterlimit="10" points="
			168.874,401.043 168.874,313.374 345.603,313.937 345.603,227.608 370.992,227.608 370.992,108.154 302.002,108.154 
			296.636,58.615 296.636,16.24 539.976,16.24 540.181,14.357 560.733,14.342 560.733,10.276 573.32,10.276 573.32,14.358 
			591.368,14.342 591.368,10.276 603.954,10.276 603.954,14.358 622.566,14.342 618.023,192.813 594.313,193.386 596.009,218.766 
			595.662,267.606 594.594,267.626 595.36,308.482 663.724,308.482 663.724,579.083 571.456,579.056 570.845,455.342 
			519.102,455.342 518.932,423.358 445.756,423.358 445.756,401.043 		"/>
	</g>
	<g id="TEXT">
		<text transform="matrix(0.75 0 0 1 444.6816 294.0283)" fill="#7FFF9F" font-family="'ArialMT'" font-size="1.4468">SANITARIOS   DAMAS.</text>
	</g>
	<g id="TEXT_1_">
		<text transform="matrix(0.75 0 0 1 472.8457 294.0283)" fill="#7FFF9F" font-family="'ArialMT'" font-size="1.4468">SANITARIOS   CABALLEROS.</text>
	</g>
	<g id="TEXT_2_">
		<text transform="matrix(0.75 0 0 1 472.457 253.5737)" fill="#7FFF9F" font-family="'ArialMT'" font-size="1.4468">MANTENIMIENTO.</text>
	</g>
	<g id="TEXT_3_">
		<text transform="matrix(0.75 0 0 1 449.3838 256.021)" fill="#7FFF9F" font-family="'ArialMT'" font-size="1.4468">hidroneumatico.</text>
	</g>
	<g id="TEXT_4_">
		<text transform="matrix(0.75 0 0 1 410.8389 258.5977)" fill="#7FFF9F" font-family="'ArialMT'" font-size="1.4468">COMEDOR.</text>
	</g>
	<g id="TEXT_5_">
		<text transform="matrix(0.75 0 0 1 411.416 318.4238)" fill="#7FFF9F" font-family="'ArialMT'" font-size="1.4468">GERENCIA.</text>
	</g>
	<g id="TEXT_6_">
		<text transform="matrix(0.75 0 0 1 408.2471 332.5342)" fill="#7FFF9F" font-family="'ArialMT'" font-size="1.4468">AREA ADMINISTRATIVA</text>
	</g>
	<g id="TEXT_7_">
		<text transform="matrix(0.75 0 0 1 420.8975 305.3682)" fill="#7FFF9F" font-family="'ArialMT'" font-size="1.4468">sanitario.</text>
	</g>
	<g id="TEXT_8_">
		<text transform="matrix(0.75 0 0 1 408.7021 303.6338)" fill="#7FFF9F" font-family="'ArialMT'" font-size="1.4468">C.C.TV.</text>
	</g>
	<g id="TEXT_9_">
		<text transform="matrix(0.75 0 0 1 362.4438 290.627)" fill="#7FFF9F" font-family="'ArialMT'" font-size="1.4468">CUBO</text>
	</g>
	<g id="TEXT_10_">
		<text transform="matrix(0.75 0 0 1 366.1626 290.6299)" fill="#7FFF9F" font-family="'ArialMT'" font-size="1.4468">DE</text>
	</g>
	<g id="TEXT_11_">
		<text transform="matrix(0.75 0 0 1 361.4502 292.1328)" fill="#7FFF9F" font-family="'ArialMT'" font-size="1.4468">MONTACARGAS.</text>
	</g>
	<g id="TEXT_12_">
		<text transform="matrix(0.75 0 0 1 448.9629 166.1294)" fill="#7FFF9F" font-family="'ArialMT'" font-size="1.4468">PROYECCION</text>
	</g>
	<g id="TEXT_13_">
		<text transform="matrix(0.75 0 0 1 451.7637 167.9424)" fill="#7FFF9F" font-family="'ArialMT'" font-size="1.4468">DE</text>
	</g>
	<g id="TEXT_14_">
		<text transform="matrix(0.75 0 0 1 450.999 169.3291)" fill="#7FFF9F" font-family="'ArialMT'" font-size="1.4468">DOMO.</text>
	</g>
	<g id="TEXT_15_">
		<text transform="matrix(0.75 0 0 1 409.9844 282.0977)" fill="#7FFF9F" font-family="'ArialMT'" font-size="1.4468">OFICINAS NUEVAS</text>
	</g>
	<g id="TEXT_30_">
		<text transform="matrix(0.75 0 0 1 376.708 176.3672)" fill="#7FFF9F" font-family="'ArialMT'" font-size="1.4468">CIRCULACION</text>
	</g>
	<g id="TEXT_31_">
		<text transform="matrix(0.75 0 0 1 270.5337 336.9883)" fill="#7FFF9F" font-family="'ArialMT'" font-size="1.4468">DOMO.</text>
	</g>
	<g id="TEXT_32_">
		<text transform="matrix(0.75 0 0 1 422.8965 379.5293)" fill="#7FFF9F" font-family="'ArialMT'" font-size="1.4468">DOMO.</text>
	</g>
	<g id="TEXT_33_">
		<text transform="matrix(0.75 0 0 1 463.958 406.3496)" fill="#7FFF9F" font-family="'ArialMT'" font-size="1.4468">AIRE ACONDICIONADO</text>
	</g>
	<g id="TEXT_34_">
		<text transform="matrix(0.75 0 0 1 489.1299 407.6953)" fill="#7FFF9F" font-family="'ArialMT'" font-size="1.4468">DOMO</text>
	</g>
	<g id="TEXT_35_">
		<text transform="matrix(0.75 0 0 1 199.4404 385.9785)" fill="#7FFF9F" font-family="'ArialMT'" font-size="1.4468">AIRE ACONDICIONADO</text>
	</g>
	<g id="LWPOLYLINE_16_">
		
			<polygon fill="none" stroke="#00FFFF" stroke-width="0" stroke-linecap="round" stroke-linejoin="round" stroke-miterlimit="10" points="
			519.172,327.634 491.958,327.634 491.958,340.084 530.602,340.084 530.602,295.861 518.696,295.861 		"/>
	</g>
	<g id="MTEXT_16_">
		<text transform="matrix(1 0 0 1 517.2725 336.4238)" fill="#7FFF9F" font-family="'ArialMT'" font-size="1.4468">ESCALERAS</text>
		<text transform="matrix(1 0 0 1 517.3818 338.1953)" fill="#7FFF9F" font-family="'ArialMT'" font-size="1.4468">Área: 18.40m</text>
		<text transform="matrix(1 0 0 1 525.5996 337.5879)" fill="#7FFF9F" font-family="'ArialMT'" font-size="1.0127">2</text>
	</g>
	<g id="LWPOLYLINE_17_">
		
			<rect x="360.23" y="286.219" fill="none" stroke="#00FFFF" stroke-width="0" stroke-linecap="round" stroke-linejoin="round" stroke-miterlimit="10" width="11.59" height="12.927"/>
	</g>
	<g id="MTEXT_17_">
		<text transform="matrix(1 0 0 1 360.9966 294.3447)" fill="#7FFF9F" font-family="'ArialMT'" font-size="1.4468">Área: 3.23m</text>
		<text transform="matrix(1 0 0 1 368.4507 293.7378)" fill="#7FFF9F" font-family="'ArialMT'" font-size="1.0127">2</text>
	</g>
	<g id="LWPOLYLINE_18_">
		
			<rect x="404.534" y="326.392" fill="none" stroke="#00FFFF" stroke-width="0" stroke-linecap="round" stroke-linejoin="round" stroke-miterlimit="10" width="20.409" height="15.394"/>
	</g>
	<g id="LWPOLYLINE_19_">
		
			<rect x="404.534" y="310.999" fill="none" stroke="#00FFFF" stroke-width="0" stroke-linecap="round" stroke-linejoin="round" stroke-miterlimit="10" width="20.409" height="15.393"/>
	</g>
	<g id="LWPOLYLINE_20_">
		
			<rect x="416.61" y="298.073" fill="none" stroke="#00FFFF" stroke-width="0" stroke-linecap="round" stroke-linejoin="round" stroke-miterlimit="10" width="8.333" height="12.926"/>
	</g>
	<g id="LWPOLYLINE_21_">
		
			<rect x="404.534" y="298.073" fill="none" stroke="#00FFFF" stroke-width="0" stroke-linecap="round" stroke-linejoin="round" stroke-miterlimit="10" width="12.076" height="12.926"/>
	</g>
	<g id="LWPOLYLINE_22_">
		
			<polygon fill="none" stroke="#00FFFF" stroke-width="0" stroke-linecap="round" stroke-linejoin="round" stroke-miterlimit="10" points="
			424.943,276.642 404.521,276.642 404.534,287.92 424.943,287.92 		"/>
	</g>
	<g id="LWPOLYLINE_23_">
		
			<polygon fill="none" stroke="#00FFFF" stroke-width="0" stroke-linecap="round" stroke-linejoin="round" stroke-miterlimit="10" points="
			424.943,276.642 404.521,276.642 404.521,230.329 413.038,230.329 413.038,244.529 424.943,244.529 		"/>
	</g>
	<g id="LWPOLYLINE_24_">
		
			<polygon fill="none" stroke="#00FFFF" stroke-width="0" stroke-linecap="round" stroke-linejoin="round" stroke-miterlimit="10" points="
			434.47,254.734 434.47,263.239 438.959,263.239 438.959,262.124 443.561,262.124 443.654,244.529 436.34,244.529 436.34,254.734 
					"/>
	</g>
	<g id="LWPOLYLINE_25_">
		
			<polygon fill="none" stroke="#00FFFF" stroke-width="0" stroke-linecap="round" stroke-linejoin="round" stroke-miterlimit="10" points="
			463.214,244.529 444.674,244.529 444.674,253.714 457.26,253.714 457.26,254.734 444.674,254.734 444.674,262.729 
			463.214,262.729 		"/>
	</g>
	<g id="LWPOLYLINE_26_">
		
			<rect x="463.214" y="244.529" fill="none" stroke="#00FFFF" stroke-width="0" stroke-linecap="round" stroke-linejoin="round" stroke-miterlimit="10" width="27.724" height="18.199"/>
	</g>
	<g id="LWPOLYLINE_27_">
		
			<polygon fill="none" stroke="#00FFFF" stroke-width="0" stroke-linecap="round" stroke-linejoin="round" stroke-miterlimit="10" points="
			465.527,313.414 458.009,313.414 458.009,324.3 439.979,324.3 439.979,262.729 465.527,262.729 		"/>
	</g>
	<g id="LWPOLYLINE_28_">
		
			<polygon fill="none" stroke="#00FFFF" stroke-width="0" stroke-linecap="round" stroke-linejoin="round" stroke-miterlimit="10" points="
			490.938,262.729 465.527,262.729 465.527,313.414 475.222,313.414 475.222,324.3 489.917,324.3 489.917,323.279 490.938,323.279 
					"/>
	</g>
	<g id="MTEXT_18_">
		<text transform="matrix(1 0 0 1 411.0996 284.1914)" fill="#7FFF9F" font-family="'ArialMT'" font-size="1.4468">Área: 4.97m</text>
		<text transform="matrix(1 0 0 1 418.5527 283.5859)" fill="#7FFF9F" font-family="'ArialMT'" font-size="1.0127">2</text>
	</g>
	<g id="MTEXT_19_">
		<text transform="matrix(1 0 0 1 410.8545 261.4824)" fill="#7FFF9F" font-family="'ArialMT'" font-size="1.4468">Área: 16.78m</text>
		<text transform="matrix(1 0 0 1 419.0713 260.876)" fill="#7FFF9F" font-family="'ArialMT'" font-size="1.0127">2</text>
	</g>
	<g id="MTEXT_20_">
		<text transform="matrix(1 0 0 1 448.748 257.5488)" fill="#7FFF9F" font-family="'ArialMT'" font-size="1.4468">Área: 7.01m</text>
		<text transform="matrix(1 0 0 1 456.2012 256.9419)" fill="#7FFF9F" font-family="'ArialMT'" font-size="1.0127">2</text>
	</g>
	<g id="MTEXT_21_">
		<text transform="matrix(1 0 0 1 434.8398 260.6445)" fill="#7FFF9F" font-family="'ArialMT'" font-size="1.4468">Área: 3.16m</text>
		<text transform="matrix(1 0 0 1 442.2939 260.0376)" fill="#7FFF9F" font-family="'ArialMT'" font-size="1.0127">2</text>
	</g>
	<g id="MTEXT_22_">
		<text transform="matrix(1 0 0 1 472.7012 255.7905)" fill="#7FFF9F" font-family="'ArialMT'" font-size="1.4468">Área: 10.90m</text>
		<text transform="matrix(1 0 0 1 480.918 255.1836)" fill="#7FFF9F" font-family="'ArialMT'" font-size="1.0127">2</text>
	</g>
	<g id="MTEXT_23_">
		<text transform="matrix(1 0 0 1 446.0391 295.8691)" fill="#7FFF9F" font-family="'ArialMT'" font-size="1.4468">Área: 32.21m</text>
		<text transform="matrix(1 0 0 1 454.2559 295.2627)" fill="#7FFF9F" font-family="'ArialMT'" font-size="1.0127">2</text>
	</g>
	<g id="MTEXT_24_">
		<text transform="matrix(1 0 0 1 477.8984 295.6304)" fill="#7FFF9F" font-family="'ArialMT'" font-size="1.4468">Área: 31.49m</text>
		<text transform="matrix(1 0 0 1 486.1162 295.0234)" fill="#7FFF9F" font-family="'ArialMT'" font-size="1.0127">2</text>
	</g>
	<g id="MTEXT_25_">
		<text transform="matrix(1 0 0 1 406.7461 305.1328)" fill="#7FFF9F" font-family="'ArialMT'" font-size="1.4468">Área: 3.37m</text>
		<text transform="matrix(1 0 0 1 414.2002 304.5264)" fill="#7FFF9F" font-family="'ArialMT'" font-size="1.0127">2</text>
	</g>
	<g id="MTEXT_26_">
		<text transform="matrix(1 0 0 1 417.1572 307.4307)" fill="#7FFF9F" font-family="'ArialMT'" font-size="1.4468">Área: 2.32m</text>
		<text transform="matrix(1 0 0 1 424.6113 306.8242)" fill="#7FFF9F" font-family="'ArialMT'" font-size="1.0127">2</text>
	</g>
	<g id="MTEXT_27_">
		<text transform="matrix(1 0 0 1 410.458 320.4609)" fill="#7FFF9F" font-family="'ArialMT'" font-size="1.4468">Área: 6.78m</text>
		<text transform="matrix(1 0 0 1 417.9121 319.8535)" fill="#7FFF9F" font-family="'ArialMT'" font-size="1.0127">2</text>
	</g>
	<g id="MTEXT_28_">
		<text transform="matrix(1 0 0 1 410.8701 335.1602)" fill="#7FFF9F" font-family="'ArialMT'" font-size="1.4468">Área: 6.78m</text>
		<text transform="matrix(1 0 0 1 418.3232 334.5537)" fill="#7FFF9F" font-family="'ArialMT'" font-size="1.0127">2</text>
	</g>
	<g id="LWPOLYLINE_31_">
		
			<polygon fill="none" stroke="#00FFFF" stroke-width="0" stroke-linecap="round" stroke-linejoin="round" stroke-miterlimit="10" points="
			489.576,341.172 489.576,340.084 491.958,340.084 491.958,327.634 485.835,327.634 485.835,325.321 474.201,325.321 
			474.201,314.435 459.029,314.435 459.029,325.321 438.959,325.321 438.959,263.239 434.47,263.239 434.47,254.734 
			425.965,254.734 425.965,290.418 424.943,290.418 424.943,287.92 371.82,287.92 371.82,297.445 425.965,297.562 425.965,341.172 
					"/>
	</g>
	<g id="TEXT_36_">
		<text transform="matrix(0.75 0 0 1 428.8496 311.1094)" fill="#7FFF9F" font-family="'ArialMT'" font-size="1.4468">CIRCULACIÓN</text>
	</g>
	<g id="MTEXT_31_">
		<text transform="matrix(1 0 0 1 429.1514 313.7363)" fill="#7FFF9F" font-family="'ArialMT'" font-size="1.4468">Área: 55.95m</text>
		<text transform="matrix(1 0 0 1 437.3682 313.1289)" fill="#7FFF9F" font-family="'ArialMT'" font-size="1.0127">2</text>
	</g>
	<g id="LWPOLYLINE_32_">
		
			<polygon fill="none" stroke="#00FFFF" stroke-width="0" stroke-linecap="round" stroke-linejoin="round" stroke-miterlimit="10" points="
			532.373,298.651 531.111,298.651 531.111,295.351 530.602,295.351 530.602,295.861 491.958,295.861 491.958,243.509 
			414.059,243.509 414.059,229.309 404.534,229.309 404.551,227.961 389.912,227.961 389.912,228.628 372.012,228.628 
			372.012,120.023 380.313,120.023 380.313,107.134 431.451,107.134 431.451,120.023 439.752,120.023 439.752,107.134 
			485.957,107.134 485.957,119.764 536.054,119.764 		"/>
	</g>
	<g id="MTEXT_32_">
		<text transform="matrix(1 0 0 1 375.9063 178.9678)" fill="#7FFF9F" font-family="'ArialMT'" font-size="1.4468">Área: 347.75m</text>
		<text transform="matrix(1 0 0 1 384.8867 178.3608)" fill="#7FFF9F" font-family="'ArialMT'" font-size="1.0127">2</text>
	</g>
	<g id="MTEXT_33_">
		<text transform="matrix(1 0 0 1 336.8755 103.8916)" fill="#7FFF9F" font-family="'ArialMT'" font-size="1.4468">Área: 34.13m</text>
		<text transform="matrix(1 0 0 1 345.0923 103.2847)" fill="#7FFF9F" font-family="'ArialMT'" font-size="1.0127">2</text>
	</g>
	<g id="MTEXT_34_">
		<text transform="matrix(1 0 0 1 432.0967 89.0864)" fill="#7FFF9F" font-family="'ArialMT'" font-size="1.4468">Área: 40.00m</text>
		<text transform="matrix(1 0 0 1 440.3135 88.4795)" fill="#7FFF9F" font-family="'ArialMT'" font-size="1.0127">2</text>
	</g>
	<g id="MTEXT_35_">
		<text transform="matrix(1 0 0 1 486.3037 87.812)" fill="#7FFF9F" font-family="'ArialMT'" font-size="1.4468">Área:8.14m</text>
		<text transform="matrix(1 0 0 1 493.375 87.2051)" fill="#7FFF9F" font-family="'ArialMT'" font-size="1.0127">2</text>
	</g>
	<g id="LWPOLYLINE_33_">
		
			<rect x="553.04" y="61.235" fill="none" stroke="#00FFFF" stroke-width="0" stroke-linecap="round" stroke-linejoin="round" stroke-miterlimit="10" width="52.859" height="11.573"/>
	</g>
	<g id="MTEXT_36_">
		<text transform="matrix(1 0 0 1 574.7861 69.7314)" fill="#7FFF9F" font-family="'ArialMT'" font-size="1.8251">Área: 13.21m</text>
		<text transform="matrix(1 0 0 1 585.1523 68.9653)" fill="#7FFF9F" font-family="'ArialMT'" font-size="1.2775">2</text>
	</g>
	<g id="LWPOLYLINE_34_">
		
			<polyline fill="none" stroke="#00FFFF" stroke-width="0" stroke-linecap="round" stroke-linejoin="round" stroke-miterlimit="10" points="
			483.602,399.546 498.024,399.546 498.024,413.833 483.602,413.833 483.602,399.546 		"/>
	</g>
	<g id="LWPOLYLINE_35_">
		
			<rect x="464.348" y="390.702" fill="none" stroke="#00FFFF" stroke-width="0" stroke-linecap="round" stroke-linejoin="round" stroke-miterlimit="10" width="10.204" height="30.615"/>
	</g>
	<g id="LWPOLYLINE_36_">
		
			<polygon fill="none" stroke="#00FFFF" stroke-width="0" stroke-linecap="round" stroke-linejoin="round" stroke-miterlimit="10" points="
			399.035,397.301 399.035,394.443 398.286,394.443 398.286,360.971 451.013,360.971 451.013,397.301 		"/>
	</g>
	<g id="LWPOLYLINE_37_">
		
			<rect x="580.787" y="467.384" fill="none" stroke="#00FFFF" stroke-width="0" stroke-linecap="round" stroke-linejoin="round" stroke-miterlimit="10" width="35.854" height="63.748"/>
	</g>
	<g id="LWPOLYLINE_38_">
		
			<polygon fill="none" stroke="#00FFFF" stroke-width="0" stroke-linecap="round" stroke-linejoin="round" stroke-miterlimit="10" points="
			555.038,361.447 618.953,361.447 618.953,364.992 625.425,364.992 625.425,398.737 618.953,398.737 618.953,409.351 
			555.038,409.351 		"/>
	</g>
	<g id="LWPOLYLINE_39_">
		
			<polygon fill="none" stroke="#00FFFF" stroke-width="0" stroke-linecap="round" stroke-linejoin="round" stroke-miterlimit="10" points="
			234.017,315.652 234.017,358.249 310.039,358.249 310.173,315.855 		"/>
	</g>
	<g id="LWPOLYLINE_40_">
		
			<polygon fill="none" stroke="#00FFFF" stroke-width="0" stroke-linecap="round" stroke-linejoin="round" stroke-miterlimit="10" points="
			199.49,370.427 210.375,370.427 210.375,396.469 199.49,396.419 		"/>
	</g>
	<g id="MTEXT_37_">
		<text transform="matrix(1 0 0 1 268.8687 338.8682)" fill="#7FFF9F" font-family="'ArialMT'" font-size="1.4468">Área: 69.85m</text>
		<text transform="matrix(1 0 0 1 277.0854 338.2607)" fill="#7FFF9F" font-family="'ArialMT'" font-size="1.0127">2</text>
	</g>
	<g id="MTEXT_38_">
		<text transform="matrix(1 0 0 1 201.1704 388.0889)" fill="#7FFF9F" font-family="'ArialMT'" font-size="1.4468">Área: 6.11m</text>
		<text transform="matrix(1 0 0 1 208.624 387.4814)" fill="#7FFF9F" font-family="'ArialMT'" font-size="1.0127">2</text>
	</g>
	<g id="MTEXT_39_">
		<text transform="matrix(1 0 0 1 420.8877 381.9531)" fill="#7FFF9F" font-family="'ArialMT'" font-size="1.4468">Área: 41.33m</text>
		<text transform="matrix(1 0 0 1 429.1045 381.3467)" fill="#7FFF9F" font-family="'ArialMT'" font-size="1.0127">2</text>
	</g>
	<g id="MTEXT_40_">
		<text transform="matrix(1 0 0 1 465.2783 408.4951)" fill="#7FFF9F" font-family="'ArialMT'" font-size="1.4468">Área: 6.75m</text>
		<text transform="matrix(1 0 0 1 472.7324 407.8887)" fill="#7FFF9F" font-family="'ArialMT'" font-size="1.0127">2</text>
	</g>
	<g id="MTEXT_41_">
		<text transform="matrix(1 0 0 1 487.4863 409.3389)" fill="#7FFF9F" font-family="'ArialMT'" font-size="1.4468">Área: 4.45m</text>
		<text transform="matrix(1 0 0 1 494.9395 408.7324)" fill="#7FFF9F" font-family="'ArialMT'" font-size="1.0127">2</text>
	</g>
	<g id="MTEXT_42_">
		<text transform="matrix(1 0 0 1 477.3711 370.0117)" fill="#7FFF9F" font-family="'ArialMT'" font-size="1.4468">Área: 945.42m</text>
		<text transform="matrix(1 0 0 1 486.3516 369.4053)" fill="#7FFF9F" font-family="'ArialMT'" font-size="1.0127">2</text>
	</g>
	<g id="LWPOLYLINE_41_">
		
			<rect x="414.331" y="131.067" fill="none" stroke="#00FFFF" stroke-width="0" stroke-linecap="round" stroke-linejoin="round" stroke-miterlimit="10" width="73.886" height="80.62"/>
	</g>
	<g id="MTEXT_43_">
		<text transform="matrix(1 0 0 1 573.7959 167.686)" fill="#7FFF9F" font-family="'ArialMT'" font-size="1.4468">Área: 298.85m</text>
		<text transform="matrix(1 0 0 1 582.7773 167.0791)" fill="#7FFF9F" font-family="'ArialMT'" font-size="1.0127">2</text>
	</g>
	<g id="MTEXT_44_">
		<text transform="matrix(1 0 0 1 448.2432 171.5693)" fill="#7FFF9F" font-family="'ArialMT'" font-size="1.4468">Área: 128.69m</text>
		<text transform="matrix(1 0 0 1 457.2236 170.9624)" fill="#7FFF9F" font-family="'ArialMT'" font-size="1.0127">2</text>
	</g>
	<g id="MTEXT_45_">
		<text transform="matrix(1 0 0 1 585.6387 385.6865)" fill="#7FFF9F" font-family="'ArialMT'" font-size="1.4468">VACIO</text>
	</g>
	<g id="MTEXT_46_">
		<text transform="matrix(1 0 0 1 595.3184 499.3965)" fill="#7FFF9F" font-family="'ArialMT'" font-size="1.4468">VACIO</text>
	</g>
	<g id="TEXT_37_">
		
			<text transform="matrix(6.123234e-017 -1 1 6.123234e-017 297.4595 50.498)" fill="#00FFFF" font-family="'ArialMT'" font-size="2.4012">COLINDANCIA</text>
	</g>
	<g id="TEXT_38_">
		
			<text transform="matrix(6.123234e-017 -1 1 6.123234e-017 345.6309 282.0898)" fill="#00FFFF" font-family="'ArialMT'" font-size="2.4012">COLINDANCIA</text>
	</g>
	<g id="MTEXT_50_">
		
			<text transform="matrix(2.832769e-016 -1 1 2.832769e-016 163.1499 342.7617)" fill="#00FFFF" font-family="'CenturyGothic'" font-size="8.004">5 DE MAYO</text>
	</g>
	<g id="MTEXT_51_">
		<text transform="matrix(1 0 0 1 601.3418 5.6504)" fill="#00FFFF" font-family="'CenturyGothic'" font-size="8.004">10 PTE. 106</text>
	</g>
	<g id="MTEXT_52_">
		<text transform="matrix(1 0 0 1 434.9307 5.6504)" fill="#00FFFF" font-family="'CenturyGothic'" font-size="8.004">10 PTE. 104</text>
	</g>
	<g id="MTEXT_53_">
		<text transform="matrix(1 0 0 1 635.8145 592.3545)" fill="#00FFFF" font-family="'CenturyGothic'" font-size="8.004">12 PTE.</text>
	</g>
</g>
<g id="A_x5F_Areas">
	<g id="TEXT_16_">
		
			<text transform="matrix(6.123234e-017 -1 1 6.123234e-017 306.3027 87.0801)" fill="#FF0000" font-family="'ArialMT'" font-size="1.921">BODEGA No. 213</text>
	</g>
	<g id="TEXT_17_">
		
			<text transform="matrix(6.123234e-017 -1 1 6.123234e-017 319.9966 89.5332)" fill="#FF0000" font-family="'ArialMT'" font-size="1.921">BODEGA No. 214</text>
	</g>
	<g id="TEXT_18_">
		<text transform="matrix(1 0 0 1 302.1006 38.1538)" fill="#FF0000" font-family="'ArialMT'" font-size="1.921">BODEGA No. 212</text>
	</g>
	<g id="TEXT_19_">
		<text transform="matrix(1 0 0 1 327.252 38.1851)" fill="#FF0000" font-family="'ArialMT'" font-size="1.921">BODEGA No. 211</text>
	</g>
	<g id="TEXT_20_">
		<text transform="matrix(1 0 0 1 345.2891 37.7588)" fill="#FF0000" font-family="'ArialMT'" font-size="1.921">BODEGA No. 210</text>
	</g>
	<g id="TEXT_21_">
		<text transform="matrix(1 0 0 1 363.7173 37.6338)" fill="#FF0000" font-family="'ArialMT'" font-size="1.921">BODEGA No. 209</text>
	</g>
	<g id="TEXT_22_">
		<text transform="matrix(1 0 0 1 392.1089 42.3906)" fill="#FF0000" font-family="'ArialMT'" font-size="1.921">BODEGA No. 207</text>
	</g>
	<g id="TEXT_23_">
		<text transform="matrix(1 0 0 1 392.5435 90.958)" fill="#FF0000" font-family="'ArialMT'" font-size="1.921">BODEGA No. 208</text>
	</g>
	<g id="TEXT_24_">
		<text transform="matrix(1 0 0 1 418.3057 42.3906)" fill="#FF0000" font-family="'ArialMT'" font-size="1.921">BODEGA No.  206</text>
	</g>
	<g id="TEXT_25_">
		<text transform="matrix(1 0 0 1 444.042 42.3906)" fill="#FF0000" font-family="'ArialMT'" font-size="1.921">BODEGA No. 205</text>
	</g>
	<g id="TEXT_26_">
		<text transform="matrix(1 0 0 1 469.5244 42.3906)" fill="#FF0000" font-family="'ArialMT'" font-size="1.921">BODEGA No. 204</text>
	</g>
	<g id="TEXT_27_">
		<text transform="matrix(1 0 0 1 469.5244 90.1729)" fill="#FF0000" font-family="'ArialMT'" font-size="1.921">BODEGA No. 203</text>
	</g>
	<g id="TEXT_28_">
		<text transform="matrix(1 0 0 1 509.0791 83.9048)" fill="#FF0000" font-family="'ArialMT'" font-size="1.921">BODEGA No.  201</text>
	</g>
	<g id="TEXT_29_">
		<text transform="matrix(1 0 0 1 503.8047 38.5166)" fill="#FF0000" font-family="'ArialMT'" font-size="1.921">BODEGA No. 202</text>
	</g>
	<g id="MTEXT">
		<text transform="matrix(1 0 0 1 472.5664 345.6533)" fill="#FF0000" font-family="'ArialMT'" font-size="1.921">Local 452 </text>
	</g>
	<g id="MTEXT_1_">
		<text transform="matrix(1 0 0 1 453.5449 345.9482)" fill="#FF0000" font-family="'ArialMT'" font-size="1.921">Local 451 </text>
	</g>
	<g id="LWPOLYLINE">
		
			<rect x="553.04" y="61.235" fill="none" stroke="#7FFF7F" stroke-width="0" stroke-linecap="round" stroke-linejoin="round" stroke-miterlimit="10" width="52.859" height="11.573"/>
	</g>
	<g id="LWPOLYLINE_1_">
		
			<polygon fill="none" stroke="#7FFF7F" stroke-width="0" stroke-linecap="round" stroke-linejoin="round" stroke-miterlimit="10" points="
			323.708,17.261 297.656,17.261 297.656,58.561 298.013,62.307 313.163,62.316 313.163,52.162 324.219,52.162 324.219,17.261 		"/>
	</g>
	<g id="MTEXT_2_">
		<text transform="matrix(1 0 0 1 305.3853 40.7051)" fill="#FF0000" font-family="'ArialMT'" font-size="1.4468">Área: 23.41m</text>
		<text transform="matrix(1 0 0 1 313.6025 40.0981)" fill="#FF0000" font-family="'ArialMT'" font-size="1.0127">2</text>
	</g>
	<g id="LWPOLYLINE_2_">
		
			<polygon fill="none" stroke="#7FFF7F" stroke-width="0" stroke-linecap="round" stroke-linejoin="round" stroke-miterlimit="10" points="
			313.163,62.316 313.163,71.552 313.163,97.813 301.908,97.813 298.013,62.307 		"/>
	</g>
	<g id="MTEXT_3_">
		
			<text transform="matrix(6.123234e-017 -1 1 6.123234e-017 309.2012 83.7969)" fill="#FF0000" font-family="'ArialMT'" font-size="1.4468">Área: 10.12m</text>
		
			<text transform="matrix(6.123234e-017 -1 1 6.123234e-017 308.5942 75.5801)" fill="#FF0000" font-family="'ArialMT'" font-size="1.0127">2</text>
	</g>
	<g id="LWPOLYLINE_3_">
		
			<polygon fill="none" stroke="#7FFF7F" stroke-width="0" stroke-linecap="round" stroke-linejoin="round" stroke-miterlimit="10" points="
			324.75,71.552 313.163,71.552 313.163,97.813 324.708,97.813 		"/>
	</g>
	<g id="MTEXT_4_">
		
			<text transform="matrix(6.123234e-017 -1 1 6.123234e-017 322.4624 86.8633)" fill="#FF0000" font-family="'ArialMT'" font-size="1.4468">Área: 6,56 m</text>
		
			<text transform="matrix(6.123234e-017 -1 1 6.123234e-017 321.856 79.0293)" fill="#FF0000" font-family="'ArialMT'" font-size="1.0127">2</text>
	</g>
	<g id="LWPOLYLINE_4_">
		
			<polygon fill="none" stroke="#7FFF7F" stroke-width="0" stroke-linecap="round" stroke-linejoin="round" stroke-miterlimit="10" points="
			324.75,71.552 336.294,71.552 336.294,97.813 324.708,97.813 		"/>
	</g>
	<g id="LWPOLYLINE_5_">
		
			<polyline fill="none" stroke="#7FFF7F" stroke-width="0" stroke-linecap="round" stroke-linejoin="round" stroke-miterlimit="10" points="
			343.085,61.687 324.219,61.687 324.219,17.261 343.085,17.261 343.085,61.687 		"/>
	</g>
	<g id="MTEXT_5_">
		<text transform="matrix(1 0 0 1 329.8257 40.4248)" fill="#FF0000" font-family="'ArialMT'" font-size="1.4468">Área: 18.10m</text>
		<text transform="matrix(1 0 0 1 338.043 39.8179)" fill="#FF0000" font-family="'ArialMT'" font-size="1.0127">2</text>
	</g>
	<g id="LWPOLYLINE_6_">
		
			<polygon fill="none" stroke="#7FFF7F" stroke-width="0" stroke-linecap="round" stroke-linejoin="round" stroke-miterlimit="10" points="
			360.98,52.162 360.98,17.261 343.085,17.261 343.085,61.687 355.197,61.687 355.197,52.162 		"/>
	</g>
	<g id="MTEXT_6_">
		<text transform="matrix(1 0 0 1 348.1792 40.3516)" fill="#FF0000" font-family="'ArialMT'" font-size="1.4468">Área: 15.98m</text>
		<text transform="matrix(1 0 0 1 356.3965 39.7446)" fill="#FF0000" font-family="'ArialMT'" font-size="1.0127">2</text>
	</g>
	<g id="LWPOLYLINE_7_">
		
			<polygon fill="none" stroke="#7FFF7F" stroke-width="0" stroke-linecap="round" stroke-linejoin="round" stroke-miterlimit="10" points="
			380.823,61.687 380.823,17.261 360.98,17.261 360.98,52.162 366.763,52.162 366.763,61.687 		"/>
	</g>
	<g id="MTEXT_7_">
		<text transform="matrix(1 0 0 1 366.436 40.2871)" fill="#FF0000" font-family="'ArialMT'" font-size="1.4468">Área: 17.85m</text>
		<text transform="matrix(1 0 0 1 374.6533 39.6807)" fill="#FF0000" font-family="'ArialMT'" font-size="1.0127">2</text>
	</g>
	<g id="LWPOLYLINE_8_">
		
			<polygon fill="none" stroke="#7FFF7F" stroke-width="0" stroke-linecap="round" stroke-linejoin="round" stroke-miterlimit="10" points="
			415.924,61.687 415.924,17.261 380.823,17.261 380.823,61.687 381.333,61.687 381.333,72.468 402.356,72.444 402.356,61.687 		"/>
	</g>
	<g id="MTEXT_8_">
		<text transform="matrix(1 0 0 1 395.7056 44.9443)" fill="#FF0000" font-family="'ArialMT'" font-size="1.4468">Área: 38.58m</text>
		<text transform="matrix(1 0 0 1 403.9229 44.3379)" fill="#FF0000" font-family="'ArialMT'" font-size="1.0127">2</text>
	</g>
	<g id="LWPOLYLINE_9_">
		
			<polyline fill="none" stroke="#7FFF7F" stroke-width="0" stroke-linecap="round" stroke-linejoin="round" stroke-miterlimit="10" points="
			402.356,72.444 381.333,72.468 381.333,106.114 417.747,106.114 417.747,83.2 402.356,83.2 402.356,72.444 		"/>
	</g>
	<g id="MTEXT_9_">
		<text transform="matrix(1 0 0 1 396.5449 93.6318)" fill="#FF0000" font-family="'ArialMT'" font-size="1.4468">Área: 22.90m</text>
		<text transform="matrix(1 0 0 1 404.7617 93.0254)" fill="#FF0000" font-family="'ArialMT'" font-size="1.0127">2</text>
	</g>
	<g id="LWPOLYLINE_10_">
		
			<rect x="415.924" y="17.261" fill="none" stroke="#7FFF7F" stroke-width="0" stroke-linecap="round" stroke-linejoin="round" stroke-miterlimit="10" width="19.043" height="44.426"/>
	</g>
	<g id="MTEXT_10_">
		<text transform="matrix(1 0 0 1 422.1035 44.8218)" fill="#FF0000" font-family="'ArialMT'" font-size="1.4468">Área: 18.27m</text>
		<text transform="matrix(1 0 0 1 430.3203 44.2148)" fill="#FF0000" font-family="'ArialMT'" font-size="1.0127">2</text>
	</g>
	<g id="LWPOLYLINE_11_">
		
			<rect x="434.967" y="17.261" fill="none" stroke="#7FFF7F" stroke-width="0" stroke-linecap="round" stroke-linejoin="round" stroke-miterlimit="10" width="31.919" height="44.426"/>
	</g>
	<g id="MTEXT_11_">
		<text transform="matrix(1 0 0 1 447.6699 44.8809)" fill="#FF0000" font-family="'ArialMT'" font-size="1.4468">Área: 30.63m</text>
		<text transform="matrix(1 0 0 1 455.8867 44.2739)" fill="#FF0000" font-family="'ArialMT'" font-size="1.0127">2</text>
	</g>
	<g id="LWPOLYLINE_12_">
		
			<polygon fill="none" stroke="#7FFF7F" stroke-width="0" stroke-linecap="round" stroke-linejoin="round" stroke-miterlimit="10" points="
			467.396,71.17 484.937,71.185 484.937,60.667 485.446,60.667 485.446,17.261 466.886,17.261 466.886,61.687 467.396,61.687 		"/>
	</g>
	<g id="MTEXT_12_">
		<text transform="matrix(1 0 0 1 472.3477 44.5786)" fill="#FF0000" font-family="'ArialMT'" font-size="1.4468">Área: 21.20m</text>
		<text transform="matrix(1 0 0 1 480.5645 43.9722)" fill="#FF0000" font-family="'ArialMT'" font-size="1.0127">2</text>
	</g>
	<g id="LWPOLYLINE_13_">
		
			<polygon fill="none" stroke="#7FFF7F" stroke-width="0" stroke-linecap="round" stroke-linejoin="round" stroke-miterlimit="10" points="
			535.034,60.667 535.034,17.261 485.446,17.261 485.446,60.667 494.257,60.667 494.257,61.177 535.034,61.177 		"/>
	</g>
	<g id="MTEXT_13_">
		<text transform="matrix(1 0 0 1 507.4395 40.8545)" fill="#FF0000" font-family="'ArialMT'" font-size="1.4468">Área: 46.95m</text>
		<text transform="matrix(1 0 0 1 515.6563 40.248)" fill="#FF0000" font-family="'ArialMT'" font-size="1.0127">2</text>
	</g>
	<g id="LWPOLYLINE_14_">
		
			<rect x="495.277" y="61.177" fill="none" stroke="#7FFF7F" stroke-width="0" stroke-linecap="round" stroke-linejoin="round" stroke-miterlimit="10" width="39.757" height="57.45"/>
	</g>
	<g id="MTEXT_14_">
		<text transform="matrix(1 0 0 1 512.8154 87.2744)" fill="#FF0000" font-family="'ArialMT'" font-size="1.4468">Área: 49.34m</text>
		<text transform="matrix(1 0 0 1 521.0322 86.6675)" fill="#FF0000" font-family="'ArialMT'" font-size="1.0127">2</text>
	</g>
	<g id="LWPOLYLINE_15_">
		
			<polygon fill="none" stroke="#7FFF7F" stroke-width="0" stroke-linecap="round" stroke-linejoin="round" stroke-miterlimit="10" points="
			453.206,71.694 453.206,82.574 467.88,82.574 467.88,106.114 484.937,106.114 484.937,71.185 467.396,71.17 467.396,71.694 		"/>
	</g>
	<g id="MTEXT_15_">
		<text transform="matrix(1 0 0 1 472.5137 92.0918)" fill="#FF0000" font-family="'ArialMT'" font-size="1.4468">Área: 16.32m</text>
		<text transform="matrix(1 0 0 1 480.7305 91.4854)" fill="#FF0000" font-family="'ArialMT'" font-size="1.0127">2</text>
	</g>
	<g id="MTEXT_29_">
		<text transform="matrix(1 0 0 1 453.4893 347.8262)" fill="#FF0000" font-family="'ArialMT'" font-size="1.4468">Área: 3.18m</text>
		<text transform="matrix(1 0 0 1 460.9424 347.2188)" fill="#FF0000" font-family="'ArialMT'" font-size="1.0127">2</text>
	</g>
	<g id="MTEXT_30_">
		<text transform="matrix(1 0 0 1 472.1641 347.6816)" fill="#FF0000" font-family="'ArialMT'" font-size="1.4468">Área: 3.22m</text>
		<text transform="matrix(1 0 0 1 479.6172 347.0742)" fill="#FF0000" font-family="'ArialMT'" font-size="1.0127">2</text>
	</g>
	<g id="LWPOLYLINE_29_">
		
			<rect x="466.713" y="341.104" fill="none" stroke="#7FFF7F" stroke-width="0" stroke-linecap="round" stroke-linejoin="round" stroke-miterlimit="10" width="18.306" height="8.165"/>
	</g>
	<g id="LWPOLYLINE_30_">
		
			<rect x="448.682" y="341.104" fill="none" stroke="#7FFF7F" stroke-width="0" stroke-linecap="round" stroke-linejoin="round" stroke-miterlimit="10" width="18.031" height="8.165"/>
	</g>
	<g id="LWPOLYLINE_43_">
		
			<polygon fill="none" stroke="#7FFF7F" stroke-width="0" stroke-linecap="round" stroke-linejoin="round" stroke-miterlimit="10" points="
			347.881,71.552 336.294,71.552 336.294,97.813 347.839,97.813 		"/>
	</g>
	<g id="LWPOLYLINE_44_">
		
			<polygon fill="none" stroke="#7FFF7F" stroke-width="0" stroke-linecap="round" stroke-linejoin="round" stroke-miterlimit="10" points="
			347.881,71.552 359.426,71.552 359.426,97.813 347.839,97.813 		"/>
	</g>
	<g id="LWPOLYLINE_45_">
		
			<polygon fill="none" stroke="#7FFF7F" stroke-width="0" stroke-linecap="round" stroke-linejoin="round" stroke-miterlimit="10" points="
			359.447,71.552 370.992,71.552 370.992,97.813 359.405,97.813 		"/>
	</g>
	<g id="TEXT_39_">
		
			<text transform="matrix(6.123234e-017 -1 1 6.123234e-017 331.542 89.5332)" fill="#FF0000" font-family="'ArialMT'" font-size="1.921">BODEGA No. 215</text>
	</g>
	<g id="TEXT_40_">
		
			<text transform="matrix(6.123234e-017 -1 1 6.123234e-017 343.1289 89.5332)" fill="#FF0000" font-family="'ArialMT'" font-size="1.921">BODEGA No. 247</text>
	</g>
	<g id="TEXT_41_">
		
			<text transform="matrix(6.123234e-017 -1 1 6.123234e-017 354.6733 89.5332)" fill="#FF0000" font-family="'ArialMT'" font-size="1.921">BODEGA No. 248</text>
	</g>
	<g id="TEXT_42_">
		
			<text transform="matrix(6.123234e-017 -1 1 6.123234e-017 366.2393 89.5332)" fill="#FF0000" font-family="'ArialMT'" font-size="1.921">BODEGA No. 249</text>
	</g>
	<g id="MTEXT_54_">
		
			<text transform="matrix(6.123234e-017 -1 1 6.123234e-017 334.0073 86.8633)" fill="#FF0000" font-family="'ArialMT'" font-size="1.4468">Área: 6,56 m</text>
		
			<text transform="matrix(6.123234e-017 -1 1 6.123234e-017 333.4004 79.0293)" fill="#FF0000" font-family="'ArialMT'" font-size="1.0127">2</text>
	</g>
	<g id="MTEXT_55_">
		
			<text transform="matrix(6.123234e-017 -1 1 6.123234e-017 345.5938 86.8633)" fill="#FF0000" font-family="'ArialMT'" font-size="1.4468">Área: 6,56 m</text>
		
			<text transform="matrix(6.123234e-017 -1 1 6.123234e-017 344.9878 79.0293)" fill="#FF0000" font-family="'ArialMT'" font-size="1.0127">2</text>
	</g>
	<g id="MTEXT_56_">
		
			<text transform="matrix(6.123234e-017 -1 1 6.123234e-017 357.1392 86.8633)" fill="#FF0000" font-family="'ArialMT'" font-size="1.4468">Área: 6,56 m</text>
		
			<text transform="matrix(6.123234e-017 -1 1 6.123234e-017 356.5322 79.0293)" fill="#FF0000" font-family="'ArialMT'" font-size="1.0127">2</text>
	</g>
	<g id="MTEXT_57_">
		
			<text transform="matrix(6.123234e-017 -1 1 6.123234e-017 368.7046 86.8633)" fill="#FF0000" font-family="'ArialMT'" font-size="1.4468">Área: 6,56 m</text>
		
			<text transform="matrix(6.123234e-017 -1 1 6.123234e-017 368.0981 79.0293)" fill="#FF0000" font-family="'ArialMT'" font-size="1.0127">2</text>
	</g>
</g>
<g id="_x30_">
</g>
</svg>
