<?xml version="1.0" encoding="utf-8"?>
<!-- Generator: Adobe Illustrator 16.0.0, SVG Export Plug-In . SVG Version: 6.00 Build 0)  -->
<!DOCTYPE svg PUBLIC "-//W3C//DTD SVG 1.1//EN" "http://www.w3.org/Graphics/SVG/1.1/DTD/svg11.dtd">
<svg version="1.1" xmlns="http://www.w3.org/2000/svg" xmlns:xlink="http://www.w3.org/1999/xlink" x="0px" y="0px" width="800px"
	 height="600px" viewBox="0 0 800 600" enable-background="new 0 0 800 600" xml:space="preserve">
<g id="_x30_">
	<g id="INSERT_5_">
		<g id="LWPOLYLINE_19_">
			
				<polygon fill="none" stroke="#000000" stroke-width="0" stroke-linecap="round" stroke-linejoin="round" stroke-miterlimit="10" points="
				448.186,224.886 448.784,225.545 449.008,226.249 448.889,226.713 448.763,226.729 448.116,225.968 448.435,227.201 
				448.312,227.268 446.985,225.273 447.104,224.809 446.626,223.098 446.437,222.163 446.545,221.092 446.992,220.689 
				447.345,220.017 447.579,218.345 448.029,217.46 448.416,217.143 449.182,216.593 449.882,216.265 450.272,216.052 
				450.439,215.136 450.707,213.525 451.187,213.184 452.593,213.563 453.71,214.1 455.074,214.502 456.242,215.864 
				459.082,217.752 459.179,218.632 458.65,220.384 457.427,222.489 456.571,224.047 454.909,224.712 453.87,223.734 
				454.05,223.477 455.035,223.818 455.442,223.49 455.046,223.546 454.732,223.378 454.894,223.07 455.688,222.425 456.05,222.307 
				457.224,219.084 457.215,218.823 456.007,218.415 455.947,219.087 455.957,220.28 455.801,220.579 455.291,220.67 
				454.415,221.36 453.621,222.591 453.13,223.205 453.816,225.494 453.595,225.722 453.079,225.656 451.889,224.839 
				451.31,223.824 450.576,223.504 449.765,222.748 449.39,222.206 448.454,222.103 448.184,222.729 448.029,223.719 			"/>
		</g>
		<g id="LWPOLYLINE_20_">
			
				<polygon fill="none" stroke="#000000" stroke-width="0" stroke-linecap="round" stroke-linejoin="round" stroke-miterlimit="10" points="
				454.321,219.28 453.675,219.952 453.843,220.553 453.166,221.561 452.433,221.241 451.688,221.487 450.677,220.706 
				450.19,219.373 449.781,218.77 449.678,217.601 450.478,216.819 451.598,216.236 452.734,216.123 453.722,217.104 
				454.292,218.444 			"/>
		</g>
	</g>
	<g id="INSERT_6_">
		<g id="LWPOLYLINE_21_">
			
				<polyline fill="none" stroke="#000000" stroke-width="0" stroke-linecap="round" stroke-linejoin="round" stroke-miterlimit="10" points="
				485.218,198.087 483.47,196.157 482.627,195.254 478.688,195.733 477.771,196.177 477.593,197.717 477.906,199.275 			"/>
		</g>
		<g id="LWPOLYLINE_22_">
			
				<polygon fill="none" stroke="#000000" stroke-width="0" stroke-linecap="round" stroke-linejoin="round" stroke-miterlimit="10" points="
				482.079,196.09 482.74,196.351 482.467,196.925 482.629,197.436 483.39,197.148 483.833,197.752 483.777,198.295 
				484.389,198.519 484.271,198.937 485.019,198.874 485.058,199.759 484.509,199.972 484.759,200.47 484.28,201.475 
				483.963,201.431 483.559,202.024 482.984,201.75 482.43,201.919 481.626,202.214 481.046,201.896 480.266,201.118 
				480.046,200.214 480.126,199.534 479.745,198.743 480.342,197.632 480.64,196.609 481.456,196.403 			"/>
		</g>
		<g id="LWPOLYLINE_23_">
			
				<polygon fill="none" stroke="#000000" stroke-width="0" stroke-linecap="round" stroke-linejoin="round" stroke-miterlimit="10" points="
				478.317,189.772 477.185,190.871 476.813,192.306 476.633,193.223 475.675,194.608 474.623,196.274 474.513,197.359 
				475.313,198.892 476.611,200.175 477.279,201.103 478.083,201.121 478.581,200.559 478.037,199.256 476.832,198.005 
				475.815,197.127 475.466,196.865 475.16,196.91 476.021,196.696 476.573,195.592 476.946,194.781 477.264,193.889 
				477.941,193.034 478.589,192.272 478.545,191.967 477.929,192.323 477.642,192.186 477.696,191.332 478.075,190.564 
				478.263,190.315 			"/>
		</g>
		<g id="LWPOLYLINE_24_">
			
				<polygon fill="none" stroke="#000000" stroke-width="0" stroke-linecap="round" stroke-linejoin="round" stroke-miterlimit="10" points="
				482.033,189.905 483.343,190.028 484.328,190.688 485.01,192.015 486.084,193.285 487.325,194.175 487.888,194.985 
				487.461,197.586 486.541,199.857 485.712,199.665 485.268,198.125 485.82,196.709 486.343,195.698 486.592,195.261 
				486.441,195.149 485.617,194.377 484.874,193.237 483.944,192.347 483.127,191.93 482.291,191.382 482.359,191.239 
				483.307,191.325 483.513,191.206 483.294,190.614 482.32,190.354 481.978,190.136 			"/>
		</g>
		<g id="LWPOLYLINE_25_">
			
				<polyline fill="none" stroke="#000000" stroke-width="0" stroke-linecap="round" stroke-linejoin="round" stroke-miterlimit="10" points="
				486.592,199.894 485.801,200.899 485.409,201.891 484.494,202.646 482.568,202.88 480.549,203.082 479.308,203.127 
				477.998,202.38 477.279,201.103 			"/>
		</g>
	</g>
	<g id="INSERT_7_">
		<g id="LWPOLYLINE_26_">
			
				<polyline fill="none" stroke="#000000" stroke-width="0" stroke-linecap="round" stroke-linejoin="round" stroke-miterlimit="10" points="
				464.732,198.087 462.984,196.157 462.142,195.254 458.202,195.733 457.287,196.177 457.107,197.717 457.422,199.275 			"/>
		</g>
		<g id="LWPOLYLINE_27_">
			
				<polygon fill="none" stroke="#000000" stroke-width="0" stroke-linecap="round" stroke-linejoin="round" stroke-miterlimit="10" points="
				461.595,196.09 462.256,196.351 461.981,196.925 462.145,197.436 462.905,197.148 463.349,197.752 463.293,198.295 
				463.904,198.519 463.786,198.937 464.534,198.874 464.573,199.759 464.024,199.972 464.274,200.47 463.796,201.475 
				463.478,201.431 463.073,202.024 462.5,201.75 461.945,201.919 461.141,202.214 460.561,201.896 459.78,201.118 459.562,200.214 
				459.642,199.534 459.26,198.743 459.857,197.632 460.155,196.609 460.972,196.403 			"/>
		</g>
		<g id="LWPOLYLINE_28_">
			
				<polygon fill="none" stroke="#000000" stroke-width="0" stroke-linecap="round" stroke-linejoin="round" stroke-miterlimit="10" points="
				457.833,189.772 456.7,190.871 456.328,192.306 456.148,193.223 455.189,194.608 454.139,196.274 454.027,197.359 
				454.828,198.892 456.126,200.175 456.795,201.103 457.599,201.121 458.097,200.559 457.553,199.256 456.348,198.005 
				455.33,197.127 454.98,196.865 454.676,196.91 455.535,196.696 456.089,195.592 456.462,194.781 456.778,193.889 
				457.457,193.034 458.104,192.272 458.061,191.967 457.443,192.323 457.156,192.186 457.212,191.332 457.591,190.564 
				457.777,190.315 			"/>
		</g>
		<g id="LWPOLYLINE_29_">
			
				<polygon fill="none" stroke="#000000" stroke-width="0" stroke-linecap="round" stroke-linejoin="round" stroke-miterlimit="10" points="
				461.549,189.905 462.858,190.028 463.844,190.688 464.525,192.015 465.599,193.285 466.841,194.175 467.403,194.985 
				466.977,197.586 466.057,199.857 465.228,199.665 464.782,198.125 465.336,196.709 465.857,195.698 466.106,195.261 
				465.957,195.149 465.133,194.377 464.39,193.237 463.46,192.347 462.643,191.93 461.807,191.382 461.875,191.239 
				462.822,191.325 463.028,191.206 462.809,190.614 461.836,190.354 461.493,190.136 			"/>
		</g>
		<g id="LWPOLYLINE_30_">
			
				<polyline fill="none" stroke="#000000" stroke-width="0" stroke-linecap="round" stroke-linejoin="round" stroke-miterlimit="10" points="
				466.106,199.894 465.316,200.899 464.925,201.891 464.01,202.646 462.083,202.88 460.063,203.082 458.823,203.127 
				457.513,202.38 456.795,201.103 			"/>
		</g>
	</g>
	<g id="INSERT_8_">
		<g id="LWPOLYLINE_31_">
			
				<polygon fill="none" stroke="#000000" stroke-width="0" stroke-linecap="round" stroke-linejoin="round" stroke-miterlimit="10" points="
				442.391,92.355 442.989,93.014 443.213,93.718 443.094,94.183 442.969,94.197 442.321,93.437 442.64,94.669 442.517,94.737 
				441.19,92.742 441.311,92.277 440.831,90.567 440.642,89.632 440.751,88.561 441.197,88.158 441.55,87.486 441.784,85.814 
				442.235,84.929 442.621,84.612 443.387,84.062 444.087,83.734 444.478,83.521 444.645,82.605 444.912,80.994 445.393,80.653 
				446.798,81.033 447.915,81.569 449.279,81.971 450.447,83.333 453.287,85.222 453.384,86.101 452.856,87.854 451.632,89.958 
				450.776,91.516 449.114,92.182 448.075,91.203 448.255,90.945 449.24,91.288 449.647,90.959 449.252,91.015 448.938,90.847 
				449.099,90.539 449.893,89.894 450.255,89.776 451.429,86.553 451.42,86.292 450.212,85.884 450.152,86.556 450.162,87.749 
				450.006,88.048 449.496,88.139 448.62,88.829 447.826,90.061 447.335,90.674 448.022,92.963 447.8,93.191 447.284,93.125 
				446.094,92.309 445.515,91.293 444.781,90.973 443.97,90.217 443.595,89.675 442.659,89.572 442.389,90.199 442.234,91.188 			
				"/>
		</g>
		<g id="LWPOLYLINE_32_">
			
				<polygon fill="none" stroke="#000000" stroke-width="0" stroke-linecap="round" stroke-linejoin="round" stroke-miterlimit="10" points="
				448.526,86.75 447.88,87.421 448.048,88.022 447.371,89.03 446.638,88.71 445.893,88.956 444.882,88.175 444.396,86.842 
				443.987,86.239 443.883,85.07 444.683,84.289 445.803,83.705 446.939,83.592 447.927,84.573 448.497,85.913 			"/>
		</g>
	</g>
	<g id="INSERT_9_">
		<g id="LWPOLYLINE_33_">
			
				<polygon fill="none" stroke="#000000" stroke-width="0" stroke-linecap="round" stroke-linejoin="round" stroke-miterlimit="10" points="
				480.288,51.593 479.629,52.192 478.925,52.416 478.46,52.295 478.445,52.17 479.206,51.523 477.974,51.842 477.906,51.718 
				479.9,50.393 480.365,50.512 482.075,50.034 483.011,49.844 484.082,49.953 484.485,50.399 485.157,50.752 486.829,50.987 
				487.714,51.437 488.031,51.824 488.581,52.589 488.909,53.29 489.121,53.68 490.038,53.847 491.648,54.114 491.99,54.594 
				491.61,56 491.074,57.118 490.672,58.482 489.311,59.649 487.421,62.489 486.542,62.586 484.789,62.058 482.685,60.834 
				481.127,59.979 480.461,58.317 481.44,57.277 481.697,57.457 481.355,58.442 481.684,58.85 481.628,58.454 481.796,58.14 
				482.104,58.301 482.749,59.095 482.866,59.457 486.09,60.631 486.351,60.622 486.759,59.415 486.087,59.354 484.894,59.365 
				484.596,59.208 484.504,58.698 483.814,57.822 482.583,57.028 481.969,56.537 479.68,57.224 479.452,57.002 479.518,56.487 
				480.334,55.296 481.351,54.717 481.67,53.983 482.427,53.172 482.968,52.797 483.071,51.862 482.444,51.591 481.455,51.437 			
				"/>
		</g>
		<g id="LWPOLYLINE_34_">
			
				<polygon fill="none" stroke="#000000" stroke-width="0" stroke-linecap="round" stroke-linejoin="round" stroke-miterlimit="10" points="
				485.894,57.729 485.222,57.082 484.621,57.25 483.613,56.573 483.933,55.84 483.687,55.095 484.468,54.084 485.801,53.598 
				486.404,53.189 487.572,53.085 488.354,53.885 488.938,55.005 489.051,56.142 488.07,57.129 486.729,57.699 			"/>
		</g>
	</g>
</g>
<g id="AREAS_COMUNES">
	<g id="LWPOLYLINE">
		
			<rect x="317.51" y="4.093" fill="none" stroke="#00FF7F" stroke-width="0" stroke-linecap="round" stroke-linejoin="round" stroke-miterlimit="10" width="56.133" height="35.083"/>
	</g>
	<g id="LWPOLYLINE_1_">
		
			<rect x="345.577" y="39.176" fill="none" stroke="#00FF7F" stroke-width="0" stroke-linecap="round" stroke-linejoin="round" stroke-miterlimit="10" width="28.067" height="7.017"/>
	</g>
	<g id="LWPOLYLINE_2_">
		
			<rect x="345.577" y="46.193" fill="none" stroke="#00FF7F" stroke-width="0" stroke-linecap="round" stroke-linejoin="round" stroke-miterlimit="10" width="28.067" height="7.017"/>
	</g>
	<g id="LWPOLYLINE_3_">
		
			<rect x="345.577" y="53.209" fill="none" stroke="#00FF7F" stroke-width="0" stroke-linecap="round" stroke-linejoin="round" stroke-miterlimit="10" width="28.067" height="7.017"/>
	</g>
	<g id="LWPOLYLINE_4_">
		
			<rect x="345.577" y="60.226" fill="none" stroke="#00FF7F" stroke-width="0" stroke-linecap="round" stroke-linejoin="round" stroke-miterlimit="10" width="28.067" height="7.017"/>
	</g>
	<g id="LWPOLYLINE_5_">
		
			<rect x="345.577" y="67.243" fill="none" stroke="#00FF7F" stroke-width="0" stroke-linecap="round" stroke-linejoin="round" stroke-miterlimit="10" width="28.067" height="7.017"/>
	</g>
	<g id="LWPOLYLINE_6_">
		
			<rect x="345.577" y="74.259" fill="none" stroke="#00FF7F" stroke-width="0" stroke-linecap="round" stroke-linejoin="round" stroke-miterlimit="10" width="28.067" height="7.017"/>
	</g>
	<g id="LWPOLYLINE_7_">
		
			<rect x="345.577" y="81.276" fill="none" stroke="#00FF7F" stroke-width="0" stroke-linecap="round" stroke-linejoin="round" stroke-miterlimit="10" width="28.067" height="7.017"/>
	</g>
	<g id="LWPOLYLINE_8_">
		
			<rect x="317.51" y="39.176" fill="none" stroke="#00FF7F" stroke-width="0" stroke-linecap="round" stroke-linejoin="round" stroke-miterlimit="10" width="28.066" height="7.017"/>
	</g>
	<g id="LWPOLYLINE_9_">
		
			<rect x="317.51" y="46.193" fill="none" stroke="#00FF7F" stroke-width="0" stroke-linecap="round" stroke-linejoin="round" stroke-miterlimit="10" width="28.066" height="7.017"/>
	</g>
	<g id="LWPOLYLINE_10_">
		
			<rect x="317.51" y="53.209" fill="none" stroke="#00FF7F" stroke-width="0" stroke-linecap="round" stroke-linejoin="round" stroke-miterlimit="10" width="28.066" height="7.017"/>
	</g>
	<g id="LWPOLYLINE_11_">
		
			<rect x="317.51" y="60.226" fill="none" stroke="#00FF7F" stroke-width="0" stroke-linecap="round" stroke-linejoin="round" stroke-miterlimit="10" width="28.066" height="7.017"/>
	</g>
	<g id="LWPOLYLINE_12_">
		
			<rect x="317.51" y="67.243" fill="none" stroke="#00FF7F" stroke-width="0" stroke-linecap="round" stroke-linejoin="round" stroke-miterlimit="10" width="28.066" height="7.017"/>
	</g>
	<g id="LWPOLYLINE_13_">
		
			<rect x="317.51" y="74.259" fill="none" stroke="#00FF7F" stroke-width="0" stroke-linecap="round" stroke-linejoin="round" stroke-miterlimit="10" width="28.066" height="7.017"/>
	</g>
	<g id="LWPOLYLINE_14_">
		
			<rect x="317.51" y="81.276" fill="none" stroke="#00FF7F" stroke-width="0" stroke-linecap="round" stroke-linejoin="round" stroke-miterlimit="10" width="28.066" height="7.017"/>
	</g>
	<g id="MTEXT_3_">
		<text transform="matrix(1 0.0099 -0.0099 1 323.0366 92.7119)" fill="#00FF7F" font-family="'ArialMT'" font-size="5.9275">BAJA</text>
	</g>
	<g id="INSERT_2_">
		<g id="INSERT_1_">
			<g id="LWPOLYLINE_15_">
				
					<path fill="none" stroke="#00FF7F" stroke-width="1.1339" stroke-linecap="round" stroke-linejoin="round" stroke-miterlimit="10" d="
					M239.743,52.815c-0.666,0-1.318-0.192-1.878-0.553c-0.739-0.476-1.368-1.105-1.843-1.845c-0.5-0.778-0.876-1.629-1.114-2.523
					c-0.284-1.065-0.427-2.163-0.427-3.265s0.144-2.2,0.427-3.265c0.238-0.894,0.614-1.745,1.114-2.523
					c0.476-0.74,1.104-1.369,1.843-1.845c0.56-0.361,1.212-0.553,1.878-0.553h6.432v16.372H239.743z"/>
			</g>
			<g id="LWPOLYLINE_16_">
				
					<polyline fill="none" stroke="#00FF7F" stroke-width="1.1339" stroke-linecap="round" stroke-linejoin="round" stroke-miterlimit="10" points="
					243.144,44.173 243.135,43.792 243.081,42.979 242.989,42.21 242.861,41.51 242.697,40.897 242.499,40.368 242.268,39.917 
					242.006,39.537 241.717,39.221 241.401,38.961 241.061,38.752 240.699,38.587 240.318,38.458 239.925,38.364 239.528,38.301 
					239.135,38.266 238.755,38.257 238.395,38.271 238.063,38.305 237.767,38.357 237.513,38.424 237.297,38.508 237.114,38.608 
					236.957,38.726 236.82,38.862 236.698,39.018 236.583,39.193 236.47,39.39 236.354,39.607 236.236,39.846 236.118,40.104 
					236.001,40.38 235.886,40.673 235.777,40.981 235.673,41.304 235.578,41.64 235.493,41.988 235.417,42.346 235.353,42.713 
					235.299,43.087 235.256,43.467 235.226,43.852 235.207,44.24 235.201,44.629 235.207,45.018 235.226,45.406 235.256,45.79 
					235.299,46.17 235.353,46.545 235.417,46.912 235.493,47.27 235.578,47.617 				"/>
			</g>
			<g id="LWPOLYLINE_17_">
				
					<polyline fill="none" stroke="#00FF7F" stroke-width="1.1339" stroke-linecap="round" stroke-linejoin="round" stroke-miterlimit="10" points="
					235.578,47.617 235.673,47.953 235.777,48.276 235.886,48.584 236.001,48.877 236.118,49.153 236.236,49.412 236.354,49.65 
					236.47,49.868 236.583,50.064 236.698,50.24 236.82,50.396 236.957,50.532 237.114,50.649 237.297,50.75 237.513,50.833 
					237.767,50.901 238.063,50.953 238.395,50.987 238.755,51.001 239.135,50.992 239.528,50.957 239.925,50.894 240.318,50.799 
					240.699,50.671 241.061,50.505 241.401,50.296 241.717,50.037 242.006,49.721 242.268,49.34 242.499,48.89 242.697,48.361 
					242.861,47.748 242.989,47.048 243.081,46.279 243.135,45.466 243.144,45.085 				"/>
			</g>
			<g id="INSERT">
				<g id="ARC">
					
						<path fill="none" stroke="#00FF7F" stroke-width="1.1339" stroke-linecap="round" stroke-linejoin="round" stroke-miterlimit="10" d="
						M240.804,44.173c-0.129,0-0.234,0.104-0.234,0.234"/>
				</g>
				<g id="ARC_1_">
					
						<path fill="none" stroke="#00FF7F" stroke-width="1.1339" stroke-linecap="round" stroke-linejoin="round" stroke-miterlimit="10" d="
						M240.57,44.851c0,0.129,0.104,0.234,0.234,0.234"/>
				</g>
				<g id="ARC_2_">
					
						<path fill="none" stroke="#00FF7F" stroke-width="1.1339" stroke-linecap="round" stroke-linejoin="round" stroke-miterlimit="10" d="
						M244.518,44.407c0-0.129-0.104-0.234-0.234-0.234"/>
				</g>
				<g id="ARC_3_">
					
						<path fill="none" stroke="#00FF7F" stroke-width="1.1339" stroke-linecap="round" stroke-linejoin="round" stroke-miterlimit="10" d="
						M244.284,45.085c0.129,0,0.234-0.104,0.234-0.234"/>
				</g>
				<g id="CIRCLE_1_">
					
						<path fill="none" stroke="#00FF7F" stroke-width="1.1339" stroke-linecap="round" stroke-linejoin="round" stroke-miterlimit="10" d="
						M245.239,42.969c0-0.335-0.272-0.608-0.608-0.608s-0.608,0.272-0.608,0.608c0,0.336,0.272,0.608,0.608,0.608
						S245.239,43.305,245.239,42.969L245.239,42.969z"/>
				</g>
				<g id="LINE_1_">
					
						<line fill="none" stroke="#00FF7F" stroke-width="1.1339" stroke-linecap="round" stroke-linejoin="round" stroke-miterlimit="10" x1="244.518" y1="44.851" x2="244.518" y2="44.407"/>
				</g>
				<g id="LINE_2_">
					
						<line fill="none" stroke="#00FF7F" stroke-width="1.1339" stroke-linecap="round" stroke-linejoin="round" stroke-miterlimit="10" x1="240.804" y1="45.085" x2="244.284" y2="45.085"/>
				</g>
				<g id="LINE_3_">
					
						<line fill="none" stroke="#00FF7F" stroke-width="1.1339" stroke-linecap="round" stroke-linejoin="round" stroke-miterlimit="10" x1="240.57" y1="44.407" x2="240.57" y2="44.851"/>
				</g>
				<g id="LINE_4_">
					
						<line fill="none" stroke="#00FF7F" stroke-width="1.1339" stroke-linecap="round" stroke-linejoin="round" stroke-miterlimit="10" x1="244.284" y1="44.173" x2="240.804" y2="44.173"/>
				</g>
				<g id="CIRCLE_2_">
					
						<path fill="none" stroke="#00FF7F" stroke-width="1.1339" stroke-linecap="round" stroke-linejoin="round" stroke-miterlimit="10" d="
						M245.239,46.248c0-0.336-0.272-0.608-0.608-0.608s-0.608,0.272-0.608,0.608s0.272,0.608,0.608,0.608
						S245.239,46.583,245.239,46.248L245.239,46.248z"/>
				</g>
			</g>
			<g id="ARC_4_">
				
					<path fill="none" stroke="#00FF7F" stroke-width="1.1339" stroke-linecap="round" stroke-linejoin="round" stroke-miterlimit="10" d="
					M242.197,44.173c-0.252-0.451-0.822-0.613-1.273-0.361s-0.613,0.822-0.361,1.273s0.822,0.613,1.273,0.361
					c0.151-0.084,0.276-0.209,0.361-0.361"/>
			</g>
		</g>
	</g>
	<g id="INSERT_4_">
		<g id="INSERT_3_">
			<g id="CIRCLE_3_">
				
					<path fill="none" stroke="#00FF7F" stroke-width="1.1339" stroke-linecap="round" stroke-linejoin="round" stroke-miterlimit="10" d="
					M234.779,17.382c3.132,0,5.671-1.865,5.671-4.167c0-2.301-2.54-4.167-5.671-4.167c-3.132,0-5.671,1.866-5.671,4.167
					C229.107,15.517,231.646,17.382,234.779,17.382"/>
			</g>
		</g>
		<g id="LWPOLYLINE_18_">
			
				<path fill="none" stroke="#00FF7F" stroke-width="1.1339" stroke-linecap="round" stroke-linejoin="round" stroke-miterlimit="10" d="
				M245.84,17.942V8.591c0-0.646-0.523-1.169-1.169-1.169h-2.218c-0.646,0-1.169,0.523-1.169,1.169v9.352
				c0,0.646,0.523,1.169,1.169,1.169h2.218C245.316,19.112,245.84,18.588,245.84,17.942z"/>
		</g>
	</g>
	<g id="MTEXT_11_">
		<text transform="matrix(1 0.0052 -0.0052 1 218.2847 61.9893)" fill="#00FF7F" font-family="'ArialMT'" font-size="9.6939">BAÑO </text>
		<text transform="matrix(1 0.0052 -0.0052 1 218.9126 73.0918)" fill="#00FF7F" font-family="'ArialMT'" font-size="9.6939">ADMO.</text>
	</g>
	<g id="MTEXT_12_">
		<text transform="matrix(1 0.0099 -0.0099 1 281.9058 14.7666)" fill="#00FF7F" font-family="'ArialMT'" font-size="5.9275">CLOSET</text>
	</g>
	<g id="MTEXT_13_">
		<text transform="matrix(1 0.0052 -0.0052 1 256.5679 27.583)" fill="#00FF7F" font-family="'ArialMT'" font-size="9.6939">VESTIDOR</text>
		<text transform="matrix(1 0.0052 -0.0052 1 256.5498 38.6807)" fill="#00FF7F" font-family="'ArialMT'" font-size="9.6939"> OFICIALES</text>
	</g>
	<g id="MTEXT_15_">
		
			<text transform="matrix(-1.836970e-016 1 -1 -1.836970e-016 407.7773 34.2139)" fill="#00FF7F" font-family="'ArialMT'" font-size="5.1593">GERENCIA</text>
	</g>
	<g id="MTEXT_16_">
		<text transform="matrix(1 0 0 1 443.9053 37.6631)" fill="#00FF7F" font-family="'ArialMT'" font-size="5.1593">IMPRESORA</text>
	</g>
	<g id="MTEXT_17_">
		<text transform="matrix(1 0 0 1 454.3457 214.2842)" fill="#00FF7F" font-family="'ArialMT'" font-size="5.1593">COMEDOR</text>
		<text transform="matrix(1 0 0 1 466.5059 220.1455)" fill="#00FF7F" font-family="'ArialMT'" font-size="5.1593">15 M2</text>
	</g>
	<g id="LWPOLYLINE_43_">
		
			<rect x="417.497" y="177.17" fill="none" stroke="#00FF7F" stroke-width="0" stroke-linecap="round" stroke-linejoin="round" stroke-miterlimit="10" width="77.768" height="68.876"/>
	</g>
	<g id="LWPOLYLINE_44_">
		
			<rect x="377.151" y="25.728" fill="none" stroke="#00FF7F" stroke-width="0" stroke-linecap="round" stroke-linejoin="round" stroke-miterlimit="10" width="60.004" height="59.057"/>
	</g>
	<g id="LWPOLYLINE_46_">
		
			<polyline fill="none" stroke="#00FF7F" stroke-width="0" stroke-linecap="round" stroke-linejoin="round" stroke-miterlimit="10" points="
			417.497,177.17 417.497,84.784 437.155,84.784 437.155,25.728 480.063,25.728 480.063,45.608 495.265,45.608 495.265,177.17 
			417.497,177.17 		"/>
	</g>
	<g id="LWPOLYLINE_47_">
		
			<polyline fill="none" stroke="#00FF7F" stroke-width="0" stroke-linecap="round" stroke-linejoin="round" stroke-miterlimit="10" points="
			213.43,3.508 213.43,33.914 221.616,33.914 221.616,46.193 213.43,46.193 213.43,83.626 246.175,83.626 246.175,3.508 
			213.43,3.508 		"/>
	</g>
	<g id="LWPOLYLINE_48_">
		
			<polyline fill="none" stroke="#00FF7F" stroke-width="0" stroke-linecap="round" stroke-linejoin="round" stroke-miterlimit="10" points="
			249.683,61.396 314.002,61.396 314.002,4.093 270.733,4.093 270.733,26.313 249.683,26.313 249.683,61.396 		"/>
	</g>
</g>
<g id="AREAS_POLILINEAS">
	<g id="MTEXT_4_">
		<text transform="matrix(1 0 0 1 139.7759 150.8867)" fill="#007FFF" font-family="'ArialMT'" font-size="5.1593">BODEGA 900 </text>
		<text transform="matrix(1 0 0 1 151.4653 156.748)" fill="#007FFF" font-family="'ArialMT'" font-size="5.1593">44.66 m2</text>
	</g>
	<g id="MTEXT_5_">
		<text transform="matrix(1 0 0 1 421.9023 279.333)" fill="#007FFF" font-family="'ArialMT'" font-size="5.1593">BODEGA 903</text>
		<text transform="matrix(1 0 0 1 432.0098 285.1943)" fill="#007FFF" font-family="'ArialMT'" font-size="5.1593">16.59 m2</text>
	</g>
	<g id="MTEXT_6_">
		<text transform="matrix(1 0 0 1 419.8008 393.2715)" fill="#007FFF" font-family="'ArialMT'" font-size="5.1593">BODEGA 902</text>
		<text transform="matrix(1 0 0 1 429.8701 399.1328)" fill="#007FFF" font-family="'ArialMT'" font-size="5.1593">25.50 m2</text>
	</g>
	<g id="MTEXT_7_">
		<text transform="matrix(1 0 0 1 162.4971 305.4795)" fill="#007FFF" font-family="'ArialMT'" font-size="5.1593">BODEGA 901</text>
		<text transform="matrix(1 0 0 1 171.9272 311.3398)" fill="#007FFF" font-family="'ArialMT'" font-size="5.1593">76.60 m2</text>
	</g>
	<g id="MTEXT_8_">
		<text transform="matrix(1 0 0 1 370.5693 384.1445)" fill="#007FFF" font-family="'ArialMT'" font-size="5.1593">SITE</text>
		<text transform="matrix(1 0 0 1 363.7598 390.0059)" fill="#007FFF" font-family="'ArialMT'" font-size="5.1593">4.20 m2</text>
	</g>
	<g id="MTEXT_9_">
		<text transform="matrix(1 0 0 1 363.332 424.7871)" fill="#007FFF" font-family="'ArialMT'" font-size="5.1593">BODEGA 905  </text>
		<text transform="matrix(1 0 0 1 383.189 430.6484)" fill="#007FFF" font-family="'ArialMT'" font-size="5.1593">10 m2</text>
	</g>
	<g id="MTEXT_10_">
		<text transform="matrix(1 0 0 1 349.417 311.875)" fill="#007FFF" font-family="'ArialMT'" font-size="5.1593">BODEGA 906  </text>
		<text transform="matrix(1 0 0 1 369.2744 317.7363)" fill="#007FFF" font-family="'ArialMT'" font-size="5.1593">6.5m2</text>
	</g>
	<g id="MTEXT_14_">
		<text transform="matrix(1 0 0 1 237.668 158.7002)" fill="#007FFF" font-family="'ArialMT'" font-size="5.1593">BODEGA 907</text>
		<text transform="matrix(1 0 0 1 254.5776 164.5615)" fill="#007FFF" font-family="'ArialMT'" font-size="5.1593">14 M2</text>
	</g>
	<g id="MTEXT_18_">
		<text transform="matrix(1 0 0 1 384.7563 199.8945)" fill="#007FFF" font-family="'ArialMT'" font-size="5.1593">BODEGA </text>
		<text transform="matrix(1 0 0 1 398.9092 205.7422)" fill="#007FFF" font-family="'ArialMT'" font-size="5.1593">DE </text>
		<text transform="matrix(1 0 0 1 384.7988 211.6484)" fill="#007FFF" font-family="'ArialMT'" font-size="5.1593">MERCA Y</text>
		<text transform="matrix(1 0 0 1 382.8057 217.5557)" fill="#007FFF" font-family="'ArialMT'" font-size="5.1593"> JURIDICO</text>
		<text transform="matrix(1 0 0 1 392.3623 223.417)" fill="#007FFF" font-family="'ArialMT'" font-size="5.1593">6.6 M2</text>
	</g>
	<g id="MTEXT_19_">
		<text transform="matrix(1 0 0 1 362.6685 212.5654)" fill="#007FFF" font-family="'ArialMT'" font-size="5.1593">BODEGA MANTO</text>
		<text transform="matrix(1 0 0 1 387.7388 218.4268)" fill="#007FFF" font-family="'ArialMT'" font-size="5.1593">6.6 m2</text>
	</g>
	<g id="LWPOLYLINE_36_">
		
			<rect x="297.63" y="281.129" fill="none" stroke="#007FFF" stroke-width="0" stroke-linecap="round" stroke-linejoin="round" stroke-miterlimit="10" width="46.777" height="79.058"/>
	</g>
	<g id="LWPOLYLINE_37_">
		
			<rect x="297.63" y="360.187" fill="none" stroke="#007FFF" stroke-width="0" stroke-linecap="round" stroke-linejoin="round" stroke-miterlimit="10" width="46.777" height="47.947"/>
	</g>
	<g id="LWPOLYLINE_38_">
		
			<rect x="382.999" y="246.046" fill="none" stroke="#007FFF" stroke-width="0" stroke-linecap="round" stroke-linejoin="round" stroke-miterlimit="10" width="112.266" height="83.735"/>
	</g>
	<g id="LWPOLYLINE_39_">
		
			<polygon fill="none" stroke="#007FFF" stroke-width="0" stroke-linecap="round" stroke-linejoin="round" stroke-miterlimit="10" points="
			99.995,244.54 297.63,244.909 297.63,460.759 99.995,460.759 		"/>
	</g>
	<g id="LWPOLYLINE_40_">
		
			<polyline fill="none" stroke="#007FFF" stroke-width="0" stroke-linecap="round" stroke-linejoin="round" stroke-miterlimit="10" points="
			213.43,83.626 278.919,83.615 278.919,208.624 223.955,208.624 223.955,156.12 213.43,156.12 213.43,83.626 		"/>
	</g>
	<g id="LWPOLYLINE_41_">
		
			<polyline fill="none" stroke="#007FFF" stroke-width="0" stroke-linecap="round" stroke-linejoin="round" stroke-miterlimit="10" points="
			317.515,246.046 368.157,246.046 368.157,167.814 317.515,167.814 317.515,246.046 		"/>
	</g>
	<g id="LWPOLYLINE_42_">
		
			<polyline fill="none" stroke="#007FFF" stroke-width="0" stroke-linecap="round" stroke-linejoin="round" stroke-miterlimit="10" points="
			368.157,246.046 417.497,246.046 417.497,167.814 368.157,167.814 368.157,246.046 		"/>
	</g>
	<g id="LWPOLYLINE_45_">
		
			<polyline fill="none" stroke="#007FFF" stroke-width="0" stroke-linecap="round" stroke-linejoin="round" stroke-miterlimit="10" points="
			382.999,329.781 382.999,439.709 385.338,439.709 385.338,460.759 480.063,460.759 480.063,439.709 495.265,439.709 
			495.265,329.781 382.999,329.781 		"/>
	</g>
	<g id="LWPOLYLINE_49_">
		
			<polyline fill="none" stroke="#007FFF" stroke-width="0" stroke-linecap="round" stroke-linejoin="round" stroke-miterlimit="10" points="
			115.198,46.777 99.995,46.777 99.995,244.725 223.955,244.725 223.955,156.12 213.43,156.12 209.922,156.12 209.922,25.728 
			115.198,25.728 115.198,46.777 		"/>
	</g>
	<g id="LWPOLYLINE_50_">
		
			<polyline fill="none" stroke="#007FFF" stroke-width="0" stroke-linecap="round" stroke-linejoin="round" stroke-miterlimit="10" points="
			344.407,380.944 382.999,380.944 382.999,439.708 373.644,439.708 373.644,460.758 297.63,460.758 297.63,408.134 
			344.407,408.134 344.407,380.944 		"/>
	</g>
</g>
</svg>
