<?xml version="1.0" encoding="utf-8"?>
<!-- Generator: Adobe Illustrator 16.0.0, SVG Export Plug-In . SVG Version: 6.00 Build 0)  -->
<!DOCTYPE svg PUBLIC "-//W3C//DTD SVG 1.1//EN" "http://www.w3.org/Graphics/SVG/1.1/DTD/svg11.dtd">
<svg version="1.1" xmlns="http://www.w3.org/2000/svg" xmlns:xlink="http://www.w3.org/1999/xlink" x="0px" y="0px" width="800px"
	 height="600px" viewBox="0 0 800 600" enable-background="new 0 0 800 600" xml:space="preserve">
<g id="AREA__x28_PILILINEA_x29_">
	<g id="MTEXT">
		<text transform="matrix(1 0 0 1 295.0918 92.0532)" fill="#007FFF" font-family="'ArialMT'" font-size="4.0513">Local Media</text>
		<text transform="matrix(1 0 0 1 295.3789 96.6455)" fill="#007FFF" font-family="'ArialMT'" font-size="4.0513">Altura </text>
	</g>
	<g id="MTEXT_1_">
		<text transform="matrix(1 0 0 1 238.6587 92.1592)" fill="#007FFF" font-family="'ArialMT'" font-size="4.0513">Local Media</text>
		<text transform="matrix(1 0 0 1 238.9453 96.751)" fill="#007FFF" font-family="'ArialMT'" font-size="4.0513">Altura </text>
	</g>
	<g id="MTEXT_2_">
		<text transform="matrix(1 0 0 1 178.4849 90.4453)" fill="#007FFF" font-family="'ArialMT'" font-size="4.0513">Local Media</text>
		<text transform="matrix(1 0 0 1 178.7705 95.0371)" fill="#007FFF" font-family="'ArialMT'" font-size="4.0513">Altura </text>
	</g>
	<g id="MTEXT_3_">
		<text transform="matrix(1 0 0 1 118.6797 90.2588)" fill="#007FFF" font-family="'ArialMT'" font-size="4.0513">Local Media</text>
		<text transform="matrix(1 0 0 1 118.9663 94.8496)" fill="#007FFF" font-family="'ArialMT'" font-size="4.0513">Altura </text>
	</g>
	<g id="MTEXT_4_">
		<text transform="matrix(1 0 0 1 412.123 38.5234)" fill="#007FFF" font-family="'ArialMT'" font-size="4.0513">Local </text>
	</g>
	<g id="MTEXT_5_">
		<text transform="matrix(1 0 0 1 412.2412 42.333)" fill="#007FFF" font-family="'ArialMT'" font-size="4.0513">300 </text>
	</g>
	<g id="MTEXT_6_">
		<text transform="matrix(1 0 0 1 351.1758 38.5234)" fill="#007FFF" font-family="'ArialMT'" font-size="4.0513">Local </text>
	</g>
	<g id="MTEXT_7_">
		<text transform="matrix(1 0 0 1 351.2949 42.333)" fill="#007FFF" font-family="'ArialMT'" font-size="4.0513">302 </text>
	</g>
	<g id="MTEXT_8_">
		<text transform="matrix(1 0 0 1 178.958 38.9189)" fill="#007FFF" font-family="'ArialMT'" font-size="4.0513">Local </text>
	</g>
	<g id="MTEXT_9_">
		<text transform="matrix(1 0 0 1 179.0767 42.7266)" fill="#007FFF" font-family="'ArialMT'" font-size="4.0513">308 </text>
	</g>
	<g id="MTEXT_10_">
		<text transform="matrix(1 0 0 1 40.6895 66.7725)" fill="#007FFF" font-family="'ArialMT'" font-size="4.0513">Local </text>
	</g>
	<g id="MTEXT_11_">
		<text transform="matrix(1 0 0 1 40.8076 70.5811)" fill="#007FFF" font-family="'ArialMT'" font-size="4.0513">312 </text>
	</g>
	<g id="MTEXT_12_">
		<text transform="matrix(1 0 0 1 41.9551 105.5625)" fill="#007FFF" font-family="'ArialMT'" font-size="4.0513">Local </text>
	</g>
	<g id="MTEXT_13_">
		<text transform="matrix(1 0 0 1 42.0742 109.3721)" fill="#007FFF" font-family="'ArialMT'" font-size="4.0513">313 </text>
	</g>
	<g id="MTEXT_14_">
		<text transform="matrix(1 0 0 1 41.9375 172.3516)" fill="#007FFF" font-family="'ArialMT'" font-size="4.0513">Local </text>
	</g>
	<g id="MTEXT_15_">
		<text transform="matrix(1 0 0 1 42.0562 176.1611)" fill="#007FFF" font-family="'ArialMT'" font-size="4.0513">314 </text>
	</g>
	<g id="MTEXT_16_">
		<text transform="matrix(1 0 0 1 67.001 208.751)" fill="#007FFF" font-family="'ArialMT'" font-size="4.0513">315 </text>
	</g>
	<g id="MTEXT_17_">
		<text transform="matrix(1 0 0 1 141.6563 207.3076)" fill="#007FFF" font-family="'ArialMT'" font-size="4.0513">Local </text>
	</g>
	<g id="MTEXT_18_">
		<text transform="matrix(1 0 0 1 142.9258 211.1162)" fill="#007FFF" font-family="'ArialMT'" font-size="4.0513">316 </text>
	</g>
	<g id="MTEXT_19_">
		<text transform="matrix(1 0 0 1 200.7529 206.3691)" fill="#007FFF" font-family="'ArialMT'" font-size="4.0513">Local </text>
	</g>
	<g id="MTEXT_20_">
		<text transform="matrix(1 0 0 1 202.4209 210.1787)" fill="#007FFF" font-family="'ArialMT'" font-size="4.0513">317 </text>
	</g>
	<g id="MTEXT_21_">
		<text transform="matrix(1 0 0 1 309.6611 96.7744)" fill="#007FFF" font-family="'ArialMT'" font-size="4.0513">303 </text>
	</g>
	<g id="MTEXT_22_">
		<text transform="matrix(1 0 0 1 191.3115 95.3086)" fill="#007FFF" font-family="'ArialMT'" font-size="4.0513">307 </text>
	</g>
	<g id="MTEXT_23_">
		<text transform="matrix(1 0 0 1 131.9648 94.9395)" fill="#007FFF" font-family="'ArialMT'" font-size="4.0513">309 </text>
	</g>
	<g id="MTEXT_24_">
		<text transform="matrix(1 0 0 1 170.4272 206.3691)" fill="#007FFF" font-family="'ArialMT'" font-size="4.0513">Local </text>
	</g>
	<g id="MTEXT_25_">
		<text transform="matrix(1 0 0 1 171.6953 210.1787)" fill="#007FFF" font-family="'ArialMT'" font-size="4.0513">317 </text>
	</g>
	<g id="MTEXT_26_">
		<text transform="matrix(1 0 0 1 111.0928 207.3076)" fill="#007FFF" font-family="'ArialMT'" font-size="4.0513">Local </text>
	</g>
	<g id="MTEXT_27_">
		<text transform="matrix(1 0 0 1 112.0938 211.1162)" fill="#007FFF" font-family="'ArialMT'" font-size="4.0513">316 </text>
	</g>
	<g id="MTEXT_28_">
		<text transform="matrix(1 0 0 1 205.6318 38.5234)" fill="#007FFF" font-family="'ArialMT'" font-size="4.0513">Local </text>
	</g>
	<g id="MTEXT_29_">
		<text transform="matrix(1 0 0 1 205.751 42.333)" fill="#007FFF" font-family="'ArialMT'" font-size="4.0513">308 </text>
	</g>
	<g id="MTEXT_30_">
		<text transform="matrix(1 0 0 1 236.1802 38.5234)" fill="#007FFF" font-family="'ArialMT'" font-size="4.0513">Local </text>
	</g>
	<g id="MTEXT_31_">
		<text transform="matrix(1 0 0 1 379.813 38.5234)" fill="#007FFF" font-family="'ArialMT'" font-size="4.0513">Local </text>
	</g>
	<g id="MTEXT_32_">
		<text transform="matrix(1 0 0 1 379.9307 42.333)" fill="#007FFF" font-family="'ArialMT'" font-size="4.0513">304 </text>
	</g>
	<g id="MTEXT_33_">
		<text transform="matrix(1 0 0 1 145.9512 38.2373)" fill="#007FFF" font-family="'ArialMT'" font-size="4.0513">Local </text>
	</g>
	<g id="MTEXT_34_">
		<text transform="matrix(1 0 0 1 146.0688 42.0459)" fill="#007FFF" font-family="'ArialMT'" font-size="4.0513">308 </text>
	</g>
	<g id="MTEXT_35_">
		<text transform="matrix(1 0 0 1 41.9551 136.1416)" fill="#007FFF" font-family="'ArialMT'" font-size="4.0513">Local </text>
	</g>
	<g id="MTEXT_36_">
		<text transform="matrix(1 0 0 1 42.9141 139.9502)" fill="#007FFF" font-family="'ArialMT'" font-size="4.0513">313 </text>
	</g>
	<g id="MTEXT_37_">
		<text transform="matrix(1 0 0 1 77.4043 100.499)" fill="#007FFF" font-family="'ArialMT'" font-size="4.0513">Local Media</text>
		<text transform="matrix(1 0 0 1 77.6899 105.0898)" fill="#007FFF" font-family="'ArialMT'" font-size="4.0513">Altura </text>
	</g>
	<g id="MTEXT_38_">
		<text transform="matrix(1 0 0 1 77.6665 138.3418)" fill="#007FFF" font-family="'ArialMT'" font-size="4.0513">Local Media</text>
		<text transform="matrix(1 0 0 1 77.9531 142.9326)" fill="#007FFF" font-family="'ArialMT'" font-size="4.0513">Altura </text>
	</g>
	<g id="MTEXT_39_">
		<text transform="matrix(1 0 0 1 106.2734 160.2969)" fill="#007FFF" font-family="'ArialMT'" font-size="4.0513">Local Media</text>
		<text transform="matrix(1 0 0 1 106.5601 164.8877)" fill="#007FFF" font-family="'ArialMT'" font-size="4.0513">Altura </text>
	</g>
	<g id="MTEXT_40_">
		<text transform="matrix(1 0 0 1 141.3154 159.9277)" fill="#007FFF" font-family="'ArialMT'" font-size="4.0513">Local Media</text>
		<text transform="matrix(1 0 0 1 141.6016 164.5195)" fill="#007FFF" font-family="'ArialMT'" font-size="4.0513">Altura </text>
	</g>
	<g id="MTEXT_41_">
		<text transform="matrix(1 0 0 1 225.957 160.4316)" fill="#007FFF" font-family="'ArialMT'" font-size="4.0513">Local Media</text>
		<text transform="matrix(1 0 0 1 226.2432 165.0234)" fill="#007FFF" font-family="'ArialMT'" font-size="4.0513">Altura </text>
	</g>
	<g id="MTEXT_42_">
		<text transform="matrix(1 0 0 1 265.7295 159.7383)" fill="#007FFF" font-family="'ArialMT'" font-size="4.0513">Local Media</text>
		<text transform="matrix(1 0 0 1 266.0166 164.3291)" fill="#007FFF" font-family="'ArialMT'" font-size="4.0513">Altura </text>
	</g>
	<g id="MTEXT_43_">
		<text transform="matrix(1 0 0 1 304.5088 159.7383)" fill="#007FFF" font-family="'ArialMT'" font-size="4.0513">Local Media</text>
		<text transform="matrix(1 0 0 1 304.7959 164.3291)" fill="#007FFF" font-family="'ArialMT'" font-size="4.0513">Altura </text>
	</g>
	<g id="MTEXT_44_">
		<text transform="matrix(1 0 0 1 230.1816 208.4971)" fill="#007FFF" font-family="'ArialMT'" font-size="4.0513">Local </text>
	</g>
	<g id="MTEXT_45_">
		<text transform="matrix(1 0 0 1 260.5977 206.3691)" fill="#007FFF" font-family="'ArialMT'" font-size="4.0513">Local </text>
	</g>
	<g id="MTEXT_46_">
		<text transform="matrix(1 0 0 1 289.2471 206.3691)" fill="#007FFF" font-family="'ArialMT'" font-size="4.0513">Local </text>
	</g>
	<g id="MTEXT_47_">
		<text transform="matrix(1 0 0 1 318.7441 206.3691)" fill="#007FFF" font-family="'ArialMT'" font-size="4.0513">Local </text>
	</g>
	<g id="MTEXT_48_">
		<text transform="matrix(1 0 0 1 454.3018 35.1084)" fill="#007FFF" font-family="'ArialMT'" font-size="4.0513">Local </text>
	</g>
	<g id="MTEXT_49_">
		<text transform="matrix(1 0 0 1 455.0635 38.917)" fill="#007FFF" font-family="'ArialMT'" font-size="4.0513">300 </text>
	</g>
	<g id="MTEXT_50_">
		<text transform="matrix(1 0 0 1 337.8848 147.3135)" fill="#007FFF" font-family="'ArialMT'" font-size="4.0513">Local Media</text>
		<text transform="matrix(1 0 0 1 338.1709 151.9043)" fill="#007FFF" font-family="'ArialMT'" font-size="4.0513">Altura </text>
	</g>
	<g id="MTEXT_51_">
		<text transform="matrix(1 0 0 1 338.1895 108.0215)" fill="#007FFF" font-family="'ArialMT'" font-size="4.0513">Local Media</text>
		<text transform="matrix(1 0 0 1 338.4756 112.6123)" fill="#007FFF" font-family="'ArialMT'" font-size="4.0513">Altura </text>
	</g>
	<g id="MTEXT_52_">
		<text transform="matrix(1 0 0 1 380.4092 108.7803)" fill="#007FFF" font-family="'ArialMT'" font-size="4.0513">Local Media</text>
		<text transform="matrix(1 0 0 1 380.6953 113.373)" fill="#007FFF" font-family="'ArialMT'" font-size="4.0513">Altura </text>
	</g>
	<g id="MTEXT_53_">
		<text transform="matrix(1 0 0 1 408.1748 109.1611)" fill="#007FFF" font-family="'ArialMT'" font-size="4.0513">Local Media</text>
		<text transform="matrix(1 0 0 1 408.4609 113.7529)" fill="#007FFF" font-family="'ArialMT'" font-size="4.0513">Altura </text>
	</g>
	<g id="MTEXT_54_">
		<text transform="matrix(1 0 0 1 420.6377 157.1348)" fill="#007FFF" font-family="'ArialMT'" font-size="4.0513">Local </text>
	</g>
	<g id="MTEXT_55_">
		<text transform="matrix(1 0 0 1 388.6831 196.3125)" fill="#007FFF" font-family="'ArialMT'" font-size="4.0513">Local </text>
	</g>
	<g id="MTEXT_56_">
		<text transform="matrix(1 0 0 1 466.2207 103.8428)" fill="#007FFF" font-family="'ArialMT'" font-size="4.0513">Local </text>
	</g>
	<g id="MTEXT_57_">
		<text transform="matrix(1 0 0 1 375.9482 241.8896)" fill="#007FFF" font-family="'ArialMT'" font-size="4.0513">Local </text>
	</g>
	<g id="LWPOLYLINE">
		
			<polyline fill="none" stroke="#007FFF" stroke-width="0" stroke-linecap="round" stroke-linejoin="round" stroke-miterlimit="10" points="
			453.526,62.503 484.216,62.503 484.216,17.689 428.561,17.689 428.561,59.83 429.169,59.83 453.526,62.503 		"/>
	</g>
	<g id="LWPOLYLINE_1_">
		
			<polyline fill="none" stroke="#007FFF" stroke-width="0" stroke-linecap="round" stroke-linejoin="round" stroke-miterlimit="10" points="
			428.561,59.83 399.429,59.83 399.429,19.151 402.979,19.151 402.979,17.689 428.561,17.689 428.561,59.83 		"/>
	</g>
	<g id="LWPOLYLINE_2_">
		
			<polyline fill="none" stroke="#007FFF" stroke-width="0" stroke-linecap="round" stroke-linejoin="round" stroke-miterlimit="10" points="
			399.429,59.83 370.298,59.831 370.298,17.689 398.474,17.689 398.474,19.151 399.429,19.151 399.43,59.83 		"/>
	</g>
	<g id="LWPOLYLINE_3_">
		
			<polyline fill="none" stroke="#007FFF" stroke-width="0" stroke-linecap="round" stroke-linejoin="round" stroke-miterlimit="10" points="
			370.298,59.831 341.168,59.831 341.168,17.689 370.298,17.69 370.298,59.831 		"/>
	</g>
	<g id="LWPOLYLINE_4_">
		
			<polyline fill="none" stroke="#007FFF" stroke-width="0" stroke-linecap="round" stroke-linejoin="round" stroke-miterlimit="10" points="
			341.168,59.831 312.037,59.832 312.037,17.69 333.44,17.69 333.44,19.151 337.947,19.151 337.947,17.689 341.168,17.689 
			341.168,59.831 		"/>
	</g>
	<g id="LWPOLYLINE_5_">
		
			<polyline fill="none" stroke="#007FFF" stroke-width="0" stroke-linecap="round" stroke-linejoin="round" stroke-miterlimit="10" points="
			312.037,59.832 282.906,59.832 282.906,17.689 312.037,17.689 312.037,59.832 		"/>
	</g>
	<g id="LWPOLYLINE_6_">
		
			<rect x="223.066" y="17.689" fill="none" stroke="#007FFF" stroke-width="0" stroke-linecap="round" stroke-linejoin="round" stroke-miterlimit="10" width="30.709" height="42.143"/>
	</g>
	<g id="LWPOLYLINE_7_">
		
			<rect x="166.383" y="17.689" fill="none" stroke="#007FFF" stroke-width="0" stroke-linecap="round" stroke-linejoin="round" stroke-miterlimit="10" width="29.131" height="42.144"/>
	</g>
	<g id="LWPOLYLINE_8_">
		
			<rect x="51.263" y="34.375" fill="none" stroke="#007FFF" stroke-width="0" stroke-linecap="round" stroke-linejoin="round" stroke-miterlimit="10" width="7.188" height="17.251"/>
	</g>
	<g id="LWPOLYLINE_9_">
		
			<polyline fill="none" stroke="#007FFF" stroke-width="0" stroke-linecap="round" stroke-linejoin="round" stroke-miterlimit="10" points="
			137.86,17.69 137.86,59.833 166.383,59.833 166.383,17.689 161.115,17.689 161.115,19.151 156.609,19.151 156.609,17.689 
			137.86,17.69 138.834,17.689 		"/>
	</g>
	<g id="LWPOLYLINE_10_">
		
			<polyline fill="none" stroke="#007FFF" stroke-width="0" stroke-linecap="round" stroke-linejoin="round" stroke-miterlimit="10" points="
			195.514,17.69 217.379,17.689 217.379,19.151 221.886,19.151 221.886,17.689 223.066,17.689 223.066,59.832 195.514,59.833 
			195.512,17.69 		"/>
	</g>
	<g id="LWPOLYLINE_11_">
		
			<polyline fill="none" stroke="#007FFF" stroke-width="0" stroke-linecap="round" stroke-linejoin="round" stroke-miterlimit="10" points="
			278.394,19.151 278.394,17.689 253.775,17.689 253.776,59.832 282.906,59.832 282.906,19.151 278.394,19.151 		"/>
	</g>
	<g id="LWPOLYLINE_12_">
		
			<rect x="454.482" y="90.518" fill="none" stroke="#007FFF" stroke-width="0" stroke-linecap="round" stroke-linejoin="round" stroke-miterlimit="10" width="30.951" height="29.344"/>
	</g>
	<g id="LWPOLYLINE_13_">
		
			<rect x="454.482" y="119.858" fill="none" stroke="#007FFF" stroke-width="0" stroke-linecap="round" stroke-linejoin="round" stroke-miterlimit="10" width="30.951" height="29.347"/>
	</g>
	<g id="LWPOLYLINE_14_">
		
			<rect x="400.544" y="149.205" fill="none" stroke="#007FFF" stroke-width="0" stroke-linecap="round" stroke-linejoin="round" stroke-miterlimit="10" width="53.938" height="19.875"/>
	</g>
	<g id="LWPOLYLINE_15_">
		
			<rect x="361.512" y="222.11" fill="none" stroke="#007FFF" stroke-width="0" stroke-linecap="round" stroke-linejoin="round" stroke-miterlimit="10" width="39.032" height="40.732"/>
	</g>
	<g id="LWPOLYLINE_16_">
		
			<polyline fill="none" stroke="#007FFF" stroke-width="0" stroke-linecap="round" stroke-linejoin="round" stroke-miterlimit="10" points="
			385.913,222.11 398.474,222.11 398.474,211.693 400.544,211.693 400.544,149.205 399.937,149.205 385.913,170.765 385.913,222.11 
					"/>
	</g>
	<g id="LWPOLYLINE_17_">
		
			<polyline fill="none" stroke="#007FFF" stroke-width="0" stroke-linecap="round" stroke-linejoin="round" stroke-miterlimit="10" points="
			309.19,193.672 309.19,221.436 339.043,221.436 339.043,206.272 309.19,193.667 		"/>
	</g>
	<g id="LWPOLYLINE_18_">
		
			<rect x="279.033" y="193.667" fill="none" stroke="#007FFF" stroke-width="0" stroke-linecap="round" stroke-linejoin="round" stroke-miterlimit="10" width="30.157" height="27.769"/>
	</g>
	<g id="LWPOLYLINE_19_">
		
			<rect x="249.485" y="193.671" fill="none" stroke="#007FFF" stroke-width="0" stroke-linecap="round" stroke-linejoin="round" stroke-miterlimit="10" width="29.548" height="27.765"/>
	</g>
	<g id="LWPOLYLINE_20_">
		
			<polyline fill="none" stroke="#007FFF" stroke-width="0" stroke-linecap="round" stroke-linejoin="round" stroke-miterlimit="10" points="
			249.485,193.671 220.181,193.67 220.181,219.974 221.886,219.974 221.886,221.436 249.485,221.436 249.485,193.671 		"/>
	</g>
	<g id="LWPOLYLINE_21_">
		
			<polyline fill="none" stroke="#007FFF" stroke-width="0" stroke-linecap="round" stroke-linejoin="round" stroke-miterlimit="10" points="
			220.181,193.67 189.521,193.67 189.521,221.436 217.379,221.436 217.379,219.974 220.181,219.974 220.181,193.67 		"/>
	</g>
	<g id="LWPOLYLINE_22_">
		
			<polyline fill="none" stroke="#007FFF" stroke-width="0" stroke-linecap="round" stroke-linejoin="round" stroke-miterlimit="10" points="
			189.521,193.67 158.862,193.67 158.862,219.974 161.115,219.974 161.115,221.436 189.521,221.436 189.522,193.67 		"/>
	</g>
	<g id="LWPOLYLINE_23_">
		
			<polyline fill="none" stroke="#007FFF" stroke-width="0" stroke-linecap="round" stroke-linejoin="round" stroke-miterlimit="10" points="
			158.862,193.67 129.178,193.67 129.178,221.436 156.609,221.436 156.609,219.974 158.862,219.974 158.862,193.67 		"/>
	</g>
	<g id="LWPOLYLINE_24_">
		
			<polyline fill="none" stroke="#007FFF" stroke-width="0" stroke-linecap="round" stroke-linejoin="round" stroke-miterlimit="10" points="
			129.178,221.436 100.102,221.436 100.102,219.974 99.492,219.974 99.492,193.668 129.178,193.668 129.178,221.436 		"/>
	</g>
	<g id="LWPOLYLINE_25_">
		
			<polyline fill="none" stroke="#007FFF" stroke-width="0" stroke-linecap="round" stroke-linejoin="round" stroke-miterlimit="10" points="
			99.492,219.974 95.595,219.974 95.595,221.436 34.946,221.436 34.946,219.974 33.485,219.974 33.485,194.277 59.303,194.277 
			59.303,193.667 99.492,193.668 99.492,219.974 		"/>
	</g>
	<g id="LWPOLYLINE_26_">
		
			<polyline fill="none" stroke="#007FFF" stroke-width="0" stroke-linecap="round" stroke-linejoin="round" stroke-miterlimit="10" points="
			59.303,154.759 34.946,154.759 34.946,157.012 33.485,157.012 33.485,194.277 59.303,194.277 59.303,154.759 		"/>
	</g>
	<g id="LWPOLYLINE_27_">
		
			<polyline fill="none" stroke="#007FFF" stroke-width="0" stroke-linecap="round" stroke-linejoin="round" stroke-miterlimit="10" points="
			33.485,123.308 33.485,152.506 34.946,152.506 34.946,154.759 59.303,154.759 59.303,123.308 33.485,123.308 		"/>
	</g>
	<g id="LWPOLYLINE_28_">
		
			<polyline fill="none" stroke="#007FFF" stroke-width="0" stroke-linecap="round" stroke-linejoin="round" stroke-miterlimit="10" points="
			34.946,91.857 59.303,91.857 59.303,123.256 33.485,123.308 33.485,95.754 34.946,95.754 34.946,91.857 		"/>
	</g>
	<g id="LWPOLYLINE_29_">
		
			<polyline fill="none" stroke="#007FFF" stroke-width="0" stroke-linecap="round" stroke-linejoin="round" stroke-miterlimit="10" points="
			33.485,51.625 33.485,91.248 34.946,91.248 34.946,91.857 59.303,91.857 59.303,51.625 33.485,51.625 		"/>
	</g>
	<g id="LWPOLYLINE_30_">
		
			<rect x="403.744" y="90.517" fill="none" stroke="#007FFF" stroke-width="0" stroke-linecap="round" stroke-linejoin="round" stroke-miterlimit="10" width="27.861" height="36.768"/>
	</g>
	<g id="LWPOLYLINE_31_">
		
			<rect x="375.882" y="90.517" fill="none" stroke="#007FFF" stroke-width="0" stroke-linecap="round" stroke-linejoin="round" stroke-miterlimit="10" width="27.862" height="36.768"/>
	</g>
	<g id="LWPOLYLINE_32_">
		
			<polyline fill="none" stroke="#007FFF" stroke-width="0" stroke-linecap="round" stroke-linejoin="round" stroke-miterlimit="10" points="
			335.693,126.872 353.961,126.872 353.961,81.997 335.693,81.997 335.693,91.248 337.947,91.248 337.947,95.754 335.693,95.754 
			335.693,126.872 		"/>
	</g>
	<g id="LWPOLYLINE_33_">
		
			<rect x="335.693" y="126.872" fill="none" stroke="#007FFF" stroke-width="0" stroke-linecap="round" stroke-linejoin="round" stroke-miterlimit="10" width="18.268" height="44.876"/>
	</g>
	<g id="LWPOLYLINE_34_">
		
			<rect x="294.754" y="153.967" fill="none" stroke="#007FFF" stroke-width="0" stroke-linecap="round" stroke-linejoin="round" stroke-miterlimit="10" width="40.939" height="17.781"/>
	</g>
	<g id="LWPOLYLINE_35_">
		
			<rect x="253.813" y="153.967" fill="none" stroke="#007FFF" stroke-width="0" stroke-linecap="round" stroke-linejoin="round" stroke-miterlimit="10" width="40.94" height="17.781"/>
	</g>
	<g id="LWPOLYLINE_36_">
		
			<polyline fill="none" stroke="#007FFF" stroke-width="0" stroke-linecap="round" stroke-linejoin="round" stroke-miterlimit="10" points="
			253.813,171.748 212.643,171.748 212.643,157.026 223.347,157.012 223.347,153.967 253.813,153.967 253.813,171.748 		"/>
	</g>
	<g id="LWPOLYLINE_37_">
		
			<polyline fill="none" stroke="#007FFF" stroke-width="0" stroke-linecap="round" stroke-linejoin="round" stroke-miterlimit="10" points="
			168.532,171.748 168.532,157.012 158.07,157.012 158.07,153.967 133.896,153.967 133.896,171.748 168.532,171.748 		"/>
	</g>
	<g id="LWPOLYLINE_38_">
		
			<rect x="99.492" y="153.967" fill="none" stroke="#007FFF" stroke-width="0" stroke-linecap="round" stroke-linejoin="round" stroke-miterlimit="10" width="34.404" height="17.781"/>
	</g>
	<g id="LWPOLYLINE_39_">
		
			<polyline fill="none" stroke="#007FFF" stroke-width="0" stroke-linecap="round" stroke-linejoin="round" stroke-miterlimit="10" points="
			99.492,171.748 81.225,171.748 81.225,126.872 98.762,126.872 98.762,151.826 98.883,151.826 98.883,152.506 95.588,152.506 
			95.595,157.012 99.492,157.012 99.492,171.748 		"/>
	</g>
	<g id="LWPOLYLINE_40_">
		
			<polyline fill="none" stroke="#007FFF" stroke-width="0" stroke-linecap="round" stroke-linejoin="round" stroke-miterlimit="10" points="
			81.225,126.872 81.225,81.997 99.492,81.997 99.492,91.248 95.595,91.248 95.595,95.754 99.492,95.754 99.492,106.095 
			98.762,106.095 98.762,126.872 81.225,126.872 		"/>
	</g>
	<g id="LWPOLYLINE_41_">
		
			<polyline fill="none" stroke="#007FFF" stroke-width="0" stroke-linecap="round" stroke-linejoin="round" stroke-miterlimit="10" points="
			99.492,81.997 99.492,104.279 158.862,104.279 158.862,95.754 156.609,95.754 156.609,91.248 158.862,91.248 158.862,81.997 
			99.492,81.997 		"/>
	</g>
	<g id="LWPOLYLINE_42_">
		
			<polyline fill="none" stroke="#007FFF" stroke-width="0" stroke-linecap="round" stroke-linejoin="round" stroke-miterlimit="10" points="
			219.633,104.279 219.633,95.754 217.379,95.754 217.379,91.248 219.633,91.248 219.633,81.997 158.862,81.997 158.862,91.248 
			161.115,91.248 161.115,95.754 158.862,95.754 158.862,104.279 219.633,104.279 		"/>
	</g>
	<g id="LWPOLYLINE_43_">
		
			<polyline fill="none" stroke="#007FFF" stroke-width="0" stroke-linecap="round" stroke-linejoin="round" stroke-miterlimit="10" points="
			219.633,104.279 219.633,95.754 221.886,95.754 221.886,91.248 219.633,91.248 219.633,81.997 280.647,81.997 280.647,91.248 
			278.394,91.248 278.394,95.754 280.647,95.754 280.647,104.279 219.633,104.279 		"/>
	</g>
	<g id="LWPOLYLINE_44_">
		
			<polyline fill="none" stroke="#007FFF" stroke-width="0" stroke-linecap="round" stroke-linejoin="round" stroke-miterlimit="10" points="
			280.647,81.997 280.647,91.244 282.9,91.248 282.9,95.754 280.647,95.754 280.647,104.279 335.693,104.279 335.693,95.754 
			333.44,95.754 333.44,91.248 335.693,91.248 335.693,81.997 280.647,81.997 		"/>
	</g>
	<g id="TEXT">
		<text transform="matrix(1 0 0 1 452.0938 42.5742)" fill="#007FFF" font-family="'ArialMT'" font-size="2.9179">Area=15.59</text>
	</g>
	<g id="TEXT_1_">
		<text transform="matrix(1 0 0 1 409.7998 44.8164)" fill="#007FFF" font-family="'ArialMT'" font-size="2.9179">Area=8.24</text>
	</g>
	<g id="TEXT_2_">
		<text transform="matrix(1 0 0 1 377.9346 45.4688)" fill="#007FFF" font-family="'ArialMT'" font-size="2.9179">Area=8.27</text>
	</g>
	<g id="TEXT_3_">
		<text transform="matrix(1 0 0 1 350.1318 45.623)" fill="#007FFF" font-family="'ArialMT'" font-size="2.9179">Area=8.28</text>
	</g>
	<g id="TEXT_4_">
		<text transform="matrix(1 0 0 1 320.3213 45.3921)" fill="#007FFF" font-family="'ArialMT'" font-size="2.9179">Area=8.23</text>
	</g>
	<g id="TEXT_5_">
		<text transform="matrix(1 0 0 1 291.6616 45.4238)" fill="#007FFF" font-family="'ArialMT'" font-size="2.9179">Area=8.28</text>
	</g>
	<g id="TEXT_6_">
		<text transform="matrix(1 0 0 1 262.0664 46.2705)" fill="#007FFF" font-family="'ArialMT'" font-size="2.9179">Area=8.23</text>
	</g>
	<g id="TEXT_7_">
		<text transform="matrix(1 0 0 1 233.8672 45.2988)" fill="#007FFF" font-family="'ArialMT'" font-size="2.9179">Area=8.73</text>
	</g>
	<g id="TEXT_8_">
		<text transform="matrix(1 0 0 1 202.0654 46.2393)" fill="#007FFF" font-family="'ArialMT'" font-size="2.9179">Area=7.78</text>
	</g>
	<g id="TEXT_9_">
		<text transform="matrix(1 0 0 1 176.1704 46.3999)" fill="#007FFF" font-family="'ArialMT'" font-size="2.9179">Area=8.28</text>
	</g>
	<g id="TEXT_10_">
		<text transform="matrix(1 0 0 1 144.4385 45.4282)" fill="#007FFF" font-family="'ArialMT'" font-size="2.9179">Area=8.06</text>
	</g>
	<g id="TEXT_11_">
		<text transform="matrix(1 0 0 1 38.916 73.9746)" fill="#007FFF" font-family="'ArialMT'" font-size="2.9179">Area=7.00</text>
	</g>
	<g id="TEXT_12_">
		<text transform="matrix(1 0 0 1 59.082 43.043)" fill="#007FFF" font-family="'ArialMT'" font-size="2.9179">Area=.84</text>
	</g>
	<g id="TEXT_13_">
		<text transform="matrix(1 0 0 1 40.5684 113.8477)" fill="#007FFF" font-family="'ArialMT'" font-size="2.9179">Area=5.43</text>
	</g>
	<g id="TEXT_14_">
		<text transform="matrix(1 0 0 1 40.2417 142.9492)" fill="#007FFF" font-family="'ArialMT'" font-size="2.9179">Area=5.45</text>
	</g>
	<g id="TEXT_15_">
		<text transform="matrix(1 0 0 1 39.5244 178.8672)" fill="#007FFF" font-family="'ArialMT'" font-size="2.9179">Area=6.86</text>
	</g>
	<g id="TEXT_16_">
		<text transform="matrix(1 0 0 1 63.0566 211.771)" fill="#007FFF" font-family="'ArialMT'" font-size="2.9179">Area=12.20</text>
	</g>
	<g id="TEXT_17_">
		<text transform="matrix(1 0 0 1 109.3462 214.458)" fill="#007FFF" font-family="'ArialMT'" font-size="2.9179">Area=5.55</text>
	</g>
	<g id="TEXT_18_">
		<text transform="matrix(1 0 0 1 140.1904 213.8359)" fill="#007FFF" font-family="'ArialMT'" font-size="2.9179">Area=5.54</text>
	</g>
	<g id="TEXT_19_">
		<text transform="matrix(1 0 0 1 168.6035 212.9321)" fill="#007FFF" font-family="'ArialMT'" font-size="2.9179">Area=5.72</text>
	</g>
	<g id="TEXT_20_">
		<text transform="matrix(1 0 0 1 198.8262 213.7188)" fill="#007FFF" font-family="'ArialMT'" font-size="2.9179">Area=5.71</text>
	</g>
	<g id="TEXT_21_">
		<text transform="matrix(1 0 0 1 229.2715 212.4268)" fill="#007FFF" font-family="'ArialMT'" font-size="2.9179">Area=5.47</text>
	</g>
	<g id="TEXT_22_">
		<text transform="matrix(1 0 0 1 258.7314 211.0283)" fill="#007FFF" font-family="'ArialMT'" font-size="2.9179">Area=5.53</text>
	</g>
	<g id="TEXT_23_">
		<text transform="matrix(1 0 0 1 287.8838 211.6704)" fill="#007FFF" font-family="'ArialMT'" font-size="2.9179">Area=5.65</text>
	</g>
	<g id="TEXT_24_">
		<text transform="matrix(1 0 0 1 316.9814 212.8643)" fill="#007FFF" font-family="'ArialMT'" font-size="2.9179">Area=4.32</text>
	</g>
	<g id="TEXT_25_">
		<text transform="matrix(1 0 0 1 339.4912 160.4287)" fill="#007FFF" font-family="'ArialMT'" font-size="2.9179">Area=5.53</text>
	</g>
	<g id="TEXT_26_">
		<text transform="matrix(1 0 0 1 310.416 167.5972)" fill="#007FFF" font-family="'ArialMT'" font-size="2.9179">Area=4.91</text>
	</g>
	<g id="TEXT_27_">
		<text transform="matrix(1 0 0 1 271.751 167.6396)" fill="#007FFF" font-family="'ArialMT'" font-size="2.9179">Area=4.91</text>
	</g>
	<g id="TEXT_28_">
		<text transform="matrix(1 0 0 1 231.1187 168.3984)" fill="#007FFF" font-family="'ArialMT'" font-size="2.9179">Area=4.72</text>
	</g>
	<g id="TEXT_29_">
		<text transform="matrix(1 0 0 1 146.127 167.7358)" fill="#007FFF" font-family="'ArialMT'" font-size="2.9179">Area=3.94</text>
	</g>
	<g id="TEXT_30_">
		<text transform="matrix(1 0 0 1 109.9932 167.8701)" fill="#007FFF" font-family="'ArialMT'" font-size="2.9179">Area=4.12</text>
	</g>
	<g id="TEXT_31_">
		<text transform="matrix(1 0 0 1 83.0908 147.7227)" fill="#007FFF" font-family="'ArialMT'" font-size="2.9179">Area=5.28</text>
	</g>
	<g id="TEXT_32_">
		<text transform="matrix(1 0 0 1 83.8311 110.7139)" fill="#007FFF" font-family="'ArialMT'" font-size="2.9179">Area=5.31</text>
	</g>
	<g id="TEXT_33_">
		<text transform="matrix(1 0 0 1 122.7129 99.1445)" fill="#007FFF" font-family="'ArialMT'" font-size="2.9179">Area=8.85</text>
	</g>
	<g id="TEXT_34_">
		<text transform="matrix(1 0 0 1 181.8652 100.3882)" fill="#007FFF" font-family="'ArialMT'" font-size="2.9179">Area=8.99</text>
	</g>
	<g id="TEXT_35_">
		<text transform="matrix(1 0 0 1 241.1064 100.7959)" fill="#007FFF" font-family="'ArialMT'" font-size="2.9179">Area=9.03</text>
	</g>
	<g id="TEXT_36_">
		<text transform="matrix(1 0 0 1 299.5464 100.5181)" fill="#007FFF" font-family="'ArialMT'" font-size="2.9179">Area=8.13</text>
	</g>
	<g id="TEXT_37_">
		<text transform="matrix(1 0 0 1 338.1084 116.3047)" fill="#007FFF" font-family="'ArialMT'" font-size="2.9179">Area=5.46</text>
	</g>
	<g id="TEXT_38_">
		<text transform="matrix(1 0 0 1 383.6523 117.6357)" fill="#007FFF" font-family="'ArialMT'" font-size="2.9179">Area=6.91</text>
	</g>
	<g id="TEXT_39_">
		<text transform="matrix(1 0 0 1 411.9238 117.4297)" fill="#007FFF" font-family="'ArialMT'" font-size="2.9179">Area=6.91</text>
	</g>
	<g id="TEXT_40_">
		<text transform="matrix(1 0 0 1 419.6465 160.6992)" fill="#007FFF" font-family="'ArialMT'" font-size="2.9179">Area=7.23</text>
	</g>
	<g id="TEXT_41_">
		<text transform="matrix(1 0 0 1 387.4375 201.0557)" fill="#007FFF" font-family="'ArialMT'" font-size="2.9179">Area=6.03</text>
	</g>
	<g id="TEXT_42_">
		<text transform="matrix(1 0 0 1 464.707 136.5078)" fill="#007FFF" font-family="'ArialMT'" font-size="2.9179">Area=6.12</text>
	</g>
	<g id="TEXT_43_">
		<text transform="matrix(1 0 0 1 464.6338 107.6992)" fill="#007FFF" font-family="'ArialMT'" font-size="2.9179">Area=6.12</text>
	</g>
	<g id="TEXT_44_">
		<text transform="matrix(1 0 0 1 373.3545 245.7441)" fill="#007FFF" font-family="'ArialMT'" font-size="2.9179">Area=10.72</text>
	</g>
	<g id="MTEXT_58_">
		<text transform="matrix(1 0 0 1 293.2021 38.5234)" fill="#007FFF" font-family="'ArialMT'" font-size="4.0513">Local </text>
	</g>
	<g id="MTEXT_59_">
		<text transform="matrix(1 0 0 1 293.3203 42.333)" fill="#007FFF" font-family="'ArialMT'" font-size="4.0513">304 </text>
	</g>
	<g id="MTEXT_60_">
		<text transform="matrix(1 0 0 1 66.1675 204.9414)" fill="#007FFF" font-family="'ArialMT'" font-size="4.0513">Local </text>
	</g>
	<g id="MTEXT_61_">
		<text transform="matrix(1 0 0 1 251.6445 97.0059)" fill="#007FFF" font-family="'ArialMT'" font-size="4.0513">305 </text>
	</g>
	<g id="MTEXT_62_">
		<text transform="matrix(1 0 0 1 264.7432 38.5234)" fill="#007FFF" font-family="'ArialMT'" font-size="4.0513">Local </text>
	</g>
	<g id="MTEXT_63_">
		<text transform="matrix(1 0 0 1 264.8613 42.333)" fill="#007FFF" font-family="'ArialMT'" font-size="4.0513">308 </text>
	</g>
	<g id="MTEXT_64_">
		<text transform="matrix(1 0 0 1 236.2979 42.333)" fill="#007FFF" font-family="'ArialMT'" font-size="4.0513">306 </text>
	</g>
	<g id="MTEXT_65_">
		<text transform="matrix(1 0 0 1 320.873 38.5234)" fill="#007FFF" font-family="'ArialMT'" font-size="4.0513">Local </text>
	</g>
	<g id="MTEXT_66_">
		<text transform="matrix(1 0 0 1 320.9912 42.333)" fill="#007FFF" font-family="'ArialMT'" font-size="4.0513">304 </text>
	</g>
	<g id="MTEXT_67_">
		
			<text transform="matrix(6.123234e-017 -1 1 6.123234e-017 56.3496 48.3389)" fill="#007FFF" font-family="'ArialMT'" font-size="4.0513">Vitrina</text>
	</g>
	<g id="MTEXT_68_">
		<text transform="matrix(1 0 0 1 465.874 132.8506)" fill="#007FFF" font-family="'ArialMT'" font-size="4.0513">Local </text>
	</g>
	<g id="TEXT_60_">
		<text transform="matrix(1 0 0 1 611.918 189.7212)" fill="#007FFF" font-family="'ArialMT'" font-size="2.9179">Area=34,28</text>
	</g>
	<g id="TEXT_61_">
		<text transform="matrix(1 0 0 1 612.9922 431.8623)" fill="#007FFF" font-family="'ArialMT'" font-size="2.9179">Area=53,81</text>
	</g>
	<g id="LWPOLYLINE_62_">
		
			<polyline fill="none" stroke="#007FFF" stroke-width="1.1339" stroke-linecap="round" stroke-linejoin="round" stroke-miterlimit="10" points="
			353.119,407.393 396.769,406.751 396.769,462.326 477.491,462.103 477.491,463.523 542.18,463.523 542.18,461.96 546.32,461.96 
			546.32,462.569 596.684,462.569 608.497,462.569 608.497,461.96 611.419,461.96 611.419,459.89 639.606,459.888 639.606,474.747 
			661.529,474.747 661.529,527.724 353.17,527.724 353.119,407.393 		"/>
	</g>
	<g id="LWPOLYLINE_63_">
		
			<polyline fill="none" stroke="#007FFF" stroke-width="0" stroke-linecap="round" stroke-linejoin="round" stroke-miterlimit="10" points="
			622.557,151.531 643.87,213.032 643.87,215.468 		"/>
	</g>
	<g id="LWPOLYLINE_64_">
		
			<polyline fill="none" stroke="#007FFF" stroke-width="0" stroke-linecap="round" stroke-linejoin="round" stroke-miterlimit="10" points="
			612.638,215.468 612.638,213.397 608.497,213.397 608.497,215.468 		"/>
	</g>
	<g id="LWPOLYLINE_65_">
		
			<polyline fill="none" stroke="#007FFF" stroke-width="0" stroke-linecap="round" stroke-linejoin="round" stroke-miterlimit="10" points="
			598.145,215.468 598.145,151.531 608.497,151.531 608.497,155.063 612.64,155.063 612.64,151.531 622.557,151.531 		"/>
	</g>
	<g id="LWPOLYLINE_66_">
		
			<polyline fill="none" stroke="#007FFF" stroke-width="0" stroke-linecap="round" stroke-linejoin="round" stroke-miterlimit="10" points="
			598.145,215.468 598.145,277.579 608.497,277.55 608.497,275.508 612.638,275.508 612.638,277.579 643.871,277.579 
			643.871,215.468 		"/>
	</g>
	<g id="LWPOLYLINE_67_">
		
			<polyline fill="none" stroke="#007FFF" stroke-width="0" stroke-linecap="round" stroke-linejoin="round" stroke-miterlimit="10" points="
			612.638,215.468 612.638,217.538 608.497,217.538 608.497,215.468 		"/>
	</g>
	<g id="LWPOLYLINE_68_">
		
			<line fill="none" stroke="#007FFF" stroke-width="0" stroke-linecap="round" stroke-linejoin="round" stroke-miterlimit="10" x1="643.871" y1="277.579" x2="643.87" y2="339.688"/>
	</g>
	<g id="LWPOLYLINE_69_">
		
			<polyline fill="none" stroke="#007FFF" stroke-width="0" stroke-linecap="round" stroke-linejoin="round" stroke-miterlimit="10" points="
			612.638,339.688 612.638,337.618 608.497,337.618 608.497,339.688 		"/>
	</g>
	<g id="LWPOLYLINE_70_">
		
			<polyline fill="none" stroke="#007FFF" stroke-width="0" stroke-linecap="round" stroke-linejoin="round" stroke-miterlimit="10" points="
			598.145,339.688 598.145,277.55 608.497,277.55 608.497,279.648 612.638,279.648 612.638,277.579 643.87,277.579 		"/>
	</g>
	<g id="LWPOLYLINE_71_">
		
			<line fill="none" stroke="#007FFF" stroke-width="0" stroke-linecap="round" stroke-linejoin="round" stroke-miterlimit="10" x1="643.87" y1="339.688" x2="639.603" y2="401.801"/>
	</g>
	<g id="LWPOLYLINE_72_">
		
			<polyline fill="none" stroke="#007FFF" stroke-width="0" stroke-linecap="round" stroke-linejoin="round" stroke-miterlimit="10" points="
			612.638,401.801 612.638,399.729 608.497,399.729 608.497,401.798 		"/>
	</g>
	<g id="LWPOLYLINE_73_">
		
			<line fill="none" stroke="#007FFF" stroke-width="0" stroke-linecap="round" stroke-linejoin="round" stroke-miterlimit="10" x1="598.145" y1="401.798" x2="598.145" y2="339.688"/>
	</g>
	<g id="LWPOLYLINE_74_">
		
			<polyline fill="none" stroke="#007FFF" stroke-width="0" stroke-linecap="round" stroke-linejoin="round" stroke-miterlimit="10" points="
			608.497,339.688 608.497,341.759 612.638,341.759 612.638,339.688 		"/>
	</g>
	<g id="LWPOLYLINE_75_">
		<path fill="none" stroke="#007FFF" stroke-width="0" stroke-linecap="round" stroke-linejoin="round" stroke-miterlimit="10" d="
			M643.87,339.689"/>
	</g>
	<g id="LWPOLYLINE_76_">
		
			<polyline fill="none" stroke="#007FFF" stroke-width="0" stroke-linecap="round" stroke-linejoin="round" stroke-miterlimit="10" points="
			598.145,462.569 608.497,462.569 608.497,461.96 611.419,461.96 611.419,459.89 639.606,459.888 639.603,401.801 		"/>
	</g>
	<g id="LWPOLYLINE_77_">
		
			<polyline fill="none" stroke="#007FFF" stroke-width="0" stroke-linecap="round" stroke-linejoin="round" stroke-miterlimit="10" points="
			612.638,401.801 612.638,403.869 608.497,403.869 608.497,401.798 		"/>
	</g>
	<g id="LWPOLYLINE_78_">
		
			<line fill="none" stroke="#007FFF" stroke-width="0" stroke-linecap="round" stroke-linejoin="round" stroke-miterlimit="10" x1="598.145" y1="401.798" x2="598.145" y2="462.569"/>
	</g>
	<g id="LWPOLYLINE_79_">
		
			<polygon fill="none" stroke="#007FFF" stroke-width="1.1339" stroke-linecap="round" stroke-linejoin="round" stroke-miterlimit="10" points="
			612.638,399.729 612.638,401.801 612.638,403.869 608.497,403.869 608.497,401.798 608.497,399.729 		"/>
	</g>
	<g id="LWPOLYLINE_80_">
		
			<polygon fill="none" stroke="#007FFF" stroke-width="1.1339" stroke-linecap="round" stroke-linejoin="round" stroke-miterlimit="10" points="
			612.638,337.618 612.638,339.688 612.638,341.759 608.497,341.759 608.497,339.688 608.497,337.618 		"/>
	</g>
	<g id="LWPOLYLINE_81_">
		
			<polygon fill="none" stroke="#007FFF" stroke-width="1.1339" stroke-linecap="round" stroke-linejoin="round" stroke-miterlimit="10" points="
			643.871,277.579 612.638,277.579 612.638,279.648 608.497,279.648 608.497,277.55 598.145,277.579 598.145,339.688 
			598.145,401.798 598.145,462.569 608.497,462.569 608.497,461.96 611.419,461.96 611.419,459.89 639.606,459.888 639.603,401.801 
			643.87,339.688 		"/>
	</g>
	<g id="LWPOLYLINE_82_">
		
			<polygon fill="none" stroke="#007FFF" stroke-width="1.1339" stroke-linecap="round" stroke-linejoin="round" stroke-miterlimit="10" points="
			612.638,213.397 612.638,215.468 612.638,217.538 608.497,217.538 608.497,215.468 608.497,213.397 		"/>
	</g>
	<g id="LWPOLYLINE_83_">
		
			<polygon fill="none" stroke="#007FFF" stroke-width="1.1339" stroke-linecap="round" stroke-linejoin="round" stroke-miterlimit="10" points="
			622.557,151.531 612.64,151.531 612.64,155.063 608.497,155.063 608.497,151.531 598.145,151.531 598.145,215.468 598.145,277.55 
			608.497,277.55 608.497,275.508 612.638,275.508 612.638,277.579 643.871,277.579 643.871,215.468 643.87,213.032 		"/>
	</g>
	<g id="TEXT_62_">
		<text transform="matrix(1 0 0 1 480.6025 510.7471)" fill="#007FFF" font-family="'ArialMT'" font-size="2.9179">Area=150,31</text>
	</g>
	<g id="TEXT_63_">
		<text transform="matrix(1 0 0 1 480.7764 502.4268)" fill="#007FFF" font-family="'ArialMT'" font-size="2.9179">BODEGA 263</text>
	</g>
	<g id="TEXT_64_">
		<text transform="matrix(1 0 0 1 612.4736 425.8252)" fill="#007FFF" font-family="'ArialMT'" font-size="2.9179">BODEGA 262</text>
	</g>
	<g id="TEXT_65_">
		<text transform="matrix(1 0 0 1 610.2988 183.5244)" fill="#007FFF" font-family="'ArialMT'" font-size="2.9179">BODEGA 262</text>
	</g>
</g>
<g id="AREAS_COMUNES_x28_BAÑOS-MUROS-OFICINAS-ESCALERAS-PREDIO_x29_">
	<g id="LWPOLYLINE_98_">
		
			<rect x="689.615" y="39.099" fill="none" stroke="#00FF7F" stroke-width="0" stroke-linecap="round" stroke-linejoin="round" stroke-miterlimit="10" width="47.054" height="37.9"/>
	</g>
	<g id="LWPOLYLINE_97_">
		
			<polyline fill="none" stroke="#00FF7F" stroke-width="0" stroke-linecap="round" stroke-linejoin="round" stroke-miterlimit="10" points="
			442.194,201.814 442.194,190.854 402.979,190.854 402.979,261.367 440.124,261.367 440.124,246.158 430.625,246.158 
			430.625,211.678 439.759,211.678 439.759,201.814 442.194,201.814 		"/>
	</g>
	<g id="LWPOLYLINE_96_">
		
			<polyline fill="none" stroke="#00FF7F" stroke-width="0" stroke-linecap="round" stroke-linejoin="round" stroke-miterlimit="10" points="
			473.636,210.705 461.335,210.705 461.335,214.114 433.061,214.114 433.061,243.723 486.401,243.723 486.401,215.833 
			477.491,215.833 477.491,217.253 473.636,217.253 473.636,210.705 		"/>
	</g>
	<g id="LWPOLYLINE_95_">
		
			<rect x="486.401" y="197.688" fill="none" stroke="#00FF7F" stroke-width="0" stroke-linecap="round" stroke-linejoin="round" stroke-miterlimit="10" width="55.778" height="15.71"/>
	</g>
	<g id="LWPOLYLINE_94_">
		
			<rect x="623.775" y="93.805" fill="none" stroke="#00FF7F" stroke-width="0" stroke-linecap="round" stroke-linejoin="round" stroke-miterlimit="10" width="31.055" height="54.803"/>
	</g>
	<g id="LWPOLYLINE_93_">
		
			<rect x="665.79" y="153.602" fill="none" stroke="#00FF7F" stroke-width="0" stroke-linecap="round" stroke-linejoin="round" stroke-miterlimit="10" width="13.274" height="63.937"/>
	</g>
	<g id="LWPOLYLINE_92_">
		
			<polyline fill="none" stroke="#00FF7F" stroke-width="0" stroke-linecap="round" stroke-linejoin="round" stroke-miterlimit="10" points="
			106.313,17.689 106.313,57.878 100.059,57.878 100.059,81.997 136.643,81.997 136.643,17.69 106.313,17.689 		"/>
	</g>
	<g id="LWPOLYLINE_91_">
		
			<polyline fill="none" stroke="#00FF7F" stroke-width="0" stroke-linecap="round" stroke-linejoin="round" stroke-miterlimit="10" points="
			96.204,48.38 96.204,19.151 35.065,19.151 35.065,34.375 80.126,34.375 80.126,48.38 96.204,48.38 		"/>
	</g>
	<g id="LWPOLYLINE_90_">
		
			<polyline fill="none" stroke="#00FF7F" stroke-width="0" stroke-linecap="round" stroke-linejoin="round" stroke-miterlimit="10" points="
			661.529,474.747 677.848,474.747 677.848,524.68 661.529,524.68 661.529,474.747 		"/>
	</g>
	<g id="LWPOLYLINE_89_">
		
			<polyline fill="none" stroke="#00FF7F" stroke-width="0" stroke-linecap="round" stroke-linejoin="round" stroke-miterlimit="10" points="
			661.529,410.932 661.529,461.107 679.064,461.107 679.064,410.932 661.529,410.932 		"/>
	</g>
	<g id="LWPOLYLINE_88_">
		
			<polyline fill="none" stroke="#00FF7F" stroke-width="0" stroke-linecap="round" stroke-linejoin="round" stroke-miterlimit="10" points="
			353.17,524.68 335.713,524.68 335.713,523.868 334.902,523.868 334.902,465.958 353.17,465.958 353.17,524.68 		"/>
	</g>
	<g id="LWPOLYLINE_87_">
		
			<polyline fill="none" stroke="#00FF7F" stroke-width="0" stroke-linecap="round" stroke-linejoin="round" stroke-miterlimit="10" points="
			352.561,454.897 334.902,454.897 334.902,410.606 335.713,410.606 335.713,407.4 352.561,407.4 352.561,454.897 		"/>
	</g>
	<g id="LWPOLYLINE_86_">
		
			<polyline fill="none" stroke="#00FF7F" stroke-width="0" stroke-linecap="round" stroke-linejoin="round" stroke-miterlimit="10" points="
			168.471,142.154 212.679,142.154 212.679,152.262 211.461,152.262 211.461,169.543 200.939,169.543 200.939,171.748 
			188.273,171.748 188.273,169.543 169.689,169.543 169.689,152.262 168.471,152.262 168.471,142.154 		"/>
	</g>
	<g id="LWPOLYLINE_85_">
		
			<polyline fill="none" stroke="#00FF7F" stroke-width="0" stroke-linecap="round" stroke-linejoin="round" stroke-miterlimit="10" points="
			453.526,62.503 453.526,90.517 485.434,90.517 485.434,62.503 453.522,62.503 		"/>
	</g>
	<g id="TEXT_80_">
		<text transform="matrix(1 0 0 1 411.4199 230.2139)" fill="#00FF7F" font-family="'ArialMT'" font-size="5.5967">W.C.</text>
	</g>
	<g id="TEXT_79_">
		<text transform="matrix(1 0 0 1 654.8496 503.9531)" fill="#00FF7F" font-family="'ArialMT'" font-size="7.4683">Escalera</text>
	</g>
	<g id="TEXT_78_">
		<text transform="matrix(1 0 0 1 654.9971 439.918)" fill="#00FF7F" font-family="'ArialMT'" font-size="7.4683">Escalera</text>
	</g>
	<g id="TEXT_77_">
		<text transform="matrix(1 0 0 1 655.2549 185.2744)" fill="#00FF7F" font-family="'ArialMT'" font-size="7.4683">Escalera</text>
	</g>
	<g id="TEXT_76_">
		<text transform="matrix(1 0 0 1 700.8164 58.5156)" fill="#00FF7F" font-family="'ArialMT'" font-size="7.4683">Escalera</text>
	</g>
	<g id="TEXT_75_">
		<text transform="matrix(1 0 0 1 625.3691 123.6523)" fill="#00FF7F" font-family="'ArialMT'" font-size="7.4683">Escalera</text>
	</g>
	<g id="TEXT_74_">
		<text transform="matrix(1 0 0 1 337.0781 434.3418)" fill="#00FF7F" font-family="'ArialMT'" font-size="7.4683">Escalera</text>
	</g>
	<g id="TEXT_73_">
		<text transform="matrix(1 0 0 1 338.0581 501.3955)" fill="#00FF7F" font-family="'ArialMT'" font-size="7.4683">Escalera</text>
	</g>
	<g id="TEXT_72_">
		<text transform="matrix(1 0 0 1 501.5244 206.4102)" fill="#00FF7F" font-family="'ArialMT'" font-size="7.4683">Escalera</text>
	</g>
	<g id="TEXT_71_">
		<text transform="matrix(1 0 0 1 455.8408 82.6162)" fill="#00FF7F" font-family="'ArialMT'" font-size="7.4683">Escalera</text>
	</g>
	<g id="TEXT_70_">
		<text transform="matrix(1 0 0 1 54.2456 27.6592)" fill="#00FF7F" font-family="'ArialMT'" font-size="7.4683">Escalera</text>
	</g>
	<g id="TEXT_69_">
		<text transform="matrix(1 0 0 1 107.6738 51.0479)" fill="#00FF7F" font-family="'ArialMT'" font-size="7.4683">Escalera</text>
	</g>
	<g id="LWPOLYLINE_59_">
		
			<rect x="339.043" y="226.307" fill="none" stroke="#00FF7F" stroke-width="0" stroke-linecap="round" stroke-linejoin="round" stroke-miterlimit="10" width="22.469" height="36.536"/>
	</g>
	<g id="TEXT_68_">
		<text transform="matrix(1 0 0 1 334.1396 248.3164)" fill="#00FF7F" font-family="'ArialMT'" font-size="7.4683">Escalera</text>
	</g>
	<g id="TEXT_67_">
		<text transform="matrix(1 0 0 1 175.7822 157.3574)" fill="#00FF7F" font-family="'ArialMT'" font-size="7.4683">Elevador</text>
	</g>
	<g id="TEXT_66_">
		<text transform="matrix(1 0 0 1 455.2959 230.2139)" fill="#00FF7F" font-family="'ArialMT'" font-size="5.5967">W.C.</text>
	</g>
</g>
<g id="_x30_">
</g>
</svg>
