<?xml version="1.0" encoding="utf-8"?>
<!-- Generator: Adobe Illustrator 16.0.0, SVG Export Plug-In . SVG Version: 6.00 Build 0)  -->
<!DOCTYPE svg PUBLIC "-//W3C//DTD SVG 1.1//EN" "http://www.w3.org/Graphics/SVG/1.1/DTD/svg11.dtd">
<svg version="1.1" xmlns="http://www.w3.org/2000/svg" xmlns:xlink="http://www.w3.org/1999/xlink" x="0px" y="0px" width="800px"
	 height="600px" viewBox="0 0 800 600" enable-background="new 0 0 800 600" xml:space="preserve">
<g id="AREA__x28_PILILINEA_x29_">
	<g id="TEXT">
		<text transform="matrix(1 0 0 1 327.7227 243.626)" fill="#007FFF" font-family="'ArialMT'" font-size="2.8163">Local 419</text>
	</g>
	<g id="TEXT_1_">
		<text transform="matrix(1 0 0 1 280.312 244.8374)" fill="#007FFF" font-family="'ArialMT'" font-size="2.8163">Local 418</text>
	</g>
	<g id="TEXT_2_">
		<text transform="matrix(1 0 0 1 240.9473 247.8945)" fill="#007FFF" font-family="'ArialMT'" font-size="2.8163">Local 417</text>
	</g>
	<g id="TEXT_3_">
		<text transform="matrix(1 0 0 1 115.2471 245.4199)" fill="#007FFF" font-family="'ArialMT'" font-size="2.8163">Local 413</text>
	</g>
	<g id="TEXT_4_">
		<text transform="matrix(1 0 0 1 72.3452 244.6426)" fill="#007FFF" font-family="'ArialMT'" font-size="2.8163">Local 412</text>
	</g>
	<g id="TEXT_5_">
		<text transform="matrix(1 0 0 1 28.0303 244.3794)" fill="#007FFF" font-family="'ArialMT'" font-size="2.8163">Local 411</text>
	</g>
	<g id="TEXT_6_">
		<text transform="matrix(1 0 0 1 152.5938 252.332)" fill="#007FFF" font-family="'ArialMT'" font-size="2.8163">Local 414</text>
	</g>
	<g id="TEXT_7_">
		<text transform="matrix(1 0 0 1 208.2896 252.4111)" fill="#007FFF" font-family="'ArialMT'" font-size="2.8163">Local 416</text>
	</g>
	<g id="TEXT_8_">
		<text transform="matrix(1 0 0 1 136.9956 75.7837)" fill="#007FFF" font-family="'ArialMT'" font-size="2.8163">Local 402</text>
	</g>
	<g id="TEXT_9_">
		<text transform="matrix(1 0 0 1 167.2427 75.2583)" fill="#007FFF" font-family="'ArialMT'" font-size="2.8163">Local 403</text>
	</g>
	<g id="TEXT_10_">
		<text transform="matrix(1 0 0 1 198.6196 74.4712)" fill="#007FFF" font-family="'ArialMT'" font-size="2.8163">Local 404</text>
	</g>
	<g id="TEXT_11_">
		<text transform="matrix(1 0 0 1 228.7744 74.6055)" fill="#007FFF" font-family="'ArialMT'" font-size="2.8163">Local 405</text>
	</g>
	<g id="TEXT_12_">
		<text transform="matrix(1 0 0 1 323.666 73.8613)" fill="#007FFF" font-family="'ArialMT'" font-size="2.8163">Local 408</text>
	</g>
	<g id="TEXT_13_">
		<text transform="matrix(1 0 0 1 358.4185 72.2739)" fill="#007FFF" font-family="'ArialMT'" font-size="2.8163">Local 409</text>
	</g>
	<g id="TEXT_14_">
		<text transform="matrix(1 0 0 1 427.8398 60.6074)" fill="#007FFF" font-family="'ArialMT'" font-size="2.8163">Local 411</text>
	</g>
	<g id="MTEXT">
		<text transform="matrix(1 0 0 1 549.4971 57.1064)" fill="#007FFF" font-family="'ArialMT'" font-size="4.5086">Local </text>
	</g>
	<g id="MTEXT_1_">
		<text transform="matrix(1 0 0 1 584.8682 57.1064)" fill="#007FFF" font-family="'ArialMT'" font-size="4.5086">Local </text>
	</g>
	<g id="MTEXT_2_">
		<text transform="matrix(1 0 0 1 625.6914 57.1064)" fill="#007FFF" font-family="'ArialMT'" font-size="4.5086">Local </text>
	</g>
	<g id="MTEXT_3_">
		<text transform="matrix(1 0 0 1 663.293 57.1064)" fill="#007FFF" font-family="'ArialMT'" font-size="4.5086">Local </text>
	</g>
	<g id="MTEXT_4_">
		<text transform="matrix(1 0 0 1 704.2578 57.1064)" fill="#007FFF" font-family="'ArialMT'" font-size="4.5086">Local </text>
	</g>
	<g id="TEXT_15_">
		<text transform="matrix(1 0 0 1 181.6929 252.2505)" fill="#007FFF" font-family="'ArialMT'" font-size="2.8163">Local 415</text>
	</g>
	<g id="TEXT_16_">
		<text transform="matrix(1 0 0 1 261.5083 74.562)" fill="#007FFF" font-family="'ArialMT'" font-size="2.8163">Local 406</text>
	</g>
	<g id="TEXT_17_">
		<text transform="matrix(1 0 0 1 293.6719 73.8398)" fill="#007FFF" font-family="'ArialMT'" font-size="2.8163">Local 407</text>
	</g>
	<g id="TEXT_18_">
		<text transform="matrix(1 0 0 1 66.0132 74.8672)" fill="#007FFF" font-family="'ArialMT'" font-size="2.8163">Local 401</text>
	</g>
	<g id="TEXT_19_">
		<text transform="matrix(1 0 0 1 391.1094 67.7358)" fill="#007FFF" font-family="'ArialMT'" font-size="2.8163">Local 410</text>
	</g>
	<g id="TEXT_20_">
		<text transform="matrix(1 0 0 1 63.5337 78.9292)" fill="#007FFF" font-family="'ArialMT'" font-size="3.2473">Area=11.73</text>
	</g>
	<g id="LWPOLYLINE">
		
			<polyline fill="none" stroke="#007FFF" stroke-width="0" stroke-linecap="round" stroke-linejoin="round" stroke-miterlimit="10" points="
			742.633,69.406 742.633,63.945 738.024,63.945 738.024,60.218 729.538,60.218 729.538,45.581 689.447,45.581 689.447,69.406 
			726.89,69.406 726.89,67.615 736.592,67.615 736.592,69.406 742.633,69.406 		"/>
	</g>
	<g id="LWPOLYLINE_1_">
		
			<polyline fill="none" stroke="#007FFF" stroke-width="0" stroke-linecap="round" stroke-linejoin="round" stroke-miterlimit="10" points="
			689.447,69.406 689.447,45.581 657.644,45.581 657.644,48.156 651.681,48.156 651.681,45.581 649.355,45.581 649.355,69.406 
			689.447,69.406 		"/>
	</g>
	<g id="LWPOLYLINE_2_">
		
			<polyline fill="none" stroke="#007FFF" stroke-width="0" stroke-linecap="round" stroke-linejoin="round" stroke-miterlimit="10" points="
			649.355,69.406 609.266,69.406 609.266,45.581 649.355,45.581 649.355,69.406 		"/>
	</g>
	<g id="LWPOLYLINE_3_">
		
			<polyline fill="none" stroke="#007FFF" stroke-width="0" stroke-linecap="round" stroke-linejoin="round" stroke-miterlimit="10" points="
			609.266,69.406 609.266,45.581 583.839,45.581 583.839,48.156 577.876,48.156 577.876,45.581 569.174,45.581 569.174,69.406 
			609.266,69.406 		"/>
	</g>
	<g id="LWPOLYLINE_4_">
		
			<polyline fill="none" stroke="#007FFF" stroke-width="0" stroke-linecap="round" stroke-linejoin="round" stroke-miterlimit="10" points="
			569.174,69.406 553.684,69.406 529.083,55.204 542.038,45.581 569.174,45.581 569.174,69.406 		"/>
	</g>
	<g id="LWPOLYLINE_5_">
		
			<polyline fill="none" stroke="#007FFF" stroke-width="0" stroke-linecap="round" stroke-linejoin="round" stroke-miterlimit="10" points="
			463.621,48.698 463.646,55.188 414.583,87.213 414.559,87.65 413.88,87.65 413.919,45.581 418.624,45.581 418.624,47.207 
			419.98,47.207 419.98,48.698 463.621,48.698 		"/>
	</g>
	<g id="LWPOLYLINE_6_">
		
			<polyline fill="none" stroke="#007FFF" stroke-width="0" stroke-linecap="round" stroke-linejoin="round" stroke-miterlimit="10" points="
			381.536,45.581 381.536,93.553 413.88,87.65 413.919,45.581 381.536,45.581 		"/>
	</g>
	<g id="LWPOLYLINE_7_">
		
			<polyline fill="none" stroke="#007FFF" stroke-width="0" stroke-linecap="round" stroke-linejoin="round" stroke-miterlimit="10" points="
			348.689,45.581 381.536,45.581 381.536,93.553 346.861,99.794 346.334,99.794 346.182,47.207 348.689,47.207 348.689,45.581 		"/>
	</g>
	<g id="LWPOLYLINE_8_">
		
			<polyline fill="none" stroke="#007FFF" stroke-width="0" stroke-linecap="round" stroke-linejoin="round" stroke-miterlimit="10" points="
			315,45.579 343.675,45.581 343.674,47.207 346.182,47.2 346.334,99.749 315,99.794 315,45.581 		"/>
	</g>
	<g id="LWPOLYLINE_9_">
		
			<polyline fill="none" stroke="#007FFF" stroke-width="0" stroke-linecap="round" stroke-linejoin="round" stroke-miterlimit="10" points="
			315,99.794 283.819,99.794 283.819,45.581 284.989,45.581 284.989,47.207 290.003,47.207 290.003,45.581 315,45.581 315,99.794 		
			"/>
	</g>
	<g id="LWPOLYLINE_10_">
		
			<rect x="252.638" y="45.579" fill="none" stroke="#007FFF" stroke-width="0" stroke-linecap="round" stroke-linejoin="round" stroke-miterlimit="10" width="31.182" height="54.215"/>
	</g>
	<g id="LWPOLYLINE_11_">
		
			<polyline fill="none" stroke="#007FFF" stroke-width="0" stroke-linecap="round" stroke-linejoin="round" stroke-miterlimit="10" points="
			222.101,45.58 222.101,47.207 221.456,47.207 221.456,99.794 252.638,99.794 252.638,45.581 222.101,45.58 		"/>
	</g>
	<g id="LWPOLYLINE_12_">
		
			<polyline fill="none" stroke="#007FFF" stroke-width="0" stroke-linecap="round" stroke-linejoin="round" stroke-miterlimit="10" points="
			128.59,99.793 159.094,99.794 159.094,45.581 154.533,45.581 154.533,47.207 149.455,47.207 149.455,45.581 128.59,45.581 
			128.59,99.794 		"/>
	</g>
	<g id="LWPOLYLINE_13_">
		
			<polyline fill="none" stroke="#007FFF" stroke-width="0" stroke-linecap="round" stroke-linejoin="round" stroke-miterlimit="10" points="
			92.792,99.794 92.803,45.581 86.568,45.581 86.568,47.207 81.553,47.207 81.553,45.581 52.888,45.581 52.888,99.794 
			92.792,99.794 		"/>
	</g>
	<g id="LWPOLYLINE_14_">
		
			<polyline fill="none" stroke="#007FFF" stroke-width="0" stroke-linecap="round" stroke-linejoin="round" stroke-miterlimit="10" points="
			52.888,99.794 12.432,99.793 12.432,47.207 14.058,47.207 14.058,45.581 52.888,45.581 52.887,99.794 		"/>
	</g>
	<g id="LWPOLYLINE_15_">
		
			<polyline fill="none" stroke="#007FFF" stroke-width="0" stroke-linecap="round" stroke-linejoin="round" stroke-miterlimit="10" points="
			352.484,277.749 377.151,277.749 354.683,220.96 304.582,220.96 304.582,269.617 343.675,269.617 343.675,267.991 
			348.689,267.991 348.689,270.498 352.484,270.498 352.484,277.749 		"/>
	</g>
	<g id="LWPOLYLINE_16_">
		
			<polyline fill="none" stroke="#007FFF" stroke-width="0" stroke-linecap="round" stroke-linejoin="round" stroke-miterlimit="10" points="
			304.582,220.96 265.84,220.96 265.84,269.617 284.989,269.617 284.989,267.991 290.003,267.991 290.003,269.617 304.582,269.617 
			304.582,220.96 		"/>
	</g>
	<g id="LWPOLYLINE_17_">
		
			<polyline fill="none" stroke="#007FFF" stroke-width="0" stroke-linecap="round" stroke-linejoin="round" stroke-miterlimit="10" points="
			265.84,269.617 265.84,220.96 235.734,220.981 226.421,237.089 227.1,237.089 227.1,269.617 265.84,269.617 		"/>
	</g>
	<g id="LWPOLYLINE_18_">
		
			<polyline fill="none" stroke="#007FFF" stroke-width="0" stroke-linecap="round" stroke-linejoin="round" stroke-miterlimit="10" points="
			227.1,269.617 222.101,269.617 222.101,267.991 217.086,267.991 217.086,269.617 199.537,269.617 199.537,237.089 227.1,237.089 
			227.1,269.617 		"/>
	</g>
	<g id="LWPOLYLINE_19_">
		
			<polyline fill="none" stroke="#007FFF" stroke-width="0" stroke-linecap="round" stroke-linejoin="round" stroke-miterlimit="10" points="
			199.537,269.617 171.974,269.617 171.975,237.089 199.537,237.089 199.537,269.617 		"/>
	</g>
	<g id="LWPOLYLINE_20_">
		
			<polyline fill="none" stroke="#007FFF" stroke-width="0" stroke-linecap="round" stroke-linejoin="round" stroke-miterlimit="10" points="
			171.974,269.617 154.47,269.617 154.47,267.991 149.455,267.991 149.455,269.617 144.411,269.617 144.411,237.088 
			171.975,237.089 171.974,269.617 		"/>
	</g>
	<g id="LWPOLYLINE_21_">
		
			<polyline fill="none" stroke="#007FFF" stroke-width="0" stroke-linecap="round" stroke-linejoin="round" stroke-miterlimit="10" points="
			144.411,237.088 143.733,237.088 130.822,220.96 100.418,220.96 100.418,269.617 144.411,269.617 144.411,237.088 		"/>
	</g>
	<g id="LWPOLYLINE_22_">
		
			<polyline fill="none" stroke="#007FFF" stroke-width="0" stroke-linecap="round" stroke-linejoin="round" stroke-miterlimit="10" points="
			100.418,220.96 56.425,220.961 56.425,269.617 81.553,269.617 81.553,267.991 86.568,267.991 86.568,269.617 100.418,269.617 
			100.417,220.96 		"/>
	</g>
	<g id="LWPOLYLINE_23_">
		
			<polyline fill="none" stroke="#007FFF" stroke-width="0" stroke-linecap="round" stroke-linejoin="round" stroke-miterlimit="10" points="
			56.425,220.961 12.432,220.961 12.432,267.991 14.058,267.991 14.058,269.617 56.425,269.617 56.424,220.961 		"/>
	</g>
	<g id="TEXT_21_">
		<text transform="matrix(1 0 0 1 23.3843 76.7656)" fill="#007FFF" font-family="'ArialMT'" font-size="3.2473">Area=11.93</text>
	</g>
	<g id="TEXT_22_">
		<text transform="matrix(1 0 0 1 135.7646 81.5259)" fill="#007FFF" font-family="'ArialMT'" font-size="3.2473">Area=8.96</text>
	</g>
	<g id="TEXT_23_">
		<text transform="matrix(1 0 0 1 165.8091 79.8062)" fill="#007FFF" font-family="'ArialMT'" font-size="3.2473">Area=9.20</text>
	</g>
	<g id="TEXT_24_">
		<text transform="matrix(1 0 0 1 227.813 78.7021)" fill="#007FFF" font-family="'ArialMT'" font-size="3.2473">Area=9.20</text>
	</g>
	<g id="TEXT_25_">
		<text transform="matrix(1 0 0 1 197.7861 79.2324)" fill="#007FFF" font-family="'ArialMT'" font-size="3.2473">Area=9.16</text>
	</g>
	<g id="TEXT_26_">
		<text transform="matrix(1 0 0 1 260.1826 77.7383)" fill="#007FFF" font-family="'ArialMT'" font-size="3.2473">Area=9.20</text>
	</g>
	<g id="TEXT_27_">
		<text transform="matrix(1 0 0 1 292.9204 77.4805)" fill="#007FFF" font-family="'ArialMT'" font-size="3.2473">Area=9.16</text>
	</g>
	<g id="TEXT_28_">
		<text transform="matrix(1 0 0 1 322.5796 77.7339)" fill="#007FFF" font-family="'ArialMT'" font-size="3.2473">Area=9.20</text>
	</g>
	<g id="TEXT_29_">
		<text transform="matrix(1 0 0 1 356.6543 76.8643)" fill="#007FFF" font-family="'ArialMT'" font-size="3.2473">Area=9.80</text>
	</g>
	<g id="TEXT_30_">
		<text transform="matrix(1 0 0 1 390.1997 71.708)" fill="#007FFF" font-family="'ArialMT'" font-size="3.2473">Area=7.93</text>
	</g>
	<g id="TEXT_31_">
		<text transform="matrix(1 0 0 1 426.3398 65.0806)" fill="#007FFF" font-family="'ArialMT'" font-size="3.2473">Area=6.25</text>
	</g>
	<g id="TEXT_32_">
		<text transform="matrix(1 0 0 1 547.4482 60.9385)" fill="#007FFF" font-family="'ArialMT'" font-size="3.2473">Area=3.91</text>
	</g>
	<g id="TEXT_33_">
		<text transform="matrix(1 0 0 1 582.5166 60.6592)" fill="#007FFF" font-family="'ArialMT'" font-size="3.2473">Area=5.12</text>
	</g>
	<g id="TEXT_34_">
		<text transform="matrix(1 0 0 1 661.5459 61.3447)" fill="#007FFF" font-family="'ArialMT'" font-size="3.2473">Area=5.12</text>
	</g>
	<g id="TEXT_35_">
		<text transform="matrix(1 0 0 1 624.4785 61.4229)" fill="#007FFF" font-family="'ArialMT'" font-size="3.2473">Area=5.20</text>
	</g>
	<g id="TEXT_36_">
		<text transform="matrix(1 0 0 1 702.3926 61.2104)" fill="#007FFF" font-family="'ArialMT'" font-size="3.2473">Area=5.67</text>
	</g>
	<g id="TEXT_37_">
		<text transform="matrix(1 0 0 1 325.5137 247.9502)" fill="#007FFF" font-family="'ArialMT'" font-size="3.2473">Area=16.81</text>
	</g>
	<g id="TEXT_38_">
		<text transform="matrix(1 0 0 1 277.7212 249.6406)" fill="#007FFF" font-family="'ArialMT'" font-size="3.2473">Area=10.22</text>
	</g>
	<g id="TEXT_39_">
		<text transform="matrix(1 0 0 1 240.0498 251.5415)" fill="#007FFF" font-family="'ArialMT'" font-size="3.2473">Area=9.91</text>
	</g>
	<g id="TEXT_40_">
		<text transform="matrix(1 0 0 1 206.5396 256.7383)" fill="#007FFF" font-family="'ArialMT'" font-size="3.2473">Area=4.84</text>
	</g>
	<g id="TEXT_41_">
		<text transform="matrix(1 0 0 1 180.9565 256.2744)" fill="#007FFF" font-family="'ArialMT'" font-size="3.2473">Area=4.88</text>
	</g>
	<g id="TEXT_42_">
		<text transform="matrix(1 0 0 1 150.915 256.584)" fill="#007FFF" font-family="'ArialMT'" font-size="3.2473">Area=4.84</text>
	</g>
	<g id="TEXT_43_">
		<text transform="matrix(1 0 0 1 114.2134 249.4438)" fill="#007FFF" font-family="'ArialMT'" font-size="3.2473">Area=11.03</text>
	</g>
	<g id="TEXT_44_">
		<text transform="matrix(1 0 0 1 69.936 249.6431)" fill="#007FFF" font-family="'ArialMT'" font-size="3.2473">Area=11.61</text>
	</g>
	<g id="TEXT_45_">
		<text transform="matrix(1 0 0 1 25.9473 249.3745)" fill="#007FFF" font-family="'ArialMT'" font-size="3.2473">Area=11.64</text>
	</g>
	<g id="LWPOLYLINE_24_">
		
			<polyline fill="none" stroke="#007FFF" stroke-width="0" stroke-linecap="round" stroke-linejoin="round" stroke-miterlimit="10" points="
			190.275,45.581 190.275,99.794 221.456,99.794 221.456,47.207 217.086,47.207 217.086,45.581 190.275,45.58 		"/>
	</g>
	<g id="LWPOLYLINE_25_">
		
			<polyline fill="none" stroke="#007FFF" stroke-width="0" stroke-linecap="round" stroke-linejoin="round" stroke-miterlimit="10" points="
			190.275,45.581 159.094,45.581 159.092,99.794 190.275,99.793 190.275,45.581 		"/>
	</g>
</g>
<g id="AREAS_COMUNES_x28_BAÑOS-MUROS-OFICINAS-ESCALERAS-PREDIO_x29_">
	<g id="LWPOLYLINE_53_">
		
			<rect x="436.108" y="353.919" fill="none" stroke="#00FF7F" stroke-width="0" stroke-linecap="round" stroke-linejoin="round" stroke-miterlimit="10" width="39.304" height="41.337"/>
	</g>
	<g id="LWPOLYLINE_52_">
		
			<rect x="483.951" y="353.919" fill="none" stroke="#00FF7F" stroke-width="0" stroke-linecap="round" stroke-linejoin="round" stroke-miterlimit="10" width="18.32" height="41.337"/>
	</g>
	<g id="LWPOLYLINE_51_">
		
			<rect x="352.484" y="275.701" fill="none" stroke="#00FF7F" stroke-width="0" stroke-linecap="round" stroke-linejoin="round" stroke-miterlimit="10" width="49.334" height="42.708"/>
	</g>
	<g id="LWPOLYLINE_50_">
		
			<rect x="667.328" y="130.289" fill="none" stroke="#00FF7F" stroke-width="0" stroke-linecap="round" stroke-linejoin="round" stroke-miterlimit="10" width="37.948" height="59.635"/>
	</g>
	<g id="LWPOLYLINE_49_">
		
			<rect x="744.853" y="69.406" fill="none" stroke="#00FF7F" stroke-width="0" stroke-linecap="round" stroke-linejoin="round" stroke-miterlimit="10" width="50.147" height="42.179"/>
	</g>
	<g id="LWPOLYLINE_48_">
		
			<rect x="462.943" y="55.182" fill="none" stroke="#00FF7F" stroke-width="0" stroke-linecap="round" stroke-linejoin="round" stroke-miterlimit="10" width="57.686" height="33.905"/>
	</g>
	<g id="LWPOLYLINE_47_">
		
			<rect x="461.995" y="89.087" fill="none" stroke="#00FF7F" stroke-width="0" stroke-linecap="round" stroke-linejoin="round" stroke-miterlimit="10" width="50.012" height="33.883"/>
	</g>
	<g id="LWPOLYLINE_46_">
		
			<rect x="94.159" y="45.581" fill="none" stroke="#00FF7F" stroke-width="0" stroke-linecap="round" stroke-linejoin="round" stroke-miterlimit="10" width="33.076" height="54.213"/>
	</g>
	<g id="LWPOLYLINE_45_">
		
			<polyline fill="none" stroke="#00FF7F" stroke-width="0" stroke-linecap="round" stroke-linejoin="round" stroke-miterlimit="10" points="
			161.03,180.436 161.03,191.686 162.385,191.686 162.385,210.917 183.068,210.917 183.068,213.371 197.164,213.371 
			197.164,210.917 208.874,210.917 208.874,191.686 210.229,191.686 210.229,180.436 161.03,180.436 		"/>
	</g>
	<g id="LWPOLYLINE_43_">
		
			<polyline fill="none" stroke="#00FF7F" stroke-width="0" stroke-linecap="round" stroke-linejoin="round" stroke-miterlimit="10" points="
			570.964,229.742 570.964,236.519 580.451,236.519 580.451,263.383 504.982,263.383 504.982,194.654 519.24,194.654 519.24,199.56 
			521.95,199.56 521.95,194.654 578.554,194.654 578.554,196.551 580.451,196.551 580.451,220.254 570.964,220.254 570.964,227.031 
			517.97,227.031 517.97,229.742 536.178,229.742 536.178,242.678 538.889,242.678 538.889,229.742 570.964,229.742 		"/>
	</g>
	<g id="LWPOLYLINE_42_">
		
			<polyline fill="none" stroke="#00FF7F" stroke-width="0" stroke-linecap="round" stroke-linejoin="round" stroke-miterlimit="10" points="
			512.007,122.97 512.007,89.087 520.629,89.087 520.629,55.204 529.083,55.204 553.683,69.406 744.853,69.406 744.853,118.904 
			742.633,118.904 742.633,119.243 738.024,119.243 738.024,122.97 729.538,122.97 729.538,130.289 712.054,130.289 712.054,122.97 
			512.007,122.97 		"/>
	</g>
	<g id="LWPOLYLINE_41_">
		
			<rect x="352.484" y="483.353" fill="none" stroke="#00FF7F" stroke-width="0" stroke-linecap="round" stroke-linejoin="round" stroke-miterlimit="10" width="22.769" height="61.397"/>
	</g>
	<g id="TEXT_69_">
		
			<text transform="matrix(-1.836970e-016 1 -1 -1.836970e-016 547.3271 239.6987)" fill="#00FF7F" font-family="'ArialMT'" font-size="12.4571">wc</text>
	</g>
	<g id="TEXT_68_">
		
			<text transform="matrix(-1.836970e-016 1 -1 -1.836970e-016 547.667 200.5127)" fill="#00FF7F" font-family="'ArialMT'" font-size="12.4571">wc</text>
	</g>
	<g id="TEXT_67_">
		<text transform="matrix(1 0 0 1 672.0781 163.5059)" fill="#00FF7F" font-family="'ArialMT'" font-size="8.3115">Escalera</text>
	</g>
	<g id="TEXT_66_">
		<text transform="matrix(1 0 0 1 754.626 91.8413)" fill="#00FF7F" font-family="'ArialMT'" font-size="8.3115">Escalera</text>
	</g>
	<g id="TEXT_65_">
		<text transform="matrix(1 0 0 1 475.6777 80.0674)" fill="#00FF7F" font-family="'ArialMT'" font-size="8.3115">Escalera</text>
	</g>
	<g id="TEXT_64_">
		<text transform="matrix(1 0 0 1 441.6074 375.6152)" fill="#00FF7F" font-family="'ArialMT'" font-size="8.3115">Escalera</text>
	</g>
	<g id="TEXT_63_">
		<text transform="matrix(1 0 0 1 348.0972 520.7295)" fill="#00FF7F" font-family="'ArialMT'" font-size="8.3115">Escalera</text>
	</g>
	<g id="TEXT_62_">
		<text transform="matrix(1 0 0 1 360.5542 299.4458)" fill="#00FF7F" font-family="'ArialMT'" font-size="8.3115">Escalera</text>
	</g>
	<g id="TEXT_61_">
		<text transform="matrix(1 0 0 1 95.7886 72.8784)" fill="#00FF7F" font-family="'ArialMT'" font-size="8.3115">Escalera</text>
	</g>
	<g id="TEXT_60_">
		<text transform="matrix(1 0 0 1 480.2021 376.1719)" fill="#00FF7F" font-family="'ArialMT'" font-size="8.3115">Escalera</text>
	</g>
	<g id="TEXT_59_">
		<text transform="matrix(1 0 0 1 521.6982 410.1113)" fill="#00FF7F" font-family="'ArialMT'" font-size="15.9037">PATIO</text>
	</g>
	<g id="LWPOLYLINE_26_">
		
			<polyline fill="none" stroke="#00FF7F" stroke-width="0" stroke-linecap="round" stroke-linejoin="round" stroke-miterlimit="10" points="
			504.982,540.164 506.563,540.164 506.563,541.745 578.554,541.745 578.554,540.006 580.451,540.006 580.451,475.356 
			578.554,475.356 578.554,470.748 580.451,470.748 580.451,406.235 578.554,406.235 578.554,401.626 580.451,401.626 
			580.451,337.113 578.554,337.113 578.554,332.504 580.451,332.504 580.451,267.991 578.554,267.991 578.554,266.093 
			506.563,266.093 506.563,267.673 504.982,267.673 504.982,312.74 506.563,312.74 506.563,317.03 504.982,317.03 504.982,354.769 
			506.563,354.769 506.563,359.06 504.982,359.06 504.982,418.319 506.563,418.319 506.563,422.611 504.982,422.611 
			504.982,478.564 506.563,478.564 506.563,482.855 504.982,482.855 504.982,540.164 		"/>
	</g>
	<g id="TEXT_58_">
		<text transform="matrix(1 0 0 1 170.1714 197.8438)" fill="#00FF7F" font-family="'ArialMT'" font-size="8.3115">Elevador</text>
	</g>
	<g id="MTEXT_5_">
		<text transform="matrix(1 0 0 1 136.4253 162.3799)" fill="#00FF7F" font-family="'ArialMT'" font-size="6.6072">AREA DE MESAS Y CIRCULACION</text>
	</g>
</g>
<g id="_x30_">
</g>
</svg>
