<?xml version="1.0" encoding="utf-8"?>
<!-- Generator: Adobe Illustrator 16.0.0, SVG Export Plug-In . SVG Version: 6.00 Build 0)  -->
<!DOCTYPE svg PUBLIC "-//W3C//DTD SVG 1.1//EN" "http://www.w3.org/Graphics/SVG/1.1/DTD/svg11.dtd">
<svg version="1.1" xmlns="http://www.w3.org/2000/svg" xmlns:xlink="http://www.w3.org/1999/xlink" x="0px" y="0px" width="800px"
	 height="600px" viewBox="0 0 800 600" enable-background="new 0 0 800 600" xml:space="preserve">
<g id="AREAS_COMUNES_x28_BAÑOS-MUROS-OFICINAS-ESCALERAS-PREDIO_x29_">
	<g id="LWPOLYLINE_1_">
		
			<rect x="177.088" y="191.728" fill="none" stroke="#00FF7F" stroke-width="0" stroke-linecap="round" stroke-linejoin="round" stroke-miterlimit="10" width="47.478" height="53.863"/>
	</g>
	<g id="LWPOLYLINE_2_">
		
			<rect x="234.879" y="191.728" fill="none" stroke="#00FF7F" stroke-width="0" stroke-linecap="round" stroke-linejoin="round" stroke-miterlimit="10" width="22.13" height="53.863"/>
	</g>
	<g id="TEXT">
		<text transform="matrix(1 0 0 1 236.5151 343.3389)" fill="#00FF7F" font-family="'ArialMT'" font-size="17.8827">631.31 m2</text>
	</g>
	<g id="TEXT_1_">
		<text transform="matrix(1 0 0 1 230.9038 362.3389)" fill="#00FF7F" font-family="'ArialMT'" font-size="17.8827">AREA TOTAL</text>
	</g>
	<g id="TEXT_2_">
		<text transform="matrix(1 0 0 1 311.8569 73.8281)" fill="#00FF7F" font-family="'ArialMT'" font-size="15.0475">wc</text>
	</g>
	<g id="TEXT_3_">
		<text transform="matrix(1 0 0 1 296.541 23.2959)" fill="#00FF7F" font-family="'ArialMT'" font-size="15.0475">wc</text>
	</g>
	<g id="LWPOLYLINE_3_">
		
			<polyline fill="none" stroke="#00FF7F" stroke-width="0" stroke-linecap="round" stroke-linejoin="round" stroke-miterlimit="10" points="
			260.284,3.274 260.284,86.295 262.192,86.295 262.192,88.204 271.388,88.204 271.388,91.478 286.123,91.478 286.123,86.295 
			351.446,86.295 351.446,55.753 339.985,55.753 339.985,47.568 301.24,47.568 301.24,63.194 297.966,63.194 297.966,47.568 
			275.973,47.568 275.973,44.293 339.985,44.293 339.985,36.107 351.446,36.107 351.446,5.566 349.154,5.566 349.154,3.274 
			260.284,3.274 		"/>
	</g>
	<g id="TEXT_4_">
		<text transform="matrix(1 0 0 1 182.2827 224.6367)" fill="#00FF7F" font-family="'ArialMT'" font-size="10.0398">Escalera</text>
	</g>
	<g id="TEXT_5_">
		<text transform="matrix(1 0 0 1 227.9976 225.2822)" fill="#00FF7F" font-family="'ArialMT'" font-size="10.0398">Escalera</text>
	</g>
	<g id="LWPOLYLINE_4_">
		
			<polyline fill="none" stroke="#00FF7F" stroke-width="0" stroke-linecap="round" stroke-linejoin="round" stroke-miterlimit="10" points="
			354.72,172.982 354.72,426.006 352.755,426.006 352.755,501.644 355.539,501.644 355.539,504.754 437.486,504.754 
			437.486,501.644 444.689,501.644 444.689,504.754 531.533,504.754 531.533,501.644 534.645,501.644 534.645,426.006 
			533.171,426.006 533.171,420.439 534.727,420.439 534.645,342.348 533.171,342.348 533.171,336.781 534.645,336.781 
			534.645,258.852 533.171,258.852 533.171,253.286 534.645,253.286 534.645,175.356 533.171,175.356 533.171,172.982 
			354.72,172.982 		"/>
	</g>
	<g id="TEXT_6_">
		<text transform="matrix(1 0 0 1 402.8027 349.0352)" fill="#00FF7F" font-family="'ArialMT'" font-size="15.0475">Herramientas</text>
	</g>
	<g id="TEXT_7_">
		<text transform="matrix(1 0 0 1 402.3262 358.793)" fill="#00FF7F" font-family="'ArialMT'" font-size="7.5237">Techado en lamina acanalada</text>
	</g>
	<g id="TEXT_8_">
		<text transform="matrix(1 0 0 1 83.9927 461.1074)" fill="#00FF7F" font-family="'ArialMT'" font-size="15.0475">Electrico</text>
	</g>
	<g id="TEXT_9_">
		<text transform="matrix(1 0 0 1 232.853 472.3994)" fill="#00FF7F" font-family="'ArialMT'" font-size="11.2856">Ganchos</text>
	</g>
	<g id="TEXT_10_">
		<text transform="matrix(1 0 0 1 76.7866 358.5889)" fill="#00FF7F" font-family="'ArialMT'" font-size="3.7619">Vestidor</text>
	</g>
	<g id="TEXT_11_">
		<text transform="matrix(1 0 0 1 104.4634 368.5332)" fill="#00FF7F" font-family="'ArialMT'" font-size="3.7619">Montacargas</text>
	</g>
	<g id="LWPOLYLINE_5_">
		
			<polyline fill="none" stroke="#00FF7F" stroke-width="0" stroke-linecap="round" stroke-linejoin="round" stroke-miterlimit="10" points="
			351.118,501.644 348.335,501.644 348.335,504.754 262.192,504.754 262.192,503.663 257.009,503.663 257.009,504.754 
			171.657,504.754 171.657,503.663 166.474,503.663 166.474,504.754 162.026,504.754 162.026,427.452 351.118,427.452 
			351.118,501.644 		"/>
	</g>
	<g id="LWPOLYLINE_6_">
		
			<polyline fill="none" stroke="#00FF7F" stroke-width="0" stroke-linecap="round" stroke-linejoin="round" stroke-miterlimit="10" points="
			71.599,503.663 71.599,504.754 160.389,504.754 160.389,427.452 133.867,427.452 133.867,387.042 94.411,387.042 94.411,368.378 
			70.508,368.378 70.508,420.632 71.599,420.632 71.599,425.814 70.508,425.814 70.508,503.663 71.599,503.663 		"/>
	</g>
	<g id="LWPOLYLINE_7_">
		
			<polyline fill="none" stroke="#00FF7F" stroke-width="0" stroke-linecap="round" stroke-linejoin="round" stroke-miterlimit="10" points="
			100.959,344.623 100.959,348.716 96.867,348.716 96.867,384.586 131.411,384.586 131.411,348.716 127.318,348.716 
			127.318,344.623 100.959,344.623 		"/>
	</g>
	<g id="LWPOLYLINE_8_">
		
			<polyline fill="none" stroke="#00FF7F" stroke-width="0" stroke-linecap="round" stroke-linejoin="round" stroke-miterlimit="10" points="
			80.495,346.768 94.411,346.768 94.411,366.741 70.508,366.741 70.508,351.405 71.599,351.405 71.599,348.404 80.495,348.404 
			80.495,346.768 		"/>
	</g>
	<g id="MTEXT_4_">
		<text transform="matrix(1 0 0 1 84.4536 233.4395)" fill="#00FF7F" font-family="'CenturyGothic'" font-size="8.1674">ADMINISTRACION</text>
	</g>
	<g id="LWPOLYLINE_9_">
		
			<polyline fill="none" stroke="#00FF7F" stroke-width="0" stroke-linecap="round" stroke-linejoin="round" stroke-miterlimit="10" points="
			71.599,278.634 177.088,278.634 177.088,204.007 70.508,204.007 70.508,273.451 71.599,273.451 71.599,278.634 		"/>
	</g>
	<g id="LWPOLYLINE_10_">
		
			<polyline fill="none" stroke="#00FF7F" stroke-width="0" stroke-linecap="round" stroke-linejoin="round" stroke-miterlimit="10" points="
			111.638,242.22 70.508,242.22 70.508,204.007 111.638,204.007 111.638,242.22 		"/>
	</g>
	<g id="LWPOLYLINE_11_">
		
			<polyline fill="none" stroke="#00FF7F" stroke-width="0" stroke-linecap="round" stroke-linejoin="round" stroke-miterlimit="10" points="
			111.638,242.22 111.638,278.634 71.599,278.634 71.599,273.451 70.508,273.451 70.508,242.22 111.638,242.22 		"/>
	</g>
</g>
<g id="_x30_">
	<g id="MTEXT">
		<text transform="matrix(1 0 0 1 462.5176 532.7344)" font-family="'ArialMT'" font-size="16.8531">TERCER NIVEL</text>
	</g>
	<g id="LINE">
		
			<line fill="none" stroke="#000000" stroke-width="0" stroke-linecap="round" stroke-linejoin="round" stroke-miterlimit="10" x1="414.529" y1="538.581" x2="588.99" y2="538.581"/>
	</g>
	<g id="CIRCLE">
		<path fill="none" stroke="#000000" stroke-width="0" stroke-linecap="round" stroke-linejoin="round" stroke-miterlimit="10" d="
			M451.367,538.581c0-10.173-8.246-18.42-18.419-18.42s-18.419,8.247-18.419,18.42c0,10.172,8.246,18.419,18.419,18.419
			S451.367,548.753,451.367,538.581L451.367,538.581z"/>
	</g>
	<g id="MTEXT_1_">
		<text transform="matrix(1 0 0 1 432.8965 548.0459)" font-family="'ArialMT'" font-size="9.0285">A-02</text>
	</g>
	<g id="MTEXT_2_">
		<text transform="matrix(1 0 0 1 431.7578 534.1992)" font-family="'ArialMT'" font-size="10.8342">01</text>
	</g>
	<g id="MTEXT_3_">
		<text transform="matrix(1 0 0 1 496.9121 549.5234)" font-family="'ArialMT'" font-size="10.8342">ARQUITECTONICO</text>
	</g>
</g>
</svg>
