<?xml version="1.0" encoding="utf-8"?>
<!-- Generator: Adobe Illustrator 16.0.0, SVG Export Plug-In . SVG Version: 6.00 Build 0)  -->
<!DOCTYPE svg PUBLIC "-//W3C//DTD SVG 1.1//EN" "http://www.w3.org/Graphics/SVG/1.1/DTD/svg11.dtd">
<svg version="1.1" xmlns="http://www.w3.org/2000/svg" xmlns:xlink="http://www.w3.org/1999/xlink" x="0px" y="0px" width="800px"
	 height="600px" viewBox="0 0 800 600" enable-background="new 0 0 800 600" xml:space="preserve">
<g id="AREAS_COMUNES">
	<g id="LWPOLYLINE">
		
			<polygon fill="none" stroke="#7FFF9F" stroke-width="0" stroke-linecap="round" stroke-linejoin="round" stroke-miterlimit="10" points="
			7.22,99.021 0,284.484 5.2,284.43 3.817,285.557 7.792,388.395 10.829,390.413 447.436,378.635 449.582,479.46 533.547,477.749 
			531.559,371.613 558.492,371.412 558.501,376.128 692.843,375.893 692.849,379.211 799.7,379.024 800,137.554 636.157,135.711 
			579.083,133.277 579.083,129.788 252.237,116.898 190.006,112.966 132.502,110.227 132.502,109.284 		"/>
	</g>
	<g id="LWPOLYLINE_1_">
		
			<polyline fill="none" stroke="#7FFF9F" stroke-width="0" stroke-linecap="round" stroke-linejoin="round" stroke-miterlimit="10" points="
			4.688,182.767 682.39,189.189 681.399,272.778 153.146,281.971 51.636,282.992 0.652,284.031 4.688,182.767 		"/>
	</g>
	<g id="LWPOLYLINE_12_">
		
			<polyline fill="none" stroke="#7FFF9F" stroke-width="0" stroke-linecap="round" stroke-linejoin="round" stroke-miterlimit="10" points="
			469.179,276.413 469.822,307.998 469.863,319.172 445.878,319.661 446.333,341.98 404.563,342.757 404.379,333.681 
			393.205,333.94 384.126,334.126 383.857,320.925 341.044,321.8 341.311,335.001 318.613,335.464 302.41,335.786 302.367,333.729 
			298.096,333.813 298.096,356.199 283.09,356.476 282.408,322.992 232.957,324 233.408,346.141 207.983,346.659 190.289,346.977 
			190.12,337.565 189.911,324.744 170.354,324.837 169.681,282.069 		"/>
	</g>
	<g id="LWPOLYLINE_13_">
		
			<polygon fill="none" stroke="#7FFF9F" stroke-width="0" stroke-linecap="round" stroke-linejoin="round" stroke-miterlimit="10" points="
			558.701,288.118 558.717,296.956 558.019,296.957 558.024,300.45 558.723,300.449 558.747,313.921 557.579,313.945 
			558.847,371.008 561.641,371.003 561.646,372.924 695.288,372.69 695.294,376.009 796.21,375.832 796.154,344.276 
			794.932,344.276 794.927,341.135 797.092,341.132 797.047,315.265 794.602,315.269 794.602,312.125 797.041,312.12 
			797.002,289.273 796.996,286.129 793.909,286.135 793.9,288.231 777.704,288.259 777.7,285.989 774.207,285.995 774.211,288.44 
			731.178,288.515 731.173,286.07 727.681,286.016 727.642,288.522 684.583,290.342 684.579,287.898 		"/>
	</g>
	<g id="LWPOLYLINE_14_">
		
			<polygon fill="none" stroke="#7FFF9F" stroke-width="0" stroke-linecap="round" stroke-linejoin="round" stroke-miterlimit="10" points="
			133.399,384.988 144.048,384.653 143.618,354.943 132.617,355.168 		"/>
	</g>
	<g id="LWPOLYLINE_15_">
		
			<polygon fill="none" stroke="#7FFF9F" stroke-width="0" stroke-linecap="round" stroke-linejoin="round" stroke-miterlimit="10" points="
			189.708,372.18 235.261,371.256 235.261,382.214 189.931,383.138 		"/>
	</g>
	<g id="LWPOLYLINE_16_">
		
			<polygon fill="none" stroke="#7FFF9F" stroke-width="0" stroke-linecap="round" stroke-linejoin="round" stroke-miterlimit="10" points="
			279.53,382.386 342.583,381.075 342.378,370.123 279.327,372.387 		"/>
	</g>
	<g id="LWPOLYLINE_17_">
		
			<polygon fill="none" stroke="#7FFF9F" stroke-width="0" stroke-linecap="round" stroke-linejoin="round" stroke-miterlimit="10" points="
			381.471,368.278 381.471,380.414 448.481,378.608 448.265,367.966 433.108,368.274 433.087,367.227 		"/>
	</g>
	<g id="TEXT">
		<text transform="matrix(1 0 0 1 68.8115 229.6758)" fill="#7FFF9F" font-family="'ArialMT'" font-size="7.7052">Cubierta</text>
	</g>
	<g id="LWPOLYLINE_18_">
		
			<polygon fill="none" stroke="#7FFF9F" stroke-width="0" stroke-linecap="round" stroke-linejoin="round" stroke-miterlimit="10" points="
			682.39,189.189 682.39,287.898 684.579,287.898 684.583,290.342 799.851,287.701 799.851,189.189 		"/>
	</g>
	<g id="TEXT_1_">
		<text transform="matrix(1 0 0 1 462.6836 229.6758)" fill="#7FFF9F" font-family="'ArialMT'" font-size="7.7052">Cubierta</text>
	</g>
	<g id="TEXT_2_">
		<text transform="matrix(1 0 0 1 734.0527 246.8848)" fill="#7FFF9F" font-family="'ArialMT'" font-size="7.7052">Cubierta</text>
	</g>
	<g id="TEXT_3_">
		<text transform="matrix(1 0 0 1 29.6841 338.4043)" fill="#7FFF9F" font-family="'ArialMT'" font-size="7.7052">Cubierta</text>
	</g>
	<g id="TEXT_4_">
		<text transform="matrix(1 0 0 1 54.5024 156.8633)" fill="#7FFF9F" font-family="'ArialMT'" font-size="7.7052">Área de estacionamiento</text>
	</g>
	<g id="TEXT_5_">
		<text transform="matrix(1 0 0 1 420.2607 143.0527)" fill="#7FFF9F" font-family="'ArialMT'" font-size="7.7052">Área de estacionamiento</text>
	</g>
	<g id="TEXT_6_">
		<text transform="matrix(1 0 0 1 679.4551 166.4893)" fill="#7FFF9F" font-family="'ArialMT'" font-size="7.7052">Área de estacionamiento</text>
	</g>
</g>
<g id="AREA__x28_POLILINEA_x29_">
	<g id="LWPOLYLINE_2_">
		
			<rect x="8.113" y="101.292" fill="none" stroke="#0099CC" stroke-width="0" stroke-linecap="round" stroke-linejoin="round" stroke-miterlimit="10" width="15.369" height="29.341"/>
	</g>
	<g id="LWPOLYLINE_3_">
		
			<rect x="23.482" y="102.558" fill="none" stroke="#0099CC" stroke-width="0" stroke-linecap="round" stroke-linejoin="round" stroke-miterlimit="10" width="15.37" height="29.341"/>
	</g>
	<g id="LWPOLYLINE_4_">
		
			<rect x="38.852" y="103.819" fill="none" stroke="#0099CC" stroke-width="0" stroke-linecap="round" stroke-linejoin="round" stroke-miterlimit="10" width="15.369" height="29.341"/>
	</g>
	<g id="LWPOLYLINE_5_">
		
			<rect x="54.221" y="105.081" fill="none" stroke="#0099CC" stroke-width="0" stroke-linecap="round" stroke-linejoin="round" stroke-miterlimit="10" width="15.37" height="29.342"/>
	</g>
	<g id="LWPOLYLINE_6_">
		
			<rect x="69.591" y="106.342" fill="none" stroke="#0099CC" stroke-width="0" stroke-linecap="round" stroke-linejoin="round" stroke-miterlimit="10" width="15.369" height="29.342"/>
	</g>
	<g id="LWPOLYLINE_7_">
		
			<rect x="84.96" y="107.604" fill="none" stroke="#0099CC" stroke-width="0" stroke-linecap="round" stroke-linejoin="round" stroke-miterlimit="10" width="15.37" height="29.341"/>
	</g>
	<g id="LWPOLYLINE_8_">
		
			<rect x="100.33" y="108.889" fill="none" stroke="#0099CC" stroke-width="0" stroke-linecap="round" stroke-linejoin="round" stroke-miterlimit="10" width="15.369" height="29.341"/>
	</g>
	<g id="LWPOLYLINE_9_">
		
			<rect x="115.699" y="111.063" fill="none" stroke="#0099CC" stroke-width="0" stroke-linecap="round" stroke-linejoin="round" stroke-miterlimit="10" width="15.37" height="29.341"/>
	</g>
	<g id="LWPOLYLINE_10_">
		
			<rect x="131.068" y="111.795" fill="none" stroke="#0099CC" stroke-width="0" stroke-linecap="round" stroke-linejoin="round" stroke-miterlimit="10" width="15.369" height="29.341"/>
	</g>
	<g id="LWPOLYLINE_11_">
		
			<rect x="146.438" y="112.527" fill="none" stroke="#0099CC" stroke-width="0" stroke-linecap="round" stroke-linejoin="round" stroke-miterlimit="10" width="15.37" height="29.341"/>
	</g>
	<g id="LWPOLYLINE_19_">
		
			<rect x="586.71" y="141.403" fill="none" stroke="#0099CC" stroke-width="0" stroke-linecap="round" stroke-linejoin="round" stroke-miterlimit="10" width="29.342" height="15.37"/>
	</g>
	<g id="LWPOLYLINE_20_">
		
			<rect x="616.052" y="141.403" fill="none" stroke="#0099CC" stroke-width="0" stroke-linecap="round" stroke-linejoin="round" stroke-miterlimit="10" width="29.342" height="15.37"/>
	</g>
	<g id="LWPOLYLINE_21_">
		
			<rect x="645.394" y="141.403" fill="none" stroke="#0099CC" stroke-width="0" stroke-linecap="round" stroke-linejoin="round" stroke-miterlimit="10" width="29.341" height="15.37"/>
	</g>
	<g id="LWPOLYLINE_22_">
		
			<rect x="674.734" y="141.403" fill="none" stroke="#0099CC" stroke-width="0" stroke-linecap="round" stroke-linejoin="round" stroke-miterlimit="10" width="29.342" height="15.37"/>
	</g>
	<g id="LWPOLYLINE_23_">
		
			<rect x="704.076" y="141.403" fill="none" stroke="#0099CC" stroke-width="0" stroke-linecap="round" stroke-linejoin="round" stroke-miterlimit="10" width="29.342" height="15.37"/>
	</g>
	<g id="LWPOLYLINE_24_">
		
			<rect x="733.418" y="141.403" fill="none" stroke="#0099CC" stroke-width="0" stroke-linecap="round" stroke-linejoin="round" stroke-miterlimit="10" width="29.341" height="15.37"/>
	</g>
	<g id="LWPOLYLINE_25_">
		
			<rect x="762.759" y="141.403" fill="none" stroke="#0099CC" stroke-width="0" stroke-linecap="round" stroke-linejoin="round" stroke-miterlimit="10" width="29.342" height="15.37"/>
	</g>
</g>
<g id="_x30_">
	<g id="MTEXT">
		<text transform="matrix(1 0 0 1 619.6055 486.1357)" font-family="'MyriadPro-Regular'" font-size="15.0308">PLANTA 5TO NIVEL</text>
	</g>
	<g id="HATCH">
		<path fill-rule="evenodd" clip-rule="evenodd" d="M582.107,483.166l-0.361-0.361l-3.118,7.528h0.505L582.107,483.166z
			 M599.914,490.333h-0.505l-2.975,7.167l0.368,0.361L599.914,490.333z"/>
	</g>
	<g id="LWPOLYLINE_26_">
		
			<line fill="none" stroke="#000000" stroke-width="0" stroke-linecap="round" stroke-linejoin="round" stroke-miterlimit="10" x1="681.164" y1="490.333" x2="575.522" y2="490.333"/>
	</g>
	<g id="CIRCLE">
		<path fill="none" stroke="#000000" stroke-width="0" stroke-linecap="round" stroke-linejoin="round" stroke-miterlimit="10" d="
			M599.918,490.333c0-5.88-4.767-10.646-10.646-10.646s-10.646,4.766-10.646,10.646s4.767,10.646,10.646,10.646
			S599.918,496.213,599.918,490.333L599.918,490.333z"/>
	</g>
	<g id="CIRCLE_1_">
		<path fill="none" stroke="#000000" stroke-width="0" stroke-linecap="round" stroke-linejoin="round" stroke-miterlimit="10" d="
			M599.406,490.333c0-5.598-4.537-10.135-10.135-10.135s-10.136,4.537-10.136,10.135s4.538,10.136,10.136,10.136
			S599.406,495.931,599.406,490.333L599.406,490.333z"/>
	</g>
	<g id="MTEXT_1_">
		<text transform="matrix(1 0 0 1 643.1055 495.6084)" font-family="'MyriadPro-Regular'" font-size="6.0123">Levantamiento</text>
	</g>
	<g id="MTEXT_2_">
		<text transform="matrix(1 0 0 1 581.3516 489.0469)" font-family="'MyriadPro-Regular'" font-size="6.0123">LE-05</text>
	</g>
	<g id="MTEXT_3_">
		<text transform="matrix(1 0 0 1 586.2061 497.3945)" font-family="'MyriadPro-Regular'" font-size="6.0123">05</text>
	</g>
</g>
</svg>
