<?xml version="1.0" encoding="utf-8"?>
<!-- Generator: Adobe Illustrator 16.0.0, SVG Export Plug-In . SVG Version: 6.00 Build 0)  -->
<!DOCTYPE svg PUBLIC "-//W3C//DTD SVG 1.1//EN" "http://www.w3.org/Graphics/SVG/1.1/DTD/svg11.dtd">
<svg version="1.1" xmlns="http://www.w3.org/2000/svg" xmlns:xlink="http://www.w3.org/1999/xlink" x="0px" y="0px" width="800px"
	 height="600px" viewBox="0 0 800 600" enable-background="new 0 0 800 600" xml:space="preserve">
<g id="AREAS_COMUNES_x28_BAÑOS-MUROS-OFICINAS-ESCALERAS-PREDIO_x29_">
	<g id="TEXT">
		<text transform="matrix(1 0 0 1 634.2891 42.5723)" fill="#00FF7F" font-family="'ArialMT'" font-size="4.0047">Cisternas</text>
	</g>
	<g id="LWPOLYLINE_5_">
		
			<polyline fill="none" stroke="#00FF7F" stroke-width="0" stroke-linecap="round" stroke-linejoin="round" stroke-miterlimit="10" points="
			707.612,4.179 707.612,33.387 669.838,33.387 669.838,89.421 602.981,89.421 602.981,4.179 623.865,4.179 623.865,6.184 
			630.05,6.184 630.05,4.179 688.717,4.179 688.717,6.184 694.901,6.184 694.901,4.179 707.612,4.179 		"/>
	</g>
	<g id="TEXT_79_">
		<text transform="matrix(1 0 0 1 637.2188 47.1709)" fill="#00FF7F" font-family="'ArialMT'" font-size="4.0047">24.26</text>
	</g>
	<g id="LWPOLYLINE_40_">
		
			<polyline fill="none" stroke="#00FF7F" stroke-width="0" stroke-linecap="round" stroke-linejoin="round" stroke-miterlimit="10" points="
			307.865,176.67 307.865,212.589 333.371,212.589 333.371,215.615 350.754,215.615 350.754,212.589 365.195,212.589 
			365.195,176.67 307.865,176.67 		"/>
	</g>
	<g id="LWPOLYLINE_41_">
		
			<polyline fill="none" stroke="#00FF7F" stroke-width="0" stroke-linecap="round" stroke-linejoin="round" stroke-miterlimit="10" points="
			707.612,0 118.759,0 118.759,289.158 532.438,289.158 532.438,584.332 621.208,584.332 621.208,503.872 582.94,471.438 
			582.94,299.846 588.289,299.846 588.289,281.143 623.038,281.143 623.038,210.759 605.488,210.759 605.488,91.929 672.346,91.929 
			672.346,35.894 710.12,35.894 710.12,0 707.612,0 		"/>
	</g>
	<g id="LWPOLYLINE_42_">
		
			<polyline fill="none" stroke="#00FF7F" stroke-width="0" stroke-linecap="round" stroke-linejoin="round" stroke-miterlimit="10" points="
			601.301,544.051 601.301,596.146 618.183,599.517 618.183,544.051 601.301,544.051 		"/>
	</g>
	<g id="LWPOLYLINE_43_">
		
			<polyline fill="none" stroke="#00FF7F" stroke-width="0" stroke-linecap="round" stroke-linejoin="round" stroke-miterlimit="10" points="
			560.702,548.563 560.702,600 536.617,595.127 536.617,548.563 560.702,548.563 		"/>
	</g>
	<g id="LWPOLYLINE_44_">
		
			<rect x="592.952" y="213.266" fill="none" stroke="#00FF7F" stroke-width="0" stroke-linecap="round" stroke-linejoin="round" stroke-miterlimit="10" width="30.086" height="67.877"/>
	</g>
	<g id="TEXT_119_">
		<text transform="matrix(1 0 0 1 316.8213 196.2764)" fill="#00FF7F" font-family="'ArialMT'" font-size="10.2499">Elevador</text>
	</g>
	<g id="TEXT_120_">
		<text transform="matrix(1 0 0 1 607.7227 579.1865)" fill="#00FF7F" font-family="'ArialMT'" font-size="10.2499">Escalera</text>
	</g>
	<g id="TEXT_121_">
		<text transform="matrix(1 0 0 1 513.75 567.6602)" fill="#00FF7F" font-family="'ArialMT'" font-size="10.2499">Escalera</text>
	</g>
	<g id="TEXT_122_">
		<text transform="matrix(1 0 0 1 581.6748 250.291)" fill="#00FF7F" font-family="'ArialMT'" font-size="10.2499">Escalera</text>
	</g>
</g>
<g id="AREA__x28_PILILINEA_x29_">
	<g id="TEXT_1_">
		<text transform="matrix(1 0 0 1 545.7949 184.2412)" fill="#007FFF" font-family="'ArialMT'" font-size="4.0047">BODEGA</text>
	</g>
	<g id="TEXT_2_">
		<text transform="matrix(1 0 0 1 551.0273 189.2344)" fill="#007FFF" font-family="'ArialMT'" font-size="4.0047">001</text>
	</g>
	<g id="TEXT_3_">
		<text transform="matrix(1 0 0 1 523.5605 261.7119)" fill="#007FFF" font-family="'ArialMT'" font-size="4.0047">BODEGA</text>
	</g>
	<g id="TEXT_4_">
		<text transform="matrix(1 0 0 1 528.3984 266.7051)" fill="#007FFF" font-family="'ArialMT'" font-size="4.0047">034</text>
	</g>
	<g id="TEXT_5_">
		<text transform="matrix(1 0 0 1 488.084 184.5703)" fill="#007FFF" font-family="'ArialMT'" font-size="4.0047">BODEGA</text>
	</g>
	<g id="TEXT_6_">
		<text transform="matrix(1 0 0 1 493.085 189.5635)" fill="#007FFF" font-family="'ArialMT'" font-size="4.0047">033</text>
	</g>
	<g id="TEXT_7_">
		<text transform="matrix(1 0 0 1 432.3613 183.79)" fill="#007FFF" font-family="'ArialMT'" font-size="4.0047">BODEGA</text>
	</g>
	<g id="TEXT_8_">
		<text transform="matrix(1 0 0 1 437.6426 188.7832)" fill="#007FFF" font-family="'ArialMT'" font-size="4.0047">031</text>
	</g>
	<g id="TEXT_9_">
		<text transform="matrix(1 0 0 1 386.981 184.4902)" fill="#007FFF" font-family="'ArialMT'" font-size="4.0047">BODEGA</text>
	</g>
	<g id="TEXT_10_">
		<text transform="matrix(1 0 0 1 391.9893 189.4834)" fill="#007FFF" font-family="'ArialMT'" font-size="4.0047">029</text>
	</g>
	<g id="TEXT_11_">
		<text transform="matrix(1 0 0 1 267.8604 183.915)" fill="#007FFF" font-family="'ArialMT'" font-size="4.0047">BODEGA</text>
	</g>
	<g id="TEXT_12_">
		<text transform="matrix(1 0 0 1 272.7271 188.9082)" fill="#007FFF" font-family="'ArialMT'" font-size="4.0047">025</text>
	</g>
	<g id="TEXT_13_">
		<text transform="matrix(1 0 0 1 222.5571 184.0508)" fill="#007FFF" font-family="'ArialMT'" font-size="4.0047">BODEGA</text>
	</g>
	<g id="TEXT_14_">
		<text transform="matrix(1 0 0 1 227.3599 189.0439)" fill="#007FFF" font-family="'ArialMT'" font-size="4.0047">021</text>
	</g>
	<g id="TEXT_15_">
		<text transform="matrix(1 0 0 1 144.4312 213.8301)" fill="#007FFF" font-family="'ArialMT'" font-size="4.0047">BODEGA</text>
	</g>
	<g id="TEXT_16_">
		<text transform="matrix(1 0 0 1 149.1221 218.8232)" fill="#007FFF" font-family="'ArialMT'" font-size="4.0047">022</text>
	</g>
	<g id="TEXT_17_">
		<text transform="matrix(1 0 0 1 143.9219 171.1592)" fill="#007FFF" font-family="'ArialMT'" font-size="4.0047">BODEGA</text>
	</g>
	<g id="TEXT_18_">
		<text transform="matrix(1 0 0 1 148.1978 176.1523)" fill="#007FFF" font-family="'ArialMT'" font-size="4.0047">020</text>
	</g>
	<g id="TEXT_19_">
		<text transform="matrix(1 0 0 1 143.4873 124.0371)" fill="#007FFF" font-family="'ArialMT'" font-size="4.0047">BODEGA</text>
	</g>
	<g id="TEXT_20_">
		<text transform="matrix(1 0 0 1 148.1904 129.0303)" fill="#007FFF" font-family="'ArialMT'" font-size="4.0047">019</text>
	</g>
	<g id="TEXT_21_">
		<text transform="matrix(1 0 0 1 143.4302 73.9961)" fill="#007FFF" font-family="'ArialMT'" font-size="4.0047">BODEGA</text>
	</g>
	<g id="TEXT_22_">
		<text transform="matrix(1 0 0 1 147.7612 78.9883)" fill="#007FFF" font-family="'ArialMT'" font-size="4.0047">018</text>
	</g>
	<g id="TEXT_23_">
		<text transform="matrix(1 0 0 1 159.7241 26.0938)" fill="#007FFF" font-family="'ArialMT'" font-size="4.0047">BODEGA</text>
	</g>
	<g id="TEXT_24_">
		<text transform="matrix(1 0 0 1 164.6558 31.0869)" fill="#007FFF" font-family="'ArialMT'" font-size="4.0047">017</text>
	</g>
	<g id="TEXT_25_">
		<text transform="matrix(1 0 0 1 231.3853 34.9707)" fill="#007FFF" font-family="'ArialMT'" font-size="4.0047">BODEGA</text>
	</g>
	<g id="TEXT_26_">
		<text transform="matrix(1 0 0 1 236.437 40.6035)" fill="#007FFF" font-family="'ArialMT'" font-size="4.0047">015</text>
	</g>
	<g id="TEXT_27_">
		<text transform="matrix(1 0 0 1 287.4678 36.6963)" fill="#007FFF" font-family="'ArialMT'" font-size="4.0047">BODEGA</text>
	</g>
	<g id="TEXT_28_">
		<text transform="matrix(1 0 0 1 292.1777 40.9463)" fill="#007FFF" font-family="'ArialMT'" font-size="4.0047">013</text>
	</g>
	<g id="TEXT_29_">
		<text transform="matrix(1 0 0 1 333.2871 35.6943)" fill="#007FFF" font-family="'ArialMT'" font-size="4.0047">BODEGA</text>
	</g>
	<g id="TEXT_30_">
		<text transform="matrix(1 0 0 1 337.3315 40.6875)" fill="#007FFF" font-family="'ArialMT'" font-size="4.0047">011</text>
	</g>
	<g id="TEXT_31_">
		<text transform="matrix(1 0 0 1 387.2646 36.4746)" fill="#007FFF" font-family="'ArialMT'" font-size="4.0047">BODEGA</text>
	</g>
	<g id="TEXT_32_">
		<text transform="matrix(1 0 0 1 391.6421 41.4678)" fill="#007FFF" font-family="'ArialMT'" font-size="4.0047">009</text>
	</g>
	<g id="TEXT_33_">
		<text transform="matrix(1 0 0 1 436.0156 35.8037)" fill="#007FFF" font-family="'ArialMT'" font-size="4.0047">BODEGA</text>
	</g>
	<g id="TEXT_34_">
		<text transform="matrix(1 0 0 1 440.8701 40.7969)" fill="#007FFF" font-family="'ArialMT'" font-size="4.0047">007</text>
	</g>
	<g id="TEXT_35_">
		<text transform="matrix(1 0 0 1 488.7998 35.2871)" fill="#007FFF" font-family="'ArialMT'" font-size="4.0047">BODEGA</text>
	</g>
	<g id="TEXT_36_">
		<text transform="matrix(1 0 0 1 493.8721 40.2803)" fill="#007FFF" font-family="'ArialMT'" font-size="4.0047">005</text>
	</g>
	<g id="TEXT_37_">
		<text transform="matrix(1 0 0 1 540.5586 36.1309)" fill="#007FFF" font-family="'ArialMT'" font-size="4.0047">BODEGA</text>
	</g>
	<g id="TEXT_38_">
		<text transform="matrix(1 0 0 1 545.3936 40.6299)" fill="#007FFF" font-family="'ArialMT'" font-size="4.0047">003</text>
	</g>
	<g id="TEXT_39_">
		<text transform="matrix(1 0 0 1 547.3438 128.4395)" fill="#007FFF" font-family="'ArialMT'" font-size="4.0047">BODEGA</text>
	</g>
	<g id="TEXT_40_">
		<text transform="matrix(1 0 0 1 551.5918 133.4326)" fill="#007FFF" font-family="'ArialMT'" font-size="4.0047">002</text>
	</g>
	<g id="TEXT_41_">
		<text transform="matrix(1 0 0 1 488.2578 129.3018)" fill="#007FFF" font-family="'ArialMT'" font-size="4.0047">BODEGA</text>
	</g>
	<g id="TEXT_42_">
		<text transform="matrix(1 0 0 1 493.5283 135.3145)" fill="#007FFF" font-family="'ArialMT'" font-size="4.0047">004</text>
	</g>
	<g id="TEXT_43_">
		<text transform="matrix(1 0 0 1 433.584 130.0898)" fill="#007FFF" font-family="'ArialMT'" font-size="4.0047">BODEGA</text>
	</g>
	<g id="TEXT_44_">
		<text transform="matrix(1 0 0 1 438.7441 135.083)" fill="#007FFF" font-family="'ArialMT'" font-size="4.0047">006</text>
	</g>
	<g id="TEXT_45_">
		<text transform="matrix(1 0 0 1 392.6978 128.8223)" fill="#007FFF" font-family="'ArialMT'" font-size="4.0047">BODEGA</text>
	</g>
	<g id="TEXT_46_">
		<text transform="matrix(1 0 0 1 397.314 133.8154)" fill="#007FFF" font-family="'ArialMT'" font-size="4.0047">008</text>
	</g>
	<g id="TEXT_47_">
		<text transform="matrix(1 0 0 1 351.2275 129.083)" fill="#007FFF" font-family="'ArialMT'" font-size="4.0047">BODEGA</text>
	</g>
	<g id="TEXT_48_">
		<text transform="matrix(1 0 0 1 355.979 134.0762)" fill="#007FFF" font-family="'ArialMT'" font-size="4.0047">010</text>
	</g>
	<g id="TEXT_49_">
		<text transform="matrix(1 0 0 1 306.5151 129.7295)" fill="#007FFF" font-family="'ArialMT'" font-size="4.0047">BODEGA</text>
	</g>
	<g id="TEXT_50_">
		<text transform="matrix(1 0 0 1 311.1118 134.7227)" fill="#007FFF" font-family="'ArialMT'" font-size="4.0047">012</text>
	</g>
	<g id="TEXT_51_">
		<text transform="matrix(1 0 0 1 264.8408 129.8965)" fill="#007FFF" font-family="'ArialMT'" font-size="4.0047">BODEGA</text>
	</g>
	<g id="TEXT_52_">
		<text transform="matrix(1 0 0 1 269.8848 134.8896)" fill="#007FFF" font-family="'ArialMT'" font-size="4.0047">014</text>
	</g>
	<g id="TEXT_53_">
		<text transform="matrix(1 0 0 1 221.3413 131.376)" fill="#007FFF" font-family="'ArialMT'" font-size="4.0047">BODEGA</text>
	</g>
	<g id="TEXT_54_">
		<text transform="matrix(1 0 0 1 226.2095 136.3691)" fill="#007FFF" font-family="'ArialMT'" font-size="4.0047">016</text>
	</g>
	<g id="TEXT_55_">
		<text transform="matrix(1 0 0 1 469.0352 261.7041)" fill="#007FFF" font-family="'ArialMT'" font-size="4.0047">BODEGA</text>
	</g>
	<g id="TEXT_56_">
		<text transform="matrix(1 0 0 1 474.373 266.6973)" fill="#007FFF" font-family="'ArialMT'" font-size="4.0047">032</text>
	</g>
	<g id="TEXT_57_">
		<text transform="matrix(1 0 0 1 414.4805 262.5469)" fill="#007FFF" font-family="'ArialMT'" font-size="4.0047">BODEGA</text>
	</g>
	<g id="TEXT_58_">
		<text transform="matrix(1 0 0 1 419.2949 267.54)" fill="#007FFF" font-family="'ArialMT'" font-size="4.0047">030</text>
	</g>
	<g id="TEXT_59_">
		<text transform="matrix(1 0 0 1 360.856 261.5635)" fill="#007FFF" font-family="'ArialMT'" font-size="4.0047">BODEGA</text>
	</g>
	<g id="TEXT_60_">
		<text transform="matrix(1 0 0 1 365.5391 266.5566)" fill="#007FFF" font-family="'ArialMT'" font-size="4.0047">028</text>
	</g>
	<g id="TEXT_61_">
		<text transform="matrix(1 0 0 1 307.8833 261.332)" fill="#007FFF" font-family="'ArialMT'" font-size="4.0047">BODEGA</text>
	</g>
	<g id="TEXT_62_">
		<text transform="matrix(1 0 0 1 312.7754 266.3252)" fill="#007FFF" font-family="'ArialMT'" font-size="4.0047">027</text>
	</g>
	<g id="TEXT_63_">
		<text transform="matrix(1 0 0 1 254.498 262.0762)" fill="#007FFF" font-family="'ArialMT'" font-size="4.0047">BODEGA</text>
	</g>
	<g id="TEXT_64_">
		<text transform="matrix(1 0 0 1 259.6426 267.0693)" fill="#007FFF" font-family="'ArialMT'" font-size="4.0047">026</text>
	</g>
	<g id="TEXT_65_">
		<text transform="matrix(1 0 0 1 196.21 261.9395)" fill="#007FFF" font-family="'ArialMT'" font-size="4.0047">BODEGA</text>
	</g>
	<g id="TEXT_66_">
		<text transform="matrix(1 0 0 1 201.5063 266.9326)" fill="#007FFF" font-family="'ArialMT'" font-size="4.0047">024</text>
	</g>
	<g id="TEXT_67_">
		<text transform="matrix(1 0 0 1 143.9043 261.8486)" fill="#007FFF" font-family="'ArialMT'" font-size="4.0047">BODEGA</text>
	</g>
	<g id="TEXT_68_">
		<text transform="matrix(1 0 0 1 148.6943 266.8418)" fill="#007FFF" font-family="'ArialMT'" font-size="4.0047">023</text>
	</g>
	<g id="TEXT_69_">
		<text transform="matrix(1 0 0 1 539.7559 307.0313)" fill="#007FFF" font-family="'ArialMT'" font-size="4.0047">BODEGA</text>
	</g>
	<g id="TEXT_70_">
		<text transform="matrix(1 0 0 1 544.623 312.0244)" fill="#007FFF" font-family="'ArialMT'" font-size="4.0047">035</text>
	</g>
	<g id="TEXT_71_">
		<text transform="matrix(1 0 0 1 540.127 358.3613)" fill="#007FFF" font-family="'ArialMT'" font-size="4.0047">BODEGA</text>
	</g>
	<g id="TEXT_72_">
		<text transform="matrix(1 0 0 1 544.8398 363.3545)" fill="#007FFF" font-family="'ArialMT'" font-size="4.0047">036</text>
	</g>
	<g id="TEXT_73_">
		<text transform="matrix(1 0 0 1 539.3691 412.2637)" fill="#007FFF" font-family="'ArialMT'" font-size="4.0047">BODEGA</text>
	</g>
	<g id="TEXT_74_">
		<text transform="matrix(1 0 0 1 544.4668 417.2568)" fill="#007FFF" font-family="'ArialMT'" font-size="4.0047">037</text>
	</g>
	<g id="TEXT_75_">
		<text transform="matrix(1 0 0 1 539.1621 462.5635)" fill="#007FFF" font-family="'ArialMT'" font-size="4.0047">BODEGA</text>
	</g>
	<g id="TEXT_76_">
		<text transform="matrix(1 0 0 1 544.1719 467.5566)" fill="#007FFF" font-family="'ArialMT'" font-size="4.0047">038</text>
	</g>
	<g id="TEXT_77_">
		<text transform="matrix(1 0 0 1 541.4678 528.5625)" fill="#007FFF" font-family="'ArialMT'" font-size="4.0047">BODEGA</text>
	</g>
	<g id="TEXT_78_">
		<text transform="matrix(1 0 0 1 546.4316 533.5557)" fill="#007FFF" font-family="'ArialMT'" font-size="4.0047">039</text>
	</g>
	<g id="LWPOLYLINE">
		
			<rect x="314.594" y="4.179" fill="none" stroke="#007FFF" stroke-width="0" stroke-linecap="round" stroke-linejoin="round" stroke-miterlimit="10" width="51.66" height="70.1"/>
	</g>
	<g id="LWPOLYLINE_1_">
		
			<rect x="469.574" y="4.179" fill="none" stroke="#007FFF" stroke-width="0" stroke-linecap="round" stroke-linejoin="round" stroke-miterlimit="10" width="51.661" height="70.1"/>
	</g>
	<g id="LWPOLYLINE_2_">
		
			<polyline fill="none" stroke="#007FFF" stroke-width="0" stroke-linecap="round" stroke-linejoin="round" stroke-miterlimit="10" points="
			572.896,74.278 521.235,74.278 521.235,4.179 531.436,4.179 531.436,6.184 537.62,6.184 537.62,4.179 572.896,4.179 
			572.896,74.278 		"/>
	</g>
	<g id="LWPOLYLINE_3_">
		
			<polyline fill="none" stroke="#007FFF" stroke-width="0" stroke-linecap="round" stroke-linejoin="round" stroke-miterlimit="10" points="
			469.574,74.278 469.574,4.179 465.247,4.179 465.247,6.184 459.063,6.184 459.063,4.179 417.914,4.179 417.914,74.278 
			469.574,74.278 		"/>
	</g>
	<g id="LWPOLYLINE_4_">
		
			<polyline fill="none" stroke="#007FFF" stroke-width="0" stroke-linecap="round" stroke-linejoin="round" stroke-miterlimit="10" points="
			417.914,74.278 366.254,74.278 366.254,4.179 375.324,4.179 375.324,6.184 381.508,6.184 381.508,4.179 417.914,4.179 
			417.914,74.278 		"/>
	</g>
	<g id="LWPOLYLINE_6_">
		
			<polyline fill="none" stroke="#007FFF" stroke-width="0" stroke-linecap="round" stroke-linejoin="round" stroke-miterlimit="10" points="
			314.594,4.179 298.104,4.179 298.104,6.184 291.919,6.184 291.919,4.179 262.933,4.179 262.933,74.278 314.594,74.278 
			314.594,4.179 		"/>
	</g>
	<g id="LWPOLYLINE_7_">
		
			<polyline fill="none" stroke="#007FFF" stroke-width="0" stroke-linecap="round" stroke-linejoin="round" stroke-miterlimit="10" points="
			262.933,74.278 211.273,52.483 211.273,6.184 214.365,6.184 214.365,4.179 262.933,4.179 262.933,74.278 		"/>
	</g>
	<g id="LWPOLYLINE_8_">
		
			<rect x="123.773" y="52.483" fill="none" stroke="#007FFF" stroke-width="0" stroke-linecap="round" stroke-linejoin="round" stroke-miterlimit="10" width="51.714" height="48.304"/>
	</g>
	<g id="LWPOLYLINE_9_">
		
			<polyline fill="none" stroke="#007FFF" stroke-width="0" stroke-linecap="round" stroke-linejoin="round" stroke-miterlimit="10" points="
			175.487,52.483 175.487,53.319 195.394,53.319 195.394,52.483 211.273,52.483 211.273,6.184 208.181,6.184 208.181,4.179 
			124.943,4.179 124.943,6.184 123.773,6.184 123.773,52.483 175.487,52.483 		"/>
	</g>
	<g id="LWPOLYLINE_10_">
		
			<polyline fill="none" stroke="#007FFF" stroke-width="0" stroke-linecap="round" stroke-linejoin="round" stroke-miterlimit="10" points="
			123.773,149.092 175.487,149.092 175.487,100.787 123.773,100.787 123.773,105.133 124.943,105.133 124.943,111.317 
			123.773,111.317 123.773,149.092 		"/>
	</g>
	<g id="LWPOLYLINE_11_">
		
			<polyline fill="none" stroke="#007FFF" stroke-width="0" stroke-linecap="round" stroke-linejoin="round" stroke-miterlimit="10" points="
			123.773,149.092 123.773,189.206 124.943,189.206 124.943,195.39 123.773,195.39 123.773,197.396 175.487,197.396 
			175.487,149.092 123.773,149.092 		"/>
	</g>
	<g id="LWPOLYLINE_12_">
		
			<polyline fill="none" stroke="#007FFF" stroke-width="0" stroke-linecap="round" stroke-linejoin="round" stroke-miterlimit="10" points="
			123.773,245.7 162.27,245.7 175.487,216.177 175.487,197.396 123.773,197.396 123.773,245.7 		"/>
	</g>
	<g id="LWPOLYLINE_13_">
		
			<polyline fill="none" stroke="#007FFF" stroke-width="0" stroke-linecap="round" stroke-linejoin="round" stroke-miterlimit="10" points="
			123.773,245.7 123.773,282.973 124.943,282.973 124.943,284.979 178.148,284.979 178.148,245.7 162.27,245.7 123.773,245.7 		"/>
	</g>
	<g id="LWPOLYLINE_14_">
		
			<polyline fill="none" stroke="#007FFF" stroke-width="0" stroke-linecap="round" stroke-linejoin="round" stroke-miterlimit="10" points="
			178.148,245.7 232.523,245.7 232.523,284.979 214.365,284.979 214.365,282.973 208.181,282.973 208.181,284.979 178.148,284.979 
			178.148,245.7 		"/>
	</g>
	<g id="LWPOLYLINE_15_">
		
			<rect x="232.523" y="245.7" fill="none" stroke="#007FFF" stroke-width="0" stroke-linecap="round" stroke-linejoin="round" stroke-miterlimit="10" width="54.375" height="39.279"/>
	</g>
	<g id="LWPOLYLINE_16_">
		
			<rect x="395.647" y="245.7" fill="none" stroke="#007FFF" stroke-width="0" stroke-linecap="round" stroke-linejoin="round" stroke-miterlimit="10" width="54.375" height="39.279"/>
	</g>
	<g id="LWPOLYLINE_17_">
		
			<polyline fill="none" stroke="#007FFF" stroke-width="0" stroke-linecap="round" stroke-linejoin="round" stroke-miterlimit="10" points="
			286.897,245.7 341.272,245.7 341.272,284.979 298.104,284.979 298.104,282.973 291.919,282.973 291.919,284.979 286.897,284.979 
			286.897,245.7 		"/>
	</g>
	<g id="LWPOLYLINE_18_">
		
			<polyline fill="none" stroke="#007FFF" stroke-width="0" stroke-linecap="round" stroke-linejoin="round" stroke-miterlimit="10" points="
			341.272,245.7 395.647,245.7 395.647,284.979 381.508,284.979 381.508,282.973 375.324,282.973 375.324,284.979 341.272,284.979 
			341.272,245.7 		"/>
	</g>
	<g id="LWPOLYLINE_19_">
		
			<polyline fill="none" stroke="#007FFF" stroke-width="0" stroke-linecap="round" stroke-linejoin="round" stroke-miterlimit="10" points="
			504.396,245.7 504.396,284.979 465.247,284.979 465.247,282.973 459.063,282.973 459.063,284.979 450.021,284.979 450.021,245.7 
			504.396,245.7 		"/>
	</g>
	<g id="LWPOLYLINE_20_">
		
			<polyline fill="none" stroke="#007FFF" stroke-width="0" stroke-linecap="round" stroke-linejoin="round" stroke-miterlimit="10" points="
			504.396,284.979 531.436,284.979 531.436,282.973 537.62,282.973 537.62,284.979 558.771,284.979 558.771,245.7 504.396,245.7 
			504.396,284.979 		"/>
	</g>
	<g id="LWPOLYLINE_21_">
		
			<polyline fill="none" stroke="#007FFF" stroke-width="0" stroke-linecap="round" stroke-linejoin="round" stroke-miterlimit="10" points="
			537.62,284.979 537.62,289.158 536.617,289.158 536.617,336.793 558.771,336.793 558.771,284.979 537.62,284.979 		"/>
	</g>
	<g id="LWPOLYLINE_22_">
		
			<polyline fill="none" stroke="#007FFF" stroke-width="0" stroke-linecap="round" stroke-linejoin="round" stroke-miterlimit="10" points="
			536.617,388.607 558.771,388.607 558.771,336.793 536.617,336.793 536.617,339.329 537.73,339.329 537.73,344.62 536.617,344.62 
			536.617,388.607 		"/>
	</g>
	<g id="LWPOLYLINE_23_">
		
			<polyline fill="none" stroke="#007FFF" stroke-width="0" stroke-linecap="round" stroke-linejoin="round" stroke-miterlimit="10" points="
			536.617,388.607 536.617,389.443 537.73,389.443 537.73,394.308 536.617,394.308 536.617,440.422 558.771,440.422 
			558.771,388.607 536.617,388.607 		"/>
	</g>
	<g id="LWPOLYLINE_24_">
		
			<polyline fill="none" stroke="#007FFF" stroke-width="0" stroke-linecap="round" stroke-linejoin="round" stroke-miterlimit="10" points="
			536.617,492.236 558.771,492.236 558.771,440.422 536.617,440.422 536.617,468.363 537.73,468.363 537.73,473.655 
			536.617,473.655 536.617,492.236 		"/>
	</g>
	<g id="LWPOLYLINE_25_">
		
			<polyline fill="none" stroke="#007FFF" stroke-width="0" stroke-linecap="round" stroke-linejoin="round" stroke-miterlimit="10" points="
			560.979,543.733 558.771,492.236 536.617,492.236 536.617,542.658 537.73,542.658 537.73,547.95 536.617,547.95 536.617,578.649 
			561.02,578.649 560.979,543.733 		"/>
	</g>
	<g id="LWPOLYLINE_26_">
		
			<polyline fill="none" stroke="#007FFF" stroke-width="0" stroke-linecap="round" stroke-linejoin="round" stroke-miterlimit="10" points="
			216.973,104.364 250.292,104.364 250.292,159.989 205.573,159.989 205.573,112.086 216.973,112.086 216.973,104.364 		"/>
	</g>
	<g id="LWPOLYLINE_27_">
		
			<polyline fill="none" stroke="#007FFF" stroke-width="0" stroke-linecap="round" stroke-linejoin="round" stroke-miterlimit="10" points="
			205.573,159.989 205.573,188.437 216.973,188.437 216.973,196.159 205.573,196.159 205.573,215.615 250.292,215.615 
			250.292,159.989 205.573,159.989 		"/>
	</g>
	<g id="LWPOLYLINE_28_">
		
			<polyline fill="none" stroke="#007FFF" stroke-width="0" stroke-linecap="round" stroke-linejoin="round" stroke-miterlimit="10" points="
			250.292,159.989 295.012,159.989 295.012,112.086 289.312,112.086 289.312,104.364 250.292,104.364 250.292,159.989 		"/>
	</g>
	<g id="LWPOLYLINE_29_">
		
			<polyline fill="none" stroke="#007FFF" stroke-width="0" stroke-linecap="round" stroke-linejoin="round" stroke-miterlimit="10" points="
			250.292,215.615 306.277,215.615 306.277,196.159 289.312,196.159 289.312,188.437 306.193,188.437 306.193,174.999 
			336.714,174.999 336.714,159.989 250.292,159.989 250.292,215.615 		"/>
	</g>
	<g id="LWPOLYLINE_30_">
		
			<polyline fill="none" stroke="#007FFF" stroke-width="0" stroke-linecap="round" stroke-linejoin="round" stroke-miterlimit="10" points="
			336.714,159.989 336.714,174.999 366.866,174.999 366.816,215.615 420.285,215.615 420.285,159.989 336.714,159.989 		"/>
	</g>
	<g id="LWPOLYLINE_31_">
		
			<polyline fill="none" stroke="#007FFF" stroke-width="0" stroke-linecap="round" stroke-linejoin="round" stroke-miterlimit="10" points="
			300.711,104.364 300.711,112.086 295.012,112.086 295.012,159.989 336.714,159.989 336.714,104.364 300.711,104.364 		"/>
	</g>
	<g id="LWPOLYLINE_32_">
		
			<polyline fill="none" stroke="#007FFF" stroke-width="0" stroke-linecap="round" stroke-linejoin="round" stroke-miterlimit="10" points="
			336.714,104.364 372.716,104.364 372.716,112.086 378.416,112.086 378.5,159.989 336.714,159.989 336.714,104.364 		"/>
	</g>
	<g id="LWPOLYLINE_33_">
		
			<polyline fill="none" stroke="#007FFF" stroke-width="0" stroke-linecap="round" stroke-linejoin="round" stroke-miterlimit="10" points="
			384.116,104.364 384.116,112.086 378.416,112.096 378.5,159.989 420.285,159.989 420.285,104.364 384.116,104.364 		"/>
	</g>
	<g id="LWPOLYLINE_34_">
		
			<polyline fill="none" stroke="#007FFF" stroke-width="0" stroke-linecap="round" stroke-linejoin="round" stroke-miterlimit="10" points="
			420.285,104.364 456.455,104.364 456.455,112.086 462.154,112.086 462.154,159.989 420.285,159.989 420.285,104.364 		"/>
	</g>
	<g id="LWPOLYLINE_35_">
		
			<polyline fill="none" stroke="#007FFF" stroke-width="0" stroke-linecap="round" stroke-linejoin="round" stroke-miterlimit="10" points="
			462.154,159.989 420.285,159.989 420.285,215.615 462.154,215.615 462.154,196.159 456.455,196.159 456.455,188.437 
			462.154,188.437 462.154,159.989 		"/>
	</g>
	<g id="LWPOLYLINE_36_">
		
			<polyline fill="none" stroke="#007FFF" stroke-width="0" stroke-linecap="round" stroke-linejoin="round" stroke-miterlimit="10" points="
			462.154,159.989 530.015,159.989 530.015,104.364 467.854,104.364 467.854,112.086 462.154,112.086 462.154,159.989 		"/>
	</g>
	<g id="LWPOLYLINE_37_">
		
			<polyline fill="none" stroke="#007FFF" stroke-width="0" stroke-linecap="round" stroke-linejoin="round" stroke-miterlimit="10" points="
			462.154,159.989 530.015,159.989 530.015,215.615 462.154,215.615 462.154,196.159 467.854,196.159 467.854,188.437 
			462.154,188.437 462.154,159.989 		"/>
	</g>
	<g id="LWPOLYLINE_38_">
		
			<polyline fill="none" stroke="#007FFF" stroke-width="0" stroke-linecap="round" stroke-linejoin="round" stroke-miterlimit="10" points="
			530.015,104.364 532.004,104.364 532.004,112.086 543.403,112.086 543.403,104.364 572.896,104.364 572.896,159.989 
			530.015,159.989 530.015,104.364 		"/>
	</g>
	<g id="LWPOLYLINE_39_">
		
			<polyline fill="none" stroke="#007FFF" stroke-width="0" stroke-linecap="round" stroke-linejoin="round" stroke-miterlimit="10" points="
			530.015,215.615 572.896,215.615 572.896,159.989 530.015,159.989 530.015,215.615 		"/>
	</g>
	<g id="TEXT_80_">
		<text transform="matrix(1 0 0 1 539.0918 45.2461)" fill="#007FFF" font-family="'ArialMT'" font-size="4.0047">Area=12.92</text>
	</g>
	<g id="TEXT_81_">
		<text transform="matrix(1 0 0 1 487.291 44.9736)" fill="#007FFF" font-family="'ArialMT'" font-size="4.0047">Area=12.96</text>
	</g>
	<g id="TEXT_82_">
		<text transform="matrix(1 0 0 1 434.3604 45.5088)" fill="#007FFF" font-family="'ArialMT'" font-size="4.0047">Area=12.92</text>
	</g>
	<g id="TEXT_83_">
		<text transform="matrix(1 0 0 1 385.4199 45.1104)" fill="#007FFF" font-family="'ArialMT'" font-size="4.0047">Area=12.92</text>
	</g>
	<g id="TEXT_84_">
		<text transform="matrix(1 0 0 1 331.855 45.3242)" fill="#007FFF" font-family="'ArialMT'" font-size="4.0047">Area=12.96</text>
	</g>
	<g id="TEXT_85_">
		<text transform="matrix(1 0 0 1 285.1665 44.6221)" fill="#007FFF" font-family="'ArialMT'" font-size="4.0047">Area=12.92</text>
	</g>
	<g id="TEXT_86_">
		<text transform="matrix(1 0 0 1 230.1523 44.7891)" fill="#007FFF" font-family="'ArialMT'" font-size="4.0047">Area=10.93</text>
	</g>
	<g id="TEXT_87_">
		<text transform="matrix(1 0 0 1 157.7197 35.1963)" fill="#007FFF" font-family="'ArialMT'" font-size="4.0047">Area=15.16</text>
	</g>
	<g id="TEXT_88_">
		<text transform="matrix(1 0 0 1 142.3618 83.6104)" fill="#007FFF" font-family="'ArialMT'" font-size="4.0047">Area=8.94</text>
	</g>
	<g id="TEXT_89_">
		<text transform="matrix(1 0 0 1 142.9731 133.1895)" fill="#007FFF" font-family="'ArialMT'" font-size="4.0047">Area=8.92</text>
	</g>
	<g id="TEXT_90_">
		<text transform="matrix(1 0 0 1 142.9468 180.4219)" fill="#007FFF" font-family="'ArialMT'" font-size="4.0047">Area=8.92</text>
	</g>
	<g id="TEXT_91_">
		<text transform="matrix(1 0 0 1 143.6284 223.5918)" fill="#007FFF" font-family="'ArialMT'" font-size="4.0047">Area=8.24</text>
	</g>
	<g id="TEXT_92_">
		<text transform="matrix(1 0 0 1 143.1592 271.0625)" fill="#007FFF" font-family="'ArialMT'" font-size="4.0047">Area=7.64</text>
	</g>
	<g id="TEXT_93_">
		<text transform="matrix(1 0 0 1 196.5771 271.3877)" fill="#007FFF" font-family="'ArialMT'" font-size="4.0047">Area=7.60</text>
	</g>
	<g id="TEXT_94_">
		<text transform="matrix(1 0 0 1 253.9609 271.7129)" fill="#007FFF" font-family="'ArialMT'" font-size="4.0047">Area=7.64</text>
	</g>
	<g id="TEXT_95_">
		<text transform="matrix(1 0 0 1 306.7676 271.5195)" fill="#007FFF" font-family="'ArialMT'" font-size="4.0047">Area=7.60</text>
	</g>
	<g id="TEXT_96_">
		<text transform="matrix(1 0 0 1 360.1909 271.1699)" fill="#007FFF" font-family="'ArialMT'" font-size="4.0047">Area=7.60</text>
	</g>
	<g id="TEXT_97_">
		<text transform="matrix(1 0 0 1 414.0176 271.7363)" fill="#007FFF" font-family="'ArialMT'" font-size="4.0047">Area=7.64</text>
	</g>
	<g id="TEXT_98_">
		<text transform="matrix(1 0 0 1 468.5078 271.6943)" fill="#007FFF" font-family="'ArialMT'" font-size="4.0047">Area=7.60</text>
	</g>
	<g id="TEXT_99_">
		<text transform="matrix(1 0 0 1 523.373 271.2461)" fill="#007FFF" font-family="'ArialMT'" font-size="4.0047">Area=7.60</text>
	</g>
	<g id="TEXT_100_">
		<text transform="matrix(1 0 0 1 545.5527 194.0391)" fill="#007FFF" font-family="'ArialMT'" font-size="4.0047">Area=8.54</text>
	</g>
	<g id="TEXT_101_">
		<text transform="matrix(1 0 0 1 487.1406 194.5088)" fill="#007FFF" font-family="'ArialMT'" font-size="4.0047">Area=13.35</text>
	</g>
	<g id="TEXT_102_">
		<text transform="matrix(1 0 0 1 432.2686 193.874)" fill="#007FFF" font-family="'ArialMT'" font-size="4.0047">Area=8.18</text>
	</g>
	<g id="TEXT_103_">
		<text transform="matrix(1 0 0 1 386.5464 193.8438)" fill="#007FFF" font-family="'ArialMT'" font-size="4.0047">Area=12.26</text>
	</g>
	<g id="TEXT_104_">
		<text transform="matrix(1 0 0 1 267.2593 194.2725)" fill="#007FFF" font-family="'ArialMT'" font-size="4.0047">Area=12.31</text>
	</g>
	<g id="TEXT_105_">
		<text transform="matrix(1 0 0 1 222.3936 194.0859)" fill="#007FFF" font-family="'ArialMT'" font-size="4.0047">Area=8.59</text>
	</g>
	<g id="TEXT_106_">
		<text transform="matrix(1 0 0 1 220.9316 140.833)" fill="#007FFF" font-family="'ArialMT'" font-size="4.0047">Area=8.59</text>
	</g>
	<g id="TEXT_107_">
		<text transform="matrix(1 0 0 1 264.7705 140.167)" fill="#007FFF" font-family="'ArialMT'" font-size="4.0047">Area=8.75</text>
	</g>
	<g id="TEXT_108_">
		<text transform="matrix(1 0 0 1 306.9277 139.2725)" fill="#007FFF" font-family="'ArialMT'" font-size="4.0047">Area=8.15</text>
	</g>
	<g id="TEXT_109_">
		<text transform="matrix(1 0 0 1 351.5415 139.3535)" fill="#007FFF" font-family="'ArialMT'" font-size="4.0047">Area=8.15</text>
	</g>
	<g id="TEXT_110_">
		<text transform="matrix(1 0 0 1 392.5684 138.4043)" fill="#007FFF" font-family="'ArialMT'" font-size="4.0047">Area=8.17</text>
	</g>
	<g id="TEXT_111_">
		<text transform="matrix(1 0 0 1 433.7607 139.5146)" fill="#007FFF" font-family="'ArialMT'" font-size="4.0047">Area=8.18</text>
	</g>
	<g id="TEXT_112_">
		<text transform="matrix(1 0 0 1 487.6387 139.9971)" fill="#007FFF" font-family="'ArialMT'" font-size="4.0047">Area=13.35</text>
	</g>
	<g id="TEXT_113_">
		<text transform="matrix(1 0 0 1 546.8633 138.0381)" fill="#007FFF" font-family="'ArialMT'" font-size="4.0047">Area=8.22</text>
	</g>
	<g id="TEXT_114_">
		<text transform="matrix(1 0 0 1 539.4453 367.4922)" fill="#007FFF" font-family="'ArialMT'" font-size="4.0047">Area=4.09</text>
	</g>
	<g id="TEXT_115_">
		<text transform="matrix(1 0 0 1 539.0781 421.667)" fill="#007FFF" font-family="'ArialMT'" font-size="4.0047">Area=4.09</text>
	</g>
	<g id="TEXT_116_">
		<text transform="matrix(1 0 0 1 539.2363 472.0361)" fill="#007FFF" font-family="'ArialMT'" font-size="4.0047">Area=4.09</text>
	</g>
	<g id="TEXT_117_">
		<text transform="matrix(1 0 0 1 541.3105 538.8516)" fill="#007FFF" font-family="'ArialMT'" font-size="4.0047">Area=7.31</text>
	</g>
	<g id="TEXT_118_">
		<text transform="matrix(1 0 0 1 539.4824 315.9082)" fill="#007FFF" font-family="'ArialMT'" font-size="4.0047">Area=4.09</text>
	</g>
</g>
<g id="_x30_">
	<g id="MTEXT">
		<text transform="matrix(1 0 0 1 223.394 424.1934)" font-family="'ArialMT'" font-size="32.6348">PLANTA SOTANO</text>
	</g>
	<g id="LINE">
		
			<line fill="none" stroke="#000000" stroke-width="0" stroke-linecap="round" stroke-linejoin="round" stroke-miterlimit="10" x1="89.88" y1="437.584" x2="473.087" y2="437.584"/>
	</g>
	<g id="CIRCLE">
		<path fill="none" stroke="#000000" stroke-width="0" stroke-linecap="round" stroke-linejoin="round" stroke-miterlimit="10" d="
			M190.884,437.584c0-27.892-22.61-50.502-50.502-50.502s-50.502,22.61-50.502,50.502s22.61,50.502,50.502,50.502
			S190.884,465.476,190.884,437.584L190.884,437.584z"/>
	</g>
	<g id="MTEXT_1_">
		<text transform="matrix(1 0 0 1 140.2402 463.5361)" font-family="'ArialMT'" font-size="24.7541">A-02</text>
	</g>
	<g id="MTEXT_2_">
		<text transform="matrix(1 0 0 1 137.1196 425.5703)" font-family="'ArialMT'" font-size="29.7049">01</text>
	</g>
	<g id="MTEXT_3_">
		<text transform="matrix(1 0 0 1 367.2207 458.1738)" font-family="'ArialMT'" font-size="12.2899">ARQUITECTONICO</text>
	</g>
</g>
</svg>
