<?xml version="1.0" encoding="utf-8"?>
<!-- Generator: Adobe Illustrator 16.0.0, SVG Export Plug-In . SVG Version: 6.00 Build 0)  -->
<!DOCTYPE svg PUBLIC "-//W3C//DTD SVG 1.1//EN" "http://www.w3.org/Graphics/SVG/1.1/DTD/svg11.dtd">
<svg version="1.1" xmlns="http://www.w3.org/2000/svg" xmlns:xlink="http://www.w3.org/1999/xlink" x="0px" y="0px" width="800px"
	 height="600px" viewBox="0 0 800 600" enable-background="new 0 0 800 600" xml:space="preserve">
<g id="AREA__x28_POLILINEA_x29_">
	<g id="MTEXT">
		<text transform="matrix(1 -0.0025 0.0025 1 514.498 461.1963)" fill="#0099CC" font-family="'ArialMT'" font-size="2.0547">Local 421</text>
	</g>
	<g id="MTEXT_1_">
		<text transform="matrix(1 -0.0025 0.0025 1 514.3857 473.7031)" fill="#0099CC" font-family="'ArialMT'" font-size="2.0547">Local 422</text>
	</g>
	<g id="MTEXT_2_">
		<text transform="matrix(1 -0.0025 0.0025 1 512.4551 400.5391)" fill="#0099CC" font-family="'ArialMT'" font-size="2.0547">Local 413</text>
	</g>
	<g id="MTEXT_3_">
		<text transform="matrix(1 -0.0025 0.0025 1 513.1807 433.3086)" fill="#0099CC" font-family="'ArialMT'" font-size="2.0547">Local 417</text>
	</g>
	<g id="MTEXT_4_">
		<text transform="matrix(1 -0.0025 0.0025 1 469.2715 464.4473)" fill="#0099CC" font-family="'ArialMT'" font-size="2.0547">Local 418</text>
	</g>
	<g id="MTEXT_5_">
		<text transform="matrix(1 -0.0025 0.0025 1 467.9209 476.5527)" fill="#0099CC" font-family="'ArialMT'" font-size="2.0547">Local 420</text>
	</g>
	<g id="MTEXT_6_">
		<text transform="matrix(1 -0.0025 0.0025 1 525.0957 374.5859)" fill="#0099CC" font-family="'ArialMT'" font-size="2.0547">Local 409</text>
	</g>
	<g id="MTEXT_7_">
		<text transform="matrix(1 -0.0025 0.0025 1 513.7529 446.9531)" fill="#0099CC" font-family="'ArialMT'" font-size="2.0547">Local 419</text>
	</g>
	<g id="MTEXT_8_">
		<text transform="matrix(1 -0.0025 0.0025 1 475.9141 308.9033)" fill="#0099CC" font-family="'ArialMT'" font-size="2.0547">Local 402</text>
	</g>
	<g id="MTEXT_9_">
		<text transform="matrix(1 -0.0025 0.0025 1 512.4082 388.3301)" fill="#0099CC" font-family="'ArialMT'" font-size="2.0547">Local 411</text>
	</g>
	<g id="MTEXT_10_">
		<text transform="matrix(1 -0.0025 0.0025 1 527.3477 334.2051)" fill="#0099CC" font-family="'ArialMT'" font-size="2.0547">Local 403</text>
	</g>
	<g id="MTEXT_11_">
		<text transform="matrix(1 -0.0025 0.0025 1 528.8906 363.2363)" fill="#0099CC" font-family="'ArialMT'" font-size="2.0547">Local 407</text>
	</g>
	<g id="MTEXT_12_">
		<text transform="matrix(1 -0.0025 0.0025 1 528.0879 350.3545)" fill="#0099CC" font-family="'ArialMT'" font-size="2.0547">Local 405</text>
	</g>
	<g id="MTEXT_13_">
		<text transform="matrix(1 -0.0025 0.0025 1 518.9121 312.4277)" fill="#0099CC" font-family="'ArialMT'" font-size="2.0547">Local 401</text>
	</g>
	<g id="MTEXT_14_">
		<text transform="matrix(1 -0.0025 0.0025 1 477.7949 343.9053)" fill="#0099CC" font-family="'ArialMT'" font-size="2.0547">Local 406</text>
	</g>
	<g id="MTEXT_15_">
		<text transform="matrix(1 -0.0025 0.0025 1 468.2158 447.6963)" fill="#0099CC" font-family="'ArialMT'" font-size="2.0547">Local 416</text>
	</g>
	<g id="MTEXT_16_">
		<text transform="matrix(1 -0.0025 0.0025 1 477.3252 361.1016)" fill="#0099CC" font-family="'ArialMT'" font-size="2.0547">Local 408</text>
	</g>
	<g id="MTEXT_17_">
		<text transform="matrix(1 -0.0025 0.0025 1 460.8057 397.166)" fill="#0099CC" font-family="'ArialMT'" font-size="2.0547">Local 412</text>
	</g>
	<g id="MTEXT_18_">
		<text transform="matrix(1 -0.0025 0.0025 1 478.8457 378.3203)" fill="#0099CC" font-family="'ArialMT'" font-size="2.0547">Local 410</text>
	</g>
	<g id="MTEXT_19_">
		<text transform="matrix(1 -0.0025 0.0025 1 468.8047 426.208)" fill="#0099CC" font-family="'ArialMT'" font-size="2.0547">Local 414</text>
	</g>
	<g id="MTEXT_21_">
		<text transform="matrix(1 -0.0017 0.0017 1 729.1289 369.7773)" fill="#0099CC" font-family="'ArialMT'" font-size="2.178">ADMINISTRACIÓN </text>
		<text transform="matrix(1 -0.0017 0.0017 1 729.0205 372.2705)" fill="#0099CC" font-family="'ArialMT'" font-size="2.178">GYM</text>
	</g>
	<g id="MTEXT_22_">
		<text transform="matrix(1 0.001 -0.001 1 733.8203 251.0625)" fill="#0099CC" font-family="'ArialMT'" font-size="3.0821">BODEGA</text>
	</g>
	<g id="MTEXT_23_">
		
			<text transform="matrix(0.9999 0.0112 -0.0112 0.9999 50.3149 161.832)" fill="#0099CC" font-family="'ArialMT'" font-size="3.0821">Local 425</text>
	</g>
	<g id="MTEXT_24_">
		
			<text transform="matrix(0.9999 0.0112 -0.0112 0.9999 143.4775 160.667)" fill="#0099CC" font-family="'ArialMT'" font-size="3.0821">Local 423</text>
	</g>
	<g id="MTEXT_25_">
		
			<text transform="matrix(0.9999 0.0112 -0.0112 0.9999 183.8818 161.2627)" fill="#0099CC" font-family="'ArialMT'" font-size="3.0821">Local 421</text>
	</g>
	<g id="MTEXT_26_">
		
			<text transform="matrix(0.9999 0.0112 -0.0112 0.9999 246.8428 162.9688)" fill="#0099CC" font-family="'ArialMT'" font-size="3.0821">Local 419</text>
	</g>
	<g id="MTEXT_27_">
		
			<text transform="matrix(0.9999 0.0112 -0.0112 0.9999 286.3877 164.0137)" fill="#0099CC" font-family="'ArialMT'" font-size="3.0821">Local 417</text>
	</g>
	<g id="MTEXT_28_">
		
			<text transform="matrix(0.9999 0.0112 -0.0112 0.9999 348.3013 165.8438)" fill="#0099CC" font-family="'ArialMT'" font-size="3.0821">Local 415</text>
	</g>
	<g id="MTEXT_29_">
		
			<text transform="matrix(0.9999 0.0112 -0.0112 0.9999 387.6514 166.9863)" fill="#0099CC" font-family="'ArialMT'" font-size="3.0821">Local 413</text>
	</g>
	<g id="MTEXT_30_">
		
			<text transform="matrix(0.9999 0.0112 -0.0112 0.9999 447.5957 166.6563)" fill="#0099CC" font-family="'ArialMT'" font-size="3.0821">Local 411</text>
	</g>
	<g id="MTEXT_31_">
		
			<text transform="matrix(0.9999 0.0112 -0.0112 0.9999 487.4443 167.9053)" fill="#0099CC" font-family="'ArialMT'" font-size="3.0821">Local 409</text>
	</g>
	<g id="MTEXT_32_">
		
			<text transform="matrix(0.9999 0.0112 -0.0112 0.9999 551.7373 171.0313)" fill="#0099CC" font-family="'ArialMT'" font-size="3.0821">Local 407</text>
	</g>
	<g id="MTEXT_33_">
		
			<text transform="matrix(0.9999 0.0112 -0.0112 0.9999 588.3906 172.1738)" fill="#0099CC" font-family="'ArialMT'" font-size="3.0821">Local 405</text>
	</g>
	<g id="MTEXT_34_">
		
			<text transform="matrix(0.9999 0.0112 -0.0112 0.9999 646.165 175.9639)" fill="#0099CC" font-family="'ArialMT'" font-size="3.0821">Local 403</text>
	</g>
	<g id="MTEXT_35_">
		<text transform="matrix(1 -0.0025 0.0025 1 452.6172 341.7344)" fill="#0099CC" font-family="'ArialMT'" font-size="2.0547">BODEGA 425</text>
	</g>
	<g id="MTEXT_36_">
		<text transform="matrix(1 -0.0025 0.0025 1 446.0391 366.0615)" fill="#0099CC" font-family="'ArialMT'" font-size="2.0547">BODEGA 426</text>
	</g>
	<g id="MTEXT_37_">
		<text transform="matrix(1 -0.0025 0.0025 1 413.5859 366.6875)" fill="#0099CC" font-family="'ArialMT'" font-size="2.0547">BODEGA 427</text>
	</g>
	<g id="MTEXT_38_">
		<text transform="matrix(1 -0.0025 0.0025 1 389.3994 372.3037)" fill="#0099CC" font-family="'ArialMT'" font-size="2.0547">BODEGA 428</text>
	</g>
	<g id="MTEXT_39_">
		<text transform="matrix(1 -0.0025 0.0025 1 367.3203 378.75)" fill="#0099CC" font-family="'ArialMT'" font-size="2.0547">BODEGA 430</text>
	</g>
	<g id="MTEXT_40_">
		<text transform="matrix(1 -0.0025 0.0025 1 368.1543 342.5381)" fill="#0099CC" font-family="'ArialMT'" font-size="2.0547">BODEGA 429</text>
	</g>
	<g id="MTEXT_41_">
		<text transform="matrix(1 -0.0025 0.0025 1 347.1621 342.5898)" fill="#0099CC" font-family="'ArialMT'" font-size="2.0547">BODEGA 431</text>
	</g>
	<g id="MTEXT_42_">
		<text transform="matrix(1 -0.0025 0.0025 1 325.4814 365.1924)" fill="#0099CC" font-family="'ArialMT'" font-size="2.0547">BODEGA 433</text>
	</g>
	<g id="MTEXT_43_">
		<text transform="matrix(1 -0.0025 0.0025 1 346.8545 379.3037)" fill="#0099CC" font-family="'ArialMT'" font-size="2.0547">BODEGA 432</text>
	</g>
	<g id="MTEXT_44_">
		<text transform="matrix(1 -0.0025 0.0025 1 267.5513 374.249)" fill="#0099CC" font-family="'ArialMT'" font-size="2.0547">BODEGA 434</text>
	</g>
	<g id="MTEXT_45_">
		<text transform="matrix(1 -0.0025 0.0025 1 265.6572 345.749)" fill="#0099CC" font-family="'ArialMT'" font-size="2.0547">BODEGA 435</text>
	</g>
	<g id="MTEXT_46_">
		<text transform="matrix(1 -0.0025 0.0025 1 240.3242 342.2041)" fill="#0099CC" font-family="'ArialMT'" font-size="2.0547">BODEGA 436</text>
	</g>
	<g id="MTEXT_47_">
		<text transform="matrix(1 -0.0025 0.0025 1 240.4932 378.0693)" fill="#0099CC" font-family="'ArialMT'" font-size="2.0547">BODEGA 437</text>
	</g>
	<g id="MTEXT_48_">
		<text transform="matrix(1 -0.0025 0.0025 1 215.7871 366.457)" fill="#0099CC" font-family="'ArialMT'" font-size="2.0547">BODEGA 438</text>
	</g>
	<g id="MTEXT_49_">
		<text transform="matrix(1 -0.0025 0.0025 1 193.4619 364.6826)" fill="#0099CC" font-family="'ArialMT'" font-size="2.0547">BODEGA 439</text>
	</g>
	<g id="MTEXT_50_">
		<text transform="matrix(1 -0.0025 0.0025 1 177.9331 378.1289)" fill="#0099CC" font-family="'ArialMT'" font-size="2.0547">BODEGA 441</text>
	</g>
	<g id="MTEXT_51_">
		<text transform="matrix(1 -0.0025 0.0025 1 172.6089 343.0898)" fill="#0099CC" font-family="'ArialMT'" font-size="2.0547">BODEGA 440</text>
	</g>
	<g id="MTEXT_52_">
		<text transform="matrix(1 -0.0025 0.0025 1 149.624 380.8945)" fill="#0099CC" font-family="'ArialMT'" font-size="2.0547">BODEGA 443</text>
	</g>
	<g id="MTEXT_53_">
		<text transform="matrix(1 -0.0025 0.0025 1 150.5479 345.6494)" fill="#0099CC" font-family="'ArialMT'" font-size="2.0547">BODEGA 442</text>
	</g>
	<g id="MTEXT_54_">
		<text transform="matrix(1 -0.0025 0.0025 1 125.6406 381.085)" fill="#0099CC" font-family="'ArialMT'" font-size="2.0547">BODEGA 445</text>
	</g>
	<g id="MTEXT_55_">
		<text transform="matrix(1 0.0012 -0.0012 1 125.7241 345.6377)" fill="#0099CC" font-family="'ArialMT'" font-size="2.0547">BODEGA 444</text>
	</g>
	<g id="MTEXT_56_">
		<text transform="matrix(1 -0.0025 0.0025 1 93.5615 382.2861)" fill="#0099CC" font-family="'ArialMT'" font-size="2.0547">BODEGA 447</text>
	</g>
	<g id="MTEXT_57_">
		
			<text transform="matrix(1 -7.505932e-005 7.505932e-005 1 88.2451 353.6543)" fill="#0099CC" font-family="'ArialMT'" font-size="2.0547">BODEGA 446</text>
	</g>
	<g id="LWPOLYLINE">
		
			<polyline fill="none" stroke="#0099CC" stroke-width="0" stroke-linecap="round" stroke-linejoin="round" stroke-miterlimit="10" points="
			469.919,357.782 469.184,330.267 446.235,330.742 446.668,351.976 462.876,351.637 463.004,357.923 469.919,357.782 		"/>
	</g>
	<g id="LWPOLYLINE_1_">
		
			<polyline fill="none" stroke="#0099CC" stroke-width="0" stroke-linecap="round" stroke-linejoin="round" stroke-miterlimit="10" points="
			470.455,384.063 448.44,387.337 448.265,378.697 433.108,379.006 432.572,352.723 437.254,352.684 437.264,353.207 
			462.549,352.691 462.662,358.279 469.927,358.132 470.455,384.063 		"/>
	</g>
	<g id="LWPOLYLINE_2_">
		
			<polyline fill="none" stroke="#0099CC" stroke-width="0" stroke-linecap="round" stroke-linejoin="round" stroke-miterlimit="10" points="
			432.061,379.027 405.793,379.51 405.269,353.806 426.857,353.419 426.84,352.896 431.526,352.8 432.061,379.027 		"/>
	</g>
	<g id="LWPOLYLINE_3_">
		
			<polyline fill="none" stroke="#0099CC" stroke-width="0" stroke-linecap="round" stroke-linejoin="round" stroke-miterlimit="10" points="
			381.694,389.961 364.721,390.308 364.288,369.074 375.797,368.84 375.783,368.149 381.247,368.038 381.694,389.961 		"/>
	</g>
	<g id="LWPOLYLINE_4_">
		
			<polyline fill="none" stroke="#0099CC" stroke-width="0" stroke-linecap="round" stroke-linejoin="round" stroke-miterlimit="10" points="
			363.673,390.328 342.58,390.759 342.134,368.898 347.598,368.787 347.608,369.288 363.238,368.97 363.673,390.328 		"/>
	</g>
	<g id="LWPOLYLINE_5_">
		
			<polyline fill="none" stroke="#0099CC" stroke-width="0" stroke-linecap="round" stroke-linejoin="round" stroke-miterlimit="10" points="
			383.864,352.479 364.489,352.892 364.072,332.429 367.859,332.331 367.848,331.808 372.731,331.688 372.742,332.211 
			383.448,332.014 383.864,352.494 		"/>
	</g>
	<g id="LWPOLYLINE_6_">
		
			<polyline fill="none" stroke="#0099CC" stroke-width="0" stroke-linecap="round" stroke-linejoin="round" stroke-miterlimit="10" points="
			363.402,352.897 341.873,353.351 341.438,332.888 352.866,332.637 352.855,332.113 359.817,332.026 359.824,332.498 
			362.986,332.44 363.402,352.897 		"/>
	</g>
	<g id="LWPOLYLINE_7_">
		
			<polyline fill="none" stroke="#0099CC" stroke-width="0" stroke-linecap="round" stroke-linejoin="round" stroke-miterlimit="10" points="
			341.33,380.876 320.376,381.303 319.667,346.52 340.622,346.093 340.846,357.128 341.595,357.113 341.717,363.123 
			340.969,363.138 341.33,380.876 		"/>
	</g>
	<g id="LWPOLYLINE_8_">
		
			<polyline fill="none" stroke="#0099CC" stroke-width="0" stroke-linecap="round" stroke-linejoin="round" stroke-miterlimit="10" points="
			282.538,357.269 259.07,357.747 258.585,333.958 270.52,333.791 270.53,334.314 282.066,334.079 282.538,357.269 		"/>
	</g>
	<g id="LWPOLYLINE_9_">
		
			<polyline fill="none" stroke="#0099CC" stroke-width="0" stroke-linecap="round" stroke-linejoin="round" stroke-miterlimit="10" points="
			233.095,353.807 232.972,347.797 244.817,347.556 245.313,371.862 258.304,371.598 258.729,392.467 235.261,392.945 
			234.533,357.198 233.764,357.214 233.694,353.795 233.095,353.807 		"/>
	</g>
	<g id="LWPOLYLINE_10_">
		
			<polyline fill="none" stroke="#0099CC" stroke-width="0" stroke-linecap="round" stroke-linejoin="round" stroke-miterlimit="10" points="
			257.55,334.579 252.381,334.685 252.371,334.16 245.525,334.3 245.536,334.824 233.313,335.073 233.551,346.737 245.844,346.486 
			246.339,370.793 258.283,370.55 257.55,334.579 		"/>
	</g>
	<g id="LWPOLYLINE_11_">
		
			<polyline fill="none" stroke="#0099CC" stroke-width="0" stroke-linecap="round" stroke-linejoin="round" stroke-miterlimit="10" points="
			214.719,382.4 233.99,382.008 233.485,357.22 220.144,357.492 220.133,356.923 215.732,357.013 215.787,357.581 209.082,357.717 
			209.32,371.548 214.446,371.443 214.669,382.402 		"/>
	</g>
	<g id="LWPOLYLINE_12_">
		
			<polyline fill="none" stroke="#0099CC" stroke-width="0" stroke-linecap="round" stroke-linejoin="round" stroke-miterlimit="10" points="
			404.036,344.768 394.259,345 394.489,356.068 388.865,367.745 388.884,368.657 382.311,368.791 382.54,380.036 404.746,379.584 
			404.036,344.768 		"/>
	</g>
	<g id="MTEXT_59_">
		
			<text transform="matrix(0.9998 -0.0204 0.0204 0.9998 121.1313 308.3213)" fill="#0099CC" font-family="'ArialMT'" font-size="2.0547">BODEGA </text>
		
			<text transform="matrix(0.9998 -0.0204 0.0204 0.9998 121.2959 310.6533)" fill="#0099CC" font-family="'ArialMT'" font-size="2.0547">448</text>
		
			<text transform="matrix(0.9998 -0.0204 0.0204 0.9998 121.2261 312.9834)" fill="#0099CC" font-family="'ArialMT'" font-size="2.0547">Lic. Flores</text>
	</g>
	<g id="MTEXT_60_">
		
			<text transform="matrix(0.9998 -0.018 0.018 0.9998 498.7432 394.6973)" fill="#0099CC" font-family="'ArialMT'" font-size="1.2387">Sube </text>
	</g>
	<g id="MTEXT_61_">
		
			<text transform="matrix(0.9999 0.0112 -0.0112 0.9999 416.8887 144.6094)" fill="#0099CC" font-family="'ArialMT'" font-size="3.0821">Elevador</text>
	</g>
	<g id="MTEXT_62_">
		
			<text transform="matrix(0.9999 0.0112 -0.0112 0.9999 314.0557 165.0732)" fill="#0099CC" font-family="'ArialMT'" font-size="3.0821">Local Nuevo</text>
	</g>
	<g id="LWPOLYLINE_13_">
		
			<polygon fill="none" stroke="#0099CC" stroke-width="0" stroke-linecap="round" stroke-linejoin="round" stroke-miterlimit="10" points="
			8.628,111.27 7.225,146.966 9.381,146.99 9.35,149.784 7.115,149.771 4.798,207.306 106.788,208.019 106.929,195.59 
			104.623,195.564 104.654,192.77 106.958,192.921 107.429,150.881 105.124,150.856 105.538,119.239 		"/>
	</g>
	<g id="LWPOLYLINE_14_">
		
			<polygon fill="none" stroke="#0099CC" stroke-width="0" stroke-linecap="round" stroke-linejoin="round" stroke-miterlimit="10" points="
			132.243,122.345 131.92,151.155 129.615,151.13 129.146,193.043 131.451,193.069 131.434,194.662 167.551,195.085 
			167.567,193.473 168.72,193.486 169.188,151.572 168.036,151.56 168.067,148.765 169.229,148.778 169.496,124.119 		"/>
	</g>
	<g id="LWPOLYLINE_15_">
		
			<polygon fill="none" stroke="#0099CC" stroke-width="0" stroke-linecap="round" stroke-linejoin="round" stroke-miterlimit="10" points="
			168.72,193.486 169.873,193.499 169.873,195.092 205.97,195.496 206.001,192.702 208.307,192.702 208.716,150.813 206.47,150.788 
			206.687,126.056 169.496,124.119 		"/>
	</g>
	<g id="LWPOLYLINE_16_">
		
			<polygon fill="none" stroke="#0099CC" stroke-width="0" stroke-linecap="round" stroke-linejoin="round" stroke-miterlimit="10" points="
			229.394,192.963 234.121,193.016 234.121,195.776 269,196.201 269.028,193.407 270.181,193.419 270.649,151.506 268.817,151.485 
			268.849,148.691 270.681,148.711 270.895,129.578 233.406,127.845 233.177,148.362 234.65,148.378 234.619,151.172 
			229.867,151.119 		"/>
	</g>
	<g id="LWPOLYLINE_17_">
		
			<polygon fill="none" stroke="#0099CC" stroke-width="0" stroke-linecap="round" stroke-linejoin="round" stroke-miterlimit="10" points="
			270.18,193.419 271.333,193.432 271.302,196.227 307.424,196.63 307.449,193.836 309.075,193.854 309.543,151.941 
			307.238,151.941 307.27,149.121 308.422,149.134 308.426,130.686 270.889,129.578 		"/>
	</g>
	<g id="LWPOLYLINE_18_">
		
			<polygon fill="none" stroke="#0099CC" stroke-width="0" stroke-linecap="round" stroke-linejoin="round" stroke-miterlimit="10" points="
			309.075,193.854 309.754,193.862 309.723,196.656 331.937,196.905 332.438,152.127 331.759,152.119 331.759,149.325 
			332.942,149.338 332.877,132.406 308.426,130.686 308.422,149.134 309.575,149.134 		"/>
	</g>
	<g id="LWPOLYLINE_19_">
		
			<polygon fill="none" stroke="#0099CC" stroke-width="0" stroke-linecap="round" stroke-linejoin="round" stroke-miterlimit="10" points="
			331.968,194.11 334.274,194.124 334.242,196.931 370.427,197.403 370.458,194.611 371.611,194.624 372.081,152.64 370.249,152.62 
			370.28,149.826 372.112,149.846 372.287,134.206 333.653,132.69 333.466,149.344 334.095,149.351 334.095,152.146 
			332.438,152.127 		"/>
	</g>
	<g id="LWPOLYLINE_20_">
		
			<polygon fill="none" stroke="#0099CC" stroke-width="0" stroke-linecap="round" stroke-linejoin="round" stroke-miterlimit="10" points="
			371.611,194.618 372.764,194.624 372.764,197.432 408.918,197.836 408.918,195.041 410.505,195.059 410.975,153.075 
			408.67,153.049 408.864,135.64 372.287,134.206 372.112,149.846 372.585,149.851 372.554,152.646 372.081,152.64 		"/>
	</g>
	<g id="LWPOLYLINE_21_">
		
			<polygon fill="none" stroke="#0099CC" stroke-width="0" stroke-linecap="round" stroke-linejoin="round" stroke-miterlimit="10" points="
			430.225,198.074 433.368,198.107 433.399,195.315 435.704,195.341 435.704,198.135 471.929,198.506 471.96,195.747 
			473.112,195.759 473.561,153.775 471.661,153.754 471.692,150.96 473.613,150.981 473.766,137.35 435.596,136.344 
			435.405,153.349 433.101,153.349 433.105,152.694 430.732,152.667 		"/>
	</g>
	<g id="LWPOLYLINE_22_">
		
			<polygon fill="none" stroke="#0099CC" stroke-width="0" stroke-linecap="round" stroke-linejoin="round" stroke-miterlimit="10" points="
			473.766,137.35 473.112,195.759 474.265,195.772 474.234,198.53 509.023,198.886 509.055,196.091 513.944,196.146 
			514.413,154.232 508.895,154.171 508.926,151.376 510.342,151.392 510.485,138.591 		"/>
	</g>
	<g id="LWPOLYLINE_23_">
		
			<polygon fill="none" stroke="#0099CC" stroke-width="0" stroke-linecap="round" stroke-linejoin="round" stroke-miterlimit="10" points="
			535.11,196.383 537.207,196.383 537.175,199.201 573.36,199.673 573.392,196.881 574.544,196.894 575.013,154.91 573.162,154.91 
			573.193,152.095 575.044,152.108 575.159,141.825 537.209,139.973 537.047,154.485 535.58,154.469 		"/>
	</g>
	<g id="LWPOLYLINE_24_">
		
			<polygon fill="none" stroke="#0099CC" stroke-width="0" stroke-linecap="round" stroke-linejoin="round" stroke-miterlimit="10" points="
			575.665,199.701 575.696,196.907 574.544,196.888 575.159,141.825 577.71,141.854 577.69,145.347 636.12,147.839 676.167,148.647 
			797.805,149.658 797.64,202.166 776.218,201.735 776.747,154.372 732.536,153.878 684.108,153.336 684.108,150.629 
			635.555,150.629 635.555,166.138 612.641,166.138 612.641,197.11 611.814,197.101 611.783,199.896 		"/>
	</g>
	<g id="LWPOLYLINE_25_">
		
			<polygon fill="none" stroke="#0099CC" stroke-width="0" stroke-linecap="round" stroke-linejoin="round" stroke-miterlimit="10" points="
			614.089,199.921 614.12,197.127 612.641,197.127 612.641,166.138 635.555,166.383 635.555,150.629 684.108,150.629 
			684.108,153.336 683.637,153.331 683.605,156.125 684.108,156.125 684.108,197.576 682.571,197.576 682.571,200.897 		"/>
	</g>
	<g id="LWPOLYLINE_26_">
		
			<polygon fill="none" stroke="#0099CC" stroke-width="0" stroke-linecap="round" stroke-linejoin="round" stroke-miterlimit="10" points="
			80.684,337.616 81.367,366.943 111.067,366.338 110.923,354.812 117.365,354.681 117.002,336.87 		"/>
	</g>
	<g id="LWPOLYLINE_27_">
		
			<polygon fill="none" stroke="#0099CC" stroke-width="0" stroke-linecap="round" stroke-linejoin="round" stroke-miterlimit="10" points="
			118.057,337.197 118.413,354.659 137.545,354.06 137.556,354.584 144.4,354.444 144.031,336.319 143.123,336.338 143.13,336.687 
			141.733,336.715 141.726,336.366 133.416,336.535 133.423,336.885 131.955,336.914 131.948,336.565 118.399,336.842 
			118.406,337.19 		"/>
	</g>
	<g id="LWPOLYLINE_28_">
		
			<polygon fill="none" stroke="#0099CC" stroke-width="0" stroke-linecap="round" stroke-linejoin="round" stroke-miterlimit="10" points="
			81.396,368.341 81.929,397.425 118.191,396.225 117.611,366.729 111.601,366.852 111.612,367.375 94.572,367.723 94.579,368.072 
			93.183,368.101 93.175,367.751 81.65,367.986 81.658,368.335 		"/>
	</g>
	<g id="LWPOLYLINE_29_">
		
			<polygon fill="none" stroke="#0099CC" stroke-width="0" stroke-linecap="round" stroke-linejoin="round" stroke-miterlimit="10" points="
			119.238,396.196 143.001,395.419 142.25,367.101 142.242,366.751 134.035,366.918 134.042,367.268 132.646,367.296 
			132.638,366.947 125.028,367.102 125.017,366.578 119.008,366.7 119.025,367.573 118.676,367.581 		"/>
	</g>
	<g id="LWPOLYLINE_30_">
		
			<polygon fill="none" stroke="#0099CC" stroke-width="0" stroke-linecap="round" stroke-linejoin="round" stroke-miterlimit="10" points="
			144.048,395.384 167.759,394.602 167.177,366.243 149.925,366.595 149.915,366.073 143.632,366.373 143.646,367.072 
			143.472,367.075 		"/>
	</g>
	<g id="LWPOLYLINE_31_">
		
			<polygon fill="none" stroke="#0099CC" stroke-width="0" stroke-linecap="round" stroke-linejoin="round" stroke-miterlimit="10" points="
			145.079,336.298 145.448,354.766 152.3,354.626 152.29,354.102 167,353.849 166.922,334.936 170.341,334.866 171.037,334.852 
			170.395,305.727 156.313,306.039 156.907,335.009 159.935,334.947 159.959,336.135 		"/>
	</g>
	<g id="LWPOLYLINE_32_">
		
			<polygon fill="none" stroke="#0099CC" stroke-width="0" stroke-linecap="round" stroke-linejoin="round" stroke-miterlimit="10" points="
			168.806,394.573 189.931,393.869 189.708,382.91 213.674,382.422 213.469,372.512 190.274,372.984 190.09,365.776 174.234,366.1 
			174.224,365.575 168.214,365.698 		"/>
	</g>
	<g id="LWPOLYLINE_33_">
		
			<polygon fill="none" stroke="#0099CC" stroke-width="0" stroke-linecap="round" stroke-linejoin="round" stroke-miterlimit="10" points="
			191.019,358.085 191.3,371.915 208.276,371.569 208.001,357.215 203.58,357.306 203.591,357.829 		"/>
	</g>
	<g id="LWPOLYLINE_34_">
		
			<polygon fill="none" stroke="#0099CC" stroke-width="0" stroke-linecap="round" stroke-linejoin="round" stroke-miterlimit="10" points="
			259.777,392.446 279.509,392.044 279.327,383.118 298.169,382.761 297.845,366.728 292.257,366.842 292.269,367.397 
			282.748,367.564 282.56,358.316 259.091,358.794 		"/>
	</g>
	<g id="LWPOLYLINE_35_">
		
			<polygon fill="none" stroke="#0099CC" stroke-width="0" stroke-linecap="round" stroke-linejoin="round" stroke-miterlimit="10" points="
			469.123,318.738 492,318.098 491.631,300.007 468.751,300.474 		"/>
	</g>
	<g id="LWPOLYLINE_36_">
		
			<rect x="470.967" y="335.714" transform="matrix(-0.9998 0.0204 -0.0204 -0.9998 969.6985 678.1164)" fill="none" stroke="#0099CC" stroke-width="0" stroke-linecap="round" stroke-linejoin="round" stroke-miterlimit="10" width="20.86" height="16.564"/>
	</g>
	<g id="LWPOLYLINE_37_">
		
			<polyline fill="none" stroke="#0099CC" stroke-width="0" stroke-linecap="round" stroke-linejoin="round" stroke-miterlimit="10" points="
			471.153,353.25 471.506,369.873 492.219,369.451 492.009,352.825 		"/>
	</g>
	<g id="LWPOLYLINE_38_">
		
			<polygon fill="none" stroke="#0099CC" stroke-width="0" stroke-linecap="round" stroke-linejoin="round" stroke-miterlimit="10" points="
			471.506,370.572 471.751,382.613 478.994,382.466 479.154,390.328 492.738,389.862 492.361,370.146 		"/>
	</g>
	<g id="LWPOLYLINE_39_">
		
			<polygon fill="none" stroke="#0099CC" stroke-width="0" stroke-linecap="round" stroke-linejoin="round" stroke-miterlimit="10" points="
			471.501,383.965 471.521,384.964 448.809,388.315 449.38,414.625 493.066,413.669 492.781,390.749 479.168,391.026 
			479.466,405.605 468.599,405.628 468.599,404.257 478.04,404.237 477.625,383.892 		"/>
	</g>
	<g id="LWPOLYLINE_40_">
		
			<polygon fill="none" stroke="#0099CC" stroke-width="0" stroke-linecap="round" stroke-linejoin="round" stroke-miterlimit="10" points="
			493.961,414.346 449.394,415.254 449.852,436.276 494.627,435.304 		"/>
	</g>
	<g id="LWPOLYLINE_41_">
		
			<polygon fill="none" stroke="#0099CC" stroke-width="0" stroke-linecap="round" stroke-linejoin="round" stroke-miterlimit="10" points="
			449.866,436.976 450.331,458.348 494.135,457.457 493.705,436.082 		"/>
	</g>
	<g id="LWPOLYLINE_42_">
		
			<polygon fill="none" stroke="#0099CC" stroke-width="0" stroke-linecap="round" stroke-linejoin="round" stroke-miterlimit="10" points="
			452.599,459.023 452.843,471.014 494.396,470.246 494.155,458.153 		"/>
	</g>
	<g id="LWPOLYLINE_43_">
		
			<polygon fill="none" stroke="#0099CC" stroke-width="0" stroke-linecap="round" stroke-linejoin="round" stroke-miterlimit="10" points="
			452.859,471.852 453.063,481.799 455.019,481.779 455.03,482.383 494.522,482.183 494.417,471.005 		"/>
	</g>
	<g id="LWPOLYLINE_44_">
		
			<polygon fill="none" stroke="#0099CC" stroke-width="0" stroke-linecap="round" stroke-linejoin="round" stroke-miterlimit="10" points="
			506.337,468.25 506.849,481.872 530.713,481.445 530.435,467.759 		"/>
	</g>
	<g id="LWPOLYLINE_45_">
		
			<polygon fill="none" stroke="#0099CC" stroke-width="0" stroke-linecap="round" stroke-linejoin="round" stroke-miterlimit="10" points="
			506.068,455.049 506.405,467.391 530.42,467.061 530.148,454.558 		"/>
	</g>
	<g id="LWPOLYLINE_46_">
		
			<polygon fill="none" stroke="#0099CC" stroke-width="0" stroke-linecap="round" stroke-linejoin="round" stroke-miterlimit="10" points="
			505.77,440.386 506.137,454.189 530.148,453.718 529.866,439.89 		"/>
	</g>
	<g id="LWPOLYLINE_47_">
		
			<polygon fill="none" stroke="#0099CC" stroke-width="0" stroke-linecap="round" stroke-linejoin="round" stroke-miterlimit="10" points="
			505.486,426.481 505.771,439.496 529.852,439.191 529.583,425.99 		"/>
	</g>
	<g id="LWPOLYLINE_48_">
		
			<polygon fill="none" stroke="#0099CC" stroke-width="0" stroke-linecap="round" stroke-linejoin="round" stroke-miterlimit="10" points="
			505.113,396.17 505.153,410.145 518.249,409.878 518.145,404.737 529.215,404.512 529.035,395.683 		"/>
	</g>
	<g id="LWPOLYLINE_49_">
		
			<polygon fill="none" stroke="#0099CC" stroke-width="0" stroke-linecap="round" stroke-linejoin="round" stroke-miterlimit="10" points="
			504.584,382.195 528.75,381.703 529.022,395.055 505.101,395.542 		"/>
	</g>
	<g id="LWPOLYLINE_50_">
		
			<polygon fill="none" stroke="#0099CC" stroke-width="0" stroke-linecap="round" stroke-linejoin="round" stroke-miterlimit="10" points="
			504.328,369.634 504.582,381.442 559.051,380.387 558.809,368.523 		"/>
	</g>
	<g id="LWPOLYLINE_51_">
		
			<polygon fill="none" stroke="#0099CC" stroke-width="0" stroke-linecap="round" stroke-linejoin="round" stroke-miterlimit="10" points="
			504.117,359.297 504.334,368.746 558.795,367.825 558.598,358.187 		"/>
	</g>
	<g id="LWPOLYLINE_52_">
		
			<polygon fill="none" stroke="#0099CC" stroke-width="0" stroke-linecap="round" stroke-linejoin="round" stroke-miterlimit="10" points="
			504.103,358.598 558.584,357.488 558.294,343.239 503.935,344.347 		"/>
	</g>
	<g id="LWPOLYLINE_53_">
		
			<polygon fill="none" stroke="#0099CC" stroke-width="0" stroke-linecap="round" stroke-linejoin="round" stroke-miterlimit="10" points="
			503.457,326.888 503.818,343.462 558.279,342.541 557.938,325.777 		"/>
	</g>
	<g id="LWPOLYLINE_54_">
		
			<polygon fill="none" stroke="#0099CC" stroke-width="0" stroke-linecap="round" stroke-linejoin="round" stroke-miterlimit="10" points="
			507.074,300.392 504.659,317.592 503.451,326.189 539.966,325.445 540.268,299.763 		"/>
	</g>
	<g id="MTEXT_63_">
		<text transform="matrix(1 0 0 1 87.8701 356.1787)" fill="#0099CC" font-family="'ArialMT'" font-size="1.9263">Área= 20.28 m²</text>
	</g>
	<g id="MTEXT_64_">
		<text transform="matrix(1 0 0 1 125.6016 347.958)" fill="#0099CC" font-family="'ArialMT'" font-size="1.9263">Área= 9.46 m²</text>
	</g>
	<g id="MTEXT_65_">
		<text transform="matrix(1 0 0 1 150.1348 348.2676)" fill="#0099CC" font-family="'ArialMT'" font-size="1.9263">Área= 16.58 m²</text>
	</g>
	<g id="MTEXT_66_">
		<text transform="matrix(1 0 0 1 125.4233 384.0479)" fill="#0099CC" font-family="'ArialMT'" font-size="1.9263">Área= 14.03 m²</text>
	</g>
	<g id="MTEXT_67_">
		<text transform="matrix(1 0 0 1 93.2026 384.9629)" fill="#0099CC" font-family="'ArialMT'" font-size="1.9263">Área= 21.75 m²</text>
	</g>
	<g id="MTEXT_68_">
		<text transform="matrix(1 0 0 1 149.4336 383.3965)" fill="#0099CC" font-family="'ArialMT'" font-size="1.9263">Área= 13.91 m²</text>
	</g>
	<g id="MTEXT_69_">
		<text transform="matrix(1 0 0 1 177.6978 380.7051)" fill="#0099CC" font-family="'ArialMT'" font-size="1.9263">Área= 17.26 m²</text>
	</g>
	<g id="MTEXT_70_">
		<text transform="matrix(1 0 0 1 193.6445 367.2578)" fill="#0099CC" font-family="'ArialMT'" font-size="1.9263">Área= 4.86 m²</text>
	</g>
	<g id="MTEXT_71_">
		<text transform="matrix(1 0 0 1 215.5791 368.9141)" fill="#0099CC" font-family="'ArialMT'" font-size="1.9263">Área= 11.31 m²</text>
	</g>
	<g id="MTEXT_72_">
		<text transform="matrix(1 0 0 1 239.8862 344.457)" fill="#0099CC" font-family="'ArialMT'" font-size="1.9263">Área= 11.82 m²</text>
	</g>
	<g id="MTEXT_73_">
		<text transform="matrix(1 0 0 1 265.4492 348.3652)" fill="#0099CC" font-family="'ArialMT'" font-size="1.9263">Área= 11.29 m²</text>
	</g>
	<g id="MTEXT_74_">
		<text transform="matrix(1 0 0 1 240.2559 380.21)" fill="#0099CC" font-family="'ArialMT'" font-size="1.9263">Área= 15.48 m²</text>
	</g>
	<g id="MTEXT_75_">
		<text transform="matrix(1 0 0 1 267.2642 376.7227)" fill="#0099CC" font-family="'ArialMT'" font-size="1.9263">Área= 20.36 m²</text>
	</g>
	<g id="MTEXT_76_">
		<text transform="matrix(1 0 0 1 325.2695 367.752)" fill="#0099CC" font-family="'ArialMT'" font-size="1.9263">Área= 15.03 m²</text>
	</g>
	<g id="MTEXT_77_">
		<text transform="matrix(1 0 0 1 346.667 345.1035)" fill="#0099CC" font-family="'ArialMT'" font-size="1.9263">Área= 9.10 m²</text>
	</g>
	<g id="MTEXT_78_">
		<text transform="matrix(1 0 0 1 368.3862 345.0801)" fill="#0099CC" font-family="'ArialMT'" font-size="1.9263">Área= 8.18 m²</text>
	</g>
	<g id="MTEXT_79_">
		<text transform="matrix(1 0 0 1 347.2397 381.8047)" fill="#0099CC" font-family="'ArialMT'" font-size="1.9263">Área= 9.29 m²</text>
	</g>
	<g id="MTEXT_80_">
		<text transform="matrix(1 0 0 1 367.6958 381.0898)" fill="#0099CC" font-family="'ArialMT'" font-size="1.9263">Área= 7.46 m²</text>
	</g>
	<g id="MTEXT_81_">
		<text transform="matrix(1 0 0 1 389.2593 375.0264)" fill="#0099CC" font-family="'ArialMT'" font-size="1.9263">Área= 10.64 m²</text>
	</g>
	<g id="MTEXT_82_">
		<text transform="matrix(1 0 0 1 413.0527 369.0625)" fill="#0099CC" font-family="'ArialMT'" font-size="1.9263">Área= 13.88 m²</text>
	</g>
	<g id="MTEXT_83_">
		<text transform="matrix(1 0 0 1 445.9268 368.5928)" fill="#0099CC" font-family="'ArialMT'" font-size="1.9263">Área= 22.10 m²</text>
	</g>
	<g id="MTEXT_84_">
		<text transform="matrix(1 0 0 1 452.2803 344.2158)" fill="#0099CC" font-family="'ArialMT'" font-size="1.9263">Área= 10.90 m²</text>
	</g>
	<g id="MTEXT_85_">
		<text transform="matrix(1 0 0 1 476.7568 346.7314)" fill="#0099CC" font-family="'ArialMT'" font-size="1.9263">Área= 7.08 m²</text>
	</g>
	<g id="MTEXT_86_">
		<text transform="matrix(1 0 0 1 475.9648 363.3867)" fill="#0099CC" font-family="'ArialMT'" font-size="1.9263">Área= 7.08 m²</text>
	</g>
	<g id="MTEXT_87_">
		<text transform="matrix(1 0 0 1 477.0762 380.8359)" fill="#0099CC" font-family="'ArialMT'" font-size="1.9263">Área= 7.31 m²</text>
	</g>
	<g id="MTEXT_88_">
		<text transform="matrix(1 0 0 1 458.9521 399.5869)" fill="#0099CC" font-family="'ArialMT'" font-size="1.9263">Área= 23.05 m²</text>
	</g>
	<g id="MTEXT_89_">
		<text transform="matrix(1 0 0 1 466.8633 428.8252)" fill="#0099CC" font-family="'ArialMT'" font-size="1.9263">Área= 19.22 m²</text>
	</g>
	<g id="MTEXT_90_">
		<text transform="matrix(1 0 0 1 466.8691 449.9844)" fill="#0099CC" font-family="'ArialMT'" font-size="1.9263">Área= 19.20 m²</text>
	</g>
	<g id="MTEXT_91_">
		<text transform="matrix(1 0 0 1 467.0293 466.752)" fill="#0099CC" font-family="'ArialMT'" font-size="1.9263">Área= 10.25 m²</text>
	</g>
	<g id="MTEXT_92_">
		<text transform="matrix(1 0 0 1 466.5498 479.0273)" fill="#0099CC" font-family="'ArialMT'" font-size="1.9263">Área= 9.21 m²</text>
	</g>
	<g id="MTEXT_93_">
		<text transform="matrix(1 0 0 1 512.8105 476.0215)" fill="#0099CC" font-family="'ArialMT'" font-size="1.9263">Área= 6.71 m²</text>
	</g>
	<g id="MTEXT_94_">
		<text transform="matrix(1 0 0 1 512.3818 463.3828)" fill="#0099CC" font-family="'ArialMT'" font-size="1.9263">Área= 6.12 m²</text>
	</g>
	<g id="MTEXT_95_">
		<text transform="matrix(1 0 0 1 511.9531 449.1377)" fill="#0099CC" font-family="'ArialMT'" font-size="1.9263">Área= 6.81 m²</text>
	</g>
	<g id="MTEXT_96_">
		<text transform="matrix(1 0 0 1 511.417 435.4277)" fill="#0099CC" font-family="'ArialMT'" font-size="1.9263">Área= 6.47 m²</text>
	</g>
	<g id="MTEXT_97_">
		<text transform="matrix(1 0 0 1 510.9824 402.873)" fill="#0099CC" font-family="'ArialMT'" font-size="1.9263">Área= 5.72 m²</text>
	</g>
	<g id="MTEXT_98_">
		<text transform="matrix(1 0 0 1 510.8057 390.7998)" fill="#0099CC" font-family="'ArialMT'" font-size="1.9263">Área= 6.58 m²</text>
	</g>
	<g id="MTEXT_99_">
		<text transform="matrix(1 0 0 1 523.6016 376.7764)" fill="#0099CC" font-family="'ArialMT'" font-size="1.9263">Área= 13.21 m²</text>
	</g>
	<g id="MTEXT_100_">
		<text transform="matrix(1 0 0 1 527.1748 365.6016)" fill="#0099CC" font-family="'ArialMT'" font-size="1.9263">Área= 10.65 m²</text>
	</g>
	<g id="MTEXT_101_">
		<text transform="matrix(1 0 0 1 526.3047 352.6855)" fill="#0099CC" font-family="'ArialMT'" font-size="1.9263">Área= 15.89 m²</text>
	</g>
	<g id="MTEXT_102_">
		<text transform="matrix(1 0 0 1 525.293 336.625)" fill="#0099CC" font-family="'ArialMT'" font-size="1.9263">Área= 18.61 m²</text>
	</g>
	<g id="MTEXT_103_">
		<text transform="matrix(1 0 0 1 516.5645 314.9121)" fill="#0099CC" font-family="'ArialMT'" font-size="1.9263">Área= 18.35 m²</text>
	</g>
	<g id="MTEXT_104_">
		<text transform="matrix(1 0 0 1 474.5313 311.2158)" fill="#0099CC" font-family="'ArialMT'" font-size="1.9263">Área= 8.52 m²</text>
	</g>
	<g id="MTEXT_105_">
		<text transform="matrix(1 0 0 1 48.6348 165.3643)" fill="#0099CC" font-family="'ArialMT'" font-size="2.4079">Área= 188.70 m²</text>
	</g>
	<g id="MTEXT_106_">
		<text transform="matrix(1 0 0 1 141.9731 163.9873)" fill="#0099CC" font-family="'ArialMT'" font-size="2.4079">Área= 56.60 m²</text>
	</g>
	<g id="MTEXT_107_">
		<text transform="matrix(1 0 0 1 182.0313 165.0039)" fill="#0099CC" font-family="'ArialMT'" font-size="2.4079">Área= 55.51 m²</text>
	</g>
	<g id="MTEXT_108_">
		<text transform="matrix(1 0 0 1 245.6992 166.4658)" fill="#0099CC" font-family="'ArialMT'" font-size="2.4079">Área= 54.18 m²</text>
	</g>
	<g id="MTEXT_109_">
		<text transform="matrix(1 0 0 1 283.937 168.1104)" fill="#0099CC" font-family="'ArialMT'" font-size="2.4079">Área= 52.06 m²</text>
	</g>
	<g id="MTEXT_110_">
		<text transform="matrix(1 0 0 1 314.1245 168.8418)" fill="#0099CC" font-family="'ArialMT'" font-size="2.4079">Área= 31.10 m²</text>
	</g>
	<g id="MTEXT_111_">
		<text transform="matrix(1 0 0 1 346.5674 169.583)" fill="#0099CC" font-family="'ArialMT'" font-size="2.4079">Área= 51.03 m²</text>
	</g>
	<g id="MTEXT_112_">
		<text transform="matrix(1 0 0 1 385.9023 170.3145)" fill="#0099CC" font-family="'ArialMT'" font-size="2.4079">Área= 48.94 m²</text>
	</g>
	<g id="MTEXT_113_">
		<text transform="matrix(1 0 0 1 446.2129 170.4297)" fill="#0099CC" font-family="'ArialMT'" font-size="2.4079">Área= 52.10 m²</text>
	</g>
	<g id="MTEXT_114_">
		<text transform="matrix(1 0 0 1 486.2734 171.1445)" fill="#0099CC" font-family="'ArialMT'" font-size="2.4079">Área= 49.04 m²</text>
	</g>
	<g id="MTEXT_115_">
		<text transform="matrix(1 0 0 1 549.7891 174.1436)" fill="#0099CC" font-family="'ArialMT'" font-size="2.4079">Área= 46.60 m²</text>
	</g>
	<g id="MTEXT_116_">
		<text transform="matrix(1 0 0 1 587.125 175.4141)" fill="#0099CC" font-family="'ArialMT'" font-size="2.4079">Área= 84.67 m²</text>
	</g>
	<g id="MTEXT_117_">
		<text transform="matrix(1 0 0 1 644.6152 179.4502)" fill="#0099CC" font-family="'ArialMT'" font-size="2.4079">Área= 65.34 m²</text>
	</g>
	<g id="LWPOLYLINE_55_">
		
			<polygon fill="none" stroke="#0099CC" stroke-width="0" stroke-linecap="round" stroke-linejoin="round" stroke-miterlimit="10" points="
			166.904,334.904 166.904,357.339 168.997,357.339 189.837,347.452 189.837,334.81 		"/>
	</g>
	<g id="MTEXT_118_">
		<text transform="matrix(1 0 0 1 172.8271 345.1602)" fill="#0099CC" font-family="'ArialMT'" font-size="1.9263">Área= 8.45 m²</text>
	</g>
	<g id="LWPOLYLINE_60_">
		
			<polygon fill="none" stroke="#0099CC" stroke-width="0" stroke-linecap="round" stroke-linejoin="round" stroke-miterlimit="10" points="
			113.59,335.538 141.283,335.009 140.609,301.94 116.689,302.428 116.732,304.523 113.729,304.584 		"/>
	</g>
	<g id="LWPOLYLINE_72_">
		
			<polyline fill="none" stroke="#0099CC" stroke-width="0" stroke-linecap="round" stroke-linejoin="round" stroke-miterlimit="10" points="
			776.747,154.372 776.218,201.735 797.641,201.735 797.641,297.076 683.899,296.686 684.108,153.336 		"/>
	</g>
</g>
<g id="AREAS_COMUNES">
	<g id="MTEXT_20_">
		<text transform="matrix(1 0 0 1 654.7949 352.1133)" fill="#7FFF9F" font-family="'ArialMT'" font-size="1.9263">SUBE</text>
	</g>
	<g id="MTEXT_58_">
		
			<text transform="matrix(0.9999 -0.0166 0.0166 0.9999 314.2144 343.0244)" fill="#7FFF9F" font-family="'ArialMT'" font-size="1.541">Sube a</text>
		
			<text transform="matrix(0.9999 -0.0166 0.0166 0.9999 314.3125 344.7695)" fill="#7FFF9F" font-family="'ArialMT'" font-size="1.541">Azotea</text>
	</g>
	<g id="LWPOLYLINE_56_">
		
			<polyline fill="none" stroke="#7FFF9F" stroke-width="0" stroke-linecap="round" stroke-linejoin="round" stroke-miterlimit="10" points="
			0,295.216 4.59,295.193 7.792,399.126 10.829,401.145 447.506,389.197 449.582,490.191 533.547,488.479 531.559,382.345 
			558.492,382.144 558.501,386.859 692.843,386.624 692.846,388.283 692.849,389.942 799.703,389.756 800,148.286 638.149,146.464 
			579.083,144.008 579.244,140.526 333.143,131.037 308.728,129.298 207.652,124.812 169.229,122.708 106.312,117.899 
			7.219,109.809 0,295.216 		"/>
	</g>
	<g id="LWPOLYLINE_57_">
		
			<rect x="107.485" y="158.288" fill="none" stroke="#7FFF9F" stroke-width="0" stroke-linecap="round" stroke-linejoin="round" stroke-miterlimit="10" width="19.635" height="30.96"/>
	</g>
	<g id="LWPOLYLINE_58_">
		
			<rect x="209.174" y="158.937" fill="none" stroke="#7FFF9F" stroke-width="0" stroke-linecap="round" stroke-linejoin="round" stroke-miterlimit="10" width="19.286" height="30.956"/>
	</g>
	<g id="LWPOLYLINE_59_">
		
			<rect x="514.682" y="161.498" fill="none" stroke="#7FFF9F" stroke-width="0" stroke-linecap="round" stroke-linejoin="round" stroke-miterlimit="10" width="20.122" height="31.109"/>
	</g>
	<g id="TEXT">
		<text transform="matrix(1 0 0 1 112.3496 183.1641)" fill="#7FFF9F" font-family="'ArialMT'" font-size="3.8526">Sube</text>
	</g>
	<g id="TEXT_1_">
		<text transform="matrix(1 0 0 1 109.0195 173.2656)" fill="#7FFF9F" font-family="'ArialMT'" font-size="3.8526">Escalera</text>
	</g>
	<g id="TEXT_2_">
		<text transform="matrix(1 0 0 1 215.4482 181.876)" fill="#7FFF9F" font-family="'ArialMT'" font-size="3.8526">Sube</text>
	</g>
	<g id="TEXT_3_">
		<text transform="matrix(1 0 0 1 212.1187 171.9775)" fill="#7FFF9F" font-family="'ArialMT'" font-size="3.8526">Escalera</text>
	</g>
	<g id="TEXT_4_">
		<text transform="matrix(1 0 0 1 521.2871 183.9238)" fill="#7FFF9F" font-family="'ArialMT'" font-size="3.8526">Sube</text>
	</g>
	<g id="TEXT_5_">
		<text transform="matrix(1 0 0 1 517.958 174.0254)" fill="#7FFF9F" font-family="'ArialMT'" font-size="3.8526">Escalera</text>
	</g>
	<g id="LWPOLYLINE_61_">
		
			<polygon fill="none" stroke="#7FFF9F" stroke-width="0" stroke-linecap="round" stroke-linejoin="round" stroke-miterlimit="10" points="
			3.91,207.984 0.091,294.338 683.396,271.718 684.611,178.303 		"/>
	</g>
	<g id="LWPOLYLINE_62_">
		
			<polygon fill="none" stroke="#7FFF9F" stroke-width="0" stroke-linecap="round" stroke-linejoin="round" stroke-miterlimit="10" points="
			315.304,345.105 315.599,378.292 319.846,378.206 319.146,345.029 		"/>
	</g>
	<g id="LINE">
		
			<line fill="none" stroke="#7FFF9F" stroke-width="0" stroke-linecap="round" stroke-linejoin="round" stroke-miterlimit="10" x1="317.19" y1="345.911" x2="317.19" y2="352.267"/>
	</g>
	<g id="LINE_1_">
		
			<line fill="none" stroke="#7FFF9F" stroke-width="0" stroke-linecap="round" stroke-linejoin="round" stroke-miterlimit="10" x1="317.19" y1="352.267" x2="316.47" y2="350.957"/>
	</g>
	<g id="LINE_2_">
		
			<line fill="none" stroke="#7FFF9F" stroke-width="0" stroke-linecap="round" stroke-linejoin="round" stroke-miterlimit="10" x1="317.19" y1="352.267" x2="317.911" y2="350.957"/>
	</g>
	<g id="LWPOLYLINE_63_">
		
			<rect x="449.315" y="390.539" fill="none" stroke="#7FFF9F" stroke-width="0" stroke-linecap="round" stroke-linejoin="round" stroke-miterlimit="10" width="24.424" height="20.539"/>
	</g>
	<g id="LWPOLYLINE_64_">
		
			<polygon fill="none" stroke="#7FFF9F" stroke-width="0" stroke-linecap="round" stroke-linejoin="round" stroke-miterlimit="10" points="
			532.56,417.424 532.293,424.932 557.424,425.925 557.721,418.419 		"/>
	</g>
	<g id="LINE_3_">
		
			<line fill="none" stroke="#7FFF9F" stroke-width="0" stroke-linecap="round" stroke-linejoin="round" stroke-miterlimit="10" x1="547.345" y1="421.499" x2="540.99" y2="421.499"/>
	</g>
	<g id="LINE_4_">
		
			<line fill="none" stroke="#7FFF9F" stroke-width="0" stroke-linecap="round" stroke-linejoin="round" stroke-miterlimit="10" x1="540.99" y1="421.499" x2="542.299" y2="420.779"/>
	</g>
	<g id="LINE_5_">
		
			<line fill="none" stroke="#7FFF9F" stroke-width="0" stroke-linecap="round" stroke-linejoin="round" stroke-miterlimit="10" x1="540.99" y1="421.499" x2="542.299" y2="422.22"/>
	</g>
	<g id="LWPOLYLINE_65_">
		
			<polygon fill="none" stroke="#7FFF9F" stroke-width="0" stroke-linecap="round" stroke-linejoin="round" stroke-miterlimit="10" points="
			540.982,315.705 558.377,315.899 558.564,299.134 540.821,298.936 		"/>
	</g>
	<g id="TEXT_6_">
		<text transform="matrix(1 0 0 1 542.9375 307.5518)" fill="#7FFF9F" font-family="'ArialMT'" font-size="3.8526">Escalera</text>
	</g>
	<g id="LWPOLYLINE_66_">
		
			<polygon fill="none" stroke="#7FFF9F" stroke-width="0" stroke-linecap="round" stroke-linejoin="round" stroke-miterlimit="10" points="
			603.709,354.201 627.869,354.159 627.922,383.884 561.845,384 561.841,382.078 560.095,382.082 560.042,352.041 561.789,352.038 
			561.782,348.545 560.036,348.549 559.971,311.522 561.718,311.52 561.712,308.026 559.965,308.029 559.956,302.685 
			603.618,302.608 		"/>
	</g>
	<g id="LWPOLYLINE_67_">
		
			<rect x="603.709" y="341.641" fill="none" stroke="#7FFF9F" stroke-width="0" stroke-linecap="round" stroke-linejoin="round" stroke-miterlimit="10" width="7.976" height="12.561"/>
	</g>
	<g id="TEXT_7_">
		<text transform="matrix(1 0 0 1 603.3408 349.2686)" fill="#7FFF9F" font-family="'ArialMT'" font-size="3.8526">Escalera</text>
	</g>
	<g id="LWPOLYLINE_68_">
		
			<rect x="603.709" y="301.151" fill="none" stroke="#7FFF9F" stroke-width="0" stroke-linecap="round" stroke-linejoin="round" stroke-miterlimit="10" width="42.012" height="53.05"/>
	</g>
	<g id="LWPOLYLINE_69_">
		
			<polygon fill="none" stroke="#7FFF9F" stroke-width="0" stroke-linecap="round" stroke-linejoin="round" stroke-miterlimit="10" points="
			627.922,383.884 695.488,383.766 695.494,387.084 765.728,386.961 765.64,357.062 756.069,357.078 756.063,353.935 
			630.314,354.188 630.32,357.299 627.875,357.303 		"/>
	</g>
	<g id="LWPOLYLINE_70_">
		
			<rect x="654.586" y="346.152" fill="none" stroke="#7FFF9F" stroke-width="0" stroke-linecap="round" stroke-linejoin="round" stroke-miterlimit="10" width="10.626" height="7.982"/>
	</g>
	<g id="TEXT_8_">
		<text transform="matrix(1 0 0 1 651.1816 344.8438)" fill="#7FFF9F" font-family="'ArialMT'" font-size="3.8526">Escalera</text>
	</g>
	<g id="LWPOLYLINE_71_">
		
			<polyline fill="none" stroke="#7FFF9F" stroke-width="0" stroke-linecap="round" stroke-linejoin="round" stroke-miterlimit="10" points="
			655.791,349.24 661.993,349.24 661.993,352.471 		"/>
	</g>
	<g id="LINE_6_">
		
			<line fill="none" stroke="#7FFF9F" stroke-width="0" stroke-linecap="round" stroke-linejoin="round" stroke-miterlimit="10" x1="661.993" y1="352.471" x2="661.272" y2="351.162"/>
	</g>
	<g id="LINE_7_">
		
			<line fill="none" stroke="#7FFF9F" stroke-width="0" stroke-linecap="round" stroke-linejoin="round" stroke-miterlimit="10" x1="661.993" y1="352.471" x2="662.714" y2="351.162"/>
	</g>
</g>
<g id="_x30_">
	<g id="MTEXT_119_">
		<text transform="matrix(1 0 0 1 619.4219 472.5166)" font-family="'MyriadPro-Regular'" font-size="15.0308">PLANTA 4TO NIVEL</text>
	</g>
	<g id="HATCH">
		<path fill-rule="evenodd" clip-rule="evenodd" d="M581.925,469.546l-0.361-0.362l-3.118,7.532h0.505L581.925,469.546z
			 M599.731,476.716h-0.505l-2.975,7.163l0.368,0.362L599.731,476.716z"/>
	</g>
	<g id="LWPOLYLINE_73_">
		
			<line fill="none" stroke="#000000" stroke-width="0" stroke-linecap="round" stroke-linejoin="round" stroke-miterlimit="10" x1="680.981" y1="476.714" x2="575.34" y2="476.714"/>
	</g>
	<g id="CIRCLE">
		<path fill="none" stroke="#000000" stroke-width="0" stroke-linecap="round" stroke-linejoin="round" stroke-miterlimit="10" d="
			M599.734,476.714c0-5.88-4.766-10.646-10.646-10.646s-10.646,4.767-10.646,10.646s4.767,10.646,10.646,10.646
			S599.734,482.594,599.734,476.714L599.734,476.714z"/>
	</g>
	<g id="CIRCLE_1_">
		<path fill="none" stroke="#000000" stroke-width="0" stroke-linecap="round" stroke-linejoin="round" stroke-miterlimit="10" d="
			M599.224,476.714c0-5.598-4.537-10.136-10.135-10.136s-10.136,4.538-10.136,10.136s4.538,10.135,10.136,10.135
			S599.224,482.312,599.224,476.714L599.224,476.714z"/>
	</g>
	<g id="MTEXT_120_">
		<text transform="matrix(1 0 0 1 642.9219 481.9883)" font-family="'MyriadPro-Regular'" font-size="6.0123">Levantamiento</text>
	</g>
	<g id="MTEXT_121_">
		<text transform="matrix(1 0 0 1 581.168 475.4268)" font-family="'MyriadPro-Regular'" font-size="6.0123">LE-05</text>
	</g>
	<g id="MTEXT_122_">
		<text transform="matrix(1 0 0 1 586.0234 483.7744)" font-family="'MyriadPro-Regular'" font-size="6.0123">05</text>
	</g>
</g>
</svg>
