<?xml version="1.0" encoding="utf-8"?>
<!-- Generator: Adobe Illustrator 16.0.0, SVG Export Plug-In . SVG Version: 6.00 Build 0)  -->
<!DOCTYPE svg PUBLIC "-//W3C//DTD SVG 1.1//EN" "http://www.w3.org/Graphics/SVG/1.1/DTD/svg11.dtd">
<svg version="1.1" xmlns="http://www.w3.org/2000/svg" xmlns:xlink="http://www.w3.org/1999/xlink" x="0px" y="0px" width="800px"
	 height="600px" viewBox="0 0 800 600" enable-background="new 0 0 800 600" xml:space="preserve">
<g id="AREAS_COMUNES">
	<g id="LWPOLYLINE_13_">
		
			<polygon fill="none" stroke="#99CC00" stroke-width="0" stroke-linecap="round" stroke-linejoin="round" stroke-miterlimit="10" points="
			2.062,187.134 127.589,187.134 127.369,298.217 119.358,298.217 119.358,305.453 5.766,305.453 5.766,299.25 1.86,299.25 
			1.86,263.657 5.477,263.657 5.477,257.044 1.86,257.044 2.06,213.284 5.676,213.277 5.676,206.664 2.06,206.664 		"/>
	</g>
	<g id="LWPOLYLINE_14_">
		
			<polygon fill="none" stroke="#99CC00" stroke-width="0" stroke-linecap="round" stroke-linejoin="round" stroke-miterlimit="10" points="
			241.264,161.544 241.264,167.228 246.43,167.228 246.43,186.41 298.096,186.41 298.096,180.214 415.896,180.214 415.896,206.71 
			411.762,206.71 411.777,213.944 415.896,213.944 415.896,298.217 411.762,298.217 411.762,304.42 360.096,304.42 360.096,298.217 
			354.929,298.217 354.929,304.42 303.47,304.42 303.47,298.217 298.096,298.217 298.096,304.42 246.43,304.42 246.43,298.217 
			241.264,298.217 241.264,304.42 189.687,304.42 189.687,298.217 184.52,298.217 184.52,304.42 127.369,304.42 127.519,222.441 
			184.575,222.212 184.431,213.277 189.597,213.277 189.597,206.044 184.538,206.044 184.447,167.228 189.597,167.228 
			189.597,161.544 		"/>
	</g>
	<g id="LWPOLYLINE_15_">
		
			<polygon fill="none" stroke="#99CC00" stroke-width="0" stroke-linecap="round" stroke-linejoin="round" stroke-miterlimit="10" points="
			1.86,305.45 1.619,323.74 44.777,323.74 44.777,322.189 124.215,322.189 124.215,323.74 439.58,321.474 439.414,304.566 
			438.093,304.566 438.093,299.4 439.362,299.4 438.277,189.494 434.89,189.494 434.89,186.084 438.244,186.084 438.002,161.544 
			368.022,161.544 368.022,163.457 362.855,163.457 362.855,161.752 360.096,161.544 360.096,167.228 354.929,167.228 
			354.929,161.544 303.263,161.544 303.263,167.228 299.13,167.228 299.13,179.181 416.929,179.181 416.929,305.453 		"/>
	</g>
	<g id="LWPOLYLINE_16_">
		
			<polygon fill="none" stroke="#99CC00" stroke-width="0" stroke-linecap="round" stroke-linejoin="round" stroke-miterlimit="10" points="
			441.583,327.776 489.71,327.031 491.165,350.522 492.131,363.846 489.548,363.846 489.548,369.219 491.407,369.219 
			492.475,410.447 493.916,410.447 493.916,413.444 499.187,413.444 499.187,411.481 604.017,411.43 657.646,411.378 
			712.413,411.274 712.413,412.928 717.683,412.928 717.683,412.617 733.492,412.617 734.629,412.824 793.66,412.824 
			793.481,489.077 707.477,489.041 705.565,488.524 676.852,487.772 674.94,487.772 646.214,486.949 644.717,487.016 
			641.823,486.912 641.823,485.672 638.209,485.542 638.209,486.782 615.679,485.974 613.768,486.128 584.916,485.043 
			552.516,484.173 524.178,483.061 518.753,482.078 502.943,482.078 496.95,485.179 445.542,485.64 444.286,448.285 
			445.164,441.362 444.042,438.313 443.43,411.034 443.231,406.177 		"/>
	</g>
	<g id="LWPOLYLINE_18_">
		
			<rect x="611.778" y="111.704" fill="none" stroke="#99CC00" stroke-width="0" stroke-linecap="round" stroke-linejoin="round" stroke-miterlimit="10" width="25.833" height="40.535"/>
	</g>
	<g id="TEXT">
		<text transform="matrix(1.5 0 0 1 617.7734 132.2832)" fill="#99CC00" font-family="'MyriadPro-Regular'" font-size="2.0085">ESCALERA</text>
	</g>
	<g id="LWPOLYLINE_19_">
		
			<polygon fill="none" stroke="#99CC00" stroke-width="0" stroke-linecap="round" stroke-linejoin="round" stroke-miterlimit="10" points="
			699.517,268.055 700.292,201.794 701.971,201.643 701.727,198.293 746.97,194.842 769.494,196.41 768.722,266.115 		"/>
	</g>
	<g id="LWPOLYLINE_20_">
		
			<polygon fill="none" stroke="#99CC00" stroke-width="0" stroke-linecap="round" stroke-linejoin="round" stroke-miterlimit="10" points="
			606.161,218.874 606.118,205.567 646.303,202.502 646.304,215.589 		"/>
	</g>
	<g id="TEXT_1_">
		<text transform="matrix(1.5 0 0 1 617.2578 211.1738)" fill="#99CC00" font-family="'MyriadPro-Regular'" font-size="2.0085">ESCALERA</text>
	</g>
	<g id="LWPOLYLINE_21_">
		
			<rect x="700.598" y="164.464" fill="none" stroke="#99CC00" stroke-width="0" stroke-linecap="round" stroke-linejoin="round" stroke-miterlimit="10" width="25.316" height="14.589"/>
	</g>
	<g id="TEXT_2_">
		<text transform="matrix(1.5 0 0 1 706.6387 172.4131)" fill="#99CC00" font-family="'MyriadPro-Regular'" font-size="2.0085">BAÑO</text>
	</g>
	<g id="TEXT_3_">
		<text transform="matrix(1.5 0 0 1 679.5195 179.3516)" fill="#99CC00" font-family="'MyriadPro-Regular'" font-size="2.0085">ESCALERA</text>
	</g>
	<g id="LWPOLYLINE_22_">
		
			<polygon fill="none" stroke="#99CC00" stroke-width="0" stroke-linecap="round" stroke-linejoin="round" stroke-miterlimit="10" points="
			677.5,173.023 700.233,173.023 700.233,193.228 677.5,194.953 		"/>
	</g>
	<g id="TEXT_4_">
		<text transform="matrix(1.5 0 0 1 524.6709 192.5137)" fill="#99CC00" font-family="'ArialMT'" font-size="2.3083">ELEVADOR</text>
	</g>
	<g id="LWPOLYLINE_23_">
		
			<polygon fill="none" stroke="#99CC00" stroke-width="0" stroke-linecap="round" stroke-linejoin="round" stroke-miterlimit="10" points="
			521.289,181.997 521.289,203.502 545.572,201.63 545.572,181.997 		"/>
	</g>
	<g id="LWPOLYLINE_24_">
		
			<rect x="125.162" y="160.339" fill="none" stroke="#99CC00" stroke-width="0" stroke-linecap="round" stroke-linejoin="round" stroke-miterlimit="10" width="56.989" height="26.615"/>
	</g>
	<g id="TEXT_6_">
		<text transform="matrix(1.5 0 0 1 146.7227 173.1914)" fill="#99CC00" font-family="'MyriadPro-Regular'" font-size="2.0085">ESCALERA</text>
	</g>
</g>
<g id="AREA__x28_POLILINEA_x29_">
	<g id="LWPOLYLINE_1_">
		
			<polygon fill="none" stroke="#0000FF" stroke-width="0" stroke-linecap="round" stroke-linejoin="round" stroke-miterlimit="10" points="
			474.142,110.905 477.146,152.497 480.156,152.497 510.824,152.497 530.199,152.497 530.199,139.322 546.216,139.322 
			546.216,120.68 521.158,120.68 521.158,111.396 		"/>
	</g>
	<g id="LWPOLYLINE_2_">
		
			<polygon fill="none" stroke="#0000FF" stroke-width="0" stroke-linecap="round" stroke-linejoin="round" stroke-miterlimit="10" points="
			546.204,120.68 546.216,139.322 537.433,139.322 537.433,152.497 546.991,152.497 577.216,152.497 577.204,120.68 		"/>
	</g>
	<g id="LWPOLYLINE_3_">
		
			<polygon fill="none" stroke="#0000FF" stroke-width="0" stroke-linecap="round" stroke-linejoin="round" stroke-miterlimit="10" points="
			577.216,120.68 611.735,120.68 611.822,152.497 577.216,152.497 		"/>
	</g>
	<g id="LWPOLYLINE_4_">
		
			<polygon fill="none" stroke="#0000FF" stroke-width="0" stroke-linecap="round" stroke-linejoin="round" stroke-miterlimit="10" points="
			637.611,120.68 637.611,152.858 641.64,152.858 641.64,152.497 650.423,152.497 670.42,152.497 670.42,120.68 		"/>
	</g>
	<g id="LWPOLYLINE_5_">
		
			<polygon fill="none" stroke="#0000FF" stroke-width="0" stroke-linecap="round" stroke-linejoin="round" stroke-miterlimit="10" points="
			670.42,120.68 701.008,120.68 701.008,137.401 709.749,137.401 709.789,152.497 701.008,152.497 670.42,152.497 		"/>
	</g>
	<g id="LWPOLYLINE_6_">
		
			<polygon fill="none" stroke="#0000FF" stroke-width="0" stroke-linecap="round" stroke-linejoin="round" stroke-miterlimit="10" points="
			729.373,111.658 729.373,120.635 701.008,120.68 701.008,137.401 709.749,137.401 709.789,152.497 729.373,152.473 
			729.373,151.745 783.105,151.489 783.105,111.704 		"/>
	</g>
	<g id="LWPOLYLINE_7_">
		
			<polygon fill="none" stroke="#0000FF" stroke-width="0" stroke-linecap="round" stroke-linejoin="round" stroke-miterlimit="10" points="
			729.683,151.745 729.683,153.013 729.683,161.28 729.683,164.638 726.324,164.638 726.324,179.363 729.373,179.363 
			729.373,187.629 772.802,185.146 783.105,185.146 783.105,151.489 		"/>
	</g>
	<g id="LWPOLYLINE_8_">
		
			<polygon fill="none" stroke="#0000FF" stroke-width="0" stroke-linecap="round" stroke-linejoin="round" stroke-miterlimit="10" points="
			639.009,163.895 639.009,193.739 670.783,191.692 670.783,173.894 670.783,163.832 		"/>
	</g>
	<g id="LWPOLYLINE_9_">
		
			<polygon fill="none" stroke="#0000FF" stroke-width="0" stroke-linecap="round" stroke-linejoin="round" stroke-miterlimit="10" points="
			610.282,176.314 612.917,176.314 612.917,177.865 610.282,177.865 610.282,197.498 638.233,196.671 638.233,193.55 
			639.009,193.739 639.009,177.865 636.167,177.865 636.167,176.314 639.009,176.314 639.009,163.863 629.45,163.863 
			610.282,163.863 		"/>
	</g>
	<g id="LWPOLYLINE_10_">
		
			<polygon fill="none" stroke="#0000FF" stroke-width="0" stroke-linecap="round" stroke-linejoin="round" stroke-miterlimit="10" points="
			610.229,163.863 578.508,163.863 578.508,198.975 610.282,196.349 		"/>
	</g>
	<g id="LWPOLYLINE_11_">
		
			<polygon fill="none" stroke="#0000FF" stroke-width="0" stroke-linecap="round" stroke-linejoin="round" stroke-miterlimit="10" points="
			545.441,163.819 545.441,201.58 578.502,198.975 578.508,163.863 		"/>
	</g>
	<g id="LWPOLYLINE_12_">
		
			<polygon fill="none" stroke="#0000FF" stroke-width="0" stroke-linecap="round" stroke-linejoin="round" stroke-miterlimit="10" points="
			477.475,163.863 478.697,212.407 484.879,211.936 484.782,207.749 521.158,204.975 521.158,163.863 511.341,163.863 		"/>
	</g>
	<g id="MTEXT">
		<text transform="matrix(1 0 0 1 490.4551 131.1064)" fill="#0000FF" font-family="'ArialMT'" font-size="2.2794">BODEGA 700</text>
	</g>
	<g id="MTEXT_1_">
		<text transform="matrix(1 0 0 1 556.2256 135.4082)" fill="#0000FF" font-family="'ArialMT'" font-size="2.2794">BODEGA 702</text>
	</g>
	<g id="MTEXT_2_">
		<text transform="matrix(1 0 0 1 492.9678 184.5576)" fill="#0000FF" font-family="'ArialMT'" font-size="2.2794">BODEGA 701</text>
	</g>
	<g id="MTEXT_3_">
		<text transform="matrix(1 0 0 1 555.7656 183.4922)" fill="#0000FF" font-family="'ArialMT'" font-size="2.2794">BODEGA 703</text>
	</g>
	<g id="MTEXT_4_">
		<text transform="matrix(1 0 0 1 589.8467 182.0645)" fill="#0000FF" font-family="'ArialMT'" font-size="2.2794">BODEGA 705</text>
	</g>
	<g id="MTEXT_5_">
		<text transform="matrix(1 0 0 1 589.8555 136.5879)" fill="#0000FF" font-family="'ArialMT'" font-size="2.2794">BODEGA 704</text>
	</g>
	<g id="MTEXT_6_">
		<text transform="matrix(1 0 0 1 743.4727 131.6846)" fill="#0000FF" font-family="'ArialMT'" font-size="2.2794">BODEGA 710</text>
	</g>
	<g id="MTEXT_7_">
		<text transform="matrix(1 0 0 1 678.7891 133.2344)" fill="#0000FF" font-family="'ArialMT'" font-size="2.2794">BODEGA 709</text>
	</g>
	<g id="MTEXT_8_">
		<text transform="matrix(1 0 0 1 744.3047 166.5)" fill="#0000FF" font-family="'ArialMT'" font-size="2.2794">BODEGA 711</text>
	</g>
	<g id="MTEXT_9_">
		<text transform="matrix(1 0 0 1 647.3408 179.9541)" fill="#0000FF" font-family="'ArialMT'" font-size="2.2794">BODEGA 708</text>
	</g>
	<g id="MTEXT_10_">
		<text transform="matrix(1 0 0 1 648.9277 137.4775)" fill="#0000FF" font-family="'ArialMT'" font-size="2.2794">BODEGA 707</text>
	</g>
	<g id="MTEXT_11_">
		<text transform="matrix(1 0 0 1 617.7432 181.8057)" fill="#0000FF" font-family="'ArialMT'" font-size="2.2794">BODEGA 706</text>
	</g>
	<g id="MTEXT_12_">
		<text transform="matrix(1 0 0 1 493.1797 133.7832)" fill="#0000FF" font-family="'ArialMT'" font-size="2.2794">23.11 m2</text>
	</g>
	<g id="MTEXT_13_">
		<text transform="matrix(1 0 0 1 558.4121 137.958)" fill="#0000FF" font-family="'ArialMT'" font-size="2.2794">10.32 m2</text>
	</g>
	<g id="MTEXT_14_">
		<text transform="matrix(1 0 0 1 592.0469 139.2188)" fill="#0000FF" font-family="'ArialMT'" font-size="2.2794">10.30 m2</text>
	</g>
	<g id="MTEXT_15_">
		<text transform="matrix(1 0 0 1 654.5938 140.0137)" fill="#0000FF" font-family="'ArialMT'" font-size="2.2794">9.79 m2</text>
	</g>
	<g id="MTEXT_16_">
		<text transform="matrix(1 0 0 1 683.2578 135.8066)" fill="#0000FF" font-family="'ArialMT'" font-size="2.2794">10.35 m2</text>
	</g>
	<g id="MTEXT_17_">
		<text transform="matrix(1 0 0 1 747.9316 134.1875)" fill="#0000FF" font-family="'ArialMT'" font-size="2.2794">27.31 m2</text>
	</g>
	<g id="MTEXT_18_">
		<text transform="matrix(1 0 0 1 753.3594 169.2354)" fill="#0000FF" font-family="'ArialMT'" font-size="2.2794">17.76 m2</text>
	</g>
	<g id="MTEXT_19_">
		<text transform="matrix(1 0 0 1 653.0117 182.5596)" fill="#0000FF" font-family="'ArialMT'" font-size="2.2794">8.59 m2</text>
	</g>
	<g id="MTEXT_20_">
		<text transform="matrix(1 0 0 1 623.4111 184.375)" fill="#0000FF" font-family="'ArialMT'" font-size="2.2794">8.83 m2</text>
	</g>
	<g id="MTEXT_21_">
		<text transform="matrix(1 0 0 1 592.7217 184.6709)" fill="#0000FF" font-family="'ArialMT'" font-size="2.2794">9.60 m2</text>
	</g>
	<g id="MTEXT_22_">
		<text transform="matrix(1 0 0 1 557.96 186.1172)" fill="#0000FF" font-family="'ArialMT'" font-size="2.2794">11.28 m2</text>
	</g>
	<g id="MTEXT_23_">
		<text transform="matrix(1 0 0 1 495.0127 187.3242)" fill="#0000FF" font-family="'ArialMT'" font-size="2.2794">17.51 m2</text>
	</g>
	<g id="LWPOLYLINE_17_">
		
			<polygon fill="none" stroke="#0000FF" stroke-width="0" stroke-linecap="round" stroke-linejoin="round" stroke-miterlimit="10" points="
			646.261,215.589 606.118,218.874 606.031,204.452 600.158,204.982 600.293,208.088 595.72,208.481 595.45,205.342 548.19,208.944 
			548.52,212.1 544.822,212.486 544.551,209.217 487.842,213.53 487.814,275.322 496.017,274.9 496.229,278.262 541.787,275.378 
			541.553,272.175 546.18,271.836 546.329,275.232 593.179,272.26 592.902,269.048 597.658,268.639 597.874,271.76 644.299,270.049 
			644.233,266.767 648.799,266.675 648.858,269.979 672.379,269.559 672.439,213.387 		"/>
	</g>
	<g id="MTEXT_24_">
		<text transform="matrix(1 0 0 1 569.9668 238.9668)" fill="#0000FF" font-family="'ArialMT'" font-size="3.4191">LOCAL 400</text>
	</g>
	<g id="MTEXT_25_">
		<text transform="matrix(1 0 0 1 570.7285 242.749)" fill="#0000FF" font-family="'ArialMT'" font-size="3.4191">105.92 m2</text>
	</g>
</g>
<g id="_x30_">
</g>
</svg>
