<?xml version="1.0" encoding="utf-8"?>
<!-- Generator: Adobe Illustrator 16.0.0, SVG Export Plug-In . SVG Version: 6.00 Build 0)  -->
<!DOCTYPE svg PUBLIC "-//W3C//DTD SVG 1.1//EN" "http://www.w3.org/Graphics/SVG/1.1/DTD/svg11.dtd">
<svg version="1.1" xmlns="http://www.w3.org/2000/svg" xmlns:xlink="http://www.w3.org/1999/xlink" x="0px" y="0px" width="800px"
	 height="600px" viewBox="0 0 800 600" enable-background="new 0 0 800 600" xml:space="preserve">
<g id="AREA__x28_POLILINEA_x29_">
	<g id="LWPOLYLINE">
		
			<polygon fill="none" stroke="#0000FF" stroke-width="0" stroke-linecap="round" stroke-linejoin="round" stroke-miterlimit="10" points="
			604.289,180.86 604.289,191.867 607.686,191.867 607.686,194.131 604.289,194.131 604.289,196.266 635.038,196.266 
			635.038,194.131 633.34,194.131 633.34,191.867 635.004,191.867 635.063,180.861 		"/>
	</g>
	<g id="LWPOLYLINE_1_">
		
			<polygon fill="none" stroke="#0000FF" stroke-width="0" stroke-linecap="round" stroke-linejoin="round" stroke-miterlimit="10" points="
			635.063,180.861 635.004,191.867 636.736,191.867 636.736,194.131 635.038,194.131 635.038,196.266 665.79,196.266 
			665.79,194.131 664.092,194.131 664.092,191.867 665.79,191.867 665.79,180.896 		"/>
	</g>
	<g id="LWPOLYLINE_2_">
		
			<polygon fill="none" stroke="#0000FF" stroke-width="0" stroke-linecap="round" stroke-linejoin="round" stroke-miterlimit="10" points="
			665.79,196.266 696.875,196.266 696.875,194.131 695.177,194.131 695.177,191.867 696.875,191.867 696.875,180.915 
			665.79,180.896 665.79,191.867 667.488,191.867 667.488,194.126 665.79,194.131 		"/>
	</g>
	<g id="LWPOLYLINE_3_">
		
			<polygon fill="none" stroke="#0000FF" stroke-width="0" stroke-linecap="round" stroke-linejoin="round" stroke-miterlimit="10" points="
			696.875,196.266 726.21,196.266 726.21,194.131 724.512,194.131 724.512,191.867 726.21,191.867 726.21,180.932 696.875,180.915 
			696.875,191.867 698.573,191.867 698.573,194.131 696.875,194.131 		"/>
	</g>
	<g id="LWPOLYLINE_4_">
		
			<polygon fill="none" stroke="#0000FF" stroke-width="0" stroke-linecap="round" stroke-linejoin="round" stroke-miterlimit="10" points="
			726.21,196.266 765.787,196.266 765.787,180.955 726.21,180.932 726.21,191.867 727.908,191.867 727.908,194.131 726.21,194.131 
					"/>
	</g>
	<g id="LWPOLYLINE_5_">
		
			<polygon fill="none" stroke="#0000FF" stroke-width="0" stroke-linecap="round" stroke-linejoin="round" stroke-miterlimit="10" points="
			498.804,209.422 502.407,233.925 478.306,233.923 477.188,209.433 		"/>
	</g>
	<g id="LWPOLYLINE_6_">
		
			<polygon fill="none" stroke="#0000FF" stroke-width="0" stroke-linecap="round" stroke-linejoin="round" stroke-miterlimit="10" points="
			727.908,211.706 696.875,211.706 696.875,217.805 698.573,217.805 698.573,220.069 696.875,220.069 696.875,226.743 
			727.908,226.743 727.908,219.955 724.512,219.955 724.512,217.69 727.908,217.69 		"/>
	</g>
	<g id="LWPOLYLINE_7_">
		
			<polygon fill="none" stroke="#0000FF" stroke-width="0" stroke-linecap="round" stroke-linejoin="round" stroke-miterlimit="10" points="
			696.875,211.706 696.875,217.805 695.177,217.805 695.177,220.069 696.875,220.069 696.875,226.743 669.498,226.743 
			665.79,227.115 665.79,220.069 667.488,220.069 667.488,217.805 665.79,217.805 665.79,211.706 		"/>
	</g>
	<g id="LWPOLYLINE_8_">
		
			<polygon fill="none" stroke="#0000FF" stroke-width="0" stroke-linecap="round" stroke-linejoin="round" stroke-miterlimit="10" points="
			665.79,227.115 635.038,230.203 635.038,220.069 636.712,220.069 636.712,217.805 635.038,217.805 635.038,211.706 
			665.79,211.706 665.79,217.805 664.092,217.805 664.092,220.069 665.79,220.069 		"/>
	</g>
	<g id="LWPOLYLINE_9_">
		
			<polygon fill="none" stroke="#0000FF" stroke-width="0" stroke-linecap="round" stroke-linejoin="round" stroke-miterlimit="10" points="
			635.038,230.203 605.987,233.12 605.987,220.069 607.686,220.069 607.686,217.805 605.987,217.805 605.987,211.706 
			635.038,211.706 635.038,217.805 633.315,217.805 633.315,220.069 635.038,220.069 		"/>
	</g>
	<g id="LWPOLYLINE_10_">
		
			<polygon fill="none" stroke="#0000FF" stroke-width="0" stroke-linecap="round" stroke-linejoin="round" stroke-miterlimit="10" points="
			605.987,233.12 605.987,211.706 575.411,211.706 575.411,234.563 591.617,234.563 		"/>
	</g>
	<g id="LWPOLYLINE_11_">
		
			<polygon fill="none" stroke="#0000FF" stroke-width="0" stroke-linecap="round" stroke-linejoin="round" stroke-miterlimit="10" points="
			575.411,234.563 575.412,211.706 545.837,211.64 545.837,234.563 		"/>
	</g>
	<g id="LWPOLYLINE_12_">
		
			<polygon fill="none" stroke="#0000FF" stroke-width="0" stroke-linecap="round" stroke-linejoin="round" stroke-miterlimit="10" points="
			604.289,196.266 575.387,196.266 575.387,194.131 577.109,194.131 577.109,191.867 575.411,191.867 575.411,180.844 
			604.289,180.86 		"/>
	</g>
	<g id="LWPOLYLINE_13_">
		
			<polygon fill="none" stroke="#0000FF" stroke-width="0" stroke-linecap="round" stroke-linejoin="round" stroke-miterlimit="10" points="
			748.543,255.788 765.175,254.662 765.175,254.794 767.337,254.657 767.485,221.499 763.522,221.499 763.522,220.984 
			748.543,220.984 		"/>
	</g>
	<g id="LWPOLYLINE_14_">
		
			<polygon fill="none" stroke="#0000FF" stroke-width="0" stroke-linecap="round" stroke-linejoin="round" stroke-miterlimit="10" points="
			763.522,220.984 748.543,220.984 748.543,196.266 765.787,196.266 765.787,218.823 763.522,218.823 		"/>
	</g>
	<g id="LWPOLYLINE_15_">
		
			<polygon fill="none" stroke="#0000FF" stroke-width="0" stroke-linecap="round" stroke-linejoin="round" stroke-miterlimit="10" points="
			575.387,196.266 544.178,196.266 544.178,194.131 547.574,194.131 547.574,191.867 544.178,191.867 544.178,180.825 
			575.411,180.844 575.411,191.867 573.713,191.867 573.713,194.131 575.387,194.131 		"/>
	</g>
	<g id="LWPOLYLINE_16_">
		
			<polygon fill="none" stroke="#0000FF" stroke-width="0" stroke-linecap="round" stroke-linejoin="round" stroke-miterlimit="10" points="
			545.837,211.64 518.361,211.64 518.361,217.805 521.758,217.805 521.758,220.069 518.361,220.069 518.361,234.563 
			545.837,234.563 		"/>
	</g>
	<g id="LWPOLYLINE_17_">
		
			<polygon fill="none" stroke="#0000FF" stroke-width="0" stroke-linecap="round" stroke-linejoin="round" stroke-miterlimit="10" points="
			545.71,269.16 545.716,250.002 575.435,250.809 575.411,266.208 574.176,266.208 573.713,266.208 573.713,266.537 547.568,269.27 
			547.568,269.16 		"/>
	</g>
	<g id="LWPOLYLINE_18_">
		
			<polygon fill="none" stroke="#0000FF" stroke-width="0" stroke-linecap="round" stroke-linejoin="round" stroke-miterlimit="10" points="
			575.411,266.208 575.435,250.809 605.99,247.784 605.987,263.29 604.289,263.29 604.333,263.777 577.109,266.208 		"/>
	</g>
	<g id="LWPOLYLINE_19_">
		
			<polygon fill="none" stroke="#0000FF" stroke-width="0" stroke-linecap="round" stroke-linejoin="round" stroke-miterlimit="10" points="
			605.99,247.784 635.018,245.13 635.014,260.854 633.315,260.854 633.315,261.383 607.686,263.488 607.686,263.29 605.987,263.29 
					"/>
	</g>
	<g id="LWPOLYLINE_20_">
		
			<polygon fill="none" stroke="#0000FF" stroke-width="0" stroke-linecap="round" stroke-linejoin="round" stroke-miterlimit="10" points="
			635.018,245.13 665.79,242.529 665.79,257.658 664.092,257.658 664.098,257.931 663.263,257.931 636.712,261.046 636.712,260.854 
			635.014,260.854 		"/>
	</g>
	<g id="LWPOLYLINE_21_">
		
			<polygon fill="none" stroke="#0000FF" stroke-width="0" stroke-linecap="round" stroke-linejoin="round" stroke-miterlimit="10" points="
			665.79,242.529 665.79,257.658 667.488,257.658 667.492,257.863 691.883,257.376 694.197,257.33 695.344,257.345 695.344,257.179 
			696.875,257.179 696.875,241.928 		"/>
	</g>
	<g id="LWPOLYLINE_22_">
		
			<polygon fill="none" stroke="#0000FF" stroke-width="0" stroke-linecap="round" stroke-linejoin="round" stroke-miterlimit="10" points="
			696.875,257.179 696.875,241.928 727.908,241.874 727.908,256.984 724.512,256.984 724.512,257.415 723.371,257.492 
			721.107,257.646 698.74,257.384 698.74,257.179 		"/>
	</g>
	<g id="LWPOLYLINE_23_">
		
			<polygon fill="none" stroke="#0000FF" stroke-width="0" stroke-linecap="round" stroke-linejoin="round" stroke-miterlimit="10" points="
			517.847,261.387 517.847,271.801 480.267,276.678 479.591,261.387 		"/>
	</g>
	<g id="LWPOLYLINE_24_">
		
			<polygon fill="none" stroke="#0000FF" stroke-width="0" stroke-linecap="round" stroke-linejoin="round" stroke-miterlimit="10" points="
			498.804,208.908 498.804,180.138 475.846,180.138 477.188,209.433 498.804,209.422 		"/>
	</g>
	<g id="TEXT">
		<text transform="matrix(1.5 0 0 1 542.3564 329.1367)" fill="#0000FF" font-family="'MyriadPro-Regular'" font-size="2.0007">LOCAL 300</text>
	</g>
	<g id="TEXT_1_">
		<text transform="matrix(1.5 0 0 1 543.1816 331.8271)" fill="#0000FF" font-family="'MyriadPro-Regular'" font-size="2.0007">4.59 m2</text>
	</g>
	<g id="LWPOLYLINE_25_">
		
			<polygon fill="none" stroke="#0000FF" stroke-width="0" stroke-linecap="round" stroke-linejoin="round" stroke-miterlimit="10" points="
			565.37,320.199 537.136,321.344 536.939,339.557 538.594,339.452 538.483,336.264 545.239,335.769 545.406,339.162 
			565.195,337.907 		"/>
	</g>
	<g id="LWPOLYLINE_26_">
		
			<polygon fill="none" stroke="#0000FF" stroke-width="0" stroke-linecap="round" stroke-linejoin="round" stroke-miterlimit="10" points="
			593.225,318.009 566.443,320.221 566.418,322.279 565.389,322.268 565.195,337.907 589.772,336.348 589.63,333.16 
			594.241,332.718 594.253,320.044 593.2,320.031 		"/>
	</g>
	<g id="LWPOLYLINE_27_">
		
			<polygon fill="none" stroke="#0000FF" stroke-width="0" stroke-linecap="round" stroke-linejoin="round" stroke-miterlimit="10" points="
			624.515,317.865 623.497,317.853 623.521,315.794 595.285,317.91 595.284,317.997 595.259,320.056 594.253,320.056 
			594.241,332.718 596.502,332.567 596.744,335.739 624.326,334.794 		"/>
	</g>
	<g id="LWPOLYLINE_28_">
		
			<polygon fill="none" stroke="#0000FF" stroke-width="0" stroke-linecap="round" stroke-linejoin="round" stroke-miterlimit="10" points="
			624.526,317.865 624.326,334.794 640.761,334.114 640.688,330.827 647.485,330.66 647.545,333.984 654.415,333.862 
			654.559,316.905 653.565,316.894 653.591,314.835 625.58,315.819 625.556,317.878 		"/>
	</g>
	<g id="LWPOLYLINE_29_">
		
			<polygon fill="none" stroke="#0000FF" stroke-width="0" stroke-linecap="round" stroke-linejoin="round" stroke-miterlimit="10" points="
			654.559,316.905 654.415,333.862 684.479,333.296 684.667,314.825 683.647,314.813 683.672,312.754 655.648,314.859 
			655.624,316.918 		"/>
	</g>
	<g id="LWPOLYLINE_30_">
		
			<polygon fill="none" stroke="#0000FF" stroke-width="0" stroke-linecap="round" stroke-linejoin="round" stroke-miterlimit="10" points="
			684.677,314.825 684.479,333.325 692.376,333.184 692.335,329.789 699.222,329.61 699.238,332.981 714.526,332.908 
			714.718,312.959 713.727,312.947 713.752,310.889 685.73,312.779 685.706,314.837 		"/>
	</g>
	<g id="LWPOLYLINE_31_">
		
			<polygon fill="none" stroke="#0000FF" stroke-width="0" stroke-linecap="round" stroke-linejoin="round" stroke-miterlimit="10" points="
			714.718,312.959 714.513,332.908 743.581,332.769 743.549,329.399 746.984,329.239 746.984,322.589 745.943,322.576 
			745.969,320.518 715.81,310.914 715.785,312.973 		"/>
	</g>
	<g id="LWPOLYLINE_32_">
		
			<polygon fill="none" stroke="#0000FF" stroke-width="0" stroke-linecap="round" stroke-linejoin="round" stroke-miterlimit="10" points="
			748.002,322.602 746.973,322.589 746.984,329.239 750.156,329.09 750.156,332.075 759.236,331.994 759.236,327.975 
			767.975,327.974 767.974,293.976 756.854,293.977 756.849,304.138 747.49,304.121 747.439,320.535 748.026,320.543 		"/>
	</g>
	<g id="LWPOLYLINE_33_">
		
			<polygon fill="none" stroke="#0000FF" stroke-width="0" stroke-linecap="round" stroke-linejoin="round" stroke-miterlimit="10" points="
			756.857,283.814 756.854,293.977 767.974,293.976 767.925,261.636 765.997,261.759 765.795,259.296 748.705,260.702 
			747.49,283.815 		"/>
	</g>
	<g id="LWPOLYLINE_34_">
		
			<polygon fill="none" stroke="#0000FF" stroke-width="0" stroke-linecap="round" stroke-linejoin="round" stroke-miterlimit="10" points="
			700.753,263.476 701.054,266.807 694.943,267.285 696.16,280.147 697.205,280.065 697.367,282.117 719.538,280.459 
			719.376,278.413 721.428,278.245 721.542,279.689 731.557,265.442 729.829,264.323 730.575,263.171 726.05,263.218 
			726.041,266.126 723.499,266.126 723.454,263.244 		"/>
	</g>
	<g id="LWPOLYLINE_35_">
		
			<polygon fill="none" stroke="#0000FF" stroke-width="0" stroke-linecap="round" stroke-linejoin="round" stroke-miterlimit="10" points="
			694.168,263.978 661.737,266.451 663.138,280.779 664.199,280.695 664.362,282.77 695.206,280.906 695.152,280.227 
			696.16,280.147 694.943,267.285 694.43,267.325 		"/>
	</g>
	<g id="LWPOLYLINE_36_">
		
			<polygon fill="none" stroke="#0000FF" stroke-width="0" stroke-linecap="round" stroke-linejoin="round" stroke-miterlimit="10" points="
			661.737,266.451 650.501,267.308 650.733,270.697 644.171,271.275 644.171,267.791 628.922,268.954 630.264,282.579 
			631.315,282.496 631.478,284.548 662.31,282.91 662.147,280.857 663.138,280.776 		"/>
	</g>
	<g id="LWPOLYLINE_37_">
		
			<polygon fill="none" stroke="#0000FF" stroke-width="0" stroke-linecap="round" stroke-linejoin="round" stroke-miterlimit="10" points="
			628.816,268.962 599.107,271.228 599.242,274.313 596.41,274.587 597.397,284.813 598.453,284.744 598.614,286.782 
			629.426,284.71 629.264,282.658 630.264,282.577 		"/>
	</g>
	<g id="LWPOLYLINE_38_">
		
			<polygon fill="none" stroke="#0000FF" stroke-width="0" stroke-linecap="round" stroke-linejoin="round" stroke-miterlimit="10" points="
			596.41,274.587 592.682,274.918 592.408,271.739 554.008,273.634 554.029,288.548 568.384,287.963 568.264,286.449 
			570.315,286.28 570.479,288.332 596.562,286.944 596.399,284.892 597.397,284.813 		"/>
	</g>
	<g id="TEXT_2_">
		<text transform="matrix(1.5 0 0 1 571.9609 327.8701)" fill="#0000FF" font-family="'MyriadPro-Regular'" font-size="2.0007">LOCAL 301</text>
	</g>
	<g id="TEXT_3_">
		<text transform="matrix(1.5 0 0 1 572.7861 330.5596)" fill="#0000FF" font-family="'MyriadPro-Regular'" font-size="2.0007">4.70 m2</text>
	</g>
	<g id="TEXT_4_">
		<text transform="matrix(1.5 0 0 1 601.6719 326.0742)" fill="#0000FF" font-family="'MyriadPro-Regular'" font-size="2.0007">LOCAL 303</text>
	</g>
	<g id="TEXT_5_">
		<text transform="matrix(1.5 0 0 1 602.4961 328.7646)" fill="#0000FF" font-family="'MyriadPro-Regular'" font-size="2.0007">5.15 m2</text>
	</g>
	<g id="TEXT_6_">
		<text transform="matrix(1.5 0 0 1 633.1436 325.4512)" fill="#0000FF" font-family="'MyriadPro-Regular'" font-size="2.0007">LOCAL 305</text>
	</g>
	<g id="TEXT_7_">
		<text transform="matrix(1.5 0 0 1 633.9688 328.1416)" fill="#0000FF" font-family="'MyriadPro-Regular'" font-size="2.0007">5.11 m2</text>
	</g>
	<g id="TEXT_8_">
		<text transform="matrix(1.5 0 0 1 663.4883 323.4443)" fill="#0000FF" font-family="'MyriadPro-Regular'" font-size="2.0007">LOCAL 307</text>
	</g>
	<g id="TEXT_9_">
		<text transform="matrix(1.5 0 0 1 664.3135 326.1348)" fill="#0000FF" font-family="'MyriadPro-Regular'" font-size="2.0007">5.57 m2</text>
	</g>
	<g id="TEXT_10_">
		<text transform="matrix(1.5 0 0 1 690.4492 322.5996)" fill="#0000FF" font-family="'MyriadPro-Regular'" font-size="2.0007">LOCAL 309</text>
	</g>
	<g id="TEXT_11_">
		<text transform="matrix(1.5 0 0 1 691.2744 325.2891)" fill="#0000FF" font-family="'MyriadPro-Regular'" font-size="2.0007">5.75 m2</text>
	</g>
	<g id="TEXT_12_">
		<text transform="matrix(1.5 0 0 1 721.4746 324.3965)" fill="#0000FF" font-family="'MyriadPro-Regular'" font-size="2.0007">LOCAL 311</text>
	</g>
	<g id="TEXT_13_">
		<text transform="matrix(1.5 0 0 1 722.3008 327.0859)" fill="#0000FF" font-family="'MyriadPro-Regular'" font-size="2.0007">5.08 m2</text>
	</g>
	<g id="TEXT_14_">
		<text transform="matrix(1.5 0 0 1 748.9609 313.3428)" fill="#0000FF" font-family="'MyriadPro-Regular'" font-size="2.0007">LOCAL 312</text>
	</g>
	<g id="TEXT_15_">
		<text transform="matrix(1.5 0 0 1 751.3252 315.9658)" fill="#0000FF" font-family="'MyriadPro-Regular'" font-size="2.0007">6.08 m2</text>
	</g>
	<g id="TEXT_16_">
		<text transform="matrix(1.5 0 0 1 749.6973 269.6191)" fill="#0000FF" font-family="'MyriadPro-Regular'" font-size="2.0007">LOCAL 313</text>
	</g>
	<g id="TEXT_17_">
		<text transform="matrix(1.5 0 0 1 750.5225 272.3086)" fill="#0000FF" font-family="'MyriadPro-Regular'" font-size="2.0007">5.49 m2</text>
	</g>
	<g id="TEXT_18_">
		<text transform="matrix(1.5 0 0 1 703.4609 272.0977)" fill="#0000FF" font-family="'MyriadPro-Regular'" font-size="2.0007">LOCAL 310</text>
	</g>
	<g id="TEXT_19_">
		<text transform="matrix(1.5 0 0 1 704.2852 274.7881)" fill="#0000FF" font-family="'MyriadPro-Regular'" font-size="2.0007">4.93 m2</text>
	</g>
	<g id="TEXT_20_">
		<text transform="matrix(1.5 0 0 1 670.9805 271.2861)" fill="#0000FF" font-family="'MyriadPro-Regular'" font-size="2.0007">LOCAL 308</text>
	</g>
	<g id="TEXT_21_">
		<text transform="matrix(1.5 0 0 1 671.8047 273.9766)" fill="#0000FF" font-family="'MyriadPro-Regular'" font-size="2.0007">5.16 m2</text>
	</g>
	<g id="TEXT_22_">
		<text transform="matrix(1.5 0 0 1 638.4023 276.1709)" fill="#0000FF" font-family="'MyriadPro-Regular'" font-size="2.0007">LOCAL 306</text>
	</g>
	<g id="TEXT_23_">
		<text transform="matrix(1.5 0 0 1 639.2275 278.8613)" fill="#0000FF" font-family="'MyriadPro-Regular'" font-size="2.0007">4.75 m2</text>
	</g>
	<g id="TEXT_24_">
		<text transform="matrix(1.5 0 0 1 606.4639 277.2529)" fill="#0000FF" font-family="'MyriadPro-Regular'" font-size="2.0007">LOCAL 304</text>
	</g>
	<g id="TEXT_25_">
		<text transform="matrix(1.5 0 0 1 607.2891 279.9424)" fill="#0000FF" font-family="'MyriadPro-Regular'" font-size="2.0007">4.72 m2</text>
	</g>
	<g id="TEXT_26_">
		<text transform="matrix(1.5 0 0 1 574.2539 279.957)" fill="#0000FF" font-family="'MyriadPro-Regular'" font-size="2.0007">LOCAL 302</text>
	</g>
	<g id="TEXT_27_">
		<text transform="matrix(1.5 0 0 1 575.0801 282.6465)" fill="#0000FF" font-family="'MyriadPro-Regular'" font-size="2.0007">6.02 m2</text>
	</g>
	<g id="TEXT_28_">
		<text transform="matrix(1.5 0 0 1 489.1973 266.5625)" fill="#0000FF" font-family="'MyriadPro-Regular'" font-size="2.0007">LOCAL 622</text>
	</g>
	<g id="TEXT_29_">
		<text transform="matrix(1.5 0 0 1 489.9141 270.4434)" fill="#0000FF" font-family="'MyriadPro-Regular'" font-size="2.0007">4.61 m2</text>
	</g>
	<g id="TEXT_30_">
		<text transform="matrix(1.5 0 0 1 551.751 256.3848)" fill="#0000FF" font-family="'MyriadPro-Regular'" font-size="2.0007">LOCAL 621</text>
	</g>
	<g id="TEXT_31_">
		<text transform="matrix(1.5 0 0 1 552.4678 260.2646)" fill="#0000FF" font-family="'MyriadPro-Regular'" font-size="2.0007">4.90 m2</text>
	</g>
	<g id="TEXT_32_">
		<text transform="matrix(1.5 0 0 1 581.7793 254.6992)" fill="#0000FF" font-family="'MyriadPro-Regular'" font-size="2.0007">LOCAL 620</text>
	</g>
	<g id="TEXT_33_">
		<text transform="matrix(1.5 0 0 1 582.4961 258.5801)" fill="#0000FF" font-family="'MyriadPro-Regular'" font-size="2.0007">4.52 m2</text>
	</g>
	<g id="TEXT_34_">
		<text transform="matrix(1.5 0 0 1 612.4199 252.9053)" fill="#0000FF" font-family="'MyriadPro-Regular'" font-size="2.0007">LOCAL 619</text>
	</g>
	<g id="TEXT_35_">
		<text transform="matrix(1.5 0 0 1 613.1367 256.7852)" fill="#0000FF" font-family="'MyriadPro-Regular'" font-size="2.0007">4.37 m2</text>
	</g>
	<g id="TEXT_36_">
		<text transform="matrix(1.5 0 0 1 642.2246 249.8711)" fill="#0000FF" font-family="'MyriadPro-Regular'" font-size="2.0007">LOCAL 618</text>
	</g>
	<g id="TEXT_37_">
		<text transform="matrix(1.5 0 0 1 642.9404 253.752)" fill="#0000FF" font-family="'MyriadPro-Regular'" font-size="2.0007">4.53 m2</text>
	</g>
	<g id="TEXT_38_">
		<text transform="matrix(1.5 0 0 1 673.377 248.4111)" fill="#0000FF" font-family="'MyriadPro-Regular'" font-size="2.0007">LOCAL 617</text>
	</g>
	<g id="TEXT_39_">
		<text transform="matrix(1.5 0 0 1 674.0938 252.291)" fill="#0000FF" font-family="'MyriadPro-Regular'" font-size="2.0007">4.50 m2</text>
	</g>
	<g id="TEXT_40_">
		<text transform="matrix(1.5 0 0 1 703.2373 247.3926)" fill="#0000FF" font-family="'MyriadPro-Regular'" font-size="2.0007">LOCAL 616</text>
	</g>
	<g id="TEXT_41_">
		<text transform="matrix(1.5 0 0 1 703.9541 251.2734)" fill="#0000FF" font-family="'MyriadPro-Regular'" font-size="2.0007">4.55 m2</text>
	</g>
	<g id="TEXT_42_">
		<text transform="matrix(1.5 0 0 1 748.959 234.8877)" fill="#0000FF" font-family="'MyriadPro-Regular'" font-size="2.0007">LOCAL 615</text>
	</g>
	<g id="TEXT_43_">
		<text transform="matrix(1.5 0 0 1 749.6748 238.7686)" fill="#0000FF" font-family="'MyriadPro-Regular'" font-size="2.0007">6.07 m2</text>
	</g>
	<g id="TEXT_44_">
		<text transform="matrix(1.5 0 0 1 748.959 207.8516)" fill="#0000FF" font-family="'MyriadPro-Regular'" font-size="2.0007">LOCAL 614</text>
	</g>
	<g id="TEXT_45_">
		<text transform="matrix(1.5 0 0 1 749.6748 211.7324)" fill="#0000FF" font-family="'MyriadPro-Regular'" font-size="2.0007">3.98 m2</text>
	</g>
	<g id="TEXT_46_">
		<text transform="matrix(1.5 0 0 1 672.2275 218.9082)" fill="#0000FF" font-family="'MyriadPro-Regular'" font-size="2.0007">LOCAL 610</text>
	</g>
	<g id="TEXT_47_">
		<text transform="matrix(1.5 0 0 1 672.9443 222.7891)" fill="#0000FF" font-family="'MyriadPro-Regular'" font-size="2.0007">4.35 m2</text>
	</g>
	<g id="TEXT_48_">
		<text transform="matrix(1.5 0 0 1 702.2217 219.0361)" fill="#0000FF" font-family="'MyriadPro-Regular'" font-size="2.0007">LOCAL 612</text>
	</g>
	<g id="TEXT_49_">
		<text transform="matrix(1.5 0 0 1 702.9385 222.916)" fill="#0000FF" font-family="'MyriadPro-Regular'" font-size="2.0007">4.30 m2</text>
	</g>
	<g id="TEXT_50_">
		<text transform="matrix(1.5 0 0 1 641.209 219.2705)" fill="#0000FF" font-family="'MyriadPro-Regular'" font-size="2.0007">LOCAL 608</text>
	</g>
	<g id="TEXT_51_">
		<text transform="matrix(1.5 0 0 1 641.9258 223.1514)" fill="#0000FF" font-family="'MyriadPro-Regular'" font-size="2.0007">4.85 m2</text>
	</g>
	<g id="TEXT_52_">
		<text transform="matrix(1.5 0 0 1 611.8242 221.2637)" fill="#0000FF" font-family="'MyriadPro-Regular'" font-size="2.0007">LOCAL 606</text>
	</g>
	<g id="TEXT_53_">
		<text transform="matrix(1.5 0 0 1 612.541 225.1445)" fill="#0000FF" font-family="'MyriadPro-Regular'" font-size="2.0007">5.40 m2</text>
	</g>
	<g id="TEXT_54_">
		<text transform="matrix(1.5 0 0 1 582.0762 221.8076)" fill="#0000FF" font-family="'MyriadPro-Regular'" font-size="2.0007">LOCAL 604</text>
	</g>
	<g id="TEXT_55_">
		<text transform="matrix(1.5 0 0 1 582.793 225.6885)" fill="#0000FF" font-family="'MyriadPro-Regular'" font-size="2.0007">6.50 m2</text>
	</g>
	<g id="TEXT_56_">
		<text transform="matrix(1.5 0 0 1 551.7119 222.3535)" fill="#0000FF" font-family="'MyriadPro-Regular'" font-size="2.0007">LOCAL 602</text>
	</g>
	<g id="TEXT_57_">
		<text transform="matrix(1.5 0 0 1 552.4277 226.2334)" fill="#0000FF" font-family="'MyriadPro-Regular'" font-size="2.0007">6.39 m2</text>
	</g>
	<g id="TEXT_58_">
		<text transform="matrix(1.5 0 0 1 523.0518 222.3535)" fill="#0000FF" font-family="'MyriadPro-Regular'" font-size="2.0007">LOCAL 600</text>
	</g>
	<g id="TEXT_59_">
		<text transform="matrix(1.5 0 0 1 523.7676 226.2334)" fill="#0000FF" font-family="'MyriadPro-Regular'" font-size="2.0007">5.87 m2</text>
	</g>
	<g id="TEXT_60_">
		<text transform="matrix(1.5 0 0 1 479.1543 223.4404)" fill="#0000FF" font-family="'MyriadPro-Regular'" font-size="2.0007">LOCAL 623</text>
	</g>
	<g id="TEXT_61_">
		<text transform="matrix(1.5 0 0 1 479.8711 227.3213)" fill="#0000FF" font-family="'MyriadPro-Regular'" font-size="2.0007">5.28 m2</text>
	</g>
	<g id="TEXT_62_">
		<text transform="matrix(1.5 0 0 1 478.6914 200.7383)" fill="#0000FF" font-family="'MyriadPro-Regular'" font-size="2.0007">LOCAL 624</text>
	</g>
	<g id="TEXT_63_">
		<text transform="matrix(1.5 0 0 1 479.4082 204.6182)" fill="#0000FF" font-family="'MyriadPro-Regular'" font-size="2.0007">6.16 m2</text>
	</g>
	<g id="TEXT_64_">
		<text transform="matrix(1.5 0 0 1 552.0371 185.5068)" fill="#0000FF" font-family="'MyriadPro-Regular'" font-size="2.0007">LOCAL 601</text>
	</g>
	<g id="TEXT_65_">
		<text transform="matrix(1.5 0 0 1 552.7539 189.3877)" fill="#0000FF" font-family="'MyriadPro-Regular'" font-size="2.0007">4.44 m2</text>
	</g>
	<g id="TEXT_66_">
		<text transform="matrix(1.5 0 0 1 579.1475 186.3525)" fill="#0000FF" font-family="'MyriadPro-Regular'" font-size="2.0007">LOCAL 603</text>
	</g>
	<g id="TEXT_67_">
		<text transform="matrix(1.5 0 0 1 579.8643 190.2334)" fill="#0000FF" font-family="'MyriadPro-Regular'" font-size="2.0007">4.17 m2</text>
	</g>
	<g id="TEXT_68_">
		<text transform="matrix(1.5 0 0 1 612.0488 186.126)" fill="#0000FF" font-family="'MyriadPro-Regular'" font-size="2.0007">LOCAL 605</text>
	</g>
	<g id="TEXT_69_">
		<text transform="matrix(1.5 0 0 1 612.7656 190.0059)" fill="#0000FF" font-family="'MyriadPro-Regular'" font-size="2.0007">4.36 m2</text>
	</g>
	<g id="TEXT_70_">
		<text transform="matrix(1.5 0 0 1 641.5977 186.8105)" fill="#0000FF" font-family="'MyriadPro-Regular'" font-size="2.0007">LOCAL 607</text>
	</g>
	<g id="TEXT_71_">
		<text transform="matrix(1.5 0 0 1 642.3145 190.6904)" fill="#0000FF" font-family="'MyriadPro-Regular'" font-size="2.0007">4.40 m2</text>
	</g>
	<g id="TEXT_72_">
		<text transform="matrix(1.5 0 0 1 673.5918 187.0371)" fill="#0000FF" font-family="'MyriadPro-Regular'" font-size="2.0007">LOCAL 609</text>
	</g>
	<g id="TEXT_73_">
		<text transform="matrix(1.5 0 0 1 674.3086 190.918)" fill="#0000FF" font-family="'MyriadPro-Regular'" font-size="2.0007">4.44 m2</text>
	</g>
	<g id="TEXT_74_">
		<text transform="matrix(1.5 0 0 1 702.4082 186.3574)" fill="#0000FF" font-family="'MyriadPro-Regular'" font-size="2.0007">LOCAL 611</text>
	</g>
	<g id="TEXT_75_">
		<text transform="matrix(1.5 0 0 1 703.125 190.2373)" fill="#0000FF" font-family="'MyriadPro-Regular'" font-size="2.0007">4.18 m2</text>
	</g>
	<g id="TEXT_76_">
		<text transform="matrix(1.5 0 0 1 738.8809 186.0244)" fill="#0000FF" font-family="'MyriadPro-Regular'" font-size="2.0007">LOCAL 613</text>
	</g>
	<g id="TEXT_77_">
		<text transform="matrix(1.5 0 0 1 739.5977 189.9053)" fill="#0000FF" font-family="'MyriadPro-Regular'" font-size="2.0007">6.13 m2</text>
	</g>
	<g id="LWPOLYLINE_39_">
		<path fill="none" stroke="#0000FF" stroke-width="0" stroke-linecap="round" stroke-linejoin="round" stroke-miterlimit="10" d="
			M485.635,312.551l-5.721,0.257c-1.874,0.084-3.461-1.367-3.545-3.241s1.367-3.462,3.241-3.546l6.013-0.27L485.635,312.551z"/>
	</g>
	<g id="LWPOLYLINE_40_">
		<path fill="none" stroke="#0000FF" stroke-width="0" stroke-linecap="round" stroke-linejoin="round" stroke-miterlimit="10" d="
			M471.538,286.544l0.594,8.729c0.128,1.872,1.749,3.285,3.62,3.158c1.872-0.127,3.285-1.748,3.158-3.62l-0.595-8.729
			L471.538,286.544z"/>
	</g>
	<g id="TEXT_78_">
		<text transform="matrix(1.5 0 0 1 468.3047 315.3359)" fill="#0000FF" font-family="'MyriadPro-Regular'" font-size="2.0007">LOCAL 298</text>
	</g>
	<g id="TEXT_79_">
		<text transform="matrix(1.5 0 0 1 469.1299 318.0264)" fill="#0000FF" font-family="'MyriadPro-Regular'" font-size="2.0007">0.55 m2</text>
	</g>
	<g id="TEXT_80_">
		<text transform="matrix(1.5 0 0 1 466.1367 294.2617)" fill="#0000FF" font-family="'MyriadPro-Regular'" font-size="2.0007">LOCAL 299</text>
	</g>
	<g id="TEXT_81_">
		<text transform="matrix(1.5 0 0 1 466.9609 296.9521)" fill="#0000FF" font-family="'MyriadPro-Regular'" font-size="2.0007">0.73 m2</text>
	</g>
</g>
<g id="AREAS_COMUNES">
	<g id="LWPOLYLINE_41_">
		
			<polygon fill="none" stroke="#99CC00" stroke-width="0" stroke-linecap="round" stroke-linejoin="round" stroke-miterlimit="10" points="
			0.63,245.823 123.323,245.823 123.323,212.391 472.016,210.517 470.396,176.304 796.461,177.139 796.461,252.109 796.887,335.963 
			768.066,335.531 743.598,334.519 692.385,334.934 640.756,336.44 589.761,337.969 538.699,341.545 487.57,345.573 
			487.771,391.359 437.646,392.128 245.516,395.072 0,395.072 		"/>
	</g>
	<g id="LWPOLYLINE_42_">
		
			<polygon fill="none" stroke="#99CC00" stroke-width="0" stroke-linecap="round" stroke-linejoin="round" stroke-miterlimit="10" points="
			475.015,233.923 502.407,233.923 502.407,248.942 517.847,248.942 517.847,261.387 476.369,261.387 		"/>
	</g>
	<g id="LWPOLYLINE_43_">
		
			<polygon fill="none" stroke="#99CC00" stroke-width="0" stroke-linecap="round" stroke-linejoin="round" stroke-miterlimit="10" points="
			519.983,250.002 519.983,271.425 544.172,269.56 544.172,250.002 		"/>
	</g>
	<g id="LWPOLYLINE_44_">
		
			<polygon fill="none" stroke="#99CC00" stroke-width="0" stroke-linecap="round" stroke-linejoin="round" stroke-miterlimit="10" points="
			518.085,180.584 475.846,180.138 476.808,201.151 488.259,201.128 487.974,191.898 517.963,191.867 		"/>
	</g>
	<g id="TEXT_82_">
		<text transform="matrix(1.5 0 0 1 486.332 186.9941)" fill="#99CC00" font-family="'MyriadPro-Regular'" font-size="2.0007">ESCALERA</text>
	</g>
	<g id="TEXT_83_">
		<text transform="matrix(1.5 0 0 1 482.3105 243.0859)" fill="#99CC00" font-family="'MyriadPro-Regular'" font-size="2.0007">ESCALERA</text>
	</g>
	<g id="TEXT_84_">
		<text transform="matrix(1.5 0 0 1 485.7129 257.0381)" fill="#99CC00" font-family="'MyriadPro-Regular'" font-size="2.0007">ESCALERA</text>
	</g>
	<g id="TEXT_85_">
		<text transform="matrix(1.5 0 0 1 523.4551 260.2617)" fill="#99CC00" font-family="'ArialMT'" font-size="2.2993">ELEVADOR</text>
	</g>
	<g id="LWPOLYLINE_45_">
		
			<polygon fill="none" stroke="#99CC00" stroke-width="0" stroke-linecap="round" stroke-linejoin="round" stroke-miterlimit="10" points="
			487.182,293.367 487.188,283.072 495.699,282.283 495.777,279.08 539.231,275.791 539.232,288.495 505.361,290.918 
			499.026,291.771 		"/>
	</g>
	<g id="LWPOLYLINE_46_">
		
			<polyline fill="none" stroke="#99CC00" stroke-width="0" stroke-linecap="round" stroke-linejoin="round" stroke-miterlimit="10" points="
			566.323,286.556 547.85,287.878 547.85,275.135 		"/>
	</g>
	<g id="TEXT_86_">
		<text transform="matrix(1.5 0 0 1 505.0967 285.2764)" fill="#99CC00" font-family="'MyriadPro-Regular'" font-size="2.0007">ESCALERA</text>
	</g>
	<g id="TEXT_87_">
		<text transform="matrix(1.5 0 0 1 552.0098 281.6436)" fill="#99CC00" font-family="'MyriadPro-Regular'" font-size="2.0007">ESCALERA</text>
	</g>
</g>
<g id="_x30_">
</g>
</svg>
