<?xml version="1.0" encoding="utf-8"?>
<!-- Generator: Adobe Illustrator 16.0.0, SVG Export Plug-In . SVG Version: 6.00 Build 0)  -->
<!DOCTYPE svg PUBLIC "-//W3C//DTD SVG 1.1//EN" "http://www.w3.org/Graphics/SVG/1.1/DTD/svg11.dtd">
<svg version="1.1" xmlns="http://www.w3.org/2000/svg" xmlns:xlink="http://www.w3.org/1999/xlink" x="0px" y="0px" width="800px"
	 height="600px" viewBox="0 0 800 600" enable-background="new 0 0 800 600" xml:space="preserve">
<g id="AREA__x28_POLILINEA_x29_">
	<g id="MTEXT">
		<text transform="matrix(1 0 0 1 500.0098 111.3516)" fill="#0000FF" font-family="'ArialMT'" font-size="2.2726">BODEGA 650</text>
	</g>
	<g id="MTEXT_1_">
		<text transform="matrix(1 0 0 1 556.0293 110.332)" fill="#0000FF" font-family="'ArialMT'" font-size="2.2726">BODEGA 652</text>
	</g>
	<g id="MTEXT_2_">
		<text transform="matrix(1 0 0 1 492.416 164.6943)" fill="#0000FF" font-family="'ArialMT'" font-size="2.2726">BODEGA 651</text>
	</g>
	<g id="MTEXT_3_">
		<text transform="matrix(1 0 0 1 554.3574 158.4043)" fill="#0000FF" font-family="'ArialMT'" font-size="2.2726">BODEGA 653</text>
	</g>
	<g id="MTEXT_4_">
		<text transform="matrix(1 0 0 1 588.5645 157.8906)" fill="#0000FF" font-family="'ArialMT'" font-size="2.2726">BODEGA 655</text>
	</g>
	<g id="MTEXT_5_">
		<text transform="matrix(1 0 0 1 588.5742 110.8867)" fill="#0000FF" font-family="'ArialMT'" font-size="2.2726">BODEGA 654</text>
	</g>
	<g id="MTEXT_6_">
		<text transform="matrix(1 0 0 1 742.0283 108.7871)" fill="#0000FF" font-family="'ArialMT'" font-size="2.2726">BODEGA 661</text>
	</g>
	<g id="MTEXT_7_">
		<text transform="matrix(1 0 0 1 677.2441 110.332)" fill="#0000FF" font-family="'ArialMT'" font-size="2.2726">BODEGA 659</text>
	</g>
	<g id="MTEXT_8_">
		<text transform="matrix(1 0 0 1 742.2842 143.5)" fill="#0000FF" font-family="'ArialMT'" font-size="2.2726">BODEGA 662</text>
	</g>
	<g id="MTEXT_9_">
		<text transform="matrix(1 0 0 1 678.6914 154.1064)" fill="#0000FF" font-family="'ArialMT'" font-size="2.2726">BODEGA 660</text>
	</g>
	<g id="MTEXT_10_">
		<text transform="matrix(1 0 0 1 646.541 156.6113)" fill="#0000FF" font-family="'ArialMT'" font-size="2.2726">BODEGA 658</text>
	</g>
	<g id="MTEXT_11_">
		<text transform="matrix(1 0 0 1 648.6523 112.3018)" fill="#0000FF" font-family="'ArialMT'" font-size="2.2726">BODEGA 657</text>
	</g>
	<g id="MTEXT_12_">
		<text transform="matrix(1 0 0 1 616.3789 157.2588)" fill="#0000FF" font-family="'ArialMT'" font-size="2.2726">BODEGA 656</text>
	</g>
	<g id="LWPOLYLINE">
		
			<polygon fill="none" stroke="#0000FF" stroke-width="0" stroke-linecap="round" stroke-linejoin="round" stroke-miterlimit="10" points="
			509.776,128.925 497.647,128.925 497.647,127.379 485.519,113.807 485.043,98.457 518.534,98.457 520.079,98.457 520.079,97.202 
			545.052,97.202 545.063,115.789 529.047,115.789 529.047,128.925 518.534,128.925 		"/>
	</g>
	<g id="LWPOLYLINE_1_">
		
			<polygon fill="none" stroke="#0000FF" stroke-width="0" stroke-linecap="round" stroke-linejoin="round" stroke-miterlimit="10" points="
			474.981,140.258 476.242,190.322 483.908,189.738 483.812,184.014 520.078,181.366 520.08,140.258 510.289,140.258 		"/>
	</g>
	<g id="LWPOLYLINE_2_">
		
			<polygon fill="none" stroke="#0000FF" stroke-width="0" stroke-linecap="round" stroke-linejoin="round" stroke-miterlimit="10" points="
			545.836,128.925 536.307,128.925 536.307,115.789 545.063,115.789 545.052,97.202 575.966,97.202 575.978,128.925 
			554.594,128.925 		"/>
	</g>
	<g id="LWPOLYLINE_3_">
		
			<polygon fill="none" stroke="#0000FF" stroke-width="0" stroke-linecap="round" stroke-linejoin="round" stroke-miterlimit="10" points="
			544.291,140.334 577.26,140.258 577.26,175.266 544.291,177.938 		"/>
	</g>
	<g id="LWPOLYLINE_4_">
		
			<polygon fill="none" stroke="#0000FF" stroke-width="0" stroke-linecap="round" stroke-linejoin="round" stroke-miterlimit="10" points="
			575.972,128.925 575.972,97.202 610.432,97.202 610.432,128.925 606.416,128.925 		"/>
	</g>
	<g id="LWPOLYLINE_5_">
		
			<polygon fill="none" stroke="#0000FF" stroke-width="0" stroke-linecap="round" stroke-linejoin="round" stroke-miterlimit="10" points="
			608.939,140.258 608.94,172.711 577.26,175.266 577.26,140.258 		"/>
	</g>
	<g id="LWPOLYLINE_6_">
		
			<polygon fill="none" stroke="#0000FF" stroke-width="0" stroke-linecap="round" stroke-linejoin="round" stroke-miterlimit="10" points="
			608.939,140.258 637.581,140.258 637.533,152.672 634.748,152.672 634.748,154.218 637.581,154.218 637.581,172.945 
			608.94,173.816 608.939,154.218 611.567,154.218 611.567,152.672 608.939,152.672 		"/>
	</g>
	<g id="LWPOLYLINE_7_">
		
			<polygon fill="none" stroke="#0000FF" stroke-width="0" stroke-linecap="round" stroke-linejoin="round" stroke-miterlimit="10" points="
			648.962,128.925 640.205,128.925 636.188,128.925 636.188,97.202 668.899,97.202 668.899,128.925 		"/>
	</g>
	<g id="LWPOLYLINE_8_">
		
			<polygon fill="none" stroke="#0000FF" stroke-width="0" stroke-linecap="round" stroke-linejoin="round" stroke-miterlimit="10" points="
			637.581,140.258 657.771,140.258 667.047,140.258 667.047,168.165 637.581,170.188 		"/>
	</g>
	<g id="LWPOLYLINE_9_">
		
			<polygon fill="none" stroke="#0000FF" stroke-width="0" stroke-linecap="round" stroke-linejoin="round" stroke-miterlimit="10" points="
			667.047,140.258 667.047,168.165 700.135,165.913 700.17,140.258 		"/>
	</g>
	<g id="LWPOLYLINE_10_">
		
			<polygon fill="none" stroke="#0000FF" stroke-width="0" stroke-linecap="round" stroke-linejoin="round" stroke-miterlimit="10" points="
			668.899,128.925 668.899,97.202 637.734,97.202 637.734,88.126 727.68,88.252 727.679,97.202 699.397,97.202 699.397,113.962 
			708.154,113.962 708.154,128.925 698.625,128.925 690.383,128.925 		"/>
	</g>
	<g id="LWPOLYLINE_11_">
		
			<polygon fill="none" stroke="#0000FF" stroke-width="0" stroke-linecap="round" stroke-linejoin="round" stroke-miterlimit="10" points="
			717.685,128.925 708.154,128.925 708.154,113.962 699.397,113.962 699.397,97.202 727.679,97.202 727.679,88.252 768.889,88.252 
			770.435,88.252 781.252,88.252 781.281,127.92 770.979,127.92 770.979,128.152 727.679,128.175 727.679,128.948 		"/>
	</g>
	<g id="LWPOLYLINE_12_">
		
			<polygon fill="none" stroke="#0000FF" stroke-width="0" stroke-linecap="round" stroke-linejoin="round" stroke-miterlimit="10" points="
			728.225,137.682 728.142,129.44 729.842,129.44 729.842,128.948 769.434,128.948 769.434,129.44 770.979,129.44 770.979,127.92 
			781.281,127.92 781.252,161.5 770.979,161.5 770.979,135.622 769.434,135.622 769.434,161.566 750.133,162.712 750.133,152.145 
			732.057,152.145 732.057,149.015 730.512,149.015 730.512,154.167 725.412,154.167 725.412,141.803 732.057,141.803 
			732.057,140.258 729.533,140.258 729.533,137.682 		"/>
	</g>
	<g id="LWPOLYLINE_13_">
		
			<polygon fill="none" stroke="#0000FF" stroke-width="0" stroke-linecap="round" stroke-linejoin="round" stroke-miterlimit="10" points="
			2.623,163.46 2.518,182.932 6.124,182.932 6.124,189.526 2.518,189.533 2.366,223.219 76.965,223.219 76.965,182.829 
			103.211,182.829 103.211,163.46 		"/>
	</g>
	<g id="LWPOLYLINE_14_">
		
			<rect x="76.965" y="182.829" fill="none" stroke="#0000FF" stroke-width="0" stroke-linecap="round" stroke-linejoin="round" stroke-miterlimit="10" width="26.246" height="40.905"/>
	</g>
	<g id="LWPOLYLINE_15_">
		
			<polygon fill="none" stroke="#0000FF" stroke-width="0" stroke-linecap="round" stroke-linejoin="round" stroke-miterlimit="10" points="
			103.211,182.314 119.16,182.314 119.16,189.526 125.079,189.526 125.079,223.734 103.211,223.734 		"/>
	</g>
	<g id="LWPOLYLINE_16_">
		
			<polygon fill="none" stroke="#0000FF" stroke-width="0" stroke-linecap="round" stroke-linejoin="round" stroke-miterlimit="10" points="
			125.079,189.526 125.079,223.734 155.27,223.734 155.27,182.314 127.676,182.314 127.676,189.526 		"/>
	</g>
	<g id="LWPOLYLINE_17_">
		
			<rect x="155.27" y="182.314" fill="none" stroke="#0000FF" stroke-width="0" stroke-linecap="round" stroke-linejoin="round" stroke-miterlimit="10" width="30.595" height="41.42"/>
	</g>
	<g id="LWPOLYLINE_18_">
		
			<polygon fill="none" stroke="#0000FF" stroke-width="0" stroke-linecap="round" stroke-linejoin="round" stroke-miterlimit="10" points="
			185.864,182.314 218.318,182.314 218.318,189.526 218.318,223.734 185.864,223.734 		"/>
	</g>
	<g id="LWPOLYLINE_19_">
		
			<polygon fill="none" stroke="#0000FF" stroke-width="0" stroke-linecap="round" stroke-linejoin="round" stroke-miterlimit="10" points="
			275.218,182.314 275.218,223.734 302.314,223.734 302.314,189.526 297.678,189.526 297.678,182.314 		"/>
	</g>
	<g id="LWPOLYLINE_20_">
		
			<polygon fill="none" stroke="#0000FF" stroke-width="0" stroke-linecap="round" stroke-linejoin="round" stroke-miterlimit="10" points="
			302.314,189.526 302.314,223.734 330.543,223.734 330.543,182.313 302.83,182.313 302.83,189.526 		"/>
	</g>
	<g id="LWPOLYLINE_21_">
		
			<polygon fill="none" stroke="#0000FF" stroke-width="0" stroke-linecap="round" stroke-linejoin="round" stroke-miterlimit="10" points="
			330.543,182.313 330.543,223.734 358.567,223.734 358.567,189.485 354.343,189.485 354.343,182.273 		"/>
	</g>
	<g id="LWPOLYLINE_22_">
		
			<polygon fill="none" stroke="#0000FF" stroke-width="0" stroke-linecap="round" stroke-linejoin="round" stroke-miterlimit="10" points="
			358.052,169.708 358.052,189.485 358.567,189.485 358.567,223.219 416.159,223.219 416.175,190.19 411.008,190.19 
			411.008,182.978 416.159,182.978 416.159,169.708 		"/>
	</g>
	<g id="LWPOLYLINE_23_">
		
			<polygon fill="none" stroke="#0000FF" stroke-width="0" stroke-linecap="round" stroke-linejoin="round" stroke-miterlimit="10" points="
			76.965,223.219 2.366,223.219 2.319,233.163 5.925,233.163 5.925,239.756 2.319,239.756 2.319,275.244 6.213,275.244 
			6.213,280.914 61.451,280.914 61.451,274.214 66.603,274.214 66.603,280.91 76.965,280.992 76.965,233.521 		"/>
	</g>
	<g id="LWPOLYLINE_24_">
		
			<rect x="76.965" y="242.794" fill="none" stroke="#0000FF" stroke-width="0" stroke-linecap="round" stroke-linejoin="round" stroke-miterlimit="10" width="48.114" height="38.198"/>
	</g>
	<g id="LWPOLYLINE_25_">
		
			<polygon fill="none" stroke="#0000FF" stroke-width="0" stroke-linecap="round" stroke-linejoin="round" stroke-miterlimit="10" points="
			125.079,242.794 125.079,274.214 127.456,274.214 127.456,280.992 155.27,280.992 155.27,242.794 		"/>
	</g>
	<g id="LWPOLYLINE_26_">
		
			<polygon fill="none" stroke="#0000FF" stroke-width="0" stroke-linecap="round" stroke-linejoin="round" stroke-miterlimit="10" points="
			155.27,242.794 155.27,280.992 184.438,280.992 184.438,274.214 187.014,274.214 187.014,242.794 		"/>
	</g>
	<g id="LWPOLYLINE_27_">
		
			<polygon fill="none" stroke="#0000FF" stroke-width="0" stroke-linecap="round" stroke-linejoin="round" stroke-miterlimit="10" points="
			187.014,242.794 187.014,280.836 218.952,280.836 218.952,274.214 218.952,242.794 		"/>
	</g>
	<g id="LWPOLYLINE_28_">
		
			<rect x="245.649" y="242.794" fill="none" stroke="#0000FF" stroke-width="0" stroke-linecap="round" stroke-linejoin="round" stroke-miterlimit="10" width="29.569" height="38.194"/>
	</g>
	<g id="LWPOLYLINE_29_">
		
			<polygon fill="none" stroke="#0000FF" stroke-width="0" stroke-linecap="round" stroke-linejoin="round" stroke-miterlimit="10" points="
			275.218,242.794 275.218,280.988 297.678,280.992 297.678,274.214 302.521,274.214 302.521,242.794 		"/>
	</g>
	<g id="LWPOLYLINE_30_">
		
			<polygon fill="none" stroke="#0000FF" stroke-width="0" stroke-linecap="round" stroke-linejoin="round" stroke-miterlimit="10" points="
			330.543,242.794 330.543,280.909 354.343,280.909 354.343,274.214 358.567,274.214 358.567,242.794 		"/>
	</g>
	<g id="TEXT">
		<text transform="matrix(1.5 0 0 1 28.9253 187.6299)" fill="#0000FF" font-family="'MyriadPro-Regular'" font-size="2.0026">LOCAL 422</text>
	</g>
	<g id="TEXT_1_">
		<text transform="matrix(1.5 0 0 1 29.6426 191.5137)" fill="#0000FF" font-family="'MyriadPro-Regular'" font-size="2.0026">46.49 m2</text>
	</g>
	<g id="TEXT_2_">
		<text transform="matrix(1.5 0 0 1 81.2856 206.1895)" fill="#0000FF" font-family="'MyriadPro-Regular'" font-size="2.0026">LOCAL 417</text>
	</g>
	<g id="TEXT_3_">
		<text transform="matrix(1.5 0 0 1 82.0029 210.0742)" fill="#0000FF" font-family="'MyriadPro-Regular'" font-size="2.0026">10.11 m2</text>
	</g>
	<g id="TEXT_4_">
		<text transform="matrix(1.5 0 0 1 105.1016 206.1895)" fill="#0000FF" font-family="'MyriadPro-Regular'" font-size="2.0026">LOCAL 421</text>
	</g>
	<g id="TEXT_5_">
		<text transform="matrix(1.5 0 0 1 105.8188 210.0742)" fill="#0000FF" font-family="'MyriadPro-Regular'" font-size="2.0026">8.13 m2</text>
	</g>
	<g id="TEXT_6_">
		<text transform="matrix(1.5 0 0 1 131.7886 206.1895)" fill="#0000FF" font-family="'MyriadPro-Regular'" font-size="2.0026">LOCAL 418</text>
	</g>
	<g id="TEXT_7_">
		<text transform="matrix(1.5 0 0 1 132.5059 210.0742)" fill="#0000FF" font-family="'MyriadPro-Regular'" font-size="2.0026">11.60 m2</text>
	</g>
	<g id="TEXT_8_">
		<text transform="matrix(1.5 0 0 1 161.6851 206.1895)" fill="#0000FF" font-family="'MyriadPro-Regular'" font-size="2.0026">LOCAL 420</text>
	</g>
	<g id="TEXT_9_">
		<text transform="matrix(1.5 0 0 1 162.4023 210.0742)" fill="#0000FF" font-family="'MyriadPro-Regular'" font-size="2.0026">11.94 m2</text>
	</g>
	<g id="TEXT_10_">
		<text transform="matrix(1.5 0 0 1 247.2539 203.0186)" fill="#0000FF" font-family="'MyriadPro-Regular'" font-size="2.0026">LOCAL 405</text>
	</g>
	<g id="TEXT_11_">
		<text transform="matrix(1.5 0 0 1 247.9712 206.9033)" fill="#0000FF" font-family="'MyriadPro-Regular'" font-size="2.0026">11.53 m2</text>
	</g>
	<g id="TEXT_12_">
		<text transform="matrix(1.5 0 0 1 280.7646 203.0186)" fill="#0000FF" font-family="'MyriadPro-Regular'" font-size="2.0026">LOCAL 404</text>
	</g>
	<g id="TEXT_13_">
		<text transform="matrix(1.5 0 0 1 281.4819 206.9033)" fill="#0000FF" font-family="'MyriadPro-Regular'" font-size="2.0026">10,25 m2</text>
	</g>
	<g id="TEXT_14_">
		<text transform="matrix(1.5 0 0 1 308.1602 206.1895)" fill="#0000FF" font-family="'MyriadPro-Regular'" font-size="2.0026">LOCAL 406</text>
	</g>
	<g id="TEXT_15_">
		<text transform="matrix(1.5 0 0 1 308.8774 210.0742)" fill="#0000FF" font-family="'MyriadPro-Regular'" font-size="2.0026">10.98 m2</text>
	</g>
	<g id="TEXT_16_">
		<text transform="matrix(1.5 0 0 1 336.8066 206.1895)" fill="#0000FF" font-family="'MyriadPro-Regular'" font-size="2.0026">LOCAL 403</text>
	</g>
	<g id="TEXT_17_">
		<text transform="matrix(1.5 0 0 1 337.5239 210.0742)" fill="#0000FF" font-family="'MyriadPro-Regular'" font-size="2.0026">10.65 m2</text>
	</g>
	<g id="TEXT_18_">
		<text transform="matrix(1.5 0 0 1 81.2856 265.0029)" fill="#0000FF" font-family="'MyriadPro-Regular'" font-size="2.0026">LOCAL 415</text>
	</g>
	<g id="TEXT_19_">
		<text transform="matrix(1.5 0 0 1 82.0029 268.8867)" fill="#0000FF" font-family="'MyriadPro-Regular'" font-size="2.0026">17.31 m2</text>
	</g>
	<g id="TEXT_20_">
		<text transform="matrix(1.5 0 0 1 129.957 265.0029)" fill="#0000FF" font-family="'MyriadPro-Regular'" font-size="2.0026">LOCAL 414</text>
	</g>
	<g id="TEXT_21_">
		<text transform="matrix(1.5 0 0 1 130.6743 268.8867)" fill="#0000FF" font-family="'MyriadPro-Regular'" font-size="2.0026">10.71 m2</text>
	</g>
	<g id="TEXT_22_">
		<text transform="matrix(1.5 0 0 1 166.5303 265.0029)" fill="#0000FF" font-family="'MyriadPro-Regular'" font-size="2.0026">LOCAL 413</text>
	</g>
	<g id="TEXT_23_">
		<text transform="matrix(1.5 0 0 1 167.2476 268.8867)" fill="#0000FF" font-family="'MyriadPro-Regular'" font-size="2.0026">11.25 m2</text>
	</g>
	<g id="TEXT_24_">
		<text transform="matrix(1.5 0 0 1 200.0825 265.0029)" fill="#0000FF" font-family="'MyriadPro-Regular'" font-size="2.0026">LOCAL 412</text>
	</g>
	<g id="TEXT_25_">
		<text transform="matrix(1.5 0 0 1 200.7998 268.8867)" fill="#0000FF" font-family="'MyriadPro-Regular'" font-size="2.0026">11.44 m2</text>
	</g>
	<g id="TEXT_26_">
		<text transform="matrix(1.5 0 0 1 247.4185 264.8545)" fill="#0000FF" font-family="'MyriadPro-Regular'" font-size="2.0026">LOCAL 411</text>
	</g>
	<g id="TEXT_27_">
		<text transform="matrix(1.5 0 0 1 248.1357 268.7383)" fill="#0000FF" font-family="'MyriadPro-Regular'" font-size="2.0026">10.63 m2</text>
	</g>
	<g id="TEXT_28_">
		<text transform="matrix(1.5 0 0 1 280.9292 264.8545)" fill="#0000FF" font-family="'MyriadPro-Regular'" font-size="2.0026">LOCAL 410</text>
	</g>
	<g id="TEXT_29_">
		<text transform="matrix(1.5 0 0 1 281.6465 268.7383)" fill="#0000FF" font-family="'MyriadPro-Regular'" font-size="2.0026">9.51 m2</text>
	</g>
	<g id="TEXT_30_">
		<text transform="matrix(1.5 0 0 1 305.8472 264.8545)" fill="#0000FF" font-family="'MyriadPro-Regular'" font-size="2.0026">LOCAL 409</text>
	</g>
	<g id="TEXT_31_">
		<text transform="matrix(1.5 0 0 1 306.5645 268.7383)" fill="#0000FF" font-family="'MyriadPro-Regular'" font-size="2.0026">10.06 m2</text>
	</g>
	<g id="TEXT_32_">
		<text transform="matrix(1.5 0 0 1 334.6006 264.8545)" fill="#0000FF" font-family="'MyriadPro-Regular'" font-size="2.0026">LOCAL 408</text>
	</g>
	<g id="TEXT_33_">
		<text transform="matrix(1.5 0 0 1 335.3174 268.7383)" fill="#0000FF" font-family="'MyriadPro-Regular'" font-size="2.0026">9.79 m2</text>
	</g>
	<g id="TEXT_34_">
		<text transform="matrix(1.5 0 0 1 29.6426 264.6094)" fill="#0000FF" font-family="'MyriadPro-Regular'" font-size="2.0026">39.82 m2</text>
	</g>
	<g id="TEXT_35_">
		<text transform="matrix(1.5 0 0 1 28.9253 259.8916)" fill="#0000FF" font-family="'MyriadPro-Regular'" font-size="2.0026">LOCAL 416</text>
	</g>
	<g id="TEXT_36_">
		<text transform="matrix(1.5 0 0 1 536.8379 218.3398)" fill="#0000FF" font-family="'MyriadPro-Regular'" font-size="2.0026">LOCAL 314</text>
	</g>
	<g id="TEXT_37_">
		<text transform="matrix(1.5 0 0 1 537.5547 222.2246)" fill="#0000FF" font-family="'MyriadPro-Regular'" font-size="2.0026">56.24 m2</text>
	</g>
	<g id="LWPOLYLINE_31_">
		
			<polygon fill="none" stroke="#0000FF" stroke-width="0" stroke-linecap="round" stroke-linejoin="round" stroke-miterlimit="10" points="
			646.557,182.119 647.526,193.121 595.74,197.105 597.527,246.769 641.807,245.137 641.737,241.847 648.354,241.715 
			648.355,245.012 693.471,244.206 693.449,240.807 700.124,240.657 700.231,244.003 744.724,243.79 744.69,240.418 
			751.305,240.108 751.305,242.066 767.479,242.066 767.681,172.696 746.925,174.149 746.686,171.012 701.659,174.446 
			701.903,177.787 695.336,178.379 695.067,174.95 651.353,178.284 651.353,181.696 		"/>
	</g>
	<g id="TEXT_38_">
		<text transform="matrix(1.5 0 0 1 678.6934 210.8623)" fill="#0000FF" font-family="'MyriadPro-Regular'" font-size="2.0026">LOCAL 315</text>
	</g>
	<g id="TEXT_39_">
		<text transform="matrix(1.5 0 0 1 678.4238 214.7471)" fill="#0000FF" font-family="'MyriadPro-Regular'" font-size="2.0026">101.90 m2</text>
	</g>
	<g id="MTEXT_13_">
		<text transform="matrix(1 0 0 1 556.7725 161.127)" fill="#0000FF" font-family="'ArialMT'" font-size="2.2726">11.28 m2</text>
	</g>
	<g id="MTEXT_14_">
		<text transform="matrix(1 0 0 1 746.1816 112.6035)" fill="#0000FF" font-family="'ArialMT'" font-size="2.2726">27.35 m2</text>
	</g>
	<g id="MTEXT_15_">
		<text transform="matrix(1 0 0 1 558.21 113.0059)" fill="#0000FF" font-family="'ArialMT'" font-size="2.2726">10.32 m2</text>
	</g>
	<g id="MTEXT_16_">
		<text transform="matrix(1 0 0 1 590.7588 113.6221)" fill="#0000FF" font-family="'ArialMT'" font-size="2.2726">10.30 m2</text>
	</g>
	<g id="MTEXT_17_">
		<text transform="matrix(1 0 0 1 653.5879 114.5225)" fill="#0000FF" font-family="'ArialMT'" font-size="2.2726">9.78 m2 </text>
	</g>
	<g id="MTEXT_18_">
		<text transform="matrix(1 0 0 1 683.3711 113.209)" fill="#0000FF" font-family="'ArialMT'" font-size="2.2726">17.99 m2</text>
	</g>
	<g id="MTEXT_19_">
		<text transform="matrix(1 0 0 1 746.7197 146.4395)" fill="#0000FF" font-family="'ArialMT'" font-size="2.2726">14.34 m2</text>
	</g>
	<g id="MTEXT_20_">
		<text transform="matrix(1 0 0 1 681.5234 156.9023)" fill="#0000FF" font-family="'ArialMT'" font-size="2.2726"> 8.35 m2</text>
	</g>
	<g id="MTEXT_21_">
		<text transform="matrix(1 0 0 1 652.1953 159.251)" fill="#0000FF" font-family="'ArialMT'" font-size="2.2726">8.03 m2</text>
	</g>
	<g id="MTEXT_22_">
		<text transform="matrix(1 0 0 1 618.9717 159.8672)" fill="#0000FF" font-family="'ArialMT'" font-size="2.2726">8.85 m2</text>
	</g>
	<g id="MTEXT_23_">
		<text transform="matrix(1 0 0 1 590.7588 160.2646)" fill="#0000FF" font-family="'ArialMT'" font-size="2.2726">10.06 m2</text>
	</g>
	<g id="MTEXT_24_">
		<text transform="matrix(1 0 0 1 494.4551 166.9648)" fill="#0000FF" font-family="'ArialMT'" font-size="2.2726">18.35 m2</text>
	</g>
	<g id="MTEXT_25_">
		<text transform="matrix(1 0 0 1 502.1953 114.0732)" fill="#0000FF" font-family="'ArialMT'" font-size="2.2726">14.49 m2</text>
	</g>
	<g id="LWPOLYLINE_33_">
		
			<polygon fill="none" stroke="#0000FF" stroke-width="0" stroke-linecap="round" stroke-linejoin="round" stroke-miterlimit="10" points="
			595.243,197.664 596.778,243.136 590.091,243.711 590.233,246.89 546.707,249.652 546.491,246.254 538.76,246.821 
			538.992,249.999 496.684,252.677 496.58,249.503 488.381,249.771 488.408,194.533 497.152,193.754 497.152,190.55 
			542.072,187.033 542.426,190.42 548.809,189.755 548.699,186.628 551.037,186.45 551.089,201.377 		"/>
	</g>
	<g id="LWPOLYLINE_48_">
		
			<rect x="245.649" y="182.314" fill="none" stroke="#0000FF" stroke-width="0" stroke-linecap="round" stroke-linejoin="round" stroke-miterlimit="10" width="29.569" height="41.42"/>
	</g>
	<g id="LWPOLYLINE_49_">
		
			<rect x="302.521" y="242.794" fill="none" stroke="#0000FF" stroke-width="0" stroke-linecap="round" stroke-linejoin="round" stroke-miterlimit="10" width="28.023" height="38.115"/>
	</g>
	<g id="TEXT_52_">
		<text transform="matrix(1.5 0 0 1 200.0825 206.1943)" fill="#0000FF" font-family="'MyriadPro-Regular'" font-size="2.0026">LOCAL 419</text>
	</g>
	<g id="TEXT_53_">
		<text transform="matrix(1.5 0 0 1 200.7998 210.0791)" fill="#0000FF" font-family="'MyriadPro-Regular'" font-size="2.0026">12.66m2</text>
	</g>
</g>
<g id="AREAS_COMUNES">
	<g id="LWPOLYLINE_34_">
		
			<rect x="182.217" y="137.946" fill="none" stroke="#99CC00" stroke-width="0" stroke-linecap="round" stroke-linejoin="round" stroke-miterlimit="10" width="115.461" height="25.724"/>
	</g>
	<g id="LWPOLYLINE_35_">
		
			<polygon fill="none" stroke="#99CC00" stroke-width="0" stroke-linecap="round" stroke-linejoin="round" stroke-miterlimit="10" points="
			553.147,199.136 553.155,185.772 593.213,182.718 593.486,185.9 600.053,185.294 599.934,182.397 644.811,178.782 
			645.852,191.715 		"/>
	</g>
	<g id="LWPOLYLINE_36_">
		
			<polygon fill="none" stroke="#99CC00" stroke-width="0" stroke-linecap="round" stroke-linejoin="round" stroke-miterlimit="10" points="
			474.471,108.19 473.202,87.457 515.951,87.918 515.951,98.457 485.043,98.457 485.28,107.558 		"/>
	</g>
	<g id="LWPOLYLINE_37_">
		
			<polygon fill="none" stroke="#99CC00" stroke-width="0" stroke-linecap="round" stroke-linejoin="round" stroke-miterlimit="10" points="
			636.188,128.667 636.188,88.252 610.432,88.252 610.432,127.122 622.538,126.864 622.538,128.667 		"/>
	</g>
	<g id="LWPOLYLINE_38_">
		
			<polygon fill="none" stroke="#99CC00" stroke-width="0" stroke-linecap="round" stroke-linejoin="round" stroke-miterlimit="10" points="
			700.17,141.03 700.17,167.815 723.866,166.174 723.866,141.03 		"/>
	</g>
	<g id="TEXT_40_">
		<text transform="matrix(1.5 0 0 1 229.0459 153.0732)" fill="#99CC00" font-family="'MyriadPro-Regular'" font-size="4.0052">BAÑOS</text>
	</g>
	<g id="TEXT_41_">
		<text transform="matrix(1.5 0 0 1 484.4697 94.0459)" fill="#99CC00" font-family="'MyriadPro-Regular'" font-size="2.0026">ESCALERA</text>
	</g>
	<g id="TEXT_42_">
		<text transform="matrix(1.5 0 0 1 615.4531 107.5576)" fill="#99CC00" font-family="'MyriadPro-Regular'" font-size="2.0026">ESCALERA</text>
	</g>
	<g id="TEXT_43_">
		<text transform="matrix(1.5 0 0 1 565.9492 192.5342)" fill="#99CC00" font-family="'MyriadPro-Regular'" font-size="2.0026">ESCALERA</text>
	</g>
	<g id="TEXT_44_">
		<text transform="matrix(1.5 0 0 1 618.71 187.6416)" fill="#99CC00" font-family="'MyriadPro-Regular'" font-size="2.0026">ESCALERA</text>
	</g>
	<g id="TEXT_45_">
		<text transform="matrix(1.5 0 0 1 705.3867 154.9912)" fill="#99CC00" font-family="'MyriadPro-Regular'" font-size="2.0026">ESCALERA</text>
	</g>
	<g id="LWPOLYLINE_39_">
		
			<rect x="520.079" y="86.813" fill="none" stroke="#99CC00" stroke-width="0" stroke-linecap="round" stroke-linejoin="round" stroke-miterlimit="10" width="88.808" height="10.39"/>
	</g>
	<g id="LWPOLYLINE_40_">
		
			<polygon fill="none" stroke="#99CC00" stroke-width="0" stroke-linecap="round" stroke-linejoin="round" stroke-miterlimit="10" points="
			440.276,302.729 488.261,301.986 489.712,325.408 490.675,338.691 488.099,338.691 488.099,344.049 489.953,344.049 
			491.017,385.156 492.454,385.156 492.454,388.144 497.709,388.144 497.709,386.187 602.229,386.135 655.7,386.083 710.305,385.98 
			710.305,387.629 715.559,387.629 715.559,387.319 731.322,387.319 732.455,387.525 791.312,387.525 791.133,463.553 
			705.383,463.518 703.478,463.002 674.849,462.252 672.942,462.252 644.301,461.431 642.809,461.497 639.924,461.394 
			639.924,460.157 636.32,460.028 636.32,461.265 613.856,460.458 611.951,460.612 583.185,459.531 550.881,458.663 
			522.627,457.554 517.218,456.575 501.455,456.575 495.479,459.666 444.224,460.126 442.971,422.882 443.847,415.979 
			442.729,412.939 442.117,385.74 441.92,380.898 		"/>
	</g>
	<g id="LWPOLYLINE_41_">
		
			<polygon fill="none" stroke="#99CC00" stroke-width="0" stroke-linecap="round" stroke-linejoin="round" stroke-miterlimit="10" points="
			358.052,169.708 358.052,189.485 358.567,189.485 358.567,223.219 416.159,223.219 416.175,190.19 411.008,190.19 
			411.008,182.978 416.159,182.978 416.159,169.708 		"/>
	</g>
	<g id="LWPOLYLINE_42_">
		
			<polygon fill="none" stroke="#99CC00" stroke-width="0" stroke-linecap="round" stroke-linejoin="round" stroke-miterlimit="10" points="
			298.708,156.561 298.708,143.612 302.83,143.612 302.83,137.946 354.343,137.946 354.343,143.612 358.464,143.612 
			358.464,156.561 		"/>
	</g>
	<g id="LWPOLYLINE_43_">
		
			<polygon fill="none" stroke="#99CC00" stroke-width="0" stroke-linecap="round" stroke-linejoin="round" stroke-miterlimit="10" points="
			415.129,156.561 415.129,143.612 411.008,143.612 411.008,137.946 359.494,137.946 359.494,143.612 359.494,156.561 		"/>
	</g>
	<g id="LWPOLYLINE_44_">
		
			<polygon fill="none" stroke="#99CC00" stroke-width="0" stroke-linecap="round" stroke-linejoin="round" stroke-miterlimit="10" points="
			358.567,223.219 416.159,223.219 416.159,274.214 411.008,274.214 411.008,280.396 359.494,280.396 359.494,274.214 
			358.567,274.214 		"/>
	</g>
	<g id="TEXT_46_">
		<text transform="matrix(1.5 0 0 1 380.4761 200.7178)" fill="#99CC00" font-family="'MyriadPro-Regular'" font-size="4.0052">OFICINA</text>
	</g>
	<g id="TEXT_47_">
		<text transform="matrix(1.5 0 0 1 376.8989 253.7227)" fill="#99CC00" font-family="'MyriadPro-Regular'" font-size="4.0052">OFICINA</text>
	</g>
	<g id="LWPOLYLINE_45_">
		
			<polygon fill="none" stroke="#99CC00" stroke-width="0" stroke-linecap="round" stroke-linejoin="round" stroke-miterlimit="10" points="
			416.159,169.201 416.159,158.14 474.723,129.423 474.981,140.258 		"/>
	</g>
	<g id="TEXT_48_">
		<text transform="matrix(1.5 0 0 1 437.6875 150.2139)" fill="#99CC00" font-family="'MyriadPro-Regular'" font-size="2.0026">ESCALERA</text>
	</g>
	<g id="TEXT_49_">
		<text transform="matrix(1.5 0 0 1 523.4199 167.2344)" fill="#99CC00" font-family="'ArialMT'" font-size="2.3015">ELEVADOR</text>
	</g>
	<g id="LWPOLYLINE_46_">
		
			<polygon fill="none" stroke="#99CC00" stroke-width="0" stroke-linecap="round" stroke-linejoin="round" stroke-miterlimit="10" points="
			520.273,157.849 520.273,179.291 544.485,177.424 544.485,157.849 		"/>
	</g>
	<g id="LWPOLYLINE_47_">
		
			<rect x="124.954" y="138.151" fill="none" stroke="#99CC00" stroke-width="0" stroke-linecap="round" stroke-linejoin="round" stroke-miterlimit="10" width="56.82" height="27.077"/>
	</g>
	<g id="TEXT_51_">
		<text transform="matrix(1.5 0 0 1 140.8325 152.085)" fill="#99CC00" font-family="'MyriadPro-Regular'" font-size="2.0026">ESCALERA</text>
	</g>
</g>
<g id="_x30_">
</g>
</svg>
