<?xml version="1.0" encoding="utf-8"?>
<!-- Generator: Adobe Illustrator 16.0.0, SVG Export Plug-In . SVG Version: 6.00 Build 0)  -->
<!DOCTYPE svg PUBLIC "-//W3C//DTD SVG 1.1//EN" "http://www.w3.org/Graphics/SVG/1.1/DTD/svg11.dtd">
<svg version="1.1" xmlns="http://www.w3.org/2000/svg" xmlns:xlink="http://www.w3.org/1999/xlink" x="0px" y="0px" width="800px"
	 height="600px" viewBox="0 0 800 600" enable-background="new 0 0 800 600" xml:space="preserve">
<g id="AREAS_COMUNES">
	<g id="LWPOLYLINE">
		
			<polygon fill="none" stroke="#99CC00" stroke-width="0" stroke-linecap="round" stroke-linejoin="round" stroke-miterlimit="10" points="
			4.333,84.242 7.603,189.807 67.063,189.807 67.063,229.009 8.817,229.009 13.022,364.774 32.202,363.312 32.202,344.403 
			121.69,337.577 121.676,271.377 195.87,271.377 195.87,331.92 364.718,319.041 364.718,254.21 447.322,254.21 447.322,313.061 
			791.6,286.48 791.6,283.672 795.8,283.352 795.8,84.242 690.095,84.242 690.124,111.403 699.335,111.403 699.335,194.848 
			107.666,194.848 107.666,111.403 125.866,111.403 125.866,84.242 		"/>
	</g>
	<g id="LWPOLYLINE_2_">
		
			<rect x="125.866" y="80.042" fill="none" stroke="#99CC00" stroke-width="0" stroke-linecap="round" stroke-linejoin="round" stroke-miterlimit="10" width="238.852" height="31.412"/>
	</g>
	<g id="LWPOLYLINE_3_">
		
			<rect x="447.322" y="80.042" fill="none" stroke="#99CC00" stroke-width="0" stroke-linecap="round" stroke-linejoin="round" stroke-miterlimit="10" width="242.772" height="31.361"/>
	</g>
	<g id="LWPOLYLINE_4_">
		
			<rect x="111.866" y="111.454" fill="none" stroke="#99CC00" stroke-width="0" stroke-linecap="round" stroke-linejoin="round" stroke-miterlimit="10" width="133.006" height="83.099"/>
	</g>
	<g id="LWPOLYLINE_5_">
		
			<rect x="244.872" y="111.454" fill="none" stroke="#99CC00" stroke-width="0" stroke-linecap="round" stroke-linejoin="round" stroke-miterlimit="10" width="119.846" height="83.249"/>
	</g>
	<g id="LWPOLYLINE_6_">
		
			<rect x="447.322" y="111.454" fill="none" stroke="#99CC00" stroke-width="0" stroke-linecap="round" stroke-linejoin="round" stroke-miterlimit="10" width="114.806" height="83.394"/>
	</g>
	<g id="LWPOLYLINE_7_">
		
			<rect x="562.128" y="111.454" fill="none" stroke="#99CC00" stroke-width="0" stroke-linecap="round" stroke-linejoin="round" stroke-miterlimit="10" width="137.207" height="83.394"/>
	</g>
	<g id="LWPOLYLINE_8_">
		
			<polygon fill="none" stroke="#99CC00" stroke-width="0" stroke-linecap="round" stroke-linejoin="round" stroke-miterlimit="10" points="
			609.03,300.406 609.03,268.511 692.194,268.511 692.194,294.063 		"/>
	</g>
	<g id="TEXT">
		<text transform="matrix(1.5 0 0 1 166.1123 153.999)" fill="#99CC00" font-family="'MyriadPro-Regular'" font-size="5.4428">BAÑOS</text>
	</g>
	<g id="TEXT_1_">
		<text transform="matrix(1.5 0 0 1 292.1855 149.9365)" fill="#99CC00" font-family="'MyriadPro-Regular'" font-size="5.4428">BAÑOS</text>
	</g>
	<g id="TEXT_2_">
		<text transform="matrix(1.5 0 0 1 132.9038 302.416)" fill="#99CC00" font-family="'ArialMT'" font-size="6.2551">ELEVADOR</text>
	</g>
	<g id="LWPOLYLINE_9_">
		
			<polygon fill="none" stroke="#99CC00" stroke-width="0" stroke-linecap="round" stroke-linejoin="round" stroke-miterlimit="10" points="
			124.238,336.749 194.743,332.264 194.743,272.15 124.238,272.15 		"/>
	</g>
	<g id="TEXT_3_">
		<text transform="matrix(1.5 0 0 1 383.9736 139.7021)" fill="#99CC00" font-family="'MyriadPro-Regular'" font-size="5.4428">ESCALERA</text>
	</g>
	<g id="TEXT_4_">
		<text transform="matrix(1.5 0 0 1 38.4619 147.5928)" fill="#99CC00" font-family="'ArialMT'" font-size="6.2551">AREA DE</text>
	</g>
	<g id="TEXT_5_">
		<text transform="matrix(1.5 0 0 1 27.8843 156.0459)" fill="#99CC00" font-family="'ArialMT'" font-size="6.2551">TENDEDEROS</text>
	</g>
	<g id="TEXT_6_">
		<text transform="matrix(1.5 0 0 1 256.0571 276.4609)" fill="#99CC00" font-family="'ArialMT'" font-size="6.2551">AREA DE</text>
	</g>
	<g id="TEXT_7_">
		<text transform="matrix(1.5 0 0 1 245.4795 284.9141)" fill="#99CC00" font-family="'ArialMT'" font-size="6.2551">TENDEDEROS</text>
	</g>
	<g id="TEXT_8_">
		<text transform="matrix(1.5 0 0 1 510.2383 231.2568)" fill="#99CC00" font-family="'ArialMT'" font-size="6.2551">AREA DE</text>
	</g>
	<g id="TEXT_9_">
		<text transform="matrix(1.5 0 0 1 499.6611 239.71)" fill="#99CC00" font-family="'ArialMT'" font-size="6.2551">TENDEDEROS</text>
	</g>
	<g id="TEXT_10_">
		<text transform="matrix(1.5 0 0 1 728.7969 147.5928)" fill="#99CC00" font-family="'ArialMT'" font-size="6.2551">AREA DE</text>
	</g>
	<g id="TEXT_11_">
		<text transform="matrix(1.5 0 0 1 718.2188 156.0459)" fill="#99CC00" font-family="'ArialMT'" font-size="6.2551">TENDEDEROS</text>
	</g>
	<g id="TEXT_13_">
		<text transform="matrix(1.5 0 0 1 220.7368 96.7031)" fill="#99CC00" font-family="'MyriadPro-Regular'" font-size="5.4428">PATIO DE LUZ</text>
	</g>
	<g id="TEXT_14_">
		<text transform="matrix(1.5 0 0 1 564.6406 96.7031)" fill="#99CC00" font-family="'MyriadPro-Regular'" font-size="5.4428">PATIO DE LUZ</text>
	</g>
	<g id="TEXT_15_">
		<text transform="matrix(1.5 0 0 1 594.0137 151.1748)" fill="#99CC00" font-family="'MyriadPro-Regular'" font-size="5.4428">CUARTO DE HOTEL</text>
	</g>
	<g id="TEXT_16_">
		<text transform="matrix(1.5 0 0 1 464.6748 151.1748)" fill="#99CC00" font-family="'MyriadPro-Regular'" font-size="5.4428">CUARTO DE HOTEL</text>
	</g>
	<g id="TEXT_17_">
		<text transform="matrix(1.5 0 0 1 375.041 288.8623)" fill="#99CC00" font-family="'MyriadPro-Regular'" font-size="5.4428">PATIO DE LUZ</text>
	</g>
</g>
<g id="_x30_">
</g>
</svg>
