<?xml version="1.0" encoding="utf-8"?>
<!-- Generator: Adobe Illustrator 16.0.0, SVG Export Plug-In . SVG Version: 6.00 Build 0)  -->
<!DOCTYPE svg PUBLIC "-//W3C//DTD SVG 1.1//EN" "http://www.w3.org/Graphics/SVG/1.1/DTD/svg11.dtd">
<svg version="1.1" id="Layer_1" xmlns="http://www.w3.org/2000/svg" xmlns:xlink="http://www.w3.org/1999/xlink" x="0px" y="0px"
	 width="3520.012px" height="1863.407px" viewBox="0 0 3520.012 1863.407" style="enable-background:new 0 0 3520.012 1863.407;"
	 xml:space="preserve">
<style type="text/css">
<![CDATA[
	.st0{fill:none;stroke:#000000;stroke-width:0;stroke-linecap:round;stroke-linejoin:round;stroke-miterlimit:10;}
	.st1{fill:none;stroke:#3A509E;stroke-width:0;stroke-linecap:round;stroke-miterlimit:10;}
	.st2{fill:none;stroke:#3A509E;stroke-width:0.24;stroke-linecap:round;stroke-linejoin:round;stroke-miterlimit:10;}
	.st3{fill:#010202;}
	.st4{fill:#3A509E;}
]]>
</style>
<g>
	<path class="st3" d="M395.35,775.429l19.191,7.368v2.737l-19.191,7.855v-2.894l5.812-2.237v-8.026l-5.812-2.108V775.429z
		 M403.23,780.967v6.505l5.313-2.002c1.617-0.613,2.942-1.067,3.979-1.361c-1.23-0.246-2.45-0.589-3.664-1.036L403.23,780.967z"/>
	<path class="st3" d="M395.35,795.459h19.191v8.508c0,1.71-0.175,3.009-0.52,3.9c-0.344,0.891-0.952,1.602-1.824,2.134
		c-0.873,0.534-1.836,0.798-2.895,0.798c-1.357,0-2.508-0.439-3.441-1.322c-0.936-0.88-1.526-2.243-1.78-4.084
		c-0.323,0.673-0.644,1.182-0.956,1.532c-0.681,0.742-1.531,1.445-2.551,2.108l-5.225,3.337v-3.193l3.992-2.54
		c1.151-0.742,2.035-1.352,2.645-1.833c0.61-0.48,1.037-0.908,1.281-1.29c0.245-0.378,0.414-0.766,0.514-1.158
		c0.059-0.29,0.09-0.76,0.09-1.415v-2.945h-8.521V795.459z M406.07,797.997v5.459c0,1.161,0.121,2.071,0.36,2.725
		c0.238,0.654,0.626,1.152,1.153,1.492s1.103,0.51,1.719,0.51c0.909,0,1.656-0.329,2.24-0.988c0.584-0.66,0.877-1.699,0.877-3.124
		v-6.074H406.07z"/>
	<path class="st3" d="M401.107,813.563h2.372v7.237h-2.372V813.563z"/>
	<path class="st3" d="M404.812,822.751c2.271,0,4.097,0.235,5.479,0.701c1.384,0.469,2.45,1.162,3.202,2.082
		c0.749,0.919,1.125,2.078,1.125,3.476c0,1.03-0.209,1.934-0.623,2.708c-0.414,0.778-1.012,1.418-1.792,1.926
		c-0.782,0.505-1.731,0.902-2.854,1.188c-1.119,0.29-2.635,0.433-4.537,0.433c-2.249,0-4.066-0.232-5.453-0.692
		c-1.383-0.463-2.449-1.157-3.203-2.076c-0.758-0.922-1.135-2.084-1.135-3.489c0-1.852,0.662-3.303,1.99-4.358
		C398.609,823.384,401.209,822.751,404.812,822.751z M404.812,825.173c-3.147,0-5.246,0.369-6.288,1.108
		c-1.042,0.735-1.565,1.644-1.565,2.728c0,1.082,0.525,1.991,1.572,2.729c1.047,0.736,3.143,1.107,6.281,1.107
		c3.16,0,5.261-0.371,6.299-1.107c1.035-0.739,1.557-1.656,1.557-2.757c0-1.082-0.458-1.943-1.375-2.591
		C410.124,825.582,407.965,825.173,404.812,825.173z"/>
	<path class="st3" d="M397.615,850.046h-2.266v-12.685c0.566-0.018,1.111,0.076,1.637,0.275c0.863,0.323,1.715,0.839,2.553,1.554
		c0.838,0.709,1.806,1.737,2.905,3.08c1.71,2.085,3.066,3.497,4.065,4.227c0.998,0.734,1.943,1.102,2.834,1.102
		c0.934,0,1.721-0.334,2.361-1.001c0.645-0.67,0.963-1.54,0.963-2.613c0-1.135-0.34-2.042-1.02-2.722
		c-0.683-0.681-1.624-1.027-2.83-1.035l0.251-2.421c1.806,0.164,3.181,0.789,4.128,1.871c0.947,1.084,1.422,2.535,1.422,4.357
		c0,1.844-0.51,3.301-1.531,4.376c-1.021,1.072-2.287,1.607-3.797,1.607c-0.768,0-1.523-0.157-2.264-0.472
		c-0.744-0.312-1.525-0.833-2.346-1.561c-0.818-0.732-1.947-1.942-3.375-3.632c-1.188-1.417-1.993-2.323-2.418-2.725
		c-0.421-0.401-0.846-0.733-1.273-0.996V850.046z"/>
</g>
</svg>
