<?xml version="1.0" encoding="utf-8"?>
<!-- Generator: Adobe Illustrator 16.0.0, SVG Export Plug-In . SVG Version: 6.00 Build 0)  -->
<!DOCTYPE svg PUBLIC "-//W3C//DTD SVG 1.1//EN" "http://www.w3.org/Graphics/SVG/1.1/DTD/svg11.dtd">
<svg version="1.1" id="Capa_1" xmlns="http://www.w3.org/2000/svg" xmlns:xlink="http://www.w3.org/1999/xlink" x="0px" y="0px"
	 width="612px" height="615.761px" viewBox="0 85.5 612 615.761" enable-background="new 0 85.5 612 615.761" xml:space="preserve">
<g id="Add">
	<path fill="#007AFF" d="M574.115,364.249L324.5,363.801l0.115-239.052c0-21.125-7.124-38.249-28.249-38.249
		c-21.125,0-28.249,17.125-28.249,38.249v239.498H38.62c-21.125,0-38.253,7.124-38.253,28.249s17.128,28.249,38.253,28.249h229.498
		v239.497c0,21.125,9.124,38.249,30.249,38.249s26.249-17.124,26.249-38.249V420.745h249.5c21.125,0,38.249-7.127,38.249-28.249
		C612.366,371.373,595.24,364.249,574.115,364.249z"/>
</g>
</svg>
