<?xml version="1.0" encoding="utf-8"?>
<!-- Generator: Adobe Illustrator 16.0.0, SVG Export Plug-In . SVG Version: 6.00 Build 0)  -->
<!DOCTYPE svg PUBLIC "-//W3C//DTD SVG 1.1//EN" "http://www.w3.org/Graphics/SVG/1.1/DTD/svg11.dtd">
<svg version="1.1" id="Capa_1" xmlns="http://www.w3.org/2000/svg" xmlns:xlink="http://www.w3.org/1999/xlink" x="0px" y="0px"
	 width="554px" height="627px" viewBox="27.5 80.5 554 627" enable-background="new 27.5 80.5 554 627" xml:space="preserve">
<g>
	<path fill="#FFFFFF" d="M234.872,381.504c80.35,0,145.719-65.382,145.719-145.749C380.591,155.386,315.222,90,234.872,90
		C154.51,90,89.13,155.386,89.13,235.753C89.13,316.122,154.51,381.504,234.872,381.504z"/>
	<path fill="#FFFFFF" d="M471.85,515.769h-12.479c-0.261,0-0.556-0.113-0.749-0.237v-12.99c0-9.271-6.933-16.535-15.786-16.535
		h-2.116c-9.119,0-16.821,7.571-16.821,16.535l-0.005,13.228h-13.223c-8.964,0-16.535,7.702-16.535,16.821v2.116
		c0,8.854,7.264,15.786,16.535,15.786h12.99c0.122,0.193,0.237,0.488,0.237,0.749v12.479c0,8.964,7.702,16.535,16.821,16.535h2.116
		c8.852,0,15.786-7.264,15.786-16.535v-12.328c0.129-0.308,0.591-0.771,0.899-0.899h12.329c9.271,0,16.534-6.933,16.534-15.786
		v-2.116C488.385,523.471,480.813,515.769,471.85,515.769z"/>
	<path fill="#FFFFFF" d="M441.831,397.419c-25.354,0-49.096,7.014-69.414,19.181c-0.315-0.011-0.631-0.038-0.947-0.038H98.249
		c-17.71,0-34.277,13.651-37.718,31.08L35.35,575.307c-3.257,16.498,4.724,37.337,18.172,47.441
		c4.306,3.236,106.344,79.254,181.336,79.254c45.726,0,102.138-28.753,139.607-51.493c19.862,11.427,42.854,18,67.365,18
		c74.739,0,135.545-60.804,135.545-135.545S516.572,397.419,441.831,397.419z M441.831,618.902c-47.388,0-85.94-38.552-85.94-85.94
		c0-47.388,38.551-85.94,85.94-85.94c47.389,0,85.94,38.553,85.94,85.94C527.771,580.351,489.22,618.902,441.831,618.902z"/>
</g>
</svg>
