<?xml version="1.0" encoding="utf-8"?>
<!-- Generator: Adobe Illustrator 16.0.0, SVG Export Plug-In . SVG Version: 6.00 Build 0)  -->
<!DOCTYPE svg PUBLIC "-//W3C//DTD SVG 1.1//EN" "http://www.w3.org/Graphics/SVG/1.1/DTD/svg11.dtd">
<svg version="1.1" id="Capa_1" xmlns="http://www.w3.org/2000/svg" xmlns:xlink="http://www.w3.org/1999/xlink" x="0px" y="0px"
	 width="100px" height="100px" viewBox="12.534 0.022 100 100" enable-background="new 12.534 0.022 100 100" xml:space="preserve">
<circle fill="#3395FF" cx="62.534" cy="50.022" r="50"/>
<path fill="#FCFCFC" d="M66.374,40.016c5.446,1.988,9.737,3.881,12.829,5.65c3.109,1.77,5.571,4.229,7.435,7.338
	c1.847,3.125,2.777,6.771,2.777,10.949c0,6.41-1.91,11.744-5.727,16.02c-3.823,4.277-9.326,6.803-16.54,7.559v10.967h-9.185v-10.92
	c-12.006-1.234-19.439-8.223-22.312-20.943l14.198-3.705c1.312,8,5.669,12.008,13.066,12.008c3.457,0,6.014-0.852,7.639-2.574
	c1.627-1.717,2.447-3.771,2.447-6.199c0-2.512-0.82-4.42-2.447-5.697c-1.625-1.293-5.254-2.932-10.871-4.922
	c-5.049-1.75-8.995-3.475-11.838-5.207c-2.838-1.705-5.143-4.088-6.908-7.166c-1.785-3.091-2.669-6.69-2.669-10.778
	c0-5.367,1.595-10.208,4.75-14.503c3.173-4.29,8.142-6.909,14.944-7.871V1.546h9.184v8.474c10.258,1.232,16.917,7.038,19.949,17.42
	l-12.676,5.189c-2.459-7.115-6.265-10.681-11.438-10.681c-2.589,0-4.671,0.788-6.233,2.383c-1.578,1.593-2.365,3.519-2.365,5.792
	c0,2.305,0.756,4.071,2.271,5.317"/>
</svg>
