<?xml version="1.0" encoding="utf-8"?>
<!-- Generator: Adobe Illustrator 16.0.0, SVG Export Plug-In . SVG Version: 6.00 Build 0)  -->
<!DOCTYPE svg PUBLIC "-//W3C//DTD SVG 1.1//EN" "http://www.w3.org/Graphics/SVG/1.1/DTD/svg11.dtd">
<svg version="1.1" id="Capa_1" xmlns="http://www.w3.org/2000/svg" xmlns:xlink="http://www.w3.org/1999/xlink" x="0px" y="0px"
	 width="32.215px" height="33.317px" viewBox="0 0 32.215 33.317" enable-background="new 0 0 32.215 33.317" xml:space="preserve">
<path fill="#007AFF" d="M1.208,26.173c0-1.669,0-23.307,0-24.976c1.651,0,21.371-0.034,23.024-0.034c0,0.59,0,4.469,0,7.941
	c0.405-0.074,0.632-0.247,0.142-0.125c-0.21,0.054,0.422,0.046,0.637,0.065V0.336H0.331V26.96h15.523v-0.779
	C10.205,26.181,2.22,26.173,1.208,26.173z"/>
<path fill="#007AFF" d="M4.885,13.765h12.751c0.123-0.59,0.369-1.139,0.695-1.651H4.885V13.765z"/>
<rect x="4.885" y="8.283" fill="#007AFF" width="15.576" height="1.648"/>
<path fill="#007AFF" d="M4.885,21.444h13.218c0.342,0,0.229,0.031,0.572,0c-0.383-0.369-0.828-1.021-0.891-1.633H4.885V21.444z"/>
<path fill="#007AFF" d="M25.443,20.976c2.838,0,5.122-2.293,5.122-5.122c0-2.831-2.284-5.126-5.122-5.126
	c-2.825,0-5.113,2.295-5.113,5.126C20.33,18.683,22.618,20.976,25.443,20.976z"/>
<path fill="#007AFF" d="M29.557,21.81h-8.218c-1.464,0-2.664,1.344-2.664,2.997v8.249c0,0.091,0.04,0.17,0.048,0.262h13.449
	c0.003-0.088,0.043-0.171,0.043-0.262v-8.249C32.219,23.161,31.022,21.81,29.557,21.81z"/>
<rect x="4.885" y="15.961" fill="#007AFF" width="12.541" height="1.65"/>
</svg>
