<?xml version="1.0" encoding="utf-8"?>
<!-- Generator: Adobe Illustrator 16.0.0, SVG Export Plug-In . SVG Version: 6.00 Build 0)  -->
<!DOCTYPE svg PUBLIC "-//W3C//DTD SVG 1.1//EN" "http://www.w3.org/Graphics/SVG/1.1/DTD/svg11.dtd">
<svg version="1.1" id="Capa_1" xmlns="http://www.w3.org/2000/svg" xmlns:xlink="http://www.w3.org/1999/xlink" x="0px" y="0px"
	 width="30px" height="30px" viewBox="0 0 30 30" enable-background="new 0 0 30 30" xml:space="preserve">
<path fill="#007AFF" d="M0.812,23.5c0-1.517,0-21.2,0-22.719c1.502,0,19.439-0.03,20.941-0.03c0,0.537,0,4.063,0,7.224
	c0.367-0.068,0.574-0.225,0.131-0.114c-0.193,0.048,0.385,0.041,0.58,0.059V0H0.014v24.213h14.12v-0.707
	C8.995,23.506,1.731,23.5,0.812,23.5z"/>
<path fill="#007AFF" d="M4.157,12.212h11.596c0.113-0.536,0.339-1.034,0.635-1.5H4.157V12.212z"/>
<rect x="4.157" y="7.227" fill="#007AFF" width="14.166" height="1.5"/>
<path fill="#007AFF" d="M4.157,19.198h12.021c0.312,0,0.209,0.03,0.521,0c-0.348-0.337-0.752-0.93-0.809-1.486H4.157V19.198z"/>
<path fill="#007AFF" d="M22.855,18.772c2.582,0,4.661-2.087,4.661-4.66c0-2.576-2.079-4.662-4.661-4.662
	c-2.57,0-4.652,2.085-4.652,4.662C18.203,16.686,20.285,18.772,22.855,18.772z"/>
<path fill="#007AFF" d="M26.596,19.529h-7.471c-1.334,0-2.426,1.223-2.426,2.729v7.501c0,0.083,0.037,0.155,0.043,0.241h12.23
	c0.006-0.084,0.043-0.158,0.043-0.241v-7.501C29.021,20.756,27.932,19.529,26.596,19.529z"/>
<rect x="4.157" y="14.212" fill="#007AFF" width="11.406" height="1.5"/>
</svg>
