<?xml version="1.0" encoding="utf-8"?>
<!-- Generator: Adobe Illustrator 16.0.0, SVG Export Plug-In . SVG Version: 6.00 Build 0)  -->
<!DOCTYPE svg PUBLIC "-//W3C//DTD SVG 1.1//EN" "http://www.w3.org/Graphics/SVG/1.1/DTD/svg11.dtd">
<svg version="1.1" id="Capa_1" xmlns="http://www.w3.org/2000/svg" xmlns:xlink="http://www.w3.org/1999/xlink" x="0px" y="0px"
	 width="349.755px" height="373.891px" viewBox="294.6 428.6 349.755 373.891" enable-background="new 294.6 428.6 349.755 373.891"
	 xml:space="preserve">
<g>
	<path fill="#3395FF" d="M449.976,698.908c0-19.287,6.053-37.209,16.359-51.928H362.597c-5.388,0-9.761-4.373-9.761-9.761
		c0-5.389,4.373-9.761,9.761-9.761h122.246c15.424-12.104,34.865-19.327,55.95-19.327c7.302,0,14.406,0.859,21.239,2.499V456.057
		c0-11.401-9.254-20.654-20.654-20.654H430.611h-36.819v6.833c0.079,0.703,0.117,1.445,0.117,2.187v56.575
		c0,16.047-13.039,29.087-29.086,29.087h-56.575c-0.586,0-1.21-0.039-1.797-0.077h-7.222v216.302c0,11.4,9.252,20.653,20.654,20.653
		h110.727h50.134C461.923,750.29,449.976,725.964,449.976,698.908z M362.597,574.516H507.02c5.386,0,9.759,4.372,9.759,9.76
		c0,5.389-4.373,9.762-9.759,9.762H362.597c-5.388,0-9.761-4.373-9.761-9.762C352.836,578.888,357.208,574.516,362.597,574.516z
		 M434.788,696.761h-72.231c-5.388,0-9.761-4.373-9.761-9.762s4.373-9.762,9.761-9.762h72.231c5.388,0,9.76,4.373,9.76,9.762
		S440.176,696.761,434.788,696.761z"/>
	<path fill="#3395FF" d="M308.248,518.371h56.575c9.605,0,17.375-7.77,17.375-17.374v-56.575c0-5.232-4.295-8.707-8.746-8.707
		c-2.148,0-4.295,0.781-6.091,2.577l-65.282,65.242C296.612,509,300.479,518.371,308.248,518.371z"/>
	<path fill="#3395FF" d="M614.467,751.891l-4.217-4.219l-4.216-4.216c8.706-12.688,13.781-28.033,13.781-44.588
		c0-31.858-18.936-59.346-46.109-71.879c-1.913-0.898-3.865-1.68-5.857-2.42c-1.912-0.704-3.865-1.328-5.857-1.875
		c-6.753-1.874-13.86-2.89-21.239-2.89c-12.103,0-23.582,2.733-33.812,7.614c-9.876,4.686-18.623,11.362-25.729,19.521
		c-12.142,13.901-19.481,32.055-19.481,51.928c0,28.933,15.616,54.27,38.849,68.054c3.825,2.266,7.887,4.256,12.143,5.856
		c8.745,3.319,18.196,5.152,28.112,5.152c3.239,0,6.402-0.194,9.525-0.585c12.885-1.562,24.793-6.208,35.022-13.235l4.177,4.256
		l4.179,4.179l25.651,25.651c2.85,2.85,6.597,4.294,10.348,4.294c3.747,0,7.495-1.444,10.345-4.294c5.7-5.702,5.7-14.993,0-20.693
		L614.467,751.891z M540.792,649.127c7.573,0,14.797,1.718,21.239,4.763c2.03,0.977,3.982,2.069,5.857,3.28
		c2.069,1.328,4.021,2.85,5.854,4.451c10.31,9.136,16.829,22.449,16.829,37.286s-6.52,28.15-16.829,37.287
		c-1.833,1.639-3.785,3.123-5.854,4.45c-1.875,1.21-3.827,2.304-5.857,3.279c-6.442,3.046-13.626,4.764-21.239,4.764
		c-27.447,0-49.782-22.332-49.782-49.78C491.01,671.46,513.305,649.127,540.792,649.127z"/>
</g>
</svg>
