<?xml version="1.0" encoding="utf-8"?>
<!-- Generator: Adobe Illustrator 16.0.0, SVG Export Plug-In . SVG Version: 6.00 Build 0)  -->
<!DOCTYPE svg PUBLIC "-//W3C//DTD SVG 1.1//EN" "http://www.w3.org/Graphics/SVG/1.1/DTD/svg11.dtd">
<svg version="1.1" id="Capa_1" xmlns="http://www.w3.org/2000/svg" xmlns:xlink="http://www.w3.org/1999/xlink" x="0px" y="0px"
	 width="100px" height="100px" viewBox="0 0 100 100" enable-background="new 0 0 100 100" xml:space="preserve">
<g>
	<path fill="#3395FF" d="M49.998,7.138c-24.503,0-44.367,17.537-44.367,39.173c0,21.636,19.864,39.176,44.367,39.176
		c24.505,0,44.371-17.54,44.371-39.176C94.369,24.674,74.503,7.138,49.998,7.138z"/>
	<path fill="#3395FF" d="M60.28,59.546l-1.254-6.757c0,0-1.673-5.626-7.453-3.462c-14.917,5.597-23.555,2.314-26.965,1.936
		c-3.494-0.391-5.52,15.951-5.375,19.632c0.52,12.968-13.779,17.758-12.899,20.923c11.255,4.653,35.426-7.743,35.426-7.743
		s5.541-14.156,13.035-17.35C61.326,63.951,60.28,59.546,60.28,59.546z"/>
</g>
</svg>
