<?xml version="1.0" encoding="utf-8"?>
<!-- Generator: Adobe Illustrator 16.0.0, SVG Export Plug-In . SVG Version: 6.00 Build 0)  -->
<!DOCTYPE svg PUBLIC "-//W3C//DTD SVG 1.1//EN" "http://www.w3.org/Graphics/SVG/1.1/DTD/svg11.dtd">
<svg version="1.1" id="Capa_1" xmlns="http://www.w3.org/2000/svg" xmlns:xlink="http://www.w3.org/1999/xlink" x="0px" y="0px"
	 width="100px" height="100px" viewBox="256 351.781 100 100" enable-background="new 256 351.781 100 100" xml:space="preserve">
<circle fill="#3395FF" cx="306" cy="401.781" r="50"/>
<g>
	<path fill="#FFFFFF" d="M344.473,377.675c0,12.986-5.661,22.422-5.9,22.814c-0.479,0.783-1.309,1.213-2.165,1.213
		c-0.45,0-0.903-0.118-1.312-0.367c-1.198-0.728-1.582-2.284-0.856-3.481c0.053-0.086,5.162-8.674,5.162-20.179
		c0-6.561-4.267-11.323-10.146-11.323c-5.596,0-10.146,4.55-10.146,10.149c0,2.384,1.153,8.442,1.597,10.575
		c0.288,1.372-0.596,2.715-1.968,3.002c-1.372,0.282-2.715-0.595-2.999-1.964c-0.175-0.836-1.71-8.273-1.71-11.613
		c0-8.393,6.829-15.221,15.226-15.221C337.929,361.28,344.473,368.327,344.473,377.675z M329.684,381.666
		c1.01,8.429,2.471,24.854,0.79,26.527l-36.857,36.862c-2.265,2.268-5.945,2.268-8.214-0.004l-24.646-24.643
		c-2.269-2.266-2.269-5.945,0-8.214l36.862-36.859c0.584-0.584,6.96-0.611,14.13-0.238c-0.04,0.473-0.143,0.919-0.143,1.402
		c0,1.838,0.408,4.689,0.834,7.196c-0.752,1.114-1.191,2.454-1.191,3.898c0,3.85,3.122,6.971,6.972,6.971
		c3.848,0,6.97-3.121,6.97-6.971c0-2.371-1.186-4.46-2.996-5.717c-0.369-2.206-0.668-4.335-0.668-5.377
		c0-0.225,0.047-0.434,0.067-0.654c0.883,0.092,1.752,0.188,2.576,0.291C329.04,376.736,329.09,376.726,329.684,381.666z
		 M310.038,409.251c-0.572-1.589-1.524-3.498-3.592-5.694l2.799-2.8l-3.116-3.112l-3.019,3.022
		c-4.041-2.767-8.208-2.542-11.035,0.284c-3.082,3.083-2.354,6.994-0.093,11.541c1.554,3.147,1.839,4.961,0.631,6.167
		c-1.24,1.24-3.24,0.702-5.056-1.11c-2.063-2.062-3.274-4.613-3.876-6.68l-4.675,2.771c0.542,1.871,2.003,4.539,4.067,6.735
		l-3.049,3.053l3.111,3.114l3.277-3.273c4.323,3.049,8.681,2.64,11.508-0.188c2.893-2.9,3.148-6.142,0.668-11.289
		c-1.72-3.69-2.133-5.503-1.115-6.518c0.893-0.895,2.48-1.148,4.547,0.919c2.292,2.291,3.052,4.518,3.466,5.693L310.038,409.251z"/>
</g>
</svg>
