<?xml version="1.0" encoding="utf-8"?>
<!-- Generator: Adobe Illustrator 16.0.0, SVG Export Plug-In . SVG Version: 6.00 Build 0)  -->
<!DOCTYPE svg PUBLIC "-//W3C//DTD SVG 1.1//EN" "http://www.w3.org/Graphics/SVG/1.1/DTD/svg11.dtd">
<svg version="1.1" id="Capa_1" xmlns="http://www.w3.org/2000/svg" xmlns:xlink="http://www.w3.org/1999/xlink" x="0px" y="0px"
	 width="411.066px" height="486px" viewBox="17.5 220.5 411.066 486" enable-background="new 17.5 220.5 411.066 486"
	 xml:space="preserve">
<g>
	<g>
		<path fill="#007AFF" d="M223.142,435.279c58.386,0,105.72-46.841,105.72-104.635c0-57.781-47.334-104.631-105.72-104.631
			c-58.391,0-105.722,46.85-105.722,104.631C117.42,388.438,164.751,435.279,223.142,435.279z"/>
	</g>
	<path fill="#007AFF" d="M425.882,691.901l-70.491-186.316c-1.791-4.729-16.955-35.942-45.11-35.942
		c-8.905,0-163.36,0.233-168.415,0.233c0,0-0.824,0-5.836,0c-31.516,0-43.313,30.98-45.102,35.709L20.434,691.901
		c-1.792,4.727-0.752,10.599,9.168,10.599c0,0,38.049,0,52.02,0c9.479,0,12.429-8.296,12.429-8.296l33.608-90.177
		c0,0,4.225-11.546,4.225,0.978c0,17.215,0.223,63.207,0.336,85.306c0.038,7.452,1.194,12.189,9.994,12.189
		c45.587,0,128.721,0,171.629,0c12.188,0,10.7-6.343,10.674-15.912c-0.066-23.326-0.179-65.816-0.179-82.262
		c0-8.462,2.999-2.688,2.999-2.688l31.565,91.156c0,0,3.011,9.703,14.182,9.703c11.873,0,43.105,0,43.105,0
		C426.443,702.5,427.673,696.628,425.882,691.901z M264.648,638.467l-35.473,32.622c-3.318,3.05-8.751,3.05-12.069,0l-35.473-32.622
		c-3.322-3.049-5.278-9.157-4.355-13.566l18.497-88.332c0.277-1.319,1.113-5.317,1.041-6.225
		c-0.362-4.657-1.453-18.629-1.453-18.629c-0.354-4.495,3.049-8.174,7.555-8.174h40.44c4.507,0,7.909,3.679,7.556,8.174
		c0,0-1.091,13.972-1.453,18.629c-0.072,0.903,0.766,4.905,1.042,6.225l18.496,88.332
		C269.928,629.31,267.969,635.417,264.648,638.467z"/>
</g>
</svg>
