<?xml version="1.0" encoding="utf-8"?>
<!-- Generator: Adobe Illustrator 16.0.0, SVG Export Plug-In . SVG Version: 6.00 Build 0)  -->
<!DOCTYPE svg PUBLIC "-//W3C//DTD SVG 1.1//EN" "http://www.w3.org/Graphics/SVG/1.1/DTD/svg11.dtd">
<svg version="1.1" id="Capa_1" xmlns="http://www.w3.org/2000/svg" xmlns:xlink="http://www.w3.org/1999/xlink" x="0px" y="0px"
	 width="31.523px" height="32.011px" viewBox="0 0 31.523 32.011" enable-background="new 0 0 31.523 32.011" xml:space="preserve">
<g>
</g>
<g>
	<g id="Layer_1_9_">
		<g>
			<path fill="#3395FF" d="M29.738,1.697c0-0.782-0.634-1.416-1.415-1.416H3.556c-0.781,0-1.415,0.634-1.415,1.416
				c0,0.522,0.287,0.974,0.708,1.219v16.302c0.383-0.35,0.849-0.775,1.416-1.293V3.112h23.351v15.567H9.378
				c-0.474,0.517-0.907,0.991-1.295,1.416h1.249l-2.543,9.541c-0.201,0.757,0.248,1.531,1.003,1.73
				c0.75,0.201,1.53-0.246,1.731-1.001l2.55-9.564h7.732l2.551,9.564c0.169,0.632,0.741,1.049,1.366,1.049
				c0.122,0,0.243-0.013,0.365-0.048c0.757-0.201,1.205-0.976,1.004-1.73l-2.545-9.541h5.777c0.391,0,0.707-0.317,0.707-0.709V2.916
				C29.451,2.67,29.738,2.219,29.738,1.697z"/>
			<path fill="#3395FF" d="M17.002,16.027V10.72c0-0.782-0.636-1.416-1.417-1.416c-0.78,0-1.414,0.634-1.414,1.416v5.307
				c0,0.783,0.634,1.416,1.414,1.416C16.366,17.443,17.002,16.808,17.002,16.027z"/>
			<path fill="#3395FF" d="M21.601,16.027V5.765c0-0.781-0.635-1.415-1.417-1.415c-0.78,0-1.414,0.633-1.414,1.415v10.263
				c0,0.781,0.635,1.416,1.415,1.416C20.966,17.441,21.601,16.808,21.601,16.027z"/>
			<path fill="#3395FF" d="M26.199,16.027V8.595c0-0.782-0.634-1.416-1.415-1.416c-0.782,0-1.416,0.634-1.416,1.416v7.432
				c0,0.783,0.634,1.416,1.416,1.416C25.566,17.443,26.199,16.808,26.199,16.027z"/>
			<path fill="#3395FF" d="M12.064,13.156c-0.135-0.133-0.354-0.134-0.488,0c0,0-9.473,8.659-9.519,8.707
				c-0.359,0.358-0.359,0.94,0,1.302c0.359,0.36,0.943,0.36,1.301,0c0.047-0.044,8.706-9.52,8.706-9.52
				C12.199,13.509,12.198,13.292,12.064,13.156z"/>
		</g>
	</g>
</g>
</svg>
