<?xml version="1.0" encoding="utf-8"?>
<!-- Generator: Adobe Illustrator 16.0.0, SVG Export Plug-In . SVG Version: 6.00 Build 0)  -->
<!DOCTYPE svg PUBLIC "-//W3C//DTD SVG 1.1//EN" "http://www.w3.org/Graphics/SVG/1.1/DTD/svg11.dtd">
<svg version="1.1" id="Capa_1" xmlns="http://www.w3.org/2000/svg" xmlns:xlink="http://www.w3.org/1999/xlink" x="0px" y="0px"
	 width="31.524px" height="32.011px" viewBox="0 0 31.524 32.011" enable-background="new 0 0 31.524 32.011" xml:space="preserve">
<g>
	<g id="_x33_4">
		<g>
			<path fill="#3395FF" d="M30.839,0.263c-0.356,0-0.642,0.288-0.642,0.642v3.183L25.387,6.6c-0.667-0.865-1.71-1.424-2.884-1.424
				c-2.014,0-3.651,1.64-3.651,3.656c0,1.257,0.637,2.369,1.605,3.027l-1.597,3.6c-0.28-0.069-0.572-0.11-0.873-0.11
				c-2.013,0-3.651,1.642-3.651,3.657c0,0.301,0.041,0.593,0.11,0.874l-3.594,1.599C10.196,20.51,9.086,19.87,7.83,19.87
				c-2.012,0-3.648,1.641-3.648,3.656c0,1.227,0.606,2.31,1.533,2.974l-1.874,3.963H0.687c-0.354,0-0.642,0.287-0.642,0.643
				s0.288,0.643,0.642,0.643h28.387c1.327,0,2.404-1.08,2.404-2.41V0.906C31.479,0.551,31.192,0.263,30.839,0.263z M22.503,6.461
				c0.906,0,1.686,0.518,2.083,1.269c0.002,0.004,0.001,0.009,0.004,0.013c0.004,0.007,0.01,0.012,0.013,0.019
				c0.165,0.323,0.268,0.684,0.268,1.071c0,1.308-1.062,2.372-2.368,2.372c-1.305,0-2.368-1.064-2.368-2.372
				S21.198,6.461,22.503,6.461z M17.988,16.633c1.306,0,2.368,1.064,2.368,2.372c0,1.309-1.062,2.371-2.368,2.371
				s-2.368-1.062-2.368-2.371C15.619,17.698,16.682,16.633,17.988,16.633z M7.83,21.156c1.306,0,2.368,1.064,2.368,2.372
				c0,1.309-1.062,2.371-2.368,2.371c-0.36,0-0.698-0.086-1.004-0.231c-0.002-0.001-0.003-0.003-0.005-0.004
				c-0.001-0.001-0.002-0.001-0.003-0.001c-0.797-0.381-1.354-1.19-1.354-2.134C5.464,22.22,6.525,21.156,7.83,21.156z
				 M29.074,30.464H5.26l1.614-3.412c0.305,0.083,0.625,0.132,0.956,0.132c2.014,0,3.651-1.641,3.651-3.657
				c0-0.302-0.041-0.593-0.109-0.874l3.594-1.599c0.658,0.969,1.767,1.607,3.022,1.607c2.013,0,3.651-1.64,3.651-3.655
				c0-1.258-0.637-2.369-1.605-3.028l1.597-3.6c0.28,0.069,0.571,0.11,0.872,0.11c2.013,0,3.651-1.641,3.651-3.657
				c0-0.381-0.059-0.749-0.167-1.094l4.21-2.2V29.34C30.197,29.959,29.693,30.464,29.074,30.464z"/>
		</g>
	</g>
</g>
</svg>
