<?xml version="1.0" encoding="utf-8"?>
<!-- Generator: Adobe Illustrator 16.0.0, SVG Export Plug-In . SVG Version: 6.00 Build 0)  -->
<!DOCTYPE svg PUBLIC "-//W3C//DTD SVG 1.1//EN" "http://www.w3.org/Graphics/SVG/1.1/DTD/svg11.dtd">
<svg version="1.1" id="Capa_1" xmlns="http://www.w3.org/2000/svg" xmlns:xlink="http://www.w3.org/1999/xlink" x="0px" y="0px"
	 width="30.767px" height="30.15px" viewBox="0 0 30.767 30.15" enable-background="new 0 0 30.767 30.15" xml:space="preserve">
<g>
	<path fill="#3395FF" d="M25.122,21.042c-0.672-0.74-1.481-1.102-2.514-1.102h-2.177l-1.429-1.377
		c-1.05,0.861-2.325,1.36-3.702,1.36c-1.292,0-2.514-0.448-3.513-1.223l-1.274,1.223H8.248c-1.154,0-2.049,0.396-2.755,1.206
		c-2.049,2.376-1.705,7.456-1.55,9.022h22.936C26.999,28.566,27.206,23.366,25.122,21.042z"/>
	<path fill="#3395FF" d="M9.332,10.263c-0.413,0.344-0.688,0.895-0.688,1.532c0,0.947,0.62,1.722,1.412,1.86
		c0.172,1.429,0.758,2.686,1.636,3.616c0.189,0.189,0.379,0.379,0.585,0.534c0.258,0.207,0.534,0.379,0.827,0.534
		c0.654,0.345,1.377,0.534,2.152,0.534s1.498-0.189,2.152-0.534c0.292-0.155,0.568-0.327,0.827-0.534
		c0.207-0.155,0.396-0.344,0.585-0.534c0.861-0.93,1.463-2.169,1.618-3.599c0.018,0,0.035,0,0.052,0
		c0.913,0,1.636-0.844,1.636-1.877c0-0.637-0.275-1.188-0.688-1.532H9.332L9.332,10.263z"/>
	<path fill="#3395FF" d="M21.546,6.646c-0.534-1.773-1.945-3.582-3.736-4.511v4.046v0.551c0,0.035,0,0.052,0,0.069
		c-0.017,0.189-0.052,0.362-0.138,0.534c-0.224,0.43-0.671,0.74-1.188,0.74h-0.275h-1.894c-0.482,0-0.913-0.258-1.137-0.637
		c-0.103-0.155-0.155-0.327-0.189-0.517c-0.017-0.069-0.017-0.121-0.017-0.189V6.25V2.118C11.18,3.065,9.769,4.873,9.235,6.646
		L9.114,7.025H8.133v2.152h1.084h1.516h0.637h8.3h0.62h2.347V9.074V7.025h-0.969L21.546,6.646z"/>
	<path fill="#3395FF" d="M14.308,7.542h2.152c0.31,0,0.568-0.172,0.706-0.431c0.069-0.121,0.104-0.241,0.104-0.379V6.578V5.94V1.877
		V1.292V1.067c0-0.138-0.035-0.258-0.069-0.378C17.046,0.293,16.65,0,16.202,0h-1.894c-0.414,0-0.758,0.31-0.792,0.706
		c0,0.034-0.017,0.069-0.017,0.103v0.482v0.585v4.132v0.654v0.069c0,0.172,0.052,0.327,0.138,0.465
		C13.792,7.404,14.032,7.542,14.308,7.542z"/>
</g>
</svg>
