<?xml version="1.0" encoding="utf-8"?>
<!-- Generator: Adobe Illustrator 16.0.0, SVG Export Plug-In . SVG Version: 6.00 Build 0)  -->
<!DOCTYPE svg PUBLIC "-//W3C//DTD SVG 1.1//EN" "http://www.w3.org/Graphics/SVG/1.1/DTD/svg11.dtd">
<svg version="1.1" id="Capa_1" xmlns="http://www.w3.org/2000/svg" xmlns:xlink="http://www.w3.org/1999/xlink" x="0px" y="0px"
	 width="26.707px" height="28px" viewBox="0.647 0 26.707 28" enable-background="new 0.647 0 26.707 28" xml:space="preserve">
<g>
	<polygon fill="#007AFF" points="14.021,28.534 17.39,24.542 10.786,24.549 	"/>
	<path fill="#007AFF" d="M0.647,0.302v22.572h26.707V0.302H0.647z M26.703,22.34H1.094V0.844h25.609V22.34z"/>
	<path fill="#007AFF" d="M8.241,11.566l-3.119,3.246v5.478c0,0.153,0.125,0.279,0.279,0.279h3.787c0.154,0,0.28-0.125,0.28-0.279
		v-8.402l-0.874-0.321H8.241z"/>
	<path fill="#007AFF" d="M15.955,14.111h-3.787c-0.155,0-0.28,0.125-0.28,0.279v5.897c0,0.154,0.125,0.28,0.28,0.28h3.787
		c0.154,0,0.279-0.125,0.279-0.28v-5.897C16.234,14.236,16.109,14.111,15.955,14.111z"/>
	<path fill="#007AFF" d="M21.46,8.103l-0.688-0.575l-2.488,2.715v10.044c0,0.154,0.125,0.279,0.279,0.279h3.787
		c0.154,0,0.279-0.125,0.279-0.279V8.196c-0.016,0.009-0.029,0.02-0.045,0.028c-0.145,0.076-0.308,0.116-0.471,0.116
		C21.873,8.34,21.643,8.256,21.46,8.103z"/>
	<path fill="#007AFF" d="M4.196,13.393c0.147,0,0.293-0.058,0.403-0.171l3.565-3.71l6.238,2.295
		c0.213,0.078,0.452,0.021,0.605-0.146l5.744-6.266l1.344,1.124c0.065,0.055,0.157,0.064,0.233,0.025
		c0.076-0.04,0.12-0.121,0.113-0.207l-0.292-3.257c-0.011-0.116-0.113-0.202-0.229-0.191l-3.258,0.291
		c-0.084,0.008-0.156,0.066-0.183,0.147c-0.008,0.027-0.011,0.055-0.009,0.082c0.006,0.055,0.031,0.107,0.076,0.143l1.484,1.168
		l-5.656,6.078L8.359,8.609C8.151,8.533,7.951,8.466,7.797,8.625l-3.781,3.922c-0.214,0.223-0.429,0.477-0.207,0.69
		C3.917,13.341,4.057,13.393,4.196,13.393z"/>
</g>
</svg>
