<?xml version="1.0" encoding="utf-8"?>
<!-- Generator: Adobe Illustrator 16.0.0, SVG Export Plug-In . SVG Version: 6.00 Build 0)  -->
<!DOCTYPE svg PUBLIC "-//W3C//DTD SVG 1.1//EN" "http://www.w3.org/Graphics/SVG/1.1/DTD/svg11.dtd">
<svg version="1.1" id="Capa_1" xmlns="http://www.w3.org/2000/svg" xmlns:xlink="http://www.w3.org/1999/xlink" x="0px" y="0px"
	 width="310px" height="386px" viewBox="233.633 194.633 310 386" enable-background="new 233.633 194.633 310 386"
	 xml:space="preserve">
<g>
	<g>
		<path fill="#3395FF" d="M510.051,244.869h-49.744v-32.324c0-6.507-5.248-11.544-11.754-11.544c-0.631,0-1.053,0.21-1.258,0.421
			c-0.211-0.211-0.631-0.421-0.842-0.421H329.541h-0.837h-0.842c-6.506,0-11.544,5.038-11.544,11.544v32.325h-49.955
			c-14.275,0-25.398,11.123-25.398,25.398v18.471v23.088h22.04v236.55c0,14.277,10.914,25.189,25.188,25.189h200.031
			c14.275,0,25.398-10.912,25.398-25.189v-236.55h21.828v-23.088v-18.471C535.449,255.993,524.322,244.869,510.051,244.869z
			 M339.405,224.087h97.603v20.781h-97.603V224.087z M490.322,548.377c0,1.475-0.631,2.102-2.1,2.102H288.192
			c-1.468,0-2.1-0.627-2.1-2.102V311.826h204.23V548.377z M512.15,288.739H264.262v-18.472c0-1.469,0.631-2.31,2.1-2.31h243.689
			c1.471,0,2.1,0.841,2.1,2.31V288.739L512.15,288.739z"/>
		<rect x="430.502" y="338.904" fill="#3395FF" width="23.299" height="191.004"/>
		<rect x="376.768" y="338.904" fill="#3395FF" width="23.298" height="191.004"/>
		<rect x="323.034" y="338.904" fill="#3395FF" width="23.298" height="191.004"/>
	</g>
</g>
</svg>
