<?xml version="1.0" encoding="utf-8"?>
<!-- Generator: Adobe Illustrator 16.0.0, SVG Export Plug-In . SVG Version: 6.00 Build 0)  -->
<!DOCTYPE svg PUBLIC "-//W3C//DTD SVG 1.1//EN" "http://www.w3.org/Graphics/SVG/1.1/DTD/svg11.dtd">
<svg version="1.1" id="Capa_1" xmlns="http://www.w3.org/2000/svg" xmlns:xlink="http://www.w3.org/1999/xlink" x="0px" y="0px"
	 width="465.13px" height="385.666px" viewBox="-5 21 465.13 385.666" enable-background="new -5 21 465.13 385.666"
	 xml:space="preserve">
<g>
	<path fill="#3395FF" d="M388.086,61.625c0,0,0-4.339,0-9.678s-0.591-17.159-5.937-22.838c-2.688-2.858-6.575-5.036-12.135-5.036
		h-30.101c0,0-16.039,0-16.039,17.056v18.194c0,19.366-31.39,18.866-31.39,18.866l-129.272,0.076c0,0-31.981-0.801-31.981-16.631
		V38.467c0,0,1.007-14.744-16.058-14.744H83.086c0,0-16.09,0-16.09,15.884v22.037c0,0,0.574,9.471-12.437,14.301
		c-9.914,3.679-31.589,0.189-42.069,10.357c-5.436,5.262-9.672,14.072-9.672,28.722v256.4c0,0,0.99,35.241,32.097,35.241h383.269
		c0,0,34.128-2.264,34.128-34.1V113.902c0,0-1.04-35.222-33.128-35.222C419.184,78.67,388.086,76.359,388.086,61.625z
		 M339.906,60.445c0-10.018,6.225-18.188,15.049-18.188h1.008c8.873,0,16.082,8.168,16.082,18.188v36.401
		c0,10.018-6.692,18.178-15.566,18.178h-1.007c-8.873,0-15.565-8.149-15.565-18.178V60.445L339.906,60.445z M284.925,242.372h80.27
		c4.419,0,8.005,4.057,8.005,9.112c0,5.009-3.586,9.084-8.005,9.084h-80.27c-4.42,0-8.041-4.075-8.041-9.084
		C276.885,246.427,280.505,242.372,284.925,242.372z M372.719,288.991c0,5.357-3.812,8.518-8.516,8.518h-78.271
		c-4.703,0-8.531-3.161-8.531-8.518c0-5.33,3.821-9.669,8.531-9.669h78.271C368.907,279.32,372.719,283.66,372.719,288.991z
		 M140.056,133.287c24.755,0,44.824,24.895,44.824,58.466c0,33.582-20.07,60.834-44.824,60.834
		c-24.754,0-44.807-27.251-44.807-60.834C95.248,158.182,115.3,133.287,140.056,133.287z M83.568,59.483
		c0-10.018,6.177-17.056,15.05-17.056h1.007c8.874,0,15.549,7.027,15.549,17.056v37.363c0,10.018-7.208,18.178-16.04,18.178h-1.048
		c-8.823,0-14.518-8.149-14.518-18.178V59.483z M223.945,329.288c-3.928,6.396-12.736,5.545-12.736,5.545H70.359
		c0,0-9.504,0.709-13.692-5.828c-2.256-3.527-0.69-10.687,0.866-14.688l3.795-9.783c0,0,10.471-26.544,22.4-41.938
		c7.324-9.433,16.04-7.282,21.675-4.216c3.471,1.887,7.4,7.395,10.263,10.311c3.954,4.019,10.929,8.585,22.341,8.838h7
		c11.405-0.244,18.378-4.819,22.326-8.838c2.87-2.916,6.685-8.585,10.122-10.536c5.177-2.934,13.043-4.734,20.177,4.452
		c11.937,15.396,21.376,42.43,21.376,42.43l3.88,9.594C224.495,318.581,226.143,325.702,223.945,329.288z M365.96,333.325h-81.782
		c-4.297,0-7.768-3.905-7.768-8.791c0-4.878,3.471-8.838,7.768-8.838h81.782c4.253,0,7.767,3.96,7.767,8.838
		C373.725,329.42,370.213,333.325,365.96,333.325z"/>
</g>
</svg>
