<?xml version="1.0" encoding="utf-8"?>
<!-- Generator: Adobe Illustrator 16.0.0, SVG Export Plug-In . SVG Version: 6.00 Build 0)  -->
<!DOCTYPE svg PUBLIC "-//W3C//DTD SVG 1.1//EN" "http://www.w3.org/Graphics/SVG/1.1/DTD/svg11.dtd">
<svg version="1.1" id="Capa_1" xmlns="http://www.w3.org/2000/svg" xmlns:xlink="http://www.w3.org/1999/xlink" x="0px" y="0px"
	 width="20.18px" height="22.09px" viewBox="0 0 20.18 22.09" enable-background="new 0 0 20.18 22.09" xml:space="preserve">
<g>
	<path fill="#3395FF" d="M14.174,0.578H3.637c-0.708,0-1.284,0.577-1.284,1.284v18.366c0,0.709,0.576,1.284,1.284,1.284h12.905
		c0.708,0,1.284-0.575,1.284-1.284V4.547L14.174,0.578z M14.476,2.499l1.602,1.74h-1.602V2.499z M16.748,20.229
		c0,0.112-0.093,0.205-0.206,0.205H3.637c-0.114,0-0.206-0.093-0.206-0.205V1.862c0-0.114,0.092-0.205,0.206-0.205h9.759v3.122
		c0,0.298,0.243,0.539,0.54,0.539h2.812V20.229z M5.334,6.312h9.154c0.224,0,0.404,0.181,0.404,0.404
		c0,0.223-0.181,0.403-0.404,0.403H5.334c-0.224,0-0.404-0.181-0.404-0.403C4.929,6.493,5.11,6.312,5.334,6.312z M14.892,9.43
		c0,0.223-0.181,0.403-0.404,0.403H5.334c-0.224,0-0.404-0.181-0.404-0.403c0-0.223,0.181-0.404,0.404-0.404h9.154
		C14.711,9.026,14.892,9.207,14.892,9.43z M14.892,12.055c0,0.223-0.181,0.403-0.404,0.403H5.334c-0.224,0-0.404-0.181-0.404-0.403
		s0.181-0.403,0.404-0.403h9.154C14.711,11.651,14.892,11.832,14.892,12.055z M14.892,14.725c0,0.223-0.181,0.404-0.404,0.404H5.334
		c-0.224,0-0.404-0.182-0.404-0.404S5.11,14.32,5.334,14.32h9.154C14.711,14.32,14.892,14.502,14.892,14.725z"/>
</g>
</svg>
