<?xml version="1.0" encoding="utf-8"?>
<!-- Generator: Adobe Illustrator 16.0.0, SVG Export Plug-In . SVG Version: 6.00 Build 0)  -->
<!DOCTYPE svg PUBLIC "-//W3C//DTD SVG 1.1//EN" "http://www.w3.org/Graphics/SVG/1.1/DTD/svg11.dtd">
<svg version="1.1" id="Capa_1" xmlns="http://www.w3.org/2000/svg" xmlns:xlink="http://www.w3.org/1999/xlink" x="0px" y="0px"
	 width="20.18px" height="22.09px" viewBox="0 0 20.18 22.09" enable-background="new 0 0 20.18 22.09" xml:space="preserve">
<g>
	<g>
		<g>
			<path fill="#3395FF" d="M17.473,20.288c0,0.19-0.14,0.344-0.312,0.344c-0.172,0-0.312-0.154-0.312-0.344V0.344
				c0-0.19,0.139-0.344,0.312-0.344c0.172,0,0.312,0.154,0.312,0.344V20.288z"/>
			<path fill="#3395FF" d="M0.625,21.659c0,0.189-0.14,0.344-0.312,0.344s-0.312-0.154-0.312-0.344V0.345
				c0-0.189,0.139-0.344,0.312-0.344c0.172,0,0.312,0.154,0.312,0.344V21.659z"/>
			<path fill="#3395FF" d="M0.312,22.002C0.14,22.002,0,21.848,0,21.658c0-0.19,0.139-0.344,0.312-0.344h19.342
				c0.172,0,0.312,0.154,0.312,0.344c0,0.189-0.14,0.344-0.312,0.344H0.312z"/>
			<path fill="#3395FF" d="M19.966,21.658c0,0.189-0.14,0.344-0.312,0.344s-0.312-0.154-0.312-0.344V2.408
				c0-0.19,0.14-0.344,0.312-0.344s0.312,0.154,0.312,0.344V21.658z"/>
			<path fill="#3395FF" d="M0.312,0.689C0.139,0.689,0,0.535,0,0.345c0-0.189,0.139-0.344,0.312-0.344h16.849
				c0.172,0,0.312,0.154,0.312,0.344s-0.14,0.344-0.312,0.344H0.312z"/>
			<path fill="#3395FF" d="M8.424,3.439c-0.172,0-0.312-0.154-0.312-0.344s0.14-0.344,0.312-0.344h6.24
				c0.172,0,0.312,0.154,0.312,0.344s-0.14,0.344-0.312,0.344H8.424z"/>
			<path fill="#3395FF" d="M2.808,2.75h0.007h3.111c0.172,0,0.312,0.154,0.312,0.344v0.008v2.743c0,0.19-0.14,0.344-0.312,0.344
				H5.919H2.808c-0.172,0-0.312-0.154-0.312-0.344V5.836V3.095C2.496,2.906,2.636,2.75,2.808,2.75L2.808,2.75z M5.615,3.439H3.12
				v2.063h2.495V3.439L5.615,3.439z"/>
			<path fill="#3395FF" d="M18.719,20.288c0,0.189-0.14,0.344-0.312,0.344c-0.172,0-0.312-0.154-0.312-0.344V1.72
				c0-0.189,0.141-0.344,0.312-0.344c0.172,0,0.312,0.154,0.312,0.344V20.288z"/>
			<path fill="#3395FF" d="M2.809,8.94c-0.173,0-0.312-0.154-0.312-0.344s0.139-0.344,0.312-0.344h6.24
				c0.172,0,0.312,0.154,0.312,0.344S9.221,8.94,9.048,8.94H2.809z"/>
			<path fill="#3395FF" d="M2.809,11.691c-0.173,0-0.312-0.154-0.312-0.344c0-0.19,0.139-0.344,0.312-0.344h6.24
				c0.172,0,0.312,0.154,0.312,0.344c0,0.189-0.14,0.344-0.312,0.344H2.809z"/>
			<path fill="#3395FF" d="M2.808,17.194c-0.172,0-0.312-0.154-0.312-0.344s0.14-0.344,0.312-0.344h11.858
				c0.172,0,0.312,0.154,0.312,0.344s-0.14,0.344-0.312,0.344H2.808z"/>
			<path fill="#3395FF" d="M11.544,8.252h0.008h3.113c0.172,0,0.312,0.154,0.312,0.344v0.008v5.492c0,0.189-0.14,0.344-0.312,0.344
				h-0.008h-3.113c-0.171,0-0.312-0.154-0.312-0.344v-0.009V8.597C11.232,8.408,11.373,8.252,11.544,8.252L11.544,8.252z
				 M14.353,8.94h-2.497v4.812h2.497V8.94z"/>
			<path fill="#3395FF" d="M8.424,6.189c-0.172,0-0.312-0.154-0.312-0.344c0-0.189,0.14-0.344,0.312-0.344h6.24
				c0.172,0,0.312,0.154,0.312,0.344s-0.14,0.344-0.312,0.344H8.424z"/>
			<path fill="#3395FF" d="M2.809,14.441c-0.173,0-0.312-0.154-0.312-0.344s0.139-0.344,0.312-0.344h6.24
				c0.172,0,0.312,0.154,0.312,0.344c0,0.189-0.14,0.344-0.312,0.344H2.809z"/>
		</g>
	</g>
</g>
</svg>
