<?xml version="1.0" encoding="utf-8"?>
<!-- Generator: Adobe Illustrator 16.0.0, SVG Export Plug-In . SVG Version: 6.00 Build 0)  -->
<!DOCTYPE svg PUBLIC "-//W3C//DTD SVG 1.1//EN" "http://www.w3.org/Graphics/SVG/1.1/DTD/svg11.dtd">
<svg version="1.1" id="Capa_1" xmlns="http://www.w3.org/2000/svg" xmlns:xlink="http://www.w3.org/1999/xlink" x="0px" y="0px"
	 width="209.5px" height="176.5px" viewBox="0 0 209.5 176.5" enable-background="new 0 0 209.5 176.5" xml:space="preserve">
<g>
	<path fill="#3395FF" stroke="#FFFFFF" stroke-miterlimit="10" d="M172.08,28.63C153.046,10.167,127.955,0,101.432,0
		S49.818,10.167,30.783,28.63C11.791,47.051,0.86,71.734,0.003,98.133c-0.054,1.66,0.558,3.237,1.723,4.44
		c1.162,1.201,2.785,1.889,4.452,1.889h22.438c0.438,10.625,3.196,21.111,8.059,30.499c4.912,9.484,11.974,17.891,20.471,24.406
		v8.051c0,2.081,1.693,3.773,3.773,3.773h81.027c2.081,0,3.774-1.693,3.774-3.773v-8.051c8.495-6.513,15.555-14.917,20.467-24.399
		c4.865-9.39,7.625-19.877,8.061-30.505h22.439c1.667,0,3.29-0.689,4.452-1.889c1.165-1.204,1.776-2.78,1.722-4.44
		C202.004,71.734,191.073,47.051,172.08,28.63z M139.761,165.233H63.103v-19.463h76.658V165.233z M160.896,132.227
		c-3.794,7.323-8.983,13.947-15.177,19.428v-8.068c0-2.08-1.693-3.773-3.774-3.773H60.918c-2.081,0-3.773,1.693-3.773,3.773v8.068
		c-6.196-5.482-11.386-12.109-15.181-19.434c-4.948-9.553-7.458-19.892-7.459-30.728c0-0.003,0-0.006,0-0.009
		c0-0.003,0-0.005,0-0.009c0.005-36.899,30.026-66.918,66.927-66.918c16.476,0,31.577,5.988,43.251,15.897l-38.566,29.492
		c-1.511-0.329-3.077-0.506-4.685-0.506c-12.155,0-22.044,9.889-22.044,22.044s9.89,22.044,22.044,22.044
		c12.155,0,22.044-9.889,22.044-22.044c0-1.608-0.178-3.174-0.506-4.685l29.491-38.566c9.91,11.673,15.897,26.775,15.897,43.251
		C168.359,112.325,165.848,122.669,160.896,132.227L160.896,132.227z M112.599,82.488l33.269-25.44l-25.44,33.268
		C118.524,87.09,115.824,84.391,112.599,82.488z M117.518,101.483c0,8.87-7.216,16.087-16.086,16.087s-16.086-7.217-16.086-16.087
		s7.216-16.086,16.086-16.086S117.518,92.613,117.518,101.483z M196.858,98.429c-0.026,0.028-0.085,0.075-0.171,0.075h-22.435
		c-0.696-17.242-7.41-32.959-18.094-45.104l8.015-10.481c0.907-1.186,0.796-2.86-0.26-3.916c-1.056-1.056-2.73-1.167-3.916-0.26
		l-10.481,8.015c-12.842-11.297-29.675-18.16-48.083-18.16c-39.19,0-71.25,31.093-72.819,69.906H6.178
		c-0.086,0-0.145-0.048-0.172-0.075c-0.05-0.052-0.049-0.089-0.048-0.104c0.483-14.894,4.378-29.206,11.268-42.019l5.665,3.271
		c0.469,0.271,0.981,0.399,1.487,0.399c1.029,0,2.031-0.535,2.583-1.49c0.823-1.425,0.334-3.247-1.09-4.069l-5.658-3.267
		c4.096-6.587,9.021-12.717,14.72-18.245c4.98-4.831,10.402-9.055,16.169-12.641l3.266,5.656c0.552,0.956,1.553,1.49,2.582,1.49
		c0.505,0,1.018-0.128,1.487-0.4c1.425-0.822,1.913-2.644,1.09-4.069l-3.267-5.659C69.146,10.352,83.524,6.466,98.453,6.009v6.502
		c0,1.645,1.333,2.979,2.979,2.979s2.979-1.334,2.979-2.979V6.009c14.93,0.457,29.307,4.342,42.194,11.274l-3.267,5.659
		c-0.823,1.425-0.334,3.247,1.09,4.069c0.469,0.271,0.981,0.4,1.486,0.4c1.03,0,2.031-0.535,2.583-1.49l3.266-5.656
		c5.768,3.586,11.189,7.811,16.169,12.641c5.7,5.528,10.624,11.657,14.72,18.245l-5.658,3.267c-1.425,0.823-1.913,2.645-1.09,4.069
		c0.552,0.956,1.553,1.49,2.583,1.49c0.505,0,1.018-0.128,1.487-0.399l5.665-3.271c6.89,12.813,10.785,27.125,11.269,42.02
		C196.906,98.34,196.908,98.377,196.858,98.429L196.858,98.429z"/>
	<path fill="#3395FF" stroke="#FFFFFF" stroke-miterlimit="10" d="M98.453,95.128c0,1.646,1.333,2.979,2.979,2.979
		c1.862,0,3.376,1.514,3.376,3.376c0,1.645,1.334,2.979,2.979,2.979c1.645,0,2.979-1.334,2.979-2.979
		c0-5.147-4.187-9.334-9.334-9.334C99.786,92.149,98.453,93.483,98.453,95.128L98.453,95.128z"/>
</g>
</svg>
