<?xml version="1.0" encoding="utf-8"?>
<!-- Generator: Adobe Illustrator 16.0.0, SVG Export Plug-In . SVG Version: 6.00 Build 0)  -->
<!DOCTYPE svg PUBLIC "-//W3C//DTD SVG 1.1//EN" "http://www.w3.org/Graphics/SVG/1.1/DTD/svg11.dtd">
<svg version="1.1" id="Capa_1" xmlns="http://www.w3.org/2000/svg" xmlns:xlink="http://www.w3.org/1999/xlink" x="0px" y="0px"
	 width="612px" height="620.5px" viewBox="0 81.5 612 620.5" enable-background="new 0 81.5 612 620.5" xml:space="preserve">
<g>
	<path fill="#3395FF" d="M592.274,160.615H376.615v70.239h71.346v47.807h-71.346v46.724h70.615v47.077h-70.615v47.077h70.615v47.077
		h-70.615v47.077h70.615v47.077h-70.615v70.615h215.659c10.852,0,19.726-9.204,19.726-20.479V181.094
		C612,169.819,603.126,160.615,592.274,160.615z M564.923,560.77H470.77v-47.077h94.153V560.77z M564.923,466.615H470.77v-47.077
		h94.153V466.615z M564.923,372.461H470.77v-47.077h94.153V372.461z M564.923,278.308H470.77v-47.077h94.153V278.308z"/>
	<path fill="#3395FF" d="M0,158.002v476.018L353.077,702V90L0,158.002z M223.333,515.575l-41.075-77.653
		c-1.554-2.896-3.154-8.215-4.825-15.959h-0.636c-0.777,3.648-2.613,9.203-5.508,16.642l-41.216,76.971H66.072l75.982-119.198
		L72.545,277.154h65.343l34.084,71.486c2.66,5.649,5.037,12.357,7.156,20.102h0.659c1.342-4.661,3.837-11.581,7.485-20.785
		l37.897-70.827h59.835l-71.486,118.21l73.487,120.211L223.333,515.575L223.333,515.575z"/>
</g>
</svg>
