<?xml version="1.0" encoding="utf-8"?>
<!-- Generator: Adobe Illustrator 16.0.0, SVG Export Plug-In . SVG Version: 6.00 Build 0)  -->
<!DOCTYPE svg PUBLIC "-//W3C//DTD SVG 1.1//EN" "http://www.w3.org/Graphics/SVG/1.1/DTD/svg11.dtd">
<svg version="1.1" id="Capa_1" xmlns="http://www.w3.org/2000/svg" xmlns:xlink="http://www.w3.org/1999/xlink" x="0px" y="0px"
	 width="36.499px" height="36.46px" viewBox="288.671 367.491 36.499 36.46" enable-background="new 288.671 367.491 36.499 36.46"
	 xml:space="preserve">
<path fill="#3395FF" d="M316.527,385.204l-16.445-16.445c-0.328-0.327-0.859-0.327-1.186,0l-1.582,1.582
	c-0.157,0.157-0.246,0.369-0.246,0.592c0,0.224,0.088,0.437,0.246,0.594l14.271,14.271l-14.271,14.271
	c-0.157,0.157-0.246,0.371-0.246,0.594c0,0.222,0.088,0.436,0.246,0.593l1.582,1.581c0.164,0.164,0.378,0.246,0.593,0.246
	c0.215,0,0.43-0.082,0.593-0.246l16.445-16.446C316.855,386.062,316.855,385.531,316.527,385.204z"/>
</svg>
