<?xml version="1.0" encoding="utf-8"?>
<!-- Generator: Adobe Illustrator 16.0.0, SVG Export Plug-In . SVG Version: 6.00 Build 0)  -->
<!DOCTYPE svg PUBLIC "-//W3C//DTD SVG 1.1//EN" "http://www.w3.org/Graphics/SVG/1.1/DTD/svg11.dtd">
<svg version="1.1" id="Capa_1" xmlns="http://www.w3.org/2000/svg" xmlns:xlink="http://www.w3.org/1999/xlink" x="0px" y="0px"
	 width="36.499px" height="20.805px" viewBox="288.671 375.395 36.499 20.805"
	 enable-background="new 288.671 375.395 36.499 20.805" xml:space="preserve">
<path fill="#3395FF" d="M307.514,395.404l16.445-16.446c0.327-0.328,0.327-0.859,0-1.186l-1.582-1.582
	c-0.157-0.157-0.369-0.246-0.592-0.246c-0.224,0-0.437,0.088-0.594,0.246l-14.271,14.271l-14.271-14.271
	c-0.157-0.157-0.371-0.246-0.593-0.246c-0.222,0-0.436,0.088-0.593,0.246l-1.582,1.582c-0.164,0.164-0.246,0.378-0.246,0.593
	c0,0.215,0.082,0.43,0.246,0.593l16.446,16.446C306.655,395.731,307.187,395.731,307.514,395.404z"/>
</svg>
