<?xml version="1.0" encoding="utf-8"?>
<!-- Generator: Adobe Illustrator 16.0.0, SVG Export Plug-In . SVG Version: 6.00 Build 0)  -->
<!DOCTYPE svg PUBLIC "-//W3C//DTD SVG 1.1//EN" "http://www.w3.org/Graphics/SVG/1.1/DTD/svg11.dtd">
<svg version="1.1" id="Capa_1" xmlns="http://www.w3.org/2000/svg" xmlns:xlink="http://www.w3.org/1999/xlink" x="0px" y="0px"
	 width="61.771px" height="60.309px" viewBox="0 0 61.771 60.309" enable-background="new 0 0 61.771 60.309" xml:space="preserve">
<g>
	<path fill="#3395FF" d="M57.313,36.578l2.393-18.872l-17.169-6.516l-5.438,2.596c-0.167,0.831-0.422,1.639-0.755,2.416l4.115-1.965
		l-1.698,18.291l0.095,0.98l-12.541,1.892l-1.029,2.03l13.751-2.073l1.585,16.224l1.847-0.183l-1.597-16.316l0.161-0.024
		l14.377,1.821l0.035-0.281l2.172,18.247l-14.973-3.457L23.16,55.1l-0.162-0.031l1.751-16.643l-0.012-0.102L24.665,37.7
		l-2.399-4.739l0.339,2.999l-0.428,0.063l-13.89-2.151l0.083-0.685L6.242,16.408l9.718,4.104l-0.812-1.599
		c-0.262-0.341-0.5-0.697-0.727-1.06L3.995,13.45L6.5,33.196l-0.047,0.393l-0.035-0.005l-0.285,1.832l0.104,0.014L4.095,53.408
		l19.066,3.575l19.447-3.703l17.162,3.96L57.313,36.578z M41.011,33.185l-0.32,0.047l-0.07-0.697l1.787-19.229l0.211-0.101
		l15.062,5.715l-2.044,16.115L41.011,33.185z M21.169,54.726L6.14,51.906l1.929-16.191l14.104,2.186l0.642-0.096l0.072,0.629
		L21.169,54.726z M24.908,38.176l-0.241-0.475l-0.02-0.175l0.638-0.096L24.908,38.176z M16.589,17.328l8.189,16.162l8.101-15.987
		c1.592-1.855,2.56-4.261,2.56-6.893C35.438,4.76,30.677,0,24.826,0s-10.61,4.76-10.61,10.61c0,2.548,0.903,4.888,2.404,6.718
		H16.589z M24.827,4.09c3.596,0,6.522,2.926,6.522,6.521c0,3.596-2.927,6.522-6.522,6.522s-6.521-2.926-6.521-6.522
		C18.305,7.015,21.23,4.09,24.827,4.09z"/>
</g>
</svg>
