<?xml version="1.0" encoding="utf-8"?>
<!-- Generator: Adobe Illustrator 16.0.0, SVG Export Plug-In . SVG Version: 6.00 Build 0)  -->
<!DOCTYPE svg PUBLIC "-//W3C//DTD SVG 1.1//EN" "http://www.w3.org/Graphics/SVG/1.1/DTD/svg11.dtd">
<svg version="1.1" id="Capa_1" xmlns="http://www.w3.org/2000/svg" xmlns:xlink="http://www.w3.org/1999/xlink" x="0px" y="0px"
	 width="61.771px" height="60.309px" viewBox="7.104 0 61.771 60.309" enable-background="new 7.104 0 61.771 60.309"
	 xml:space="preserve">
<g>
	<path fill="#3395FF" d="M63.898,38.113l2.393-18.873l-17.169-6.515l-5.438,2.596c-0.167,0.831-0.422,1.638-0.755,2.416l4.116-1.965
		l-1.699,18.291l0.095,0.98l-12.541,1.892l-1.029,2.03l13.751-2.073l1.585,16.223l1.846-0.182l-1.596-16.317l0.161-0.024
		l14.377,1.821l0.035-0.281l2.172,18.247l-14.973-3.457l-19.484,3.712l-0.162-0.031l1.751-16.643l-0.012-0.101l-0.072-0.624
		l-2.4-4.74l0.339,2.999l-0.428,0.064l-13.889-2.152l0.083-0.684l-2.128-16.779l9.718,4.103l-0.812-1.599
		c-0.262-0.34-0.5-0.697-0.726-1.059L10.58,14.985l2.505,19.745l-0.047,0.392l-0.035-0.005l-0.285,1.832l0.103,0.014l-2.141,17.98
		l19.067,3.575l19.447-3.703l17.162,3.96L63.898,38.113z M47.596,34.719l-0.32,0.047l-0.07-0.697l1.787-19.229l0.211-0.101
		l15.062,5.715L62.222,36.57L47.596,34.719z M27.754,56.26l-15.029-2.819l1.929-16.192l14.104,2.186l0.641-0.096l0.072,0.629
		L27.754,56.26z M31.493,39.71l-0.241-0.474l-0.02-0.175l0.638-0.096L31.493,39.71z M23.174,18.863l8.189,16.162l8.101-15.988
		c1.591-1.855,2.559-4.26,2.559-6.892c0-5.851-4.761-10.611-10.612-10.611c-5.852,0-10.61,4.76-10.61,10.611
		c0,2.548,0.903,4.887,2.404,6.718H23.174z M31.412,5.624c3.596,0,6.522,2.926,6.522,6.521s-2.926,6.522-6.522,6.522
		s-6.522-2.926-6.522-6.522S27.815,5.624,31.412,5.624z"/>
</g>
</svg>
