<?xml version="1.0" encoding="utf-8"?>
<!-- Generator: Adobe Illustrator 16.0.0, SVG Export Plug-In . SVG Version: 6.00 Build 0)  -->
<!DOCTYPE svg PUBLIC "-//W3C//DTD SVG 1.1//EN" "http://www.w3.org/Graphics/SVG/1.1/DTD/svg11.dtd">
<svg version="1.1" id="Capa_1" xmlns="http://www.w3.org/2000/svg" xmlns:xlink="http://www.w3.org/1999/xlink" x="0px" y="0px"
	 width="510px" height="510px" viewBox="0 0 510 510" enable-background="new 0 0 510 510" xml:space="preserve">
<g>
	<g id="add-circle">
		<path fill="#3395FF" d="M255,0C114.75,0,0,114.75,0,255s114.75,255,255,255s255-114.75,255-255S395.25,0,255,0z"/>
	</g>
</g>
<path fill="#FFFFFF" d="M257.742,412.808c1.23,1.315,2.963,2.062,4.771,2.062c1.809,0,3.533-0.747,4.777-2.062
	c10.529-11.205,31.328-34.391,52.17-63.732c26.254-36.963,57.544-91.159,57.544-139.458c0-63.13-51.36-114.487-114.491-114.487
	c-63.127,0-114.486,51.356-114.486,114.487c0,48.332,31.328,102.564,57.611,139.553C226.473,378.51,247.222,401.628,257.742,412.808
	z M262.513,138.209c38.548,0,69.906,31.367,69.906,69.915c0,38.533-31.36,69.916-69.906,69.916
	c-38.544,0-69.906-31.383-69.906-69.916C192.609,169.576,223.969,138.209,262.513,138.209z"/>
</svg>
