<?xml version="1.0" encoding="utf-8"?>
<!-- Generator: Adobe Illustrator 16.0.0, SVG Export Plug-In . SVG Version: 6.00 Build 0)  -->
<!DOCTYPE svg PUBLIC "-//W3C//DTD SVG 1.1//EN" "http://www.w3.org/Graphics/SVG/1.1/DTD/svg11.dtd">
<svg version="1.1" id="Capa_1" xmlns="http://www.w3.org/2000/svg" xmlns:xlink="http://www.w3.org/1999/xlink" x="0px" y="0px"
	 width="612px" height="523.312px" viewBox="0 46.188 612 523.312" enable-background="new 0 46.188 612 523.312"
	 xml:space="preserve">
<g>
	<g id="Polygon_1">
		<g>
			<path fill="#007AFF" d="M577.358,46.188H34.642C15.508,46.188,0,61.696,0,80.83v334.869c0,19.133,15.508,34.641,34.642,34.641
				h35.6l62.54,115.473l62.54-115.473H577.36c19.134,0,34.642-15.508,34.642-34.641V80.83C612,61.696,596.492,46.188,577.358,46.188
				z M588.905,392.604c0,19.135-15.508,34.643-34.643,34.643H179.212l-45.646,79.051l-45.634-79.051H57.736
				c-19.134,0-34.642-15.508-34.642-34.643v-288.68c0-19.134,15.508-34.642,34.642-34.642h496.528
				c19.135,0,34.643,15.508,34.643,34.642L588.905,392.604L588.905,392.604z"/>
		</g>
	</g>
</g>
</svg>
