<?xml version="1.0" encoding="utf-8"?>
<!-- Generator: Adobe Illustrator 16.0.0, SVG Export Plug-In . SVG Version: 6.00 Build 0)  -->
<!DOCTYPE svg PUBLIC "-//W3C//DTD SVG 1.1//EN" "http://www.w3.org/Graphics/SVG/1.1/DTD/svg11.dtd">
<svg version="1.1" id="Capa_1" xmlns="http://www.w3.org/2000/svg" xmlns:xlink="http://www.w3.org/1999/xlink" x="0px" y="0px"
	 width="1425px" height="445.885px" viewBox="-421.5 0 1425 445.885" enable-background="new -421.5 0 1425 445.885"
	 xml:space="preserve">
<g>
	<g>
		<path fill="#3395FF" d="M-395.271,52.458h559.543c14.426,0,26.229-11.803,26.229-26.229C190.501,11.803,178.698,0,164.272,0
			h-559.543C-409.697,0.001-421.5,11.803-421.5,26.229C-421.5,40.655-409.697,52.458-395.271,52.458z"/>
		<path fill="#3395FF" d="M-395.271,249.172h559.543c14.426,0,26.229-11.803,26.229-26.229c0-14.425-11.803-26.229-26.229-26.229
			h-559.543c-14.426,0.002-26.229,11.805-26.229,26.229C-421.5,237.369-409.697,249.172-395.271,249.172z"/>
		<path fill="#3395FF" d="M-395.271,445.885h559.543c14.426,0,26.229-11.803,26.229-26.229s-11.803-26.229-26.229-26.229h-559.543
			c-14.426,0-26.229,11.805-26.229,26.229C-421.5,434.082-409.697,445.885-395.271,445.885z"/>
	</g>
</g>
<g id="Add">
	<path fill="#007AFF" d="M910.501,392.713L741.072,219.029L909.618,54.17c14.883-14.577,22.109-31.339,7.743-46.011
		c-14.366-14.673-31.279-7.804-46.164,6.77l-168.781,165.25L540.352,13.779C525.985-0.894,505.316-7.875,490.43,6.7
		c-14.89,14.576,1.739,38.388,16.104,53.062L662.6,219.161L493.82,384.41c-14.887,14.573-20.75,32.729-6.387,47.4
		c14.367,14.672,29.918,6.417,44.809-8.159L701.02,258.402l169.668,173.292c14.364,14.673,31.032,21.65,45.92,7.075
		C931.495,424.198,924.865,407.385,910.501,392.713z"/>
</g>
</svg>
