<?xml version="1.0" encoding="utf-8"?>
<!-- Generator: Adobe Illustrator 16.0.0, SVG Export Plug-In . SVG Version: 6.00 Build 0)  -->
<!DOCTYPE svg PUBLIC "-//W3C//DTD SVG 1.1//EN" "http://www.w3.org/Graphics/SVG/1.1/DTD/svg11.dtd">
<svg version="1.1" id="Capa_1" xmlns="http://www.w3.org/2000/svg" xmlns:xlink="http://www.w3.org/1999/xlink" x="0px" y="0px"
	 width="1425px" height="445.885px" viewBox="0 0 1425 445.885" enable-background="new 0 0 1425 445.885" xml:space="preserve">
<g>
	<g>
		<path fill="#3395FF" d="M84.777,52.458H644.32c14.426,0,26.229-11.803,26.229-26.229S658.746,0,644.32,0H84.777
			C70.351,0.001,58.548,11.803,58.548,26.229S70.351,52.458,84.777,52.458z"/>
		<path fill="#3395FF" d="M84.777,249.172H644.32c14.426,0,26.229-11.803,26.229-26.229c0-14.425-11.803-26.229-26.229-26.229
			H84.777c-14.426,0.002-26.229,11.805-26.229,26.229C58.548,237.369,70.351,249.172,84.777,249.172z"/>
		<path fill="#3395FF" d="M84.777,445.885H644.32c14.426,0,26.229-11.803,26.229-26.229s-11.803-26.229-26.229-26.229H84.777
			c-14.426,0-26.229,11.806-26.229,26.229C58.548,434.082,70.351,445.885,84.777,445.885z"/>
	</g>
</g>
<g id="Add">
	<path fill="#007AFF" d="M1390.549,392.713L1221.12,219.029L1389.666,54.17c14.883-14.577,22.108-31.339,7.743-46.011
		c-14.366-14.673-31.279-7.804-46.164,6.77l-168.781,165.25l-162.064-166.4C1006.033-0.894,985.364-7.875,970.478,6.7
		c-14.89,14.576,1.739,38.388,16.104,53.062l156.065,159.399L973.868,384.41c-14.888,14.573-20.75,32.729-6.388,47.399
		c14.367,14.673,29.918,6.417,44.81-8.158l168.777-165.25l169.668,173.293c14.364,14.673,31.032,21.649,45.921,7.075
		C1411.543,424.198,1404.913,407.385,1390.549,392.713z"/>
</g>
</svg>
