<?xml version="1.0" encoding="utf-8"?>
<!-- Generator: Adobe Illustrator 16.0.0, SVG Export Plug-In . SVG Version: 6.00 Build 0)  -->
<!DOCTYPE svg PUBLIC "-//W3C//DTD SVG 1.1//EN" "http://www.w3.org/Graphics/SVG/1.1/DTD/svg11.dtd">
<svg version="1.1" id="Capa_1" xmlns="http://www.w3.org/2000/svg" xmlns:xlink="http://www.w3.org/1999/xlink" x="0px" y="0px"
	 width="536px" height="632px" viewBox="36.5 78.5 536 632" enable-background="new 36.5 78.5 536 632" xml:space="preserve">
<g>
	<path fill="#3395FF" d="M432.628,359.379c0,26.158-14.494,39.793-38.936,39.623c-3.838,0-7.783,0-10.356-0.45v-73.885
		c2.724-0.579,6.84-1.05,12.779-1.05C419.656,323.617,432.843,336.803,432.628,359.379z M308.509,323.509
		c-5.167,0-8.834,0.45-10.828,0.879v34.541c2.444,0.75,5.317,0.922,9.176,0.922c14.022,0,22.599-7.011,22.599-18.954
		C329.435,329.427,321.523,323.509,308.509,323.509z M561.765,280.671v161.405H229.372V280.671H561.765z M348.109,340.126
		c0-9.648-4.031-17.731-10.12-22.792c-6.561-5.489-16.466-8.405-30.231-8.405c-12.542,0-21.869,0.922-28.751,2.166v101.607h18.653
		v-38.958c2.573,0.622,5.66,0.772,9.176,0.772c13.314,0,24.914-3.667,32.568-11.17C345.043,357.836,348.131,349.924,348.109,340.126
		z M452.525,358.758c0-17.41-6.09-29.824-16.21-37.907c-9.477-7.954-22.619-11.921-41.895-11.921
		c-11.085,0-21.505,0.922-29.952,2.166v101.35c6.261,0.75,14.558,1.351,25.386,1.351c20.047,0,36.385-4.717,46.633-14.065
		C446.265,390.897,452.547,377.261,452.525,358.758z M487.773,353.59v-28.43h40.779v-15.437H468.97v103h18.804v-43.846h37.907
		V353.59C525.68,353.59,487.773,353.59,487.773,353.59z M465.433,574.771L465.433,574.771h-93.46v85.912l-1.329,1.137H90.394
		V130.201h375.018v130.53h40.158v-150.62c0-11.063-8.984-20.111-20.068-20.111H70.304c-11.128,0-20.068,9.048-20.068,20.111V681.91
		c0,11.128,8.94,20.09,20.068,20.09h308.037c4.952,0,9.712-1.801,13.422-5.124L498.9,601.015c4.246-3.838,6.69-9.24,6.69-14.966
		V459.893h-40.158V574.771z"/>
</g>
</svg>
