<?xml version="1.0" encoding="utf-8"?>
<!-- Generator: Adobe Illustrator 16.0.0, SVG Export Plug-In . SVG Version: 6.00 Build 0)  -->
<!DOCTYPE svg PUBLIC "-//W3C//DTD SVG 1.1//EN" "http://www.w3.org/Graphics/SVG/1.1/DTD/svg11.dtd">
<svg version="1.1" id="Capa_1" xmlns="http://www.w3.org/2000/svg" xmlns:xlink="http://www.w3.org/1999/xlink" x="0px" y="0px"
	 width="31.758px" height="31.758px" viewBox="0 0 31.758 31.758" enable-background="new 0 0 31.758 31.758" xml:space="preserve">
<g>
	<g>
		<path fill="#FFFFFF" d="M8.779,16.363H8.055c-1.548,0-2.803,1.255-2.803,2.804v0.776c0,0.488,0.396,0.886,0.885,0.886h9.353
			c0.489,0,0.885-0.396,0.885-0.886v-0.776c0-1.549-1.255-2.804-2.803-2.804h-0.724c-0.376,0-0.68-0.304-0.68-0.68
			c0-0.14,0.056-0.273,0.156-0.37c0.421-0.41,0.775-0.96,1.031-1.554c0.052,0.039,0.108,0.066,0.171,0.066
			c0.407,0,0.884-0.898,0.884-1.51s-0.055-1.108-0.462-1.108c-0.048,0-0.099,0.008-0.151,0.021c-0.029-1.66-0.448-3.731-2.982-3.731
			c-2.644,0-2.953,2.067-2.982,3.725c-0.038-0.007-0.076-0.015-0.11-0.015c-0.407,0-0.463,0.496-0.463,1.108s0.477,1.51,0.884,1.51
			c0.05,0,0.097-0.014,0.14-0.039c0.255,0.583,0.605,1.123,1.019,1.527c0.1,0.097,0.156,0.231,0.156,0.37
			C9.459,16.059,9.155,16.363,8.779,16.363z"/>
		<path fill="#FFFFFF" d="M22.622,9.329c0-0.362-0.295-0.656-0.656-0.656h-7.844c0.226,0.501,0.388,1.117,0.455,1.88
			c0.168,0.104,0.293,0.271,0.396,0.472h6.991c0.363,0,0.656-0.294,0.656-0.656v-1.04H22.622z"/>
		<path fill="#FFFFFF" d="M22.545,14.947c0.045-0.089,0.076-0.185,0.076-0.291v-1.04c0-0.362-0.295-0.656-0.656-0.656h-6.833
			c-0.185,0.701-0.643,1.433-1.274,1.63c-0.019,0.035-0.041,0.065-0.06,0.099v0.623h7.927
			C21.991,15.174,22.264,15.054,22.545,14.947z"/>
		<path fill="#FFFFFF" d="M17.9,19.594c0.33-0.864,0.802-1.657,1.392-2.352h-2.66c0.352,0.557,0.559,1.215,0.559,1.922v0.43H17.9z"
			/>
		<path fill="#FFFFFF" d="M4.588,25.036c-1.523,0-2.762-1.677-2.762-3.734V8.222c0-2.06,1.239-3.736,2.762-3.736h19.927
			c1.522,0,2.763,1.676,2.763,3.736v6.409c0.643,0.151,1.254,0.378,1.826,0.672V8.222c0-3.067-2.059-5.562-4.588-5.562H4.588
			C2.058,2.66,0,5.155,0,8.222v13.077c0,3.066,2.059,5.562,4.588,5.562h14.084c-0.367-0.562-0.664-1.177-0.883-1.826H4.588
			L4.588,25.036z"/>
		<path fill="#FFFFFF" d="M25.422,16.428c-3.498,0-6.336,2.837-6.336,6.335c0,3.5,2.838,6.336,6.336,6.336
			c3.5,0,6.336-2.836,6.336-6.336C31.758,19.265,28.922,16.428,25.422,16.428z M28.979,23.058c0,0.291-0.236,0.524-0.525,0.524
			h-2.211v2.211c0,0.291-0.234,0.525-0.525,0.525h-0.588c-0.291,0-0.525-0.236-0.525-0.525v-2.211h-2.21
			c-0.291,0-0.526-0.235-0.526-0.524v-0.589c0-0.29,0.236-0.524,0.526-0.524h2.21v-2.211c0-0.29,0.236-0.524,0.525-0.524h0.588
			c0.291,0,0.525,0.235,0.525,0.524v2.211h2.211c0.291,0,0.524,0.236,0.524,0.524L28.979,23.058L28.979,23.058z"/>
	</g>
</g>
</svg>
