<?xml version="1.0" encoding="utf-8"?>
<!-- Generator: Adobe Illustrator 16.0.0, SVG Export Plug-In . SVG Version: 6.00 Build 0)  -->
<!DOCTYPE svg PUBLIC "-//W3C//DTD SVG 1.1//EN" "http://www.w3.org/Graphics/SVG/1.1/DTD/svg11.dtd">
<svg version="1.1" id="Capa_1" xmlns="http://www.w3.org/2000/svg" xmlns:xlink="http://www.w3.org/1999/xlink" x="0px" y="0px"
	 width="612px" height="590px" viewBox="0 101.5 612 590" enable-background="new 0 101.5 612 590" xml:space="preserve">
<g>
	<g>
		<path fill="#3395FF" d="M153,568.125v114.75h306v-114.75v-76.5H153V568.125z M191.25,529.875h229.5v38.25h-229.5V529.875z
			 M191.25,606.375h229.5v38.25h-229.5V606.375z"/>
		<polygon fill="#3395FF" points="459,223.875 459,109.125 153,109.125 153,223.875 153,300.375 459,300.375 		"/>
		<path fill="#3395FF" d="M535.5,223.875h-38.25v76.5v38.25h-382.5v-38.25v-76.5H76.5c-38.25,0-76.5,38.25-76.5,76.5v191.25
			c0,38.25,38.25,76.5,76.5,76.5h38.25v-76.5v-38.25h382.5v38.25v76.5h38.25c38.25,0,76.5-38.25,76.5-76.5v-191.25
			C612,262.125,573.75,223.875,535.5,223.875z"/>
	</g>
</g>
</svg>
