<?xml version="1.0" encoding="utf-8"?>
<!-- Generator: Adobe Illustrator 16.0.0, SVG Export Plug-In . SVG Version: 6.00 Build 0)  -->
<!DOCTYPE svg PUBLIC "-//W3C//DTD SVG 1.1//EN" "http://www.w3.org/Graphics/SVG/1.1/DTD/svg11.dtd">
<svg version="1.1" id="Capa_1" xmlns="http://www.w3.org/2000/svg" xmlns:xlink="http://www.w3.org/1999/xlink" x="0px" y="0px"
	 width="490.039px" height="618.5px" viewBox="60.979 83.5 490.039 618.5" enable-background="new 60.979 83.5 490.039 618.5"
	 xml:space="preserve">
<g>
	<g>
		<path fill="#353535" d="M306.001,415.988c90.563-0.005,123.147-90.682,131.679-165.167C448.188,159.06,404.799,90,306.001,90
			c-98.782,0-142.195,69.055-131.679,160.82C182.862,325.304,215.436,415.995,306.001,415.988z"/>
		<path fill="#353535" d="M550.981,631.908c-0.99-28.904-4.378-57.939-9.422-86.394c-6.11-34.469-13.889-85.002-43.982-107.465
			c-17.404-12.987-39.941-17.249-59.865-25.081c-9.697-3.81-18.384-7.594-26.537-11.9c-27.518,30.176-63.399,45.962-105.186,45.964
			c-41.774,0-77.652-15.786-105.167-45.964c-8.153,4.308-16.84,8.093-26.537,11.9c-19.924,7.832-42.461,12.092-59.863,25.081
			c-30.096,22.463-37.873,72.996-43.983,107.465c-5.045,28.454-8.433,57.489-9.422,86.394
			c-0.766,22.387,10.288,25.524,29.017,32.284c23.453,8.458,47.666,14.736,72.041,19.884c47.077,9.94,95.603,17.582,143.921,17.924
			c48.318-0.343,96.844-7.983,143.921-17.924c24.375-5.146,48.59-11.424,72.041-19.884
			C540.694,657.435,551.747,654.297,550.981,631.908z"/>
	</g>
</g>
</svg>
