<?xml version="1.0" encoding="utf-8"?>
<!-- Generator: Adobe Illustrator 16.0.0, SVG Export Plug-In . SVG Version: 6.00 Build 0)  -->
<!DOCTYPE svg PUBLIC "-//W3C//DTD SVG 1.1//EN" "http://www.w3.org/Graphics/SVG/1.1/DTD/svg11.dtd">
<svg version="1.1" id="Capa_1" xmlns="http://www.w3.org/2000/svg" xmlns:xlink="http://www.w3.org/1999/xlink" x="0px" y="0px"
	 width="19.998px" height="18.803px" viewBox="0.473 3.2 19.998 18.803" enable-background="new 0.473 3.2 19.998 18.803"
	 xml:space="preserve">
<g>
	<path fill="#3395FF" d="M12.42,7.398c0.871,0.546,1.481,1.47,1.592,2.542c0.355,0.166,0.749,0.261,1.167,0.261
		c1.525,0,2.761-1.236,2.761-2.761c0-1.525-1.236-2.762-2.761-2.762C13.668,4.68,12.443,5.894,12.42,7.398z M10.611,13.052
		c1.525,0,2.762-1.235,2.762-2.761c0-1.525-1.237-2.761-2.762-2.761s-2.762,1.237-2.762,2.762S9.086,13.052,10.611,13.052z
		 M11.782,13.241H9.439c-1.949,0-3.536,1.586-3.536,3.536v2.866l0.007,0.044l0.197,0.062c1.861,0.582,3.477,0.776,4.808,0.776
		c2.599,0,4.104-0.741,4.197-0.789l0.185-0.093h0.02v-2.866C15.317,14.827,13.731,13.241,11.782,13.241z M16.351,10.39h-2.325
		C14,11.32,13.604,12.158,12.975,12.76c1.733,0.515,3.001,2.123,3.001,4.02v0.883c2.295-0.084,3.619-0.735,3.706-0.778l0.184-0.094
		h0.02v-2.866C19.886,11.976,18.3,10.39,16.351,10.39z M5.766,10.202c0.54,0,1.042-0.158,1.469-0.426
		c0.135-0.883,0.608-1.654,1.285-2.18c0.002-0.052,0.008-0.103,0.008-0.155c0-1.525-1.237-2.762-2.761-2.762
		c-1.525,0-2.761,1.236-2.761,2.762C3.004,8.966,4.24,10.202,5.766,10.202z M8.245,12.76c-0.625-0.599-1.021-1.433-1.049-2.357
		C7.11,10.396,7.024,10.39,6.937,10.39H4.594c-1.95,0-3.536,1.586-3.536,3.536v2.866l0.007,0.044l0.197,0.062
		c1.493,0.466,2.825,0.681,3.981,0.749V16.78C5.245,14.883,6.512,13.276,8.245,12.76z"/>
</g>
</svg>
