<?xml version="1.0" encoding="utf-8"?>
<!-- Generator: Adobe Illustrator 16.0.0, SVG Export Plug-In . SVG Version: 6.00 Build 0)  -->
<!DOCTYPE svg PUBLIC "-//W3C//DTD SVG 1.1//EN" "http://www.w3.org/Graphics/SVG/1.1/DTD/svg11.dtd">
<svg version="1.1" id="Capa_1" xmlns="http://www.w3.org/2000/svg" xmlns:xlink="http://www.w3.org/1999/xlink" x="0px" y="0px"
	 width="19.998px" height="18.803px" viewBox="0 0 19.998 18.803" enable-background="new 0 0 19.998 18.803" xml:space="preserve">
<g>
	<path fill="#3395FF" d="M11.946,4.198c0.871,0.546,1.482,1.47,1.594,2.542c0.354,0.166,0.748,0.261,1.166,0.261
		c1.525,0,2.762-1.236,2.762-2.761s-1.236-2.762-2.762-2.762C13.194,1.48,11.97,2.694,11.946,4.198z M10.137,9.852
		c1.526,0,2.762-1.234,2.762-2.761c0-1.525-1.236-2.761-2.762-2.761c-1.524,0-2.761,1.237-2.761,2.762
		C7.376,8.617,8.613,9.852,10.137,9.852z M11.31,10.041H8.966c-1.949,0-3.536,1.586-3.536,3.535v2.867l0.007,0.043l0.197,0.062
		c1.861,0.582,3.477,0.775,4.808,0.775c2.6,0,4.104-0.74,4.198-0.789l0.184-0.092h0.021v-2.867
		C14.845,11.627,13.259,10.041,11.31,10.041z M15.878,7.189h-2.324c-0.027,0.93-0.422,1.769-1.051,2.37c1.732,0.515,3,2.123,3,4.021
		v0.883c2.295-0.084,3.619-0.735,3.707-0.778l0.184-0.094h0.02v-2.866C19.413,8.775,17.827,7.189,15.878,7.189z M5.293,7.002
		c0.54,0,1.042-0.158,1.469-0.426c0.135-0.883,0.608-1.654,1.285-2.18c0.002-0.052,0.008-0.103,0.008-0.155
		c0-1.525-1.237-2.762-2.761-2.762c-1.525,0-2.761,1.236-2.761,2.762C2.531,5.766,3.767,7.002,5.293,7.002z M7.772,9.56
		C7.147,8.961,6.751,8.127,6.723,7.203C6.637,7.195,6.551,7.189,6.464,7.189H4.121c-1.95,0-3.536,1.586-3.536,3.536v2.866
		l0.007,0.044l0.197,0.062c1.493,0.467,2.825,0.682,3.981,0.75V13.58C4.772,11.683,6.039,10.076,7.772,9.56z"/>
</g>
</svg>
