<?xml version="1.0" encoding="utf-8"?>
<!-- Generator: Adobe Illustrator 16.0.0, SVG Export Plug-In . SVG Version: 6.00 Build 0)  -->
<!DOCTYPE svg PUBLIC "-//W3C//DTD SVG 1.1//EN" "http://www.w3.org/Graphics/SVG/1.1/DTD/svg11.dtd">
<svg version="1.1" id="Capa_1" xmlns="http://www.w3.org/2000/svg" xmlns:xlink="http://www.w3.org/1999/xlink" x="0px" y="0px"
	 width="25.445px" height="24.579px" viewBox="7.983 6.362 25.445 24.579" enable-background="new 7.983 6.362 25.445 24.579"
	 xml:space="preserve">
<path fill="#3395FF" d="M17.006,26.405h-4.371c-0.546,0-0.99,0.443-0.99,0.989v1.822c0,0.545,0.444,0.989,0.99,0.989h4.371
	c0.545,0,0.989-0.444,0.989-0.989v-1.822C17.995,26.849,17.551,26.405,17.006,26.405z"/>
<path fill="#3395FF" d="M24.33,26.405h-4.371c-0.546,0-0.99,0.443-0.99,0.989v1.822c0,0.545,0.444,0.989,0.99,0.989h4.371
	c0.545,0,0.99-0.444,0.99-0.989v-1.822C25.32,26.849,24.875,26.405,24.33,26.405z"/>
<path fill="#3395FF" d="M12.635,21.079h4.371c0.545,0,0.989-0.444,0.989-0.989v-1.822c0-0.546-0.444-0.99-0.989-0.99h-4.371
	c-0.546,0-0.99,0.444-0.99,0.99v1.822C11.646,20.635,12.089,21.079,12.635,21.079z"/>
<path fill="#3395FF" d="M8.973,21.842c-0.545,0-0.989,0.444-0.989,0.989v1.821c0,0.546,0.444,0.99,0.989,0.99h4.371
	c0.546,0,0.989-0.444,0.989-0.99v-1.821c0-0.545-0.443-0.989-0.989-0.989H8.973z"/>
<path fill="#3395FF" d="M15.308,22.831v1.821c0,0.546,0.444,0.99,0.99,0.99h4.371c0.545,0,0.989-0.444,0.989-0.99v-1.821
	c0-0.545-0.444-0.989-0.989-0.989h-4.371C15.752,21.842,15.308,22.286,15.308,22.831z"/>
<path fill="#3395FF" d="M33.158,9.195l-0.727-0.727c-0.174-0.173-0.406-0.27-0.653-0.27c-0.248,0-0.479,0.096-0.653,0.27
	l-2.435,2.435c-0.325,0.325-0.355,0.833-0.094,1.194L25.9,14.794l-1.376-1.376c-0.161-0.161-0.368-0.25-0.583-0.25
	c-0.269,0-0.515,0.137-0.674,0.375l-2.001,2.994c-0.215,0.321-0.391,0.875-0.401,1.262l-0.051,2.099
	c-0.006,0.245,0.084,0.476,0.253,0.648c0.169,0.173,0.397,0.269,0.641,0.269l2.122-0.052c0.387-0.01,0.941-0.185,1.263-0.4
	l2.994-2.001c0.211-0.142,0.347-0.36,0.37-0.599c0.023-0.238-0.066-0.479-0.247-0.659l-1.376-1.375l2.698-2.698
	c0.156,0.114,0.344,0.176,0.541,0.176c0.248,0,0.479-0.096,0.653-0.27l2.434-2.434c0.174-0.174,0.271-0.406,0.271-0.653
	C33.429,9.601,33.333,9.369,33.158,9.195z M26.633,17.827c-0.128,0.325-0.673,0.427-0.979,0.708
	c-0.265,0.244-0.374,0.784-0.744,0.949c-0.369,0.164-0.844-0.117-1.202-0.083c-0.414,0.039-0.854,0.375-1.181,0.253
	c-0.384-0.145-0.433-0.66-0.586-1.005c-0.154-0.345-0.504-0.728-0.354-1.109c0.128-0.326,0.673-0.427,0.979-0.708
	c0.264-0.243,0.374-0.784,0.744-0.949c0.37-0.165,0.845,0.117,1.202,0.083c0.414-0.039,0.854-0.375,1.182-0.252
	c0.383,0.144,0.432,0.66,0.585,1.005C26.433,17.063,26.783,17.445,26.633,17.827z"/>
</svg>
