<?xml version="1.0" encoding="utf-8"?>
<!-- Generator: Adobe Illustrator 16.0.0, SVG Export Plug-In . SVG Version: 6.00 Build 0)  -->
<!DOCTYPE svg PUBLIC "-//W3C//DTD SVG 1.1//EN" "http://www.w3.org/Graphics/SVG/1.1/DTD/svg11.dtd">
<svg version="1.1" id="Capa_1" xmlns="http://www.w3.org/2000/svg" xmlns:xlink="http://www.w3.org/1999/xlink" x="0px" y="0px"
	 width="100px" height="100px" viewBox="256 346 100 100" enable-background="new 256 346 100 100" xml:space="preserve">
<circle fill="#3395FF" cx="306.623" cy="396" r="50"/>
<g>
	<g>
		<path fill="#FCFCFC" d="M355.496,362.818c-0.527-0.883-1.397-1.501-2.4-1.703l-53.246-12.836c-1.754-0.34-3.485,0.629-4.093,2.306
			l-20.296,51.56l6.775,2.469l19.234-49.024l46.264,11.806c-2.889,8.957-9.765,27.652-16.355,45.061
			c-5.746,15.188-9.053,20.389-15.337,21.45c-0.007-0.007-0.015-0.015-0.015-0.025c-12.844,1.8-12.613-14.573-12.613-14.573
			l-41.02-16.57c-2.915,18.477,11.282,22.92,11.282,22.92l30.032,13.636c0.007,0.003,4.695,2.237,9.791,2.007
			c13.744-0.323,18.574-10.303,24.625-26.291c8.744-23.107,17.618-49,17.705-49.273C356.143,364.754,356.02,363.697,355.496,362.818
			z"/>
		<path fill="#FCFCFC" d="M331.226,383.61c0.312,0.085,0.637,0.131,0.956,0.131c1.582,0,3.029-1.055,3.473-2.655
			c0.527-1.922-0.611-3.908-2.53-4.432l-15.628-4.823c-1.898-0.525-3.906,0.604-4.43,2.524c-0.523,1.922,0.604,3.908,2.531,4.434
			L331.226,383.61z"/>
		<path fill="#FCFCFC" d="M306.809,388.8c-0.627,1.894,0.39,3.933,2.277,4.563l15.546,5.556c0.378,0.126,0.748,0.183,1.122,0.185
			c1.517,0.008,2.938-0.949,3.443-2.463c0.628-1.889-0.387-3.93-2.282-4.562l-15.54-5.551
			C309.477,385.898,307.441,386.916,306.809,388.8z"/>
		<path fill="#FCFCFC" d="M305.44,401.579c-1.892-0.633-3.934,0.399-4.552,2.299c-0.622,1.884,0.414,3.929,2.306,4.546l15.578,5.533
			c0.375,0.127,0.749,0.182,1.128,0.182c1.513,0,2.924-0.965,3.422-2.478c0.622-1.896-0.41-3.935-2.302-4.554L305.44,401.579z"/>
		<path fill="#FCFCFC" d="M304.863,367.625c2.208,0,3.999,1.742,3.999,3.889c0,2.147-1.791,3.888-3.999,3.888
			c-2.209,0-4-1.74-4-3.888C300.863,369.367,302.654,367.625,304.863,367.625z"/>
		<path fill="#FCFCFC" d="M299.206,382.079c2.21,0,3.999,1.74,3.999,3.886c0,2.145-1.789,3.885-3.999,3.885
			c-2.209,0-4.001-1.74-4.001-3.885C295.205,383.819,296.997,382.079,299.206,382.079z"/>
		<path fill="#FCFCFC" d="M293.172,396.99c2.211,0,4.002,1.742,4.002,3.893c0,2.145-1.791,3.884-4.002,3.884
			c-2.209,0-4-1.738-4-3.884C289.172,398.732,290.963,396.99,293.172,396.99z"/>
	</g>
</g>
</svg>
