<?xml version="1.0" encoding="utf-8"?>
<!-- Generator: Adobe Illustrator 16.0.0, SVG Export Plug-In . SVG Version: 6.00 Build 0)  -->
<!DOCTYPE svg PUBLIC "-//W3C//DTD SVG 1.1//EN" "http://www.w3.org/Graphics/SVG/1.1/DTD/svg11.dtd">
<svg version="1.1" id="Capa_1" xmlns="http://www.w3.org/2000/svg" xmlns:xlink="http://www.w3.org/1999/xlink" x="0px" y="0px"
	 width="22.271px" height="23.217px" viewBox="296.915 385.038 22.271 23.217"
	 enable-background="new 296.915 385.038 22.271 23.217" xml:space="preserve">
<path fill="#3395FF" d="M306.294,396.45l10.458-9.908c0.207-0.197,0.546-0.197,0.754,0l1.006,0.953
	c0.1,0.095,0.155,0.224,0.155,0.357c0,0.134-0.056,0.263-0.155,0.357l-9.075,8.598l9.075,8.598c0.1,0.095,0.155,0.224,0.155,0.357
	s-0.056,0.263-0.155,0.357l-1.006,0.952c-0.104,0.099-0.24,0.148-0.377,0.148s-0.273-0.05-0.377-0.148l-10.458-9.907
	C306.085,396.968,306.085,396.647,306.294,396.45z"/>
<path fill="#3395FF" d="M297.669,396.45l10.458-9.908c0.208-0.197,0.546-0.197,0.755,0l1.006,0.952
	c0.1,0.096,0.157,0.225,0.157,0.357c0,0.135-0.058,0.264-0.157,0.357l-9.074,8.599l9.074,8.598c0.1,0.095,0.157,0.224,0.157,0.357
	s-0.058,0.263-0.157,0.357l-1.006,0.952c-0.103,0.099-0.24,0.148-0.377,0.148s-0.272-0.05-0.378-0.148l-10.458-9.907
	C297.462,396.968,297.462,396.647,297.669,396.45z"/>
</svg>
