<?xml version="1.0" encoding="utf-8"?>
<!-- Generator: Adobe Illustrator 16.0.0, SVG Export Plug-In . SVG Version: 6.00 Build 0)  -->
<!DOCTYPE svg PUBLIC "-//W3C//DTD SVG 1.1//EN" "http://www.w3.org/Graphics/SVG/1.1/DTD/svg11.dtd">
<svg version="1.1" id="Capa_1" xmlns="http://www.w3.org/2000/svg" xmlns:xlink="http://www.w3.org/1999/xlink" x="0px" y="0px"
	 width="31.433px" height="31.485px" viewBox="0 0 31.433 31.485" enable-background="new 0 0 31.433 31.485" xml:space="preserve">
<g>
	<g>
		<g>
			<g>
				<g>
					<path fill="#3395FF" d="M17.4,30.817h-3.234c-0.486,0-0.656,0.001-2.314-4.107l-1.281-0.521
						c-3.489,1.583-3.903,1.583-4.041,1.583H6.263l-0.228-0.196l-2.292-2.243c-0.349-0.349-0.469-0.47,1.324-4.524l-0.522-1.236
						c-4.212-1.509-4.212-1.684-4.212-2.181v-3.171c0-0.497,0-0.653,4.198-2.277l0.522-1.237c-1.897-3.993-1.767-4.117-1.392-4.47
						l2.465-2.417l0.306-0.009c0.373,0,1.754,0.504,4.108,1.498l1.276-0.519c1.538-4.124,1.726-4.123,2.211-4.123h3.234
						c0.484,0,0.655,0,2.313,4.109l1.283,0.517c3.483-1.581,3.902-1.581,4.041-1.581h0.266l0.228,0.192l2.292,2.239
						c0.349,0.352,0.468,0.473-1.326,4.528l0.523,1.243c4.218,1.503,4.218,1.678,4.218,2.176v3.167c0,0.484,0,0.656-4.203,2.28
						l-0.519,1.239c1.888,3.976,1.763,4.101,1.41,4.456l-2.484,2.432l-0.308,0.009c-0.371,0-1.749-0.504-4.1-1.5l-1.284,0.519
						C18.07,30.817,17.895,30.817,17.4,30.817z M14.502,29.508h2.551c0.292-0.597,0.925-2.179,1.431-3.542l0.103-0.271l2.323-0.938
						l0.25,0.105c1.385,0.591,3.021,1.245,3.658,1.446l1.792-1.753c-0.228-0.631-0.917-2.175-1.541-3.478l-0.125-0.265l0.961-2.294
						l0.262-0.102c1.398-0.538,3.018-1.203,3.624-1.505v-2.463c-0.612-0.288-2.226-0.902-3.617-1.395l-0.272-0.097l-0.967-2.296
						l0.115-0.259c0.595-1.342,1.257-2.927,1.469-3.565L24.721,5.08c-0.58,0.203-2.205,0.898-3.575,1.523L20.891,6.72l-2.322-0.936
						l-0.104-0.259c-0.549-1.371-1.231-2.959-1.539-3.547h-2.549c-0.294,0.595-0.925,2.177-1.431,3.54l-0.1,0.27l-2.317,0.942
						l-0.25-0.107C8.893,6.033,7.253,5.38,6.613,5.179l-1.79,1.755c0.225,0.63,0.917,2.173,1.538,3.476l0.127,0.265l-0.966,2.293
						l-0.259,0.101c-1.396,0.538-3.014,1.201-3.619,1.503v2.466c0.612,0.289,2.225,0.904,3.614,1.399l0.27,0.099l0.968,2.289
						L6.38,21.083c-0.595,1.342-1.256,2.923-1.47,3.561l1.802,1.762c0.579-0.204,2.201-0.9,3.572-1.526l0.258-0.118l2.317,0.942
						l0.104,0.258C13.514,27.333,14.194,28.92,14.502,29.508z M15.716,21.019c-2.965,0-5.38-2.368-5.38-5.277
						c0-2.908,2.415-5.274,5.38-5.274c2.964,0,5.374,2.367,5.374,5.274C21.09,18.651,18.681,21.019,15.716,21.019z M15.716,11.779
						c-2.245,0-4.069,1.778-4.069,3.963c0,2.187,1.824,3.966,4.069,3.966c2.241,0,4.064-1.779,4.064-3.966
						C19.78,13.557,17.958,11.779,15.716,11.779z"/>
				</g>
			</g>
		</g>
	</g>
</g>
</svg>
