<?xml version="1.0" encoding="utf-8"?>
<!-- Generator: Adobe Illustrator 16.0.0, SVG Export Plug-In . SVG Version: 6.00 Build 0)  -->
<!DOCTYPE svg PUBLIC "-//W3C//DTD SVG 1.1//EN" "http://www.w3.org/Graphics/SVG/1.1/DTD/svg11.dtd">
<svg version="1.1" id="Capa_1" xmlns="http://www.w3.org/2000/svg" xmlns:xlink="http://www.w3.org/1999/xlink" x="0px" y="0px"
	 width="31.884px" height="32.719px" viewBox="0 0 31.884 32.719" enable-background="new 0 0 31.884 32.719" xml:space="preserve">
<g>
	<g>
		<g>
			<path fill="#3395FF" d="M16.005,22.489c-4.902,0-8.892-3.989-8.892-8.893v-4.35c0-4.903,3.99-8.893,8.892-8.893
				c4.904,0,8.893,3.99,8.893,8.893v4.35C24.898,18.5,20.91,22.489,16.005,22.489z M16.005,1.764c-4.126,0-7.482,3.356-7.482,7.483
				v4.35c0,4.126,3.356,7.482,7.482,7.482c4.127,0,7.484-3.356,7.484-7.482v-4.35C23.489,5.121,20.132,1.764,16.005,1.764z"/>
			<path fill="#3395FF" d="M27.903,32.365H3.979c-2.081,0-3.774-1.693-3.774-3.776v-3.313c0-1.234,0.621-2.887,3.578-3.748
				l3.58-0.99c0.376-0.104,0.764,0.116,0.867,0.491c0.104,0.375-0.116,0.763-0.491,0.867l-3.571,0.987
				c-2.553,0.745-2.553,1.985-2.553,2.393v3.313c0,1.305,1.061,2.366,2.365,2.366h23.924c1.305,0,2.366-1.061,2.366-2.366v-3.313
				c0-1.1-0.861-1.905-2.56-2.394l-3.405-0.951c-0.375-0.105-0.593-0.495-0.488-0.869c0.104-0.375,0.493-0.595,0.868-0.489
				l3.411,0.952c2.964,0.853,3.585,2.509,3.585,3.749v3.314C31.679,30.671,29.986,32.365,27.903,32.365z"/>
		</g>
	</g>
</g>
</svg>
