<?xml version="1.0" encoding="utf-8"?>
<!-- Generator: Adobe Illustrator 16.0.0, SVG Export Plug-In . SVG Version: 6.00 Build 0)  -->
<!DOCTYPE svg PUBLIC "-//W3C//DTD SVG 1.1//EN" "http://www.w3.org/Graphics/SVG/1.1/DTD/svg11.dtd">
<svg version="1.1" id="Capa_1" xmlns="http://www.w3.org/2000/svg" xmlns:xlink="http://www.w3.org/1999/xlink" x="0px" y="0px"
	 width="22.867px" height="23.617px" viewBox="0 0 22.867 23.617" enable-background="new 0 0 22.867 23.617" xml:space="preserve">
<g>
	<g>
		<g>
			<path fill="#3395FF" d="M11.474,15.796c-3.188,0-5.785-2.596-5.785-5.785v-2.83c0-3.19,2.597-5.786,5.785-5.786
				c3.191,0,5.786,2.596,5.786,5.786v2.83C17.26,13.201,14.666,15.796,11.474,15.796z M11.474,2.313
				c-2.684,0-4.867,2.184-4.867,4.869v2.83c0,2.683,2.184,4.867,4.867,4.867c2.687,0,4.869-2.184,4.869-4.867v-2.83
				C16.343,4.497,14.16,2.313,11.474,2.313z"/>
			<path fill="#3395FF" d="M19.215,22.223H3.65c-1.354,0-2.456-1.103-2.456-2.457v-2.156c0-0.803,0.404-1.879,2.329-2.438
				l2.33-0.646c0.243-0.067,0.496,0.076,0.562,0.319s-0.076,0.495-0.319,0.562l-2.323,0.644c-1.661,0.483-1.661,1.291-1.661,1.557
				v2.156c0,0.848,0.69,1.539,1.54,1.539h15.564c0.851,0,1.539-0.689,1.539-1.539v-2.156c0-0.715-0.562-1.239-1.666-1.559
				l-2.215-0.617c-0.244-0.068-0.388-0.322-0.317-0.565c0.067-0.244,0.319-0.388,0.563-0.318l2.219,0.621
				c1.931,0.556,2.333,1.633,2.333,2.438v2.156C21.671,21.12,20.57,22.223,19.215,22.223z"/>
		</g>
	</g>
</g>
</svg>
