<?xml version="1.0" encoding="utf-8"?>
<!-- Generator: Adobe Illustrator 16.0.0, SVG Export Plug-In . SVG Version: 6.00 Build 0)  -->
<!DOCTYPE svg PUBLIC "-//W3C//DTD SVG 1.1//EN" "http://www.w3.org/Graphics/SVG/1.1/DTD/svg11.dtd">
<svg version="1.1" id="Capa_1" xmlns="http://www.w3.org/2000/svg" xmlns:xlink="http://www.w3.org/1999/xlink" x="0px" y="0px"
	 width="22.866px" height="23.617px" viewBox="9.018 9.102 22.866 23.617" enable-background="new 9.018 9.102 22.866 23.617"
	 xml:space="preserve">
<g>
	<g>
		<g>
			<path fill="#3395FF" d="M20.492,24.606c-3.189,0-5.785-2.596-5.785-5.786v-2.83c0-3.19,2.596-5.786,5.785-5.786
				c3.191,0,5.786,2.596,5.786,5.786v2.83C26.278,22.011,23.683,24.606,20.492,24.606z M20.492,11.123
				c-2.684,0-4.868,2.184-4.868,4.869v2.83c0,2.684,2.184,4.868,4.868,4.868c2.686,0,4.869-2.184,4.869-4.868v-2.83
				C25.361,13.306,23.177,11.123,20.492,11.123z"/>
			<path fill="#3395FF" d="M28.233,31.031H12.668c-1.354,0-2.456-1.102-2.456-2.457v-2.156c0-0.803,0.404-1.878,2.328-2.438
				l2.33-0.644c0.244-0.068,0.496,0.075,0.563,0.319c0.067,0.244-0.076,0.496-0.319,0.563l-2.323,0.643
				c-1.661,0.484-1.661,1.291-1.661,1.556v2.156c0,0.849,0.69,1.54,1.539,1.54h15.565c0.849,0,1.539-0.69,1.539-1.54v-2.156
				c0-0.715-0.561-1.239-1.666-1.557l-2.215-0.619c-0.244-0.068-0.386-0.322-0.318-0.565c0.068-0.244,0.32-0.387,0.564-0.318
				l2.219,0.62c1.929,0.555,2.333,1.633,2.333,2.439v2.157C30.689,29.93,29.587,31.031,28.233,31.031z"/>
		</g>
	</g>
</g>
</svg>
