<?xml version="1.0" encoding="utf-8"?>
<!-- Generator: Adobe Illustrator 16.0.0, SVG Export Plug-In . SVG Version: 6.00 Build 0)  -->
<!DOCTYPE svg PUBLIC "-//W3C//DTD SVG 1.1//EN" "http://www.w3.org/Graphics/SVG/1.1/DTD/svg11.dtd">
<svg version="1.1" id="Capa_1" xmlns="http://www.w3.org/2000/svg" xmlns:xlink="http://www.w3.org/1999/xlink" x="0px" y="0px"
	 width="29.969px" height="29.687px" viewBox="225.951 10.272 29.969 29.687" enable-background="new 225.951 10.272 29.969 29.687"
	 xml:space="preserve">
<path fill="#3395FF" d="M240.772,10.272c-0.004,0-0.009,0.001-0.014,0.001c-0.004,0-0.008-0.001-0.012-0.001
	c-8.019,0-14.521,6.5-14.521,14.521c0,8.019,6.502,14.521,14.521,14.521c0.004,0,0.008,0,0.012,0c0.005,0,0.01,0,0.014,0
	c8.02,0,14.52-6.502,14.52-14.521C255.293,16.772,248.792,10.272,240.772,10.272z"/>
<g>
	<g>
		<path fill="#FFFFFF" d="M247.163,20.256h-2.479c-0.788-0.703-2.272-1.136-3.925-1.136c-1.65,0-3.136,0.433-3.923,1.136h-2.479
			c-3.342,0-6.062,2.719-6.062,6.061c0,3.341,2.72,6.06,6.062,6.06c3.341,0,6.061-2.719,6.061-6.06c0-0.045,0-0.089-0.002-0.134
			h0.689c-0.001,0.044-0.002,0.089-0.002,0.134c0,3.341,2.719,6.06,6.061,6.06s6.061-2.719,6.061-6.06
			C253.223,22.975,250.504,20.256,247.163,20.256z M234.356,29.913c-1.983,0-3.596-1.614-3.596-3.596
			c0-1.983,1.612-3.597,3.596-3.597c1.982,0,3.595,1.613,3.595,3.597C237.951,28.299,236.338,29.913,234.356,29.913z
			 M242.387,22.604h-3.257c-0.388,0-0.701-0.315-0.701-0.702s0.313-0.702,0.701-0.702h3.257c0.388,0,0.703,0.315,0.703,0.702
			S242.775,22.604,242.387,22.604z M247.163,29.913c-1.982,0-3.596-1.614-3.596-3.596c0-1.983,1.613-3.597,3.596-3.597
			c1.983,0,3.597,1.613,3.597,3.597C250.759,28.299,249.146,29.913,247.163,29.913z"/>
	</g>
</g>
</svg>
