<?xml version="1.0" encoding="utf-8"?>
<!-- Generator: Adobe Illustrator 16.0.0, SVG Export Plug-In . SVG Version: 6.00 Build 0)  -->
<!DOCTYPE svg PUBLIC "-//W3C//DTD SVG 1.1//EN" "http://www.w3.org/Graphics/SVG/1.1/DTD/svg11.dtd">
<svg version="1.1" id="Capa_1" xmlns="http://www.w3.org/2000/svg" xmlns:xlink="http://www.w3.org/1999/xlink" x="0px" y="0px"
	 width="29.969px" height="29.688px" viewBox="0 0 29.969 29.688" enable-background="new 0 0 29.969 29.688" xml:space="preserve">
<path fill="#3395FF" d="M14.998,0.323c-0.004,0-0.009,0.001-0.014,0.001c-0.004,0-0.008-0.001-0.012-0.001
	c-8.02,0-14.521,6.5-14.521,14.521c0,8.02,6.502,14.521,14.521,14.521c0.004,0,0.008,0,0.012,0c0.005,0,0.01,0,0.014,0
	c8.02,0,14.52-6.502,14.52-14.521C29.52,6.823,23.018,0.323,14.998,0.323z"/>
<g>
	<g>
		<path fill="#FFFFFF" d="M21.389,10.306H18.91c-0.789-0.703-2.271-1.136-3.925-1.136c-1.65,0-3.136,0.433-3.923,1.136H8.583
			c-3.342,0-6.062,2.72-6.062,6.062c0,3.341,2.72,6.06,6.062,6.06c3.341,0,6.062-2.719,6.062-6.06c0-0.045,0-0.089-0.002-0.134
			h0.688c-0.001,0.044-0.002,0.089-0.002,0.134c0,3.341,2.718,6.06,6.062,6.06c3.342,0,6.061-2.719,6.061-6.06
			C27.449,13.026,24.731,10.306,21.389,10.306z M8.582,19.964c-1.982,0-3.596-1.614-3.596-3.596c0-1.983,1.612-3.598,3.596-3.598
			c1.982,0,3.596,1.613,3.596,3.598C12.177,18.349,10.564,19.964,8.582,19.964z M16.614,12.655h-3.257
			c-0.388,0-0.701-0.315-0.701-0.702s0.313-0.702,0.701-0.702h3.257c0.387,0,0.703,0.315,0.703,0.702S17,12.655,16.614,12.655z
			 M21.389,19.964c-1.982,0-3.596-1.614-3.596-3.596c0-1.983,1.613-3.598,3.596-3.598s3.598,1.613,3.598,3.598
			C24.985,18.349,23.371,19.964,21.389,19.964z"/>
	</g>
</g>
</svg>
