<?xml version="1.0" encoding="utf-8"?>
<!-- Generator: Adobe Illustrator 16.0.0, SVG Export Plug-In . SVG Version: 6.00 Build 0)  -->
<!DOCTYPE svg PUBLIC "-//W3C//DTD SVG 1.1//EN" "http://www.w3.org/Graphics/SVG/1.1/DTD/svg11.dtd">
<svg version="1.1" id="Layer_1" xmlns="http://www.w3.org/2000/svg" xmlns:xlink="http://www.w3.org/1999/xlink" x="0px" y="0px"
	 width="29.543px" height="29.357px" viewBox="0 0 29.543 29.357" enable-background="new 0 0 29.543 29.357" xml:space="preserve">
<g>
	<path fill="#3395FF" d="M14.784,0.157c-0.004,0-0.008,0.001-0.013,0.001c-0.004,0-0.007-0.001-0.012-0.001
		c-8.019,0-14.52,6.5-14.52,14.521c0,8.019,6.501,14.521,14.52,14.521c0.005,0,0.008,0,0.012,0c0.005,0,0.009,0,0.013,0
		c8.02,0,14.521-6.502,14.521-14.521C29.306,6.657,22.804,0.157,14.784,0.157z M14.784,25.043c-0.004,0-0.008-0.001-0.013-0.001
		c-0.004,0-0.007,0.001-0.012,0.001c-1.312,0-2.377-1.064-2.377-2.378c0-1.312,1.064-2.376,2.377-2.376c0.005,0,0.008,0,0.012,0
		c0.005,0,0.009,0,0.013,0c1.312,0,2.378,1.063,2.378,2.376S16.099,25.043,14.784,25.043z M18.192,6.93
		c-0.155,2.372-1.239,9.425-1.239,9.425c0,1.19-0.975,2.153-2.164,2.153c-0.006,0-0.012,0-0.019,0c-0.006,0-0.013,0-0.019,0
		c-1.189,0-2.163-0.965-2.163-2.153c0,0-1.084-7.054-1.239-9.425c-0.077-1.188,0.833-3.392,3.403-3.392c0.006,0,0.012,0,0.018,0
		c0.006,0,0.013,0,0.02,0C17.359,3.538,18.27,5.742,18.192,6.93z"/>
</g>
</svg>
